<?xml version="1.0" encoding="UTF-8"?>
<svg xmlns="http://www.w3.org/2000/svg" id="_365_bank_Logo" data-name="365 bank_Logo" viewBox="0 0 283.46 144.12">
  <defs>
    <style>.cls-1{fill:#45dbcc;}.cls-2{fill:#808287;}</style>
  </defs>
  <path class="cls-1" d="M219.28,69.7A114.13,114.13,0,0,0,0,114.12H14.2a99.93,99.93,0,0,1,199.85,0h14.2a113.48,113.48,0,0,0-9-44.42"></path>
  <path class="cls-2" d="M77,112.94A15.5,15.5,0,0,0,84,100.35c0-9-8.5-16.3-19-16.3s-19,7.3-19,16.3H53.7a8.34,8.34,0,0,1,2.92-6.14,12.91,12.91,0,0,1,16.69,0,7.9,7.9,0,0,1,0,12.27A12.37,12.37,0,0,1,65,109.55H60.81v7.1H65A13.75,13.75,0,0,1,74.21,120a8.75,8.75,0,0,1,0,13.64,14.4,14.4,0,0,1-18.49,0,9.53,9.53,0,0,1-3.17-5.53H44.74c.77,8.94,9.53,16,20.23,16,11.2,0,20.28-7.74,20.28-17.29,0-5.69-3.23-10.74-8.22-13.89m50.27,11A13.29,13.29,0,1,1,114,110.73,13.28,13.28,0,0,1,127.3,124m7.1,0A20.28,20.28,0,0,0,114,103.81c-.52,0-1,0-1.55.06l14-18.88H117.6L97.78,111.78A19.84,19.84,0,0,0,93.63,124a20.39,20.39,0,0,0,40.77,0m17.43-16.2V92.09h28.22V85H144.73v32.6h7.1a13.17,13.17,0,1,1-1,10.53h-7.34a20.36,20.36,0,1,0,19.95-24.31,18.74,18.74,0,0,0-11.58,4"></path>
  <path class="cls-2" d="M274.47,122.84h-2.4v19.58h2.4v-5.95l5.55,5.95h3.29l-5.93-6.37,6.08-6.53h-3.28l-5.71,6.12Zm-15.54,6.35h0Zm-3.37.33h-2.4v12.9h2.4v-7.28a3.86,3.86,0,0,1,1-2.65,3.17,3.17,0,0,1,2.38-1.05,3.62,3.62,0,0,1,3.54,3.7v7.28h2.41v-7.28a5.94,5.94,0,0,0-5.94-5.95,4.47,4.47,0,0,0-3.38,1.51Zm-16.18,13.23h0Zm0-13.56h0ZM235,136a4.46,4.46,0,0,1,4.38-4.53,4.54,4.54,0,0,1,0,9.06A4.46,4.46,0,0,1,235,136m-2.41,0a6.79,6.79,0,0,0,6.78,6.78,5.58,5.58,0,0,0,4.19-1.85v1.52H246v-12.9h-2.4V131a5.58,5.58,0,0,0-4.19-1.85,6.79,6.79,0,0,0-6.78,6.78m-11.94,6.78h0Zm0-13.56h0ZM216.45,136a4.3,4.3,0,0,1,4.18-4.53,4.53,4.53,0,0,1,0,9.06,4.3,4.3,0,0,1-4.18-4.53m0-13.13h-2.4v19.58h2.4V140.9a5.58,5.58,0,0,0,4.19,1.85,6.78,6.78,0,0,0,0-13.56,5.58,5.58,0,0,0-4.19,1.85Z"></path>
</svg>
