<?xml version="1.0" encoding="utf-8"?>
<!-- Generator: Adobe Illustrator 23.0.4, SVG Export Plug-In . SVG Version: 6.00 Build 0)  -->
<svg version="1.1" id="Layer_1" xmlns="http://www.w3.org/2000/svg" xmlns:xlink="http://www.w3.org/1999/xlink" x="0px" y="0px"
	 viewBox="0 0 267 260.1" style="enable-background:new 0 0 267 260.1;" xml:space="preserve">
<style type="text/css">
	.st0{fill:#60B1E7;}
	.st1{fill:#FCFCFC;}
	.st2{fill:#24588D;}
	.st3{fill:#1D558F;}
</style>
<g>
	<path class="st0" d="M189.3,145.8c13.4,0,26.2,2.5,38,7c2.5-4.7,4.6-9.6,6.3-14.7h-97.8v22.2C151.5,151.1,169.8,145.8,189.3,145.8z
		"/>
	<path class="st1" d="M42,157.1c13.2-6.1,28-9.5,43.5-9.5c18.1,0,35.2,4.6,50.1,12.8c0.1,0,0.2-0.1,0.2-0.1v-22.2H33.4
		C35.7,144.7,38.5,151.1,42,157.1z"/>
	<g>
		<path class="st0" d="M239.2,106.3H136.2v15.6h101.5C238.6,116.8,239.1,111.6,239.2,106.3z"/>
		<path class="st1" d="M27.9,106.3c0.1,5.3,0.6,10.5,1.4,15.6h107v-15.6H27.9z"/>
	</g>
	<g>
		<rect x="68" y="76.9" class="st1" width="68.2" height="15.6"/>
		<rect x="136.2" y="76.9" class="st0" width="62.7" height="15.6"/>
	</g>
	<g>
		<path class="st1" d="M96.6,46.8c-3.3,0-6,3-6.6,7l15.7,8.1c1,0.5,1.9,1.2,2.7,1.9h27.8v-17H96.6z"/>
		<path class="st0" d="M177,54.5c-0.3-4.3-3.2-7.7-6.7-7.7h-34.1v17h22.7L177,54.5z"/>
	</g>
	<g>
		<path class="st2" d="M38.4,258.8L34,247.5H14.8l-4.1,11.3H0L19.4,209h10l20,49.8H38.4z M22,227.8l-4.1,11.2h12.9l-4.2-11.2
			c-0.5-1.5-1-2.9-1.4-4.5c-0.4-1.5-0.7-2.8-0.8-3.7h-0.3C23.7,222.4,23,225.1,22,227.8z"/>
		<path class="st2" d="M91.6,222.9c0,2.5-0.6,4.6-1.9,6.3c-1.3,1.7-3,3-5.1,4c3.1,0.9,5.4,2.4,7,4.5c1.6,2.1,2.4,4.6,2.4,7.5
			c0,5-1.7,8.7-5.1,11c-3.4,2.3-7.6,3.5-12.6,3.5H54.4v-49.8h22c4.5,0,8.2,1,11,3.1C90.2,215,91.6,218.4,91.6,222.9z M81.8,224
			c0-2.2-0.7-3.8-2.1-4.5c-1.4-0.8-3.2-1.2-5.4-1.2h-10v11.4h10.1c2.4,0,4.2-0.5,5.5-1.4C81.2,227.3,81.8,225.9,81.8,224z
			 M83.6,244.9c0-2.2-0.7-3.9-2.1-5c-1.4-1.2-3.8-1.8-7.2-1.8h-10v13.1h10.2c1.6,0,3.1-0.1,4.4-0.4c1.3-0.3,2.4-0.9,3.3-1.8
			C83.1,248.1,83.6,246.7,83.6,244.9z"/>
		<path class="st0" d="M142.6,223.2c0,2.5-0.7,4.6-2,6.3c-1.3,1.7-3.1,3-5.3,4c3.2,0.9,5.6,2.4,7.3,4.5c1.7,2.1,2.5,4.6,2.5,7.5
			c0,5-1.8,8.7-5.3,11c-3.5,2.3-7.9,3.5-13,3.5H104v-49.8h22.8c4.7,0,8.5,1,11.4,3.1C141.1,215.3,142.6,218.7,142.6,223.2z
			 M132.4,224.3c0-2.2-0.7-3.8-2.2-4.5c-1.4-0.8-3.3-1.2-5.5-1.2h-10.3V230h10.5c2.5,0,4.4-0.5,5.6-1.4
			C131.8,227.6,132.4,226.2,132.4,224.3z M134.3,245.2c0-2.2-0.7-3.9-2.2-5c-1.4-1.2-3.9-1.8-7.4-1.8h-10.3v13.1H125
			c1.7,0,3.2-0.1,4.5-0.4c1.3-0.3,2.5-0.9,3.4-1.8C133.8,248.4,134.3,247,134.3,245.2z"/>
		<path class="st0" d="M184.4,259.2H175c-0.5-1-0.9-2.4-1.2-4c-3.2,3.2-6.9,4.8-11.2,4.8c-2.4,0-4.4-0.5-6.2-1.4
			c-1.8-0.9-3.2-2.2-4.1-3.8c-1-1.6-1.5-3.5-1.5-5.6c0-3.2,1-5.7,3.1-7.6c2.1-1.9,5.3-3.2,9.6-3.8c4.3-0.7,7.4-1.3,9.2-2v-0.7
			c0-2.1-0.5-3.6-1.5-4.3c-1-0.8-2.6-1.2-4.6-1.2c-1.6,0-2.9,0.4-4,1.1c-1.1,0.7-1.9,1.9-2.4,3.4l-8.7-1.3c1-3.6,2.7-6.3,5.3-8
			c2.6-1.7,6-2.5,10.4-2.5c3.5,0,6.4,0.4,8.6,1.3c2.2,0.9,3.8,2.3,4.9,4.3c1.1,1.9,1.6,4.5,1.6,7.6v14.7c0,1.7,0.1,3.2,0.4,4.3
			C182.9,255.8,183.5,257.3,184.4,259.2z M165.5,243.7c-3.4,0.7-5.1,2.3-5.1,5c0,1.5,0.4,2.6,1.3,3.4c0.8,0.8,2,1.2,3.6,1.2
			c1.6,0,3-0.4,4.3-1.2c0.9-0.5,1.6-1.1,2-1.7c0.4-0.6,0.8-1.4,0.9-2.4c0.2-1,0.3-2.4,0.3-4.3v-1.7
			C171.1,242.6,168.7,243.2,165.5,243.7z"/>
		<path class="st0" d="M215,237.1c0-2.3-0.4-4.1-1.3-5.2c-0.9-1.2-2.3-1.8-4.3-1.8c-2.2,0-4,0.8-5.4,2.4c-1.4,1.6-2.1,4-2.1,7.2v20
			h-9.5v-36h8.9v4.7c1.3-1.8,2.9-3.2,4.8-4.1c1.9-0.9,4-1.4,6.2-1.4c4,0,7,1.1,9.1,3.2c2.1,2.1,3.2,5.1,3.2,8.9v24.8H215V237.1z"/>
		<path class="st0" d="M254.6,224.1h11.6l-12.3,13.1l13.1,22.9h-10.8l-8.8-16.3l-4.1,4.4v11.9h-9.5v-49.8h9.5v26.4L254.6,224.1z"/>
	</g>
	<path class="st2" d="M133.5,0C75.2,0,27.8,46.8,27.8,104.5c0,0.6,0,1.2,0,1.8h211.3c0-0.6,0-1.2,0-1.8C239.2,46.8,191.9,0,133.5,0z
		 M96.6,46.8h73.8c3.5,0,6.4,3.3,6.7,7.6l-18.1,9.1h-50.5c-0.8-0.7-1.7-1.4-2.7-1.9L90,53.7C90.5,49.7,93.3,46.8,96.6,46.8z
		 M199,92.1H68V76.9H199V92.1z"/>
	<path class="st3" d="M135.8,160c-15-8-32.1-12.6-50.3-12.6c-15.6,0-30.4,3.3-43.7,9.3c4.7,8,10.4,15.3,17,21.8
		c4.1-0.5,8.3-0.7,12.5-0.7c23,0,44.2,7.2,61.6,19.6c17.3-12.3,38.6-19.6,61.6-19.6c4.5,0,8.9,0.3,13.3,0.8
		c7.7-7.6,14.3-16.4,19.4-26c-11.7-4.5-24.5-6.9-37.8-6.9C169.7,145.7,151.5,150.9,135.8,160z"/>
	<path class="st3" d="M33.4,138.1h200.2c1.8-5.4,3.2-10.9,4.2-16.6H29.2C30.1,127.2,31.5,132.7,33.4,138.1z"/>
</g>
</svg>
