<svg id="Capa_1" data-name="Capa 1" xmlns="http://www.w3.org/2000/svg" viewBox="0 0 283.46 283.46"><defs><style>.cls-1{fill:#321464;}</style></defs><title>Aion_Logo_purple_RGB</title><rect class="cls-1" x="233.4" y="36.59" width="69.34" height="14.3" transform="translate(33.41 188.19) rotate(-45)"/><rect class="cls-1" x="9.07" y="260.92" width="69.34" height="14.3" transform="translate(-190.91 95.26) rotate(-45)"/><rect class="cls-1" x="260.92" y="233.4" width="14.3" height="69.34" transform="translate(-125.21 253.9) rotate(-45)"/><rect class="cls-1" x="36.59" y="9.07" width="14.3" height="69.34" transform="translate(-32.29 29.57) rotate(-45)"/><path class="cls-1" d="M210,182.9h8V156.8c0-13.72,8.71-21.2,19.86-21.2,10.71,0,19.86,7,19.86,21.2v26.1h8V156.13c0-18.07-12.72-28.34-27.89-28.34S210,138.06,210,156.13Zm-41.16-6.7c-11.26,0-19.85-8.92-19.85-20.3s8.59-20.3,19.85-20.3,19.86,8.93,19.86,20.3-8.48,20.3-19.86,20.3m0,7.81c15.73,0,27.89-12.27,27.89-28.11a27.89,27.89,0,1,0-55.77,0c0,15.84,12.16,28.11,27.88,28.11m-50.19-1.11h8v-54h-8Zm-44.73-6.7c-11.26,0-19.85-8.92-19.85-20.3s8.59-20.3,19.85-20.3,19.86,8.93,19.86,20.3-8.48,20.3-19.86,20.3M73.59,184a23.81,23.81,0,0,0,20.3-10.71v9.6h8v-54h-8v9.59a23.81,23.81,0,0,0-20.3-10.71C57.52,127.79,46,140.18,46,155.9S57.52,184,73.59,184" transform="translate(-14.17 -14.17)"/><rect class="cls-1" x="233.4" y="36.59" width="69.34" height="14.3" transform="translate(33.41 188.19) rotate(-45)"/><rect class="cls-1" x="9.07" y="260.92" width="69.34" height="14.3" transform="translate(-190.91 95.26) rotate(-45)"/><rect class="cls-1" x="260.92" y="233.4" width="14.3" height="69.34" transform="translate(-125.21 253.9) rotate(-45)"/><rect class="cls-1" x="36.59" y="9.07" width="14.3" height="69.34" transform="translate(-32.29 29.57) rotate(-45)"/><path class="cls-1" d="M210,182.9h8V156.8c0-13.72,8.71-21.2,19.86-21.2,10.71,0,19.86,7,19.86,21.2v26.1h8V156.13c0-18.07-12.72-28.34-27.89-28.34S210,138.06,210,156.13Zm-41.16-6.7c-11.26,0-19.85-8.92-19.85-20.3s8.59-20.3,19.85-20.3,19.86,8.93,19.86,20.3-8.48,20.3-19.86,20.3m0,7.81c15.73,0,27.89-12.27,27.89-28.11a27.89,27.89,0,1,0-55.77,0c0,15.84,12.16,28.11,27.88,28.11m-50.19-1.11h8v-54h-8Zm-44.73-6.7c-11.26,0-19.85-8.92-19.85-20.3s8.59-20.3,19.85-20.3,19.86,8.93,19.86,20.3-8.48,20.3-19.86,20.3M73.59,184a23.81,23.81,0,0,0,20.3-10.71v9.6h8v-54h-8v9.59a23.81,23.81,0,0,0-20.3-10.71C57.52,127.79,46,140.18,46,155.9S57.52,184,73.59,184" transform="translate(-14.17 -14.17)"/></svg>