<svg xmlns="http://www.w3.org/2000/svg" width="248.216" height="21.485" viewBox="0 0 248.216 21.485">
  <g id="LOGO" transform="translate(0)">
    <path id="Path_2641" data-name="Path 2641" d="M-389.738,82.127h6.194v7.694h2.906l7.8-7.694h8.427L-375.35,92.371l12.222,10.715h-8.756l-8.927-8.049h-2.733v8.049h-6.194V82.127Z" transform="translate(422.713 -81.642)" fill="#dc0005"/>
    <path id="Path_2642" data-name="Path 2642" d="M-359.968,94.781h11.088c1.344,0,2.237.314,2.237,1.731,0,1.212-.893,1.529-2.237,1.529h-11.088v-3.26Zm-6.19,8.3h19.717c3.536,0,6.156-.967,6.156-5.561,0-3.153-1.012-4.657-3.7-5.027v-.059c1.714-.532,2.971-1.207,2.971-4.812,0-4.108-2.4-5.5-7.343-5.5h-17.8v20.958Zm6.19-15.912h10.957c1.149,0,1.806.424,1.806,1.63s-.657,1.624-1.806,1.624h-10.957V87.173Z" transform="translate(428.75 -81.642)" fill="#dc0005"/>
    <path id="Path_2643" data-name="Path 2643" d="M-328.67,86.988l4.027,7.875h-7.922l3.895-7.875Zm-14.933,16.1h6.913l1.8-3.7h12.561l1.908,3.7h6.882l-11.091-20.958h-8.051L-343.6,103.085Z" transform="translate(434.524 -81.642)" fill="#dc0005"/>
    <path id="Path_2644" data-name="Path 2644" d="M-317.351,82.127h9.6l11.614,15.237h.058V82.127h6.194v20.958h-9.6l-11.624-15.214h-.046v15.214h-6.2V82.127Z" transform="translate(441.245 -81.642)" fill="#dc0005"/>
    <path id="Path_2645" data-name="Path 2645" d="M-291.587,82.127h6.173v7.694h2.9l7.814-7.694h8.412l-10.927,10.243,12.205,10.715h-8.739l-8.937-8.049h-2.726v8.049h-6.173V82.127Z" transform="translate(447.841 -81.642)" fill="#dc0005"/>
    <path id="Path_2646" data-name="Path 2646" d="M-401.039,86.988l4.009,7.875h-7.918l3.909-7.875Zm-14.953,16.1h6.922l1.8-3.7h12.549l1.918,3.7h6.9l-11.094-20.958h-8.071l-10.927,20.958Z" transform="translate(415.992 -81.642)" fill="#dc0005"/>
    <path id="Path_2647" data-name="Path 2647" d="M-263.689,103.178l12.262-21.422h3.479l12.261,21.422h-3.165l-2.567-4.528h-16.538l-2.567,4.528Zm20.931-6.894-6.929-12.161-6.931,12.161Z" transform="translate(454.983 -81.755)" fill="#dc0005" fill-rule="evenodd"/>
    <path id="Path_2648" data-name="Path 2648" d="M-213.2,92.584v2.9q0,4.152-1.427,5.865-1.539,1.887-5.428,1.887h-11.3q-3.945,0-5.624-1.916-1.594-1.83-1.6-5.952V89.623q0-4.123,1.623-5.981,1.652-1.888,5.6-1.887H-221q7.527,0,7.527,5.778v.755h-2.575a5.535,5.535,0,0,0-.5-2.758,3.251,3.251,0,0,0-2.351-1.22,37.134,37.134,0,0,0-5.064-.232h-7.108q-4.755,0-4.756,4.472v7.9q0,4.471,4.756,4.472h10.718q4.42,0,4.421-3.89v-2.12h-10.381V92.584Z" transform="translate(461.412 -81.755)" fill="#dc0005"/>
  </g>
</svg>
