<?xml version="1.0" encoding="utf-8"?>
<!-- Generator: Adobe Illustrator 22.1.0, SVG Export Plug-In . SVG Version: 6.00 Build 0)  -->
<svg version="1.1" id="Layer_1" xmlns="http://www.w3.org/2000/svg" xmlns:xlink="http://www.w3.org/1999/xlink" x="0px" y="0px"
	 viewBox="0 0 701.8 182.8" style="enable-background:new 0 0 701.8 182.8;" xml:space="preserve">
<style type="text/css">
	.st0{fill:#006046;}
	.st1{fill:#4A4A49;}
	.st2{fill:#80AFA2;}
	.st3{fill:#FFFFFF;}
	.st4{fill:#000100;}
	.st5{fill:none;stroke:#EF8148;stroke-width:0.6322;}
</style>
<g>
	<path class="st0" d="M188.3,105.2V94.3c0-0.1,0-0.1,0-0.2v0"/>
</g>
<g>
	<path class="st1" d="M213.3,177.6h-0.2c-0.9,0-1.5-0.6-1.9-1.4l-8.2-18.6c-0.1-0.3-0.2-0.6-0.2-0.9c0-0.8,0.7-1.6,1.7-1.6
		c0.9,0,1.4,0.6,1.7,1.3l7.1,17.1l7.2-17.2c0.2-0.6,0.7-1.2,1.5-1.2c0.9,0,1.6,0.7,1.6,1.6c0,0.3-0.1,0.6-0.2,0.8l-8.3,18.7
		C214.7,177.1,214.1,177.6,213.3,177.6z"/>
	<path class="st1" d="M226.6,170.9L226.6,170.9c0-4.7,3.8-7.2,9.4-7.2c2.8,0,4.8,0.4,6.7,0.9v-0.8c0-3.9-2.4-6-6.5-6
		c-2.2,0-4.1,0.5-5.7,1.2c-0.2,0.1-0.4,0.1-0.6,0.1c-0.8,0-1.4-0.6-1.4-1.4c0-0.7,0.5-1.2,0.9-1.4c2.2-0.9,4.4-1.5,7.2-1.5
		c3.1,0,5.5,0.8,7.1,2.4c1.5,1.5,2.3,3.6,2.3,6.4v12c0,0.9-0.7,1.6-1.6,1.6c-0.9,0-1.6-0.7-1.6-1.5v-2c-1.5,2-4.1,3.8-7.9,3.8
		C230.8,177.8,226.6,175.4,226.6,170.9z M242.8,169.2v-2.1c-1.6-0.5-3.8-0.9-6.5-0.9c-4.1,0-6.4,1.8-6.4,4.5v0.1
		c0,2.8,2.5,4.4,5.5,4.4C239.5,175.2,242.8,172.7,242.8,169.2z"/>
	<path class="st1" d="M253.2,147.8c0-0.9,0.7-1.7,1.6-1.7c0.9,0,1.7,0.8,1.7,1.7v28.1c0,0.9-0.7,1.7-1.6,1.7c-0.9,0-1.7-0.7-1.7-1.7
		V147.8z"/>
	<path class="st1" d="M282.8,175.9c0,0.9-0.7,1.7-1.6,1.7c-0.9,0-1.6-0.7-1.6-1.7v-2.4c-1.5,2.4-3.7,4.3-7.5,4.3
		c-5.3,0-8.4-3.6-8.4-8.8v-12.2c0-0.9,0.7-1.7,1.6-1.7c0.9,0,1.7,0.7,1.7,1.7v11.4c0,4.1,2.2,6.6,6.1,6.6c3.7,0,6.6-2.8,6.6-6.9
		v-11.1c0-0.9,0.7-1.7,1.6-1.7c0.9,0,1.6,0.7,1.6,1.7V175.9z"/>
	<path class="st1" d="M299.7,177.8c-6,0-11-4.6-11-11.4v-0.1c0-6.3,4.5-11.4,10.5-11.4c6.5,0,10.2,5.3,10.2,11.1
		c0,0.9-0.7,1.5-1.5,1.5h-15.9c0.5,4.8,3.8,7.4,7.7,7.4c2.7,0,4.7-1.1,6.3-2.5c0.3-0.2,0.6-0.4,0.9-0.4c0.8,0,1.4,0.6,1.4,1.4
		c0,0.4-0.2,0.8-0.5,1.1C305.9,176.5,303.5,177.8,299.7,177.8z M306.2,165.1c-0.3-4-2.6-7.5-7-7.5c-3.8,0-6.7,3.2-7.1,7.5H306.2z"/>
	<path class="st1" d="M314.1,175c-0.3-0.2-0.6-0.6-0.6-1.2c0-0.8,0.6-1.4,1.4-1.4c0.3,0,0.6,0.1,0.8,0.3c2.3,1.5,4.6,2.3,7,2.3
		c2.6,0,4.5-1.4,4.5-3.5v-0.1c0-2.2-2.6-3.1-5.5-3.9c-3.4-1-7.3-2.2-7.3-6.2v-0.1c0-3.8,3.1-6.3,7.5-6.3c2.3,0,4.9,0.7,7,1.9
		c0.4,0.3,0.8,0.7,0.8,1.4c0,0.8-0.6,1.4-1.4,1.4c-0.3,0-0.6-0.1-0.7-0.2c-1.9-1.1-3.9-1.7-5.7-1.7c-2.6,0-4.2,1.4-4.2,3.2v0.1
		c0,2.1,2.7,2.9,5.6,3.8c3.4,1,7,2.3,7,6.3v0.1c0,4.2-3.4,6.6-7.8,6.6C319.6,177.7,316.4,176.7,314.1,175z"/>
	<path class="st1" d="M348.7,183.6c-0.5-0.2-1-0.6-1-1.4c0-0.8,0.7-1.4,1.4-1.4c0.3,0,0.6,0.1,0.8,0.2c0.6,0.2,1.3,0.4,2.4,0.4
		c2,0,3.2-1.2,4.4-3.9l0.2-0.3l-9.2-19.4c-0.1-0.3-0.2-0.6-0.2-0.9c0-0.9,0.7-1.6,1.7-1.6c0.9,0,1.4,0.6,1.7,1.3l7.6,17.2l6.8-17.3
		c0.3-0.7,0.7-1.2,1.6-1.2c0.9,0,1.6,0.7,1.6,1.6c0,0.3-0.1,0.6-0.2,0.8l-8.6,20.5c-1.9,4.5-4,6.2-7.3,6.2
		C350.8,184.2,349.8,184,348.7,183.6z"/>
	<path class="st1" d="M371.5,166.4L371.5,166.4c0-6.3,4.8-11.5,11.5-11.5c6.6,0,11.4,5.2,11.4,11.4v0.1c0,6.2-4.9,11.5-11.5,11.5
		C376.3,177.8,371.5,172.6,371.5,166.4z M391.1,166.4L391.1,166.4c0-4.8-3.5-8.7-8.1-8.7c-4.8,0-8,3.9-8,8.5v0.1
		c0,4.7,3.5,8.5,8.1,8.5C387.8,174.9,391.1,171.1,391.1,166.4z"/>
	<path class="st1" d="M419.1,175.9c0,0.9-0.7,1.7-1.6,1.7c-0.9,0-1.6-0.7-1.6-1.7v-2.4c-1.5,2.4-3.7,4.3-7.5,4.3
		c-5.3,0-8.4-3.6-8.4-8.8v-12.2c0-0.9,0.7-1.7,1.6-1.7c0.9,0,1.7,0.7,1.7,1.7v11.4c0,4.1,2.2,6.6,6.1,6.6c3.7,0,6.6-2.8,6.6-6.9
		v-11.1c0-0.9,0.7-1.7,1.6-1.7c0.9,0,1.6,0.7,1.6,1.7V175.9z"/>
	<path class="st1" d="M437.8,166.4L437.8,166.4c0-6.3,4.8-11.5,11.2-11.5c3.6,0,6.1,1.4,8.1,3.2c0.3,0.2,0.5,0.6,0.5,1.1
		c0,0.9-0.7,1.6-1.6,1.6c-0.4,0-0.8-0.2-1.1-0.4c-1.6-1.4-3.4-2.6-6-2.6c-4.5,0-7.8,3.8-7.8,8.5v0.1c0,4.8,3.5,8.5,8.1,8.5
		c2.5,0,4.5-1.1,6.1-2.7c0.2-0.2,0.5-0.4,0.9-0.4c0.8,0,1.5,0.7,1.5,1.5c0,0.4-0.2,0.8-0.4,1c-2.1,2.1-4.6,3.5-8.3,3.5
		C442.6,177.8,437.8,172.6,437.8,166.4z"/>
	<path class="st1" d="M461.7,170.9L461.7,170.9c0-4.7,3.8-7.2,9.4-7.2c2.8,0,4.8,0.4,6.7,0.9v-0.8c0-3.9-2.4-6-6.5-6
		c-2.2,0-4.1,0.5-5.7,1.2c-0.2,0.1-0.4,0.1-0.6,0.1c-0.8,0-1.4-0.6-1.4-1.4c0-0.7,0.5-1.2,0.9-1.4c2.2-0.9,4.4-1.5,7.2-1.5
		c3.1,0,5.5,0.8,7.1,2.4c1.5,1.5,2.2,3.6,2.2,6.4v12c0,0.9-0.7,1.6-1.6,1.6c-0.9,0-1.6-0.7-1.6-1.5v-2c-1.5,2-4.1,3.8-7.9,3.8
		C465.8,177.8,461.7,175.4,461.7,170.9z M477.9,169.2v-2.1c-1.6-0.5-3.8-0.9-6.5-0.9c-4.1,0-6.4,1.8-6.4,4.5v0.1
		c0,2.8,2.5,4.4,5.5,4.4C474.6,175.2,477.9,172.7,477.9,169.2z"/>
	<path class="st1" d="M487.9,156.8c0-0.9,0.7-1.7,1.6-1.7c0.9,0,1.7,0.7,1.7,1.7v2.4c1.4-2.4,3.7-4.3,7.5-4.3c5.3,0,8.4,3.6,8.4,8.8
		v12.2c0,0.9-0.7,1.7-1.6,1.7c-0.9,0-1.7-0.7-1.7-1.7v-11.4c0-4.1-2.2-6.6-6.1-6.6c-3.8,0-6.6,2.8-6.6,6.9v11.1
		c0,0.9-0.7,1.7-1.6,1.7c-0.9,0-1.7-0.7-1.7-1.7V156.8z"/>
	<path class="st1" d="M526.8,147.8c0-0.9,0.7-1.7,1.6-1.7c0.9,0,1.7,0.7,1.7,1.7v12c1.8-2.6,4.4-4.9,8.4-4.9
		c5.3,0,10.5,4.2,10.5,11.4v0.1c0,7.2-5.2,11.4-10.5,11.4c-4.1,0-6.7-2.2-8.4-4.7v2.8c0,0.9-0.7,1.7-1.6,1.7c-0.9,0-1.7-0.8-1.7-1.7
		V147.8z M545.6,166.4L545.6,166.4c0-5.3-3.6-8.6-7.7-8.6c-4.1,0-7.9,3.4-7.9,8.4v0.1c0,5.1,3.9,8.5,7.9,8.5
		C542.1,174.8,545.6,171.7,545.6,166.4z"/>
	<path class="st1" d="M553.3,170.9L553.3,170.9c0-4.7,3.8-7.2,9.4-7.2c2.8,0,4.8,0.4,6.7,0.9v-0.8c0-3.9-2.4-6-6.5-6
		c-2.2,0-4.1,0.5-5.7,1.2c-0.2,0.1-0.4,0.1-0.6,0.1c-0.8,0-1.4-0.6-1.4-1.4c0-0.7,0.5-1.2,0.9-1.4c2.2-0.9,4.4-1.5,7.2-1.5
		c3.1,0,5.5,0.8,7.1,2.4c1.5,1.5,2.3,3.6,2.3,6.4v12c0,0.9-0.7,1.6-1.6,1.6c-0.9,0-1.6-0.7-1.6-1.5v-2c-1.5,2-4.1,3.8-7.9,3.8
		C557.4,177.8,553.3,175.4,553.3,170.9z M569.5,169.2v-2.1c-1.6-0.5-3.8-0.9-6.5-0.9c-4.1,0-6.4,1.8-6.4,4.5v0.1
		c0,2.8,2.5,4.4,5.5,4.4C566.1,175.2,569.5,172.7,569.5,169.2z"/>
	<path class="st1" d="M579.5,156.8c0-0.9,0.7-1.7,1.6-1.7c0.9,0,1.7,0.7,1.7,1.7v2.4c1.4-2.4,3.7-4.3,7.5-4.3c5.3,0,8.4,3.6,8.4,8.8
		v12.2c0,0.9-0.7,1.7-1.6,1.7c-0.9,0-1.7-0.7-1.7-1.7v-11.4c0-4.1-2.2-6.6-6.1-6.6c-3.8,0-6.6,2.8-6.6,6.9v11.1
		c0,0.9-0.7,1.7-1.6,1.7c-0.9,0-1.7-0.7-1.7-1.7V156.8z"/>
	<path class="st1" d="M605.6,147.8c0-0.9,0.7-1.7,1.6-1.7c0.9,0,1.7,0.8,1.7,1.7v20.1l11.9-12.1c0.4-0.4,0.8-0.6,1.3-0.6
		c0.9,0,1.5,0.7,1.5,1.5c0,0.5-0.2,0.8-0.6,1.3l-7.2,7l7.8,9.9c0.3,0.4,0.4,0.7,0.4,1.1c0,0.9-0.7,1.5-1.6,1.5c-0.6,0-1-0.2-1.4-0.8
		l-7.6-9.6l-4.5,4.5v4.2c0,0.9-0.7,1.7-1.6,1.7c-0.9,0-1.7-0.7-1.7-1.7V147.8z"/>
	<path class="st1" d="M641.1,166.4L641.1,166.4c0-6.3,4.8-11.5,11.5-11.5c6.6,0,11.4,5.2,11.4,11.4v0.1c0,6.2-4.9,11.5-11.5,11.5
		C645.9,177.8,641.1,172.6,641.1,166.4z M660.6,166.4L660.6,166.4c0-4.8-3.5-8.7-8.1-8.7c-4.8,0-8,3.9-8,8.5v0.1
		c0,4.7,3.5,8.5,8.1,8.5C657.3,174.9,660.6,171.1,660.6,166.4z"/>
	<path class="st1" d="M669.8,156.8c0-0.9,0.7-1.7,1.6-1.7c0.9,0,1.7,0.7,1.7,1.7v2.4c1.4-2.4,3.7-4.3,7.5-4.3c5.3,0,8.4,3.6,8.4,8.8
		v12.2c0,0.9-0.7,1.7-1.6,1.7c-0.9,0-1.7-0.7-1.7-1.7v-11.4c0-4.1-2.2-6.6-6.1-6.6c-3.8,0-6.6,2.8-6.6,6.9v11.1
		c0,0.9-0.7,1.7-1.6,1.7c-0.9,0-1.7-0.7-1.7-1.7V156.8z"/>
</g>
<g>
	<path class="st0" d="M391.8,113.9V89.7c4.5,3,8.7,5.3,12.6,6.8c3.9,1.6,7.4,2.3,10.5,2.3c3.1,0,5.4-0.5,7-1.5
		c1.6-1,2.4-2.6,2.4-4.6c0-2.1-2.9-4.8-8.8-8c-1.6-0.9-2.8-1.6-3.6-2c-7.1-4.1-12.2-8.2-15.3-12.3c-3.1-4.1-4.6-8.8-4.6-14.1
		c0-7.8,2.9-14.2,8.6-19.2c5.7-5,13-7.5,21.9-7.5c5.6,0,10.7,0.8,15.4,2.3c4.7,1.6,9.1,3.9,13.3,7.2v23.2c-4.7-4.1-8.9-7-12.4-8.7
		c-3.6-1.7-7.1-2.6-10.6-2.6c-2.6,0-4.5,0.5-5.9,1.5c-1.4,1-2.1,2.3-2.1,4.1c0,1.6,0.6,3,1.9,4.3c1.3,1.3,4.4,3.3,9.6,6
		c9.8,5.2,16.1,9.6,18.8,13.3c2.7,3.7,4.1,8.3,4.1,13.8c0,8.4-3.1,14.9-9.2,19.5c-6.1,4.6-14.9,6.9-26.3,6.9
		c-4.6,0-9.2-0.5-13.6-1.6C400.8,117.7,396.3,116.1,391.8,113.9"/>
	<path class="st0" d="M358.3,68.1C355.9,70,352.2,71,347,71h-5.9V47.1h6.5c5,0,8.6,0.9,10.9,2.8c2.3,1.9,3.4,4.9,3.4,9
		C361.8,63.1,360.6,66.1,358.3,68.1 M244.5,87l13.3-32.6L270.6,87H244.5z M380.7,37.9c-6.6-4.6-16.5-6.9-29.6-6.9h-40.3v81.4
		L273.7,31h-32l-41,87.9h30.7l6.2-15.1h39.8l5.9,15.1h27.5h2.9h27.4V87.5h10.3c12.9,0,22.6-2.4,29.2-7.3c6.6-4.9,9.9-12.1,9.9-21.7
		C390.5,49.3,387.3,42.4,380.7,37.9"/>
	<path class="st2" d="M493,109.2c1.8,0.7,3.6,1.1,5.2,1.5c1.7,0.3,3.3,0.5,5,0.5c5.3,0,9.4-1.5,12.3-4.4c2.9-2.9,4.4-7.1,4.4-12.5
		c0-5.3-1.4-9.4-4.3-12.5c-2.8-3-6.7-4.6-11.5-4.6c-1.9,0-3.8,0.3-5.7,0.9c-1.8,0.6-3.7,1.6-5.5,2.8V109.2z M482.9,117V43H493v28.7
		c1.9-1.3,3.9-2.3,6.1-2.9c2.2-0.7,4.6-1,7.3-1c7.4,0,13.2,2.4,17.7,7.2c4.4,4.8,6.7,11.1,6.7,19c0,8.4-2.5,14.9-7.5,19.5
		c-5,4.6-12,6.9-21.1,6.9c-3.1,0-6.2-0.3-9.3-0.9C489.6,119,486.3,118.1,482.9,117 M565.3,109V94.3c-6.8,2.1-11.4,4.1-14,5.8
		c-2.5,1.8-3.8,3.9-3.8,6.2c0,2.1,0.7,3.7,2,4.8c1.3,1.1,3.2,1.7,5.6,1.7c1.8,0,3.5-0.3,5.2-0.9C562,111.2,563.6,110.3,565.3,109
		 M565.6,115.2c-2.5,1.8-5,3.1-7.3,3.9c-2.3,0.8-4.7,1.1-7.3,1.1c-4.5,0-8-1.1-10.6-3.2c-2.5-2.2-3.8-5.2-3.8-8.9
		c0-3.6,1.4-6.7,4.2-9.4c2.8-2.7,6.9-5,12.5-6.8l12-4l0.1-2.1c0-3-0.7-5.2-2.2-6.5c-1.5-1.3-3.9-2-7.3-2c-2.8,0-5.7,0.6-8.7,1.8
		c-3,1.2-6,2.9-9,5.2v-9.9c2.6-2.1,5.5-3.7,8.7-4.7c3.2-1.1,6.6-1.6,10.2-1.6c6.5,0,11.2,1.4,14.1,4.3c2.9,2.8,4.4,7.4,4.4,13.8
		v21.3c0,1.8,0.1,3,0.4,3.8c0.3,0.7,0.9,1.1,1.6,1.1c0.6,0,1.3-0.2,1.9-0.5c0.7-0.3,1.8-1.1,3.3-2.3v6.1c-1.8,1.6-3.7,2.7-5.5,3.5
		c-1.9,0.7-3.8,1.1-5.8,1.1c-1.9,0-3.4-0.4-4.4-1.2C566.3,118.2,565.8,116.9,565.6,115.2 M588.9,119.3V68.9h10v6.2
		c2.5-2.4,5-4.1,7.5-5.2c2.5-1.1,5.2-1.7,8.1-1.7c5.5,0,9.8,1.6,12.9,4.7c3.2,3.2,4.8,7.5,4.8,13v33.4h-10V88.5c0-4.1-0.9-7.1-2.6-9
		c-1.7-2-4.4-2.9-8-2.9c-2.6,0-4.9,0.5-6.8,1.5c-1.9,1-3.8,2.6-5.7,4.9v36.3H588.9z M689.5,68.9l-21.1,23l25.4,27.4H680l-24.6-26.8
		l21.7-23.6H689.5z M645,43h10v76.3h-10V43z"/>
	<path class="st0" d="M188.3,93.3c0-2.1-0.8-4.1-2.4-5.7L167,68.7c-2.8-2.8-7.2-3.1-10.3-1v-5.6c0-2.1-0.8-4.2-2.4-5.9l-18.9-18.9
		c-2.7-2.7-6.9-3.1-10.1-1.1v-5.7c0-0.1,0-0.1,0-0.2c0-2.1-0.8-4.1-2.4-5.7L104,5.7c-3.2-3.2-8.3-3.2-11.5,0L73.5,24.6
		c-1.6,1.6-2.4,3.6-2.4,5.7h0v0.1v0v5.7c-3.1-1.9-7.2-1.5-9.9,1.2L42.3,56.2c-1.6,1.6-2.4,3.6-2.4,5.7h0v6c-3.2-2.3-7.6-2-10.5,0.8
		L10.5,87.6c-1.6,1.6-2.4,3.6-2.4,5.7h0v0.1v0v11.5c0,2.1,0.8,4.1,2.4,5.7l18.9,18.9c3.2,3.2,8.3,3.2,11.5,0l18.9-18.9
		c1.7-1.7,2.5-3.9,2.4-6.1v-5.5c2.6,1.9,6.1,2,8.9,0.4v5.6c0,2.1,0.8,4.1,2.4,5.7l18.9,18.9c3.2,3.2,8.3,3.2,11.5,0l18.9-18.9
		c1.7-1.7,2.5-3.9,2.4-6.1v-5.2c2.7,1.7,6.2,1.7,8.9-0.1v5.8c0,2.1,0.8,4.1,2.4,5.7l18.9,18.9c3.2,3.2,8.3,3.2,11.5,0l18.9-18.9
		c1.7-1.7,2.5-3.9,2.4-6.1V93.5C188.3,93.4,188.3,93.4,188.3,93.3L188.3,93.3z"/>
	<path class="st3" d="M102.7,53.8c-2.5,2.5-6.5,2.5-8.9,0L74.8,34.8c-2.5-2.5-2.5-6.5,0-8.9L93.7,7c2.5-2.5,6.5-2.5,8.9,0l18.9,18.9
		c2.5,2.5,2.5,6.5,0,8.9L102.7,53.8z"/>
	<path class="st3" d="M134.1,85.4c-2.5,2.5-6.5,2.5-8.9,0l-18.9-18.9c-2.5-2.5-2.5-6.5,0-8.9l18.9-18.9c2.5-2.5,6.5-2.5,8.9,0
		L153,57.5c2.5,2.5,2.5,6.5,0,8.9L134.1,85.4z"/>
	<path class="st3" d="M71.4,85.4c-2.5,2.5-6.5,2.5-8.9,0L43.6,66.5c-2.5-2.5-2.5-6.5,0-8.9l18.9-18.9c2.5-2.5,6.5-2.5,8.9,0
		l18.9,18.9c2.5,2.5,2.5,6.5,0,8.9L71.4,85.4z"/>
	<path class="st3" d="M165.7,116.8c-2.5,2.5-6.5,2.5-8.9,0l-18.9-18.9c-2.5-2.5-2.5-6.5,0-8.9L156.8,70c2.5-2.5,6.5-2.5,8.9,0
		L184.6,89c2.5,2.5,2.5,6.5,0,8.9L165.7,116.8z"/>
	<path class="st3" d="M39.6,116.8c-2.5,2.5-6.5,2.5-8.9,0L11.8,97.9c-2.5-2.5-2.5-6.5,0-8.9L30.7,70c2.5-2.5,6.5-2.5,8.9,0L58.6,89
		c2.5,2.5,2.5,6.5,0,8.9L39.6,116.8z"/>
	<g>
		<path class="st3" d="M98.2,119.5c-1.9,0-3.7-0.7-5.1-2.1L74.2,98.5c-1.4-1.4-2.1-3.2-2.1-5.1c0-1.9,0.7-3.7,2.1-5.1l18.9-18.9
			c2.7-2.7,7.4-2.7,10.1,0l18.9,18.9c2.8,2.8,2.8,7.4,0,10.2l-18.9,18.9C101.9,118.8,100.1,119.5,98.2,119.5z M98.2,69
			c-1.4,0-2.8,0.6-3.8,1.6L75.4,89.6c-1,1-1.6,2.4-1.6,3.8c0,1.5,0.6,2.8,1.6,3.8l18.9,18.9c2.1,2,5.6,2.1,7.7,0L121,97.3
			c2.1-2.1,2.1-5.6,0-7.7L102,70.6C101,69.6,99.6,69,98.2,69z"/>
	</g>
</g>
<g>
	<path class="st4" d="M110,81.3"/>
</g>
<path class="st5" d="M110,81.3"/>
</svg>
