<?xml version="1.0" encoding="utf-8"?>
<svg version="1.1" id="Ebene_1" x="0px" y="0px" viewBox="4 4 418 162" enable-background="new 4 4 418 162" xmlns="http://www.w3.org/2000/svg">
  <g>
    <g>
      <defs>
        <path id="SVGID_1_" d="M172.812,104.335h7.368L166.33,65h-7.479L145,104.335h7.368l3.324-10.083h13.795L172.812,104.335&#10;&#9;&#9;&#9;&#9;L172.812,104.335z M162.673,71.814c0,0,0.831,3.878,1.551,6.094l3.49,10.526H157.41l3.49-10.526&#10;&#9;&#9;&#9;&#9;c0.776-2.216,1.662-6.094,1.662-6.094H162.673L162.673,71.814z M185.332,93.975c0,9.474,7.812,10.637,11.745,10.637&#10;&#9;&#9;&#9;&#9;c1.33,0,2.161-0.166,2.161-0.166v-6.15c0,0-0.499,0.111-1.274,0.111c-1.939,0-5.596-0.665-5.596-5.319v-10.97h6.427v-5.596&#10;&#9;&#9;&#9;&#9;h-6.427V68.38h-6.87v8.144h-3.823v5.596h3.656V93.975L185.332,93.975z M202.895,90.208c0,8.698,6.925,14.792,15.568,14.792&#10;&#9;&#9;&#9;&#9;c8.587,0,15.512-6.094,15.512-14.792c0-8.643-6.925-14.792-15.568-14.792C209.82,75.416,202.895,81.565,202.895,90.208&#10;&#9;&#9;&#9;&#9;L202.895,90.208L202.895,90.208z M210.042,90.208c0-5.208,3.823-8.809,8.421-8.809c4.543,0,8.366,3.601,8.366,8.809&#10;&#9;&#9;&#9;&#9;c0,5.263-3.823,8.809-8.366,8.809C213.864,99.017,210.042,95.471,210.042,90.208L210.042,90.208L210.042,90.208z&#10;&#9;&#9;&#9;&#9; M239.626,104.335h7.036v-12.41c0-1.274,0.055-2.548,0.332-3.601c0.886-3.601,3.269-6.482,6.925-6.482&#10;&#9;&#9;&#9;&#9;c3.324,0,3.823,2.604,3.823,5.651v16.842h7.036v-12.41c0-1.33,0.055-2.548,0.332-3.657c0.831-3.546,3.213-6.427,6.814-6.427&#10;&#9;&#9;&#9;&#9;c3.269,0,3.878,2.438,3.878,5.651v16.842h7.036V86.163c0-7.424-3.379-10.748-9.252-10.748c-4.432,0-8.089,2.77-9.64,5.817h-0.111&#10;&#9;&#9;&#9;&#9;c-1.163-3.823-3.934-5.817-8.255-5.817c-4.432,0-7.812,3.102-9.197,5.873h-0.111c0,0,0.111-0.886,0.111-1.939V76.08h-6.759&#10;&#9;&#9;&#9;&#9;V104.335L239.626,104.335z"/>
      </defs>
      <clipPath id="SVGID_2_">
        <path id="" d="M172.812,104.335h7.368L166.33,65h-7.479L145,104.335h7.368l3.324-10.083h13.795L172.812,104.335&#10;&#9;&#9;&#9;&#9;L172.812,104.335z M162.673,71.814c0,0,0.831,3.878,1.551,6.094l3.49,10.526H157.41l3.49-10.526&#10;&#9;&#9;&#9;&#9;c0.776-2.216,1.662-6.094,1.662-6.094H162.673L162.673,71.814z M185.332,93.975c0,9.474,7.812,10.637,11.745,10.637&#10;&#9;&#9;&#9;&#9;c1.33,0,2.161-0.166,2.161-0.166v-6.15c0,0-0.499,0.111-1.274,0.111c-1.939,0-5.596-0.665-5.596-5.319v-10.97h6.427v-5.596&#10;&#9;&#9;&#9;&#9;h-6.427V68.38h-6.87v8.144h-3.823v5.596h3.656V93.975L185.332,93.975z M202.895,90.208c0,8.698,6.925,14.792,15.568,14.792&#10;&#9;&#9;&#9;&#9;c8.587,0,15.512-6.094,15.512-14.792c0-8.643-6.925-14.792-15.568-14.792C209.82,75.416,202.895,81.565,202.895,90.208&#10;&#9;&#9;&#9;&#9;L202.895,90.208L202.895,90.208z M210.042,90.208c0-5.208,3.823-8.809,8.421-8.809c4.543,0,8.366,3.601,8.366,8.809&#10;&#9;&#9;&#9;&#9;c0,5.263-3.823,8.809-8.366,8.809C213.864,99.017,210.042,95.471,210.042,90.208L210.042,90.208L210.042,90.208z&#10;&#9;&#9;&#9;&#9; M239.626,104.335h7.036v-12.41c0-1.274,0.055-2.548,0.332-3.601c0.886-3.601,3.269-6.482,6.925-6.482&#10;&#9;&#9;&#9;&#9;c3.324,0,3.823,2.604,3.823,5.651v16.842h7.036v-12.41c0-1.33,0.055-2.548,0.332-3.657c0.831-3.546,3.213-6.427,6.814-6.427&#10;&#9;&#9;&#9;&#9;c3.269,0,3.878,2.438,3.878,5.651v16.842h7.036V86.163c0-7.424-3.379-10.748-9.252-10.748c-4.432,0-8.089,2.77-9.64,5.817h-0.111&#10;&#9;&#9;&#9;&#9;c-1.163-3.823-3.934-5.817-8.255-5.817c-4.432,0-7.812,3.102-9.197,5.873h-0.111c0,0,0.111-0.886,0.111-1.939V76.08h-6.759&#10;&#9;&#9;&#9;&#9;V104.335L239.626,104.335z" transform="matrix(1, 0, 0, 1, 0, 0)"/>
      </clipPath>
      <rect x="140" y="60" clip-path="url(#SVGID_2_)" fill="#3F344A" width="147.839" height="50"/>
    </g>
    <g>
      <defs>
        <path id="SVGID_3_" d="M304.51,104V65.335h3.74v13.42c0,1.265-0.11,2.255-0.11,2.255h0.11c0,0,2.31-5.335,9.405-5.335&#10;&#9;&#9;&#9;&#9;c7.425,0,12.045,5.94,12.045,14.52c0,8.745-5.225,14.465-12.485,14.465c-6.6,0-9.075-5.39-9.075-5.39h-0.11&#10;&#9;&#9;&#9;&#9;c0,0,0.11,0.935,0.11,2.255V104H304.51L304.51,104z M308.14,90.25c0,5.555,2.86,11.11,8.8,11.11c4.895,0,8.91-4.125,8.91-11.165&#10;&#9;&#9;&#9;&#9;c0-6.765-3.575-11.11-8.745-11.11C312.485,79.085,308.14,82.385,308.14,90.25L308.14,90.25z M334.65,96.465&#10;&#9;&#9;&#9;&#9;c0-9.35,12.155-9.57,16.94-9.57h1.54V86.18c0-5.335-2.915-7.15-6.875-7.15c-4.565,0-7.81,2.64-7.81,2.64l-1.76-2.86&#10;&#9;&#9;&#9;&#9;c0,0,3.63-3.135,9.845-3.135c6.655,0,10.34,3.685,10.34,10.615V104h-3.575v-3.025c0-1.375,0.11-2.31,0.11-2.31h-0.11&#10;&#9;&#9;&#9;&#9;c0,0-2.31,5.995-9.24,5.995C339.435,104.66,334.65,101.965,334.65,96.465L334.65,96.465z M338.5,96.245&#10;&#9;&#9;&#9;&#9;c0,2.585,2.035,5.225,6.16,5.225c5.28,0,8.47-5.5,8.47-10.285v-1.21h-1.595C347.19,89.975,338.5,90.14,338.5,96.245L338.5,96.245&#10;&#9;&#9;&#9;&#9;z M369.92,81.23l-0.73-1.737v0.968c0,1.21-0.11,2.2-0.11,2.2h0.11C369.359,82.229,369.601,81.741,369.92,81.23L369.92,81.23z&#10;&#9;&#9;&#9;&#9; M369.19,79.492l0.73,1.737c1.549-2.489,4.896-5.555,10.325-5.555c6.82,0,9.24,3.905,9.24,10.725V104h-3.74V87.39&#10;&#9;&#9;&#9;&#9;c0-4.345-0.66-8.195-5.995-8.195c-4.73,0-8.8,3.245-10.065,7.81c-0.33,1.155-0.44,2.42-0.44,3.74V104h-3.74V76.335h3.685V79.492&#10;&#9;&#9;&#9;&#9;L369.19,79.492z M398.12,104h3.74V90.14h4.455l9.24,13.86h4.455l-10.56-15.51v-0.11l9.625-12.045h-4.51l-8.305,10.56h-4.4v-21.56&#10;&#9;&#9;&#9;&#9;h-3.74V104L398.12,104z"/>
      </defs>
      <clipPath id="SVGID_4_">
        <path id="" d="M304.51,104V65.335h3.74v13.42c0,1.265-0.11,2.255-0.11,2.255h0.11c0,0,2.31-5.335,9.405-5.335&#10;&#9;&#9;&#9;&#9;c7.425,0,12.045,5.94,12.045,14.52c0,8.745-5.225,14.465-12.485,14.465c-6.6,0-9.075-5.39-9.075-5.39h-0.11&#10;&#9;&#9;&#9;&#9;c0,0,0.11,0.935,0.11,2.255V104H304.51L304.51,104z M308.14,90.25c0,5.555,2.86,11.11,8.8,11.11c4.895,0,8.91-4.125,8.91-11.165&#10;&#9;&#9;&#9;&#9;c0-6.765-3.575-11.11-8.745-11.11C312.485,79.085,308.14,82.385,308.14,90.25L308.14,90.25z M334.65,96.465&#10;&#9;&#9;&#9;&#9;c0-9.35,12.155-9.57,16.94-9.57h1.54V86.18c0-5.335-2.915-7.15-6.875-7.15c-4.565,0-7.81,2.64-7.81,2.64l-1.76-2.86&#10;&#9;&#9;&#9;&#9;c0,0,3.63-3.135,9.845-3.135c6.655,0,10.34,3.685,10.34,10.615V104h-3.575v-3.025c0-1.375,0.11-2.31,0.11-2.31h-0.11&#10;&#9;&#9;&#9;&#9;c0,0-2.31,5.995-9.24,5.995C339.435,104.66,334.65,101.965,334.65,96.465L334.65,96.465z M338.5,96.245&#10;&#9;&#9;&#9;&#9;c0,2.585,2.035,5.225,6.16,5.225c5.28,0,8.47-5.5,8.47-10.285v-1.21h-1.595C347.19,89.975,338.5,90.14,338.5,96.245L338.5,96.245&#10;&#9;&#9;&#9;&#9;z M369.92,81.23l-0.73-1.737v0.968c0,1.21-0.11,2.2-0.11,2.2h0.11C369.359,82.229,369.601,81.741,369.92,81.23L369.92,81.23z&#10;&#9;&#9;&#9;&#9; M369.19,79.492l0.73,1.737c1.549-2.489,4.896-5.555,10.325-5.555c6.82,0,9.24,3.905,9.24,10.725V104h-3.74V87.39&#10;&#9;&#9;&#9;&#9;c0-4.345-0.66-8.195-5.995-8.195c-4.73,0-8.8,3.245-10.065,7.81c-0.33,1.155-0.44,2.42-0.44,3.74V104h-3.74V76.335h3.685V79.492&#10;&#9;&#9;&#9;&#9;L369.19,79.492z M398.12,104h3.74V90.14h4.455l9.24,13.86h4.455l-10.56-15.51v-0.11l9.625-12.045h-4.51l-8.305,10.56h-4.4v-21.56&#10;&#9;&#9;&#9;&#9;h-3.74V104L398.12,104z" transform="matrix(1, 0, 0, 1, 0, 0)"/>
      </clipPath>
      <rect x="299.51" y="60.335" clip-path="url(#SVGID_4_)" fill="#3F344A" width="125.5" height="49.325"/>
    </g>
    <g>
      <defs>
        <path id="SVGID_5_" d="M78.964,22.449C78.989,22.04,79,21.693,79,21.468c0.004-1.206-0.134-2.398-0.407-3.578&#10;&#9;&#9;&#9;&#9;c-0.06-0.28-0.134-0.568-0.217-0.865c-0.307-1.038-0.609-1.854-1.03-2.7c-0.437-0.83-0.788-1.426-1.158-1.97&#10;&#9;&#9;&#9;&#9;c-0.074-0.107-0.148-0.201-0.222-0.304c-0.322-0.45-0.647-0.865-0.978-1.245c-0.112-0.131-0.224-0.269-0.34-0.395&#10;&#9;&#9;&#9;&#9;c-0.394-0.426-0.777-0.797-1.144-1.127c-0.11-0.098-0.217-0.192-0.327-0.286c-0.459-0.391-0.862-0.699-1.196-0.933&#10;&#9;&#9;&#9;&#9;c-0.21-0.144-0.273-0.19-0.318-0.221c-0.128-0.081-0.249-0.144-0.374-0.221c-0.356-0.223-0.703-0.437-1.039-0.618&#10;&#9;&#9;&#9;&#9;c-0.528-0.277-0.967-0.487-1.381-0.66c-0.513-0.214-0.922-0.365-1.281-0.481c-0.235-0.076-0.349-0.118-0.43-0.14&#10;&#9;&#9;&#9;&#9;c-0.107-0.031-0.215-0.05-0.325-0.079c-0.376-0.105-0.743-0.197-1.102-0.271c-0.105-0.022-0.213-0.044-0.318-0.063&#10;&#9;&#9;&#9;&#9;c-0.372-0.07-0.73-0.125-1.075-0.166c-0.291-0.037-0.578-0.066-0.867-0.087c-0.24-0.017-0.479-0.035-0.703-0.044&#10;&#9;&#9;&#9;&#9;c-0.19-0.007-0.383-0.015-0.573-0.015c-0.952-0.009-1.811,0.066-2.729,0.214c-0.078,0.013-0.159,0.026-0.24,0.042&#10;&#9;&#9;&#9;&#9;c-1.381,0.245-2.893,0.686-4.382,1.374c-0.253,0.111-0.468,0.216-0.723,0.349c-0.081,0.041-0.159,0.085-0.24,0.129&#10;&#9;&#9;&#9;&#9;c-0.293,0.159-0.636,0.358-1.014,0.601c-0.819,0.533-1.643,1.147-2.465,1.907c-0.096,0.092-0.184,0.177-0.273,0.262&#10;&#9;&#9;&#9;&#9;c-0.099,0.098-0.199,0.186-0.298,0.288c-0.459,0.5-0.75,0.823-0.99,1.105c-0.11,0.127-0.195,0.256-0.298,0.384&#10;&#9;&#9;&#9;&#9;c-0.439,0.572-0.739,1.007-0.996,1.439c-0.168,0.277-0.271,0.465-0.374,0.655c-0.32,0.577-0.571,1.083-0.719,1.407&#10;&#9;&#9;&#9;&#9;c-0.143,0.321-0.287,0.649-0.423,0.959c-0.909,2.079-1.975,4.506-2.861,6.531c-0.074,0.168-0.157,0.358-0.226,0.52&#10;&#9;&#9;&#9;&#9;c-0.058,0.133-0.125,0.288-0.188,0.43c-0.32,0.732-0.676,1.542-1.019,2.328c-0.204,0.461-0.401,0.911-0.575,1.313&#10;&#9;&#9;&#9;&#9;c-0.132,0.299-0.282,0.642-0.423,0.963c-1.028,2.346-2.257,5.153-3.217,7.346c-0.943,2.156-2.143,4.893-3.17,7.243&#10;&#9;&#9;&#9;&#9;c-0.193,0.441-0.392,0.898-0.571,1.304c-0.327,0.747-0.716,1.634-1.097,2.503c-0.287,0.653-0.569,1.3-0.815,1.861&#10;&#9;&#9;&#9;&#9;c-0.537,1.225-1.158,2.645-1.784,4.074c-0.416,0.952-0.833,1.903-1.234,2.82c-0.309,0.706-0.609,1.391-0.884,2.02&#10;&#9;&#9;&#9;&#9;c-0.284,0.651-0.596,1.359-0.914,2.086c-1.032,2.357-2.185,4.991-3.108,7.095c-0.072,0.162-0.152,0.349-0.228,0.522&#10;&#9;&#9;&#9;&#9;c-0.582,1.33-1.281,2.923-1.827,4.17c-0.967,2.211-2.181,4.978-3.262,7.451c-0.327,0.745-0.645,1.472-0.938,2.141&#10;&#9;&#9;&#9;&#9;c-0.922,2.106-2.06,4.703-3.108,7.099c-0.076,0.173-0.152,0.345-0.226,0.515c-0.347,0.793-0.683,1.562-0.994,2.269&#10;&#9;&#9;&#9;&#9;c-0.663,1.518-1.552,3.539-2.214,5.057c-1.359,3.102-3.17,7.241-4.53,10.345c-0.405,1.009-0.685,1.743-0.909,2.54&#10;&#9;&#9;&#9;&#9;c-0.244,0.843-0.41,1.704-0.596,3.073c-0.083,0.664-0.123,1.343-0.11,1.854c0.009,0.981,0.063,1.948,0.199,2.909&#10;&#9;&#9;&#9;&#9;c0.034,0.293,0.148,1.042,0.416,2.064c0.099,0.395,0.213,0.784,0.369,1.245c0.148,0.424,0.237,0.673,0.347,0.965&#10;&#9;&#9;&#9;&#9;c0.36,0.961,0.833,1.844,1.205,2.488c0.255,0.439,0.399,0.675,0.481,0.81c0.132,0.21,0.331,0.489,0.522,0.76&#10;&#9;&#9;&#9;&#9;c0.233,0.332,0.517,0.686,0.837,1.075c0.083,0.1,0.166,0.208,0.249,0.304c0.177,0.208,0.372,0.411,0.573,0.627&#10;&#9;&#9;&#9;&#9;c0.327,0.347,0.647,0.666,0.961,0.959c0.096,0.087,0.175,0.17,0.275,0.258c0.987,0.885,1.867,1.494,2.42,1.841&#10;&#9;&#9;&#9;&#9;c0.696,0.424,1.22,0.73,1.704,0.972c1.097,0.548,2.239,0.965,2.25,0.968c0.134,0.048,0.262,0.068,0.394,0.111&#10;&#9;&#9;&#9;&#9;c2.821,0.957,5.226,1.094,6.659,1.044c0.141-0.004,0.251-0.017,0.372-0.022c0.365-0.017,0.743-0.046,1.135-0.083&#10;&#9;&#9;&#9;&#9;c0.461-0.044,0.896-0.098,1.319-0.166c0.287-0.046,0.571-0.09,0.869-0.149c0.313-0.066,0.591-0.14,0.878-0.214&#10;&#9;&#9;&#9;&#9;c0.199-0.05,0.396-0.096,0.602-0.155c0.448-0.131,0.846-0.262,1.214-0.398c0.564-0.208,0.956-0.367,1.258-0.505&#10;&#9;&#9;&#9;&#9;c0.076-0.035,0.141-0.072,0.215-0.107c0.148-0.068,0.298-0.144,0.448-0.218c0.376-0.186,0.73-0.374,1.066-0.561&#10;&#9;&#9;&#9;&#9;c0.105-0.059,0.208-0.114,0.313-0.175c0.564-0.33,1.059-0.651,1.5-0.961c1.243-0.887,1.982-1.588,2.34-1.964&#10;&#9;&#9;&#9;&#9;c0.79-0.799,1.265-1.361,1.424-1.566c0.361-0.446,0.699-0.909,1.124-1.546c0.107-0.162,0.206-0.31,0.318-0.481&#10;&#9;&#9;&#9;&#9;c0.21-0.343,0.347-0.577,0.472-0.806c0.06-0.111,0.116-0.221,0.175-0.334c0.065-0.127,0.132-0.256,0.193-0.382&#10;&#9;&#9;&#9;&#9;c0.318-0.649,0.58-1.258,0.759-1.708c0.022-0.052,10.763-28.588,10.763-28.588c8.244-21.913,17.104-45.457,24.314-64.618&#10;&#9;&#9;&#9;&#9;c0.004-0.013,0.137-0.415,0.137-0.415c0.484-1.47,0.513-1.603,0.69-2.615c0.085-0.494,0.137-0.941,0.172-1.354&#10;&#9;&#9;&#9;&#9;C78.946,22.75,78.953,22.599,78.964,22.449L78.964,22.449z"/>
      </defs>
      <clipPath id="SVGID_6_">
        <path id="" d="M78.964,22.449C78.989,22.04,79,21.693,79,21.468c0.004-1.206-0.134-2.398-0.407-3.578&#10;&#9;&#9;&#9;&#9;c-0.06-0.28-0.134-0.568-0.217-0.865c-0.307-1.038-0.609-1.854-1.03-2.7c-0.437-0.83-0.788-1.426-1.158-1.97&#10;&#9;&#9;&#9;&#9;c-0.074-0.107-0.148-0.201-0.222-0.304c-0.322-0.45-0.647-0.865-0.978-1.245c-0.112-0.131-0.224-0.269-0.34-0.395&#10;&#9;&#9;&#9;&#9;c-0.394-0.426-0.777-0.797-1.144-1.127c-0.11-0.098-0.217-0.192-0.327-0.286c-0.459-0.391-0.862-0.699-1.196-0.933&#10;&#9;&#9;&#9;&#9;c-0.21-0.144-0.273-0.19-0.318-0.221c-0.128-0.081-0.249-0.144-0.374-0.221c-0.356-0.223-0.703-0.437-1.039-0.618&#10;&#9;&#9;&#9;&#9;c-0.528-0.277-0.967-0.487-1.381-0.66c-0.513-0.214-0.922-0.365-1.281-0.481c-0.235-0.076-0.349-0.118-0.43-0.14&#10;&#9;&#9;&#9;&#9;c-0.107-0.031-0.215-0.05-0.325-0.079c-0.376-0.105-0.743-0.197-1.102-0.271c-0.105-0.022-0.213-0.044-0.318-0.063&#10;&#9;&#9;&#9;&#9;c-0.372-0.07-0.73-0.125-1.075-0.166c-0.291-0.037-0.578-0.066-0.867-0.087c-0.24-0.017-0.479-0.035-0.703-0.044&#10;&#9;&#9;&#9;&#9;c-0.19-0.007-0.383-0.015-0.573-0.015c-0.952-0.009-1.811,0.066-2.729,0.214c-0.078,0.013-0.159,0.026-0.24,0.042&#10;&#9;&#9;&#9;&#9;c-1.381,0.245-2.893,0.686-4.382,1.374c-0.253,0.111-0.468,0.216-0.723,0.349c-0.081,0.041-0.159,0.085-0.24,0.129&#10;&#9;&#9;&#9;&#9;c-0.293,0.159-0.636,0.358-1.014,0.601c-0.819,0.533-1.643,1.147-2.465,1.907c-0.096,0.092-0.184,0.177-0.273,0.262&#10;&#9;&#9;&#9;&#9;c-0.099,0.098-0.199,0.186-0.298,0.288c-0.459,0.5-0.75,0.823-0.99,1.105c-0.11,0.127-0.195,0.256-0.298,0.384&#10;&#9;&#9;&#9;&#9;c-0.439,0.572-0.739,1.007-0.996,1.439c-0.168,0.277-0.271,0.465-0.374,0.655c-0.32,0.577-0.571,1.083-0.719,1.407&#10;&#9;&#9;&#9;&#9;c-0.143,0.321-0.287,0.649-0.423,0.959c-0.909,2.079-1.975,4.506-2.861,6.531c-0.074,0.168-0.157,0.358-0.226,0.52&#10;&#9;&#9;&#9;&#9;c-0.058,0.133-0.125,0.288-0.188,0.43c-0.32,0.732-0.676,1.542-1.019,2.328c-0.204,0.461-0.401,0.911-0.575,1.313&#10;&#9;&#9;&#9;&#9;c-0.132,0.299-0.282,0.642-0.423,0.963c-1.028,2.346-2.257,5.153-3.217,7.346c-0.943,2.156-2.143,4.893-3.17,7.243&#10;&#9;&#9;&#9;&#9;c-0.193,0.441-0.392,0.898-0.571,1.304c-0.327,0.747-0.716,1.634-1.097,2.503c-0.287,0.653-0.569,1.3-0.815,1.861&#10;&#9;&#9;&#9;&#9;c-0.537,1.225-1.158,2.645-1.784,4.074c-0.416,0.952-0.833,1.903-1.234,2.82c-0.309,0.706-0.609,1.391-0.884,2.02&#10;&#9;&#9;&#9;&#9;c-0.284,0.651-0.596,1.359-0.914,2.086c-1.032,2.357-2.185,4.991-3.108,7.095c-0.072,0.162-0.152,0.349-0.228,0.522&#10;&#9;&#9;&#9;&#9;c-0.582,1.33-1.281,2.923-1.827,4.17c-0.967,2.211-2.181,4.978-3.262,7.451c-0.327,0.745-0.645,1.472-0.938,2.141&#10;&#9;&#9;&#9;&#9;c-0.922,2.106-2.06,4.703-3.108,7.099c-0.076,0.173-0.152,0.345-0.226,0.515c-0.347,0.793-0.683,1.562-0.994,2.269&#10;&#9;&#9;&#9;&#9;c-0.663,1.518-1.552,3.539-2.214,5.057c-1.359,3.102-3.17,7.241-4.53,10.345c-0.405,1.009-0.685,1.743-0.909,2.54&#10;&#9;&#9;&#9;&#9;c-0.244,0.843-0.41,1.704-0.596,3.073c-0.083,0.664-0.123,1.343-0.11,1.854c0.009,0.981,0.063,1.948,0.199,2.909&#10;&#9;&#9;&#9;&#9;c0.034,0.293,0.148,1.042,0.416,2.064c0.099,0.395,0.213,0.784,0.369,1.245c0.148,0.424,0.237,0.673,0.347,0.965&#10;&#9;&#9;&#9;&#9;c0.36,0.961,0.833,1.844,1.205,2.488c0.255,0.439,0.399,0.675,0.481,0.81c0.132,0.21,0.331,0.489,0.522,0.76&#10;&#9;&#9;&#9;&#9;c0.233,0.332,0.517,0.686,0.837,1.075c0.083,0.1,0.166,0.208,0.249,0.304c0.177,0.208,0.372,0.411,0.573,0.627&#10;&#9;&#9;&#9;&#9;c0.327,0.347,0.647,0.666,0.961,0.959c0.096,0.087,0.175,0.17,0.275,0.258c0.987,0.885,1.867,1.494,2.42,1.841&#10;&#9;&#9;&#9;&#9;c0.696,0.424,1.22,0.73,1.704,0.972c1.097,0.548,2.239,0.965,2.25,0.968c0.134,0.048,0.262,0.068,0.394,0.111&#10;&#9;&#9;&#9;&#9;c2.821,0.957,5.226,1.094,6.659,1.044c0.141-0.004,0.251-0.017,0.372-0.022c0.365-0.017,0.743-0.046,1.135-0.083&#10;&#9;&#9;&#9;&#9;c0.461-0.044,0.896-0.098,1.319-0.166c0.287-0.046,0.571-0.09,0.869-0.149c0.313-0.066,0.591-0.14,0.878-0.214&#10;&#9;&#9;&#9;&#9;c0.199-0.05,0.396-0.096,0.602-0.155c0.448-0.131,0.846-0.262,1.214-0.398c0.564-0.208,0.956-0.367,1.258-0.505&#10;&#9;&#9;&#9;&#9;c0.076-0.035,0.141-0.072,0.215-0.107c0.148-0.068,0.298-0.144,0.448-0.218c0.376-0.186,0.73-0.374,1.066-0.561&#10;&#9;&#9;&#9;&#9;c0.105-0.059,0.208-0.114,0.313-0.175c0.564-0.33,1.059-0.651,1.5-0.961c1.243-0.887,1.982-1.588,2.34-1.964&#10;&#9;&#9;&#9;&#9;c0.79-0.799,1.265-1.361,1.424-1.566c0.361-0.446,0.699-0.909,1.124-1.546c0.107-0.162,0.206-0.31,0.318-0.481&#10;&#9;&#9;&#9;&#9;c0.21-0.343,0.347-0.577,0.472-0.806c0.06-0.111,0.116-0.221,0.175-0.334c0.065-0.127,0.132-0.256,0.193-0.382&#10;&#9;&#9;&#9;&#9;c0.318-0.649,0.58-1.258,0.759-1.708c0.022-0.052,10.763-28.588,10.763-28.588c8.244-21.913,17.104-45.457,24.314-64.618&#10;&#9;&#9;&#9;&#9;c0.004-0.013,0.137-0.415,0.137-0.415c0.484-1.47,0.513-1.603,0.69-2.615c0.085-0.494,0.137-0.941,0.172-1.354&#10;&#9;&#9;&#9;&#9;C78.946,22.75,78.953,22.599,78.964,22.449L78.964,22.449z" transform="matrix(1, 0, 0, 1, 0, 0)"/>
      </clipPath>
      <rect clip-path="url(#SVGID_6_)" fill="#F9D733" width="84" height="138"/>
    </g>
    <g>
      <defs>
        <path id="SVGID_7_" d="M124.934,139.754c-0.09-1.136-0.343-2.641-0.591-3.753c-0.196-0.887-0.602-2.032-0.888-2.892&#10;&#9;&#9;&#9;&#9;c-0.253-0.67-0.532-1.409-0.809-2.144c-0.877-2.324-1.836-4.863-2.724-7.218c-0.332-0.882-0.66-1.748-0.956-2.539&#10;&#9;&#9;&#9;&#9;c-0.646-1.713-1.51-4-2.157-5.713c-0.91-2.411-2.04-5.403-3.069-8.128c-0.378-1.006-0.745-1.98-1.079-2.866&#10;&#9;&#9;&#9;&#9;c-0.895-2.368-2.012-5.329-3.016-7.99c-0.325-0.859-0.638-1.689-0.926-2.454c-0.299-0.794-0.653-1.726-1.003-2.654&#10;&#9;&#9;&#9;&#9;c-0.314-0.833-0.627-1.661-0.897-2.374c-1.097-2.91-2.561-6.788-3.658-9.696c-1.046-2.773-2.44-6.467-3.487-9.241&#10;&#9;&#9;&#9;&#9;c-0.506-1.338-1.178-3.122-1.684-4.462c-0.712-1.886-1.596-4.23-2.403-6.366c-0.297-0.789-0.585-1.552-0.846-2.251&#10;&#9;&#9;&#9;&#9;c-0.934-2.469-2.176-5.761-3.109-8.232c-0.451-1.195-1.053-2.788-1.504-3.983c-0.213-0.564-0.444-1.175-0.684-1.81&#10;&#9;&#9;&#9;&#9;c-0.499-1.327-1.038-2.754-1.539-4.083c-0.24-0.635-0.47-1.247-0.684-1.813c0.002,0.004,0.002,0.011,0.004,0.015&#10;&#9;&#9;&#9;&#9;c-0.002-0.004-0.004-0.011-0.007-0.015l0,0c-0.396-0.958-0.69-1.676-1.229-2.619c-0.011-0.017-0.022-0.043-0.031-0.061&#10;&#9;&#9;&#9;&#9;c-0.11-0.197-0.257-0.421-0.394-0.637c-0.064-0.102-0.11-0.184-0.178-0.293c-0.007-0.009-0.013-0.015-0.02-0.026&#10;&#9;&#9;&#9;&#9;c-0.273-0.414-0.556-0.824-0.82-1.16c-0.064-0.085-0.143-0.15-0.211-0.234c-0.578-0.722-1.159-1.37-1.713-1.893&#10;&#9;&#9;&#9;&#9;c-0.062-0.059-0.13-0.108-0.193-0.167c-0.789-0.72-1.515-1.273-2.027-1.652c-0.002-0.002-0.004-0.004-0.007-0.004&#10;&#9;&#9;&#9;&#9;c-0.002-0.002-0.004-0.004-0.007-0.004c-0.536-0.395-1.539-1.021-2.957-1.652c-0.16-0.074-0.321-0.154-0.479-0.219&#10;&#9;&#9;&#9;&#9;c-0.128-0.054-0.279-0.104-0.413-0.156c-0.462-0.18-0.915-0.345-1.354-0.479c-0.101-0.033-0.178-0.067-0.281-0.1&#10;&#9;&#9;&#9;&#9;c-0.78-0.238-1.541-0.392-2.245-0.501c-0.011-0.002-0.022-0.004-0.033-0.007c-0.317-0.048-0.622-0.087-0.908-0.117&#10;&#9;&#9;&#9;&#9;c-0.849-0.093-1.561-0.117-2.04-0.111h-0.033c-0.222-0.002-0.853,0.004-1.737,0.087c-0.156,0.015-0.31,0.03-0.457,0.048&#10;&#9;&#9;&#9;&#9;c-0.068,0.009-0.128,0.013-0.198,0.022c-0.064,0.009-0.143,0.022-0.213,0.03c-0.084,0.013-0.171,0.024-0.253,0.037&#10;&#9;&#9;&#9;&#9;c-0.235,0.037-0.473,0.078-0.677,0.115c-0.026,0.007-0.062,0.015-0.092,0.022c-0.328,0.063-0.629,0.13-0.91,0.204&#10;&#9;&#9;&#9;&#9;c-0.031,0.007-0.068,0.015-0.097,0.022c-0.547,0.113-1.209,0.34-1.823,0.577c-0.099,0.035-0.185,0.065-0.29,0.1&#10;&#9;&#9;&#9;&#9;c-0.394,0.139-0.906,0.375-1.447,0.646c-0.339,0.167-0.651,0.325-0.965,0.503c-0.007,0.004-0.013,0.009-0.02,0.013&#10;&#9;&#9;&#9;&#9;c-0.207,0.117-0.431,0.243-0.587,0.334c-0.182,0.108-0.431,0.267-0.719,0.464c-0.042,0.028-0.075,0.056-0.117,0.085&#10;&#9;&#9;&#9;&#9;c-0.284,0.197-0.591,0.423-0.926,0.683c-0.033,0.026-0.079,0.054-0.11,0.082c-0.081,0.065-0.202,0.176-0.297,0.254&#10;&#9;&#9;&#9;&#9;c-0.552,0.453-1.117,0.954-1.633,1.513c-0.211,0.228-0.361,0.425-0.545,0.642c-0.306,0.347-0.607,0.711-0.915,1.127&#10;&#9;&#9;&#9;&#9;c-0.339,0.455-0.627,0.88-0.868,1.277c-0.048,0.078-0.101,0.137-0.147,0.217c-0.057,0.098-0.09,0.184-0.145,0.28&#10;&#9;&#9;&#9;&#9;c-0.27,0.479-0.51,0.932-0.712,1.338c-0.048,0.095-0.097,0.219-0.145,0.327c-0.022,0.048-0.042,0.093-0.064,0.141&#10;&#9;&#9;&#9;&#9;c-0.215,0.49-0.431,1.028-0.572,1.483c-0.009,0.028-0.018,0.067-0.026,0.095c-0.372,1.134-0.556,2.068-0.677,2.71&#10;&#9;&#9;&#9;&#9;c-0.007,0.048-0.011,0.082-0.018,0.13c-0.059,0.41-0.132,0.963-0.185,1.624c-0.057,0.653-0.079,1.262-0.044,2.036&#10;&#9;&#9;&#9;&#9;c0,0.017-0.002,0.035,0,0.054c0.04,0.865,0.101,1.446,0.204,2.06c0.101,0.624,0.231,1.199,0.387,1.867&#10;&#9;&#9;&#9;&#9;c0.007,0.028,0.011,0.046,0.018,0.074c0.002,0.013,0.002,0.024,0.007,0.035l26.406,98.691c-0.002-0.004-0.002-0.011-0.002-0.015&#10;&#9;&#9;&#9;&#9;l0.002,0.009v0.009c0.589,2.144,1.236,3.538,1.42,3.918c0.928,1.899,1.82,3.38,2.647,4.404c1.165,1.437,2.007,2.476,3.764,3.948&#10;&#9;&#9;&#9;&#9;c2.04,1.706,3.863,2.654,4.549,3.009c4.212,2.19,9.284,3.094,13.914,2.487c1.035-0.137,3.784-0.496,7.046-2.001&#10;&#9;&#9;&#9;&#9;c3.122-1.437,5.032-3.126,6.061-4.035c2.117-1.878,3.698-4.26,4.645-5.93c1.517-2.665,2.143-5.334,2.407-6.474&#10;&#9;&#9;&#9;&#9;C124.936,144.485,125.106,141.948,124.934,139.754"/>
      </defs>
      <clipPath id="SVGID_8_">
        <path id="" d="M124.934,139.754c-0.09-1.136-0.343-2.641-0.591-3.753c-0.196-0.887-0.602-2.032-0.888-2.892&#10;&#9;&#9;&#9;&#9;c-0.253-0.67-0.532-1.409-0.809-2.144c-0.877-2.324-1.836-4.863-2.724-7.218c-0.332-0.882-0.66-1.748-0.956-2.539&#10;&#9;&#9;&#9;&#9;c-0.646-1.713-1.51-4-2.157-5.713c-0.91-2.411-2.04-5.403-3.069-8.128c-0.378-1.006-0.745-1.98-1.079-2.866&#10;&#9;&#9;&#9;&#9;c-0.895-2.368-2.012-5.329-3.016-7.99c-0.325-0.859-0.638-1.689-0.926-2.454c-0.299-0.794-0.653-1.726-1.003-2.654&#10;&#9;&#9;&#9;&#9;c-0.314-0.833-0.627-1.661-0.897-2.374c-1.097-2.91-2.561-6.788-3.658-9.696c-1.046-2.773-2.44-6.467-3.487-9.241&#10;&#9;&#9;&#9;&#9;c-0.506-1.338-1.178-3.122-1.684-4.462c-0.712-1.886-1.596-4.23-2.403-6.366c-0.297-0.789-0.585-1.552-0.846-2.251&#10;&#9;&#9;&#9;&#9;c-0.934-2.469-2.176-5.761-3.109-8.232c-0.451-1.195-1.053-2.788-1.504-3.983c-0.213-0.564-0.444-1.175-0.684-1.81&#10;&#9;&#9;&#9;&#9;c-0.499-1.327-1.038-2.754-1.539-4.083c-0.24-0.635-0.47-1.247-0.684-1.813c0.002,0.004,0.002,0.011,0.004,0.015&#10;&#9;&#9;&#9;&#9;c-0.002-0.004-0.004-0.011-0.007-0.015l0,0c-0.396-0.958-0.69-1.676-1.229-2.619c-0.011-0.017-0.022-0.043-0.031-0.061&#10;&#9;&#9;&#9;&#9;c-0.11-0.197-0.257-0.421-0.394-0.637c-0.064-0.102-0.11-0.184-0.178-0.293c-0.007-0.009-0.013-0.015-0.02-0.026&#10;&#9;&#9;&#9;&#9;c-0.273-0.414-0.556-0.824-0.82-1.16c-0.064-0.085-0.143-0.15-0.211-0.234c-0.578-0.722-1.159-1.37-1.713-1.893&#10;&#9;&#9;&#9;&#9;c-0.062-0.059-0.13-0.108-0.193-0.167c-0.789-0.72-1.515-1.273-2.027-1.652c-0.002-0.002-0.004-0.004-0.007-0.004&#10;&#9;&#9;&#9;&#9;c-0.002-0.002-0.004-0.004-0.007-0.004c-0.536-0.395-1.539-1.021-2.957-1.652c-0.16-0.074-0.321-0.154-0.479-0.219&#10;&#9;&#9;&#9;&#9;c-0.128-0.054-0.279-0.104-0.413-0.156c-0.462-0.18-0.915-0.345-1.354-0.479c-0.101-0.033-0.178-0.067-0.281-0.1&#10;&#9;&#9;&#9;&#9;c-0.78-0.238-1.541-0.392-2.245-0.501c-0.011-0.002-0.022-0.004-0.033-0.007c-0.317-0.048-0.622-0.087-0.908-0.117&#10;&#9;&#9;&#9;&#9;c-0.849-0.093-1.561-0.117-2.04-0.111h-0.033c-0.222-0.002-0.853,0.004-1.737,0.087c-0.156,0.015-0.31,0.03-0.457,0.048&#10;&#9;&#9;&#9;&#9;c-0.068,0.009-0.128,0.013-0.198,0.022c-0.064,0.009-0.143,0.022-0.213,0.03c-0.084,0.013-0.171,0.024-0.253,0.037&#10;&#9;&#9;&#9;&#9;c-0.235,0.037-0.473,0.078-0.677,0.115c-0.026,0.007-0.062,0.015-0.092,0.022c-0.328,0.063-0.629,0.13-0.91,0.204&#10;&#9;&#9;&#9;&#9;c-0.031,0.007-0.068,0.015-0.097,0.022c-0.547,0.113-1.209,0.34-1.823,0.577c-0.099,0.035-0.185,0.065-0.29,0.1&#10;&#9;&#9;&#9;&#9;c-0.394,0.139-0.906,0.375-1.447,0.646c-0.339,0.167-0.651,0.325-0.965,0.503c-0.007,0.004-0.013,0.009-0.02,0.013&#10;&#9;&#9;&#9;&#9;c-0.207,0.117-0.431,0.243-0.587,0.334c-0.182,0.108-0.431,0.267-0.719,0.464c-0.042,0.028-0.075,0.056-0.117,0.085&#10;&#9;&#9;&#9;&#9;c-0.284,0.197-0.591,0.423-0.926,0.683c-0.033,0.026-0.079,0.054-0.11,0.082c-0.081,0.065-0.202,0.176-0.297,0.254&#10;&#9;&#9;&#9;&#9;c-0.552,0.453-1.117,0.954-1.633,1.513c-0.211,0.228-0.361,0.425-0.545,0.642c-0.306,0.347-0.607,0.711-0.915,1.127&#10;&#9;&#9;&#9;&#9;c-0.339,0.455-0.627,0.88-0.868,1.277c-0.048,0.078-0.101,0.137-0.147,0.217c-0.057,0.098-0.09,0.184-0.145,0.28&#10;&#9;&#9;&#9;&#9;c-0.27,0.479-0.51,0.932-0.712,1.338c-0.048,0.095-0.097,0.219-0.145,0.327c-0.022,0.048-0.042,0.093-0.064,0.141&#10;&#9;&#9;&#9;&#9;c-0.215,0.49-0.431,1.028-0.572,1.483c-0.009,0.028-0.018,0.067-0.026,0.095c-0.372,1.134-0.556,2.068-0.677,2.71&#10;&#9;&#9;&#9;&#9;c-0.007,0.048-0.011,0.082-0.018,0.13c-0.059,0.41-0.132,0.963-0.185,1.624c-0.057,0.653-0.079,1.262-0.044,2.036&#10;&#9;&#9;&#9;&#9;c0,0.017-0.002,0.035,0,0.054c0.04,0.865,0.101,1.446,0.204,2.06c0.101,0.624,0.231,1.199,0.387,1.867&#10;&#9;&#9;&#9;&#9;c0.007,0.028,0.011,0.046,0.018,0.074c0.002,0.013,0.002,0.024,0.007,0.035l26.406,98.691c-0.002-0.004-0.002-0.011-0.002-0.015&#10;&#9;&#9;&#9;&#9;l0.002,0.009v0.009c0.589,2.144,1.236,3.538,1.42,3.918c0.928,1.899,1.82,3.38,2.647,4.404c1.165,1.437,2.007,2.476,3.764,3.948&#10;&#9;&#9;&#9;&#9;c2.04,1.706,3.863,2.654,4.549,3.009c4.212,2.19,9.284,3.094,13.914,2.487c1.035-0.137,3.784-0.496,7.046-2.001&#10;&#9;&#9;&#9;&#9;c3.122-1.437,5.032-3.126,6.061-4.035c2.117-1.878,3.698-4.26,4.645-5.93c1.517-2.665,2.143-5.334,2.407-6.474&#10;&#9;&#9;&#9;&#9;C124.936,144.485,125.106,141.948,124.934,139.754" transform="matrix(1, 0, 0, 1, 0, 0)"/>
      </clipPath>
      <rect x="46" y="20" clip-path="url(#SVGID_8_)" fill="#654D73" width="84" height="150"/>
    </g>
    <g>
      <defs>
        <path id="SVGID_9_" d="M118.903,80.117c0.002-0.015,0.002-0.026,0.005-0.039c0.05-0.599,0.086-1.231,0.093-1.927&#10;&#9;&#9;&#9;&#9;c0-0.03-0.002-0.056-0.002-0.086c0-0.073-0.002-0.138-0.005-0.211c0-0.491-0.018-0.965-0.047-1.422&#10;&#9;&#9;&#9;&#9;c-0.011-0.194-0.025-0.375-0.041-0.558c-0.023-0.267-0.05-0.521-0.081-0.774c-0.027-0.231-0.052-0.457-0.081-0.666&#10;&#9;&#9;&#9;&#9;c-0.002-0.015-0.005-0.028-0.007-0.043c-0.07-0.457-0.14-0.847-0.21-1.177c-0.233-1.157-0.491-1.996-0.615-2.366&#10;&#9;&#9;&#9;&#9;c-0.061-0.181-0.147-0.42-0.222-0.634c-0.479-1.427-0.984-2.528-1.531-3.523c-0.1-0.185-0.208-0.375-0.319-0.567&#10;&#9;&#9;&#9;&#9;c-0.319-0.55-0.654-1.086-1.009-1.651c-0.005-0.011-0.588-0.899-1.522-2.019c-0.061-0.073-0.12-0.144-0.179-0.216&#10;&#9;&#9;&#9;&#9;c-0.118-0.138-0.244-0.28-0.373-0.425c-0.194-0.22-0.382-0.427-0.563-0.621c-0.09-0.095-0.176-0.188-0.26-0.272&#10;&#9;&#9;&#9;&#9;c-0.972-1.002-1.728-1.616-1.974-1.808c-0.007-0.004-0.011-0.009-0.016-0.013c-0.009-0.006-0.547-0.459-1.395-1.067&#10;&#9;&#9;&#9;&#9;c-0.622-0.465-0.995-0.709-1.719-1.146c-0.02-0.013-0.041-0.022-0.061-0.035c-0.02-0.013-0.036-0.024-0.057-0.037&#10;&#9;&#9;&#9;&#9;c-0.256-0.153-0.536-0.31-0.832-0.468c-1.291-0.713-2.293-1.14-2.607-1.267h-0.002c-0.914-0.409-2.583-0.95-4.125-1.336&#10;&#9;&#9;&#9;&#9;c-0.102-0.026-0.204-0.05-0.305-0.073c-0.604-0.144-1.171-0.261-1.662-0.33c-0.436-0.073-0.864-0.118-1.291-0.166&#10;&#9;&#9;&#9;&#9;c-0.204-0.024-0.38-0.041-0.583-0.062c-0.136-0.013-0.274-0.037-0.407-0.045c-0.142-0.009-0.299-0.013-0.445-0.022&#10;&#9;&#9;&#9;&#9;c-0.163-0.011-0.351-0.034-0.5-0.039c-0.375-0.004-0.884-0.011-1.432-0.009c-0.185,0.002-0.364,0-0.556,0.004&#10;&#9;&#9;&#9;&#9;c-0.837,0.015-1.748,0.058-2.574,0.175c-0.063,0.009-0.138,0.022-0.204,0.03c-0.844,0.106-1.723,0.263-2.641,0.474&#10;&#9;&#9;&#9;&#9;c-0.434,0.095-0.855,0.194-1.23,0.3c-1.574,0.446-1.669,0.489-4.17,1.539c-0.002,0-0.007,0.002-0.009,0.004&#10;&#9;&#9;&#9;&#9;c0.002-0.002,0.007-0.004,0.009-0.006L34.785,77.087c-0.014,0.006-0.025,0.015-0.038,0.022c-0.047,0.024-0.088,0.045-0.133,0.069&#10;&#9;&#9;&#9;&#9;c-0.378,0.19-0.728,0.373-1.061,0.552c-0.269,0.142-0.527,0.284-0.771,0.427c-0.009,0.006-0.02,0.013-0.029,0.019&#10;&#9;&#9;&#9;&#9;c-0.276,0.162-0.547,0.332-0.823,0.519c-0.052,0.034-0.106,0.069-0.161,0.106c-0.204,0.142-0.414,0.293-0.64,0.463&#10;&#9;&#9;&#9;&#9;c-0.106,0.08-0.204,0.142-0.314,0.226c-0.093,0.073-0.17,0.151-0.26,0.222c-0.262,0.209-0.54,0.437-0.853,0.698&#10;&#9;&#9;&#9;&#9;c-0.02,0.015-1.827,1.543-3.272,3.685c-0.075,0.112-0.129,0.22-0.201,0.33c-1.19,1.795-1.811,3.321-2.038,3.974&#10;&#9;&#9;&#9;&#9;c-0.034,0.095-0.075,0.222-0.109,0.323c-0.029,0.082-0.054,0.159-0.081,0.241c-0.086,0.252-0.165,0.524-0.253,0.823&#10;&#9;&#9;&#9;&#9;c-0.081,0.278-0.156,0.547-0.222,0.812c-0.032,0.131-0.061,0.259-0.09,0.397c-0.321,1.457-0.423,2.694-0.427,3.551v0.007&#10;&#9;&#9;&#9;&#9;c-0.093,3.237,0.681,5.663,0.835,6.118c0.136,0.394,0.278,0.804,0.441,1.233c0.025,0.065,0.034,0.121,0.061,0.185&#10;&#9;&#9;&#9;&#9;c0.09,0.237,0.197,0.457,0.296,0.683c0.059,0.138,0.113,0.272,0.179,0.414c0.151,0.323,0.31,0.629,0.473,0.929&#10;&#9;&#9;&#9;&#9;c0.111,0.209,0.231,0.42,0.36,0.64c0.231,0.392,0.461,0.756,0.69,1.095c0.047,0.069,0.079,0.129,0.129,0.203&#10;&#9;&#9;&#9;&#9;c0.029,0.043,0.059,0.073,0.088,0.114c0.844,1.198,1.588,1.998,1.82,2.235c0.052,0.054,0.106,0.099,0.161,0.151&#10;&#9;&#9;&#9;&#9;c0.929,0.968,1.739,1.646,2.151,1.952c0.163,0.123,0.387,0.282,0.595,0.435c0.102,0.073,0.204,0.149,0.305,0.222&#10;&#9;&#9;&#9;&#9;c0.357,0.25,0.771,0.524,1.242,0.81c0.344,0.207,0.694,0.388,1.043,0.569c0.228,0.121,0.443,0.237,0.692,0.358&#10;&#9;&#9;&#9;&#9;c0.038,0.017,0.077,0.041,0.115,0.06c0.323,0.144,0.814,0.36,1.431,0.597c0.077,0.028,0.136,0.063,0.215,0.093&#10;&#9;&#9;&#9;&#9;c0.538,0.196,1.658,0.603,3.286,0.933c0.133,0.028,0.287,0.05,0.432,0.073c0.007,0.002,0.011,0.002,0.018,0.004&#10;&#9;&#9;&#9;&#9;c0.228,0.037,0.459,0.071,0.703,0.103c0.697,0.103,1.425,0.19,2.214,0.226h-0.002c0.466,0.011,0.868,0.013,1.248,0.009&#10;&#9;&#9;&#9;&#9;c0.057,0,0.104-0.002,0.161-0.002c1.013-0.013,1.78-0.075,2.555-0.192c0.617-0.08,1.278-0.192,2.157-0.401&#10;&#9;&#9;&#9;&#9;c0.009-0.002,0.016-0.002,0.023-0.004l50.028-12.107c-0.007,0.002-0.014,0.004-0.02,0.006l0.023-0.006&#10;&#9;&#9;&#9;&#9;c0.088-0.022,0.174-0.054,0.265-0.075c0.018-0.006,0.038-0.011,0.057-0.017c-0.109,0.028-0.213,0.067-0.323,0.093&#10;&#9;&#9;&#9;&#9;c0.599-0.168,1.413-0.356,1.999-0.562c0.14-0.05,0.299-0.108,0.45-0.162c0.57-0.192,1.174-0.425,1.807-0.692&#10;&#9;&#9;&#9;&#9;c0.362-0.151,0.715-0.302,1.02-0.453c0.07-0.034,0.129-0.067,0.199-0.101c0.029-0.015,0.057-0.026,0.088-0.041&#10;&#9;&#9;&#9;&#9;c0.034-0.017,0.063-0.039,0.097-0.056c2.775-1.411,4.288-2.631,4.946-3.161c0.054-0.043,0.095-0.088,0.145-0.129&#10;&#9;&#9;&#9;&#9;c0.023-0.019,0.047-0.034,0.07-0.052c0.118-0.097,0.215-0.209,0.33-0.308c0.595-0.513,1.153-1.028,1.662-1.552&#10;&#9;&#9;&#9;&#9;c0.228-0.235,0.441-0.478,0.658-0.718c0.4-0.446,0.778-0.886,1.122-1.325c0.215-0.272,0.43-0.545,0.631-0.825&#10;&#9;&#9;&#9;&#9;c0.504-0.696,0.952-1.375,1.33-2.019c0.07-0.119,0.131-0.239,0.197-0.358c1.07-1.894,1.642-3.457,1.866-4.176&#10;&#9;&#9;&#9;&#9;c0.068-0.222,0.142-0.457,0.215-0.705c0.023-0.073,0.043-0.144,0.063-0.216C118.387,83.513,118.74,82.05,118.903,80.117&#10;&#9;&#9;&#9;&#9;L118.903,80.117L118.903,80.117z"/>
      </defs>
      <clipPath id="SVGID_10_">
        <path id="" d="M118.903,80.117c0.002-0.015,0.002-0.026,0.005-0.039c0.05-0.599,0.086-1.231,0.093-1.927&#10;&#9;&#9;&#9;&#9;c0-0.03-0.002-0.056-0.002-0.086c0-0.073-0.002-0.138-0.005-0.211c0-0.491-0.018-0.965-0.047-1.422&#10;&#9;&#9;&#9;&#9;c-0.011-0.194-0.025-0.375-0.041-0.558c-0.023-0.267-0.05-0.521-0.081-0.774c-0.027-0.231-0.052-0.457-0.081-0.666&#10;&#9;&#9;&#9;&#9;c-0.002-0.015-0.005-0.028-0.007-0.043c-0.07-0.457-0.14-0.847-0.21-1.177c-0.233-1.157-0.491-1.996-0.615-2.366&#10;&#9;&#9;&#9;&#9;c-0.061-0.181-0.147-0.42-0.222-0.634c-0.479-1.427-0.984-2.528-1.531-3.523c-0.1-0.185-0.208-0.375-0.319-0.567&#10;&#9;&#9;&#9;&#9;c-0.319-0.55-0.654-1.086-1.009-1.651c-0.005-0.011-0.588-0.899-1.522-2.019c-0.061-0.073-0.12-0.144-0.179-0.216&#10;&#9;&#9;&#9;&#9;c-0.118-0.138-0.244-0.28-0.373-0.425c-0.194-0.22-0.382-0.427-0.563-0.621c-0.09-0.095-0.176-0.188-0.26-0.272&#10;&#9;&#9;&#9;&#9;c-0.972-1.002-1.728-1.616-1.974-1.808c-0.007-0.004-0.011-0.009-0.016-0.013c-0.009-0.006-0.547-0.459-1.395-1.067&#10;&#9;&#9;&#9;&#9;c-0.622-0.465-0.995-0.709-1.719-1.146c-0.02-0.013-0.041-0.022-0.061-0.035c-0.02-0.013-0.036-0.024-0.057-0.037&#10;&#9;&#9;&#9;&#9;c-0.256-0.153-0.536-0.31-0.832-0.468c-1.291-0.713-2.293-1.14-2.607-1.267h-0.002c-0.914-0.409-2.583-0.95-4.125-1.336&#10;&#9;&#9;&#9;&#9;c-0.102-0.026-0.204-0.05-0.305-0.073c-0.604-0.144-1.171-0.261-1.662-0.33c-0.436-0.073-0.864-0.118-1.291-0.166&#10;&#9;&#9;&#9;&#9;c-0.204-0.024-0.38-0.041-0.583-0.062c-0.136-0.013-0.274-0.037-0.407-0.045c-0.142-0.009-0.299-0.013-0.445-0.022&#10;&#9;&#9;&#9;&#9;c-0.163-0.011-0.351-0.034-0.5-0.039c-0.375-0.004-0.884-0.011-1.432-0.009c-0.185,0.002-0.364,0-0.556,0.004&#10;&#9;&#9;&#9;&#9;c-0.837,0.015-1.748,0.058-2.574,0.175c-0.063,0.009-0.138,0.022-0.204,0.03c-0.844,0.106-1.723,0.263-2.641,0.474&#10;&#9;&#9;&#9;&#9;c-0.434,0.095-0.855,0.194-1.23,0.3c-1.574,0.446-1.669,0.489-4.17,1.539c-0.002,0-0.007,0.002-0.009,0.004&#10;&#9;&#9;&#9;&#9;c0.002-0.002,0.007-0.004,0.009-0.006L34.785,77.087c-0.014,0.006-0.025,0.015-0.038,0.022c-0.047,0.024-0.088,0.045-0.133,0.069&#10;&#9;&#9;&#9;&#9;c-0.378,0.19-0.728,0.373-1.061,0.552c-0.269,0.142-0.527,0.284-0.771,0.427c-0.009,0.006-0.02,0.013-0.029,0.019&#10;&#9;&#9;&#9;&#9;c-0.276,0.162-0.547,0.332-0.823,0.519c-0.052,0.034-0.106,0.069-0.161,0.106c-0.204,0.142-0.414,0.293-0.64,0.463&#10;&#9;&#9;&#9;&#9;c-0.106,0.08-0.204,0.142-0.314,0.226c-0.093,0.073-0.17,0.151-0.26,0.222c-0.262,0.209-0.54,0.437-0.853,0.698&#10;&#9;&#9;&#9;&#9;c-0.02,0.015-1.827,1.543-3.272,3.685c-0.075,0.112-0.129,0.22-0.201,0.33c-1.19,1.795-1.811,3.321-2.038,3.974&#10;&#9;&#9;&#9;&#9;c-0.034,0.095-0.075,0.222-0.109,0.323c-0.029,0.082-0.054,0.159-0.081,0.241c-0.086,0.252-0.165,0.524-0.253,0.823&#10;&#9;&#9;&#9;&#9;c-0.081,0.278-0.156,0.547-0.222,0.812c-0.032,0.131-0.061,0.259-0.09,0.397c-0.321,1.457-0.423,2.694-0.427,3.551v0.007&#10;&#9;&#9;&#9;&#9;c-0.093,3.237,0.681,5.663,0.835,6.118c0.136,0.394,0.278,0.804,0.441,1.233c0.025,0.065,0.034,0.121,0.061,0.185&#10;&#9;&#9;&#9;&#9;c0.09,0.237,0.197,0.457,0.296,0.683c0.059,0.138,0.113,0.272,0.179,0.414c0.151,0.323,0.31,0.629,0.473,0.929&#10;&#9;&#9;&#9;&#9;c0.111,0.209,0.231,0.42,0.36,0.64c0.231,0.392,0.461,0.756,0.69,1.095c0.047,0.069,0.079,0.129,0.129,0.203&#10;&#9;&#9;&#9;&#9;c0.029,0.043,0.059,0.073,0.088,0.114c0.844,1.198,1.588,1.998,1.82,2.235c0.052,0.054,0.106,0.099,0.161,0.151&#10;&#9;&#9;&#9;&#9;c0.929,0.968,1.739,1.646,2.151,1.952c0.163,0.123,0.387,0.282,0.595,0.435c0.102,0.073,0.204,0.149,0.305,0.222&#10;&#9;&#9;&#9;&#9;c0.357,0.25,0.771,0.524,1.242,0.81c0.344,0.207,0.694,0.388,1.043,0.569c0.228,0.121,0.443,0.237,0.692,0.358&#10;&#9;&#9;&#9;&#9;c0.038,0.017,0.077,0.041,0.115,0.06c0.323,0.144,0.814,0.36,1.431,0.597c0.077,0.028,0.136,0.063,0.215,0.093&#10;&#9;&#9;&#9;&#9;c0.538,0.196,1.658,0.603,3.286,0.933c0.133,0.028,0.287,0.05,0.432,0.073c0.007,0.002,0.011,0.002,0.018,0.004&#10;&#9;&#9;&#9;&#9;c0.228,0.037,0.459,0.071,0.703,0.103c0.697,0.103,1.425,0.19,2.214,0.226h-0.002c0.466,0.011,0.868,0.013,1.248,0.009&#10;&#9;&#9;&#9;&#9;c0.057,0,0.104-0.002,0.161-0.002c1.013-0.013,1.78-0.075,2.555-0.192c0.617-0.08,1.278-0.192,2.157-0.401&#10;&#9;&#9;&#9;&#9;c0.009-0.002,0.016-0.002,0.023-0.004l50.028-12.107c-0.007,0.002-0.014,0.004-0.02,0.006l0.023-0.006&#10;&#9;&#9;&#9;&#9;c0.088-0.022,0.174-0.054,0.265-0.075c0.018-0.006,0.038-0.011,0.057-0.017c-0.109,0.028-0.213,0.067-0.323,0.093&#10;&#9;&#9;&#9;&#9;c0.599-0.168,1.413-0.356,1.999-0.562c0.14-0.05,0.299-0.108,0.45-0.162c0.57-0.192,1.174-0.425,1.807-0.692&#10;&#9;&#9;&#9;&#9;c0.362-0.151,0.715-0.302,1.02-0.453c0.07-0.034,0.129-0.067,0.199-0.101c0.029-0.015,0.057-0.026,0.088-0.041&#10;&#9;&#9;&#9;&#9;c0.034-0.017,0.063-0.039,0.097-0.056c2.775-1.411,4.288-2.631,4.946-3.161c0.054-0.043,0.095-0.088,0.145-0.129&#10;&#9;&#9;&#9;&#9;c0.023-0.019,0.047-0.034,0.07-0.052c0.118-0.097,0.215-0.209,0.33-0.308c0.595-0.513,1.153-1.028,1.662-1.552&#10;&#9;&#9;&#9;&#9;c0.228-0.235,0.441-0.478,0.658-0.718c0.4-0.446,0.778-0.886,1.122-1.325c0.215-0.272,0.43-0.545,0.631-0.825&#10;&#9;&#9;&#9;&#9;c0.504-0.696,0.952-1.375,1.33-2.019c0.07-0.119,0.131-0.239,0.197-0.358c1.07-1.894,1.642-3.457,1.866-4.176&#10;&#9;&#9;&#9;&#9;c0.068-0.222,0.142-0.457,0.215-0.705c0.023-0.073,0.043-0.144,0.063-0.216C118.387,83.513,118.74,82.05,118.903,80.117&#10;&#9;&#9;&#9;&#9;L118.903,80.117L118.903,80.117z" transform="matrix(1, 0, 0, 1, 0, 0)"/>
      </clipPath>
      <rect x="18" y="48" clip-path="url(#SVGID_10_)" fill="#CD366B" width="106" height="72"/>
    </g>
  </g>
</svg>