<svg xmlns="http://www.w3.org/2000/svg" width="50.263" height="50.287" viewBox="0 0 50.263 50.287">
  <g id="Group_58" data-name="Group 58" transform="translate(-49.97 -132.74)">
    <path id="Path_39" data-name="Path 39" d="M290.509,358.981a14.562,14.562,0,1,0,14.562,14.562A14.531,14.531,0,0,0,290.509,358.981Zm6.391,11.524-7.543,7.543a1.132,1.132,0,0,1-.733.314.951.951,0,0,1-.733-.314l-3.772-3.772a1.037,1.037,0,0,1,1.467-1.467l3.038,3.038,6.81-6.81a1.037,1.037,0,0,1,1.467,1.467Z" transform="translate(-204.839 -205.078)" fill="#ffbf00"/>
    <path id="Path_40" data-name="Path 40" d="M197.8,132.74c-5.552,0-9.219,3.772-9.219,9.324S192.357,153.9,197.8,153.9s9.219-6.181,9.219-11.838C207.024,136.512,203.252,132.74,197.8,132.74Z" transform="translate(-125.649 0)" fill="#1e90ff"/>
    <path id="Path_41" data-name="Path 41" d="M51.622,408.64a4.262,4.262,0,0,0,2.514.838H70.584a17.131,17.131,0,0,1-1.572-6.915,16.227,16.227,0,0,1,4.714-11.524,43.22,43.22,0,0,0-5.238.1c-4.819.314-8.9,1.362-11.943,3.352a14.355,14.355,0,0,0-6.5,9.534,4.905,4.905,0,0,0,1.572,4.609Z" transform="translate(0 -234.098)" fill="#1e90ff"/>
  </g>
</svg>
