<?xml version="1.0" standalone="no"?>
<!DOCTYPE svg PUBLIC "-//W3C//DTD SVG 20010904//EN"
 "http://www.w3.org/TR/2001/REC-SVG-20010904/DTD/svg10.dtd">
<svg version="1.0" xmlns="http://www.w3.org/2000/svg"
 width="827.000000pt" height="238.000000pt" viewBox="0 0 827.000000 238.000000"
 preserveAspectRatio="xMidYMid meet">

<g transform="translate(0.000000,238.000000) scale(0.100000,-0.100000)"
fill="#E37222" stroke="none">
<path d="M1610 2371 c0 -11 31 -142 110 -466 33 -137 81 -333 105 -435 161
-673 267 -1094 289 -1153 77 -204 199 -288 421 -288 153 -1 271 46 339 135 68
90 91 164 361 1186 146 553 267 1011 270 1018 4 10 -49 12 -257 10 l-262 -3
-220 -882 c-122 -485 -223 -884 -226 -887 -6 -5 -40 141 -183 764 -30 129 -94
409 -143 622 l-89 388 -257 0 c-149 0 -258 -4 -258 -9z"/>
<path d="M3690 1205 l0 -1175 245 0 245 0 0 1175 0 1175 -245 0 -245 0 0
-1175z"/>
<path d="M4510 2288 c0 -51 -1 -580 -2 -1176 l-3 -1082 243 0 242 0 0 946 0
946 173 -4 c192 -6 252 -19 382 -86 106 -55 229 -182 282 -292 23 -47 49 -112
58 -145 22 -84 30 -246 16 -331 -42 -239 -231 -465 -456 -542 -53 -18 -100
-25 -192 -29 l-123 -6 0 -230 0 -230 158 6 c226 9 370 46 541 138 266 143 452
386 533 697 29 109 31 129 31 292 1 132 -4 196 -17 260 -83 390 -325 703 -669
865 -189 90 -179 88 -719 93 l-478 3 0 -93z"/>
<path d="M7186 2368 c-157 -19 -267 -108 -333 -270 -13 -33 -94 -349 -180
-702 -85 -352 -189 -778 -230 -946 -40 -168 -80 -331 -88 -363 l-13 -57 260 2
261 3 33 140 c17 77 107 469 199 870 175 769 173 760 179 754 4 -4 446 -1751
446 -1763 0 -3 117 -6 261 -6 l261 0 -7 28 c-38 156 -512 1926 -531 1985 -64
197 -179 307 -339 322 -33 3 -71 7 -85 9 -14 1 -56 -1 -94 -6z"/>
<path d="M768 2351 c-112 -37 -183 -102 -237 -215 -40 -85 -40 -86 -261 -996
-99 -410 -200 -826 -224 -925 l-43 -180 255 -3 c141 -1 259 1 262 5 4 5 95
397 204 873 205 899 204 895 210 889 4 -4 446 -1754 446 -1764 0 -3 117 -5
260 -5 143 0 260 2 260 5 0 10 -502 1894 -526 1975 -54 179 -135 286 -252 331
-82 31 -273 37 -354 10z"/>
</g>
</svg>
