<svg xmlns="http://www.w3.org/2000/svg" width="46.634" height="66.065" viewBox="0 0 46.634 66.065">
  <g id="Auszeichnung_Empfehlung-Daumen" transform="translate(-0.44 -1.5)">
    <path id="Path_78" data-name="Path 78" d="M.5,101.3" transform="translate(0 -53.525)" fill="none" stroke="#f28800" stroke-linecap="round" stroke-linejoin="round" stroke-width="2.5"/>
    <g id="Group_92" data-name="Group 92" transform="translate(4.949 1.5)">
      <path id="Path_81" data-name="Path 81" d="M11.906,1.5H47.1a1.86,1.86,0,0,1,1.855,1.855V24.406A1.86,1.86,0,0,1,47.1,26.26H24.7l-.185,6.213L16.126,26.26H11.953A1.86,1.86,0,0,1,10.1,24.406V3.355A1.792,1.792,0,0,1,11.906,1.5Z" transform="translate(-10.096 -1.5)" fill="#004f90"/>
      <g id="Group_91" data-name="Group 91" transform="translate(10.62 3.284)">
        <path id="Path_79" data-name="Path 79" d="M46.1,15.824c0-.046,2.087-3.8,2.179-4.266.093-.417-.046-1.994,0-2.411a1.5,1.5,0,0,1,2.643.649,5.544,5.544,0,0,1,.093,2.875,19.25,19.25,0,0,1-.51,1.947l4.822.046s1.484-.139,1.669.974a1.474,1.474,0,0,1-.649,1.53,1.29,1.29,0,0,1,.649,1.3,1.588,1.588,0,0,1-1.066,1.206,1.259,1.259,0,0,1,.417,1.206c-.185.881-1.252,1.02-1.252,1.02a1.321,1.321,0,0,1,.417,1.345,1.465,1.465,0,0,1-1.159.835h-7.79" transform="translate(-40.026 -8.583)" fill="#f28800"/>
        <path id="Path_80" data-name="Path 80" d="M33.974,33.659H37.5a.951.951,0,0,0,.974-.974V25.174A.951.951,0,0,0,37.5,24.2H33.974a.951.951,0,0,0-.974.974v7.512A1.047,1.047,0,0,0,33.974,33.659Z" transform="translate(-33 -16.959)" fill="#f28800"/>
        <circle id="Ellipse_6" data-name="Ellipse 6" cx="1.02" cy="1.02" r="1.02" transform="translate(1.762 12.852)" fill="#f28800"/>
      </g>
    </g>
    <g id="Layer_2" transform="translate(0.959 33.076)">
      <g id="Ebene_1_1_" transform="translate(0)">
        <path id="Path_82" data-name="Path 82" d="M7.058,95.4s-3.385,2.087-4.5,3.988c-.835,1.484-1.113,5.008-1.066,5.935.139,1.113,2.736,2.782,10.015,2.736,7.326,0,9.505-1.669,9.691-2.736.139-.927.185-4.034-1.252-5.935A31.98,31.98,0,0,0,16.007,95.4" transform="translate(-1.489 -80.191)" fill="#004d8b" stroke="#f5f8f9" stroke-width="1"/>
        <path id="Path_83" data-name="Path 83" d="M14.762,83.371A6.886,6.886,0,1,0,7.9,76.462,6.847,6.847,0,0,0,14.762,83.371Z" transform="translate(-4.928 -69.6)" fill="#004d8b" stroke="#f5f8f9" stroke-width="1"/>
      </g>
    </g>
    <g id="Layer_2_2_" transform="translate(26.739 33.123)">
      <g id="Ebene_1_3_">
        <path id="Path_84" data-name="Path 84" d="M62.658,95.4s-3.385,2.087-4.5,3.988c-.835,1.484-1.113,5.008-1.066,5.935.139,1.113,2.736,2.782,10.015,2.736,7.326,0,9.505-1.669,9.691-2.736.139-.927.185-4.034-1.252-5.935A31.98,31.98,0,0,0,71.607,95.4" transform="translate(-57.089 -80.701)" fill="#005091" stroke="#f5f8f9" stroke-width="1"/>
        <path id="Path_85" data-name="Path 85" d="M70.462,83.425A6.862,6.862,0,1,0,63.6,76.562,6.847,6.847,0,0,0,70.462,83.425Z" transform="translate(-60.581 -69.7)" fill="#005091" stroke="#f5f8f9" stroke-width="1"/>
      </g>
    </g>
    <g id="Layer_2_1_" transform="translate(12.077 36.044)">
      <g id="Ebene_1_2_">
        <path id="Path_86" data-name="Path 86" d="M31.835,105.6s-3.895,2.365-5.147,4.59c-.974,1.716-1.3,5.75-1.206,6.77.139,1.252,3.153,3.2,11.453,3.153,8.393,0,10.9-1.9,11.082-3.153.185-1.066.232-4.637-1.437-6.816a34.707,34.707,0,0,0-4.5-4.544" transform="translate(-25.467 -89.093)" fill="#004d8b" stroke="#f5f8f9" stroke-width="1"/>
        <path id="Path_87" data-name="Path 87" d="M40.683,91.765A7.882,7.882,0,1,0,32.8,83.882,7.876,7.876,0,0,0,40.683,91.765Z" transform="translate(-29.4 -76)" fill="#004d8b" stroke="#f5f8f9" stroke-width="1"/>
      </g>
    </g>
  </g>
</svg>
