<svg xmlns="http://www.w3.org/2000/svg" width="85.279" height="65.564" viewBox="0 0 85.279 65.564">
  <g id="Auszeichnung_Finanzexperte" transform="translate(-1.5 -1.5)">
    <g id="Layer_2" transform="translate(28.45 1.5)">
      <g id="Ebene_1_1_">
        <path id="Path_70" data-name="Path 70" d="M66.542,31.742,60.827,42.209h-3.4l-5.137-9.825s-5.394,1.991-7.128,5.073c-1.349,2.376-1.8,7.963-1.67,9.376.193,1.734,4.367,4.431,15.861,4.367,11.623,0,15.091-2.633,15.348-4.367.257-1.477.321-6.422-1.991-9.44A48.065,48.065,0,0,0,66.478,31.1" transform="translate(-43.467 -12.092)" fill="#005091"/>
        <path id="Path_71" data-name="Path 71" d="M61.817,23.333A10.917,10.917,0,1,0,50.9,12.417,10.908,10.908,0,0,0,61.817,23.333Z" transform="translate(-46.127 -1.5)" fill="#005091"/>
      </g>
    </g>
    <path id="Path_72" data-name="Path 72" d="M13.9,85.4" transform="translate(-4.437 -30.023)" fill="none" stroke="#f28800" stroke-linecap="round" stroke-linejoin="round" stroke-width="2.5"/>
    <g id="Group_90" data-name="Group 90" transform="translate(1.5 25.902)">
      <g id="Group_89" data-name="Group 89">
        <g id="Group_86" data-name="Group 86">
          <path id="Path_73" data-name="Path 73" d="M10.3,39.5l2.761,5.458,6.1.9-4.431,4.3,1.027,6.1L10.3,53.371,4.839,56.26l1.092-6.1L1.5,45.857l6.1-.9Z" transform="translate(-1.5 -39.5)" fill="#f28800"/>
          <path id="Path_74" data-name="Path 74" d="M63,77.5l2.761,5.458,6.1.9-4.431,4.3,1.027,6.1L63,91.371,57.6,94.26l1.027-6.1-4.431-4.3,6.1-.9Z" transform="translate(-20.358 -53.098)" fill="#f28800"/>
          <path id="Path_75" data-name="Path 75" d="M115.6,39.5l2.761,5.458,6.1.9-4.431,4.3,1.027,6.1-5.458-2.89-5.458,2.89,1.027-6.1-4.367-4.3,6.1-.9Z" transform="translate(-39.181 -39.5)" fill="#f28800"/>
        </g>
        <g id="Group_87" data-name="Group 87" transform="translate(12.394 18.43)">
          <path id="Path_76" data-name="Path 76" d="M29.6,68.2l2.761,5.587,6.1.835-4.431,4.3,1.027,6.1L29.6,82.135l-5.458,2.89,1.092-6.1-4.431-4.3,6.1-.835Z" transform="translate(-20.8 -68.2)" fill="#f28800"/>
        </g>
        <g id="Group_88" data-name="Group 88" transform="translate(55.611 18.43)">
          <path id="Path_77" data-name="Path 77" d="M96.962,68.2l2.7,5.587,6.1.835-4.431,4.3,1.092,6.1-5.458-2.89L91.5,85.025l1.027-6.1-4.431-4.3,6.1-.835Z" transform="translate(-88.1 -68.2)" fill="#f28800"/>
        </g>
      </g>
    </g>
  </g>
</svg>
