<svg xmlns="http://www.w3.org/2000/svg" xmlns:xlink="http://www.w3.org/1999/xlink" width="36.878" height="66.564" viewBox="0 0 36.878 66.564">
  <defs>
    <clipPath id="clip-path">
      <rect id="Rectangle_71" data-name="Rectangle 71" width="36.878" height="49.421" fill="#1e90ff"/>
    </clipPath>
    <clipPath id="clip-path-2">
      <rect id="Rectangle_72" data-name="Rectangle 72" width="36.878" height="45.583" fill="#1e90ff"/>
    </clipPath>
  </defs>
  <g id="Auszeichnung_Kundenzufriendenheit-service" transform="translate(0 -0.7)">
    <g id="Group_84" data-name="Group 84" transform="translate(0 17.844)">
      <g id="Group_81" data-name="Group 81">
        <g id="Group_80" data-name="Group 80" clip-path="url(#clip-path)">
          <path id="Path_67" data-name="Path 67" d="M11.952,98.5s-5.9,3.442-7.835,6.924c-1.5,2.691-2.018,8.942-1.86,10.525.2,1.9,4.906,4.946,17.727,4.946,13.018,0,16.9-2.928,17.212-4.946.277-1.662.356-7.162-2.255-10.565A48.622,48.622,0,0,0,27.9,98.3" transform="translate(-1.348 -71.473)" fill="#1e90ff"/>
        </g>
      </g>
      <g id="Group_83" data-name="Group 83">
        <g id="Group_82" data-name="Group 82" clip-path="url(#clip-path-2)">
          <path id="Path_68" data-name="Path 68" d="M27.706,69.272A12.286,12.286,0,1,0,15.4,56.966,12.319,12.319,0,0,0,27.706,69.272Z" transform="translate(-9.306 -43.83)" fill="#1e90ff"/>
        </g>
      </g>
    </g>
    <g id="Group_85" data-name="Group 85" transform="translate(4.155 1.7)">
      <path id="Path_69" data-name="Path 69" d="M26.293,5.1l3.917,7.874,9.576-2.809L36.739,20.69l-2.651.119H18.5l-2.651-.119L12.8,10.165l9.536,2.809Z" transform="translate(-11.89 -3.755)" fill="#ffbf00" stroke="#f5f8f9" stroke-linecap="round" stroke-linejoin="round" stroke-width="2"/>
      <circle id="Ellipse_3" data-name="Ellipse 3" cx="1.504" cy="1.504" r="1.504" transform="translate(0 5.025)" fill="#ffbf00" stroke="#f5f8f9" stroke-linecap="round" stroke-linejoin="round" stroke-width="2"/>
      <circle id="Ellipse_4" data-name="Ellipse 4" cx="1.504" cy="1.504" r="1.504" transform="translate(26.194 5.025)" fill="#ffbf00" stroke="#f5f8f9" stroke-linecap="round" stroke-linejoin="round" stroke-width="2"/>
      <rect id="Rectangle_73" data-name="Rectangle 73" width="21.367" height="3.68" transform="translate(3.759 16.816)" fill="#ffbf00" stroke="#f5f8f9" stroke-linecap="round" stroke-linejoin="round" stroke-width="2"/>
      <circle id="Ellipse_5" data-name="Ellipse 5" cx="2.058" cy="2.058" r="2.058" transform="translate(12.345 0)" fill="#ffbf00" stroke="#f5f8f9" stroke-linecap="round" stroke-linejoin="round" stroke-width="2"/>
    </g>
  </g>
</svg>
