<?xml version="1.0" encoding="utf-8"?>
<!-- Generator: Adobe Illustrator 24.2.2, SVG Export Plug-In . SVG Version: 6.00 Build 0)  -->
<svg version="1.1" baseProfile="basic" id="Layer_1"
	 xmlns="http://www.w3.org/2000/svg" xmlns:xlink="http://www.w3.org/1999/xlink" x="0px" y="0px" viewBox="0 0 351.6 156.4"
	 xml:space="preserve">
<style type="text/css">
	.st0{clip-path:url(#SVGID_2_);fill:#AA9C6C;}
	.st1{clip-path:url(#SVGID_2_);}
	.st2{clip-path:url(#SVGID_2_);fill:#FFFFFF;}
</style>
<g>
	<defs>
		<rect id="SVGID_1_" width="351.6" height="156.4"/>
	</defs>
	<clipPath id="SVGID_2_">
		<use xlink:href="#SVGID_1_"  style="overflow:visible;"/>
	</clipPath>
	<path class="st0" d="M15.8,149.4c0,2.1-0.7,3.8-2.1,4.9c-1.4,1.2-3.3,1.7-5.8,1.7l-2.6,0H0v-22.8h3.8h2.4c2.4,0,4.3,0.5,5.7,1.5
		c1.4,1,2.1,2.4,2.1,4.3c0,1-0.2,1.9-0.6,2.6c-0.4,0.8-1,1.3-1.8,1.8c0.6,0.2,1.1,0.4,1.4,0.6c0.3,0.2,0.7,0.5,1.1,0.9
		C15.2,146,15.8,147.5,15.8,149.4 M10.4,139.2c0-1.1-0.4-1.9-1.1-2.4c-0.8-0.5-2-0.7-3.7-0.7H3.4v6.2h1.7H7c1.1,0,1.9-0.3,2.5-0.8
		C10.1,140.9,10.4,140.2,10.4,139.2 M12.2,149.3c0-0.6-0.1-1.1-0.3-1.6c-0.2-0.5-0.5-0.9-0.9-1.3c-0.3-0.3-0.6-0.5-0.9-0.6
		c-0.3-0.1-0.6-0.2-1-0.3c-0.3-0.1-0.7-0.1-1-0.1H5.5H3.4v7.5h2.3h2.1c0.6,0,1.2-0.1,1.7-0.2c0.5-0.1,0.9-0.3,1.3-0.5
		C11.8,151.6,12.2,150.7,12.2,149.3"/>
	<path class="st0" d="M28.2,155.9v-1.2c-0.2,0.1-0.3,0.2-0.4,0.3c-0.1,0.1-0.2,0.1-0.3,0.2c-0.6,0.3-1.2,0.6-1.9,0.8
		c-0.7,0.2-1.4,0.3-2.1,0.3c-0.8,0-1.4-0.1-2.1-0.3c-0.6-0.2-1.2-0.5-1.6-1c-0.5-0.4-0.8-0.9-1.1-1.5c-0.3-0.6-0.4-1.2-0.4-1.9
		c0-0.8,0.2-1.5,0.6-2.3s0.9-1.4,1.6-1.9c0.8-0.6,1.8-1.1,2.9-1.4c1.1-0.3,2.5-0.5,4.2-0.6l0.8,0v-0.1c0-1.2-0.3-2-0.8-2.6
		c-0.5-0.5-1.4-0.8-2.7-0.8c-0.4,0-0.8,0-1.2,0.1c-0.4,0.1-0.8,0.2-1.2,0.3c-0.4,0.1-0.8,0.3-1.3,0.5c-0.4,0.2-0.9,0.5-1.5,0.8
		l-0.4,0.2l1-3.8c0.6-0.3,1.1-0.4,1.4-0.5c0.5-0.2,1.1-0.3,1.7-0.4c0.6-0.1,1.3-0.1,1.9-0.1c1.8,0,3.1,0.4,4.1,1.1
		c0.3,0.2,0.7,0.6,1,1c0.3,0.4,0.5,0.7,0.6,1c0.1,0.3,0.3,0.6,0.4,1c0.1,0.4,0.1,0.9,0.2,1.5c0,0.6,0,1.3,0,2.2v9.2H28.2z
		 M28.2,147.8c-0.5,0.1-0.8,0.1-1.1,0.2c-0.3,0-0.6,0.1-0.8,0.1c-0.2,0-0.5,0.1-0.7,0.1c-0.2,0-0.5,0.1-0.7,0.2
		c-2.2,0.6-3.3,1.6-3.3,3.1c0,0.6,0.2,1.2,0.7,1.5c0.4,0.4,1,0.6,1.8,0.6c1.1,0,2.5-0.4,4.2-1.3V147.8z"/>
	<path class="st0" d="M40.6,156c-0.2,0-0.4,0-0.7,0c-0.7,0-1.3,0-1.7-0.1c-0.4-0.1-0.8-0.2-1.2-0.5c-0.3-0.2-0.6-0.5-0.8-0.9
		c-0.2-0.4-0.4-0.9-0.5-1.4c0-0.2,0-0.4-0.1-0.5c0-0.2,0-0.4-0.1-0.6c0-0.2,0-0.5,0-0.7c0-0.3,0-0.6,0-1v-17.5h3.3v17.4v1.1
		c0,0.7,0.1,1.2,0.3,1.4c0.2,0.3,0.6,0.4,1.2,0.4c0.2,0,0.4,0,0.5,0c0.1,0,0.3-0.1,0.6-0.2v3C41.1,156,40.8,156,40.6,156"/>
	<path class="st0" d="M53.9,155.6c-0.1,0.1-0.2,0.1-0.3,0.1c-0.4,0.2-0.9,0.3-1.4,0.4c-0.5,0.1-1.1,0.1-1.6,0.1
		c-0.9,0-1.7-0.1-2.5-0.4c-0.9-0.3-1.5-0.8-2-1.5c-0.2-0.3-0.4-0.5-0.5-0.8c-0.1-0.3-0.2-0.6-0.3-0.9c-0.1-0.3-0.1-0.7-0.2-1.1
		c0-0.4,0-1,0-1.5v-7.7h-2.6v-3h2.6v-3.8h3.3v3.8h6v3h-6v7.1c0,0.5,0,0.8,0,1.1c0,0.3,0,0.5,0,0.7c0,0.2,0,0.3,0.1,0.5
		c0,0.1,0.1,0.3,0.2,0.4c0.2,0.4,0.5,0.6,0.9,0.8c0.4,0.2,0.9,0.3,1.5,0.3c0.5,0,1-0.1,1.4-0.2c0.5-0.2,1-0.4,1.8-0.9v3.2
		C54.1,155.5,54,155.6,53.9,155.6"/>
	<path class="st0" d="M61.3,135.2l-2.3,2.4l-2.4-2.4l2.4-2.3L61.3,135.2z M60.7,155.9h-3.2v-16.6h3.2V155.9z"/>
	<path class="st0" d="M77.4,155.3c-0.1,0.1-0.2,0.1-0.3,0.2c-0.6,0.3-1.3,0.5-2.1,0.7c-0.8,0.2-1.6,0.3-2.3,0.3
		c-1.2,0-2.4-0.2-3.4-0.7c-1.1-0.5-2-1.1-2.8-1.8c-0.8-0.8-1.4-1.7-1.9-2.7c-0.5-1-0.7-2.2-0.7-3.4c0-1.2,0.2-2.4,0.7-3.5
		c0.4-1.1,1.1-2,1.9-2.8c0.8-0.8,1.7-1.4,2.8-1.8c1.1-0.4,2.2-0.7,3.5-0.7c1.7,0,3.4,0.4,5.1,1.3v3.6c-0.2-0.1-0.3-0.2-0.4-0.3
		c-0.1-0.1-0.2-0.2-0.3-0.2c-0.6-0.4-1.2-0.7-2-0.9c-0.7-0.2-1.4-0.3-2.2-0.3c-0.9,0-1.6,0.1-2.3,0.4c-0.7,0.3-1.3,0.6-1.8,1.1
		c-0.5,0.5-0.9,1.1-1.2,1.7c-0.3,0.7-0.4,1.4-0.4,2.2c0,0.8,0.1,1.6,0.4,2.3s0.7,1.3,1.2,1.8c0.5,0.5,1.1,0.9,1.8,1.1
		c0.7,0.3,1.5,0.4,2.4,0.4c0.4,0,0.7,0,1.1-0.1s0.7-0.1,1-0.2c0.4-0.1,0.8-0.3,1.2-0.4c0.4-0.2,0.9-0.5,1.6-0.8v3.4
		C77.7,155.2,77.5,155.2,77.4,155.3"/>
	<rect x="89.5" y="133.1" class="st0" width="3.5" height="22.8"/>
	<path class="st0" d="M108.2,155.9v-9.1c0-0.5,0-0.9-0.1-1.4c-0.1-0.5-0.2-0.9-0.3-1.2c-0.2-0.6-0.7-1.1-1.4-1.5
		c-0.7-0.4-1.5-0.6-2.4-0.6c-0.7,0-1.4,0.1-2,0.3c-0.7,0.2-1.2,0.5-1.6,0.9v12.6h-3.2v-16.6h3.2v0.9c0.7-0.5,1.4-0.8,2.1-1
		c0.7-0.2,1.4-0.3,2.2-0.3c2.2,0,3.9,0.7,5.1,2.1c1.2,1.4,1.8,3.3,1.8,5.9v9H108.2z"/>
	<path class="st0" d="M124.8,155.6c-0.1,0.1-0.2,0.1-0.3,0.1c-0.4,0.2-0.9,0.3-1.4,0.4c-0.5,0.1-1.1,0.1-1.6,0.1
		c-0.9,0-1.7-0.1-2.5-0.4c-0.9-0.3-1.5-0.8-2-1.5c-0.2-0.3-0.4-0.5-0.5-0.8c-0.1-0.3-0.2-0.6-0.3-0.9c-0.1-0.3-0.1-0.7-0.2-1.1
		c0-0.4-0.1-1-0.1-1.5v-7.7h-2.6v-3h2.6v-3.8h3.3v3.8h6v3h-6v7.1c0,0.5,0,0.8,0,1.1c0,0.3,0,0.5,0,0.7c0,0.2,0,0.3,0.1,0.5
		c0,0.1,0.1,0.3,0.2,0.4c0.2,0.4,0.5,0.6,0.9,0.8c0.4,0.2,0.9,0.3,1.5,0.3c0.5,0,1-0.1,1.4-0.2c0.5-0.2,1-0.4,1.8-0.9v3.2
		C125.1,155.5,125,155.6,124.8,155.6"/>
	<path class="st0" d="M130.7,148.4c0,0.6,0,1.1,0.1,1.4c0.1,0.3,0.3,0.7,0.5,1.1c0.4,0.7,1.1,1.3,1.9,1.8c0.8,0.4,1.6,0.7,2.5,0.7
		c0.8,0,1.7-0.1,2.7-0.4c0.4-0.1,0.7-0.2,1-0.3c0.3-0.1,0.6-0.2,0.9-0.3c0.3-0.1,0.6-0.3,0.9-0.4c0.3-0.2,0.7-0.4,1.1-0.6v3.4
		c-0.3,0.1-0.5,0.2-0.8,0.3c-0.2,0.1-0.4,0.2-0.5,0.2c-1,0.4-1.8,0.7-2.7,0.9c-0.8,0.2-1.6,0.3-2.4,0.3c-1.2,0-2.4-0.2-3.4-0.7
		c-1.1-0.4-2-1-2.7-1.8c-0.8-0.8-1.4-1.7-1.8-2.8c-0.4-1.1-0.6-2.2-0.6-3.5c0-1.3,0.2-2.4,0.6-3.5c0.4-1,0.9-2,1.6-2.7
		c0.7-0.8,1.5-1.4,2.4-1.8s2-0.6,3.1-0.6c1.1,0,2.1,0.2,3.1,0.7c1,0.4,1.8,1.1,2.5,1.9c0.7,0.8,1.1,1.7,1.4,2.6
		c0.3,1,0.4,2.2,0.4,3.6v0.7H130.7z M139.4,145.8c-0.1-1.2-0.6-2.2-1.3-2.9c-0.8-0.7-1.7-1-3-1c-1.2,0-2.1,0.3-2.9,1
		c-0.7,0.7-1.2,1.7-1.4,2.9H139.4z"/>
	<path class="st0" d="M153.6,142.1c-0.3-0.1-0.6-0.1-0.9-0.1c-0.7,0-1.4,0.1-2,0.3c-0.6,0.2-1.2,0.6-1.9,1v12.6h-3.2v-16.6h3.2v1
		c0.6-0.5,1.3-0.8,1.9-1.1c0.7-0.2,1.4-0.3,2.3-0.3c0.3,0,0.5,0,0.8,0c0.2,0,0.5,0.1,0.9,0.2v3.2
		C154.2,142.2,153.8,142.1,153.6,142.1"/>
	<path class="st0" d="M168.4,155.9v-9.1c0-0.5,0-0.9-0.1-1.4c-0.1-0.5-0.2-0.9-0.3-1.2c-0.2-0.6-0.7-1.1-1.4-1.5
		c-0.7-0.4-1.5-0.6-2.4-0.6c-0.7,0-1.4,0.1-2,0.3c-0.7,0.2-1.2,0.5-1.6,0.9v12.6h-3.2v-16.6h3.2v0.9c0.7-0.5,1.4-0.8,2.1-1
		c0.7-0.2,1.4-0.3,2.2-0.3c2.2,0,3.9,0.7,5.1,2.1c1.2,1.4,1.8,3.3,1.8,5.9v9H168.4z"/>
	<path class="st0" d="M184.5,155.9v-1.2c-0.2,0.1-0.3,0.2-0.4,0.3c-0.1,0.1-0.2,0.1-0.3,0.2c-0.6,0.3-1.2,0.6-1.9,0.8
		c-0.7,0.2-1.4,0.3-2.1,0.3c-0.8,0-1.4-0.1-2.1-0.3c-0.6-0.2-1.2-0.5-1.6-1c-0.5-0.4-0.8-0.9-1.1-1.5c-0.3-0.6-0.4-1.2-0.4-1.9
		c0-0.8,0.2-1.5,0.6-2.3c0.4-0.8,0.9-1.4,1.6-1.9c0.8-0.6,1.8-1.1,2.9-1.4c1.1-0.3,2.5-0.5,4.2-0.6l0.8,0v-0.1c0-1.2-0.3-2-0.8-2.6
		c-0.6-0.5-1.4-0.8-2.7-0.8c-0.4,0-0.8,0-1.2,0.1c-0.4,0.1-0.8,0.2-1.2,0.3c-0.4,0.1-0.8,0.3-1.3,0.5c-0.4,0.2-0.9,0.5-1.5,0.8
		l-0.4,0.2l1-3.8c0.6-0.3,1.1-0.4,1.4-0.5c0.5-0.2,1.1-0.3,1.7-0.4c0.6-0.1,1.3-0.1,1.9-0.1c1.8,0,3.1,0.4,4.1,1.1
		c0.3,0.2,0.7,0.6,1,1c0.3,0.4,0.5,0.7,0.6,1c0.1,0.3,0.3,0.6,0.4,1c0.1,0.4,0.1,0.9,0.2,1.5c0,0.6,0,1.3,0,2.2v9.2H184.5z
		 M184.5,147.8c-0.5,0.1-0.8,0.1-1.1,0.2c-0.3,0-0.6,0.1-0.8,0.1c-0.2,0-0.5,0.1-0.7,0.1c-0.2,0-0.4,0.1-0.7,0.2
		c-2.2,0.6-3.3,1.6-3.3,3.1c0,0.6,0.2,1.2,0.7,1.5c0.4,0.4,1,0.6,1.8,0.6c1.1,0,2.5-0.4,4.2-1.3V147.8z"/>
	<path class="st0" d="M201.4,155.6c-0.1,0.1-0.2,0.1-0.3,0.1c-0.4,0.2-0.9,0.3-1.4,0.4c-0.5,0.1-1.1,0.1-1.6,0.1
		c-0.9,0-1.7-0.1-2.5-0.4c-0.9-0.3-1.5-0.8-2-1.5c-0.2-0.3-0.4-0.5-0.5-0.8c-0.1-0.3-0.2-0.6-0.3-0.9c-0.1-0.3-0.1-0.7-0.2-1.1
		c0-0.4-0.1-1-0.1-1.5v-7.7h-2.6v-3h2.6v-3.8h3.3v3.8h6v3h-6v7.1c0,0.5,0,0.8,0,1.1c0,0.3,0,0.5,0,0.7c0,0.2,0,0.3,0.1,0.5
		c0,0.1,0.1,0.3,0.2,0.4c0.2,0.4,0.5,0.6,0.9,0.8c0.4,0.2,0.9,0.3,1.5,0.3c0.5,0,1-0.1,1.4-0.2c0.5-0.2,1-0.4,1.8-0.9v3.2
		C201.6,155.5,201.5,155.6,201.4,155.6"/>
	<path class="st0" d="M209.5,135.2l-2.3,2.4l-2.4-2.4l2.4-2.3L209.5,135.2z M208.8,155.9h-3.2v-16.6h3.2V155.9z"/>
	<path class="st0" d="M229.3,147.6c0,1.2-0.2,2.4-0.7,3.5c-0.4,1.1-1.1,2-1.9,2.8c-0.8,0.8-1.7,1.4-2.8,1.8
		c-1.1,0.4-2.2,0.7-3.4,0.7c-1.2,0-2.4-0.2-3.4-0.7c-1.1-0.5-2-1.1-2.8-1.9c-0.8-0.8-1.4-1.7-1.9-2.8c-0.5-1.1-0.7-2.2-0.7-3.4
		c0-1.2,0.2-2.3,0.7-3.4c0.4-1,1.1-1.9,1.8-2.7c0.8-0.8,1.7-1.4,2.8-1.8c1.1-0.4,2.2-0.6,3.4-0.6s2.4,0.2,3.4,0.7
		c1.1,0.5,2,1.1,2.8,1.9c0.8,0.8,1.4,1.7,1.9,2.7C229.1,145.3,229.3,146.4,229.3,147.6 M226.2,147.8c0-0.8-0.1-1.6-0.4-2.3
		c-0.3-0.7-0.7-1.3-1.2-1.8c-0.5-0.5-1.1-0.9-1.8-1.2c-0.7-0.3-1.4-0.4-2.2-0.4c-0.8,0-1.5,0.1-2.2,0.4c-0.7,0.3-1.2,0.7-1.7,1.2
		c-0.5,0.5-0.9,1.1-1.1,1.8c-0.3,0.7-0.4,1.4-0.4,2.3c0,0.8,0.1,1.6,0.4,2.3c0.3,0.7,0.7,1.3,1.2,1.8c0.5,0.5,1.1,0.9,1.8,1.2
		c0.7,0.3,1.5,0.4,2.3,0.4c0.8,0,1.5-0.1,2.2-0.4c0.7-0.3,1.2-0.7,1.7-1.2c0.5-0.5,0.9-1.1,1.2-1.8
		C226,149.3,226.2,148.6,226.2,147.8"/>
	<path class="st0" d="M243.1,155.9v-9.1c0-0.5,0-0.9-0.1-1.4c-0.1-0.5-0.2-0.9-0.3-1.2c-0.2-0.6-0.7-1.1-1.4-1.5
		c-0.7-0.4-1.5-0.6-2.4-0.6c-0.7,0-1.4,0.1-2,0.3c-0.7,0.2-1.2,0.5-1.6,0.9v12.6h-3.2v-16.6h3.2v0.9c0.7-0.5,1.4-0.8,2.1-1
		c0.7-0.2,1.4-0.3,2.2-0.3c2.2,0,3.9,0.7,5.1,2.1c1.2,1.4,1.8,3.3,1.8,5.9v9H243.1z"/>
	<path class="st0" d="M259.2,155.9v-1.2c-0.2,0.1-0.3,0.2-0.4,0.3c-0.1,0.1-0.2,0.1-0.3,0.2c-0.6,0.3-1.2,0.6-1.9,0.8
		c-0.7,0.2-1.4,0.3-2.1,0.3c-0.8,0-1.4-0.1-2.1-0.3c-0.6-0.2-1.2-0.5-1.6-1c-0.5-0.4-0.8-0.9-1.1-1.5c-0.2-0.6-0.4-1.2-0.4-1.9
		c0-0.8,0.2-1.5,0.6-2.3c0.4-0.8,0.9-1.4,1.6-1.9c0.8-0.6,1.8-1.1,2.9-1.4c1.1-0.3,2.5-0.5,4.2-0.6l0.8,0v-0.1c0-1.2-0.3-2-0.8-2.6
		c-0.5-0.5-1.4-0.8-2.7-0.8c-0.4,0-0.8,0-1.2,0.1c-0.4,0.1-0.8,0.2-1.2,0.3c-0.4,0.1-0.8,0.3-1.3,0.5c-0.4,0.2-0.9,0.5-1.5,0.8
		l-0.4,0.2l1-3.8c0.6-0.3,1.1-0.4,1.4-0.5c0.5-0.2,1.1-0.3,1.7-0.4c0.6-0.1,1.3-0.1,1.9-0.1c1.8,0,3.1,0.4,4.1,1.1
		c0.3,0.2,0.7,0.6,1,1c0.3,0.4,0.5,0.7,0.6,1c0.1,0.3,0.3,0.6,0.4,1c0.1,0.4,0.1,0.9,0.2,1.5c0,0.6,0,1.3,0,2.2v9.2H259.2z
		 M259.2,147.8c-0.5,0.1-0.8,0.1-1.1,0.2c-0.3,0-0.6,0.1-0.8,0.1c-0.2,0-0.5,0.1-0.7,0.1c-0.2,0-0.5,0.1-0.7,0.2
		c-2.2,0.6-3.3,1.6-3.3,3.1c0,0.6,0.2,1.2,0.7,1.5c0.4,0.4,1,0.6,1.8,0.6c1.1,0,2.5-0.4,4.2-1.3V147.8z"/>
	<path class="st0" d="M271.6,156c-0.2,0-0.4,0-0.7,0c-0.7,0-1.3,0-1.7-0.1c-0.4-0.1-0.8-0.2-1.2-0.5c-0.3-0.2-0.6-0.5-0.8-0.9
		c-0.2-0.4-0.4-0.9-0.5-1.4c0-0.2,0-0.4-0.1-0.5c0-0.2,0-0.4-0.1-0.6c0-0.2,0-0.5,0-0.7c0-0.3,0-0.6,0-1v-17.5h3.3v17.4v1.1
		c0,0.7,0.1,1.2,0.3,1.4c0.2,0.3,0.6,0.4,1.2,0.4c0.2,0,0.4,0,0.5,0c0.1,0,0.3-0.1,0.6-0.2v3C272.1,156,271.8,156,271.6,156"/>
	<path class="st0" d="M298.9,149.4c0,2.1-0.7,3.8-2.1,4.9c-1.4,1.2-3.3,1.7-5.8,1.7l-2.6,0h-5.3v-22.8h3.8h2.4
		c2.4,0,4.3,0.5,5.7,1.5c1.4,1,2.1,2.4,2.1,4.3c0,1-0.2,1.9-0.6,2.6c-0.4,0.8-1,1.3-1.8,1.8c0.6,0.2,1.1,0.4,1.4,0.6
		c0.3,0.2,0.7,0.5,1.1,0.9C298.3,146,298.9,147.5,298.9,149.4 M293.5,139.2c0-1.1-0.4-1.9-1.1-2.4c-0.8-0.5-2-0.7-3.8-0.7h-2.1v6.2
		h1.7h1.8c1.1,0,1.9-0.3,2.5-0.8C293.2,140.9,293.5,140.2,293.5,139.2 M295.4,149.3c0-0.6-0.1-1.1-0.3-1.6c-0.2-0.5-0.5-0.9-0.9-1.3
		c-0.3-0.3-0.6-0.5-0.9-0.6c-0.3-0.1-0.6-0.2-1-0.3c-0.3-0.1-0.7-0.1-1-0.1h-2.6h-2.1v7.5h2.3h2.1c0.6,0,1.2-0.1,1.7-0.2
		c0.5-0.1,0.9-0.3,1.3-0.5C294.9,151.6,295.4,150.7,295.4,149.3"/>
	<path class="st0" d="M311.4,155.9v-1.2c-0.2,0.1-0.3,0.2-0.4,0.3c-0.1,0.1-0.2,0.1-0.3,0.2c-0.6,0.3-1.2,0.6-1.9,0.8
		c-0.7,0.2-1.4,0.3-2.1,0.3c-0.8,0-1.4-0.1-2.1-0.3c-0.6-0.2-1.2-0.5-1.6-1c-0.5-0.4-0.8-0.9-1.1-1.5c-0.2-0.6-0.4-1.2-0.4-1.9
		c0-0.8,0.2-1.5,0.6-2.3c0.4-0.8,0.9-1.4,1.6-1.9c0.8-0.6,1.8-1.1,2.9-1.4c1.1-0.3,2.5-0.5,4.2-0.6l0.8,0v-0.1c0-1.2-0.3-2-0.8-2.6
		c-0.5-0.5-1.4-0.8-2.7-0.8c-0.4,0-0.8,0-1.2,0.1c-0.4,0.1-0.8,0.2-1.2,0.3c-0.4,0.1-0.8,0.3-1.3,0.5c-0.4,0.2-0.9,0.5-1.5,0.8
		l-0.4,0.2l1-3.8c0.6-0.3,1.1-0.4,1.4-0.5c0.5-0.2,1.1-0.3,1.7-0.4c0.6-0.1,1.3-0.1,1.9-0.1c1.8,0,3.1,0.4,4.1,1.1
		c0.3,0.2,0.7,0.6,1,1c0.3,0.4,0.5,0.7,0.6,1c0.1,0.3,0.3,0.6,0.4,1c0.1,0.4,0.1,0.9,0.2,1.5c0,0.6,0,1.3,0,2.2v9.2H311.4z
		 M311.4,147.8c-0.5,0.1-0.8,0.1-1.1,0.2c-0.3,0-0.6,0.1-0.8,0.1c-0.2,0-0.5,0.1-0.7,0.1c-0.2,0-0.5,0.1-0.7,0.2
		c-2.2,0.6-3.3,1.6-3.3,3.1c0,0.6,0.2,1.2,0.7,1.5c0.4,0.4,1,0.6,1.8,0.6c1.1,0,2.5-0.4,4.2-1.3V147.8z"/>
	<path class="st0" d="M330,155.9v-9.1c0-0.5,0-0.9-0.1-1.4c-0.1-0.5-0.2-0.9-0.3-1.2c-0.2-0.6-0.7-1.1-1.4-1.5
		c-0.7-0.4-1.5-0.6-2.4-0.6c-0.7,0-1.4,0.1-2,0.3c-0.7,0.2-1.2,0.5-1.6,0.9v12.6H319v-16.6h3.2v0.9c0.7-0.5,1.4-0.8,2.1-1
		c0.7-0.2,1.4-0.3,2.2-0.3c2.2,0,3.9,0.7,5.1,2.1c1.2,1.4,1.8,3.3,1.8,5.9v9H330z"/>
	<polygon class="st0" points="347.7,155.9 340.6,147.9 340.6,155.9 337.4,155.9 337.4,133.1 340.6,133.1 340.6,145 347,139.4 
		351.6,139.4 343.3,146.5 351.6,155.9 	"/>
	<path class="st1" d="M175.8,5.4C175.8,5.4,175.8,5.3,175.8,5.4"/>
	<path class="st0" d="M234,58.2c0,32.2-26.1,58.2-58.2,58.2c-32.2,0-58.2-26.1-58.2-58.2c0-32.2,26.1-58.2,58.2-58.2
		C207.9,0,234,26.1,234,58.2"/>
	<path class="st2" d="M175.8,11.2c-26,0-47,21.1-47,47c0,26,21.1,47,47,47c26,0,47-21.1,47-47C222.8,32.3,201.8,11.2,175.8,11.2
		 M175.8,103.6L175.8,103.6c-25.1,0-45.4-20.3-45.4-45.4c0-25.1,20.3-45.4,45.4-45.4c25.1,0,45.4,20.3,45.4,45.4
		C221.2,83.3,200.9,103.6,175.8,103.6"/>
	<path class="st2" d="M187.6,46.6c4.8-2.2,8-6,8-10.5c0-7-6.4-12.4-15.8-12.4H160c2.7,0,4.5,2.3,4.5,5.1c0,0,0,0,0,0l0,34.3
		c0,0,0,0,0,0c0,2.7-1.7,5-4.5,5.1h12.4V48.3h5.5c4.6,0,7.5,0.9,7.5,0.9c4.4,1.2,7.5,3.6,9.5,6.9l0,0c0.1,0.1,1.1,2.2,1.1,2.2
		c0.9,2.3,1.4,5.1,1.4,8.1l0,0c0,0.1,0,0.1,0,0.2c0,0.9-0.1,1.5-0.2,2.6c-0.8,7.2-4.9,13.9-11.7,17.7c-0.4,0.3-0.9,0.5-1.3,0.7
		c-0.4,0.2-0.9,0.4-1.5,0.6c-2.1,0.8-4.4,1.4-6.8,1.7c-5.8,0.7-11.4-0.5-16.2-3.1c0,0-0.8-0.5-0.9-0.5c-0.1,0-1.4-0.8-1.9-1.2
		c-8.8-5.8-14.8-16-14.9-26.6v-0.8c0.1-9.2,3.8-17.5,9.8-23.6c0,0,0,0,0-0.1c0-1.3,0.5-2.5,1.3-3.4c-7.8,6.5-12.8,16.3-12.8,27.3
		c0,19.7,15.9,35.6,35.6,35.6c19,0,31.2-12.8,31.2-27.8C207.1,52.2,194.8,46.8,187.6,46.6 M178,45.8h-5.5V26.3h7.2
		c5.3,0,7.8,3.5,7.8,9.8C187.5,41.6,182.6,45.8,178,45.8"/>
	<path class="st1" d="M175.8,47.2C175.8,47.3,175.8,47.2,175.8,47.2"/>
</g>
</svg>
