<?xml version="1.0" encoding="utf-8"?>
<!-- Generator: Adobe Illustrator 22.0.0, SVG Export Plug-In . SVG Version: 6.00 Build 0)  -->
<svg version="1.1" id="Livello_1" xmlns="http://www.w3.org/2000/svg" xmlns:xlink="http://www.w3.org/1999/xlink" x="0px" y="0px"
	 viewBox="0 0 749.9 61.3" style="enable-background:new 0 0 749.9 61.3;" xml:space="preserve">
<style type="text/css">
	.st0{fill:#D4D4D4;}
</style>
<g>
	<g>
		<path d="M4,4.3h20.7c15.8,0,24.9,4.6,24.9,13.8c0,4.7-3.3,8.5-9.5,11.1c8.1,3.6,11.3,6.5,11.3,13.2c0,10.6-10.2,15.4-25.8,15.4H4
			V4.3z M18.8,25.4h5.1c6.6,0,11-2.7,11-6.3c0-3.9-3.3-6.4-10.2-6.4h-5.9V25.4z M18.8,49.3H25c7.7,0,11.7-3.1,11.7-7.8
			c0-5.1-5.1-7.6-12.8-7.6h-5.1V49.3z"/>
		<path d="M58.5,57.7l19-53.3h18.8l18.5,53.3h-14l-3.7-11.2H76.8l-4.2,11.2H58.5z M79.4,37.5H94l-7.1-21.6h-0.2L79.4,37.5z"/>
		<path d="M123.8,57.7V3.8H140l20.5,32h0.2v-32h13.5v53.9H160l-22.6-34.8h-0.2v34.8H123.8z"/>
		<path d="M201.5,41.1c0,5.9,3.8,7.6,9.8,7.6c6,0,9.8-1.6,9.8-7.6v-3.6h15v2.2c0,13.2-10.2,17.9-24.8,17.9
			c-14.6,0-24.8-4.7-24.8-17.9V20.6c0-13.2,10.2-17.9,24.8-17.9c14.6,0,24.8,4.7,24.8,17.9v0.1h-15v-1.5c0-5.9-3.8-7.6-9.8-7.6
			c-6,0-9.8,1.6-9.8,7.6V41.1z"/>
		<path d="M242.7,57.7l19.1-53.3h18.9l18.6,53.3h-14.1l-3.7-11.2H261l-4.2,11.2H242.7z M263.7,37.5h14.6l-7.2-21.6h-0.2L263.7,37.5z
			"/>
		<path d="M4,4.3h20.7c15.8,0,24.9,4.6,24.9,13.8c0,4.7-3.3,8.5-9.5,11.1c8.1,3.6,11.3,6.5,11.3,13.2c0,10.6-10.2,15.4-25.8,15.4H4
			V4.3z M18.8,25.4h5.1c6.6,0,11-2.7,11-6.3c0-3.9-3.3-6.4-10.2-6.4h-5.9V25.4z M18.8,49.3H25c7.7,0,11.7-3.1,11.7-7.8
			c0-5.1-5.1-7.6-12.8-7.6h-5.1V49.3z"/>
		<path d="M58.5,57.7l19-53.4h18.8l18.5,53.4h-14l-3.7-11.2H76.8l-4.2,11.2H58.5z M79.4,37.4H94l-7.1-21.6h-0.2L79.4,37.4z"/>
		<path d="M123.8,57.7V4.3H140L160.5,36h0.2V4.3h13.5v53.4H160l-22.6-34.5h-0.2v34.5H123.8z"/>
		<path d="M201.5,41.6c0,5.8,3.8,7.3,9.8,7.3c6,0,9.8-1.6,9.8-7.3v-3.5h15v2.2c0,12.8-10.2,17.4-24.8,17.4
			c-14.6,0-24.8-4.6-24.8-17.4V21.7c0-12.8,10.2-17.4,24.8-17.4c14.6,0,24.8,4.6,24.8,17.4v0.1h-15v-1.4c0-5.8-3.8-7.3-9.8-7.3
			c-6,0-9.8,1.6-9.8,7.3V41.6z"/>
		<path d="M242.7,57.7l19.1-53.4h18.9l18.6,53.4h-14.1l-3.7-11.2H261l-4.2,11.2H242.7z M263.7,37.4h14.6l-7.2-21.6h-0.2L263.7,37.4z
			"/>
	</g>
	<g>
		<path d="M404.7,18.3c-1.7-5-7-9.1-15.7-9.1c-7.9,0-12.5,2.9-12.6,8.1c-0.2,11.4,38,8.5,38,25.2c0,7.6-5.5,15.3-22.7,15.3
			c-14.8,0-20.6-7.3-24.1-13.5l6.8-1.9c2.7,5.5,7.8,10.5,17.7,10.5c9.9,0,14.9-4,14.9-9.4c0-13.2-38-9.4-38-25.8
			c0-7.5,8.1-13.4,20.3-13.4c10.5,0,18.7,4.2,22.3,12.8L404.7,18.3z"/>
		<path d="M437.9,4.3v53.4h-7.5V4.3H437.9z"/>
		<path d="M490.4,18.3c-1.7-5-7-9.1-15.7-9.1c-7.9,0-12.5,2.9-12.6,8.1c-0.2,11.4,38,8.5,38,25.2c0,7.6-5.5,15.3-22.7,15.3
			c-14.8,0-20.6-7.3-24.1-13.5l6.8-1.9c2.7,5.5,7.8,10.5,17.7,10.5c9.9,0,14.9-4,14.9-9.4c0-13.2-38-9.4-38-25.8
			c0-7.5,8.1-13.4,20.3-13.4c10.5,0,18.7,4.2,22.3,12.8L490.4,18.3z"/>
		<path d="M534.5,9.3v48.4h-7.5V9.3h-20.2v-5h47.9v5H534.5z"/>
		<path d="M605.6,4.3v5h-32.4v17.9h23.1v5h-23.1v20.4h34.3v5h-41.6V4.3H605.6z"/>
		<path d="M671.5,57.7V8.9h-0.3l-18.4,48.8h-5.7L628.5,8.9h-0.3v48.8h-6.6V4.3H633l16.8,43.2h0.2l16.5-43.2h11.5v53.4H671.5z"/>
		<path d="M689.9,57.7l20.3-53.4h10.9l20.3,53.4h-7.7L727.5,41h-23.7l-6.2,16.7H689.9z M705.6,36h20.1l-9.5-27.5h-1L705.6,36z"/>
	</g>
	<rect x="307.3" y="4.3" class="st0" width="53.4" height="53.4"/>
</g>
</svg>
