<svg id="Layer_1" data-name="Layer 1" xmlns="http://www.w3.org/2000/svg" viewBox="0 0 198.43 110.37"><defs><style>.cls-1{fill:#fff011;}.cls-1,.cls-2{fill-rule:evenodd;}.cls-2{fill:#0d3692;}</style></defs><polygon class="cls-1" points="0 0 198.43 0 198.43 110.37 0 110.37 0 0 0 0"/><path class="cls-2" d="M336.07,331.79v-5.11h1.81a2.59,2.59,0,0,1,2.8,2.55,2.41,2.41,0,0,1-2.54,2.55h-2.07Zm1,3.06h.64c2.45,0,3.22,1.09,3.22,2.86,0,2.8-2.32,2.83-3.35,2.83h-1.52v-5.66l1,0Zm28.54,8.77V332.69l4.56,10.93h4.91V327.23h-3.54v10.59l-4.43-10.59h-5v16.39Zm17.38.48c3.62,0,5.74-1.44,5.74-5.91h-4.12c-.05,1.32-.07,3.41-1.62,3.41-1.75,0-2-1.06-2-6.14,0-5.25.4-6.13,1.92-6.13,1.1,0,1.6.83,1.6,3.05h4.09c.15-3.59-1.84-5.55-5.79-5.55-5.87,0-6,3.73-6,8.63s-.15,8.64,6.22,8.64Zm-32.71-.48,1-3.64h4.42l1,3.64h4.37l-4.92-16.39h-5l-5,16.39Zm4.8-6.16h-3.17l1.51-6.7,1.66,6.7Zm41.25,4.14c-1.87,0-2.11-1.86-2.11-6.14s.24-6.13,2.11-6.13,2.11,1.85,2.11,6.13-.25,6.14-2.11,6.14Zm0,2.5c6.37,0,6.37-4.26,6.37-8.64s0-8.63-6.37-8.63S390,331,390,335.46s0,8.64,6.38,8.64Zm101.58-.48V327.23h-4.17v16.39Zm11.48,0v-2.48h-4.87V327.23h-4.16v16.39Zm-63,0c2,0,6.84-.22,6.84-5.3,0-2.74-.86-4.66-4.14-5.07a4.27,4.27,0,0,0,3.77-4.46c0-4.27-2.91-5.19-6.44-5.19H438.2v20Zm-3.14-11.8v-5.11h2.44a2.35,2.35,0,0,1,2.28,2.55c0,1.94-1.21,2.55-2.07,2.55h-2.65Zm1.27,3.06h1c2,0,2.63,1.09,2.63,2.86,0,2.8-1.89,2.83-2.73,2.83h-2.2v-5.65l1.27,0Zm-33.12-5.15h1.69c2.28,0,2.28,2.67,2.28,5.69,0,4.12-.39,5.7-2.39,5.7H411.4V329.73Zm-4.15,13.89h6.22c6.53,0,6.1-5.79,6.1-8.32,0-5.12-.93-8.12-5.95-8.12h-6.37v16.44Zm20.25-2c-1.87,0-2.11-1.85-2.11-6.11s.24-6.11,2.11-6.11,2.11,1.84,2.11,6.11-.24,6.11-2.11,6.11Zm0,2.49c6.38,0,6.38-4.24,6.38-8.6s0-8.6-6.38-8.6-6.38,4.2-6.38,8.6,0,8.6,6.38,8.6Zm47.6-6.63h-3.17l1.51-6.7,1.66,6.7Zm11.58,6.15c2.74,0,5.52-.37,5.52-4.61,0-4.9-7.1-4.41-7.1-7.52a1.64,1.64,0,0,1,1.86-1.75h3.8v-2.52h-5.34c-4.39,0-5.47,2-5.47,4.54,0,4.88,7.87,4.77,7.87,7.51a1.68,1.68,0,0,1-1.82,1.86h-5.63l-4.17-13.9h-5l-4.61,14.91-2.9-6.41c2.12-.4,3-1.74,3-4.21a3.9,3.9,0,0,0-4.24-4.29h-7.81v16.38h4.27V329.75h1.42a2.26,2.26,0,0,1,2.25,2.49c0,1.36-.68,2.48-1.78,2.41l-1.19,0,3.88,8.94h6.84l1-3.63h4.42l1,3.63Zm-147.46,0c2,0,6.84-.23,6.84-5.3,0-2.74-.86-4.66-4.14-5.07a4.27,4.27,0,0,0,3.77-4.47c0-4.27-2.91-5.18-6.44-5.18H331v20Z" transform="translate(-321 -243.28)"/><path class="cls-2" d="M438.07,261.67l6.15,4.21,6-4V253.6l-12.18,8.07ZM402.5,305.46l-6.12-4.18-6.2,4.19.06,8.1,12.26-8.11Zm23.28-35.74,6,4-28.54,19.31L420.88,305l8.28-5.61-6.43-4.26,14.85-10L450,293.39l-30,20-29.62-19.87,35.41-23.81Zm-11.24,27.39-6-4,28.54-19.31-17.63-11.9-8.29,5.61,6.44,4.26-14.85,9.95-12.43-8.24,29.91-20,29.7,20-35.38,23.72Z" transform="translate(-321 -243.28)"/></svg>