<?xml version="1.0" encoding="UTF-8"?>
<svg xmlns="http://www.w3.org/2000/svg" width="906" height="179" viewBox="0 0 906 179" fill="none">
  <path fill-rule="evenodd" clip-rule="evenodd" d="M18.4623 38.186C20.7558 38.186 22.5906 40.0208 22.5906 42.3143C22.5906 44.6077 20.7558 46.4425 18.4623 46.4425C16.1689 46.4425 14.3341 44.6077 14.3341 42.3143C14.3341 40.1355 16.1689 38.186 18.4623 38.186Z" fill="#0057B8"></path>
  <path fill-rule="evenodd" clip-rule="evenodd" d="M32.2231 24.9988C34.4019 24.9988 36.122 26.7189 36.122 28.8977C36.122 31.0765 34.4019 32.7965 32.2231 32.7965C30.0443 32.7965 28.3242 31.0765 28.3242 28.8977C28.3242 26.7189 30.0443 24.9988 32.2231 24.9988Z" fill="#0057B8"></path>
  <path fill-rule="evenodd" clip-rule="evenodd" d="M59.7447 0C60.7767 0 61.5795 0.802715 61.5795 1.83477C61.5795 2.86683 60.7767 3.66954 59.7447 3.66954C58.7126 3.66954 57.9099 2.86683 57.9099 1.83477C57.9099 0.917388 58.7126 0 59.7447 0Z" fill="#0057B8"></path>
  <path fill-rule="evenodd" clip-rule="evenodd" d="M45.984 12.3845C47.704 12.3845 48.9655 13.7606 48.9655 15.366C48.9655 16.9714 47.5894 18.3475 45.984 18.3475C44.2639 18.3475 43.0024 16.9714 43.0024 15.366C43.0024 13.7606 44.3785 12.3845 45.984 12.3845Z" fill="#0057B8"></path>
  <path fill-rule="evenodd" clip-rule="evenodd" d="M4.70165 52.1763C6.76577 52.1763 8.37119 53.7817 8.37119 55.8458C8.37119 57.9099 6.76577 59.5154 4.70165 59.5154C2.63753 59.5154 1.0321 57.9099 1.0321 55.8458C1.0321 53.8964 2.75221 52.1763 4.70165 52.1763Z" fill="#0057B8"></path>
  <path fill-rule="evenodd" clip-rule="evenodd" d="M99.6509 146.323C101.944 146.323 103.664 148.158 103.664 150.337C103.664 152.63 101.83 154.35 99.6509 154.35C97.3575 154.35 95.6374 152.515 95.6374 150.337C95.5227 148.043 97.3575 146.323 99.6509 146.323Z" fill="#0057B8"></path>
  <path fill-rule="evenodd" clip-rule="evenodd" d="M113.297 132.104C115.934 132.104 117.999 134.282 117.999 136.805C117.999 139.443 115.82 141.507 113.297 141.507C110.66 141.507 108.595 139.328 108.595 136.805C108.595 134.168 110.774 132.104 113.297 132.104Z" fill="#0057B8"></path>
  <path fill-rule="evenodd" clip-rule="evenodd" d="M127.058 119.26C129.351 119.26 131.186 121.095 131.186 123.388C131.186 125.682 129.351 127.517 127.058 127.517C124.764 127.517 122.93 125.682 122.93 123.388C122.93 121.095 124.764 119.26 127.058 119.26Z" fill="#0057B8"></path>
  <path fill-rule="evenodd" clip-rule="evenodd" d="M140.819 106.99C142.424 106.99 143.686 108.251 143.686 109.857C143.686 111.462 142.424 112.724 140.819 112.724C139.213 112.724 137.952 111.462 137.952 109.857C137.952 108.251 139.213 106.99 140.819 106.99Z" fill="#0057B8"></path>
  <path fill-rule="evenodd" clip-rule="evenodd" d="M72.1294 144.832C75.2256 144.832 77.7484 147.355 77.7484 150.451C77.7484 153.547 75.2256 156.07 72.1294 156.07C69.0333 156.07 66.5104 153.547 66.5104 150.451C66.5104 147.355 69.0333 144.832 72.1294 144.832Z" fill="#0057B8"></path>
  <path fill-rule="evenodd" clip-rule="evenodd" d="M86.0049 129.925C89.9038 129.925 93 133.136 93 136.92C93 140.819 89.7891 143.915 86.0049 143.915C82.106 143.915 79.0099 140.704 79.0099 136.92C78.8952 133.136 82.106 129.925 86.0049 129.925Z" fill="#0057B8"></path>
  <path fill-rule="evenodd" clip-rule="evenodd" d="M99.7655 116.852C103.435 116.852 106.417 119.834 106.417 123.503C106.417 127.173 103.435 130.154 99.7655 130.154C96.096 130.154 93.1145 127.173 93.1145 123.503C93.1145 119.834 96.096 116.852 99.7655 116.852Z" fill="#0057B8"></path>
  <path fill-rule="evenodd" clip-rule="evenodd" d="M113.412 104.123C116.623 104.123 119.26 106.761 119.26 109.972C119.26 113.182 116.623 115.82 113.412 115.82C110.201 115.82 107.563 113.182 107.563 109.972C107.563 106.646 110.201 104.123 113.412 104.123Z" fill="#0057B8"></path>
  <path fill-rule="evenodd" clip-rule="evenodd" d="M127.173 91.853C129.695 91.853 131.645 93.9172 131.645 96.3253C131.645 98.8481 129.581 100.798 127.173 100.798C124.65 100.798 122.7 98.7334 122.7 96.3253C122.586 93.9172 124.65 91.853 127.173 91.853Z" fill="#0057B8"></path>
  <path fill-rule="evenodd" clip-rule="evenodd" d="M141.048 80.1565C142.653 80.1565 143.915 81.4179 143.915 83.0233C143.915 84.6287 142.653 85.8902 141.048 85.8902C139.443 85.8902 138.181 84.6287 138.181 83.0233C138.181 81.4179 139.443 80.1565 141.048 80.1565Z" fill="#0057B8"></path>
  <path d="M45.7545 131.76C50.3144 131.76 54.011 128.063 54.011 123.503C54.011 118.943 50.3144 115.247 45.7545 115.247C41.1946 115.247 37.498 118.943 37.498 123.503C37.498 128.063 41.1946 131.76 45.7545 131.76Z" fill="#0057B8"></path>
  <path d="M59.2861 117.769C63.5927 117.769 67.0838 114.278 67.0838 109.972C67.0838 105.665 63.5927 102.174 59.2861 102.174C54.9795 102.174 51.4883 105.665 51.4883 109.972C51.4883 114.278 54.9795 117.769 59.2861 117.769Z" fill="#0057B8"></path>
  <path d="M72.8174 131.301C77.124 131.301 80.6151 127.81 80.6151 123.503C80.6151 119.197 77.124 115.705 72.8174 115.705C68.5108 115.705 65.0196 119.197 65.0196 123.503C65.0196 127.81 68.5108 131.301 72.8174 131.301Z" fill="#0057B8"></path>
  <path d="M59.2861 144.832C63.5927 144.832 67.0838 141.341 67.0838 137.034C67.0838 132.728 63.5927 129.237 59.2861 129.237C54.9795 129.237 51.4883 132.728 51.4883 137.034C51.4883 141.341 54.9795 144.832 59.2861 144.832Z" fill="#0057B8"></path>
  <path d="M45.7547 155.726C48.6046 155.726 50.9149 153.416 50.9149 150.566C50.9149 147.716 48.6046 145.406 45.7547 145.406C42.9047 145.406 40.5944 147.716 40.5944 150.566C40.5944 153.416 42.9047 155.726 45.7547 155.726Z" fill="#0057B8"></path>
  <path d="M32.3378 143.915C36.1377 143.915 39.2182 140.834 39.2182 137.034C39.2182 133.235 36.1377 130.154 32.3378 130.154C28.5379 130.154 25.4574 133.235 25.4574 137.034C25.4574 140.834 28.5379 143.915 32.3378 143.915Z" fill="#0057B8"></path>
  <path d="M18.8063 131.186C23.0495 131.186 26.4894 127.746 26.4894 123.503C26.4894 119.26 23.0495 115.82 18.8063 115.82C14.563 115.82 11.1232 119.26 11.1232 123.503C11.1232 127.746 14.563 131.186 18.8063 131.186Z" fill="#0057B8"></path>
  <path d="M32.2232 118.113C36.7198 118.113 40.365 114.468 40.365 109.972C40.365 105.475 36.7198 101.83 32.2232 101.83C27.7266 101.83 24.0814 105.475 24.0814 109.972C24.0814 114.468 27.7266 118.113 32.2232 118.113Z" fill="#0057B8"></path>
  <path d="M18.8064 103.779C22.8596 103.779 26.1455 100.493 26.1455 96.4401C26.1455 92.3869 22.8596 89.1011 18.8064 89.1011C14.7531 89.1011 11.4673 92.3869 11.4673 96.4401C11.4673 100.493 14.7531 103.779 18.8064 103.779Z" fill="#0057B8"></path>
  <path d="M5.16029 115.247C8.01024 115.247 10.3206 112.936 10.3206 110.086C10.3206 107.236 8.01024 104.926 5.16029 104.926C2.31034 104.926 0 107.236 0 110.086C0 112.936 2.31034 115.247 5.16029 115.247Z" fill="#0057B8"></path>
  <path d="M32.2231 90.3622C36.2764 90.3622 39.5622 87.0764 39.5622 83.0232C39.5622 78.9699 36.2764 75.6841 32.2231 75.6841C28.1699 75.6841 24.884 78.9699 24.884 83.0232C24.884 87.0764 28.1699 90.3622 32.2231 90.3622Z" fill="#0057B8"></path>
  <path d="M5.16029 88.1839C8.01024 88.1839 10.3206 85.8735 10.3206 83.0236C10.3206 80.1736 8.01024 77.8633 5.16029 77.8633C2.31034 77.8633 0 80.1736 0 83.0236C0 85.8735 2.31034 88.1839 5.16029 88.1839Z" fill="#0057B8"></path>
  <path d="M18.8063 75.5697C22.1629 75.5697 24.884 72.8486 24.884 69.492C24.884 66.1354 22.1629 63.4143 18.8063 63.4143C15.4497 63.4143 12.7286 66.1354 12.7286 69.492C12.7286 72.8486 15.4497 75.5697 18.8063 75.5697Z" fill="#0057B8"></path>
  <path d="M45.7546 104.123C49.9345 104.123 53.323 100.735 53.323 96.555C53.323 92.3751 49.9345 88.9866 45.7546 88.9866C41.5747 88.9866 38.1862 92.3751 38.1862 96.555C38.1862 100.735 41.5747 104.123 45.7546 104.123Z" fill="#0057B8"></path>
  <path d="M32.3378 61.809C35.5678 61.809 38.1862 59.1906 38.1862 55.9606C38.1862 52.7307 35.5678 50.1123 32.3378 50.1123C29.1079 50.1123 26.4895 52.7307 26.4895 55.9606C26.4895 59.1906 29.1079 61.809 32.3378 61.809Z" fill="#0057B8"></path>
  <path d="M45.7545 76.0283C49.3644 76.0283 52.2909 73.1019 52.2909 69.4919C52.2909 65.882 49.3644 62.9556 45.7545 62.9556C42.1446 62.9556 39.2181 65.882 39.2181 69.4919C39.2181 73.1019 42.1446 76.0283 45.7545 76.0283Z" fill="#0057B8"></path>
  <path d="M59.286 89.9036C63.0859 89.9036 66.1664 86.8231 66.1664 83.0232C66.1664 79.2233 63.0859 76.1428 59.286 76.1428C55.486 76.1428 52.4056 79.2233 52.4056 83.0232C52.4056 86.8231 55.486 89.9036 59.286 89.9036Z" fill="#0057B8"></path>
  <path d="M72.9321 103.55C76.7954 103.55 79.9272 100.418 79.9272 96.5546C79.9272 92.6914 76.7954 89.5596 72.9321 89.5596C69.0689 89.5596 65.9371 92.6914 65.9371 96.5546C65.9371 100.418 69.0689 103.55 72.9321 103.55Z" fill="#0057B8"></path>
  <path d="M86.3488 116.966C90.2121 116.966 93.3439 113.835 93.3439 109.971C93.3439 106.108 90.2121 102.976 86.3488 102.976C82.4856 102.976 79.3538 106.108 79.3538 109.971C79.3538 113.835 82.4856 116.966 86.3488 116.966Z" fill="#0057B8"></path>
  <path d="M45.7546 47.7042C48.6679 47.7042 51.0295 45.3425 51.0295 42.4293C51.0295 39.516 48.6679 37.1543 45.7546 37.1543C42.8413 37.1543 40.4796 39.516 40.4796 42.4293C40.4796 45.3425 42.8413 47.7042 45.7546 47.7042Z" fill="#0057B8"></path>
  <path d="M59.2861 33.1406C61.6294 33.1406 63.529 31.241 63.529 28.8977C63.529 26.5544 61.6294 24.6548 59.2861 24.6548C56.9428 24.6548 55.0432 26.5544 55.0432 28.8977C55.0432 31.241 56.9428 33.1406 59.2861 33.1406Z" fill="#0057B8"></path>
  <path d="M72.8174 47.4745C75.604 47.4745 77.863 45.2155 77.863 42.4289C77.863 39.6423 75.604 37.3833 72.8174 37.3833C70.0308 37.3833 67.7718 39.6423 67.7718 42.4289C67.7718 45.2155 70.0308 47.4745 72.8174 47.4745Z" fill="#0057B8"></path>
  <path d="M86.2341 61.1206C89.0841 61.1206 91.3944 58.8103 91.3944 55.9603C91.3944 53.1104 89.0841 50.8 86.2341 50.8C83.3842 50.8 81.0739 53.1104 81.0739 55.9603C81.0739 58.8103 83.3842 61.1206 86.2341 61.1206Z" fill="#0057B8"></path>
  <path d="M99.8803 74.6521C102.73 74.6521 105.041 72.3418 105.041 69.4918C105.041 66.6419 102.73 64.3315 99.8803 64.3315C97.0303 64.3315 94.72 66.6419 94.72 69.4918C94.72 72.3418 97.0303 74.6521 99.8803 74.6521Z" fill="#0057B8"></path>
  <path d="M113.297 88.069C116.084 88.069 118.343 85.81 118.343 83.0234C118.343 80.2368 116.084 77.9778 113.297 77.9778C110.51 77.9778 108.251 80.2368 108.251 83.0234C108.251 85.81 110.51 88.069 113.297 88.069Z" fill="#0057B8"></path>
  <path d="M99.8804 102.403C103.174 102.403 105.843 99.7333 105.843 96.4401C105.843 93.1468 103.174 90.4771 99.8804 90.4771C96.5871 90.4771 93.9174 93.1468 93.9174 96.4401C93.9174 99.7333 96.5871 102.403 99.8804 102.403Z" fill="#0057B8"></path>
  <path d="M126.943 73.1613C128.97 73.1613 130.613 71.5184 130.613 69.4918C130.613 67.4652 128.97 65.8223 126.943 65.8223C124.917 65.8223 123.274 67.4652 123.274 69.4918C123.274 71.5184 124.917 73.1613 126.943 73.1613Z" fill="#0057B8"></path>
  <path d="M140.475 58.0245C141.615 58.0245 142.539 57.1003 142.539 55.9604C142.539 54.8204 141.615 53.8962 140.475 53.8962C139.335 53.8962 138.41 54.8204 138.41 55.9604C138.41 57.1003 139.335 58.0245 140.475 58.0245Z" fill="#0057B8"></path>
  <path d="M126.829 45.0667C128.285 45.0667 129.466 43.8859 129.466 42.4292C129.466 40.9726 128.285 39.7917 126.829 39.7917C125.372 39.7917 124.191 40.9726 124.191 42.4292C124.191 43.8859 125.372 45.0667 126.829 45.0667Z" fill="#0057B8"></path>
  <path d="M113.412 32.2233C115.248 32.2233 116.737 30.7344 116.737 28.8978C116.737 27.0612 115.248 25.5723 113.412 25.5723C111.575 25.5723 110.086 27.0612 110.086 28.8978C110.086 30.7344 111.575 32.2233 113.412 32.2233Z" fill="#0057B8"></path>
  <path d="M99.7657 18.4626C101.476 18.4626 102.862 17.0764 102.862 15.3664C102.862 13.6565 101.476 12.2703 99.7657 12.2703C98.0558 12.2703 96.6696 13.6565 96.6696 15.3664C96.6696 17.0764 98.0558 18.4626 99.7657 18.4626Z" fill="#0057B8"></path>
  <path d="M113.297 59.9741C115.514 59.9741 117.311 58.1772 117.311 55.9606C117.311 53.744 115.514 51.947 113.297 51.947C111.081 51.947 109.284 53.744 109.284 55.9606C109.284 58.1772 111.081 59.9741 113.297 59.9741Z" fill="#0057B8"></path>
  <path d="M99.7657 46.6718C102.109 46.6718 104.009 44.7722 104.009 42.4289C104.009 40.0856 102.109 38.186 99.7657 38.186C97.4224 38.186 95.5228 40.0856 95.5228 42.4289C95.5228 44.7722 97.4224 46.6718 99.7657 46.6718Z" fill="#0057B8"></path>
  <path d="M86.3489 32.9112C88.5656 32.9112 90.3625 31.1142 90.3625 28.8976C90.3625 26.681 88.5656 24.884 86.3489 24.884C84.1323 24.884 82.3354 26.681 82.3354 28.8976C82.3354 31.1142 84.1323 32.9112 86.3489 32.9112Z" fill="#0057B8"></path>
  <path d="M72.8175 18.4626C74.5275 18.4626 75.9137 17.0764 75.9137 15.3664C75.9137 13.6565 74.5275 12.2703 72.8175 12.2703C71.1075 12.2703 69.7213 13.6565 69.7213 15.3664C69.7213 17.0764 71.1075 18.4626 72.8175 18.4626Z" fill="#0057B8"></path>
  <path d="M86.3489 3.89889C87.4255 3.89889 88.2983 3.02609 88.2983 1.94944C88.2983 0.872796 87.4255 0 86.3489 0C85.2722 0 84.3994 0.872796 84.3994 1.94944C84.3994 3.02609 85.2722 3.89889 86.3489 3.89889Z" fill="#0057B8"></path>
  <path d="M59.4006 61.9237C62.6306 61.9237 65.249 59.3053 65.249 56.0754C65.249 52.8454 62.6306 50.2271 59.4006 50.2271C56.1707 50.2271 53.5523 52.8454 53.5523 56.0754C53.5523 59.3053 56.1707 61.9237 59.4006 61.9237Z" fill="#0057B8"></path>
  <path d="M72.8175 75.4551C76.1108 75.4551 78.7805 72.7853 78.7805 69.4921C78.7805 66.1988 76.1108 63.5291 72.8175 63.5291C69.5242 63.5291 66.8545 66.1988 66.8545 69.4921C66.8545 72.7853 69.5242 75.4551 72.8175 75.4551Z" fill="#0057B8"></path>
  <path d="M86.2342 89.1012C89.5908 89.1012 92.3119 86.3801 92.3119 83.0235C92.3119 79.6669 89.5908 76.9458 86.2342 76.9458C82.8776 76.9458 80.1566 79.6669 80.1566 83.0235C80.1566 86.3801 82.8776 89.1012 86.2342 89.1012Z" fill="#0057B8"></path>
  <path d="M649.623 130.957C645.266 129.696 642.055 127.975 639.532 125.682C637.239 123.618 635.633 121.095 634.945 118.572C634.257 116.049 633.913 113.297 633.913 110.66C633.913 104.353 635.977 99.5365 640.105 96.555C644.234 93.5735 650.541 91.1654 658.682 89.56C662.352 88.9866 665.448 88.5279 668.2 88.0692C670.953 87.6105 673.017 87.2665 674.737 86.9225C676.457 86.5785 677.948 86.2344 678.98 85.8904C680.012 85.5464 680.929 85.3171 681.732 84.973C682.42 84.629 682.993 84.3997 683.223 83.941C683.452 83.4823 683.681 82.9089 683.681 81.8769C683.681 78.0926 682.534 75.5698 680.126 74.0791C677.718 72.5883 673.475 71.7856 667.168 71.7856C659.027 71.7856 652.949 72.1296 648.935 72.8177C645.036 73.5057 642.284 73.8497 640.793 73.8497C639.876 73.8497 639.532 73.391 639.532 72.359L639.303 65.8226C639.188 63.9879 639.532 62.6118 640.449 61.6944C641.367 60.777 642.628 60.3183 644.234 60.089C646.412 59.7449 649.509 59.5156 653.408 59.1716C657.306 58.8276 662.123 58.7129 667.742 58.7129C678.75 58.7129 686.777 60.6623 691.823 64.7906C696.869 68.9188 699.391 75.7992 699.391 85.3171V124.879C699.391 128.434 697.557 130.498 693.887 131.072C689.988 131.76 685.631 132.333 680.814 132.562C676.113 132.906 671.297 133.021 666.595 133.021C659.715 132.906 653.981 132.218 649.623 130.957ZM683.796 97.4724L657.421 102.633C652.375 103.665 649.853 106.417 649.853 110.774C649.853 114.559 651.458 116.967 654.784 118.228C658.109 119.49 662.467 120.063 668.086 120.063C671.067 120.063 674.049 119.948 677.26 119.604C680.356 119.26 682.649 119.031 683.911 118.687V97.4724H683.796V97.4724Z" fill="#0057B8"></path>
  <path d="M775.878 83.9408V130.383C775.878 131.53 775.305 132.103 774.158 132.103H761.659C760.512 132.103 759.939 131.53 759.939 130.383V86.4636C759.939 80.7299 758.792 76.9457 756.499 75.1109C754.205 73.2762 749.848 72.2441 743.311 72.2441C738.38 72.2441 734.596 72.3588 732.073 72.4735C729.551 72.5881 727.601 72.9321 726.225 73.2762C724.849 73.6202 724.276 74.4229 724.276 75.5696V130.383C724.276 131.53 723.702 132.103 722.555 132.103H710.285C708.909 132.103 708.221 131.53 708.221 130.383V67.1985C708.221 63.5289 710.056 61.4648 713.611 60.8915C717.739 59.9741 722.097 59.286 726.684 58.942C731.271 58.598 737.004 58.3687 744.114 58.3687C755.352 58.3687 763.379 60.3181 768.425 64.3317C773.47 68.3452 775.878 74.8816 775.878 83.9408Z" fill="#0057B8"></path>
  <path d="M254.46 101.945C254.46 114.215 249.758 122.357 240.928 127.058C234.621 130.384 225.218 132.104 211.457 132.104H181.642C179.578 132.104 178.546 130.613 178.546 127.746V36.0077C178.546 33.3702 179.578 31.9941 181.527 31.9941H210.769C223.842 31.9941 232.098 33.9436 238.291 37.1544C247.006 41.6267 251.478 49.5391 251.478 61.0065C251.478 70.7537 246.662 77.29 236.8 80.5009C248.611 83.7117 254.46 90.7068 254.46 101.945ZM236.227 101.945C236.227 96.3258 234.048 91.9682 229.461 89.1014C225.562 86.6932 220.631 85.5465 214.668 85.5465H196.206V118.228H217.994C222.924 118.228 227.167 116.738 230.837 113.641C234.392 110.775 236.227 106.761 236.227 101.945ZM234.162 59.9744C234.162 55.7315 232.442 52.406 229.002 49.8832C225.562 47.3603 221.434 45.9843 216.847 45.9843H196.435L196.32 74.3085H213.751C227.855 74.4232 234.162 68.5749 234.162 59.9744Z" fill="#0057B8"></path>
  <path d="M628.982 101.945C628.982 114.215 624.281 122.357 615.451 127.058C609.144 130.384 599.741 132.104 585.98 132.104H556.165C554.101 132.104 553.069 130.613 553.069 127.746V36.0077C553.069 33.3702 554.101 31.9941 556.05 31.9941H585.292C598.364 31.9941 606.621 33.9436 612.813 37.1544C621.528 41.6267 626.001 49.5391 626.001 61.0065C626.001 70.7537 621.184 77.29 611.322 80.5009C623.134 83.7117 628.982 90.7068 628.982 101.945ZM610.864 101.945C610.864 96.3258 608.685 91.9682 604.098 89.1014C600.199 86.6932 595.268 85.5465 589.305 85.5465H570.843V118.228H592.631C597.562 118.228 601.805 116.738 605.474 113.641C609.029 110.775 610.864 106.761 610.864 101.945ZM608.8 59.9744C608.8 55.7315 607.08 52.406 603.639 49.8832C600.199 47.3603 596.071 45.9843 591.484 45.9843H571.072L570.958 74.3085H588.388C602.493 74.4232 608.8 68.5749 608.8 59.9744Z" fill="#0057B8"></path>
  <path d="M277.509 131.989H264.436C263.29 131.989 262.716 131.301 262.716 130.04V40.3651C262.716 34.8608 265.239 32.1086 270.17 32.1086H277.509C278.771 32.1086 279.344 32.7967 279.344 34.0581V130.04C279.344 131.301 278.771 131.989 277.509 131.989Z" fill="#0057B8"></path>
  <path d="M798.813 132.104H786.314C785.167 132.104 784.594 131.416 784.594 130.154V40.3651C784.594 34.8608 787.116 32.1086 792.047 32.1086H798.813C800.074 32.1086 800.648 32.7967 800.648 34.0581V130.154C800.648 131.416 800.074 132.104 798.813 132.104Z" fill="#0057B8"></path>
  <path d="M288.976 107.104V61.2352C288.976 60.0885 289.55 59.5151 290.696 59.5151H303.196C304.342 59.5151 304.916 60.0885 304.916 61.2352V104.696C304.916 110.43 306.063 114.214 308.356 116.049C310.649 117.884 315.007 118.916 321.543 118.916C326.474 118.916 330.259 118.801 332.781 118.686C335.304 118.572 337.254 118.228 338.63 117.884C340.006 117.54 340.579 116.737 340.579 115.59V61.2352C340.579 60.0885 341.153 59.5151 342.299 59.5151H354.569C355.945 59.5151 356.633 60.0885 356.633 61.2352V124.076C356.633 127.746 354.799 129.81 351.244 130.383C347.001 131.301 342.643 131.989 338.056 132.333C333.469 132.677 327.736 132.906 320.626 132.906C309.388 132.906 301.361 130.957 296.43 126.943C291.499 122.815 288.976 116.278 288.976 107.104Z" fill="#0057B8"></path>
  <path d="M484.494 132.104H472.109C470.962 132.104 470.389 131.53 470.389 130.269V84.6289C470.389 75.455 472.797 68.6893 477.613 64.6757C482.43 60.5475 489.425 58.4834 498.828 58.4834C501.007 58.4834 503.185 58.5981 505.479 58.7127C507.658 58.8274 509.607 59.0568 511.557 59.2861C514.423 59.7448 515.914 59.8595 515.914 62.497L515.685 70.8681C515.685 71.9002 515.111 72.3588 513.965 72.3588C512.703 72.3588 510.525 72.3588 507.428 72.2442C504.447 72.2442 501.236 72.1295 498.255 72.1295C494.356 72.1295 491.259 72.9322 489.31 74.423C487.361 75.9137 486.328 78.4365 486.328 82.2207V130.039C486.328 131.301 485.755 132.104 484.494 132.104Z" fill="#0057B8"></path>
  <path d="M462.362 80.3859C462.362 98.2749 458.692 111.577 451.239 120.177C443.326 129.466 430.712 134.053 413.282 134.053C395.852 134.053 383.123 129.466 375.21 120.177C367.757 111.577 364.087 98.2749 364.087 80.2712C364.087 46.672 380.485 29.9297 413.282 29.9297C446.078 29.9297 462.362 46.7866 462.362 80.3859ZM442.524 80.3859C442.524 67.8865 440.918 59.1713 437.593 54.1257C433.464 47.704 425.437 44.4932 413.626 44.4932C401.929 44.4932 393.902 47.704 389.545 54.1257C386.104 59.286 384.384 68.0012 384.384 80.3859C384.384 94.2613 385.875 103.779 388.971 108.939C392.985 116.164 401.241 119.719 413.626 119.719C425.896 119.719 434.038 116.164 438.051 108.939C441.033 103.779 442.524 94.2613 442.524 80.3859Z" fill="#0057B8"></path>
  <path d="M819.569 93.1145L845.714 129.581C846.402 130.613 845.714 132.103 844.453 132.103H829.775C828.628 132.103 827.711 131.53 827.023 130.613L801.565 92.4265L826.105 60.5474C826.679 59.8593 827.596 59.4006 828.628 59.4006H843.306C844.682 59.4006 845.37 61.0061 844.568 62.0381L819.569 93.1145Z" fill="#0057B8"></path>
</svg>
