<?xml version="1.0" encoding="utf-8"?>
<!-- Generator: Adobe Illustrator 22.1.0, SVG Export Plug-In . SVG Version: 6.00 Build 0)  -->
<svg version="1.1" xmlns="http://www.w3.org/2000/svg" xmlns:xlink="http://www.w3.org/1999/xlink" x="0px" y="0px"
	 viewBox="0 0 664.4 125.7" style="enable-background:new 0 0 664.4 125.7;" xml:space="preserve">
<style type="text/css">
	.st0{fill:#5C3A87;}
</style>
<g id="Background">
</g>
<g id="BNF_Logo">
	<g>
		<g>
			<path class="st0" d="M79.7,57.5H106C103.3,25.3,76.2,0,43.4,0v26.1C61.8,26.1,77.1,39.8,79.7,57.5z"/>
			<path class="st0" d="M43.4,99.6v26.1c32.9,0,59.9-25.3,62.6-57.5H79.7C77.1,85.9,61.8,99.6,43.4,99.6z"/>
		</g>
		<path class="st0" d="M41.4,60.9l-12-17.8c-0.7-1-1.8-1.6-2.9-1.6H0l0,0l13,19.3c0.8,1.2,0.8,2.8,0,4L0,84.1l0,0h26.5
			c1.2,0,2.3-0.6,2.9-1.6l12-17.8C42.2,63.6,42.2,62.1,41.4,60.9z"/>
		<path class="st0" d="M266.1,79l-42-54.1h-13.5v79.6h11.9c1.9,0,3.4-1.5,3.4-3.4V50.3l42,54.1h13.5V24.8h-12.2
			c-1.7,0-3.1,1.4-3.1,3.1V79z"/>
		<g>
			<path class="st0" d="M184.8,63.3l-2.2-0.9l2-1.1c0.1,0,8.8-5.1,8.8-16c0-9.9-9.4-20.5-24.6-20.5h-34v25.3v0.1l7.5,11.2
				c0.5,0.8,0.5,1.9,0,2.7l-7.5,11.2v0.1v28.9h35.9c16.7,0,26.7-11.6,26.7-22.9C197.5,68.5,185.3,63.5,184.8,63.3z M150.2,44.6v-7.3
				h17.5c6.4,0,10.5,3.9,10.5,9.9c0,6-4.1,9.9-10.5,9.9h-17.5V44.6z M170,92h-19.8V81.1V69.5v-0.7H170c7,0,12.2,5,12.2,11.6
				C182.2,87,177,92,170,92z"/>
		</g>
		<path class="st0" d="M337,69.7c1.7,0,3.1-1.4,3.1-3.1v-4.2h0v-6.2H313V38.4h37.1V24.8h-52.5v79.6H313l0-34.7L337,69.7z"/>
		<g>
			<path class="st0" d="M411.4,61.8c0,0,9.1-4,9.1-16.5c0-11.4-9.1-20.5-22.2-20.5h-30.8v79.7H400c14.8,0,24.5-9.7,24.5-22.8
				C424.5,66.9,411.4,61.8,411.4,61.8z M376.1,32.7h22.2c8.5,0,13.7,5.1,13.7,12.5c0,8-5.1,13-13.7,13h-22.2V32.7z M400,96.5h-23.9
				V65.8H400c9.7,0,15.9,7.4,15.9,15.9C415.9,90.2,409.7,96.5,400,96.5z"/>
			<path class="st0" d="M466.6,24.8l-33,79.7h9.1l9.1-22.2h37.6l9.1,22.2h9.1l-33-79.7H466.6z M455.2,74.3l15.4-37.6L486,74.3H455.2
				z"/>
			<path class="st0" d="M578,89.1l-49-64.3h-7.4v79.7h6.2c1.3,0,2.3-1,2.3-2.3v-62l49,64.3h7.4V24.8h-6c-1.4,0-2.5,1.1-2.5,2.5V89.1
				z"/>
			<path class="st0" d="M631.4,57.8l30.2-33h-10.8l-41,45v-45h-5.9c-1.4,0-2.6,1.2-2.6,2.6v77.1h6c1.4,0,2.5-1.1,2.5-2.5V81.1
				l15.9-17.1l28.5,40.4h10.3L631.4,57.8z"/>
		</g>
	</g>
</g>
</svg>
