<?xml version="1.0" encoding="utf-8"?>
<!-- Generator: Adobe Illustrator 23.0.2, SVG Export Plug-In . SVG Version: 6.00 Build 0)  -->
<svg version="1.1" id="Livello_1" xmlns="http://www.w3.org/2000/svg" xmlns:xlink="http://www.w3.org/1999/xlink" x="0px" y="0px"
	 viewBox="0 0 300.2 171.7" style="enable-background:new 0 0 300.2 171.7;" xml:space="preserve">
<style type="text/css">
	.st0{fill:#4D5858;stroke:#4D5858;stroke-miterlimit:10;}
	.st1{font-family:'ArialNarrow';}
	.st2{font-size:51.5141px;}
	.st3{fill:#4D5858;}
	.st4{font-family:'Arial-ItalicMT';}
	.st5{font-size:25.7877px;}
	.st6{letter-spacing:1.2;}
	.st7{opacity:0.8;fill:#00A0DF;}
	.st8{opacity:0.9;fill:#FAE345;}
	.st9{opacity:0.9;fill:#62B132;}
</style>
<g id="XMLID_1_">
	<g id="XMLID_10_">
		<g id="XMLID_14_">
			<text id="XMLID_15_" transform="matrix(0.8418 0 0 1 193.6904 123.4394)" class="st0 st1 st2">Bank</text>
		</g>
		<path id="XMLID_13_" class="st3" d="M0,115.6c0,0,3.8,17.3,18.6,17.9h281.6c0,0-132.3,3.7-164.7,4.4
			c-28.9,0.6-116.3,1.2-116.3,1.2S1.4,138.8,0,115.6z"/>
		<g id="XMLID_11_">
			<text id="XMLID_12_" transform="matrix(0.8418 0 0 1 155.5557 162.8153)" class="st0 st4 st5 st6">Since 1891</text>
		</g>
	</g>
	<g id="XMLID_2_">
		<path id="XMLID_7_" class="st7" d="M56.6,7.7c-9.3,0-17.9,3.2-25.2,8.6V0H9.5v59.1c-0.1,1.5-0.2,3.1-0.2,4.7
			c0,30.9,21.2,56,47.3,56c26.1,0,47.3-25.1,47.3-56C103.9,32.8,82.7,7.7,56.6,7.7z M56.6,92.5c-13.4,0-24.2-12.9-24.2-28.7
			C32.4,47.9,43.2,35,56.6,35C70,35,80.8,47.9,80.8,63.7C80.8,79.6,70,92.5,56.6,92.5z"/>
		<path id="XMLID_6_" class="st8" d="M213.3,24.8V0.5c0,0-53.6-5.3-53.6,59.1V127h23.7l0.3-52.2h29.6v-24H184
			C185.2,41.1,190.6,24.8,213.3,24.8z"/>
		<path id="XMLID_3_" class="st9" d="M131,7.7c-26.1,0-47.3,25.1-47.3,56v63.4h22.4v-15.8c7.2,5.3,15.8,8.4,24.9,8.4
			c26.1,0,47.3-25.1,47.3-56C178.2,32.8,157.1,7.7,131,7.7z M131,92.5c-13.4,0-24.2-12.9-24.2-28.7c0-15.9,10.8-28.7,24.2-28.7
			c13.4,0,24.2,12.9,24.2,28.7C155.2,79.6,144.3,92.5,131,92.5z"/>
	</g>
</g>
</svg>
