<svg id="Layer_1" data-name="Layer 1" xmlns="http://www.w3.org/2000/svg" viewBox="0 0 170.87 73.98"><defs><style>.cls-1{fill:#0067ac;}.cls-1,.cls-2,.cls-3{fill-rule:evenodd;}.cls-2{fill:#e11b22;}.cls-3{fill:#231f20;}</style></defs><path class="cls-1" d="M72.39,54.81H87.47c6.47,0,10.94-4.24,10.94-13.69,0-6-2.41-10-6.74-11.1v-.27c3.78-1,6.47-4.79,6.47-11.37C98.14,10,94.08,6,87.12,6H72.39V54.81ZM81,47.76V33.65h3.85c3,0,4.82,2.06,4.82,6.92,0,4.59-1.51,7.19-4.34,7.19ZM81,26.6V13h4.33c2.55,0,4.2,2,4.2,6.51,0,4.93-1.79,7.12-4.75,7.12Zm23.19,28.21h8.68V35h3.65l5.37,19.86h9L124.36,33c3.65-1.71,6-5.82,6-12.81C130.35,10.58,125.6,6,117.48,6H104.19V54.81Zm8.68-26.29V13.25h3.85c3.45,0,4.89,2.87,4.89,7.6,0,5.34-1.72,7.67-4.82,7.67Zm36.35,27c7.36,0,12.66-4.39,12.66-11.71V38.72H154v4.59a4.34,4.34,0,0,1-4.68,4.59c-3.09,0-4.88-1.78-4.88-5.14V17.7c0-2.95,1.44-5,4.81-5A4.4,4.4,0,0,1,154,17.43V22h7.85V16.6c0-7.12-5.37-11.36-12.6-11.36-7.71,0-13.63,4.45-13.63,12.25V43.24c0,8.22,5.65,12.26,13.57,12.26Zm18.24-.69h8.67V6h-8.67Z" transform="translate(-5.26 -5.24)"/><polygon class="cls-1" points="48.82 0.75 42.72 0.75 42.72 6.86 36.62 6.86 36.62 0.75 30.51 0.75 30.51 6.86 36.62 6.86 36.62 12.96 30.51 12.96 30.51 19.06 24.41 19.06 24.41 25.16 18.31 25.16 18.31 31.27 12.21 31.27 12.21 37.37 6.1 37.37 6.1 31.27 0 31.27 0 37.37 6.1 37.37 6.1 43.47 0 43.47 0 49.58 6.1 49.58 6.1 43.47 12.21 43.47 12.21 49.58 18.31 49.58 18.31 43.47 12.21 43.47 12.21 37.37 18.31 37.37 18.31 31.27 24.41 31.27 24.41 25.16 30.51 25.16 30.51 19.06 36.62 19.06 36.62 12.96 42.72 12.96 42.72 19.06 48.82 19.06 48.82 12.96 42.72 12.96 42.72 6.86 48.82 6.86 48.82 0.75"/><polygon class="cls-2" points="24.41 49.58 30.51 49.58 36.62 49.58 42.72 49.58 48.82 49.58 48.82 43.47 48.82 37.37 48.82 31.27 48.82 25.16 42.72 25.16 36.62 25.16 30.51 25.16 30.51 31.27 36.62 31.27 42.72 31.27 42.72 37.37 42.72 43.47 36.62 43.47 30.51 43.47 30.51 37.37 24.41 37.37 24.41 43.47 24.41 49.58"/><polygon class="cls-2" points="24.41 0.75 18.31 0.75 12.21 0.75 6.1 0.75 0 0.75 0 6.86 0 12.96 0 19.06 0 25.16 6.1 25.16 12.21 25.16 12.21 19.06 6.1 19.06 6.1 12.96 6.1 6.86 12.21 6.86 18.31 6.86 18.31 12.96 18.31 19.06 24.41 19.06 24.41 12.96 24.41 6.86 24.41 0.75"/><path class="cls-3" d="M5.26,77.15H8.2c1.31,0,2.23-.85,2.23-2.83,0-1.24-.48-2.1-1.44-2.33v-.06c.82-.2,1.36-1,1.36-2.36,0-1.69-.78-2.55-2.23-2.55H5.26V77.15Zm1.59-1.31v-3.2H7.7c.66,0,1.11.47,1.11,1.58s-.35,1.62-1,1.62Zm0-4.49v-3h1c.57,0,1,.45,1,1.47s-.45,1.58-1.11,1.58Zm6.22,5.94a1.57,1.57,0,0,0,1.42-.92h0c0,.38.07.69.07.78H16c0-.23-.07-1.18-.07-1.78v-4a1.86,1.86,0,0,0-2.09-1.89c-1.32,0-2.2.74-2.2,1.83V72H13v-.68a.64.64,0,0,1,.73-.67.64.64,0,0,1,.73.68v1.25h-.5A2.35,2.35,0,0,0,11.44,75c0,1.57.74,2.27,1.63,2.27Zm.54-1.16c-.4,0-.67-.39-.67-1.28s.47-1.35,1-1.35h.47v1.63a.93.93,0,0,1-.8,1Zm3.66,1h1.49v-5.3c0-.58.36-1.14.86-1.14s.69.34.69.81v5.63H21.8V70.94a1.41,1.41,0,0,0-1.48-1.48,1.75,1.75,0,0,0-1.57.9h0v-.74H17.27v7.53Zm8,.14c1.31,0,2.13-.7,2.13-1.89v-.7H26.08v.62a.71.71,0,0,1-.76.78c-.56,0-.78-.41-.78-.91V71.55a.77.77,0,0,1,.79-.87.68.68,0,0,1,.75.73v.64H27.4v-.73a1.88,1.88,0,0,0-2.1-1.86A2.11,2.11,0,0,0,23,71.66v3.49a2,2,0,0,0,2.23,2.14Zm4.69,0a1.57,1.57,0,0,0,1.43-.92h0c0,.38.07.69.07.78h1.36c0-.23-.07-1.18-.07-1.78v-4a1.86,1.86,0,0,0-2.09-1.89c-1.32,0-2.2.74-2.2,1.83V72h1.35v-.68a.73.73,0,0,1,1.46,0v1.25h-.5A2.35,2.35,0,0,0,28.34,75c0,1.57.74,2.27,1.62,2.27Zm.55-1.16c-.4,0-.67-.39-.67-1.28s.47-1.35,1-1.35h.47v1.63a.93.93,0,0,1-.8,1Zm5.75,1h1.61V72.93h.85l1.19,4.22h1.66l-1.41-4.58c.79-.32,1.3-1.2,1.3-2.65,0-1.92-.94-2.9-2.6-2.9h-2.6V77.15Zm1.61-5.42V68.35h.86c.82,0,1.12.71,1.12,1.69,0,1.15-.39,1.69-1.09,1.69Zm6.94,5.56a2.09,2.09,0,0,0,2.3-2.2v-3.5a2.08,2.08,0,0,0-2.3-2.13,2.12,2.12,0,0,0-2.29,2.19v3.47a2.05,2.05,0,0,0,2.29,2.17Zm0-1.21a.78.78,0,0,1-.81-.89V71.58c0-.49.23-.9.78-.9a.79.79,0,0,1,.8.88v3.63c0,.45-.17.89-.77.89Zm3.57,1.07h1.49v-5.3c0-.58.36-1.14.86-1.14s.69.34.69.8v5.64h1.49V71.78a1,1,0,0,1,.86-1.07c.5,0,.71.34.71.81v5.63H56V70.94a1.42,1.42,0,0,0-1.48-1.48,1.9,1.9,0,0,0-1.65.92h0a1.35,1.35,0,0,0-1.38-.92,1.73,1.73,0,0,0-1.57.91h0v-.75H48.4v7.53Zm10.33.14a1.57,1.57,0,0,0,1.42-.92h0c0,.38.07.69.07.78h1.37c0-.23-.08-1.18-.08-1.78v-4a1.86,1.86,0,0,0-2.09-1.89c-1.32,0-2.2.74-2.2,1.83V72h1.35v-.68a.74.74,0,0,1,1.47,0v1.25h-.51A2.35,2.35,0,0,0,57.11,75c0,1.57.73,2.27,1.62,2.27Zm.54-1.16c-.4,0-.67-.39-.67-1.28s.47-1.35,1-1.35h.48v1.63a.94.94,0,0,1-.81,1Zm-1.62-7.29H58.8l.57-1.16L60,68.84h1.19L60,66.73h-1.1l-1.21,2.11Zm5.28,8.31h1.49v-5.3c0-.58.36-1.14.86-1.14s.69.34.69.81v5.63h1.49V70.94A1.41,1.41,0,0,0,66,69.46a1.77,1.77,0,0,0-1.58.9h0v-.74H62.93v7.53Zm7.27.14a1.55,1.55,0,0,0,1.42-.92h0c0,.38.07.69.07.78H73.1c0-.23-.07-1.18-.07-1.78v-4a1.86,1.86,0,0,0-2.09-1.89c-1.32,0-2.2.74-2.2,1.83V72h1.35v-.68a.73.73,0,0,1,1.46,0v1.25h-.5A2.35,2.35,0,0,0,68.58,75c0,1.57.73,2.27,1.62,2.27Zm.55-1.16c-.4,0-.67-.39-.67-1.28s.47-1.35,1-1.35h.47v1.63a.93.93,0,0,1-.8,1Zm.17-7.31a1.75,1.75,0,0,0,1.81-2h-1c0,.65-.24,1-.78,1s-.8-.44-.87-1h-1a1.74,1.74,0,0,0,1.85,2ZM78,77.28a1.69,1.69,0,0,0,1.47-.91h0l0,.78h1.37V67h-1.5v3.12h0a1.54,1.54,0,0,0-1.32-.68,1.67,1.67,0,0,0-1.74,1.75v4.33A1.57,1.57,0,0,0,78,77.28Zm.56-1.23c-.48,0-.7-.34-.7-.81V71.48c0-.58.29-.85.7-.85a1,1,0,0,1,.88,1.06V74.9a1,1,0,0,1-.88,1.15Zm6,1.26a4.22,4.22,0,0,0,2-.46l-.28-1.08a4,4,0,0,1-1.38.3c-.76,0-1.12-.38-1.12-1.15v-1h2.87V71.59a2,2,0,0,0-2.1-2.13,2.15,2.15,0,0,0-2.28,2.29v3.34a2.08,2.08,0,0,0,2.34,2.22Zm-.83-4.51V71.54c0-.45.21-.89.76-.89s.76.43.76.87V72.8Zm8.79,4.49A2.32,2.32,0,0,0,95,74.93v-1H93.56v1A1,1,0,0,1,92.5,75.9a1,1,0,0,1-1.12-1.17V69.38a1,1,0,0,1,1.1-1.16,1,1,0,0,1,1.08,1.07v.95H95V69.12a2.27,2.27,0,0,0-2.53-2.26,2.45,2.45,0,0,0-2.72,2.46v5.51c0,1.62,1.12,2.46,2.72,2.46Zm3.78-.14h1.49V72a1,1,0,0,1,1.14-1,5.45,5.45,0,0,1,.62,0V69.6a1.8,1.8,0,0,0-.46,0,1.4,1.4,0,0,0-1.3.92h0v-.85H96.26v7.53Zm6.42.16a4.22,4.22,0,0,0,1.95-.46l-.28-1.08a4,4,0,0,1-1.38.3c-.76,0-1.12-.38-1.12-1.15v-1h2.87V71.59a2,2,0,0,0-2.1-2.13,2.15,2.15,0,0,0-2.28,2.29v3.34a2.08,2.08,0,0,0,2.34,2.22Zm-.83-4.51V71.54c0-.45.22-.89.76-.89s.76.43.76.87V72.8Zm5.61,4.48a1.68,1.68,0,0,0,1.46-.91h0l0,.78h1.36V67h-1.49v3.12h0a1.55,1.55,0,0,0-1.32-.68,1.67,1.67,0,0,0-1.74,1.75v4.33a1.57,1.57,0,0,0,1.65,1.74Zm.56-1.23c-.49,0-.7-.34-.7-.81V71.48c0-.58.28-.85.7-.85a1,1,0,0,1,.87,1.06V74.9c0,.64-.38,1.15-.87,1.15Zm3.77,1.1h1.49V69.62h-1.49v7.53Zm0-8.6h1.49V66.8h-1.49v1.75Zm4.79,8.7a3.11,3.11,0,0,0,1.08-.19V75.88A2.35,2.35,0,0,1,117,76c-.31,0-.44-.15-.44-.48V70.85h1.12V69.67H116.6V68h-1.49v1.7h-.72v1.18h.72v5.06a1.29,1.29,0,0,0,1.47,1.34Zm4.38.06a4.28,4.28,0,0,0,2-.46l-.29-1.08a4,4,0,0,1-1.37.3c-.76,0-1.12-.38-1.12-1.15v-1H123V71.59a2,2,0,0,0-2.1-2.13,2.15,2.15,0,0,0-2.28,2.29v3.34A2.08,2.08,0,0,0,121,77.31Zm-.83-4.51V71.54c0-.45.21-.89.76-.89s.76.43.76.87V72.8Zm8.57,6.42.31-1.56h-1.35l-.08,1.56Zm-.57-1.93a1.9,1.9,0,0,0,2.07-2A3.06,3.06,0,0,0,129,73.1l-.76-.77c-.45-.44-.71-.75-.71-1.09a.6.6,0,0,1,.65-.66c.44,0,.64.32.72,1l1.29,0a2,2,0,0,0-4-.13,2.69,2.69,0,0,0,1.1,2.06l.62.63a2,2,0,0,1,.89,1.35c0,.48-.24.71-.63.71s-.72-.36-.78-1l-1.39,0a2,2,0,0,0,2.14,2.09Zm3.17-.14h1.49V69.62H131.3v7.53Zm0-8.6h1.49V66.8H131.3v1.75Zm5,8.6h1.61V67h-1.61V77.15Zm3,0h1.5v-5.3c0-.58.35-1.14.86-1.14s.68.34.68.81v5.63h1.5V70.94a1.42,1.42,0,0,0-1.48-1.48,1.78,1.78,0,0,0-1.58.9h0v-.74h-1.45v7.53Zm7,0h1.54l1.66-7.56h-1.38l-1,5.18h0l-.92-5.18h-1.58l1.68,7.56Zm6.2.13a4.22,4.22,0,0,0,1.95-.46l-.29-1.08a3.9,3.9,0,0,1-1.37.3c-.76,0-1.12-.38-1.12-1.15v-1h2.87V71.59a2,2,0,0,0-2.1-2.13,2.15,2.15,0,0,0-2.28,2.29v3.34a2.08,2.08,0,0,0,2.34,2.22Zm-.83-4.51V71.54c0-.45.21-.89.76-.89s.76.43.76.87V72.8Zm5.92,4.49a1.9,1.9,0,0,0,2.07-2,3,3,0,0,0-1.19-2.22l-.76-.77c-.45-.44-.71-.75-.71-1.09a.61.61,0,0,1,.65-.66c.45,0,.65.32.72,1l1.29,0a2,2,0,0,0-4-.13,2.71,2.71,0,0,0,1.11,2.06l.61.63a2,2,0,0,1,.89,1.35c0,.48-.24.71-.63.71s-.72-.36-.77-1l-1.39,0a2,2,0,0,0,2.13,2.09Zm4.88,0a3.11,3.11,0,0,0,1.08-.19V75.88A2.45,2.45,0,0,1,163,76c-.32,0-.45-.15-.45-.48V70.85h1.12V69.67h-1.12V68h-1.49v1.7h-.71v1.18h.71v5.06a1.3,1.3,0,0,0,1.48,1.34Zm2.18-.1h1.49V69.62h-1.49v7.53Zm0-8.6h1.49V66.8h-1.49v1.75Zm4.77,10.67.31-1.56h-1.35l-.07,1.56Zm0-2a3.11,3.11,0,0,0,1.08-.19V75.88A2.35,2.35,0,0,1,170,76c-.31,0-.44-.15-.44-.48V70.85h1.12V69.67h-1.12V68h-1.5v1.7h-.71v1.18h.71v5.06a1.3,1.3,0,0,0,1.48,1.34Zm2.18-.1h1.49V69.62h-1.49v7.53Zm0-8.6h1.49V66.8h-1.49v1.75Zm2.93,8.6h1.49V69.62h-1.49v7.53Zm0-8.6h1.49V66.8h-1.49Z" transform="translate(-5.26 -5.24)"/></svg>