<?xml version="1.0" encoding="utf-8"?>
<!-- Generator: Adobe Illustrator 24.1.2, SVG Export Plug-In . SVG Version: 6.00 Build 0)  -->
<svg version="1.1" id="Calque_1" xmlns="http://www.w3.org/2000/svg" xmlns:xlink="http://www.w3.org/1999/xlink" x="0px" y="0px"
	 viewBox="0 0 409.1 48.5" style="enable-background:new 0 0 409.1 48.5;" xml:space="preserve">
<style type="text/css">
	.st0{fill:#5E6A71;}
	.st1{fill:#007856;}
</style>
<g>
	<g>
		<g>
			<g>
				<g>
					<path class="st0" d="M46.5,31.5l7.6-4l5.6,11.7h-8.4c0,0-1.6,0-2.3-1.4C48.4,36.1,46.5,31.5,46.5,31.5L46.5,31.5z"/>
					<rect x="0.7" y="42.8" class="st0" width="60.8" height="5.4"/>
				</g>
			</g>
		</g>
		<path class="st1" d="M66,8.4c0,0-9.6,5.5-11.8,6.3c-2.1,0.8-2.8-0.3-3.1-0.6c-0.6-0.8-1.5-3.6-1.6-4c0.1,0,0.6,0.1,1.8-0.2
			C52.8,9.5,65.9,2.1,66,2.1V8.4L66,8.4z"/>
		<path class="st0" d="M50.7,19.7L44.4,5.8h-9.1L22.4,29.7c0,0,6.3-0.2,10.3-3.2c1-0.6,3.9-8.2,6.5-13.2l4.1,10.3
			c-6.2,3.2-12.1,6-15.3,6.9C19.8,32.8,9.6,34.2,5.9,31c-3.4-3.1,4.5-15.9,19.5-18.7c2.4-0.5,3.9-0.4,3.9-0.4c0,0-1-4.4-1.8-5.3
			c-1.1-1.4-2.2-1.7-3.9-1.4C20.4,5.3,6.6,9,1.1,20.6c-3,6.6,1,13.2,3.6,15.1c1.2,0.9,9.1,7.9,27.3,0.8c17.9-7,34-17.9,34-17.9v-7.3
			C65.9,11.2,58.9,15.3,50.7,19.7z"/>
	</g>
	<g>
		<path class="st1" d="M94.8,5.5c3.1,0,6.4,1,9,2.9l-2,2.6c-2.2-1.5-4-2.3-6.8-2.3c-4.8,0-8.5,3-8.5,7.3c0,4.4,3.7,7.3,8.5,7.3
			c2.9,0,4.8-0.9,7.1-2.5l2,2.6c-2.7,1.9-6.1,3-9.4,3c-6.6,0-12.8-3.9-12.8-10.5S88.2,5.5,94.8,5.5z"/>
		<path class="st1" d="M108.9,5.8h11c5.1,0,9.3,2.1,9.3,6.5c0,3.5-2.6,5.3-6,6.1l6.6,7.7h-5.1l-6-7.1h-5.4v7.1h-4.4V5.8z
			 M119.5,15.9c3.1,0,5-1.3,5-3.5c0-2.1-1.9-3.3-5.1-3.3h-6.3v6.8H119.5z"/>
		<path class="st1" d="M134.3,20.2V5.8h18.4v3.2h-14V14h12.9v3.2h-12.9v3.1c0,1.8,0.8,2.6,2.6,2.6h11.9v3.2h-12.9
			C136.4,26.1,134.3,23.9,134.3,20.2z M148.3,0l-3.4,3.6h-3.7l2.6-3.6H148.3z"/>
		<path class="st1" d="M158.6,5.8h9.2c7.8,0,13.1,4.1,13.1,10.2c0,6.1-5.2,10.2-13.1,10.2h-9.2V5.8z M168.1,22.9
			c4.9,0,8.2-2.8,8.2-6.9c0-4.1-3.3-6.9-8.2-6.9H163v13.8H168.1z"/>
		<path class="st1" d="M185.8,5.8h4.4v20.3h-4.4V5.8z"/>
		<path class="st1" d="M194.8,9.1V5.8h20v3.2H207v17.1h-4.4V9.1H194.8z"/>
		<path class="st1" d="M242.2,21.2H231l-2.4,4.9h-4.4l10.5-20.3h4.4l10.5,20.3h-5L242.2,21.2z M240.6,18l-4-8.1l-4,8.1H240.6z"/>
		<path class="st1" d="M264,5.5c3.1,0,6.4,1,9.1,2.9l-2,2.6c-2.2-1.5-4-2.3-6.8-2.3c-4.8,0-8.5,2.9-8.5,7.3c0,4.3,3.3,7.4,8.4,7.4
			c2.2,0,4.3-0.6,5.7-1.6v-3.9h-6.1v-3.1h10.5v8.5c-2.4,1.7-5.9,3.2-10.3,3.2c-7.7,0-12.7-4.5-12.7-10.5
			C251.2,9.3,257.4,5.5,264,5.5z"/>
		<path class="st1" d="M280,5.8h11c5.1,0,9.3,2.1,9.3,6.5c0,3.5-2.6,5.3-6,6.1l6.6,7.7h-5.1l-6-7.1h-5.4v7.1H280V5.8z M290.7,15.9
			c3.1,0,5-1.3,5-3.5c0-2.1-1.9-3.3-5.1-3.3h-6.3v6.8H290.7z"/>
		<path class="st1" d="M306.2,5.8h4.4v20.3h-4.4V5.8z"/>
		<path class="st1" d="M328.5,5.5c3.1,0,6.4,1,9.1,2.9l-2,2.6c-2.2-1.5-4-2.3-6.8-2.3c-4.8,0-8.5,3-8.5,7.3c0,4.4,3.7,7.3,8.5,7.3
			c2.9,0,4.8-0.9,7.1-2.5l2,2.6c-2.7,1.9-6.1,3-9.4,3c-6.6,0-12.8-3.9-12.8-10.5S322,5.5,328.5,5.5z"/>
		<path class="st1" d="M339.9,16c0-5.7,5.3-10.5,12.9-10.5c7.5,0,12.8,4.8,12.8,10.5c0,5.7-5.3,10.5-12.8,10.5
			C345.2,26.5,339.9,21.7,339.9,16z M344.4,16c0,4.1,3.4,7.3,8.3,7.3c4.9,0,8.3-3.2,8.3-7.3c0-4.1-3.4-7.3-8.3-7.3
			C347.8,8.6,344.4,11.9,344.4,16z"/>
		<path class="st1" d="M370,5.8h4.4v17.1h12.9v3.2H370V5.8z"/>
		<path class="st1" d="M390.3,20.2V5.8h18.4v3.2h-14V14h12.9v3.2h-12.9v3.1c0,1.8,0.8,2.6,2.6,2.6h11.9v3.2h-12.9
			C392.4,26.1,390.3,23.9,390.3,20.2z"/>
	</g>
	<g>
		<g>
			<path class="st0" d="M92.5,32.5c2.4,0,4.9,0.7,6.9,2.2l-1.5,2c-1.7-1.2-3.1-1.8-5.2-1.8c-3.7,0-6.5,2.3-6.5,5.6
				c0,3.3,2.9,5.6,6.5,5.6c2.2,0,3.7-0.7,5.4-1.9l1.5,2c-2.1,1.5-4.7,2.3-7.2,2.3c-5,0-9.8-3-9.8-8S87.4,32.5,92.5,32.5z"/>
			<path class="st0" d="M101.2,40.5c0-4.4,4.1-8,9.8-8c5.7,0,9.8,3.6,9.8,8c0,4.4-4.1,8-9.8,8C105.3,48.5,101.2,44.9,101.2,40.5z
				 M104.7,40.5c0,3.1,2.6,5.6,6.4,5.6c3.8,0,6.4-2.5,6.4-5.6c0-3.1-2.6-5.6-6.4-5.6C107.3,34.9,104.7,37.4,104.7,40.5z"/>
			<path class="st0" d="M127.4,37.2v11H124V32.8h3.3l9.5,11v-11h3.3v15.5h-3.3L127.4,37.2z"/>
			<path class="st0" d="M143.6,46.1l1.5-2.2c2,1.5,4.8,2.2,7.1,2.2c2.5,0,4.5-0.7,4.5-1.9c0-1.2-2.2-1.7-4.8-2.2
				c-3.5-0.8-7.7-1.6-7.7-4.7c0-2.9,3.6-4.7,7.7-4.7c2.8,0,5.8,0.8,7.9,2.2l-1.5,2.2c-1.7-1.3-4.1-2-6.3-2c-2.2,0-4.3,0.7-4.3,1.8
				c0,1,2,1.5,4.5,1.9c3.6,0.7,8.1,1.6,8.1,5c0,3.1-3.7,4.8-7.8,4.8C149.1,48.5,145.9,47.6,143.6,46.1z"/>
			<path class="st0" d="M163.5,41.3v-8.5h3.3v8.7c0,2.8,1.9,4.6,4.8,4.6c2.9,0,4.8-1.9,4.8-4.6v-8.7h3.2v8.5c0,4.3-3.2,7.2-8.1,7.2
				C166.7,48.5,163.5,45.6,163.5,41.3z"/>
			<path class="st0" d="M198.9,32.8h3.5v15.5h-3.3V36.7l-6.2,8.7l-6-8.4v11.3h-2.9V32.8h3.5l5.6,7.9L198.9,32.8z"/>
			<path class="st0" d="M206.8,43.8v-11h14v2.5h-10.7V39h9.8v2.4h-9.8v2.4c0,1.4,0.6,2,1.9,2h9.1v2.5h-9.9
				C208.4,48.3,206.8,46.6,206.8,43.8z"/>
			<path class="st0" d="M225.2,32.8h8.4c3.9,0,7.1,1.6,7.1,5c0,2.7-1.9,4.1-4.6,4.6l5.1,5.9h-3.9l-4.6-5.4h-4.1v5.4h-3.3V32.8z
				 M233.4,40.5c2.3,0,3.9-1,3.9-2.7c0-1.6-1.4-2.5-3.9-2.5h-4.8v5.2H233.4z"/>
			<path class="st0" d="M253.2,32.8h14v2.5h-10.7v4.8h9.4v2.4h-9.4v5.8h-3.3V32.8z"/>
			<path class="st0" d="M270.9,32.8h3.3v15.5h-3.3V32.8z"/>
			<path class="st0" d="M282.2,37.2v11h-3.3V32.8h3.3l9.5,11v-11h3.3v15.5h-3.3L282.2,37.2z"/>
			<path class="st0" d="M311.6,44.5H303l-1.9,3.7h-3.4l8-15.5h3.4l8,15.5h-3.8L311.6,44.5z M310.3,42.1l-3.1-6.2l-3.1,6.2H310.3z"/>
			<path class="st0" d="M323.3,37.2v11H320V32.8h3.3l9.5,11v-11h3.3v15.5h-3.3L323.3,37.2z"/>
			<path class="st0" d="M349.5,32.5c2.4,0,4.9,0.7,6.9,2.2l-1.5,2c-1.7-1.2-3.1-1.8-5.2-1.8c-3.7,0-6.5,2.3-6.5,5.6
				c0,3.3,2.9,5.6,6.5,5.6c2.2,0,3.7-0.7,5.4-1.9l1.5,2c-2.1,1.5-4.7,2.3-7.2,2.3c-5,0-9.8-3-9.8-8S344.5,32.5,349.5,32.5z"/>
			<path class="st0" d="M359.8,43.8v-11h14v2.5h-10.7V39h9.8v2.4h-9.8v2.4c0,1.4,0.6,2,1.9,2h9.1v2.5h-9.9
				C361.5,48.3,359.8,46.6,359.8,43.8z"/>
		</g>
	</g>
</g>
</svg>
