<?xml version="1.0" encoding="utf-8"?>
<!-- Generator: Adobe Illustrator 22.1.0, SVG Export Plug-In . SVG Version: 6.00 Build 0)  -->
<svg version="1.1" id="Layer_1" xmlns="http://www.w3.org/2000/svg" xmlns:xlink="http://www.w3.org/1999/xlink" x="0px" y="0px"
	 viewBox="0 0 273.5 212.4" style="enable-background:new 0 0 273.5 212.4;" xml:space="preserve">
<style type="text/css">
	.st0{clip-path:url(#SVGID_2_);fill:#293081;}
	.st1{clip-path:url(#SVGID_4_);fill:none;stroke:#293081;stroke-width:7.707191e-02;stroke-linejoin:round;stroke-miterlimit:10;}
	.st2{clip-path:url(#SVGID_6_);fill:#FFFFFF;}
	.st3{clip-path:url(#SVGID_8_);fill:none;stroke:#FFFFFF;stroke-width:7.707191e-02;stroke-linejoin:round;stroke-miterlimit:10;}
	.st4{clip-path:url(#SVGID_10_);fill:#EE282A;}
	.st5{clip-path:url(#SVGID_12_);fill:none;stroke:#EE282A;stroke-width:7.707191e-02;stroke-linejoin:round;stroke-miterlimit:10;}
	.st6{clip-path:url(#SVGID_14_);fill:#FFFFFF;}
	.st7{clip-path:url(#SVGID_16_);fill:none;stroke:#FFFFFF;stroke-width:7.707191e-02;stroke-linejoin:round;stroke-miterlimit:10;}
	.st8{clip-path:url(#SVGID_18_);}
	.st9{clip-path:url(#SVGID_20_);fill:none;stroke:#000000;stroke-width:7.707191e-02;stroke-linejoin:round;stroke-miterlimit:10;}
	.st10{clip-path:url(#SVGID_22_);}
	.st11{clip-path:url(#SVGID_24_);fill:none;stroke:#000000;stroke-width:7.707191e-02;stroke-linejoin:round;stroke-miterlimit:10;}
	.st12{clip-path:url(#SVGID_26_);fill:#6E7BA8;}
	.st13{clip-path:url(#SVGID_28_);fill:none;stroke:#6E7BA8;stroke-width:7.707191e-02;stroke-linejoin:round;stroke-miterlimit:10;}
	.st14{clip-path:url(#SVGID_30_);fill:#EE282A;}
	.st15{clip-path:url(#SVGID_32_);fill:none;stroke:#EE282A;stroke-width:7.707191e-02;stroke-linejoin:round;stroke-miterlimit:10;}
	.st16{clip-path:url(#SVGID_34_);fill:#FDFDFD;}
	.st17{clip-path:url(#SVGID_36_);fill:none;stroke:#FDFDFD;stroke-width:7.707191e-02;stroke-linejoin:round;stroke-miterlimit:10;}
	.st18{clip-path:url(#SVGID_38_);fill:#FDFDFD;}
	.st19{clip-path:url(#SVGID_40_);fill:none;stroke:#FDFDFD;stroke-width:7.707191e-02;stroke-linejoin:round;stroke-miterlimit:10;}
	.st20{clip-path:url(#SVGID_42_);fill:#080D0D;}
	.st21{clip-path:url(#SVGID_44_);fill:none;stroke:#080D0D;stroke-width:7.707191e-02;stroke-linejoin:round;stroke-miterlimit:10;}
	.st22{clip-path:url(#SVGID_46_);fill:#FDFDFD;}
	.st23{clip-path:url(#SVGID_48_);fill:none;stroke:#FDFDFD;stroke-width:7.707191e-02;stroke-linejoin:round;stroke-miterlimit:10;}
</style>
<g>
	<g>
		<g>
			<defs>
				<rect id="SVGID_1_" x="10.8" y="18.8" width="254" height="175.3"/>
			</defs>
			<clipPath id="SVGID_2_">
				<use xlink:href="#SVGID_1_"  style="overflow:visible;"/>
			</clipPath>
			<polyline class="st0" points="51.3,19.3 145.4,19.3 146.1,19.9 146.8,20.5 147,21.3 147.2,22.2 147.1,23.1 143,50.4 138.9,77.7 
				138.4,81.6 137.7,85.7 137.1,89.6 136.8,90.3 136.7,91 136.6,91.8 135.2,93.8 133.6,95.8 132,97.6 130.4,99.5 130,99.8 
				129.6,100 129.1,99.9 128.7,99.7 128.6,99.1 128.6,98.6 128.8,97.1 129.1,95.5 132.1,78.1 132.3,76.8 132.2,75.7 132,74.8 
				131.5,74.2 130.6,73.8 129.6,73.5 128.2,73.4 115.9,73.4 114.3,73.5 113.3,73.7 112.5,74.2 111.9,74.9 111.5,75.9 111.2,77.4 
				101.3,133 98.8,147.7 98.6,149 98.6,150 98.9,150.7 99.4,151.3 100,151.6 101,151.8 102.2,151.9 115.8,151.9 117.1,151.8 
				118,151.6 118.6,151.3 119.1,150.7 119.4,149.8 119.7,148.7 123.7,126 123.7,125.5 123.8,125 124,124.4 124.1,123.9 124.5,123.7 
				125,123.5 125.5,123.6 125.9,123.9 126.2,124.4 126.4,125 126.7,125.5 129.7,131.7 130.2,132.5 130.4,133.3 130.4,134.2 
				127.9,152 125.3,169.8 122.6,187.6 122.4,189 122.2,190.4 121.7,191.7 121,192.7 120.3,193.4 119.3,193.9 118,194 26.7,193.9 
				25.6,193.9 24.8,193.5 24.3,193.1 23.9,192.3 23.7,191.3 23.6,189.9 23.8,188.6 26.8,169 29.7,149.2 30.4,144.1 31.3,139 
				31.3,138.3 31.5,137.5 31.8,136.6 32.4,136.4 32.7,136.4 33,136.5 33.2,136.9 33.4,137.3 33.6,137.6 34.8,139.8 36.2,141.7 
				37.8,143.7 39.7,145.8 42,147.5 44.3,149 46.7,150.2 49.2,151.2 51.9,151.9 54.7,152.6 59.7,153.2 64.5,153.4 69.5,153.2 
				74.3,152.6 79.2,151.5 84,150.2 85.4,149.6 86.4,148.9 87.2,147.9 87.7,146.7 88,145.3 88.6,141.5 89.3,137.6 90,133.8 
				90.2,132.8 90.1,132 89.9,131.2 89.2,130.5 88.4,130.1 87.6,130 86.8,130.3 86,130.6 82.3,132.3 78.5,133.4 74.6,134.2 
				70.6,134.6 68.3,134.5 66.2,134.3 64.1,133.9 62.1,133.4 60.3,132.6 58.6,131.5 57.2,130.3 55.9,128.8 54.7,127 53.8,125 
				53.2,122.5 52.9,120.2 52.8,117.7 53,115.3 53.5,112.9 54.2,109.9 55.2,107.1 56.4,104.5 57.9,102 59.5,99.8 61.4,97.8 63.5,96 
				65.9,94.6 68.6,93.2 71.5,92.2 74.9,91.3 78.2,91 81.5,91 84.8,91.6 88,92.5 91.2,93.8 93,94.8 94.2,95.2 95.1,95.3 95.8,95.1 
				96.4,94.7 96.9,93.9 97.3,92.7 98.6,85.7 99.8,78.4 99.8,77.3 99.7,76.5 99.3,75.9 98.5,75.3 97.5,74.8 94.5,74 91.5,73.3 
				88.4,72.8 83.6,72.3 78.9,72.2 74.2,72.6 69.5,73.4 64.9,74.6 60.8,76 56.9,77.9 53.2,80 49.8,82.4 46.6,85.2 43.5,88.2 
				40.7,91.5 40.5,91.9 40.2,92.3 39.9,92.7 39.6,93 39.1,93.2 38.5,93 38.3,91.9 38.3,90.8 38.5,89.8 38.7,88.6 43.3,58 47.9,27.3 
				48.1,25.2 48.5,23.1 48.8,21.8 49.3,20.9 50.2,19.9 51.3,19.3 			"/>
		</g>
	</g>
	<g>
		<g>
			<defs>
				<rect id="SVGID_3_" x="10.8" y="18.8" width="254" height="175.3"/>
			</defs>
			<clipPath id="SVGID_4_">
				<use xlink:href="#SVGID_3_"  style="overflow:visible;"/>
			</clipPath>
			<polygon class="st1" points="51.3,19.3 145.4,19.3 146.1,19.9 146.8,20.5 147,21.3 147.2,22.2 147.1,23.1 143,50.4 138.9,77.7 
				138.4,81.6 137.7,85.7 137.1,89.6 136.8,90.3 136.7,91 136.6,91.8 135.2,93.8 133.6,95.8 132,97.6 130.4,99.5 130,99.8 
				129.6,100 129.1,99.9 128.7,99.7 128.6,99.1 128.6,98.6 128.8,97.1 129.1,95.5 132.1,78.1 132.3,76.8 132.2,75.7 132,74.8 
				131.5,74.2 130.6,73.8 129.6,73.5 128.2,73.4 115.9,73.4 114.3,73.5 113.3,73.7 112.5,74.2 111.9,74.9 111.5,75.9 111.2,77.4 
				101.3,133 98.8,147.7 98.6,149 98.6,150 98.9,150.7 99.4,151.3 100,151.6 101,151.8 102.2,151.9 115.8,151.9 117.1,151.8 
				118,151.6 118.6,151.3 119.1,150.7 119.4,149.8 119.7,148.7 123.7,126 123.7,125.5 123.8,125 124,124.4 124.1,123.9 124.5,123.7 
				125,123.5 125.5,123.6 125.9,123.9 126.2,124.4 126.4,125 126.7,125.5 129.7,131.7 130.2,132.5 130.4,133.3 130.4,134.2 
				127.9,152 125.3,169.8 122.6,187.6 122.4,189 122.2,190.4 121.7,191.7 121,192.7 120.3,193.4 119.3,193.9 118,194 26.7,193.9 
				25.6,193.9 24.8,193.5 24.3,193.1 23.9,192.3 23.7,191.3 23.6,189.9 23.8,188.6 26.8,169 29.7,149.2 30.4,144.1 31.3,139 
				31.3,138.3 31.5,137.5 31.8,136.6 32.4,136.4 32.7,136.4 33,136.5 33.2,136.9 33.4,137.3 33.6,137.6 34.8,139.8 36.2,141.7 
				37.8,143.7 39.7,145.8 42,147.5 44.3,149 46.7,150.2 49.2,151.2 51.9,151.9 54.7,152.6 59.7,153.2 64.5,153.4 69.5,153.2 
				74.3,152.6 79.2,151.5 84,150.2 85.4,149.6 86.4,148.9 87.2,147.9 87.7,146.7 88,145.3 88.6,141.5 89.3,137.7 90,133.8 
				90.2,132.8 90.1,132 89.9,131.2 89.2,130.5 88.4,130.1 87.6,130 86.8,130.3 86,130.6 82.3,132.3 78.5,133.4 74.6,134.2 
				70.6,134.6 68.3,134.5 66.2,134.3 64.1,133.9 62.1,133.4 60.3,132.6 58.6,131.5 57.2,130.3 55.9,128.8 54.7,127 53.9,125 
				53.2,122.5 52.9,120.2 52.8,117.7 53,115.3 53.5,112.9 54.2,109.9 55.2,107.1 56.4,104.5 57.9,102 59.5,99.8 61.4,97.8 63.5,96 
				65.9,94.6 68.6,93.2 71.5,92.2 74.9,91.3 78.2,91 81.5,91 84.8,91.6 88,92.5 91.2,93.8 93,94.8 94.2,95.2 95.1,95.3 95.8,95.1 
				96.4,94.7 96.9,93.9 97.3,92.7 98.6,85.7 99.8,78.4 99.8,77.3 99.7,76.5 99.3,75.9 98.5,75.3 97.5,74.8 94.5,74 91.5,73.3 
				88.4,72.8 83.6,72.3 78.9,72.2 74.2,72.6 69.5,73.4 64.9,74.6 60.8,76 56.9,77.9 53.2,80 49.8,82.4 46.6,85.2 43.5,88.2 
				40.7,91.5 40.5,91.9 40.2,92.3 39.9,92.7 39.6,93 39.1,93.2 38.5,93 38.3,91.9 38.3,90.8 38.5,89.8 38.7,88.6 43.3,58 47.9,27.3 
				48.1,25.2 48.5,23.1 48.8,21.8 49.3,20.9 50.2,19.9 			"/>
		</g>
	</g>
	<g>
		<g>
			<defs>
				<rect id="SVGID_5_" x="10.8" y="18.8" width="254" height="175.3"/>
			</defs>
			<clipPath id="SVGID_6_">
				<use xlink:href="#SVGID_5_"  style="overflow:visible;"/>
			</clipPath>
			<polyline class="st2" points="12.6,19.2 51.3,19.3 50.2,20.4 49.5,21.6 49,22.9 48.7,24.2 48.5,25.6 48.4,27 48.2,28.3 
				43.4,60.4 38.7,92.3 38.7,92.7 38.7,93.2 38.7,93.9 38.6,94.6 38.3,95.1 37.9,95.7 35.7,99.7 33.9,103.9 32.6,108.1 31.5,112.4 
				30.8,116.9 30.4,121.3 30.5,126 30.8,128.7 31.3,131.4 32.1,134 32.2,134.6 32.5,135.1 32.5,135.7 32.2,136.4 24.3,189.6 
				24.2,191 24.3,192 24.7,192.9 25.5,193.4 26.5,193.7 28,193.8 116.6,193.8 118.2,193.7 119.4,193.4 120.3,192.9 121,192 
				121.4,190.8 121.8,189.3 129.8,134.7 129.9,134.5 130,134.2 130.2,134 131.5,135.6 132.5,137.5 133.3,139.4 133.9,141.5 
				130.4,165.3 126.9,189.1 126.8,190.6 126.9,191.6 127.2,192.3 127.9,192.9 128.9,193.1 130.4,193.1 218.1,193.1 219.6,193.1 
				220.6,192.9 221.6,192.5 222.2,191.9 222.6,191 223,189.9 223.3,188.5 224.8,177.8 226.5,166.9 229.6,145.5 232.8,124 234,116.7 
				235.1,109.3 236.3,102 236.4,101.1 236.6,100.4 237,99.7 248,78.7 248.4,77.8 248.8,76.5 248.9,75.5 248.6,74.7 248,74.1 
				247,73.6 245.8,73.4 244.4,73.4 242.8,73.4 241.6,73.4 241.1,73.1 240.7,72.6 241.1,69.1 241.5,65.5 242.1,61.9 244.9,42.4 
				247.9,22.9 247.9,22.1 247.7,21.4 247.3,20.7 247.1,20 247,19.3 262.5,19.2 262.8,19.3 263.1,19.3 263.3,19.4 263.5,19.5 
				263.5,19.7 263.5,19.9 263.5,20.3 263.5,21 263.5,192.5 263.5,193.3 263.1,193.9 262.6,194.1 261.7,194.2 12.6,194.2 11.7,194.1 
				11.2,193.9 10.9,193.3 10.8,192.5 10.8,21 10.9,20.2 11.2,19.6 11.7,19.3 12.6,19.2 			"/>
		</g>
	</g>
	<g>
		<g>
			<defs>
				<rect id="SVGID_7_" x="10.8" y="18.8" width="254" height="175.3"/>
			</defs>
			<clipPath id="SVGID_8_">
				<use xlink:href="#SVGID_7_"  style="overflow:visible;"/>
			</clipPath>
			<polygon class="st3" points="12.6,19.2 51.3,19.3 50.2,20.4 49.5,21.6 49,22.9 48.7,24.2 48.5,25.6 48.4,27 48.2,28.3 43.4,60.4 
				38.7,92.2 38.7,92.7 38.7,93.2 38.7,93.9 38.6,94.6 38.3,95.1 37.9,95.7 35.7,99.7 33.9,103.9 32.6,108.1 31.5,112.4 30.8,116.9 
				30.4,121.3 30.5,126 30.8,128.7 31.3,131.4 32.1,134 32.2,134.6 32.5,135.1 32.5,135.7 32.2,136.4 24.3,189.6 24.2,191 24.3,192 
				24.7,192.9 25.5,193.4 26.5,193.7 28,193.8 116.6,193.8 118.2,193.7 119.4,193.4 120.3,192.9 121,192 121.4,190.8 121.8,189.3 
				129.8,134.7 129.9,134.5 130,134.2 130.2,134 131.5,135.6 132.5,137.5 133.3,139.4 133.9,141.5 130.4,165.3 126.9,189.1 
				126.8,190.6 126.9,191.6 127.2,192.3 127.9,192.9 128.9,193.1 130.4,193.1 218.1,193.1 219.6,193.1 220.6,192.9 221.6,192.5 
				222.2,191.8 222.6,191 223,189.9 223.3,188.5 224.8,177.8 226.5,166.9 229.6,145.5 232.8,124 234,116.7 235.1,109.3 236.3,102 
				236.4,101.1 236.6,100.4 237,99.7 248,78.7 248.4,77.8 248.8,76.5 248.9,75.5 248.6,74.7 248,74.1 247,73.6 245.8,73.4 
				244.4,73.4 242.8,73.4 241.6,73.4 241.1,73.1 240.7,72.6 241.1,69.1 241.5,65.5 242.1,61.9 244.9,42.4 247.9,22.9 247.9,22.1 
				247.7,21.4 247.3,20.7 247.1,20 247,19.3 262.5,19.2 262.8,19.3 263.1,19.3 263.3,19.4 263.5,19.5 263.5,19.7 263.5,19.9 
				263.5,20.3 263.5,21 263.5,192.5 263.5,193.3 263.1,193.9 262.6,194.1 261.7,194.2 12.6,194.2 11.7,194.1 11.2,193.9 10.9,193.3 
				10.8,192.5 10.8,21 10.9,20.2 11.2,19.6 11.7,19.3 			"/>
		</g>
	</g>
	<g>
		<g>
			<defs>
				<rect id="SVGID_9_" x="10.8" y="18.8" width="254" height="175.3"/>
			</defs>
			<clipPath id="SVGID_10_">
				<use xlink:href="#SVGID_9_"  style="overflow:visible;"/>
			</clipPath>
			<polyline class="st4" points="153.4,19.3 247,19.3 247.8,20.2 248.2,21.2 248.5,22.3 248.4,23.5 244.8,47.5 241.2,71.6 241,72.9 
				240.5,73.3 239.9,73.4 231.3,73.4 230,73.6 229,73.9 228.1,74.5 227.3,75.3 226.7,76.3 211.6,108.2 208.4,114.8 205.2,121.3 
				205,121.8 204.7,122.4 204.6,122.5 204.4,122.6 204.3,122.8 204.1,123 203.8,123 203.6,122.9 203.4,122.8 203.4,122.6 
				203.4,122.5 203.3,122.3 203.2,122.1 202.8,120.2 197.8,78.8 197.5,77.1 197.2,75.7 196.6,74.7 195.9,74 195,73.6 193.6,73.5 
				191.7,73.4 186,73.4 180.1,73.5 177,73.6 173.9,73.6 170.6,73.5 165.7,73.4 160.8,73.4 155.8,73.4 154,73.6 152.5,74 151.2,74.9 
				150,76.1 146.9,79.9 143.7,83.6 143.4,83.9 143.2,84.3 142.7,84.7 142.3,84.8 141.8,84.7 141.4,83.8 141.4,82.9 141.5,81.9 
				145.4,56.6 149.2,31.2 149.7,26.9 150.4,22.7 150.7,21.8 151.1,20.9 151.6,20.3 152.4,19.6 153.4,19.3 			"/>
		</g>
	</g>
	<g>
		<g>
			<defs>
				<rect id="SVGID_11_" x="10.8" y="18.8" width="254" height="175.3"/>
			</defs>
			<clipPath id="SVGID_12_">
				<use xlink:href="#SVGID_11_"  style="overflow:visible;"/>
			</clipPath>
			<polygon class="st5" points="153.4,19.3 247,19.3 247.8,20.2 248.2,21.2 248.5,22.3 248.4,23.5 244.8,47.5 241.2,71.6 241,72.9 
				240.5,73.3 239.9,73.4 231.3,73.4 230,73.6 229,73.9 228.1,74.5 227.3,75.3 226.7,76.3 211.6,108.2 208.4,114.8 205.2,121.3 
				205,121.8 204.7,122.4 204.6,122.5 204.4,122.6 204.3,122.8 204.1,123 203.8,123 203.6,122.9 203.4,122.8 203.4,122.6 
				203.4,122.5 203.3,122.3 203.2,122.1 202.8,120.2 197.8,78.8 197.5,77.1 197.2,75.7 196.6,74.7 195.9,74 195,73.6 193.6,73.5 
				191.7,73.4 186,73.4 180.1,73.5 177,73.6 173.9,73.6 170.6,73.5 165.7,73.4 160.8,73.4 155.8,73.4 154,73.6 152.5,74 151.2,74.9 
				150,76.1 146.9,79.9 143.7,83.6 143.4,83.9 143.2,84.3 142.7,84.7 142.3,84.8 141.8,84.7 141.4,83.8 141.4,82.9 141.5,81.9 
				145.4,56.6 149.2,31.2 149.7,26.9 150.4,22.7 150.7,21.8 151.1,20.9 151.6,20.3 152.4,19.6 			"/>
		</g>
	</g>
	<g>
		<g>
			<defs>
				<rect id="SVGID_13_" x="10.8" y="18.8" width="254" height="175.3"/>
			</defs>
			<clipPath id="SVGID_14_">
				<use xlink:href="#SVGID_13_"  style="overflow:visible;"/>
			</clipPath>
			<polyline class="st6" points="145.4,19.3 153.4,19.3 152.3,20.3 151.6,21.3 151.1,22.6 150.7,24 144.6,66.2 141.9,84.8 142,84.8 
				142.1,84.9 142,85 141.1,86.4 140.3,87.7 139.3,89 138.1,90 136.8,91 136.4,90.6 136.4,90.2 136.6,89.8 144.5,36.7 145.5,29.7 
				146.6,22.7 146.6,21.8 146.4,21.2 146,20.5 145.7,19.9 145.4,19.3 			"/>
		</g>
	</g>
	<g>
		<g>
			<defs>
				<rect id="SVGID_15_" x="10.8" y="18.8" width="254" height="175.3"/>
			</defs>
			<clipPath id="SVGID_16_">
				<use xlink:href="#SVGID_15_"  style="overflow:visible;"/>
			</clipPath>
			<polygon class="st7" points="145.4,19.3 153.4,19.3 152.3,20.3 151.6,21.3 151.1,22.6 150.7,24 144.6,66.2 141.9,84.8 142,84.8 
				142.1,84.9 142,85 141.1,86.4 140.3,87.7 139.3,89 138.1,90 136.8,91 136.4,90.6 136.4,90.2 136.6,89.8 144.5,36.7 145.5,29.7 
				146.6,22.7 146.6,21.8 146.4,21.2 146,20.5 145.7,19.9 			"/>
		</g>
	</g>
	<g>
		<g>
			<defs>
				<rect id="SVGID_17_" x="10.8" y="18.8" width="254" height="175.3"/>
			</defs>
			<clipPath id="SVGID_18_">
				<use xlink:href="#SVGID_17_"  style="overflow:visible;"/>
			</clipPath>
			<polyline class="st8" points="241,72.9 245.8,73 247.2,73.1 248.1,73.5 249,74.1 249.4,74.9 249.5,75.9 249.4,76.8 248.9,78.1 
				236.6,101.6 235.9,103.9 235,106.1 233.9,108.1 232.8,110.2 231.6,112.3 221.5,131.5 218.3,137.6 215.1,143.8 212,149.9 
				211.3,151.1 210.4,151.9 209.3,152.6 208.1,152.9 206.7,153 198.7,152.9 190.7,152.9 189.3,152.9 188.1,152.7 187.3,152.3 
				186.7,151.5 186.2,150.5 185.9,149.1 183.3,133.3 180.6,117.4 174.9,82.1 174.8,81.8 174.7,81.4 174.7,81.1 174.6,81 174.6,80.7 
				174.5,80.5 174.5,80.3 174.2,80.1 174,80.1 173.9,80.1 173.6,80.2 173.5,80.4 173.3,80.6 173.1,80.7 173.1,80.9 168.1,86.2 
				163.2,91.7 152.8,103.1 149.4,106.7 146.3,110.4 145.7,111.1 145.5,111.8 145.6,112.4 145.9,113.3 154,128 162.2,142.7 
				164.7,147.4 165.2,148.7 165.4,149.9 165.2,151 164.7,151.8 163.9,152.4 162.8,152.8 161.4,152.9 142.1,153 140.9,152.9 
				139.9,152.7 139,152.1 138.4,151.5 137.7,150.4 136.7,148.1 135.5,145.8 134.4,143.5 133.5,141.1 132.5,138.7 131.4,136.4 
				130.2,134 125.1,123.6 124.7,123.6 123.3,131.6 120.1,149.6 119.8,150.7 119.4,151.5 118.7,152.1 117.8,152.4 116.6,152.5 
				101.2,152.5 100,152.4 99.2,152 98.5,151.5 98.1,150.8 98,149.9 98,148.7 104.5,112.3 110.6,76.9 111,75.5 111.5,74.5 112,73.7 
				112.8,73.3 113.9,73.1 115.3,73 128.9,73 130.4,73.1 131.6,73.4 132.3,74 132.8,74.9 132.9,76 132.8,77.5 129.1,98.9 129,99.2 
				129,99.7 129.1,100.2 131.6,97.3 133.9,94.4 136.2,91.6 136.3,91.4 136.5,91.2 136.7,91 136.9,90.8 138.6,88.8 140.4,86.8 
				141.9,84.8 144.5,82 146.9,79.2 149.3,76.2 150.3,75 151.6,74 152.8,73.4 154.3,73 156,73 163.3,73.1 170.4,73 171.6,73 
				172.6,73.1 173.7,73.2 174.7,73.6 174.9,73.7 175.4,73.7 178.7,73.1 181.8,72.9 185,72.9 188.2,73 191.5,73.1 194.7,73.1 
				195.8,73.2 196.7,73.6 197.3,74.2 197.7,75.1 197.9,76.3 203.4,119.9 203.4,121.3 203.8,122.8 204.6,121.7 205.1,120.6 
				205.7,119.4 215.9,97.8 226.1,76.2 226.9,75 227.7,74 228.7,73.4 229.9,73.1 231.3,73 236.1,73 241,72.9 			"/>
		</g>
	</g>
	<g>
		<g>
			<defs>
				<rect id="SVGID_19_" x="10.8" y="18.8" width="254" height="175.3"/>
			</defs>
			<clipPath id="SVGID_20_">
				<use xlink:href="#SVGID_19_"  style="overflow:visible;"/>
			</clipPath>
			<polygon class="st9" points="241,72.9 245.8,73 247.2,73.1 248.1,73.5 249,74.1 249.3,74.9 249.5,75.9 249.3,76.8 248.9,78.1 
				236.6,101.6 235.9,103.9 235,106.1 233.9,108.1 232.8,110.2 231.6,112.3 221.5,131.5 218.3,137.7 215.1,143.8 212,149.9 
				211.3,151.1 210.4,151.9 209.3,152.6 208.1,152.9 206.7,153 198.7,152.9 190.7,152.9 189.3,152.9 188.1,152.7 187.3,152.3 
				186.7,151.5 186.2,150.5 185.9,149.1 183.3,133.3 180.6,117.4 174.9,82.1 174.8,81.8 174.7,81.4 174.7,81.1 174.6,81 174.6,80.7 
				174.5,80.5 174.5,80.3 174.2,80.1 174,80.1 173.9,80.1 173.6,80.2 173.5,80.4 173.3,80.6 173.1,80.7 173.1,80.9 168.1,86.2 
				163.2,91.7 152.8,103.1 149.4,106.7 146.3,110.4 145.7,111.1 145.5,111.8 145.6,112.4 145.9,113.3 154,128 162.2,142.7 
				164.7,147.4 165.2,148.7 165.4,149.9 165.2,151 164.7,151.8 163.9,152.4 162.8,152.8 161.4,152.9 142.1,153 140.9,152.9 
				139.9,152.7 139,152.1 138.4,151.5 137.7,150.4 136.7,148.1 135.5,145.8 134.4,143.5 133.5,141.1 132.5,138.7 131.4,136.4 
				130.2,134 125.1,123.6 124.7,123.6 123.3,131.6 120.1,149.6 119.8,150.7 119.4,151.5 118.7,152.1 117.8,152.4 116.6,152.5 
				101.2,152.5 100,152.4 99.2,152 98.5,151.5 98.1,150.8 98,149.9 98,148.7 104.5,112.3 110.6,76.9 111,75.5 111.5,74.5 112,73.7 
				112.8,73.3 113.9,73.1 115.3,73 128.9,73 130.4,73.1 131.6,73.4 132.3,74 132.8,74.9 132.9,76 132.8,77.5 129.1,98.9 129,99.2 
				129,99.7 129.1,100.2 131.6,97.3 133.9,94.4 136.2,91.6 136.3,91.4 136.5,91.2 136.7,91 136.9,90.8 138.6,88.8 140.4,86.8 
				141.9,84.8 144.5,82 146.9,79.2 149.3,76.2 150.3,75 151.6,74 152.8,73.4 154.3,73 156,73 163.3,73.1 170.4,73 171.6,73 
				172.6,73.1 173.7,73.2 174.7,73.6 174.9,73.7 175.4,73.7 178.7,73.1 181.8,72.9 185,72.9 188.2,73 191.5,73.1 194.7,73.1 
				195.8,73.2 196.7,73.6 197.3,74.2 197.7,75.1 197.9,76.3 203.4,119.9 203.4,121.3 203.8,122.8 204.6,121.7 205.1,120.6 
				205.7,119.4 215.9,97.8 226.1,76.2 226.9,75 227.7,74 228.7,73.4 229.9,73.1 231.3,73 236.1,73 			"/>
		</g>
	</g>
	<g>
		<g>
			<defs>
				<rect id="SVGID_21_" x="10.8" y="18.8" width="254" height="175.3"/>
			</defs>
			<clipPath id="SVGID_22_">
				<use xlink:href="#SVGID_21_"  style="overflow:visible;"/>
			</clipPath>
			<polyline class="st10" points="79.6,71.8 84.2,71.9 88.7,72.3 93.2,73.1 97.6,74.4 98.7,74.7 99.5,75.2 100.1,75.9 100.3,76.6 
				100.5,77.4 100.3,78.6 97.7,93 97.4,94.4 96.8,95.3 96.1,95.9 95.2,96 94.1,95.9 92.8,95.3 89.5,93.7 86.2,92.6 83,91.8 
				79.8,91.5 76.5,91.6 73.3,92.2 70.1,93.2 66.9,94.7 63.8,96.6 61.5,98.6 59.5,100.6 57.9,102.9 56.5,105.3 55.3,107.9 
				54.5,110.7 53.9,113.6 53.6,116.5 53.4,118.8 53.6,121.2 53.9,123.6 54.7,125.8 55.8,127.7 57.1,129.4 58.5,130.8 60.1,131.9 
				62,132.7 63.9,133.3 66,133.7 69.5,133.9 72.9,133.8 76.3,133.3 79.7,132.5 82.9,131.4 86,130 86.9,129.5 87.9,129.4 88.7,129.5 
				89.6,130 90.3,130.6 90.6,131.4 90.7,132.5 90.6,133.5 88.2,147 88,148.1 87.3,149 86.6,149.6 85.6,150.2 80.5,151.8 75.3,152.9 
				70.1,153.7 65.6,153.9 61,153.8 56.5,153.4 52,152.5 48.8,151.5 45.7,150.3 42.9,148.8 40.4,147 38.1,144.9 36,142.6 34.1,139.8 
				32.7,136.8 32.5,136.5 32.2,136.4 31.2,132.6 30.4,128.8 29.9,124.9 29.9,120.9 30.4,116.4 31.1,112 32.2,107.6 33.6,103.5 
				35.3,99.4 37.4,95.4 38.7,93.2 40.9,90.4 43.3,87.7 45.7,85.2 48.5,82.9 51.3,80.7 55,78.4 58.7,76.4 62.5,74.8 66.6,73.6 
				70.7,72.6 75,72.1 79.6,71.8 			"/>
		</g>
	</g>
	<g>
		<g>
			<defs>
				<rect id="SVGID_23_" x="10.8" y="18.8" width="254" height="175.3"/>
			</defs>
			<clipPath id="SVGID_24_">
				<use xlink:href="#SVGID_23_"  style="overflow:visible;"/>
			</clipPath>
			<polygon class="st11" points="79.6,71.8 84.2,71.9 88.7,72.3 93.2,73.1 97.6,74.4 98.7,74.7 99.5,75.2 100.1,75.9 100.3,76.6 
				100.5,77.4 100.3,78.6 97.7,93 97.4,94.4 96.8,95.3 96.1,95.9 95.2,96 94.1,95.9 92.8,95.3 89.5,93.7 86.2,92.6 83,91.8 
				79.8,91.5 76.5,91.6 73.3,92.2 70.1,93.2 66.9,94.7 63.8,96.6 61.5,98.6 59.5,100.6 57.9,102.9 56.5,105.3 55.3,107.9 
				54.5,110.7 53.9,113.6 53.6,116.5 53.4,118.8 53.6,121.2 53.9,123.6 54.7,125.8 55.8,127.7 57.1,129.4 58.5,130.8 60.1,131.9 
				62,132.7 63.9,133.3 66,133.7 69.5,133.9 72.9,133.8 76.3,133.3 79.7,132.5 82.9,131.4 86,130 86.9,129.5 87.9,129.4 88.7,129.5 
				89.6,130 90.3,130.6 90.6,131.4 90.7,132.5 90.6,133.5 88.2,147 88,148.1 87.3,149 86.6,149.6 85.6,150.2 80.5,151.8 75.3,152.9 
				70.1,153.7 65.6,153.9 61,153.8 56.5,153.4 52,152.5 48.8,151.5 45.7,150.3 42.9,148.8 40.4,147 38.1,144.9 36,142.6 34.1,139.8 
				32.7,136.8 32.5,136.5 32.2,136.4 31.2,132.6 30.4,128.8 29.9,124.9 29.9,120.9 30.4,116.4 31.1,112 32.2,107.6 33.6,103.5 
				35.3,99.4 37.4,95.4 38.7,93.2 40.9,90.4 43.3,87.7 45.7,85.2 48.5,82.9 51.3,80.7 55,78.4 58.7,76.4 62.5,74.8 66.6,73.6 
				70.7,72.6 75,72.1 			"/>
		</g>
	</g>
	<g>
		<g>
			<defs>
				<rect id="SVGID_25_" x="10.8" y="18.8" width="254" height="175.3"/>
			</defs>
			<clipPath id="SVGID_26_">
				<use xlink:href="#SVGID_25_"  style="overflow:visible;"/>
			</clipPath>
			<polyline class="st12" points="136.6,89.8 136.6,89.9 136.7,90 136.7,90.6 136.7,90.8 136.9,90.8 136.8,91.1 136.7,91.3 
				136.4,91.5 136.2,91.6 136.2,90.3 136.6,89.8 			"/>
		</g>
	</g>
	<g>
		<g>
			<defs>
				<rect id="SVGID_27_" x="10.8" y="18.8" width="254" height="175.3"/>
			</defs>
			<clipPath id="SVGID_28_">
				<use xlink:href="#SVGID_27_"  style="overflow:visible;"/>
			</clipPath>
			<polygon class="st13" points="136.6,89.8 136.6,89.9 136.7,90 136.7,90.6 136.7,90.8 136.9,90.8 136.8,91.1 136.7,91.3 
				136.4,91.5 136.2,91.6 136.2,90.3 			"/>
		</g>
	</g>
	<g>
		<g>
			<defs>
				<rect id="SVGID_29_" x="10.8" y="18.8" width="254" height="175.3"/>
			</defs>
			<clipPath id="SVGID_30_">
				<use xlink:href="#SVGID_29_"  style="overflow:visible;"/>
			</clipPath>
			<polyline class="st14" points="174.8,78.4 175.5,82.7 176.3,86.8 182.9,127.8 186.5,149.2 186.8,150.5 187.2,151.5 188,152.1 
				188.9,152.4 190.3,152.5 198.6,152.5 206.9,152.6 208.1,152.5 209.2,152.2 210,151.5 210.8,150.8 211.5,149.7 223.7,126.2 
				236,102.5 236.4,102.1 236.6,101.6 234.4,117.6 229.9,147.7 223.6,190 223.4,191.4 222.7,192.5 221.8,193.2 220.6,193.6 
				219.2,193.8 129.5,193.8 128.2,193.7 127.3,193.4 126.6,192.9 126.2,192 126,191 126.1,189.7 132.8,144.9 133.1,142.9 
				133.5,141.1 135.2,144 136.7,147.1 138.2,150.2 138.9,151.3 139.7,151.9 140.8,152.4 142,152.6 161.4,152.5 162.6,152.4 
				163.6,152 164.3,151.5 164.7,150.7 164.8,149.8 164.7,148.8 164.2,147.6 145.1,112.8 144.8,112.3 144.6,111.8 144.7,111.2 
				145.1,110.7 173.9,79.2 174,79.1 174,78.9 174.3,78.7 174.5,78.6 174.8,78.4 			"/>
		</g>
	</g>
	<g>
		<g>
			<defs>
				<rect id="SVGID_31_" x="10.8" y="18.8" width="254" height="175.3"/>
			</defs>
			<clipPath id="SVGID_32_">
				<use xlink:href="#SVGID_31_"  style="overflow:visible;"/>
			</clipPath>
			<polygon class="st15" points="174.8,78.4 175.5,82.7 176.3,86.8 182.9,127.8 186.5,149.2 186.8,150.5 187.2,151.5 188,152.1 
				188.9,152.4 190.3,152.5 198.6,152.5 206.9,152.6 208.1,152.5 209.2,152.2 210,151.5 210.8,150.8 211.5,149.7 223.7,126.2 
				236,102.5 236.4,102.1 236.6,101.6 234.4,117.6 229.9,147.7 223.6,190 223.4,191.4 222.7,192.5 221.8,193.2 220.6,193.6 
				219.2,193.8 129.5,193.8 128.2,193.7 127.3,193.4 126.6,192.9 126.2,192 126,191 126.1,189.7 132.8,144.9 133.1,142.9 
				133.5,141.1 135.2,144 136.7,147.1 138.2,150.2 138.9,151.3 139.7,151.9 140.8,152.4 142,152.6 161.4,152.5 162.6,152.4 
				163.6,152 164.3,151.5 164.7,150.7 164.8,149.8 164.7,148.8 164.2,147.6 145.1,112.8 144.8,112.3 144.6,111.8 144.7,111.2 
				145.1,110.7 173.9,79.2 174,79.1 174,78.9 174.3,78.7 174.5,78.6 			"/>
		</g>
	</g>
	<g>
		<g>
			<defs>
				<rect id="SVGID_33_" x="10.8" y="18.8" width="254" height="175.3"/>
			</defs>
			<clipPath id="SVGID_34_">
				<use xlink:href="#SVGID_33_"  style="overflow:visible;"/>
			</clipPath>
			<polyline class="st16" points="115.1,75.6 129,75.7 129.6,75.7 130,75.8 130.3,75.9 130.4,76.4 130.3,77.1 127.5,92.3 
				124.8,107.6 124.7,108.1 124.7,108.7 124.6,108.9 124.6,109 124.6,109.2 124.6,109.5 124.7,109.5 124.9,109.5 125.1,109.6 
				129.1,104.5 133.1,99.5 137.3,94.6 141.4,89.7 145.6,84.8 149,80.7 152.3,76.7 153,76 153.7,75.8 154.6,75.6 172.8,75.7 
				172.9,76 172.8,76.4 172.6,76.7 172.3,76.9 157.3,93.5 142.2,109.9 141.8,110.5 141.5,111.2 141.6,111.8 141.9,112.6 
				161.4,148.1 161.8,148.9 162,149.3 162,149.6 161.7,149.8 161.1,149.9 142,149.9 141.3,149.6 140.8,149.1 140.3,148.4 133,133.4 
				125.5,118.5 124.9,117 124.4,115.5 123.8,113.7 122.2,122.7 120.6,131.5 119,140.3 118.3,144.5 117.6,148.7 117.5,149.2 
				117.2,149.6 116.8,149.8 116.2,149.9 101.1,149.9 100.8,149.7 100.7,149.3 100.8,148.7 103.9,130.7 107,112.7 110.2,95 
				113.3,77.2 113.5,76.4 113.8,75.9 114.3,75.7 115.1,75.6 			"/>
		</g>
	</g>
	<g>
		<g>
			<defs>
				<rect id="SVGID_35_" x="10.8" y="18.8" width="254" height="175.3"/>
			</defs>
			<clipPath id="SVGID_36_">
				<use xlink:href="#SVGID_35_"  style="overflow:visible;"/>
			</clipPath>
			<polygon class="st17" points="115.1,75.6 129,75.7 129.6,75.7 130,75.8 130.3,75.9 130.4,76.4 130.3,77.1 127.5,92.3 
				124.8,107.6 124.7,108.1 124.7,108.7 124.6,108.9 124.6,109 124.6,109.2 124.6,109.5 124.7,109.5 124.9,109.5 125.1,109.6 
				129.1,104.5 133.1,99.5 137.3,94.6 141.4,89.7 145.6,84.8 149,80.7 152.3,76.7 153,76 153.7,75.8 154.6,75.6 172.8,75.7 
				172.9,76 172.8,76.4 172.6,76.7 172.3,76.9 157.3,93.5 142.2,109.9 141.8,110.5 141.5,111.2 141.6,111.8 141.9,112.6 
				161.4,148.1 161.8,148.9 162,149.3 162,149.6 161.7,149.8 161.1,149.9 142,149.9 141.3,149.6 140.8,149.1 140.3,148.4 133,133.4 
				125.5,118.5 124.9,117 124.4,115.5 123.8,113.7 122.2,122.7 120.6,131.5 119,140.3 118.3,144.5 117.6,148.7 117.5,149.2 
				117.2,149.6 116.8,149.8 116.2,149.9 101.1,149.9 100.8,149.7 100.7,149.3 100.8,148.7 103.9,130.7 107,112.7 110.2,95 
				113.3,77.2 113.5,76.4 113.8,75.9 114.3,75.7 			"/>
		</g>
	</g>
	<g>
		<g>
			<defs>
				<rect id="SVGID_37_" x="10.8" y="18.8" width="254" height="175.3"/>
			</defs>
			<clipPath id="SVGID_38_">
				<use xlink:href="#SVGID_37_"  style="overflow:visible;"/>
			</clipPath>
			<polyline class="st18" points="231,75.6 238.9,75.7 247.1,75.7 245.3,79 243.7,82.1 209.1,148.5 208.7,149.1 208.1,149.6 
				207.6,149.9 198.7,149.9 190.8,150 189.9,149.8 189.4,149.6 189.1,149 188.9,148.2 184.6,121.9 179.5,90.8 177.3,76.8 
				177.2,76.5 177.2,76 177.3,75.9 177.3,75.9 177.5,75.7 178,75.7 194.1,75.6 194.7,75.7 195,75.9 195.2,76.2 195.3,76.5 195.3,77 
				197.5,94.4 200.8,120.7 201.2,123.9 201.6,127.2 202,130.5 202,133.8 204.1,128.7 206.5,123.6 209,118.6 211.3,113.6 219.9,95.4 
				228.6,77.2 229,76.4 229.5,75.9 230.2,75.7 231,75.6 			"/>
		</g>
	</g>
	<g>
		<g>
			<defs>
				<rect id="SVGID_39_" x="10.8" y="18.8" width="254" height="175.3"/>
			</defs>
			<clipPath id="SVGID_40_">
				<use xlink:href="#SVGID_39_"  style="overflow:visible;"/>
			</clipPath>
			<polygon class="st19" points="231,75.6 238.9,75.7 247.1,75.7 245.3,79 243.7,82.1 209.1,148.5 208.7,149.1 208.1,149.6 
				207.6,149.9 198.7,149.9 190.8,150 189.9,149.8 189.4,149.6 189.1,149 188.9,148.2 184.6,121.9 179.5,90.8 177.3,76.8 
				177.2,76.5 177.2,76 177.3,75.9 177.3,75.9 177.5,75.7 178,75.7 194.1,75.6 194.7,75.7 195,75.9 195.2,76.2 195.3,76.5 195.3,77 
				197.5,94.4 200.8,120.7 201.2,123.9 201.6,127.2 202,130.5 202,133.8 204.1,128.7 206.5,123.6 209,118.6 211.3,113.6 219.9,95.4 
				228.6,77.2 229,76.4 229.5,75.9 230.2,75.7 			"/>
		</g>
	</g>
	<g>
		<g>
			<defs>
				<rect id="SVGID_41_" x="10.8" y="18.8" width="254" height="175.3"/>
			</defs>
			<clipPath id="SVGID_42_">
				<use xlink:href="#SVGID_41_"  style="overflow:visible;"/>
			</clipPath>
			<polyline class="st20" points="124.7,108.7 125.1,109.6 125,109.8 124.9,109.9 124.8,110.1 124.7,110.2 124.6,110.3 124.6,110.3 
				124.4,109.8 124.5,109.3 124.7,108.7 			"/>
		</g>
	</g>
	<g>
		<g>
			<defs>
				<rect id="SVGID_43_" x="10.8" y="18.8" width="254" height="175.3"/>
			</defs>
			<clipPath id="SVGID_44_">
				<use xlink:href="#SVGID_43_"  style="overflow:visible;"/>
			</clipPath>
			<polygon class="st21" points="124.7,108.7 125.1,109.6 125,109.8 124.9,109.9 124.8,110.1 124.7,110.2 124.6,110.3 124.6,110.3 
				124.4,109.8 124.5,109.3 			"/>
		</g>
	</g>
	<g>
		<g>
			<defs>
				<rect id="SVGID_45_" x="10.8" y="18.8" width="254" height="175.3"/>
			</defs>
			<clipPath id="SVGID_46_">
				<use xlink:href="#SVGID_45_"  style="overflow:visible;"/>
			</clipPath>
			<polyline class="st22" points="79.3,74.5 83.6,74.5 88,74.9 92.2,75.6 96.4,76.7 97.1,76.9 97.5,77.3 97.7,77.8 97.7,78.5 
				96.3,86 95.1,93.5 91.6,91.7 88.2,90.3 84.6,89.4 81.1,89 77.5,88.9 73.9,89.4 70.4,90.3 67.2,91.5 64.3,93 61.7,94.7 59.4,96.7 
				57.4,98.9 55.6,101.5 54.1,104.1 52.9,107.1 51.9,110.2 51.3,113.5 50.9,116.2 50.7,119.1 50.9,121.9 51.5,124.7 52.4,127.1 
				53.7,129.2 55.1,131.2 56.8,132.8 58.7,134.2 60.9,135.2 63.3,136.1 65.8,136.4 69.5,136.6 73.1,136.4 76.6,136 80.2,135.1 
				83.5,133.9 86.9,132.5 87.5,132.3 88.2,131.9 87.3,136.9 86.5,141.7 86.2,143.1 86,144.5 85.9,145.5 85.7,146.4 85.2,147.1 
				84.5,147.7 83.7,148.1 82.8,148.4 78.5,149.6 74.2,150.4 70,151 65.7,151.4 61.5,151.3 57.2,150.9 52.9,150 48.7,148.7 
				45.9,147.4 43.3,145.9 41,144 38.9,141.9 37.2,139.6 35.6,137 34.4,134.3 33.5,131.5 32.8,128.6 32.6,125.5 32.7,121.3 
				32.9,117.1 33.6,113 34.4,109 35.7,105.2 37.3,101.4 39.2,97.8 41.4,94.3 44.1,91 46.8,87.9 49.8,85.2 52.8,82.8 56.2,80.6 
				59.7,78.8 63.3,77.3 67,76.1 70.9,75.3 75.1,74.7 79.3,74.5 			"/>
		</g>
	</g>
	<g>
		<g>
			<defs>
				<rect id="SVGID_47_" x="10.8" y="18.8" width="254" height="175.3"/>
			</defs>
			<clipPath id="SVGID_48_">
				<use xlink:href="#SVGID_47_"  style="overflow:visible;"/>
			</clipPath>
			<polygon class="st23" points="79.3,74.5 83.6,74.5 88,74.9 92.2,75.6 96.4,76.7 97.1,76.9 97.5,77.3 97.7,77.8 97.7,78.5 
				96.3,86 95.1,93.5 91.6,91.7 88.2,90.3 84.6,89.4 81.1,89 77.5,88.9 73.9,89.4 70.4,90.3 67.2,91.5 64.3,93 61.7,94.7 59.4,96.7 
				57.4,98.9 55.6,101.5 54.1,104.1 52.9,107.1 51.9,110.2 51.3,113.5 50.9,116.2 50.7,119.1 50.9,121.9 51.5,124.7 52.4,127.1 
				53.7,129.2 55.1,131.2 56.8,132.8 58.7,134.2 60.9,135.2 63.3,136.1 65.8,136.4 69.5,136.6 73.1,136.4 76.6,136 80.2,135.1 
				83.5,133.9 86.9,132.5 87.5,132.3 88.2,131.9 87.3,136.9 86.5,141.7 86.2,143.1 86,144.5 85.9,145.5 85.7,146.4 85.2,147.1 
				84.5,147.7 83.7,148.1 82.8,148.4 78.5,149.6 74.2,150.4 70,151 65.7,151.4 61.5,151.3 57.2,150.9 52.9,150 48.7,148.7 
				45.9,147.4 43.3,145.9 41,144 38.9,141.9 37.2,139.6 35.6,137 34.4,134.3 33.5,131.5 32.8,128.6 32.6,125.5 32.7,121.3 
				32.9,117.1 33.6,113 34.4,109 35.7,105.2 37.3,101.4 39.2,97.8 41.4,94.3 44.1,91 46.8,87.9 49.8,85.2 52.8,82.8 56.2,80.6 
				59.7,78.8 63.3,77.3 67,76.1 70.9,75.3 75.1,74.7 			"/>
		</g>
	</g>
</g>
</svg>
