<svg xmlns="http://www.w3.org/2000/svg" width="55.117" height="50.287" viewBox="0 0 55.117 50.287">
  <g id="Group_61" data-name="Group 61" transform="translate(-99.996 -26.701)">
    <path id="Path_42" data-name="Path 42" d="M101.118,453.09h52.873a1.122,1.122,0,0,1,1.122,1.122v1.04a1.122,1.122,0,0,1-1.122,1.122H101.118A1.122,1.122,0,0,1,100,455.253v-1.04A1.122,1.122,0,0,1,101.118,453.09Z" transform="translate(0 -379.387)" fill="#1e90ff"/>
    <path id="Path_43" data-name="Path 43" d="M116.942,422.55h49.384a1.122,1.122,0,0,1,1.122,1.122h0a1.122,1.122,0,0,1-1.122,1.122H116.942a1.122,1.122,0,0,1-1.122-1.122h0A1.122,1.122,0,0,1,116.942,422.55Z" transform="translate(-14.08 -352.213)" fill="#1e90ff"/>
    <path id="Path_44" data-name="Path 44" d="M129.95,392H176.4a1.142,1.142,0,0,1,1.161,1.122h0a1.142,1.142,0,0,1-1.161,1.122H129.95a1.142,1.142,0,0,1-1.161-1.122h0A1.142,1.142,0,0,1,129.95,392Z" transform="translate(-25.619 -325.031)" fill="#1e90ff"/>
    <path id="Path_45" data-name="Path 45" d="M137.3,162.91h44.9a1.122,1.122,0,0,1,1.122,1.122h0a1.122,1.122,0,0,1-1.122,1.122H137.3a1.122,1.122,0,0,1-1.122-1.122h0A1.122,1.122,0,0,1,137.3,162.91Z" transform="translate(-32.195 -121.194)" fill="#1e90ff"/>
    <path id="Path_46" data-name="Path 46" d="M159.229,26.824,136.766,38.055a1.061,1.061,0,0,0-.586.949V40.39a.2.2,0,0,0,.2.2h46.734a.2.2,0,0,0,.2-.2V39a1.061,1.061,0,0,0-.586-.949L160.271,26.824A1.166,1.166,0,0,0,159.229,26.824Zm.75,8.707a2.245,2.245,0,1,1,2-2A2.245,2.245,0,0,1,159.979,35.531Z" transform="translate(-32.195)" fill="#1e90ff"/>
    <path id="Path_47" data-name="Path 47" d="M136.18,214.779h6.173l-1.123-2.245V195.7l1.123-2.245H136.18L137.3,195.7v16.836Z" transform="translate(-32.195 -148.371)" fill="#ffbf00"/>
    <path id="Path_48" data-name="Path 48" d="M266.233,193.45H260.06l1.123,2.245v16.836l-1.123,2.245h6.173l-1.122-2.245V195.695Z" transform="translate(-142.42 -148.368)" fill="#ffbf00"/>
    <path id="Path_49" data-name="Path 49" d="M390.113,193.45H383.94l1.122,2.245v16.836l-1.122,2.245h6.173l-1.123-2.245V195.695Z" transform="translate(-252.644 -148.368)" fill="#ffbf00"/>
    <path id="Path_50" data-name="Path 50" d="M513.993,193.45H507.82l1.123,2.245v16.836l-1.123,2.245h6.173l-1.122-2.245V195.695Z" transform="translate(-362.868 -148.368)" fill="#ffbf00"/>
  </g>
</svg>
