<?xml version="1.0" encoding="UTF-8"?>
<svg xmlns="http://www.w3.org/2000/svg" id="Livello_1" data-name="Livello 1" viewBox="0 0 169.875 49.384">
  <defs>
    <style>.cls-1{fill:#0e1c30;}</style>
  </defs>
  <path class="cls-1" d="M3.284,38.4a3.292,3.292,0,0,1,1.489.323,2.338,2.338,0,0,1,1,.916,2.922,2.922,0,0,1-.006,2.777,2.372,2.372,0,0,1-.995.922,3.242,3.242,0,0,1-1.483.323H1.062v3.284H0V38.4ZM1.062,42.682H3.186a1.93,1.93,0,0,0,1.343-.452,1.708,1.708,0,0,0,.006-2.411A1.921,1.921,0,0,0,3.2,39.373H1.062Z"></path>
  <path class="cls-1" d="M7.105,38.4h1v8.545h-1Z"></path>
  <path class="cls-1" d="M14.832,40.716v6.226h-.866l-.135-.83a2.381,2.381,0,0,1-1.99.9,2.385,2.385,0,0,1-1.782-.684,2.968,2.968,0,0,1-.671-2.149V40.716h1v3.406a2.245,2.245,0,0,0,.421,1.471,1.474,1.474,0,0,0,1.2.507,1.607,1.607,0,0,0,1.337-.611,2.608,2.608,0,0,0,.482-1.66V40.716Z"></path>
  <path class="cls-1" d="M16.981,44.891a1.164,1.164,0,0,0,.494.916,2.279,2.279,0,0,0,2.283.091.789.789,0,0,0,.409-.689.762.762,0,0,0-.2-.562,1.033,1.033,0,0,0-.507-.268q-.311-.074-.885-.147a7.694,7.694,0,0,1-1.318-.256,1.824,1.824,0,0,1-.83-.507,1.366,1.366,0,0,1-.318-.958,1.621,1.621,0,0,1,.311-.977,2.049,2.049,0,0,1,.849-.665,3.3,3.3,0,0,1,3,.275,1.909,1.909,0,0,1,.763,1.464h-1a1.167,1.167,0,0,0-.476-.8,1.658,1.658,0,0,0-1.038-.318,1.805,1.805,0,0,0-1.025.263.8.8,0,0,0-.391.69.636.636,0,0,0,.183.488.97.97,0,0,0,.47.232c.191.041.482.085.873.134a7.332,7.332,0,0,1,1.349.269,1.831,1.831,0,0,1,.854.549,1.523,1.523,0,0,1,.324,1.025,1.572,1.572,0,0,1-.33.989,2.1,2.1,0,0,1-.891.659,3.222,3.222,0,0,1-1.245.233,3.156,3.156,0,0,1-1.959-.562,1.881,1.881,0,0,1-.751-1.563Z"></path>
  <path class="cls-1" d="M23.347,46.02a1.467,1.467,0,0,1,.263.886,1.611,1.611,0,0,1-.458,1.22,1.832,1.832,0,0,1-1.264.464v-.573a.994.994,0,0,0,.782-.306,1.022,1.022,0,0,0,.244-.671.747.747,0,0,0-.012-.159.562.562,0,0,1-.415.147.652.652,0,0,1-.464-.171.636.636,0,0,1-.183-.488.667.667,0,0,1,.213-.507.906.906,0,0,1,1.294.158Z"></path>
  <path class="cls-1" d="M28.322,40.716v-.7a1.7,1.7,0,0,1,.384-1.226,1.662,1.662,0,0,1,1.239-.4h1.148v.915H30.006a.58.58,0,0,0-.683.684v.72h1.758v.916H29.323v5.31h-1v-5.31H27.2v-.916Z"></path>
  <path class="cls-1" d="M32.735,46.612a2.813,2.813,0,0,1-1.093-1.123,3.728,3.728,0,0,1,0-3.32,2.819,2.819,0,0,1,1.093-1.123,3.4,3.4,0,0,1,3.211,0,2.817,2.817,0,0,1,1.092,1.123,3.719,3.719,0,0,1,0,3.32,2.81,2.81,0,0,1-1.092,1.123,3.392,3.392,0,0,1-3.211,0Zm2.686-.781a1.946,1.946,0,0,0,.726-.818,2.866,2.866,0,0,0,0-2.368,1.952,1.952,0,0,0-.726-.818,2.139,2.139,0,0,0-2.161,0,1.947,1.947,0,0,0-.727.818,2.866,2.866,0,0,0,0,2.368,1.941,1.941,0,0,0,.727.818,2.139,2.139,0,0,0,2.161,0Z"></path>
  <path class="cls-1" d="M41.738,40.716v.977h-.5a1.4,1.4,0,0,0-1.276.6,2.68,2.68,0,0,0-.384,1.477v3.174h-1V40.716h.867l.134.94a2.075,2.075,0,0,1,.7-.683,2.3,2.3,0,0,1,1.184-.257Z"></path>
  <path class="cls-1" d="M46.291,40.716,48.208,45.8l1.855-5.079h1.063l-2.869,7.276a5.836,5.836,0,0,1-.391.843,1.1,1.1,0,0,1-.427.414,1.474,1.474,0,0,1-.684.135h-1.2v-.916h.891a1.2,1.2,0,0,0,.44-.061.531.531,0,0,0,.238-.2,3.153,3.153,0,0,0,.225-.47l.318-.745-2.442-6.275Z"></path>
  <path class="cls-1" d="M52.89,46.612A2.806,2.806,0,0,1,51.8,45.489a3.719,3.719,0,0,1,0-3.32,2.813,2.813,0,0,1,1.093-1.123,3.4,3.4,0,0,1,3.21,0,2.819,2.819,0,0,1,1.093,1.123,3.719,3.719,0,0,1,0,3.32A2.813,2.813,0,0,1,56.1,46.612a3.39,3.39,0,0,1-3.21,0Zm2.685-.781a1.941,1.941,0,0,0,.727-.818,2.866,2.866,0,0,0,0-2.368,1.947,1.947,0,0,0-.727-.818,2.139,2.139,0,0,0-2.161,0,1.952,1.952,0,0,0-.726.818,2.866,2.866,0,0,0,0,2.368,1.946,1.946,0,0,0,.726.818,2.139,2.139,0,0,0,2.161,0Z"></path>
  <path class="cls-1" d="M64.09,40.716v6.226h-.867l-.134-.83a2.652,2.652,0,0,1-3.772.22,2.968,2.968,0,0,1-.671-2.149V40.716h1v3.406a2.245,2.245,0,0,0,.421,1.471,1.474,1.474,0,0,0,1.2.507,1.607,1.607,0,0,0,1.337-.611,2.608,2.608,0,0,0,.482-1.66V40.716Z"></path>
  <path class="cls-1" d="M68.619,40.716v.977h-.5a1.4,1.4,0,0,0-1.276.6,2.681,2.681,0,0,0-.385,1.477v3.174h-1V40.716h.867l.134.94a2.085,2.085,0,0,1,.7-.683,2.306,2.306,0,0,1,1.185-.257Z"></path>
  <path class="cls-1" d="M77.415,41.022a2.654,2.654,0,0,1,1.062,1.1,3.584,3.584,0,0,1,.385,1.709,3.474,3.474,0,0,1-.385,1.66,2.8,2.8,0,0,1-1.068,1.123,2.971,2.971,0,0,1-1.538.4,2.813,2.813,0,0,1-1.294-.275,2.129,2.129,0,0,1-.843-.751l-.134.952h-.867V38.4h1v3.32a2.5,2.5,0,0,1,2.137-1.074A3.1,3.1,0,0,1,77.415,41.022Zm-.146,4.462a2.7,2.7,0,0,0,0-3.309,1.9,1.9,0,0,0-1.5-.641,2.009,2.009,0,0,0-1.068.287,1.913,1.913,0,0,0-.726.806,2.622,2.622,0,0,0-.257,1.178,2.727,2.727,0,0,0,.257,1.2,1.939,1.939,0,0,0,.726.824,1.969,1.969,0,0,0,1.068.293A1.9,1.9,0,0,0,77.269,45.484Z"></path>
  <path class="cls-1" d="M85.368,40.716v6.226H84.5l-.134-.83a2.652,2.652,0,0,1-3.772.22,2.968,2.968,0,0,1-.671-2.149V40.716h1v3.406a2.245,2.245,0,0,0,.422,1.471,1.474,1.474,0,0,0,1.2.507,1.607,1.607,0,0,0,1.337-.611,2.608,2.608,0,0,0,.482-1.66V40.716Z"></path>
  <path class="cls-1" d="M87.517,44.891a1.164,1.164,0,0,0,.494.916,2.279,2.279,0,0,0,2.283.091.791.791,0,0,0,.409-.689.758.758,0,0,0-.2-.562A1.03,1.03,0,0,0,90,44.379q-.312-.074-.885-.147a7.708,7.708,0,0,1-1.319-.256,1.835,1.835,0,0,1-.83-.507,1.371,1.371,0,0,1-.317-.958,1.621,1.621,0,0,1,.311-.977,2.049,2.049,0,0,1,.849-.665,3.3,3.3,0,0,1,3,.275,1.913,1.913,0,0,1,.763,1.464h-1a1.171,1.171,0,0,0-.476-.8,1.658,1.658,0,0,0-1.038-.318,1.805,1.805,0,0,0-1.025.263.8.8,0,0,0-.391.69.636.636,0,0,0,.183.488.97.97,0,0,0,.47.232c.191.041.482.085.873.134a7.332,7.332,0,0,1,1.349.269,1.831,1.831,0,0,1,.854.549,1.523,1.523,0,0,1,.324,1.025,1.572,1.572,0,0,1-.33.989,2.114,2.114,0,0,1-.891.659,3.226,3.226,0,0,1-1.245.233,3.156,3.156,0,0,1-1.959-.562,1.881,1.881,0,0,1-.751-1.563Z"></path>
  <path class="cls-1" d="M93.791,38.494a.678.678,0,1,1-.463-.183A.63.63,0,0,1,93.791,38.494Zm-.964,2.222h1v6.226h-1Z"></path>
  <path class="cls-1" d="M100.072,41.327a2.916,2.916,0,0,1,.69,2.148v3.467h-1V43.536a2.209,2.209,0,0,0-.433-1.471,1.561,1.561,0,0,0-1.252-.507,1.685,1.685,0,0,0-1.379.611,2.539,2.539,0,0,0-.5,1.66v3.113h-1V40.716h.867l.134.842a2.437,2.437,0,0,1,2.051-.915A2.479,2.479,0,0,1,100.072,41.327Z"></path>
  <path class="cls-1" d="M102.2,42.157a2.709,2.709,0,0,1,1.044-1.117,2.961,2.961,0,0,1,1.538-.4,3.149,3.149,0,0,1,1.514.354,2.575,2.575,0,0,1,1.038,1.026,3.339,3.339,0,0,1,.4,1.574c0,.09-.008.232-.024.427h-4.834v.086a2.089,2.089,0,0,0,.561,1.465,1.876,1.876,0,0,0,1.4.549,1.913,1.913,0,0,0,1.142-.335,1.613,1.613,0,0,0,.628-.934h1.014a2.593,2.593,0,0,1-.916,1.556,2.727,2.727,0,0,1-1.794.6,3.227,3.227,0,0,1-1.624-.4,2.741,2.741,0,0,1-1.081-1.123,3.513,3.513,0,0,1-.384-1.667A3.592,3.592,0,0,1,102.2,42.157Zm4.5,1.037a1.754,1.754,0,0,0-.592-1.233,1.967,1.967,0,0,0-1.313-.439,1.848,1.848,0,0,0-1.245.464,1.762,1.762,0,0,0-.61,1.208Z"></path>
  <path class="cls-1" d="M109.637,44.891a1.164,1.164,0,0,0,.494.916,2.279,2.279,0,0,0,2.283.091.789.789,0,0,0,.409-.689.762.762,0,0,0-.195-.562,1.033,1.033,0,0,0-.507-.268c-.207-.049-.5-.1-.885-.147a7.694,7.694,0,0,1-1.318-.256,1.824,1.824,0,0,1-.83-.507,1.366,1.366,0,0,1-.318-.958,1.621,1.621,0,0,1,.311-.977,2.049,2.049,0,0,1,.849-.665,3.3,3.3,0,0,1,3,.275,1.909,1.909,0,0,1,.763,1.464h-1a1.171,1.171,0,0,0-.476-.8,1.658,1.658,0,0,0-1.038-.318,1.805,1.805,0,0,0-1.025.263.8.8,0,0,0-.391.69.636.636,0,0,0,.183.488.97.97,0,0,0,.47.232c.191.041.482.085.873.134a7.332,7.332,0,0,1,1.349.269,1.831,1.831,0,0,1,.854.549,1.523,1.523,0,0,1,.324,1.025,1.572,1.572,0,0,1-.33.989,2.108,2.108,0,0,1-.891.659,3.222,3.222,0,0,1-1.245.233,3.156,3.156,0,0,1-1.959-.562,1.881,1.881,0,0,1-.751-1.563Z"></path>
  <path class="cls-1" d="M115.607,44.891a1.164,1.164,0,0,0,.494.916,2.279,2.279,0,0,0,2.283.091.791.791,0,0,0,.409-.689.762.762,0,0,0-.2-.562,1.034,1.034,0,0,0-.506-.268q-.312-.074-.885-.147a7.688,7.688,0,0,1-1.319-.256,1.83,1.83,0,0,1-.83-.507,1.366,1.366,0,0,1-.317-.958,1.621,1.621,0,0,1,.311-.977,2.046,2.046,0,0,1,.848-.665,2.951,2.951,0,0,1,1.209-.238,2.921,2.921,0,0,1,1.789.513,1.913,1.913,0,0,1,.763,1.464h-1a1.163,1.163,0,0,0-.476-.8,1.653,1.653,0,0,0-1.037-.318,1.811,1.811,0,0,0-1.026.263.8.8,0,0,0-.39.69.636.636,0,0,0,.183.488.97.97,0,0,0,.47.232c.191.041.482.085.873.134a7.35,7.35,0,0,1,1.349.269,1.836,1.836,0,0,1,.854.549,1.523,1.523,0,0,1,.324,1.025,1.572,1.572,0,0,1-.33.989,2.114,2.114,0,0,1-.891.659,3.229,3.229,0,0,1-1.245.233,3.161,3.161,0,0,1-1.96-.562,1.886,1.886,0,0,1-.751-1.563Z"></path>
  <path class="cls-1" d="M120.892,45.837a.759.759,0,0,1,1,0,.725.725,0,0,1,0,.989.756.756,0,0,1-1,0,.725.725,0,0,1,0-.989Z"></path>
  <path class="cls-1" d="M12.251,24.579a6.675,6.675,0,0,1-3.976,1.006H2.824V17.824H8.275a6.615,6.615,0,0,1,3.96,1.022,3.425,3.425,0,0,1,1.4,2.94,3.264,3.264,0,0,1-1.379,2.793M2.824,7.983H8.178a5.275,5.275,0,0,1,3.392.959,3.255,3.255,0,0,1,1.184,2.679,3.283,3.283,0,0,1-1.2,2.7,5.237,5.237,0,0,1-3.376.974H2.824Zm8.7,8.477a5.472,5.472,0,0,0,3.018-1.835A5.21,5.21,0,0,0,15.577,11.3a5.207,5.207,0,0,0-1.963-4.319A8.752,8.752,0,0,0,8.049,5.418H0V28.151H8.275a9.711,9.711,0,0,0,6.118-1.672,5.528,5.528,0,0,0,2.126-4.595q0-4.482-5-5.424"></path>
  <path class="cls-1" d="M30.273,21.282a4.462,4.462,0,0,1-1.419,3.45,5.531,5.531,0,0,1-3.892,1.3,4.274,4.274,0,0,1-2.671-.759,2.41,2.41,0,0,1-.99-2.013q0-2.805,3.76-2.806h5.212Zm2.705,3.169V17.188a5.714,5.714,0,0,0-1.765-4.5,7.278,7.278,0,0,0-5-1.568A8.152,8.152,0,0,0,21.284,12.5a5.347,5.347,0,0,0-2.193,3.861h2.7A3.209,3.209,0,0,1,23.2,14.3a5.018,5.018,0,0,1,2.887-.777,4.672,4.672,0,0,1,3.084.925,3.175,3.175,0,0,1,1.105,2.575v1.155H25.325a8.03,8.03,0,0,0-5.03,1.354,4.652,4.652,0,0,0-1.732,3.894,4.312,4.312,0,0,0,1.7,3.6,7.137,7.137,0,0,0,4.5,1.32,6.439,6.439,0,0,0,5.641-2.806,2.662,2.662,0,0,0,.726,1.948,3.288,3.288,0,0,0,2.308.66h1.485V25.672H34.1q-1.122,0-1.121-1.221"></path>
  <path class="cls-1" d="M45.248,11.115a6.578,6.578,0,0,0-5.541,2.476l-.363-2.278H37V28.148h2.7V19.731a6.876,6.876,0,0,1,1.352-4.49,4.562,4.562,0,0,1,3.728-1.65,4.208,4.208,0,0,1,3.381,1.369,5.972,5.972,0,0,1,1.171,3.979v9.209h2.7V18.773q0-3.96-1.865-5.809a6.691,6.691,0,0,0-4.931-1.849"></path>
  <path class="cls-1" d="M62.473,13.525a4.852,4.852,0,0,1,3.034.957,4.473,4.473,0,0,1,1.65,2.575h2.737A7,7,0,0,0,67.47,12.7a7.459,7.459,0,0,0-4.9-1.585,8.563,8.563,0,0,0-4.321,1.073,7.426,7.426,0,0,0-2.92,3.02A9.4,9.4,0,0,0,54.293,19.7,9.617,9.617,0,0,0,55.315,24.2a7.465,7.465,0,0,0,2.87,3.053,8.282,8.282,0,0,0,4.288,1.089,7.526,7.526,0,0,0,4.947-1.6,7.2,7.2,0,0,0,2.474-4.407h-2.7a4.351,4.351,0,0,1-1.617,2.641,5.364,5.364,0,0,1-7.008-.775,6.634,6.634,0,0,1-1.5-4.507,6.52,6.52,0,0,1,1.5-4.456,4.943,4.943,0,0,1,3.908-1.716"></path>
  <path class="cls-1" d="M83.47,21.282a4.462,4.462,0,0,1-1.419,3.45,5.531,5.531,0,0,1-3.892,1.3,4.279,4.279,0,0,1-2.672-.759,2.409,2.409,0,0,1-.989-2.013q0-2.805,3.76-2.806H83.47Zm2.7,3.169V17.188a5.713,5.713,0,0,0-1.764-4.5,7.281,7.281,0,0,0-5-1.568A8.148,8.148,0,0,0,74.481,12.5a5.347,5.347,0,0,0-2.193,3.861h2.7a3.209,3.209,0,0,1,1.4-2.062,5.017,5.017,0,0,1,2.886-.777,4.668,4.668,0,0,1,3.084.925,3.172,3.172,0,0,1,1.106,2.575v1.155H78.522a8.036,8.036,0,0,0-5.031,1.354,4.651,4.651,0,0,0-1.731,3.894,4.311,4.311,0,0,0,1.7,3.6,7.142,7.142,0,0,0,4.5,1.32A6.437,6.437,0,0,0,83.6,25.54a2.666,2.666,0,0,0,.726,1.948,3.292,3.292,0,0,0,2.309.66h1.485V25.672H87.3q-1.122,0-1.122-1.221"></path>
  <path class="cls-1" d="M125.288,6.107H146.05a.4.4,0,0,0,.4-.4V.4a.4.4,0,0,0-.4-.4H130.586a5.7,5.7,0,0,0-5.7,5.7v0a.4.4,0,0,0,.4.4"></path>
  <path class="cls-1" d="M110.311,6.175a7.932,7.932,0,0,1,5.794,2.835.392.392,0,0,0,.431.122l5.275-1.823a.412.412,0,0,0,.219-.6A14.1,14.1,0,0,0,109.724,0a14.133,14.133,0,0,0,.3,28.262,14.1,14.1,0,0,0,12.007-6.709.411.411,0,0,0-.219-.6l-5.273-1.823a.4.4,0,0,0-.432.123A7.949,7.949,0,0,1,102.067,14a8.067,8.067,0,0,1,8.244-7.828"></path>
  <path class="cls-1" d="M143.429,17.187v-.062a6.046,6.046,0,0,1,6.011-6.046h4.9V2.061a.413.413,0,0,1,.4-.421h5.3a.413.413,0,0,1,.4.421v9.018h9.027a.4.4,0,0,1,.4.4v5.3a.4.4,0,0,1-.4.4h-9.027v9.036a.4.4,0,0,1-.4.4h-5.3a.4.4,0,0,1-.4-.4V17.187Z"></path>
  <path class="cls-1" d="M141.894,17.124a6.951,6.951,0,0,1,3.546-6.045H130.585a5.7,5.7,0,0,0-5.7,5.7v10.94a.4.4,0,0,0,.4.4h5.3a.4.4,0,0,0,.4-.4V17.187h10.906Z"></path>
</svg>
