<svg xmlns="http://www.w3.org/2000/svg" width="42.346" height="50.287" viewBox="0 0 42.346 50.287">
  <g id="Group_14413" data-name="Group 14413" transform="translate(-928.999 -1823.713)">
    <rect id="Rectangle_47" data-name="Rectangle 47" width="27" height="22" transform="translate(936 1838)" fill="#f59a23"/>
    <g id="Group_62" data-name="Group 62" transform="translate(765.984 1765.197)">
      <path id="Path_51" data-name="Path 51" d="M205.322,71.446c0-1.334-.063-2.668-.063-3.876a1.776,1.776,0,0,0-1.779-1.779c-7.5,0-13.278-2.16-18.043-6.8a1.848,1.848,0,0,0-2.478,0c-4.765,4.638-10.483,6.8-18.043,6.8a1.776,1.776,0,0,0-1.779,1.779c0,1.207,0,2.541-.063,3.876-.254,12.643-.572,29.924,20.458,37.231a1.858,1.858,0,0,0,.572.127.943.943,0,0,0,.572-.127c21.155-7.307,20.839-24.587,20.648-37.231Zm-12.58,8.577-9.721,9.721a1.773,1.773,0,0,1-1.271.508,2.016,2.016,0,0,1-1.271-.508l-4.829-4.829a1.752,1.752,0,1,1,2.478-2.478l3.622,3.622,8.513-8.513a1.752,1.752,0,0,1,2.478,2.477Z" transform="translate(0)" fill="#005091"/>
    </g>
  </g>
</svg>
