<?xml version="1.0" encoding="utf-8"?>
<!-- Generator: Adobe Illustrator 24.1.2, SVG Export Plug-In . SVG Version: 6.00 Build 0)  -->
<svg version="1.1" id="Layer_1" xmlns="http://www.w3.org/2000/svg" xmlns:xlink="http://www.w3.org/1999/xlink" x="0px" y="0px"
	 viewBox="0 0 67.6 65.7" style="enable-background:new 0 0 67.6 65.7;" xml:space="preserve">
<style type="text/css">
	.st0{fill:none;}
	.st1{fill:#1E5C82;}
	.st2{fill:#B8CA31;}
</style>
<g id="MINIMUM_AREA">
	<rect x="-22.9" y="-22.8" class="st0" width="111.6" height="110.4"/>
</g>
<g id="ENG_Logo">
	<path class="st1" d="M57.9,22.2l-4.5,25.4h3.8l2.2-12.3l0.1-0.5l0,0l2.6-14.7h-3.8C58.1,20.8,58,21.5,57.9,22.2"/>
	<path class="st1" d="M62.4,16.2C62,4.4,47.1,1.9,31.5,4.3C24,5.5,16.7,7.6,9.7,10.6c0,0,13.3-4.6,25.1-5.3
		c12.6-0.7,22.9,0.8,23.6,10.9l0,0l0,0c0,1.1,0.9,2,2,2S62.4,17.3,62.4,16.2C62.4,16.1,62.4,16.1,62.4,16.2L62.4,16.2z"/>
	<path class="st1" d="M25.1,17.3l0.5-3H12.5c-1.4,0-2.7,1-3,2.5l-5,28.4l0,0c-0.3,1.1,0.4,2.2,1.4,2.4c0.2,0,0.4,0.1,0.6,0.1h14.4
		l0.5-3H9l2.3-12.8h10l0.5-3h-10l2.1-11.6L25.1,17.3z"/>
	<path class="st1" d="M48.5,38.6c-0.4,2.9-2.1,5.5-4.6,7.1c-2.8,1.6-6,2.5-9.2,2.3c-3.8,0-6.8-0.6-8.8-1.8l5.4-30.5
		c2.8-1.3,5.9-1.9,9.1-1.8c3.6,0,6.2,0.8,7.9,2.3c1.7,1.5,2.4,3.8,1.9,6c-0.3,2-1.3,3.9-2.9,5.3c-1.4,1.3-3.1,2.1-5,2.5V30
		c1.9,0.4,3.6,1.4,4.8,2.8C48.5,34.4,49,36.6,48.5,38.6 M45.8,22.5c0.7-4.1-1.3-6.1-5.9-6.1c-1.6,0-3.1,0.2-4.6,0.7L33.1,29h2.2
		c3.4,0,5.9-0.5,7.5-1.5C44.4,26.3,45.5,24.5,45.8,22.5 M44,38.7c0.5-2.6,0-4.5-1.4-5.7c-1.4-1.2-3.9-1.8-7.5-1.8h-2.3l-2.4,13.2
		c1.5,0.6,3,0.8,4.6,0.8c2.1,0.1,4.2-0.5,6-1.6C42.6,42.5,43.7,40.7,44,38.7"/>
	<polygon class="st2" points="61.7,51.6 3.5,51.6 3.6,51.1 61.8,51.1 	"/>
	<path class="st1" d="M7,60.4c-0.5,0.2-1,0.3-1.6,0.3c-0.7,0-1.3-0.3-1.7-0.8c-0.4-0.7-0.5-1.5-0.3-2.3C3.6,56.8,4,56,4.6,55.4
		c0.5-0.5,1.2-0.8,1.9-0.8c0.5,0,0.9,0.1,1.4,0.3l-0.3,0.5c-0.3-0.2-0.7-0.3-1-0.2c-0.5,0-1.1,0.2-1.4,0.6c-0.4,0.5-0.7,1.2-0.8,1.9
		c-0.2,0.6-0.1,1.2,0.1,1.8c0.2,0.4,0.6,0.7,1.1,0.7c0.3,0,0.5,0,0.8-0.1l0.4-2.2h-1l0.1-0.5h1.8L7,60.4z"/>
	<path class="st1" d="M11.1,55.9l-0.3,0.6c-0.2-0.1-0.4-0.1-0.6-0.1c-0.2,0-0.4,0.1-0.5,0.1L9,60.6H8.2L9,56.3
		C9.3,56.1,9.6,56,9.9,56C10.3,55.9,10.7,55.9,11.1,55.9"/>
	<path class="st1" d="M14.8,58.3c-0.1,0.6-0.4,1.2-0.8,1.7c-0.4,0.4-0.9,0.7-1.5,0.7c-0.5,0.1-1-0.2-1.2-0.7
		c-0.2-0.5-0.3-1.2-0.2-1.7c0.1-0.6,0.4-1.2,0.8-1.8c0.4-0.4,0.9-0.7,1.5-0.7c0.5-0.1,1,0.2,1.3,0.7C14.9,57.1,15,57.7,14.8,58.3
		 M14,58.3c0.2-1.3,0-1.9-0.7-1.9s-1.2,0.7-1.4,1.9s0,1.9,0.7,1.9S13.8,59.6,14,58.3"/>
	<path class="st1" d="M18.8,60.4c-0.5,0.3-1.1,0.4-1.7,0.4c-1.1,0-1.6-0.5-1.4-1.5l0.6-3.2H17l-0.6,3.2c-0.1,0.2,0,0.5,0.1,0.7
		c0.2,0.2,0.4,0.3,0.7,0.2c0.3,0,0.6-0.1,0.9-0.2l0.7-4h0.8L18.8,60.4z"/>
	<path class="st1" d="M24,58.2c-0.1,0.7-0.4,1.3-0.9,1.8c-0.4,0.4-1,0.7-1.6,0.7c-0.2,0-0.5,0-0.7-0.1l-0.3,1.9h-0.8l1.1-6.2
		c0.5-0.2,1-0.3,1.5-0.3c0.6,0,1.1,0.2,1.4,0.6C24,57.1,24.1,57.7,24,58.2 M23.2,58.2c0.1-0.5,0.1-1-0.1-1.4
		c-0.2-0.3-0.6-0.5-0.9-0.5c-0.2,0-0.5,0-0.7,0.1l-0.7,3.7c0.2,0.1,0.4,0.1,0.6,0.1c0.4,0,0.9-0.2,1.2-0.5
		C22.9,59.3,23.2,58.8,23.2,58.2"/>
	<path class="st1" d="M28.5,58.2l-3,0.4c-0.1,1,0.3,1.6,1.1,1.6c0.4,0,0.8-0.1,1.2-0.3l0.1,0.5c-0.5,0.2-1,0.3-1.5,0.3
		c-0.5,0.1-1.1-0.1-1.4-0.5c-0.3-0.5-0.4-1.2-0.2-1.8c0.1-0.7,0.4-1.3,0.8-1.8c0.4-0.4,0.9-0.6,1.5-0.6c0.5,0,1,0.2,1.2,0.6
		C28.6,57.1,28.7,57.7,28.5,58.2 M27.9,57.9c0.2-1-0.1-1.5-0.8-1.5c-0.4,0-0.7,0.2-0.9,0.4c-0.3,0.4-0.5,0.8-0.6,1.3L27.9,57.9z"/>
	<polygon class="st1" points="34.4,60.6 31.6,60.6 32.7,54.7 35.4,54.7 35.3,55.3 33.4,55.3 33,57.3 34.8,57.3 34.7,57.8 32.9,57.8 
		32.5,60.1 34.5,60.1 	"/>
	<path class="st1" d="M38,60.4c-0.3,0.2-0.7,0.3-1.1,0.3c-0.5,0-0.9-0.2-1.2-0.7c-0.3-0.5-0.3-1.2-0.2-1.8c0.1-0.7,0.4-1.3,0.8-1.8
		c0.4-0.4,0.9-0.6,1.4-0.6c0.4,0,0.7,0.1,1,0.3l-0.3,0.4c-0.2-0.1-0.4-0.2-0.7-0.2c-0.8,0-1.3,0.6-1.5,1.8c-0.1,0.5-0.1,0.9,0.1,1.4
		c0.1,0.3,0.4,0.5,0.8,0.5c0.3,0,0.5-0.1,0.8-0.2L38,60.4z"/>
	<path class="st1" d="M42.6,58.3c-0.1,0.6-0.4,1.2-0.8,1.7c-0.4,0.4-0.9,0.7-1.5,0.7c-0.5,0.1-1-0.2-1.2-0.7
		c-0.2-0.5-0.3-1.2-0.2-1.7c0.1-0.6,0.4-1.3,0.8-1.8c0.4-0.4,0.9-0.7,1.5-0.7c0.5-0.1,1,0.2,1.3,0.7C42.7,57.1,42.8,57.7,42.6,58.3
		 M41.9,58.3c0.2-1.3,0-1.9-0.7-1.9S40,57,39.7,58.3s0,1.9,0.7,1.9S41.7,59.6,41.9,58.3"/>
	<path class="st1" d="M47.2,58.2c-0.1,0.7-0.4,1.3-0.9,1.8c-0.4,0.5-1.1,0.7-1.7,0.7c-0.5,0-0.9-0.1-1.3-0.3l1.2-6.5h0.8l-0.4,2.3
		c0.3-0.1,0.7-0.2,1-0.2c0.5,0,1,0.2,1.2,0.6C47.3,57.1,47.4,57.7,47.2,58.2 M46.4,58.3c0.1-0.4,0.1-0.9-0.1-1.3
		c-0.1-0.3-0.5-0.6-0.8-0.5c-0.3,0-0.6,0.1-0.8,0.2l-0.6,3.6c0.2,0.1,0.4,0.1,0.6,0.1C45.6,60.3,46.2,59.6,46.4,58.3"/>
	<path class="st1" d="M51,60.4c-0.5,0.2-1.1,0.3-1.6,0.3c-0.5,0-0.9-0.1-1.3-0.4c-0.3-0.3-0.4-0.6-0.3-1c0.1-0.3,0.2-0.5,0.3-0.8
		c0.2-0.2,0.4-0.4,0.7-0.5c0.3-0.1,0.6-0.2,0.9-0.3c0.3-0.1,0.7-0.1,1.1-0.2v-0.3c0.1-0.6-0.2-0.9-0.9-0.9c-0.4,0-0.8,0.1-1.2,0.3
		l-0.1-0.4c0.5-0.2,1-0.3,1.5-0.3c0.4,0,0.8,0.1,1.1,0.4c0.3,0.3,0.4,0.7,0.2,1.2L51,60.4z M50.3,60.2l0.4-2.1c-0.5,0-1,0.2-1.5,0.4
		c-0.3,0.2-0.6,0.5-0.6,0.9c-0.1,0.6,0.2,0.9,0.9,0.9C49.8,60.3,50.1,60.3,50.3,60.2"/>
	<path class="st1" d="M55.6,60.6h-0.8l0.6-3.3c0.1-0.6-0.2-0.9-0.8-0.9c-0.3,0-0.6,0.1-0.9,0.2l-0.7,4.1h-0.8l0.8-4.4
		c0.6-0.2,1.2-0.3,1.8-0.3c0.4-0.1,0.9,0.1,1.2,0.4c0.2,0.3,0.3,0.7,0.2,1L55.6,60.6z"/>
	<polygon class="st1" points="60.3,60.6 59.4,60.6 58.1,58.3 58,58.3 57.6,60.6 56.9,60.6 58.1,53.9 58.8,53.9 58.1,58.2 58.1,58.2 
		60.1,56 60.9,56 58.8,58.2 	"/>
</g>
</svg>
