<?xml version="1.0" encoding="UTF-8"?>
<svg xmlns="http://www.w3.org/2000/svg" xmlns:xlink="http://www.w3.org/1999/xlink" id="Ebene_1" data-name="Ebene 1" viewBox="0 0 850 209">
  <defs>
    <style>.cls-1,.cls-10,.cls-11,.cls-12,.cls-14,.cls-15,.cls-4,.cls-5,.cls-6,.cls-8{fill:none;}.cls-2{clip-path:url(#clip-path);}.cls-3{fill:#fff;}.cls-11,.cls-12,.cls-4,.cls-6{stroke:#f28800;}.cls-4,.cls-5{stroke-width:2.3px;}.cls-10,.cls-14,.cls-15,.cls-5,.cls-8{stroke:#005091;}.cls-10,.cls-11,.cls-12,.cls-14,.cls-6,.cls-8{stroke-linecap:round;}.cls-10,.cls-11,.cls-14,.cls-6,.cls-8{stroke-linejoin:round;}.cls-6,.cls-8{stroke-width:2.32px;}.cls-7{clip-path:url(#clip-path-2);}.cls-9{clip-path:url(#clip-path-3);}.cls-10,.cls-11,.cls-12{stroke-width:2.16px;}.cls-12{stroke-miterlimit:10;}.cls-13{fill:#005091;}.cls-14,.cls-15{stroke-width:1.78px;}</style>
    <clipPath id="clip-path">
      <rect class="cls-1" x="11.05" y="19.12" width="84.55" height="104.46"></rect>
    </clipPath>
    <clipPath id="clip-path-2">
      <rect class="cls-1" x="371.63" y="17.88" width="106.62" height="96.67"></rect>
    </clipPath>
    <clipPath id="clip-path-3">
      <rect class="cls-1" x="752.51" y="19.12" width="85.73" height="109.5"></rect>
    </clipPath>
  </defs>
  <g class="cls-2">
    <path class="cls-3" d="M35.37,70.22s-13.48,7.94-18,15.85c-3.49,6.17-4.63,20.48-4.23,24.15.49,4.38,11.23,11.33,40.65,11.3,29.82,0,38.69-6.73,39.42-11.3.61-3.81.81-16.45-5.17-24.2-6.54-8.48-16.14-16.23-16.14-16.23"></path>
    <path class="cls-4" d="M35.37,70.22s-13.48,7.94-18,15.85c-3.49,6.17-4.63,20.48-4.23,24.15.49,4.38,11.23,11.33,40.65,11.3,29.82,0,38.69-6.73,39.42-11.3.61-3.81.81-16.45-5.17-24.2-6.54-8.48-16.14-16.23-16.14-16.23"></path>
    <path class="cls-3" d="M53.22,77.49A28.16,28.16,0,1,0,25.06,49.33,28.16,28.16,0,0,0,53.22,77.49"></path>
    <path class="cls-5" d="M53.22,77.49A28.16,28.16,0,1,0,25.06,49.33,28.16,28.16,0,0,0,53.22,77.49Z"></path>
  </g>
  <rect class="cls-3" x="388.57" y="64.74" width="12.62" height="23.27"></rect>
  <rect class="cls-6" x="388.57" y="64.74" width="12.62" height="23.27"></rect>
  <rect class="cls-3" x="418.34" y="64.74" width="12.62" height="23.27"></rect>
  <rect class="cls-6" x="418.34" y="64.74" width="12.62" height="23.27"></rect>
  <rect class="cls-3" x="447.15" y="64.74" width="12.62" height="23.27"></rect>
  <rect class="cls-6" x="447.15" y="64.74" width="12.62" height="23.27"></rect>
  <rect class="cls-3" x="377.62" y="99.77" width="94.55" height="12.62"></rect>
  <g class="cls-7">
    <rect class="cls-8" x="377.62" y="99.77" width="94.55" height="12.62"></rect>
    <path class="cls-3" d="M374.91,49.51l49-29.1a2,2,0,0,1,2,0L475,49.5a2,2,0,0,1-1,3.67h-98a2,2,0,0,1-1-3.66"></path>
    <path class="cls-8" d="M374.91,49.51l49-29.1a2,2,0,0,1,2,0L475,49.5a2,2,0,0,1-1,3.67h-98a2,2,0,0,1-1-3.66Z"></path>
  </g>
  <g class="cls-9">
    <path class="cls-3" d="M756.45,34.85a39.85,39.85,0,0,0,18.37-2.28,71.43,71.43,0,0,0,19.86-11.45s10.21,7.6,18.89,11,18.64,2.56,18.64,2.56,4,45.7-.36,55.93c-9.54,22.25-36.93,36-36.93,36S758.73,107.78,756.35,87c-1.83-16.11.1-52.1.1-52.1"></path>
    <path class="cls-10" d="M756.45,34.85a39.85,39.85,0,0,0,18.37-2.28,71.43,71.43,0,0,0,19.86-11.45s10.21,7.6,18.89,11,18.64,2.56,18.64,2.56,4,45.7-.36,55.93c-9.54,22.25-36.93,36-36.93,36S758.73,107.78,756.35,87C754.52,70.84,756.45,34.85,756.45,34.85Z"></path>
    <path class="cls-11" d="M799.5,73.34A4.51,4.51,0,0,1,797,77.4l.9,8H791.6l.9-8A4.65,4.65,0,0,1,789.94,73a4.75,4.75,0,0,1,4.95-4.64,4.69,4.69,0,0,1,4.61,5m15.27-10.4h-40.1V90.83h40.1Z"></path>
    <path class="cls-12" d="M783.71,62.2v-7s-.47-9.59,11.21-9.44c11.44.15,10.81,10.06,10.81,10.06v6.6"></path>
  </g>
  <path class="cls-13" d="M170.78,35.3h4v5.41a11.76,11.76,0,0,1-1.87.45,13.06,13.06,0,0,1-1.94.13,4.83,4.83,0,0,1-3.77-1.45,5.8,5.8,0,0,1-1.33-4.09,5.44,5.44,0,0,1,1.5-4.07,5.61,5.61,0,0,1,4.12-1.47,7.93,7.93,0,0,1,3.2.65L174,32.32a6.25,6.25,0,0,0-2.62-.6,3.53,3.53,0,0,0-2.73,1.08,4.21,4.21,0,0,0-1,3,4.41,4.41,0,0,0,.91,3,3.26,3.26,0,0,0,2.6,1,8.55,8.55,0,0,0,1.82-.21V36.81h-2.23Z"></path>
  <path class="cls-13" d="M180.71,41.29a3.94,3.94,0,0,1-3-1.11,4.2,4.2,0,0,1-1.07-3.06,4.65,4.65,0,0,1,1-3.14,3.45,3.45,0,0,1,2.74-1.14,3.39,3.39,0,0,1,2.55,1,3.77,3.77,0,0,1,.93,2.7v.94h-5.43a2.65,2.65,0,0,0,.64,1.82,2.21,2.21,0,0,0,1.7.64,6.36,6.36,0,0,0,1.35-.14,7,7,0,0,0,1.34-.45v1.41a5.67,5.67,0,0,1-1.28.43A8.32,8.32,0,0,1,180.71,41.29Zm-.31-7.14a1.75,1.75,0,0,0-1.33.53,2.46,2.46,0,0,0-.59,1.52h3.7a2.24,2.24,0,0,0-.49-1.53A1.66,1.66,0,0,0,180.4,34.15Z"></path>
  <path class="cls-13" d="M187.59,41.14h-1.74V29.67h1.74Z"></path>
  <path class="cls-13" d="M192.81,41.29a2.84,2.84,0,0,1-2.38-1.11,5,5,0,0,1-.85-3.1,5,5,0,0,1,.86-3.12,2.86,2.86,0,0,1,2.4-1.12A2.82,2.82,0,0,1,195.29,34h.09a11.32,11.32,0,0,1-.13-1.39v-3H197V41.14h-1.35l-.31-1.07h-.08A2.77,2.77,0,0,1,192.81,41.29Zm.47-1.4a1.87,1.87,0,0,0,1.55-.6,3.06,3.06,0,0,0,.5-1.95V37.1a3.6,3.6,0,0,0-.5-2.19,1.83,1.83,0,0,0-1.57-.65,1.58,1.58,0,0,0-1.41.74,3.87,3.87,0,0,0-.49,2.11,3.73,3.73,0,0,0,.48,2.07A1.63,1.63,0,0,0,193.28,39.89Z"></path>
  <path class="cls-13" d="M204.57,41.14,204.23,40h-.06A3.45,3.45,0,0,1,203,41a3.74,3.74,0,0,1-1.53.27,2.62,2.62,0,0,1-1.88-.65,2.41,2.41,0,0,1-.67-1.83,2.17,2.17,0,0,1,.93-1.91,5.52,5.52,0,0,1,2.86-.7l1.4,0v-.44a1.67,1.67,0,0,0-.36-1.17,1.51,1.51,0,0,0-1.13-.38,4,4,0,0,0-1.2.18,9.16,9.16,0,0,0-1.11.44l-.56-1.24a6.1,6.1,0,0,1,1.45-.53,6.72,6.72,0,0,1,1.49-.18,3.54,3.54,0,0,1,2.35.68,2.64,2.64,0,0,1,.79,2.13v5.49ZM202,40a2.16,2.16,0,0,0,1.52-.52,1.94,1.94,0,0,0,.57-1.48v-.71l-1.05,0a3.64,3.64,0,0,0-1.78.41,1.25,1.25,0,0,0-.55,1.12,1.06,1.06,0,0,0,.32.84A1.39,1.39,0,0,0,202,40Z"></path>
  <path class="cls-13" d="M215.41,41.14h-1.74v-5a2.22,2.22,0,0,0-.38-1.41,1.48,1.48,0,0,0-1.21-.46,1.91,1.91,0,0,0-1.61.65,3.55,3.55,0,0,0-.51,2.17v4.06h-1.73V33h1.36l.24,1.07h.09a2.38,2.38,0,0,1,1.05-.9,3.51,3.51,0,0,1,1.5-.32c2,0,2.94,1,2.94,3Z"></path>
  <path class="cls-13" d="M219.55,41.14h-1.73V29.67h1.73Z"></path>
  <path class="cls-13" d="M227.13,41.14,226.78,40h-.06a3.43,3.43,0,0,1-1.18,1,3.76,3.76,0,0,1-1.54.27,2.59,2.59,0,0,1-1.87-.65,2.41,2.41,0,0,1-.68-1.83,2.15,2.15,0,0,1,.94-1.91,5.45,5.45,0,0,1,2.85-.7l1.41,0v-.44a1.67,1.67,0,0,0-.36-1.17,1.55,1.55,0,0,0-1.14-.38,4,4,0,0,0-1.2.18,9.7,9.7,0,0,0-1.1.44l-.56-1.24a5.94,5.94,0,0,1,1.45-.53,6.65,6.65,0,0,1,1.49-.18,3.56,3.56,0,0,1,2.35.68,2.68,2.68,0,0,1,.79,2.13v5.49ZM224.55,40a2.13,2.13,0,0,0,1.51-.52,1.94,1.94,0,0,0,.58-1.48v-.71l-1,0a3.61,3.61,0,0,0-1.78.41,1.26,1.26,0,0,0-.56,1.12,1.06,1.06,0,0,0,.33.84A1.37,1.37,0,0,0,224.55,40Z"></path>
  <path class="cls-13" d="M237.67,33v.95l-1.39.26a2.32,2.32,0,0,1,.32.63,2.63,2.63,0,0,1,.12.8,2.43,2.43,0,0,1-.87,2,3.65,3.65,0,0,1-2.39.72,3.84,3.84,0,0,1-.71-.06,1,1,0,0,0-.56.82.45.45,0,0,0,.26.42,2.28,2.28,0,0,0,1,.14h1.42a3.17,3.17,0,0,1,2,.57,2,2,0,0,1,.7,1.66A2.42,2.42,0,0,1,236.44,44a6,6,0,0,1-3.3.75,4.62,4.62,0,0,1-2.55-.59,1.9,1.9,0,0,1-.87-1.68,1.8,1.8,0,0,1,.47-1.26,2.56,2.56,0,0,1,1.33-.72,1.23,1.23,0,0,1-.57-.47,1.2,1.2,0,0,1-.22-.69,1.17,1.17,0,0,1,.26-.78,2.78,2.78,0,0,1,.76-.62,2.32,2.32,0,0,1-1-.89,2.63,2.63,0,0,1-.39-1.44,2.58,2.58,0,0,1,.84-2.06,3.48,3.48,0,0,1,2.38-.73,6.4,6.4,0,0,1,.73,0,3.57,3.57,0,0,1,.57.1Zm-6.4,9.42a.94.94,0,0,0,.5.86,2.7,2.7,0,0,0,1.42.31,4.3,4.3,0,0,0,2.11-.41,1.22,1.22,0,0,0,.69-1.08.79.79,0,0,0-.38-.75,3,3,0,0,0-1.41-.23h-1.31a1.84,1.84,0,0,0-1.18.35A1.14,1.14,0,0,0,231.27,42.41Zm.74-6.78a1.62,1.62,0,0,0,.4,1.18,1.49,1.49,0,0,0,1.13.41c1,0,1.5-.54,1.5-1.61a1.78,1.78,0,0,0-.37-1.22,1.42,1.42,0,0,0-1.13-.44,1.48,1.48,0,0,0-1.14.43A1.8,1.8,0,0,0,232,35.63Z"></path>
  <path class="cls-13" d="M242.75,41.29a4,4,0,0,1-3-1.11,4.24,4.24,0,0,1-1.07-3.06,4.65,4.65,0,0,1,1-3.14,3.46,3.46,0,0,1,2.74-1.14,3.36,3.36,0,0,1,2.55,1,3.77,3.77,0,0,1,.94,2.7v.94h-5.44a2.7,2.7,0,0,0,.64,1.82,2.23,2.23,0,0,0,1.71.64,6.26,6.26,0,0,0,1.34-.14,7,7,0,0,0,1.34-.45v1.41a5.67,5.67,0,0,1-1.28.43A8.21,8.21,0,0,1,242.75,41.29Zm-.32-7.14a1.73,1.73,0,0,0-1.32.53,2.46,2.46,0,0,0-.6,1.52h3.7a2.29,2.29,0,0,0-.48-1.53A1.7,1.7,0,0,0,242.43,34.15Z"></path>
  <path class="cls-13" d="M256,32.84A2.81,2.81,0,0,1,258.35,34a5,5,0,0,1,.86,3.1,5,5,0,0,1-.87,3.12A2.83,2.83,0,0,1,256,41.29a2.86,2.86,0,0,1-2.41-1.11h-.12l-.31,1h-1.3V29.67h1.73V32.4q0,.3,0,.9c0,.4,0,.65,0,.76h.07A2.76,2.76,0,0,1,256,32.84Zm-.45,1.42a1.75,1.75,0,0,0-1.51.61,3.56,3.56,0,0,0-.48,2.06v.12a3.89,3.89,0,0,0,.47,2.16,1.78,1.78,0,0,0,1.54.67,1.58,1.58,0,0,0,1.4-.73,3.85,3.85,0,0,0,.48-2.11C257.43,35.18,256.79,34.26,255.53,34.26Z"></path>
  <path class="cls-13" d="M264.78,41.29a4,4,0,0,1-3-1.11,4.24,4.24,0,0,1-1.07-3.06,4.61,4.61,0,0,1,1-3.14,3.43,3.43,0,0,1,2.73-1.14,3.36,3.36,0,0,1,2.55,1,3.73,3.73,0,0,1,.94,2.7v.94h-5.44a2.65,2.65,0,0,0,.65,1.82,2.21,2.21,0,0,0,1.7.64,6.43,6.43,0,0,0,1.35-.14,7,7,0,0,0,1.33-.45v1.41a5.67,5.67,0,0,1-1.28.43A8.21,8.21,0,0,1,264.78,41.29Zm-.32-7.14a1.73,1.73,0,0,0-1.32.53,2.52,2.52,0,0,0-.6,1.52h3.71a2.3,2.3,0,0,0-.49-1.53A1.7,1.7,0,0,0,264.46,34.15Z"></path>
  <path class="cls-13" d="M269.82,30.83a1,1,0,0,1,.25-.72,1,1,0,0,1,.73-.25,1,1,0,0,1,.71.25,1,1,0,0,1,.25.72.93.93,0,0,1-.25.69,1,1,0,0,1-.71.26,1,1,0,0,1-.73-.26A.93.93,0,0,1,269.82,30.83Zm1.83,10.31h-1.73V33h1.73Z"></path>
  <path class="cls-13" d="M152.32,58.7a4,4,0,0,1-3-1.11,4.24,4.24,0,0,1-1.07-3.06,4.64,4.64,0,0,1,1-3.14A3.46,3.46,0,0,1,152,50.25a3.36,3.36,0,0,1,2.55,1,3.71,3.71,0,0,1,.94,2.7v.94h-5.44a2.67,2.67,0,0,0,.65,1.82,2.21,2.21,0,0,0,1.7.64,6.26,6.26,0,0,0,1.34-.14,6.81,6.81,0,0,0,1.34-.45v1.41a5.19,5.19,0,0,1-1.28.42A7.34,7.34,0,0,1,152.32,58.7ZM152,51.56a1.76,1.76,0,0,0-1.32.52,2.56,2.56,0,0,0-.6,1.53h3.71a2.3,2.3,0,0,0-.49-1.53A1.67,1.67,0,0,0,152,51.56Z"></path>
  <path class="cls-13" d="M157.35,48.24a1,1,0,1,1,2,0,.93.93,0,0,1-.25.69,1.13,1.13,0,0,1-1.44,0A.94.94,0,0,1,157.35,48.24Zm1.84,10.31h-1.73V50.4h1.73Z"></path>
  <path class="cls-13" d="M168.84,58.55H167.1v-5a2.16,2.16,0,0,0-.38-1.41,1.45,1.45,0,0,0-1.2-.46,1.92,1.92,0,0,0-1.61.64,3.6,3.6,0,0,0-.51,2.18v4.06h-1.73V50.4H163l.25,1.07h.09a2.36,2.36,0,0,1,1-.9,3.44,3.44,0,0,1,1.51-.32c2,0,2.93,1,2.93,3Z"></path>
  <path class="cls-13" d="M174.81,58.7a3.94,3.94,0,0,1-3-1.11,4.2,4.2,0,0,1-1.07-3.06,4.64,4.64,0,0,1,1-3.14,3.46,3.46,0,0,1,2.74-1.14,3.39,3.39,0,0,1,2.55,1,3.76,3.76,0,0,1,.94,2.7v.94h-5.44a2.72,2.72,0,0,0,.64,1.82,2.23,2.23,0,0,0,1.71.64,6.26,6.26,0,0,0,1.34-.14,7,7,0,0,0,1.34-.45v1.41a5.19,5.19,0,0,1-1.28.42A7.45,7.45,0,0,1,174.81,58.7Zm-.31-7.14a1.8,1.8,0,0,0-1.33.52,2.49,2.49,0,0,0-.59,1.53h3.7a2.29,2.29,0,0,0-.48-1.53A1.67,1.67,0,0,0,174.5,51.56Z"></path>
  <path class="cls-13" d="M186.83,58.55h-1.74v-5a2.22,2.22,0,0,0-.36-1.39,1.28,1.28,0,0,0-1.1-.46,1.67,1.67,0,0,0-1.47.65,3.75,3.75,0,0,0-.47,2.17v4.06H180V50.4h1.36l.24,1.07h.09a2.28,2.28,0,0,1,1-.9,3.06,3.06,0,0,1,1.42-.32,2.49,2.49,0,0,1,2.49,1.28h.12a2.48,2.48,0,0,1,1-.94,3.2,3.2,0,0,1,1.51-.34,2.76,2.76,0,0,1,2.13.74,3.29,3.29,0,0,1,.66,2.25v5.31h-1.73v-5a2.22,2.22,0,0,0-.36-1.39,1.31,1.31,0,0,0-1.11-.46,1.74,1.74,0,0,0-1.48.63,3.25,3.25,0,0,0-.46,1.93Z"></path>
  <path class="cls-13" d="M206.73,58.55h-2l-3.39-4.88-1,.85v4H198.5V47.77h1.76v5.15c.48-.59,1-1.16,1.44-1.7l2.91-3.45h2c-1.89,2.21-3.23,3.79-4.05,4.73Z"></path>
  <path class="cls-13" d="M212.1,50.25a4.24,4.24,0,0,1,.87.07l-.17,1.62a3.25,3.25,0,0,0-.77-.09,2.22,2.22,0,0,0-1.68.68,2.45,2.45,0,0,0-.65,1.76v4.26H208V50.4h1.35l.23,1.43h.09a3.18,3.18,0,0,1,1.06-1.15A2.46,2.46,0,0,1,212.1,50.25Z"></path>
  <path class="cls-13" d="M218,58.7a4,4,0,0,1-3-1.11A4.24,4.24,0,0,1,214,54.53a4.59,4.59,0,0,1,1-3.14,3.43,3.43,0,0,1,2.73-1.14,3.36,3.36,0,0,1,2.55,1,3.71,3.71,0,0,1,.94,2.7v.94h-5.43a2.62,2.62,0,0,0,.64,1.82,2.21,2.21,0,0,0,1.7.64,6.43,6.43,0,0,0,1.35-.14,7,7,0,0,0,1.33-.45v1.41a5.19,5.19,0,0,1-1.28.42A7.34,7.34,0,0,1,218,58.7Zm-.32-7.14a1.76,1.76,0,0,0-1.32.52,2.49,2.49,0,0,0-.59,1.53h3.7a2.3,2.3,0,0,0-.49-1.53A1.65,1.65,0,0,0,217.72,51.56Z"></path>
  <path class="cls-13" d="M225.93,58.7a2.83,2.83,0,0,1-2.38-1.11,5,5,0,0,1-.86-3.1,5,5,0,0,1,.87-3.12,2.86,2.86,0,0,1,2.4-1.12,2.82,2.82,0,0,1,2.45,1.19h.09a9.62,9.62,0,0,1-.13-1.39v-3h1.74V58.55h-1.36l-.3-1.07h-.08A2.78,2.78,0,0,1,225.93,58.7Zm.46-1.4a1.89,1.89,0,0,0,1.56-.6,3.19,3.19,0,0,0,.5-2V54.5a3.72,3.72,0,0,0-.5-2.19,1.86,1.86,0,0,0-1.57-.64,1.58,1.58,0,0,0-1.41.74,4.75,4.75,0,0,0,0,4.18A1.61,1.61,0,0,0,226.39,57.3Z"></path>
  <path class="cls-13" d="M232.48,48.24a1,1,0,1,1,2,0,.93.93,0,0,1-.25.69,1.13,1.13,0,0,1-1.44,0A.94.94,0,0,1,232.48,48.24Zm1.84,10.31h-1.73V50.4h1.73Z"></path>
  <path class="cls-13" d="M239.83,57.3a4.26,4.26,0,0,0,1.27-.2v1.3a2.75,2.75,0,0,1-.74.21,4.76,4.76,0,0,1-.94.09c-1.64,0-2.46-.87-2.46-2.6V51.71h-1.11v-.77l1.19-.63.59-1.73h1.07V50.4H241v1.31H238.7v4.36A1.23,1.23,0,0,0,239,57,1.15,1.15,0,0,0,239.83,57.3Z"></path>
  <path class="cls-13" d="M242.63,48.24a1,1,0,0,1,.25-.72,1,1,0,0,1,.73-.25,1,1,0,0,1,.71.25,1,1,0,0,1,.26.72.94.94,0,0,1-.26.69,1,1,0,0,1-.71.26,1,1,0,0,1-.73-.26A.93.93,0,0,1,242.63,48.24Zm1.84,10.31h-1.74V50.4h1.74Z"></path>
  <path class="cls-13" d="M254.12,58.55h-1.74v-5a2.22,2.22,0,0,0-.38-1.41,1.48,1.48,0,0,0-1.21-.46,1.93,1.93,0,0,0-1.61.64,3.68,3.68,0,0,0-.5,2.18v4.06h-1.74V50.4h1.36l.24,1.07h.09a2.44,2.44,0,0,1,1.05-.9,3.36,3.36,0,0,1,1.5-.32c2,0,2.94,1,2.94,3Z"></path>
  <path class="cls-13" d="M262,56.23a2.12,2.12,0,0,1-.87,1.83,4.14,4.14,0,0,1-2.5.64,6,6,0,0,1-2.61-.49v-1.5a6.45,6.45,0,0,0,2.67.66c1.07,0,1.6-.32,1.6-1a.76.76,0,0,0-.17-.52,2.19,2.19,0,0,0-.59-.43,10.06,10.06,0,0,0-1.12-.5,5.22,5.22,0,0,1-1.91-1.09,2,2,0,0,1-.5-1.42,1.84,1.84,0,0,1,.85-1.62,4,4,0,0,1,2.29-.58,6.53,6.53,0,0,1,2.73.58l-.57,1.31a6,6,0,0,0-2.22-.55c-.91,0-1.37.26-1.37.78a.79.79,0,0,0,.36.65,7.8,7.8,0,0,0,1.56.73,7.14,7.14,0,0,1,1.47.72,2.1,2.1,0,0,1,.68.75A2.25,2.25,0,0,1,262,56.23Z"></path>
  <path class="cls-13" d="M266.92,57.3a4.37,4.37,0,0,0,1.27-.2v1.3a2.87,2.87,0,0,1-.74.21,4.94,4.94,0,0,1-.95.09c-1.64,0-2.46-.87-2.46-2.6V51.71h-1.11v-.77l1.19-.63.59-1.73h1.07V50.4h2.33v1.31h-2.33v4.36a1.23,1.23,0,0,0,.32.93A1.12,1.12,0,0,0,266.92,57.3Z"></path>
  <path class="cls-13" d="M269.71,48.24a1,1,0,0,1,1.7-.72,1,1,0,0,1,.25.72,1,1,0,0,1-1.69.69A.94.94,0,0,1,269.71,48.24Zm1.84,10.31h-1.73V50.4h1.73Z"></path>
  <path class="cls-13" d="M277.06,57.3a4.26,4.26,0,0,0,1.27-.2v1.3a2.87,2.87,0,0,1-.74.21,4.76,4.76,0,0,1-.94.09c-1.64,0-2.46-.87-2.46-2.6V51.71h-1.12v-.77l1.2-.63.59-1.73h1.07V50.4h2.32v1.31h-2.32v4.36a1.23,1.23,0,0,0,.31.93A1.13,1.13,0,0,0,277.06,57.3Z"></path>
  <path class="cls-13" d="M285.71,58.55l-.24-1.07h-.09a2.46,2.46,0,0,1-1,.9,3.5,3.5,0,0,1-1.52.32,3,3,0,0,1-2.21-.74,3,3,0,0,1-.73-2.23V50.4h1.74v5a2.14,2.14,0,0,0,.39,1.4,1.45,1.45,0,0,0,1.2.47,1.91,1.91,0,0,0,1.6-.65,3.56,3.56,0,0,0,.52-2.19V50.4h1.74v8.15Z"></path>
  <path class="cls-13" d="M292.58,57.3a4.26,4.26,0,0,0,1.27-.2v1.3a2.75,2.75,0,0,1-.74.21,4.76,4.76,0,0,1-.94.09c-1.64,0-2.46-.87-2.46-2.6V51.71H288.6v-.77l1.19-.63.59-1.73h1.07V50.4h2.32v1.31h-2.32v4.36a1.23,1.23,0,0,0,.31.93A1.15,1.15,0,0,0,292.58,57.3Z"></path>
  <line class="cls-14" x1="131.56" y1="75.93" x2="330.15" y2="75.93"></line>
  <polyline class="cls-14" points="321.23 63.84 333.32 75.93 321.23 88.02"></polyline>
  <path class="cls-13" d="M559,41.14l-3.13-9h-.06c.08,1.34.13,2.59.13,3.76v5.24h-1.6V30.36h2.48l3,8.58h.05l3.08-8.58h2.49V41.14H563.7V35.81c0-.53,0-1.23,0-2.09s0-1.38.07-1.57h-.06l-3.24,9Z"></path>
  <path class="cls-13" d="M567.94,30.83a1,1,0,0,1,.26-.72,1.16,1.16,0,0,1,1.44,0,1,1,0,0,1,.25.72.93.93,0,0,1-.25.69,1.13,1.13,0,0,1-1.44,0A.94.94,0,0,1,567.94,30.83Zm1.84,10.31h-1.73V33h1.73Z"></path>
  <path class="cls-13" d="M575.29,39.89a4.26,4.26,0,0,0,1.27-.2V41a4,4,0,0,1-.74.21,5.67,5.67,0,0,1-.94.08c-1.64,0-2.46-.86-2.46-2.6V34.3h-1.11v-.77l1.19-.63.59-1.73h1.07V33h2.32V34.3h-2.32v4.37a1.22,1.22,0,0,0,.31.92A1.15,1.15,0,0,0,575.29,39.89Z"></path>
  <path class="cls-13" d="M585.08,33v.95l-1.39.26a2.31,2.31,0,0,1,.31.63,2.36,2.36,0,0,1,.13.8,2.43,2.43,0,0,1-.87,2,3.66,3.66,0,0,1-2.4.72,3.92,3.92,0,0,1-.71-.06,1,1,0,0,0-.56.82.46.46,0,0,0,.27.42,2.28,2.28,0,0,0,1,.14h1.42a3.19,3.19,0,0,1,2,.57,2,2,0,0,1,.7,1.66A2.42,2.42,0,0,1,583.85,44a6,6,0,0,1-3.31.75,4.59,4.59,0,0,1-2.54-.59,1.91,1.91,0,0,1-.88-1.68,1.77,1.77,0,0,1,.48-1.26,2.56,2.56,0,0,1,1.33-.72,1.23,1.23,0,0,1-.57-.47,1.23,1.23,0,0,1,0-1.47,2.84,2.84,0,0,1,.77-.62,2.27,2.27,0,0,1-1-.89,2.63,2.63,0,0,1-.39-1.44,2.58,2.58,0,0,1,.83-2.06,3.52,3.52,0,0,1,2.39-.73,6.09,6.09,0,0,1,.72,0,3.53,3.53,0,0,1,.58.1Zm-6.41,9.42a1,1,0,0,0,.51.86,2.67,2.67,0,0,0,1.42.31,4.32,4.32,0,0,0,2.11-.41,1.22,1.22,0,0,0,.69-1.08.81.81,0,0,0-.38-.75,3,3,0,0,0-1.41-.23h-1.32a1.86,1.86,0,0,0-1.18.35A1.17,1.17,0,0,0,578.67,42.41Zm.75-6.78a1.66,1.66,0,0,0,.39,1.18,1.5,1.5,0,0,0,1.13.41c1,0,1.51-.54,1.51-1.61a1.83,1.83,0,0,0-.37-1.22,1.43,1.43,0,0,0-1.14-.44,1.48,1.48,0,0,0-1.14.43A1.85,1.85,0,0,0,579.42,35.63Z"></path>
  <path class="cls-13" d="M588.32,41.14h-1.73V29.67h1.73Z"></path>
  <path class="cls-13" d="M590.7,30.83a1,1,0,0,1,.25-.72,1,1,0,0,1,.73-.25,1,1,0,0,1,.71.25,1,1,0,0,1,.25.72.93.93,0,0,1-.25.69,1,1,0,0,1-.71.26,1,1,0,0,1-.73-.26A.93.93,0,0,1,590.7,30.83Zm1.83,10.31H590.8V33h1.73Z"></path>
  <path class="cls-13" d="M598.57,41.29a3.92,3.92,0,0,1-3-1.11,4.2,4.2,0,0,1-1.08-3.06,4.66,4.66,0,0,1,1-3.14,3.45,3.45,0,0,1,2.74-1.14,3.39,3.39,0,0,1,2.55,1,3.77,3.77,0,0,1,.93,2.7v.94h-5.43a2.65,2.65,0,0,0,.64,1.82,2.21,2.21,0,0,0,1.7.64,6.36,6.36,0,0,0,1.35-.14,7,7,0,0,0,1.34-.45v1.41a5.59,5.59,0,0,1-1.29.43A8.13,8.13,0,0,1,598.57,41.29Zm-.31-7.14a1.75,1.75,0,0,0-1.33.53,2.46,2.46,0,0,0-.59,1.52H600a2.24,2.24,0,0,0-.49-1.53A1.66,1.66,0,0,0,598.26,34.15Z"></path>
  <path class="cls-13" d="M606.46,41.29a2.84,2.84,0,0,1-2.38-1.11,5,5,0,0,1-.85-3.1,5,5,0,0,1,.86-3.12,2.86,2.86,0,0,1,2.4-1.12A2.82,2.82,0,0,1,608.94,34H609a11.32,11.32,0,0,1-.13-1.39v-3h1.74V41.14h-1.35L609,40.07h-.08A2.77,2.77,0,0,1,606.46,41.29Zm.47-1.4a1.87,1.87,0,0,0,1.55-.6,3.13,3.13,0,0,0,.5-1.95V37.1a3.6,3.6,0,0,0-.5-2.19,1.84,1.84,0,0,0-1.57-.65,1.58,1.58,0,0,0-1.41.74,3.79,3.79,0,0,0-.49,2.11,3.73,3.73,0,0,0,.48,2.07A1.63,1.63,0,0,0,606.93,39.89Z"></path>
  <path class="cls-13" d="M621.21,32.84A2.83,2.83,0,0,1,623.59,34a5,5,0,0,1,.85,3.1,5,5,0,0,1-.86,3.12,3.14,3.14,0,0,1-4.8,0h-.12l-.32,1H617V29.67h1.74V32.4q0,.3,0,.9c0,.4,0,.65,0,.76h.08A2.75,2.75,0,0,1,621.21,32.84Zm-.45,1.42a1.76,1.76,0,0,0-1.51.61,3.57,3.57,0,0,0-.47,2.06v.12a3.8,3.8,0,0,0,.47,2.16,1.76,1.76,0,0,0,1.54.67,1.59,1.59,0,0,0,1.4-.73,4,4,0,0,0,.47-2.11C622.66,35.18,622,34.26,620.76,34.26Z"></path>
  <path class="cls-13" d="M630,41.29a3.94,3.94,0,0,1-3-1.11A4.2,4.2,0,0,1,626,37.12,4.66,4.66,0,0,1,627,34a3.45,3.45,0,0,1,2.74-1.14,3.39,3.39,0,0,1,2.55,1,3.77,3.77,0,0,1,.93,2.7v.94h-5.43a2.65,2.65,0,0,0,.64,1.82,2.21,2.21,0,0,0,1.7.64,6.36,6.36,0,0,0,1.35-.14,7,7,0,0,0,1.34-.45v1.41a5.67,5.67,0,0,1-1.28.43A8.32,8.32,0,0,1,630,41.29Zm-.31-7.14a1.75,1.75,0,0,0-1.33.53,2.46,2.46,0,0,0-.59,1.52h3.7a2.24,2.24,0,0,0-.49-1.53A1.66,1.66,0,0,0,629.7,34.15Z"></path>
  <path class="cls-13" d="M635.05,30.83a1,1,0,0,1,.25-.72,1,1,0,0,1,.73-.25,1,1,0,0,1,.71.25,1,1,0,0,1,.26.72.94.94,0,0,1-.26.69,1,1,0,0,1-.71.26,1,1,0,0,1-.73-.26A.93.93,0,0,1,635.05,30.83Zm1.84,10.31h-1.74V33h1.74Z"></path>
  <path class="cls-13" d="M646.85,41.29a4,4,0,0,1-3-1.11,4.24,4.24,0,0,1-1.07-3.06,4.65,4.65,0,0,1,1-3.14,3.46,3.46,0,0,1,2.74-1.14,3.36,3.36,0,0,1,2.55,1,3.73,3.73,0,0,1,.94,2.7v.94h-5.44a2.7,2.7,0,0,0,.64,1.82,2.25,2.25,0,0,0,1.71.64,6.26,6.26,0,0,0,1.34-.14,7,7,0,0,0,1.34-.45v1.41a5.67,5.67,0,0,1-1.28.43A8.21,8.21,0,0,1,646.85,41.29Zm-.32-7.14a1.73,1.73,0,0,0-1.32.53,2.52,2.52,0,0,0-.6,1.52h3.7a2.29,2.29,0,0,0-.48-1.53A1.7,1.7,0,0,0,646.53,34.15Z"></path>
  <path class="cls-13" d="M651.88,30.83a1,1,0,0,1,.26-.72,1.16,1.16,0,0,1,1.44,0,1,1,0,0,1,.25.72.93.93,0,0,1-.25.69,1.13,1.13,0,0,1-1.44,0A.94.94,0,0,1,651.88,30.83Zm1.84,10.31H652V33h1.73Z"></path>
  <path class="cls-13" d="M663.37,41.14h-1.74v-5a2.22,2.22,0,0,0-.38-1.41,1.45,1.45,0,0,0-1.2-.46,1.89,1.89,0,0,0-1.61.65,3.55,3.55,0,0,0-.51,2.17v4.06H656.2V33h1.35l.25,1.07h.09a2.36,2.36,0,0,1,1-.9,3.55,3.55,0,0,1,1.51-.32c1.95,0,2.93,1,2.93,3Z"></path>
  <path class="cls-13" d="M669.34,41.29a3.94,3.94,0,0,1-3-1.11,4.2,4.2,0,0,1-1.07-3.06,4.65,4.65,0,0,1,1-3.14A3.46,3.46,0,0,1,669,32.84a3.39,3.39,0,0,1,2.55,1,3.77,3.77,0,0,1,.93,2.7v.94h-5.43a2.65,2.65,0,0,0,.64,1.82,2.21,2.21,0,0,0,1.7.64,6.29,6.29,0,0,0,1.35-.14,7,7,0,0,0,1.34-.45v1.41a5.67,5.67,0,0,1-1.28.43A8.32,8.32,0,0,1,669.34,41.29ZM669,34.15a1.77,1.77,0,0,0-1.33.53,2.46,2.46,0,0,0-.59,1.52h3.7a2.29,2.29,0,0,0-.48-1.53A1.7,1.7,0,0,0,669,34.15Z"></path>
  <path class="cls-13" d="M678.62,32.84a4.87,4.87,0,0,1,.86.07l-.17,1.62a3.16,3.16,0,0,0-.76-.09,2.23,2.23,0,0,0-1.69.68,2.44,2.44,0,0,0-.64,1.76v4.26h-1.74V33h1.36l.23,1.44h.09a3.13,3.13,0,0,1,1.06-1.16A2.46,2.46,0,0,1,678.62,32.84Z"></path>
  <path class="cls-13" d="M518.75,58.55h-6.1V47.77h6.1v1.49h-4.33V52.2h4.06v1.47h-4.06v3.38h4.33Z"></path>
  <path class="cls-13" d="M520.42,48.24a1,1,0,1,1,1.94,0,.93.93,0,0,1-.25.69,1,1,0,0,1-.71.26,1,1,0,0,1-.73-.26A.93.93,0,0,1,520.42,48.24Zm1.83,10.31h-1.73V50.4h1.73Z"></path>
  <path class="cls-13" d="M531.54,58.55H529.8v-5a2.22,2.22,0,0,0-.38-1.41,1.45,1.45,0,0,0-1.2-.46,1.92,1.92,0,0,0-1.61.64,3.6,3.6,0,0,0-.51,2.18v4.06h-1.73V50.4h1.35l.25,1.07h.09a2.36,2.36,0,0,1,1-.9,3.41,3.41,0,0,1,1.51-.32c1.95,0,2.93,1,2.93,3Z"></path>
  <path class="cls-13" d="M535.32,58.55h-1.73V47.08h1.73Z"></path>
  <path class="cls-13" d="M542.54,58.55l-.35-1.13h-.06a3.34,3.34,0,0,1-1.18,1,3.76,3.76,0,0,1-1.54.27,2.59,2.59,0,0,1-1.87-.65,2.42,2.42,0,0,1-.68-1.84,2.14,2.14,0,0,1,.94-1.9,5.38,5.38,0,0,1,2.85-.7l1.41,0v-.44A1.67,1.67,0,0,0,541.7,52a1.54,1.54,0,0,0-1.14-.38,4.06,4.06,0,0,0-1.2.18,8.14,8.14,0,0,0-1.1.44L537.7,51a5.94,5.94,0,0,1,1.45-.53,6.65,6.65,0,0,1,1.49-.18,3.56,3.56,0,0,1,2.35.68,2.68,2.68,0,0,1,.79,2.13v5.49ZM540,57.37a2.09,2.09,0,0,0,1.51-.53,1.87,1.87,0,0,0,.58-1.47v-.71l-1,0a3.61,3.61,0,0,0-1.78.41,1.26,1.26,0,0,0-.56,1.12,1.08,1.08,0,0,0,.33.84A1.37,1.37,0,0,0,540,57.37Z"></path>
  <path class="cls-13" d="M552.71,50.4v1l-1.4.26a2.07,2.07,0,0,1,.32.63,2.63,2.63,0,0,1,.13.8,2.43,2.43,0,0,1-.87,2,3.66,3.66,0,0,1-2.4.72,3.84,3.84,0,0,1-.71-.06,1,1,0,0,0-.56.81.47.47,0,0,0,.26.43,2.39,2.39,0,0,0,1,.13h1.43a3.19,3.19,0,0,1,2,.58,2,2,0,0,1,.7,1.66,2.42,2.42,0,0,1-1.14,2.14,6.08,6.08,0,0,1-3.31.75,4.56,4.56,0,0,1-2.54-.59,1.89,1.89,0,0,1-.88-1.68,1.81,1.81,0,0,1,.48-1.27,2.58,2.58,0,0,1,1.33-.71,1.29,1.29,0,0,1-.57-.47A1.23,1.23,0,0,1,546,56a2.84,2.84,0,0,1,.77-.62,2.28,2.28,0,0,1-1-.89,2.56,2.56,0,0,1-.4-1.44A2.58,2.58,0,0,1,546.2,51a3.49,3.49,0,0,1,2.38-.73,6.11,6.11,0,0,1,.73,0,3.57,3.57,0,0,1,.57.1Zm-6.41,9.42a1,1,0,0,0,.5.86,2.8,2.8,0,0,0,1.42.31,4.27,4.27,0,0,0,2.11-.41,1.23,1.23,0,0,0,.7-1.08.81.81,0,0,0-.38-.75,3.09,3.09,0,0,0-1.42-.23h-1.31a1.84,1.84,0,0,0-1.18.35A1.17,1.17,0,0,0,546.3,59.82ZM547,53a1.62,1.62,0,0,0,.4,1.18,1.5,1.5,0,0,0,1.13.41c1,0,1.5-.54,1.5-1.61a1.83,1.83,0,0,0-.37-1.23,1.43,1.43,0,0,0-1.13-.43,1.48,1.48,0,0,0-1.14.43A1.8,1.8,0,0,0,547,53Z"></path>
  <path class="cls-13" d="M557.4,58.7a3.92,3.92,0,0,1-3-1.11,4.2,4.2,0,0,1-1.08-3.06,4.64,4.64,0,0,1,1-3.14,3.45,3.45,0,0,1,2.74-1.14,3.39,3.39,0,0,1,2.55,1,3.75,3.75,0,0,1,.93,2.7v.94h-5.43a2.67,2.67,0,0,0,.64,1.82,2.21,2.21,0,0,0,1.7.64,6.36,6.36,0,0,0,1.35-.14,7,7,0,0,0,1.34-.45v1.41a5.12,5.12,0,0,1-1.29.42A7.27,7.27,0,0,1,557.4,58.7Zm-.31-7.14a1.78,1.78,0,0,0-1.33.52,2.49,2.49,0,0,0-.59,1.53h3.7a2.24,2.24,0,0,0-.49-1.53A1.63,1.63,0,0,0,557.09,51.56Z"></path>
  <path class="cls-13" d="M569.34,58.55H567.6v-5a2.22,2.22,0,0,0-.38-1.41,1.47,1.47,0,0,0-1.21-.46,1.91,1.91,0,0,0-1.6.64,3.6,3.6,0,0,0-.51,2.18v4.06h-1.74V50.4h1.36l.24,1.07h.09a2.44,2.44,0,0,1,1-.9,3.36,3.36,0,0,1,1.5-.32c2,0,2.94,1,2.94,3Z"></path>
  <path class="cls-13" d="M576.87,56.23a2.12,2.12,0,0,1-.87,1.83,4.14,4.14,0,0,1-2.5.64,6,6,0,0,1-2.61-.49v-1.5a6.45,6.45,0,0,0,2.67.66c1.07,0,1.6-.32,1.6-1a.81.81,0,0,0-.17-.52,2.19,2.19,0,0,0-.59-.43,10.06,10.06,0,0,0-1.12-.5,5.22,5.22,0,0,1-1.91-1.09,2,2,0,0,1-.5-1.42,1.84,1.84,0,0,1,.85-1.62,3.94,3.94,0,0,1,2.29-.58,6.45,6.45,0,0,1,2.72.58l-.56,1.31a6,6,0,0,0-2.22-.55c-.91,0-1.37.26-1.37.78a.79.79,0,0,0,.36.65,7.8,7.8,0,0,0,1.56.73,7.14,7.14,0,0,1,1.47.72,2.1,2.1,0,0,1,.68.75A2.25,2.25,0,0,1,576.87,56.23Z"></path>
  <path class="cls-13" d="M578.27,48.24a1,1,0,1,1,2,0,.93.93,0,0,1-.25.69,1.13,1.13,0,0,1-1.44,0A.94.94,0,0,1,578.27,48.24Zm1.84,10.31h-1.73V50.4h1.73Z"></path>
  <path class="cls-13" d="M585.51,58.7a3.57,3.57,0,0,1-2.81-1.08,4.51,4.51,0,0,1-1-3.1,4.52,4.52,0,0,1,1-3.17,3.75,3.75,0,0,1,2.9-1.1,5.48,5.48,0,0,1,2.33.48l-.53,1.39a5.33,5.33,0,0,0-1.81-.43c-1.41,0-2.12.94-2.12,2.81a3.34,3.34,0,0,0,.53,2.06,1.82,1.82,0,0,0,1.54.69,4.48,4.48,0,0,0,2.2-.57v1.51a3.71,3.71,0,0,1-1,.39A5.86,5.86,0,0,1,585.51,58.7Z"></path>
  <path class="cls-13" d="M596.5,58.55h-1.74v-5a2.22,2.22,0,0,0-.38-1.41,1.48,1.48,0,0,0-1.21-.46,1.9,1.9,0,0,0-1.6.65,3.58,3.58,0,0,0-.51,2.18v4h-1.74V47.08h1.74V50a13.37,13.37,0,0,1-.09,1.5h.11a2.35,2.35,0,0,1,1-.92,3.25,3.25,0,0,1,1.47-.32c2,0,3,1,3,3Z"></path>
  <path class="cls-13" d="M602.11,58.7a4,4,0,0,1-3-1.11,4.24,4.24,0,0,1-1.07-3.06,4.59,4.59,0,0,1,1-3.14,3.43,3.43,0,0,1,2.73-1.14,3.36,3.36,0,0,1,2.55,1,3.71,3.71,0,0,1,.94,2.7v.94h-5.44a2.67,2.67,0,0,0,.65,1.82,2.21,2.21,0,0,0,1.7.64,6.43,6.43,0,0,0,1.35-.14,7,7,0,0,0,1.33-.45v1.41a5.19,5.19,0,0,1-1.28.42A7.34,7.34,0,0,1,602.11,58.7Zm-.32-7.14a1.76,1.76,0,0,0-1.32.52,2.49,2.49,0,0,0-.59,1.53h3.7a2.3,2.3,0,0,0-.49-1.53A1.67,1.67,0,0,0,601.79,51.56Z"></path>
  <path class="cls-13" d="M611,50.25a4.14,4.14,0,0,1,.86.07l-.17,1.62a3.19,3.19,0,0,0-.77-.09,2.22,2.22,0,0,0-1.68.68,2.45,2.45,0,0,0-.65,1.76v4.26h-1.73V50.4h1.36l.23,1.43h.08a3.36,3.36,0,0,1,1.06-1.15A2.51,2.51,0,0,1,611,50.25Z"></path>
  <path class="cls-13" d="M618.76,58.55l-.25-1.07h-.09a2.49,2.49,0,0,1-1,.9,3.58,3.58,0,0,1-1.53.32,3,3,0,0,1-2.21-.74,3,3,0,0,1-.73-2.23V50.4h1.75v5a2.21,2.21,0,0,0,.38,1.4,1.48,1.48,0,0,0,1.2.47,1.93,1.93,0,0,0,1.61-.65,3.64,3.64,0,0,0,.51-2.19V50.4h1.74v8.15Z"></path>
  <path class="cls-13" d="M629.4,58.55h-1.74v-5a2.16,2.16,0,0,0-.38-1.41,1.45,1.45,0,0,0-1.2-.46,1.92,1.92,0,0,0-1.61.64,3.6,3.6,0,0,0-.51,2.18v4.06h-1.73V50.4h1.35l.25,1.07h.09a2.36,2.36,0,0,1,1-.9,3.44,3.44,0,0,1,1.51-.32c1.95,0,2.93,1,2.93,3Z"></path>
  <path class="cls-13" d="M638.34,50.4v1l-1.39.26a2.31,2.31,0,0,1,.31.63,2.36,2.36,0,0,1,.13.8,2.43,2.43,0,0,1-.87,2,3.66,3.66,0,0,1-2.4.72,3.84,3.84,0,0,1-.71-.06,1,1,0,0,0-.56.81.47.47,0,0,0,.26.43,2.41,2.41,0,0,0,1,.13h1.42a3.19,3.19,0,0,1,2,.58,2,2,0,0,1,.7,1.66,2.42,2.42,0,0,1-1.14,2.14,6.08,6.08,0,0,1-3.31.75,4.56,4.56,0,0,1-2.54-.59,1.89,1.89,0,0,1-.88-1.68,1.81,1.81,0,0,1,.48-1.27,2.58,2.58,0,0,1,1.33-.71,1.29,1.29,0,0,1-.57-.47,1.23,1.23,0,0,1,0-1.47,2.84,2.84,0,0,1,.77-.62,2.33,2.33,0,0,1-1-.89A2.64,2.64,0,0,1,631,53a2.58,2.58,0,0,1,.84-2.06,3.5,3.5,0,0,1,2.39-.73,6.09,6.09,0,0,1,.72,0,3.18,3.18,0,0,1,.57.1Zm-6.41,9.42a1,1,0,0,0,.51.86,2.77,2.77,0,0,0,1.42.31,4.25,4.25,0,0,0,2.1-.41,1.21,1.21,0,0,0,.7-1.08.81.81,0,0,0-.38-.75,3.07,3.07,0,0,0-1.41-.23h-1.32a1.86,1.86,0,0,0-1.18.35A1.17,1.17,0,0,0,631.93,59.82Zm.75-6.78a1.66,1.66,0,0,0,.39,1.18,1.5,1.5,0,0,0,1.13.41c1,0,1.51-.54,1.51-1.61a1.83,1.83,0,0,0-.38-1.23,1.42,1.42,0,0,0-1.13-.43,1.48,1.48,0,0,0-1.14.43A1.8,1.8,0,0,0,632.68,53Z"></path>
  <path class="cls-13" d="M645,56.23a2.12,2.12,0,0,1-.87,1.83,4.13,4.13,0,0,1-2.49.64,6,6,0,0,1-2.62-.49v-1.5a6.46,6.46,0,0,0,2.68.66c1.06,0,1.6-.32,1.6-1a.77.77,0,0,0-.18-.52,2.12,2.12,0,0,0-.58-.43,10.36,10.36,0,0,0-1.13-.5,5.31,5.31,0,0,1-1.91-1.09,2,2,0,0,1-.49-1.42,1.85,1.85,0,0,1,.84-1.62,4,4,0,0,1,2.3-.58,6.48,6.48,0,0,1,2.72.58l-.56,1.31a6,6,0,0,0-2.22-.55c-.92,0-1.37.26-1.37.78A.8.8,0,0,0,641,53a7.8,7.8,0,0,0,1.56.73,6.65,6.65,0,0,1,1.47.72,2,2,0,0,1,.68.75A2.12,2.12,0,0,1,645,56.23Z"></path>
  <path class="cls-13" d="M650,58.7a3.92,3.92,0,0,1-3-1.11A4.2,4.2,0,0,1,646,54.53a4.64,4.64,0,0,1,1-3.14,3.45,3.45,0,0,1,2.74-1.14,3.39,3.39,0,0,1,2.55,1,3.75,3.75,0,0,1,.93,2.7v.94h-5.43a2.67,2.67,0,0,0,.64,1.82,2.21,2.21,0,0,0,1.7.64,6.36,6.36,0,0,0,1.35-.14,7,7,0,0,0,1.34-.45v1.41a5.12,5.12,0,0,1-1.29.42A7.27,7.27,0,0,1,650,58.7Zm-.31-7.14a1.78,1.78,0,0,0-1.33.52,2.49,2.49,0,0,0-.59,1.53h3.7a2.24,2.24,0,0,0-.49-1.53A1.63,1.63,0,0,0,649.71,51.56Z"></path>
  <path class="cls-13" d="M654.68,48.24a1,1,0,0,1,1.7-.72,1,1,0,0,1,.25.72,1,1,0,0,1-1.69.69A.94.94,0,0,1,654.68,48.24Zm1.84,10.31h-1.73V50.4h1.73Z"></path>
  <path class="cls-13" d="M665.81,58.55h-1.74v-5a2.22,2.22,0,0,0-.38-1.41,1.48,1.48,0,0,0-1.21-.46,1.93,1.93,0,0,0-1.61.64,3.68,3.68,0,0,0-.5,2.18v4.06h-1.74V50.4H660l.24,1.07h.09a2.44,2.44,0,0,1,1-.9,3.36,3.36,0,0,1,1.5-.32c2,0,2.94,1,2.94,3Z"></path>
  <path class="cls-13" d="M672,50.25a4.24,4.24,0,0,1,.87.07l-.17,1.62a3.31,3.31,0,0,0-.77-.09,2.24,2.24,0,0,0-1.69.68,2.44,2.44,0,0,0-.64,1.76v4.26h-1.73V50.4h1.35l.23,1.43h.09a3.18,3.18,0,0,1,1.06-1.15A2.46,2.46,0,0,1,672,50.25Z"></path>
  <path class="cls-13" d="M673.89,48.24a1,1,0,1,1,1.94,0,.93.93,0,0,1-.25.69,1,1,0,0,1-.71.26,1,1,0,0,1-.73-.26A.93.93,0,0,1,673.89,48.24Zm1.83,10.31H674V50.4h1.73Z"></path>
  <path class="cls-13" d="M681.13,58.7a3.58,3.58,0,0,1-2.82-1.08,4.51,4.51,0,0,1-1-3.1,4.57,4.57,0,0,1,1-3.17,3.75,3.75,0,0,1,2.91-1.1,5.44,5.44,0,0,1,2.32.48l-.52,1.39a5.43,5.43,0,0,0-1.82-.43c-1.41,0-2.12.94-2.12,2.81a3.34,3.34,0,0,0,.53,2.06,1.83,1.83,0,0,0,1.55.69,4.47,4.47,0,0,0,2.19-.57v1.51a3.52,3.52,0,0,1-1,.39A5.92,5.92,0,0,1,681.13,58.7Z"></path>
  <path class="cls-13" d="M692.11,58.55h-1.74v-5a2.22,2.22,0,0,0-.38-1.41,1.45,1.45,0,0,0-1.2-.46,1.91,1.91,0,0,0-1.61.65,3.58,3.58,0,0,0-.51,2.18v4h-1.73V47.08h1.73V50a13.37,13.37,0,0,1-.09,1.5h.11a2.41,2.41,0,0,1,1-.92,3.32,3.32,0,0,1,1.48-.32c2,0,3,1,3,3Z"></path>
  <path class="cls-13" d="M697.2,57.3a4.37,4.37,0,0,0,1.27-.2v1.3a3,3,0,0,1-.75.21,4.76,4.76,0,0,1-.94.09c-1.64,0-2.46-.87-2.46-2.6V51.71h-1.11v-.77l1.19-.63.59-1.73h1.07V50.4h2.32v1.31h-2.32v4.36a1.23,1.23,0,0,0,.32.93A1.12,1.12,0,0,0,697.2,57.3Z"></path>
  <path class="cls-13" d="M705.47,58.55l-.24-1.07h-.09a2.52,2.52,0,0,1-1,.9,3.53,3.53,0,0,1-1.52.32,3,3,0,0,1-2.22-.74,3.07,3.07,0,0,1-.73-2.23V50.4h1.75v5a2.21,2.21,0,0,0,.38,1.4,1.49,1.49,0,0,0,1.21.47,1.93,1.93,0,0,0,1.6-.65,3.64,3.64,0,0,0,.51-2.19V50.4h1.74v8.15Z"></path>
  <path class="cls-13" d="M716.12,58.55h-1.74v-5a2.22,2.22,0,0,0-.38-1.41,1.48,1.48,0,0,0-1.21-.46,1.93,1.93,0,0,0-1.61.64,3.6,3.6,0,0,0-.51,2.18v4.06h-1.73V50.4h1.36l.24,1.07h.09a2.38,2.38,0,0,1,1-.9,3.36,3.36,0,0,1,1.5-.32c2,0,2.94,1,2.94,3Z"></path>
  <path class="cls-13" d="M725.05,50.4v1l-1.39.26a2.06,2.06,0,0,1,.31.63,2.36,2.36,0,0,1,.13.8,2.43,2.43,0,0,1-.87,2,3.66,3.66,0,0,1-2.4.72,3.73,3.73,0,0,1-.7-.06,1,1,0,0,0-.56.81.46.46,0,0,0,.26.43,2.33,2.33,0,0,0,1,.13h1.42a3.19,3.19,0,0,1,2,.58,2,2,0,0,1,.7,1.66,2.42,2.42,0,0,1-1.14,2.14,6,6,0,0,1-3.3.75,4.62,4.62,0,0,1-2.55-.59,1.9,1.9,0,0,1-.87-1.68,1.8,1.8,0,0,1,.47-1.27,2.62,2.62,0,0,1,1.33-.71,1.29,1.29,0,0,1-.57-.47,1.2,1.2,0,0,1-.22-.69,1.22,1.22,0,0,1,.25-.78,3,3,0,0,1,.77-.62,2.38,2.38,0,0,1-1-.89,2.92,2.92,0,0,1,.44-3.5,3.52,3.52,0,0,1,2.39-.73,6.4,6.4,0,0,1,.73,0,3.57,3.57,0,0,1,.57.1Zm-6.41,9.42a1,1,0,0,0,.51.86,2.8,2.8,0,0,0,1.42.31,4.32,4.32,0,0,0,2.11-.41,1.22,1.22,0,0,0,.69-1.08.81.81,0,0,0-.38-.75,3,3,0,0,0-1.41-.23h-1.31a1.89,1.89,0,0,0-1.19.35A1.17,1.17,0,0,0,718.64,59.82Zm.75-6.78a1.66,1.66,0,0,0,.39,1.18,1.53,1.53,0,0,0,1.14.41c1,0,1.5-.54,1.5-1.61a1.88,1.88,0,0,0-.37-1.23,1.71,1.71,0,0,0-2.27,0A1.8,1.8,0,0,0,719.39,53Z"></path>
  <line class="cls-14" x1="521.05" y1="75.93" x2="719.64" y2="75.93"></line>
  <polyline class="cls-14" points="710.72 63.84 722.81 75.93 710.72 88.02"></polyline>
  <polyline class="cls-15" points="797.6 152.49 797.6 177.88 51.6 177.88 51.6 156.12"></polyline>
  <polyline class="cls-14" points="39.77 165.84 51.86 153.75 63.95 165.84"></polyline>
  <path class="cls-13" d="M283.18,165.54h-6.1V154.76h6.1v1.49h-4.34v2.93h4.06v1.48h-4.06V164h4.34Z"></path>
  <path class="cls-13" d="M289.46,157.24a4.07,4.07,0,0,1,.86.07l-.17,1.62a3.16,3.16,0,0,0-.76-.09,2.19,2.19,0,0,0-1.69.68,2.44,2.44,0,0,0-.64,1.76v4.26h-1.74v-8.15h1.36l.23,1.43H287a3.24,3.24,0,0,1,1.05-1.15A2.51,2.51,0,0,1,289.46,157.24Z"></path>
  <path class="cls-13" d="M297.31,163.22a2.13,2.13,0,0,1-.87,1.83,4.13,4.13,0,0,1-2.49.64,5.88,5.88,0,0,1-2.62-.5V163.7a6.46,6.46,0,0,0,2.68.66c1.07,0,1.6-.32,1.6-1a.77.77,0,0,0-.18-.52,2.12,2.12,0,0,0-.58-.43,10.36,10.36,0,0,0-1.13-.5,5.16,5.16,0,0,1-1.9-1.09,2,2,0,0,1-.5-1.42,1.85,1.85,0,0,1,.84-1.62,4,4,0,0,1,2.3-.58,6.48,6.48,0,0,1,2.72.58l-.56,1.31a6,6,0,0,0-2.22-.55c-.91,0-1.37.26-1.37.78a.79.79,0,0,0,.36.65,7.25,7.25,0,0,0,1.56.73,6.76,6.76,0,0,1,1.46.72,2.07,2.07,0,0,1,.68.74A2.19,2.19,0,0,1,297.31,163.22Z"></path>
  <path class="cls-13" d="M302.22,164.29a4.26,4.26,0,0,0,1.27-.2v1.3a2.87,2.87,0,0,1-.74.21,4.83,4.83,0,0,1-.94.09c-1.64,0-2.46-.87-2.46-2.6V158.7h-1.12v-.77l1.2-.63.59-1.73h1.07v1.82h2.32v1.31h-2.32v4.36a1.23,1.23,0,0,0,.31.93A1.13,1.13,0,0,0,302.22,164.29Z"></path>
  <path class="cls-13" d="M310.22,165.54l-.34-1.13h-.06a3.45,3.45,0,0,1-1.19,1,3.74,3.74,0,0,1-1.53.27,2.6,2.6,0,0,1-1.88-.65,2.42,2.42,0,0,1-.67-1.84,2.16,2.16,0,0,1,.93-1.9,5.41,5.41,0,0,1,2.85-.7l1.41,0v-.44a1.67,1.67,0,0,0-.36-1.17,1.47,1.47,0,0,0-1.13-.38,4.07,4.07,0,0,0-1.21.18,9.66,9.66,0,0,0-1.1.43l-.56-1.23a5.69,5.69,0,0,1,1.45-.53,6.72,6.72,0,0,1,1.49-.18,3.49,3.49,0,0,1,2.35.68,2.64,2.64,0,0,1,.79,2.13v5.49Zm-2.58-1.18a2.12,2.12,0,0,0,1.52-.53,1.9,1.9,0,0,0,.57-1.47v-.71l-1.05,0a3.64,3.64,0,0,0-1.78.41,1.25,1.25,0,0,0-.56,1.12,1.08,1.08,0,0,0,.33.84A1.39,1.39,0,0,0,307.64,164.36Z"></path>
  <path class="cls-13" d="M316.92,164.29a4.37,4.37,0,0,0,1.27-.2v1.3a2.87,2.87,0,0,1-.74.21,4.94,4.94,0,0,1-.95.09c-1.64,0-2.46-.87-2.46-2.6V158.7h-1.11v-.77l1.19-.63.59-1.73h1.07v1.82h2.33v1.31h-2.33v4.36a1.23,1.23,0,0,0,.32.93A1.12,1.12,0,0,0,316.92,164.29Z"></path>
  <path class="cls-13" d="M322.85,164.29a4.26,4.26,0,0,0,1.27-.2v1.3a2.87,2.87,0,0,1-.74.21,4.76,4.76,0,0,1-.94.09c-1.64,0-2.46-.87-2.46-2.6V158.7h-1.12v-.77l1.2-.63.59-1.73h1.07v1.82H324v1.31h-2.32v4.36a1.23,1.23,0,0,0,.31.93A1.13,1.13,0,0,0,322.85,164.29Z"></path>
  <path class="cls-13" d="M331.5,165.54l-.24-1.07h-.09a2.37,2.37,0,0,1-1,.89,3.37,3.37,0,0,1-1.52.33,3,3,0,0,1-2.21-.74,3,3,0,0,1-.73-2.23v-5.33h1.74v5a2.14,2.14,0,0,0,.39,1.4,1.45,1.45,0,0,0,1.2.47,1.89,1.89,0,0,0,1.6-.66,3.51,3.51,0,0,0,.52-2.18v-4.06h1.74v8.15Z"></path>
  <path class="cls-13" d="M342.51,165.54h-1.74v-5a2.16,2.16,0,0,0-.38-1.41,1.45,1.45,0,0,0-1.2-.47,1.92,1.92,0,0,0-1.61.65,3.6,3.6,0,0,0-.51,2.18v4.06h-1.73v-8.15h1.35l.25,1.07H337a2.36,2.36,0,0,1,1-.9,3.44,3.44,0,0,1,1.51-.32c1.95,0,2.93,1,2.93,3Z"></path>
  <path class="cls-13" d="M351.81,157.39v1l-1.39.25a2.54,2.54,0,0,1,.31.64,2.36,2.36,0,0,1,.13.8,2.43,2.43,0,0,1-.87,2,3.66,3.66,0,0,1-2.4.72,3.92,3.92,0,0,1-.71-.06,1,1,0,0,0-.56.81.44.44,0,0,0,.27.42,2.13,2.13,0,0,0,1,.14H349a3.19,3.19,0,0,1,2,.58,2,2,0,0,1,.7,1.66,2.42,2.42,0,0,1-1.14,2.14,6,6,0,0,1-3.3.75,4.6,4.6,0,0,1-2.55-.59,1.92,1.92,0,0,1-.88-1.68,1.79,1.79,0,0,1,.48-1.27,2.55,2.55,0,0,1,1.33-.71,1.29,1.29,0,0,1-.57-.47,1.23,1.23,0,0,1,0-1.47,2.84,2.84,0,0,1,.77-.62,2.33,2.33,0,0,1-1-.89,2.92,2.92,0,0,1,.44-3.5,3.52,3.52,0,0,1,2.39-.73,4.72,4.72,0,0,1,.73,0,3.57,3.57,0,0,1,.57.1Zm-6.41,9.42a1,1,0,0,0,.51.86,2.78,2.78,0,0,0,1.42.3,4.34,4.34,0,0,0,2.11-.4,1.22,1.22,0,0,0,.69-1.08.81.81,0,0,0-.38-.75,3,3,0,0,0-1.41-.23H347a1.86,1.86,0,0,0-1.18.35A1.15,1.15,0,0,0,345.4,166.81Zm.75-6.78a1.66,1.66,0,0,0,.39,1.18,1.5,1.5,0,0,0,1.13.41c1,0,1.51-.54,1.51-1.61a1.88,1.88,0,0,0-.37-1.23,1.73,1.73,0,0,0-2.28,0A1.83,1.83,0,0,0,346.15,160Z"></path>
  <path class="cls-13" d="M361.41,157.24a2.85,2.85,0,0,1,2.38,1.1,6.1,6.1,0,0,1,0,6.23,3.14,3.14,0,0,1-4.8,0h-.12l-.32,1h-1.3V154.07H359v2.73q0,.3,0,.9c0,.39,0,.65-.05.76H359A2.73,2.73,0,0,1,361.41,157.24Zm-.45,1.41a1.77,1.77,0,0,0-1.51.62,3.65,3.65,0,0,0-.47,2.06v.12a3.8,3.8,0,0,0,.47,2.16,1.76,1.76,0,0,0,1.54.66,1.57,1.57,0,0,0,1.4-.73,3.84,3.84,0,0,0,.47-2.11C362.86,159.58,362.23,158.65,361,158.65Z"></path>
  <path class="cls-13" d="M370.21,165.69a3.94,3.94,0,0,1-3-1.11,4.2,4.2,0,0,1-1.07-3.06,4.64,4.64,0,0,1,1-3.14,3.46,3.46,0,0,1,2.74-1.14,3.39,3.39,0,0,1,2.55,1,3.75,3.75,0,0,1,.93,2.7v.93H368a2.68,2.68,0,0,0,.64,1.83,2.26,2.26,0,0,0,1.7.64,6.29,6.29,0,0,0,1.35-.14,7,7,0,0,0,1.34-.45v1.41a5.19,5.19,0,0,1-1.28.42A7.45,7.45,0,0,1,370.21,165.69Zm-.31-7.14a1.8,1.8,0,0,0-1.33.52,2.49,2.49,0,0,0-.59,1.53h3.7a2.29,2.29,0,0,0-.48-1.53A1.67,1.67,0,0,0,369.9,158.55Z"></path>
  <path class="cls-13" d="M375.25,155.23a1,1,0,0,1,.25-.72,1,1,0,0,1,.73-.25,1,1,0,0,1,.71.25,1,1,0,0,1,.26.72.94.94,0,0,1-.26.69,1,1,0,0,1-.71.26,1,1,0,0,1-.73-.26A1,1,0,0,1,375.25,155.23Zm1.84,10.31h-1.74v-8.15h1.74Z"></path>
  <path class="cls-13" d="M390.36,165.54l-1.08-3h-4.12l-1.05,3h-1.86l4-10.82h1.92l4,10.82ZM388.82,161l-1-2.94c-.08-.19-.18-.5-.31-.92s-.22-.74-.27-.93a15.56,15.56,0,0,1-.58,2l-1,2.81Z"></path>
  <path class="cls-13" d="M399.22,165.54l-.24-1.07h-.09a2.37,2.37,0,0,1-1,.89,3.37,3.37,0,0,1-1.52.33,3,3,0,0,1-2.21-.74,3,3,0,0,1-.73-2.23v-5.33h1.74v5a2.14,2.14,0,0,0,.39,1.4,1.45,1.45,0,0,0,1.2.47,1.89,1.89,0,0,0,1.6-.66,3.57,3.57,0,0,0,.52-2.18v-4.06h1.74v8.15Z"></path>
  <path class="cls-13" d="M408.53,163.22a2.15,2.15,0,0,1-.86,1.83,4.18,4.18,0,0,1-2.5.64,5.91,5.91,0,0,1-2.62-.5V163.7a6.5,6.5,0,0,0,2.68.66c1.07,0,1.6-.32,1.6-1a.77.77,0,0,0-.18-.52,2,2,0,0,0-.58-.43,9.55,9.55,0,0,0-1.13-.5,5.16,5.16,0,0,1-1.9-1.09,2,2,0,0,1-.5-1.42,1.85,1.85,0,0,1,.84-1.62,4,4,0,0,1,2.3-.58,6.45,6.45,0,0,1,2.72.58l-.56,1.31a6,6,0,0,0-2.22-.55c-.91,0-1.37.26-1.37.78a.79.79,0,0,0,.36.65,7.8,7.8,0,0,0,1.56.73,6.76,6.76,0,0,1,1.46.72,2,2,0,0,1,.68.74A2.19,2.19,0,0,1,408.53,163.22Z"></path>
  <path class="cls-13" d="M414.5,158.7h-2v6.84h-1.74V158.7h-1.34v-.81l1.34-.53v-.53a3,3,0,0,1,.68-2.15,2.78,2.78,0,0,1,2.07-.69,5.57,5.57,0,0,1,1.8.3l-.46,1.31a3.93,3.93,0,0,0-1.22-.2,1,1,0,0,0-.86.36,1.84,1.84,0,0,0-.27,1.1v.53h2Z"></path>
  <path class="cls-13" d="M421,165.54l-.35-1.13h-.06a3.43,3.43,0,0,1-1.18,1,3.76,3.76,0,0,1-1.54.27A2.62,2.62,0,0,1,416,165a2.46,2.46,0,0,1-.67-1.84,2.14,2.14,0,0,1,.94-1.9,5.35,5.35,0,0,1,2.85-.7l1.41,0v-.44a1.63,1.63,0,0,0-.37-1.17,1.47,1.47,0,0,0-1.13-.38,4,4,0,0,0-1.2.18,10.62,10.62,0,0,0-1.11.43l-.56-1.23a5.76,5.76,0,0,1,1.46-.53,6.63,6.63,0,0,1,1.48-.18,3.47,3.47,0,0,1,2.35.68,2.65,2.65,0,0,1,.8,2.13v5.49Zm-2.58-1.18a2.09,2.09,0,0,0,1.51-.53,1.9,1.9,0,0,0,.57-1.47v-.71l-1,0a3.61,3.61,0,0,0-1.78.41,1.23,1.23,0,0,0-.56,1.12,1.11,1.11,0,0,0,.32.84A1.4,1.4,0,0,0,418.41,164.36Z"></path>
  <path class="cls-13" d="M426.38,165.54h-1.74V154.07h1.74Z"></path>
  <path class="cls-13" d="M430.59,165.54h-1.73V154.07h1.73Z"></path>
  <path class="cls-13" d="M439.74,165.69a2.83,2.83,0,0,1-2.38-1.11,6,6,0,0,1,0-6.22,2.86,2.86,0,0,1,2.4-1.12,2.8,2.8,0,0,1,2.45,1.19h.08a11,11,0,0,1-.12-1.39v-3h1.74v11.47h-1.36l-.3-1.07h-.08A2.78,2.78,0,0,1,439.74,165.69Zm.46-1.4a1.89,1.89,0,0,0,1.56-.6,3.19,3.19,0,0,0,.5-1.95v-.25a3.72,3.72,0,0,0-.5-2.19,1.88,1.88,0,0,0-1.57-.65,1.59,1.59,0,0,0-1.41.75,4.75,4.75,0,0,0,0,4.18A1.6,1.6,0,0,0,440.2,164.29Z"></path>
  <path class="cls-13" d="M450,165.69a4,4,0,0,1-3-1.11,4.24,4.24,0,0,1-1.07-3.06,4.59,4.59,0,0,1,1-3.14,3.43,3.43,0,0,1,2.73-1.14,3.36,3.36,0,0,1,2.55,1,3.71,3.71,0,0,1,.94,2.7v.93h-5.44a2.68,2.68,0,0,0,.65,1.83,2.25,2.25,0,0,0,1.7.64,6.26,6.26,0,0,0,1.34-.14,6.81,6.81,0,0,0,1.34-.45v1.41a5.19,5.19,0,0,1-1.28.42A7.34,7.34,0,0,1,450,165.69Zm-.32-7.14a1.76,1.76,0,0,0-1.32.52,2.56,2.56,0,0,0-.6,1.53h3.71a2.3,2.3,0,0,0-.49-1.53A1.67,1.67,0,0,0,449.64,158.55Z"></path>
  <path class="cls-13" d="M460.58,163.22a2.13,2.13,0,0,1-.87,1.83,4.14,4.14,0,0,1-2.5.64,5.86,5.86,0,0,1-2.61-.5V163.7a6.45,6.45,0,0,0,2.67.66c1.07,0,1.6-.32,1.6-1a.81.81,0,0,0-.17-.52,2.19,2.19,0,0,0-.59-.43A10.06,10.06,0,0,0,457,162a5.22,5.22,0,0,1-1.91-1.09,2,2,0,0,1-.5-1.42,1.84,1.84,0,0,1,.85-1.62,3.94,3.94,0,0,1,2.29-.58,6.45,6.45,0,0,1,2.72.58l-.56,1.31a6,6,0,0,0-2.22-.55c-.91,0-1.37.26-1.37.78a.79.79,0,0,0,.36.65,7.8,7.8,0,0,0,1.56.73,7.14,7.14,0,0,1,1.47.72,2.16,2.16,0,0,1,.68.74A2.32,2.32,0,0,1,460.58,163.22Z"></path>
  <path class="cls-13" d="M474.79,165.54h-2.05l-3.38-4.88-1,.85v4h-1.76V154.76h1.76v5.15q.72-.89,1.44-1.71l2.91-3.44h2l-4,4.73Z"></path>
  <path class="cls-13" d="M480.16,157.24a4.07,4.07,0,0,1,.86.07l-.17,1.62a3.16,3.16,0,0,0-.76-.09,2.19,2.19,0,0,0-1.69.68,2.44,2.44,0,0,0-.64,1.76v4.26H476v-8.15h1.36l.23,1.43h.09a3.18,3.18,0,0,1,1.06-1.15A2.46,2.46,0,0,1,480.16,157.24Z"></path>
  <path class="cls-13" d="M486.1,165.69a4,4,0,0,1-3-1.11,4.24,4.24,0,0,1-1.07-3.06,4.64,4.64,0,0,1,1-3.14,3.46,3.46,0,0,1,2.74-1.14,3.36,3.36,0,0,1,2.55,1,3.76,3.76,0,0,1,.94,2.7v.93h-5.44a2.73,2.73,0,0,0,.64,1.83,2.27,2.27,0,0,0,1.71.64,6.26,6.26,0,0,0,1.34-.14,7,7,0,0,0,1.34-.45v1.41a5.19,5.19,0,0,1-1.28.42A7.34,7.34,0,0,1,486.1,165.69Zm-.32-7.14a1.76,1.76,0,0,0-1.32.52,2.5,2.5,0,0,0-.6,1.53h3.7a2.29,2.29,0,0,0-.48-1.53A1.67,1.67,0,0,0,485.78,158.55Z"></path>
  <path class="cls-13" d="M494,165.69a2.85,2.85,0,0,1-2.39-1.11,6.05,6.05,0,0,1,0-6.22,2.84,2.84,0,0,1,2.4-1.12,2.78,2.78,0,0,1,2.44,1.19h.09a11,11,0,0,1-.12-1.39v-3h1.74v11.47h-1.36l-.3-1.07h-.08A2.78,2.78,0,0,1,494,165.69Zm.46-1.4a1.91,1.91,0,0,0,1.56-.6,3.19,3.19,0,0,0,.5-1.95v-.25a3.72,3.72,0,0,0-.5-2.19,1.88,1.88,0,0,0-1.57-.65,1.59,1.59,0,0,0-1.41.75,4.7,4.7,0,0,0,0,4.18A1.63,1.63,0,0,0,494.45,164.29Z"></path>
  <path class="cls-13" d="M500.54,155.23a1,1,0,0,1,.25-.72,1,1,0,0,1,.73-.25,1,1,0,0,1,.71.25,1,1,0,0,1,.26.72.94.94,0,0,1-.26.69,1,1,0,0,1-.71.26,1,1,0,0,1-.73-.26A1,1,0,0,1,500.54,155.23Zm1.84,10.31h-1.74v-8.15h1.74Z"></path>
  <path class="cls-13" d="M507.89,164.29a4.31,4.31,0,0,0,1.27-.2v1.3a2.87,2.87,0,0,1-.74.21,4.83,4.83,0,0,1-.94.09c-1.64,0-2.46-.87-2.46-2.6V158.7H503.9v-.77l1.2-.63.59-1.73h1.07v1.82h2.32v1.31h-2.32v4.36a1.23,1.23,0,0,0,.31.93A1.13,1.13,0,0,0,507.89,164.29Z"></path>
  <path class="cls-13" d="M510.69,155.23a1,1,0,1,1,1.94,0,.93.93,0,0,1-.25.69,1,1,0,0,1-.71.26,1,1,0,0,1-.73-.26A.93.93,0,0,1,510.69,155.23Zm1.83,10.31h-1.73v-8.15h1.73Z"></path>
  <path class="cls-13" d="M522.17,165.54h-1.74v-5a2.16,2.16,0,0,0-.38-1.41,1.45,1.45,0,0,0-1.2-.47,1.93,1.93,0,0,0-1.61.65,3.6,3.6,0,0,0-.51,2.18v4.06H515v-8.15h1.36l.24,1.07h.09a2.33,2.33,0,0,1,1-.9,3.36,3.36,0,0,1,1.5-.32c2,0,2.93,1,2.93,3Z"></path>
  <path class="cls-13" d="M530.06,163.22a2.15,2.15,0,0,1-.86,1.83,4.16,4.16,0,0,1-2.5.64,5.91,5.91,0,0,1-2.62-.5V163.7a6.5,6.5,0,0,0,2.68.66c1.07,0,1.6-.32,1.6-1a.77.77,0,0,0-.18-.52,2,2,0,0,0-.58-.43,9.55,9.55,0,0,0-1.13-.5,5.25,5.25,0,0,1-1.9-1.09,2,2,0,0,1-.5-1.42,1.85,1.85,0,0,1,.84-1.62,4,4,0,0,1,2.3-.58,6.45,6.45,0,0,1,2.72.58l-.56,1.31a6,6,0,0,0-2.22-.55c-.91,0-1.37.26-1.37.78a.79.79,0,0,0,.36.65,7.8,7.8,0,0,0,1.56.73,7.14,7.14,0,0,1,1.47.72,2,2,0,0,1,.67.74A2.19,2.19,0,0,1,530.06,163.22Z"></path>
  <path class="cls-13" d="M535,164.29a4.26,4.26,0,0,0,1.27-.2v1.3a2.87,2.87,0,0,1-.74.21,4.76,4.76,0,0,1-.94.09c-1.64,0-2.46-.87-2.46-2.6V158.7H531v-.77l1.19-.63.59-1.73h1.07v1.82h2.32v1.31h-2.32v4.36a1.23,1.23,0,0,0,.31.93A1.15,1.15,0,0,0,535,164.29Z"></path>
  <path class="cls-13" d="M537.77,155.23a1,1,0,0,1,.25-.72,1,1,0,0,1,.73-.25,1,1,0,0,1,.71.25,1,1,0,0,1,.26.72.94.94,0,0,1-.26.69,1,1,0,0,1-.71.26,1,1,0,0,1-.73-.26A.93.93,0,0,1,537.77,155.23Zm1.84,10.31h-1.74v-8.15h1.74Z"></path>
  <path class="cls-13" d="M545.12,164.29a4.31,4.31,0,0,0,1.27-.2v1.3a2.87,2.87,0,0,1-.74.21,4.83,4.83,0,0,1-.94.09c-1.64,0-2.46-.87-2.46-2.6V158.7h-1.12v-.77l1.2-.63.59-1.73H544v1.82h2.32v1.31H544v4.36a1.23,1.23,0,0,0,.31.93A1.13,1.13,0,0,0,545.12,164.29Z"></path>
  <path class="cls-13" d="M553.77,165.54l-.24-1.07h-.09a2.43,2.43,0,0,1-1,.89,3.4,3.4,0,0,1-1.52.33,3,3,0,0,1-2.22-.74,3.08,3.08,0,0,1-.72-2.23v-5.33h1.74v5a2.14,2.14,0,0,0,.39,1.4,1.45,1.45,0,0,0,1.2.47,1.89,1.89,0,0,0,1.6-.66,3.58,3.58,0,0,0,.51-2.18v-4.06h1.74v8.15Z"></path>
  <path class="cls-13" d="M560.64,164.29a4.26,4.26,0,0,0,1.27-.2v1.3a2.87,2.87,0,0,1-.74.21,4.83,4.83,0,0,1-.94.09c-1.64,0-2.46-.87-2.46-2.6V158.7h-1.12v-.77l1.2-.63.59-1.73h1.07v1.82h2.32v1.31h-2.32v4.36a1.23,1.23,0,0,0,.31.93A1.13,1.13,0,0,0,560.64,164.29Z"></path>
  <path class="cls-13" d="M567.1,165.69a3.92,3.92,0,0,1-3-1.11,4.2,4.2,0,0,1-1.08-3.06,4.64,4.64,0,0,1,1-3.14,3.43,3.43,0,0,1,2.74-1.14,3.39,3.39,0,0,1,2.55,1,3.75,3.75,0,0,1,.93,2.7v.93h-5.43a2.68,2.68,0,0,0,.64,1.83,2.25,2.25,0,0,0,1.7.64,6.36,6.36,0,0,0,1.35-.14,7.28,7.28,0,0,0,1.34-.45v1.41a5.26,5.26,0,0,1-1.29.42A7.27,7.27,0,0,1,567.1,165.69Zm-.31-7.14a1.77,1.77,0,0,0-1.33.52,2.49,2.49,0,0,0-.59,1.53h3.7a2.24,2.24,0,0,0-.49-1.53A1.64,1.64,0,0,0,566.79,158.55Z"></path>
  <path class="cls-13" d="M577.72,163.22a2.13,2.13,0,0,1-.87,1.83,4.13,4.13,0,0,1-2.49.64,5.88,5.88,0,0,1-2.62-.5V163.7a6.46,6.46,0,0,0,2.68.66c1.06,0,1.6-.32,1.6-1a.77.77,0,0,0-.18-.52,2.12,2.12,0,0,0-.58-.43,10.36,10.36,0,0,0-1.13-.5,5.22,5.22,0,0,1-1.91-1.09,2,2,0,0,1-.5-1.42,1.86,1.86,0,0,1,.85-1.62,4,4,0,0,1,2.3-.58,6.52,6.52,0,0,1,2.72.58l-.56,1.31a6,6,0,0,0-2.22-.55c-.92,0-1.37.26-1.37.78a.77.77,0,0,0,.35.65,7.8,7.8,0,0,0,1.56.73,6.89,6.89,0,0,1,1.47.72,2.16,2.16,0,0,1,.68.74A2.19,2.19,0,0,1,577.72,163.22Z"></path>
</svg>
