<svg id="Group_14412" data-name="Group 14412" xmlns="http://www.w3.org/2000/svg" width="22.854" height="15.712" viewBox="0 0 22.854 15.712">
  <g id="Group_52" data-name="Group 52" transform="translate(15.15 2.897)">
    <g id="Group_51" data-name="Group 51">
      <path id="Path_755" data-name="Path 755" d="M339.4,69.975l7.7,4.87V64.9Z" transform="translate(-339.4 -64.9)" fill="#fff"/>
    </g>
  </g>
  <g id="Group_54" data-name="Group 54" transform="translate(0 2.897)">
    <g id="Group_53" data-name="Group 53">
      <path id="Path_756" data-name="Path 756" d="M0,64.9v9.945l7.7-4.87Z" transform="translate(0 -64.9)" fill="#fff"/>
    </g>
  </g>
  <g id="Group_56" data-name="Group 56" transform="translate(0.045)">
    <g id="Group_55" data-name="Group 55">
      <path id="Path_757" data-name="Path 757" d="M22.381,0h-20A1.408,1.408,0,0,0,1,1.214l11.382,7.5,11.382-7.5A1.408,1.408,0,0,0,22.381,0Z" transform="translate(-1)" fill="#fff"/>
    </g>
  </g>
  <g id="Group_58" data-name="Group 58" transform="translate(0.045 8.834)">
    <g id="Group_57" data-name="Group 57">
      <path id="Path_758" data-name="Path 758" d="M14.8,197.9l-2.022,1.33a.7.7,0,0,1-.393.116.733.733,0,0,1-.393-.116L9.967,197.9,1,203.573a1.41,1.41,0,0,0,1.384,1.205h20a1.41,1.41,0,0,0,1.384-1.205Z" transform="translate(-1 -197.9)" fill="#fff"/>
    </g>
  </g>
</svg>
