<?xml version="1.0" encoding="utf-8"?>
<!-- Generator: Adobe Illustrator 24.0.1, SVG Export Plug-In . SVG Version: 6.00 Build 0)  -->
<svg version="1.1" id="Ebene_1" xmlns="http://www.w3.org/2000/svg" xmlns:xlink="http://www.w3.org/1999/xlink" x="0px" y="0px"
	 viewBox="0 0 739 183.7" style="enable-background:new 0 0 739 183.7;" xml:space="preserve">
<style type="text/css">
	.st0{fill:#767A7A;}
	.st1{fill:#191717;}
	.st2{fill:#AD0D21;}
</style>
<g id="Logo" transform="translate(-117.637 -184.255)">
	<g id="Group_372" transform="translate(190.874 228.194)">
		<path id="Path_999" class="st0" d="M145.7,124.3V91.8h16.1v2.8h-13.1v10.1h13.1v2.8h-13.1v14h13.1v2.8L145.7,124.3z"/>
		<path id="Path_1000" class="st0" d="M172.4,104.6v9.8c-0.2,2.2,0.3,4.4,1.3,6.3c2.3,2.4,6,2.5,8.4,0.2c0.1-0.1,0.1-0.1,0.2-0.2
			c1-1.9,1.5-4.1,1.3-6.3v-9.8h2.7v11.2c0.2,2.5-0.6,5-2.1,6.9c-1.6,1.7-3.9,2.5-6.2,2.4c-2.3,0.2-4.6-0.7-6.2-2.4
			c-1.5-2-2.3-4.4-2.1-6.9v-11.2H172.4z"/>
		<path id="Path_1001" class="st0" d="M197.5,108.6c0.7-1.4,1.7-2.6,3-3.6c1-0.7,2.2-1.1,3.4-1.1c0.4,0,0.8,0,1.2,0.1
			c0.4,0.1,0.8,0.2,1.2,0.3l-0.9,2.6c-0.3-0.1-0.6-0.2-0.9-0.2c-0.3-0.1-0.6-0.1-0.9-0.1c-1.7,0-3.3,0.9-4.2,2.3
			c-1.2,1.7-1.8,3.7-1.7,5.7v9.7h-2.7v-19.7h2.7L197.5,108.6z"/>
		<path id="Path_1002" class="st0" d="M219.1,125.2c-1.4,0-2.8-0.3-4-0.8c-1.3-0.6-2.5-1.4-3.5-2.4c-1-1-1.7-2.1-2.3-3.4
			c-0.5-1.3-0.8-2.7-0.8-4.1c0-1.4,0.3-2.8,0.8-4.1c1.1-2.6,3.1-4.6,5.7-5.7c1.3-0.5,2.7-0.8,4.1-0.8c1.4,0,2.8,0.3,4.1,0.8
			c2.6,1.1,4.7,3.1,5.8,5.7c1.1,2.6,1.1,5.5,0,8.1c-0.5,1.3-1.3,2.4-2.3,3.4c-1,1-2.2,1.8-3.5,2.4
			C221.9,124.9,220.5,125.2,219.1,125.2z M219.2,122.6c2.1,0,4.1-0.8,5.5-2.3c3-3.2,3-8.2,0-11.5c-2.9-3-7.7-3.1-10.8-0.2
			c-0.1,0.1-0.1,0.1-0.2,0.2c-3,3.2-3,8.2,0,11.5C215.1,121.8,217.1,122.6,219.2,122.6L219.2,122.6z"/>
		<path id="Path_1003" class="st0" d="M236.6,134.2v-29.5h2.6v3.7c0.7-1.3,1.7-2.5,2.9-3.3c1.2-0.8,2.6-1.2,4.1-1.1
			c2.6-0.1,5,1,6.7,2.9c1.8,2.2,2.7,4.9,2.5,7.7c0.1,2.8-0.7,5.5-2.5,7.7c-1.6,1.9-4.1,3-6.6,2.9c-1.5,0-2.9-0.4-4.2-1.1
			c-1.3-0.8-2.3-2-3-3.4v13.5L236.6,134.2z M252.6,114.6c0.1-2.1-0.5-4.3-1.7-6c-1.2-1.5-2.9-2.3-4.8-2.2c-1.9-0.1-3.7,0.7-4.9,2.1
			c-1.3,1.7-1.9,3.7-1.8,5.8c-0.1,2.2,0.6,4.3,1.9,6c1.3,1.5,3.1,2.3,5.1,2.3c1.8,0.1,3.5-0.7,4.6-2.1
			C252.1,118.8,252.7,116.7,252.6,114.6L252.6,114.6z"/>
		<path id="Path_1004" class="st0" d="M279.2,114.5h-15.6c-0.1,2.2,0.6,4.3,1.9,6c1.2,1.4,3,2.2,4.8,2.2c1.4,0,2.7-0.4,3.8-1.2
			c1.2-0.9,2.1-2.1,2.7-3.5l2.5,1.4c-0.8,1.8-2.1,3.3-3.7,4.4c-1.6,1-3.5,1.5-5.4,1.4c-2.6,0.1-5.2-1-7-2.9
			c-1.8-2.1-2.8-4.8-2.7-7.6c-0.1-2.8,0.8-5.6,2.7-7.8c1.7-2,4.3-3.1,6.9-3c2.5-0.1,4.9,0.9,6.5,2.7c1.7,2,2.6,4.6,2.5,7.3
			L279.2,114.5z M276,112.2c0-3.1-2.5-5.7-5.6-5.7c-0.2,0-0.4,0-0.5,0c-1.5,0-3,0.5-4.2,1.6c-1.1,1.1-1.8,2.6-1.9,4.1L276,112.2z"/>
		<path id="Path_1005" class="st0" d="M300.5,124.3v-3.6c-1.1,2.8-3.9,4.6-6.9,4.5c-2.6,0.1-5.1-1-6.8-2.9c-1.8-2.1-2.7-4.9-2.6-7.7
			c-0.1-2.8,0.8-5.5,2.6-7.7c2.8-3.1,7.3-3.9,10.9-1.9c1.2,0.8,2.2,1.9,2.8,3.2v-3.6h2.7v19.7H300.5z M287.3,114.7
			c-0.1,2.1,0.5,4.2,1.7,5.9c1.2,1.4,3,2.2,4.9,2.1c1.9,0.1,3.7-0.8,4.9-2.3c1.3-1.8,1.9-4,1.8-6.2c0.1-2-0.5-4.1-1.8-5.7
			c-1.2-1.4-3-2.2-4.9-2.1c-1.9-0.1-3.7,0.7-4.9,2.2C287.8,110.4,287.1,112.5,287.3,114.7z"/>
		<path id="Path_1006" class="st0" d="M311.7,124.3v-19.7h2.6v3c0.7-1.2,1.7-2.2,2.9-2.8c1.2-0.6,2.6-1,4-0.9
			c3.5-0.4,6.7,2.2,7.1,5.8c0,0.4,0,0.8,0,1.3v13.3h-2.8v-12.1c0.1-1.6-0.3-3.1-1.2-4.4c-1-1-2.4-1.5-3.8-1.4
			c-1.7-0.1-3.4,0.5-4.6,1.9c-1.1,1.7-1.6,3.8-1.5,5.8v10.3L311.7,124.3z"/>
		<path id="Path_1007" class="st0" d="M365.9,125.6l-11.4-26l-2.5,24.8h-3l4.4-33.8l12.4,28.9l12.9-28.9l4.2,33.8h-3l-2.4-24.8
			L365.9,125.6z"/>
		<path id="Path_1008" class="st0" d="M406.6,114.5H391c-0.1,2.2,0.6,4.3,1.9,6c1.2,1.4,3,2.2,4.8,2.2c1.4,0,2.7-0.4,3.8-1.2
			c1.2-0.9,2.1-2.1,2.7-3.5l2.5,1.4c-0.8,1.8-2.1,3.3-3.7,4.4c-1.6,1-3.5,1.5-5.4,1.4c-2.6,0.1-5.2-1-7-2.9
			c-1.8-2.1-2.8-4.8-2.7-7.6c-0.1-2.8,0.8-5.6,2.7-7.8c1.7-2,4.3-3.1,6.9-3c2.5-0.1,4.9,0.9,6.6,2.7c1.7,2,2.6,4.6,2.5,7.3
			L406.6,114.5z M403.4,112.2c0-3.1-2.5-5.6-5.6-5.7c-0.2,0-0.4,0-0.5,0c-1.5,0-3,0.5-4.2,1.6c-1.1,1.1-1.8,2.6-1.9,4.1L403.4,112.2
			z"/>
		<path id="Path_1009" class="st0" d="M416.1,108.6c0.7-1.4,1.7-2.6,3-3.6c1-0.7,2.2-1.1,3.4-1.1c0.4,0,0.8,0,1.2,0.1
			c0.4,0.1,0.8,0.2,1.2,0.3l-0.9,2.6c-0.3-0.1-0.6-0.2-0.9-0.2c-0.3-0.1-0.6-0.1-0.9-0.1c-1.7,0-3.3,0.9-4.2,2.3
			c-1.2,1.7-1.8,3.7-1.7,5.7v9.7h-2.7v-19.7h2.7L416.1,108.6z"/>
		<path id="Path_1010" class="st0" d="M444.1,108.2c-0.9-0.6-1.9-1.1-2.9-1.4c-1-0.3-2.1-0.5-3.2-0.5c-2.2-0.1-4.3,0.8-5.8,2.3
			c-1.5,1.7-2.3,4-2.2,6.3c-0.1,2.1,0.7,4.2,2.3,5.7c1.5,1.5,3.6,2.3,5.7,2.2c1.1,0,2.2-0.2,3.2-0.6c1.1-0.4,2.2-1,3.2-1.7v3
			c-1,0.6-2.1,1-3.2,1.2c-1.2,0.3-2.5,0.4-3.7,0.4c-2.8,0.1-5.4-1-7.4-3c-1.9-2-3-4.8-2.9-7.6c-0.3-5.7,4.1-10.5,9.7-10.8
			c0.4,0,0.7,0,1.1,0c1.1,0,2.2,0.1,3.3,0.3c1,0.2,1.9,0.5,2.8,1L444.1,108.2z"/>
		<path id="Path_1011" class="st0" d="M450.7,124.3V89.9h2.6v17.7c0.7-1.2,1.7-2.2,2.9-2.8c1.2-0.6,2.6-1,4-0.9
			c3.5-0.4,6.7,2.2,7.1,5.8c0,0.4,0,0.8,0,1.3v13.3h-2.8v-12.1c0.1-1.6-0.3-3.1-1.2-4.4c-1-1-2.4-1.5-3.8-1.4
			c-1.7-0.1-3.4,0.5-4.6,1.9c-1.1,1.7-1.7,3.8-1.5,5.8v10.3L450.7,124.3z"/>
		<path id="Path_1012" class="st0" d="M490,124.3v-3.6c-1.1,2.8-3.9,4.6-6.9,4.5c-2.6,0.1-5.1-1-6.8-2.9c-1.8-2.1-2.7-4.9-2.6-7.7
			c-0.1-2.8,0.8-5.5,2.5-7.7c2.8-3.1,7.3-3.9,10.9-1.9c1.2,0.8,2.2,1.9,2.8,3.2v-3.6h2.7v19.7H490z M476.7,114.7
			c-0.1,2.1,0.5,4.2,1.7,5.9c1.2,1.4,3,2.2,4.9,2.1c1.9,0.1,3.7-0.8,4.9-2.3c1.3-1.8,1.9-4,1.8-6.2c0.1-2-0.5-4.1-1.8-5.7
			c-1.2-1.4-3-2.2-4.9-2.1c-1.9-0.1-3.7,0.7-4.9,2.2C477.2,110.4,476.6,112.5,476.7,114.7z"/>
		<path id="Path_1013" class="st0" d="M501.1,124.3v-19.7h2.6v3c0.7-1.2,1.7-2.2,2.9-2.8c1.2-0.6,2.6-1,4-0.9
			c3.5-0.4,6.7,2.2,7.1,5.8c0,0.4,0,0.8,0,1.3v13.3H515v-12.1c0.1-1.6-0.3-3.1-1.2-4.4c-1-1-2.4-1.5-3.8-1.4
			c-1.7-0.1-3.4,0.5-4.6,1.9c-1.1,1.7-1.6,3.8-1.5,5.8v10.3L501.1,124.3z"/>
		<path id="Path_1014" class="st0" d="M526.5,107h-3.6v-2.3h3.6v-8.1h2.7v8.1h3.9v2.3h-3.9v17.3h-2.7L526.5,107z"/>
		<path id="Path_1015" class="st0" d="M552.9,124.3V91.8h5.6c1.8-0.1,3.6,0.1,5.3,0.4c1,0.2,2,0.6,2.8,1.2c1.1,0.8,1.9,1.8,2.5,3
			c0.6,1.2,0.9,2.5,0.8,3.9c0,1.6-0.4,3.1-1.4,4.4c-0.9,1.2-2.2,2.1-3.7,2.4c1.9,0.2,3.6,1.1,4.9,2.5c1.2,1.4,1.9,3.3,1.8,5.2
			c0,1.4-0.2,2.8-0.7,4.1c-0.4,1.2-1.2,2.2-2.1,3.1c-1,0.9-2.1,1.5-3.4,1.9c-2.2,0.4-4.5,0.6-6.8,0.5L552.9,124.3z M555.9,106.3h3.7
			c2,0.2,4-0.3,5.7-1.3c1.2-1.1,1.8-2.8,1.7-4.4c0.2-1.7-0.4-3.5-1.6-4.7c-1.7-1.1-3.7-1.6-5.8-1.4h-3.7V106.3z M555.9,121.7h3.8
			c1.5,0,3,0,4.4-0.3c0.7-0.1,1.4-0.4,2.1-0.9c0.7-0.6,1.3-1.3,1.7-2.2c0.4-0.9,0.6-2,0.6-3c0-1.2-0.2-2.3-0.7-3.4
			c-0.4-0.9-1.1-1.7-1.9-2.2c-0.6-0.3-1.3-0.6-2-0.7c-1.2-0.2-2.4-0.2-3.6-0.2h-4.4L555.9,121.7z"/>
		<path id="Path_1016" class="st0" d="M593.3,124.3v-3.6c-1.1,2.8-3.9,4.6-6.9,4.5c-2.6,0.1-5.1-1-6.8-2.9c-1.8-2.1-2.7-4.9-2.6-7.7
			c-0.1-2.8,0.8-5.5,2.5-7.7c2.8-3.1,7.3-3.9,10.9-1.9c1.2,0.8,2.2,1.9,2.8,3.2v-3.6h2.7v19.7H593.3z M580,114.7
			c-0.1,2.1,0.5,4.2,1.7,5.9c1.2,1.4,3,2.2,4.9,2.1c1.9,0.1,3.7-0.8,4.9-2.3c1.3-1.8,1.9-4,1.8-6.2c0.1-2-0.5-4.1-1.8-5.7
			c-1.2-1.4-3-2.2-4.9-2.1c-1.9-0.1-3.7,0.7-4.9,2.2C580.5,110.4,579.9,112.5,580,114.7L580,114.7z"/>
		<path id="Path_1017" class="st0" d="M604.4,124.3v-19.7h2.6v3c0.7-1.2,1.7-2.2,2.9-2.8c1.2-0.6,2.6-1,4-0.9
			c3.5-0.4,6.7,2.2,7.1,5.8c0,0.4,0,0.8,0,1.3v13.3h-2.8v-12.1c0.1-1.6-0.3-3.1-1.2-4.4c-1-1-2.4-1.5-3.8-1.4
			c-1.7-0.1-3.4,0.5-4.6,1.9c-1.1,1.7-1.6,3.8-1.5,5.8v10.3L604.4,124.3z"/>
		<path id="Path_1018" class="st0" d="M629.2,124.3V89.9h2.7v23.4l9.8-8.7h3.8l-10.5,8.8l11.3,10.8h-3.8l-10.6-10.2v10.2H629.2z"/>
	</g>
	<g id="Group_375" transform="translate(190.874 191.096)">
		<g id="Group_373">
			<path id="Path_1019" class="st1" d="M145.7,113.3V20.5h51.8v12.8h-36.7v23.3h36.7v13.3h-36.7v30h36.7v13.5L145.7,113.3z"/>
			<path id="Path_1020" class="st1" d="M290.5,67.5c-0.2-0.7-0.4-2.7-0.8-6c-0.3-2.7-0.6-4.9-0.9-6.7c-0.4,2.1-0.9,4.3-1.6,6.3
				c-0.7,2.2-1.6,4.4-2.6,6.5l-24.3,49.5L236,66.6c-1-2.1-1.9-4.1-2.6-6c-0.7-1.9-1.4-3.9-1.9-5.8c0,2-0.2,4.1-0.5,6.1
				c-0.3,2.2-0.7,4.5-1.2,6.7l-10,45.7h-13.9l21.9-96.8l27.4,58.6c0.4,0.9,1.1,2.5,1.9,4.6c0.9,2.2,1.9,4.8,3.1,8
				c1.2-3.5,2.6-6.8,4.2-10.1c0.5-1.1,0.9-2,1.1-2.5l26.8-58.5l22.4,96.8h-14L290.5,67.5z"/>
		</g>
		<g id="Group_374" transform="translate(64.126 .341)">
			<path id="Path_1021" class="st1" d="M272.5,114V21.2h16.1c5.1-0.1,10.2,0.2,15.3,1c2.9,0.6,5.6,1.8,8,3.5c3,2.2,5.4,5.2,7,8.5
				c1.6,3.5,2.5,7.3,2.4,11.1c0.1,4.5-1.2,9-3.9,12.6c-2.6,3.5-6.4,5.9-10.7,6.8c5.4,0.6,10.4,3.1,14,7.2c3.5,4.1,5.3,9.4,5.1,14.8
				c0.1,4-0.6,7.9-2,11.6c-1.3,3.3-3.3,6.3-6,8.7c-2.8,2.6-6.1,4.4-9.8,5.4c-6.4,1.3-12.9,1.8-19.5,1.6L272.5,114z M280.9,62.5h10.5
				c7.7,0,13.2-1.3,16.4-3.8c3.2-2.5,4.8-6.8,4.8-12.7c0-6.4-1.6-10.9-4.7-13.5c-3.1-2.6-8.6-3.9-16.5-3.9h-10.5L280.9,62.5z
				 M280.9,106.7h10.8c4.2,0.1,8.5-0.1,12.7-0.8c2.1-0.4,4.1-1.3,5.9-2.6c2.1-1.7,3.7-3.8,4.8-6.3c1.2-2.7,1.8-5.6,1.8-8.6
				c0.1-3.4-0.6-6.7-2-9.8c-1.1-2.6-3-4.8-5.4-6.3c-1.8-1-3.7-1.7-5.7-2c-3.4-0.5-6.8-0.7-10.2-0.6h-12.6L280.9,106.7z"/>
			<path id="Path_1022" class="st1" d="M331.6,114l40.8-96.5l39.1,96.5h-9.2l-11.9-31.4h-37.9L340.2,114L331.6,114z M355.4,75.3
				h32.3l-15.8-40.4L355.4,75.3z"/>
			<path id="Path_1023" class="st1" d="M421.9,114V17.3l65.7,77.7V21.2h7.9v95.6l-65.7-77.8V114L421.9,114z"/>
			<path id="Path_1024" class="st1" d="M518.6,114V21.2h8.4v43.5l42-43.5h11l-44,44.4l46.1,48.4h-12.2L527,66.9V114L518.6,114z"/>
		</g>
	</g>
	<path id="Path_1025" class="st2" d="M208.7,187.3c-49.3,0.5-88.9,40.9-88.4,90.2c0.5,49.3,40.9,88.9,90.2,88.4
		c49-0.5,88.5-40.3,88.5-89.3C298.6,227.1,258.2,187.1,208.7,187.3z M202.6,359.6c-1.9-0.1-3.8-0.3-5.7-0.6l6.4-4.4L202.6,359.6z
		 M208.7,350.8l7.9-5.6l5.9,5.4l-12.8,4.5L208.7,350.8z M210.1,358.4l16.8-3.6l0.3,2.9c-5.5,1.2-11.1,1.9-16.8,2L210.1,358.4z
		 M232,352.5l9.3-7.3c0.9,2.3,1.6,4.8,1.8,7.3c-3.1,1.4-6.3,2.6-9.6,3.6L232,352.5z M228.2,348l-7-6.5l7.5-8.9l9.1,8.2L228.2,348z
		 M217.2,338.1l-9.6-9.7l7-7.7l10.2,8.2L217.2,338.1z M212.7,341.8l-7.6,5.9l-8.2-7.8l6.2-6.4L212.7,341.8z M192.9,336l-13-12.3
		l6.4-5.1l12.5,10.8L192.9,336z M193.5,343.5l7,7.3l-4.8,3.7l-2-1.2l-8.7,3.1c-2.9-0.8-5.8-1.8-8.6-3l8.4-0.5L193.5,343.5z
		 M265.1,338.2c5.8-9,12-19.9,12-19.9c1.3-2.4,2-5.1,1.8-7.9l-11.3-9.2c-1,3.5-2.9,6.7-5.5,9.3c0,0,9.3-1.4,8.6,4.6
		c-2.5,8.3-6.6,16.1-12,22.9c0,0-2.6,3.2-6.1,7.1l-3.8,3.5l-2.9-7.6l13.4-27.9l-7.6,3.6l-10.3,19.1l-8.5-8l7.9-8.8
		c-2.4-0.1-4.7-0.8-6.7-2.1l-5.5,6.7l-9.5-7.8l5.1-5.5l-4.1-3.9l-5.5,6.1l-13.6-10.1l-1.5,6l10.5,8.4l-6.7,7.4l-11.4-10.8
		c0,0,11.4-7.5,10.1-26.5c0,0,0.3-15.2-19.1-21.2c0,0,25.6-4,25.5,38.1c1.6,1.2,3.5,1.9,5.5,2c1.9,0.1,3.7-0.2,5.5-0.9
		c-0.5-1-1-2-1.4-3c-0.3-1-0.6-2.1-0.9-3.1c-1.4,0.4-2.8,0.3-4.2-0.1c0,0,1-17.2-5.8-24.3l5.3,0.7l3.6,8.3c0,0,4.8-9.5,7.7-9.6
		c0,0-14.8-18.5,0.8-35.3c-1.5,11.7,4.6,23,15.2,28.1c18.4,9.4,20.5,11.6,20.7,22.6c0.2,11-9.5,20.2-18.2,19.2
		c-8.7-1-19-7-14.5-23.3s29.4-6.5,20.4,8.2c-2.2,2.9-6.1,3.8-9.5,2.4c-6.5-2.1-4.8-8.9-0.4-9.5c4.7-0.6,5.6,4.7,5.6,4.7
		s2.4-6.2-3.1-8.1c-11.7-4.1-17.7,15.9-3.5,19.6c16,4.1,20-11.2,18.4-18.6c-2.8-10.1-13.3-16-23.4-13.2c-1.3,0.4-2.5,0.9-3.7,1.5
		c-14.8,6.9-13.1,40,8.3,43.5c21.3,3.5,28.4-13.5,29.2-23.5c0.8-10-0.6-19.8-13.1-26.5c-12.5-6.7-26.7-8-24.4-24.7
		c2.3-16.7,23.8-10.9,24-1.5s-4.4,12.3-13.3,9.3c-9-3,0.8-16.2,6.9-9.6c6,6.7-4.9,7.1-4.2,2.1c0,0-3.1,4.9,3,5.7
		c6.1,0.9,8.7-9.4-0.7-13.2c-9.4-3.8-21.8,17.4-5.2,20c2.7,0.4,6.8-1.2,11,1.8c4.1,2.9,3.4,7.1,9.3,7c3.2,0.2,6.1-1.6,7.6-4.4
		c-2.3-11.8-9.3-22.3-19.3-29l-1.3-13.4c-2.5,2.1-4.7,4.5-6.7,7.2c0,0-20.3-3.4-19.5,5.4c0,0-13.3,3.5-11.3,11.1
		c0,0-9.2,6.4-4.2,11.1c0,0-7.5,8-1.5,12.3l-1.5,4.8c0,0-17.6-16-39.4,3.7c0,0-5.7-3.3-0.4-8.6c5.3-5.3,6.1-6.7,27.7-17
		c21.6-10.3,35.5-30,19.8-36.3c0,0,2.5,4.1-4.2,10.5c0,0,1.8-9.5-8.3-7.8c0,0-5.4,0.7-5.3,8.3c0,0,3.7-5.5,5.1,0.5s-1.1,13.6-7.4,11
		s2.3-7.3-2.9-11.4c-5.2-4.1-20.9-4.7-28.8,6c0,0,13.2-7.9,19.2-1c6,6.9-0.2,16.4-4,19.1s-14.4,7.7-14.9-4.5
		c-0.5-12.2,14.6-9.1,5.1,0.9c3.3,0,6.2-2.1,7.4-5.2c2.3-5.5-6.4-13.1-16-2.4s-12.2,33.9,3.4,43.4c0,0-12,21.9,9.2,31.4
		s34.1-23.2,15.9-29.8c0,0-12.1-3.3-16.2,7.2c-4.3,10.8,10.2,16.3,15.2,9.5c1.9-1.9,1.9-5-0.1-6.9c-1.3-1.2-3.1-1.7-4.8-1.2
		c0,0,4.6,2.4,1.7,5.6c-3.4,3.7-9.5-1.2-7.4-6s13-6.6,14.7,1.6c1.1,5.3-1.6,10.7-6.5,13.1c-8.6,4.8-19.5-4.6-16.6-16.5
		c3-11.9,20.1-14.1,27.6-6s5.8,23.9-1.9,30.3c-7.7,6.4-20,3.9-20,3.9s1.3,5-4.2,10.7c0,0,16.1,4.5,24.8,16.3l-6.7,7.8l-8.3-0.6
		l-21.9-27.2l12.6-8.1c0,0-8.4-4.6-10.8-11.4c0,0-5.8,2.9-6.8,5c-1,2,0.5,6.4-6.1,9.6c-3.3,1.6-2.3,2.5-2.3,2.5
		c9.8,6.3,17.9,15,23.4,25.3c0,0,5.8-0.8,4.8,6.4c-40.3-22.8-54.5-74-31.7-114.4c22.8-40.3,74-54.5,114.4-31.7s54.5,74,31.7,114.4
		C277.4,325.2,271.8,332.2,265.1,338.2L265.1,338.2z"/>
</g>
</svg>
