<?xml version="1.0" encoding="utf-8"?>
<!-- Generator: Adobe Illustrator 18.0.0, SVG Export Plug-In . SVG Version: 6.00 Build 0)  -->
<!DOCTYPE svg PUBLIC "-//W3C//DTD SVG 1.1//EN" "http://www.w3.org/Graphics/SVG/1.1/DTD/svg11.dtd">
<svg version="1.1" id="Lager_1" xmlns="http://www.w3.org/2000/svg" xmlns:xlink="http://www.w3.org/1999/xlink" x="0px" y="0px"
	 viewBox="0 0 425.2 120" enable-background="new 0 0 425.2 120" xml:space="preserve">
<g>
	<g>
		<g>
			<path d="M225.9,11.5c-1.7-0.6-3.3-0.1-3.9,1.2c-0.6,1.5,0.4,4.1,5.1,6.1c0.3,0.2,0.8,0,0.9-0.4c0.2-0.3,0-0.8-0.4-0.9
				c-3.8-1.7-4.7-3.5-4.3-4.4c0.2-0.6,1.1-0.8,2.1-0.5c2.7,1,5.6,4,5.6,9.3c0,0,0,0,0,0c0,0,0,0,0,0c0,3.8-1.6,6.2-3,7.6
				c-1.7-1.3-3.7-2.1-5.5-2.1c-2.2,0-3.5,1.2-3.5,3c0,0,0,0,0,0c0,0,0,0,0,0c0,1.8,1.4,3,3.5,3c1.8,0,3.8-0.8,5.5-2.1
				c1.4,1.4,3,3.8,3,7.6c0,4.5-3,9.3-7.4,9.3c-4.4,0-4.7-2.5-5.2-5.6c-0.4-2.8-0.9-6.2-5.4-6.5V24.8c1,0,2.9-0.2,4.3-1.5
				c1.3-1.2,2-2.9,2-5.2s-0.7-4.1-2-5.3c-2.1-1.9-4.9-1.6-5.1-1.6c-0.4,0-0.6,0.3-0.6,0.7v5.8c0,0,0,0,0,0v5.6
				c-3.3-0.3-3.6-2.5-4.1-5.4c-0.4-3-1-6.8-6.5-6.8c-5.2,0-8.7,5.5-8.7,10.7c0,4.2,1.8,7,3.4,8.5c-1.6,1.6-3.4,4.3-3.4,8.5
				c0,0,0,0,0,0c0,0,0,0,0,0c0,6,3.3,9.4,6.4,10.6c0.5,0.2,1,0.3,1.4,0.3c1.1,0,2.1-0.5,2.5-1.5c0.6-1.5-0.4-4.1-5.1-6.1
				c-0.3-0.2-0.8,0-0.9,0.4c-0.2,0.3,0,0.8,0.4,0.9c3.8,1.7,4.7,3.5,4.3,4.4c-0.2,0.6-1.1,0.8-2.1,0.5c-2.7-1-5.6-4-5.6-9.3
				c0,0,0,0,0,0c0,0,0,0,0,0c0-3.8,1.6-6.2,3-7.6c1.7,1.3,3.7,2.1,5.5,2.1c2.2,0,3.5-1.2,3.5-3c0,0,0,0,0,0c0,0,0,0,0,0
				c0-1.8-1.4-3-3.5-3c-1.8,0-3.8,0.8-5.5,2.1c-1.4-1.4-3-3.8-3-7.6c0-4.5,3-9.3,7.4-9.3c4.4,0,4.7,2.5,5.2,5.6
				c0.4,2.8,0.9,6.2,5.4,6.5v11.4c-1,0-2.9,0.2-4.3,1.5c-1.3,1.2-2,2.9-2,5.2c0,2.3,0.7,4.1,2,5.3c1.6,1.5,3.7,1.6,4.6,1.6
				c0.3,0,0.4,0,0.5,0c0.4,0,0.6-0.3,0.6-0.7v-5.8c0,0,0,0,0,0v-5.6c3.3,0.3,3.6,2.5,4.1,5.4c0.4,3,1,6.8,6.5,6.8
				c5.2,0,8.7-5.5,8.7-10.7c0-4.2-1.8-7-3.4-8.5c1.6-1.6,3.4-4.3,3.4-8.5c0,0,0,0,0,0c0,0,0,0,0,0C232.3,16.1,229,12.7,225.9,11.5z
				 M222.5,32.2c-0.8,0-2.2-0.2-2.2-1.6c0,0,0,0,0,0c0,0,0,0,0,0c0-1.4,1.4-1.6,2.2-1.6c1.1,0,2.8,0.4,4.4,1.6
				C225.3,31.7,223.6,32.2,222.5,32.2z M213,12.6c0.8,0,2.3,0.3,3.4,1.3c1,0.9,1.5,2.4,1.5,4.2c0,1.9-0.5,3.3-1.5,4.2
				c-1.1,1-2.6,1.2-3.4,1.2V12.6z M202.1,28.8c0.8,0,2.2,0.2,2.2,1.6c0,0,0,0,0,0c0,0,0,0,0,0c0,1.4-1.4,1.6-2.2,1.6
				c-1.1,0-2.8-0.4-4.4-1.6C199.3,29.3,201,28.8,202.1,28.8z M211.6,48.4c-0.8,0-2.3-0.3-3.4-1.3c-1-0.9-1.5-2.4-1.5-4.3
				c0-1.9,0.5-3.3,1.5-4.2c1.1-1,2.6-1.2,3.4-1.2V48.4z"/>
			<g>
				<path d="M212,61C212,61,212,61,212,61c-8.3,0-14.4-0.8-18.7-4.6c-5.1-4.4-7.4-12.6-7.4-25.8l0,0c0,0,0,0,0,0c0,0,0,0,0-0.1
					c0-13.2,2.3-21.5,7.3-25.8C197.5,0.8,203.6,0,212,0h0.7c8.4,0,14.5,0.8,18.8,4.6c5,4.4,7.3,12.6,7.3,25.8v0.1
					c0,13.2-2.4,21.5-7.4,25.9c-4.4,3.8-10.4,4.6-18.8,4.6L212,61z M212,1.4c-8.1,0-13.9,0.7-17.9,4.3c-4.7,4.1-6.9,12-6.9,24.8
					c0,0,0,0,0,0l0,0c0,12.8,2.2,20.7,7,24.8c4.1,3.6,9.8,4.3,17.8,4.3l0.6,0c8,0,13.8-0.7,17.9-4.3c4.7-4.1,7-12,7-24.8v-0.1
					c0-12.8-2.2-20.7-6.9-24.8c-4-3.6-9.8-4.3-17.9-4.3H212z"/>
			</g>
		</g>
	</g>
	<g>
		<path d="M5.5,102.3v14.8h14.7l-0.4,2.3H0l0.4-2.3V86.3L0,84h18.5l-0.4,2.4H5.5V100h10.2l-0.4,2.3H5.5z"/>
		<path d="M46.7,112.3c2.6,4,5.9,5.2,6.9,5.3v1.7h-4c-1-0.1-4.1-0.1-6.1-3.1l-8.6-13.5l0.3-1.8h1.5c4.8,0,6.8-4.5,6.8-8
			c0-4.7-3.8-6.9-7.5-6.9h-3.4v31l0.5,2.3h-6.1l0.5-2.3V85.9L27.1,84h9.2c4.2,0,12.7,1,12.7,9.1c0,5.8-6,8.9-8.6,9.3
			C42,105,46.5,111.9,46.7,112.3z"/>
		<path d="M64.4,119.4h-6.1l0.5-2.3V85.9L58.3,84h6.1l-0.5,1.9v31.2L64.4,119.4z"/>
		<path d="M78.9,119.4h-6.1l0.5-2.3V85.9L72.8,84h6.1l-0.5,1.9v31.2L78.9,119.4z M97,119.4c-2.3,0-4.1-0.6-6.4-3.5l-10.9-13.8v-1.9
			L94.6,84h3.5L84,99.4l10.5,13.2c3.2,4.3,5.6,4.8,6.6,5v1.8H97z"/>
		<path d="M124.8,119.4h-6.1l0.5-2.3V85.9l-0.5-1.9h9.4c4.4,0,12.1,1.4,12.1,10.2c0,6.6-6,11-11.9,11.1h-1.9l0.4-2.1h1.3
			c4.3,0,6.8-4.1,6.8-8.7c0-4.8-2.4-8.4-7.3-8.4h-3.3v31L124.8,119.4z"/>
		<path d="M152.3,102.3v14.8h14.7l-0.4,2.3h-19.8l0.4-2.3V86.3l-0.4-2.3h18.5l-0.4,2.4h-12.5V100h10.2l-0.4,2.3H152.3z"/>
		<path d="M177.4,119.4h-3.9l0.5-2.3V86.4l-1-2.4h5.2l17,26.3V86l-0.5-2h3.9l-0.5,2v33.4h-3L176.9,91v26.1L177.4,119.4z"/>
		<path d="M226.5,109.3v0.1c0,6.3-5,10.6-11.5,10.6c-3.9,0-7-0.8-9.3-1.6l1-5.7l5,4.2c1,0.4,2.5,0.7,3.8,0.7c2.4,0,6.2-0.9,6.2-6
			c-0.1-9.8-16-6.6-16.1-18.3c0-4.7,4.2-9.7,11.4-9.7c2.3,0,4.9,0.3,7.7,1.1l-1,5.3l-5.5-3.9c-0.8-0.3-1.7-0.4-2.5-0.4
			c-3.1,0.1-5.6,2.3-5.6,5.2C210.4,99.9,226.4,97.8,226.5,109.3z"/>
		<path d="M239.6,102.3v14.8h14.7l-0.4,2.3H234l0.4-2.3V86.3L234,84h18.5l-0.4,2.4h-12.5V100h10.2l-0.4,2.3H239.6z"/>
		<path d="M279.7,112.3c2.6,4,5.9,5.2,6.9,5.3v1.7h-4c-1-0.1-4.1-0.1-6.1-3.1l-8.6-13.5l0.3-1.8h1.5c4.8,0,6.8-4.5,6.8-8
			c0-4.7-3.8-6.9-7.5-6.9h-3.4v31l0.5,2.3H260l0.5-2.3V85.9L260,84h9.2c4.2,0,12.7,1,12.7,9.1c0,5.8-6,8.9-8.6,9.3
			C274.9,105,279.4,111.9,279.7,112.3z"/>
		<path d="M304,117.1V85.9l-0.5-1.9h9.6c4,0.1,12,0.6,12,9.1c0,3.8-4,7.1-7,7.5v0.3c4,0,8.6,3.2,8.6,8.8c0,6.1-5.3,9.7-11.2,9.7h-12
			L304,117.1z M314.3,117.2c5.3,0,6.5-4,6.6-7.9c0.1-4-1.9-7.1-6.2-7.1h-2.9l0.4-2.3h2c4.3-0.5,5.6-4.2,5.6-7.7s-2.4-6.1-6.6-6.1h-4
			v31H314.3z"/>
		<path d="M334.3,119.4h-4.4l1.2-2.3l11.6-31.8l-0.3-1.3h3.8l12.5,33l1.3,2.4h-6.9l0.4-2.2l-4-10.6h-12l-3.8,10.5L334.3,119.4z
			 M338.5,104.3h10.3l-5.2-14L338.5,104.3z"/>
		<path d="M368.4,119.4h-3.9l0.5-2.3V86.4l-1-2.4h5.2l17,26.3V86l-0.5-2h3.9l-0.5,2v33.4h-3L368,91v26.1L368.4,119.4z"/>
		<path d="M403,119.4h-6.1l0.5-2.3V85.9l-0.5-1.9h6.1l-0.5,1.9v31.2L403,119.4z M421.1,119.4c-2.3,0-4.1-0.6-6.4-3.5l-10.9-13.8
			v-1.9L418.7,84h3.5l-14.1,15.4l10.5,13.2c3.2,4.3,5.6,4.8,6.6,5v1.8H421.1z"/>
	</g>
</g>
</svg>
