<?xml version="1.0" encoding="utf-8"?>
<!-- Generator: Adobe Illustrator 23.1.1, SVG Export Plug-In . SVG Version: 6.00 Build 0)  -->
<svg version="1.1" id="Layer_1" xmlns="http://www.w3.org/2000/svg" xmlns:xlink="http://www.w3.org/1999/xlink" x="0px" y="0px"
	 viewBox="0 0 260.3 110.6" style="enable-background:new 0 0 260.3 110.6;" xml:space="preserve">
<style type="text/css">
	.st0{fill:#004058;}
	.st1{fill:#F59D4E;}
</style>
<g>
	<path class="st0" d="M0,99V56.8h28v6.3H8.2v11.2h16.3v6.3H8.2v12.1h20.3V99H0z M74.2,72c2.7-2.2,5.8-3.7,8.4-3.7
		c8.5,0,11.5,6.9,11.5,14.4c0,9.6-3.4,17-12.3,17c-1.4,0-5.4-0.5-7.7-1.9v12.8h-8.4V68.8h7.9l0.2,2.8L74.2,72z M80.2,93.3
		c3.7,0,5.1-4,5.1-10.7c0-3.9-1.2-8-4.9-8c-1.9,0-4.6,1.6-6.2,2.8v14.1C75.9,92.7,78.5,93.3,80.2,93.3z M140.1,56.2V71l0.4,0.2
		c2.7-1.9,5.3-3,8.1-3c9,0,12.1,6.9,12.1,14.5c0,11-4.9,16.8-14.7,16.8c-4.3,0-9.5-1-14.2-3.3V56.2H140.1z M145.9,74.6
		c-1.9,0-4.1,1-5.9,2.2v15.4c1.7,0.8,3.7,1.1,5.4,1.1c5.1,0,6.3-4.4,6.3-10.4C151.8,80.1,151.2,74.6,145.9,74.6z M217.8,99V80.5
		c0-3.1-0.4-5.5-4.2-5.5c-2.1,0-5,1.2-7,2.7V99h-8.4V68.8h8l0.1,3l0.2,0.2c2.8-2.4,7.5-3.7,10.6-3.7c6.9,0,9.2,3.1,9.2,10.5V99
		H217.8z M190.7,93.2h3.9l0.4,5.1c-2.3,0.8-4.8,1.4-7.4,1.4c-2.6,0-4.4-0.9-4.8-3.7h-0.1c-3.2,2.7-6.6,3.7-10.6,3.7
		c-5.5,0-9-3.3-9-8.7c0-6.2,4.7-9.5,11-10l8.2-0.2c0-4.7-1.2-6.1-5.6-6.1c-3.3,0-6.2,0.8-9,1.9l-1.9-5.9c3.5-1.4,8.7-2.3,13-2.3
		c7.4,0,11.8,2.8,11.8,10.7V93.2z M176.3,86.2c-2.8,0.2-4.3,1.5-4.3,4.1c0,2.5,1.5,3.6,4.2,3.6c2,0,4.5-1.3,6.2-2.6v-5.6L176.3,86.2
		z M127.9,83.9c0,9.8-5.1,15.7-15.5,15.7c-10,0-14.8-5.7-14.8-15.7c0-9.2,5.1-15.7,15.1-15.7C123,68.3,127.9,74.3,127.9,83.9z
		 M119.1,84c0-4.3-1.3-9.3-6.3-9.3c-4.7,0-6.3,4.6-6.3,9.3c0,5.2,1.2,9.3,6.3,9.3C117.7,93.3,119.1,89.2,119.1,84z M231.8,99V56.2
		h8.4v25.3h1.1l8.7-12.7h9.2l-11.1,13.9L260.3,99h-10.2l-8.9-13.2h-1V99H231.8z M52.9,99l-6-10.9L40.7,99h-9.3L42,83l-9.7-14.2h9.8
		l5.3,9.7l5.3-9.7h9.3l-9.3,14.3L63.5,99H52.9z"/>
	<g>
		<g>
			<path class="st1" d="M23.5,13.4C23.5,6,29.5,0,36.9,0c7.4,0,13.4,6,13.4,13.4c0,7.4-6,13.4-13.4,13.4
				C29.5,26.9,23.5,20.8,23.5,13.4z"/>
		</g>
		<g>
			<rect y="31.9" class="st1" width="73.9" height="10.1"/>
		</g>
		<g>
			<path class="st1" d="M5,0C3.3,0,1.6,0.3,0,1v24.9c1.6,0.6,3.3,1,5,1c7.4,0,13.4-6,13.4-13.4C18.5,6,12.5,0,5,0z"/>
		</g>
		<g>
			<path class="st1" d="M68.8,0c1.8,0,3.5,0.3,5,1v24.9c-1.6,0.6-3.3,1-5,1c-7.4,0-13.4-6-13.4-13.4C55.4,6,61.4,0,68.8,0z"/>
		</g>
	</g>
</g>
</svg>
