<?xml version="1.0" encoding="utf-8"?>
<!-- Generator: Adobe Illustrator 25.3.1, SVG Export Plug-In . SVG Version: 6.00 Build 0)  -->
<svg version="1.1" id="Vrstva_1" xmlns="http://www.w3.org/2000/svg" xmlns:xlink="http://www.w3.org/1999/xlink" x="0px" y="0px"
	 viewBox="0 0 370.6 48.5" style="enable-background:new 0 0 370.6 48.5;" xml:space="preserve">
<style type="text/css">
	.st0{fill:#F3A81E;}
	.st1{fill:#674F21;}
	.st2{fill:#D29321;}
	.st3{fill:#82633B;}
	.st4{fill:#7D5F35;}
	.st5{fill:#755B38;}
	.st6{fill:#FFFFFF;}
	.st7{fill:#DBD2C6;}
	.st8{fill:#BB8424;}
	.st9{fill:#A97924;}
	.st10{fill:#293070;}
</style>
<polygon class="st0" points="23.9,11.5 26.1,11.5 26.1,12 26.1,15.9 26.5,16.8 33.1,16.8 33.1,6.4 20.1,3.9 "/>
<polygon class="st0" points="17.8,0 18.4,1.6 33.1,1.6 33.1,0 "/>
<g>
	<path class="st0" d="M23.6,19.7l9,21.2c1.8,0.1,3.6,0.2,5.4,0.3l-4.9-23h0l0.7,3.4L23.6,19.7z"/>
</g>
<polygon class="st1" points="33.1,16.8 26.5,16.8 26.1,16.8 22.9,16.8 22.9,16.8 22.3,16.8 22.3,16.8 15.3,16.8 14.4,16.8 
	14.4,17.6 34,17.6 34,16.8 "/>
<polygon class="st1" points="33.1,1.6 18.4,1.6 15.3,1.6 14.4,1.6 14.4,2.4 34,2.4 34,1.6 "/>
<g>
	<path class="st0" d="M21.2,33.4v-0.5h5.9v0.5v7.4c1.8,0,3.6,0,5.4,0.1l-9-21.2l-8.3-1.5l-5.1,23.9c3.7-0.6,7.3-0.9,11-1.2V33.4z"/>
	<path class="st2" d="M15.3,18.2l-5.1,23.9l0,0c3.7-0.6,7.3-0.9,11-1.2v-7.6v-0.5h5.9v0.5v7.4c0.3,0,0.6,0,1,0c1.5,0,3,0,4.5,0.1
		l-9-21.2l-2.6-0.5L15.3,18.2z"/>
</g>
<polygon class="st0" points="24.1,12 26.1,15.9 26.1,12 "/>
<polygon class="st3" points="24.1,12 26.1,15.9 26.1,12 "/>
<polygon class="st0" points="26.1,16.8 26.5,16.8 26.1,15.9 "/>
<polygon class="st2" points="26.1,16.8 26.5,16.8 26.1,15.9 "/>
<polygon class="st0" points="22.4,12 22.4,11.5 23.9,11.5 20.1,3.9 15.3,3 15.3,16.8 22.4,16.8 "/>
<polygon class="st2" points="15.3,3 15.3,3 15.3,16.8 22.4,16.8 22.4,12 22.4,11.5 23.9,11.5 20.1,3.9 20.1,3.9 19,3.7 "/>
<polygon class="st0" points="22.9,12 22.9,16.8 26.1,16.8 26.1,15.9 24.1,12 "/>
<polygon class="st4" points="22.9,12 22.9,16.8 26,16.8 26,15.9 24.1,12 "/>
<g>
	<path class="st0" d="M21.7,41c1.8-0.1,3.6-0.2,5.4-0.2v-7.4h-5.4V41z"/>
	<path class="st5" d="M27.2,33.4h-5.4V41c1.8-0.1,3.6-0.2,5.4-0.2V33.4z"/>
</g>
<polygon class="st6" points="23.9,11.5 24.1,12 26.1,12 26.1,11.5 "/>
<polygon class="st6" points="22.4,11.5 22.4,12 22.9,12 24.1,12 23.9,11.5 "/>
<rect x="22.4" y="16.8" class="st6" width="0.5" height="0"/>
<rect x="22.4" y="12" class="st6" width="0.5" height="4.8"/>
<polygon class="st0" points="15.3,0 15.3,1.6 18.4,1.6 17.8,0 "/>
<polygon class="st2" points="15.3,0 15.3,1.6 18.4,1.6 18.4,1.6 17.8,0 "/>
<polygon class="st7" points="15.3,18.2 15.3,18.2 15.3,18.2 15.3,18.2 "/>
<polygon class="st0" points="33.8,21.6 33.1,18.2 22.9,18.2 23.6,19.7 "/>
<polygon class="st2" points="22.9,18.2 23.6,19.7 23.6,19.7 23.6,19.7 23.6,19.7 33.8,21.6 33.1,18.2 "/>
<polygon class="st0" points="15.3,18.2 15.3,18.2 23.6,19.7 22.9,18.2 "/>
<polygon class="st8" points="15.3,18.2 15.3,18.2 23.6,19.7 23.6,19.7 22.9,18.2 "/>
<polygon class="st0" points="33.1,6.4 33.1,3 19.6,3 20.1,3.9 "/>
<polygon class="st2" points="33.1,3 19.6,3 19.7,3.1 20.1,3.9 33.1,6.4 "/>
<polygon class="st0" points="15.3,3 20.1,3.9 19.6,3 "/>
<path class="st9" d="M19.7,3.1L19.6,3L19.7,3.1z"/>
<polygon class="st8" points="15.3,3 20.1,3.9 19.7,3.1 19.6,3 "/>
<g>
	<path class="st6" d="M10.1,42.5l0.1-0.4c-3.4,0.5-6.8,1.2-10.2,2l0,0.1c3.7-0.8,7.5-1.4,11.2-1.8L10.1,42.5L10.1,42.5z"/>
	<path class="st10" d="M48.1,44.2c-3.6-0.7-7.2-1.3-10.9-1.7c-1.3-0.2-2.7-0.3-4.1-0.4c-2-0.2-4-0.2-6-0.3c-1.8-0.1-3.6-0.1-5.4,0
		c-0.2,0-0.3,0-0.5,0c-3.3,0.1-6.7,0.3-10,0.7c-3.8,0.4-7.5,1-11.2,1.8h0c0.3,1.4,0.6,2.8,0.9,4.2c15.4-3.2,31.3-3.2,46.7,0
		c0.3-1.4,0.6-2.8,0.9-4.2C48.3,44.3,48.2,44.2,48.1,44.2"/>
</g>
<polygon class="st10" points="64.7,2.4 64.7,46.2 71.9,46.2 71.9,26.4 91.9,26.4 91.9,19.7 71.9,19.7 71.9,9 93.1,9 95.1,2.4 "/>
<g>
	<path class="st10" d="M123.2,39.7c-1.5,0.4-3.2,0.7-5.1,0.7c-2.7,0-5-0.4-6.7-1.1c-1.7-0.7-3-1.8-4-3.2c-0.9-1.4-1.6-3.1-1.9-5
		c-0.4-2-0.5-4.2-0.5-6.7v-2.1c0-4.5,1.1-8,3.2-10.4c2.1-2.4,5.4-3.6,9.9-3.6c1.9,0,3.6,0.2,5,0.8c1.4,0.5,2.8,1.4,4.2,2.8L132,7
		c-1.9-1.9-4-3.3-6.4-4.1c-2.4-0.8-4.9-1.3-7.5-1.3c-3.3,0-6.2,0.5-8.7,1.4c-2.6,0.9-4.7,2.3-6.4,4c-1.8,1.8-3.1,3.9-4,6.5
		c-0.9,2.5-1.4,5.4-1.4,8.6v2.3c0,3.4,0.4,6.4,1.2,9.2s2,5.1,3.6,7.1s3.8,3.5,6.3,4.6s5.7,1.6,9.4,1.6c2.7,0,5.2-0.4,7.6-1.3
		c2.4-0.9,4.5-2.3,6.4-4.3l-4.7-4.4C126.1,38.3,124.7,39.3,123.2,39.7"/>
</g>
<polygon class="st10" points="172.6,2.4 160.3,33.1 148,2.4 138.4,2.4 138.4,46.2 145.5,46.2 145.5,12.4 156.8,41.1 163.7,41.1 
	174.9,13.2 174.9,46.2 182,46.2 182,2.4 "/>
<g>
	<path class="st10" d="M234.3,37.9c-1.2,1.2-3.2,1.8-5.8,1.8h-12.8V26.8h13.1c2.5,0,4.4,0.5,5.6,1.5s1.8,2.6,1.8,4.8
		C236.2,35.1,235.6,36.7,234.3,37.9 M215.7,9h11.4c1.8,0,3.2,0.3,4.3,0.9c1.1,0.6,1.6,1.9,1.6,3.8c0,2.3-0.6,4-1.7,5
		s-2.6,1.4-4.4,1.4h-11.2V9z M236.1,23v-0.4c2.9-2.2,4.3-5.2,4.3-8.8c0-2-0.3-3.7-0.9-5.1s-1.5-2.6-2.6-3.5c-1.1-0.9-2.5-1.6-4-2
		c-1.6-0.4-3.3-0.7-5.1-0.7h-19.1v43.8h20c2,0,3.9-0.2,5.6-0.7c1.8-0.5,3.3-1.2,4.6-2.2c1.3-1,2.4-2.3,3.1-3.9
		c0.8-1.6,1.1-3.5,1.1-5.7c0-2.6-0.6-4.8-1.8-6.5C240.1,25.5,238.4,24.1,236.1,23"/>
</g>
<path class="st10" d="M265.7,12.8l1.6-4.9l6.8,19.6h-13.2L265.7,12.8z M263,2.4l-16.3,43.8h7.5l4.6-12.5h17.7l4.9,12.5h7.4
	L271.5,2.4H263z"/>
<polygon class="st10" points="322.6,2.4 322.6,35.3 302.2,2.4 293.5,2.4 293.5,46.2 300.6,46.2 300.6,12.6 321.4,46.2 329.8,46.2 
	329.8,2.4 "/>
<polygon class="st10" points="360,2.4 344.5,19.5 344.5,2.4 337.4,2.4 337.4,46.2 344.5,46.2 344.5,27.5 362.4,46.2 370.6,46.2 
	349.7,23.7 368,2.4 "/>
</svg>
