<svg xmlns="http://www.w3.org/2000/svg" xmlns:xlink="http://www.w3.org/1999/xlink" width="159.769" height="28.366" viewBox="0 0 159.769 28.366">
  <defs>
    <clipPath id="clip-path">
      <path id="path32" d="M14.838-114.94a5.691,5.691,0,0,0,2.858.545,5.756,5.756,0,0,0,2.92-1.089l1.791.85L12.14-103.28l-1.786-.824,6.442-7.312-1.61-.746-1.957-.907,1.546-1.8.063-.072Z" transform="translate(-10.354 115.484)"/>
    </clipPath>
    <clipPath id="clip-path-2">
      <path id="path76" d="M46.02-49.882a5.691,5.691,0,0,0-2.857-.545,5.806,5.806,0,0,0-2.921,1.085l-1.791-.845L48.719-61.542l1.785.825-6.442,7.311,1.61.746,1.958.906-1.546,1.8-.064.072Z" transform="translate(-38.451 61.542)"/>
    </clipPath>
  </defs>
  <g id="g10" transform="translate(0.353 122.988)">
    <g id="g12" transform="translate(0.089 -122.61)">
      <path id="path14" d="M10.677-89.775l6.333-7.159.38,2.36-5.038,5.593-1.675-.794h0" transform="translate(-8.285 102.734)" fill="#d3d2d2"/>
      <path id="path16" d="M20.4-99.972l12.23-13.608L34.277-103.5,22.078-89.91,20.4-99.972h0" transform="translate(-15.81 115.62)" fill="#a7a5a6"/>
      <path id="path18" d="M.733-63.076,2.39-53.106l4.374,2.175L5.194-60.939.733-63.076h0" transform="translate(-0.588 76.523)" fill="#deddde"/>
      <path id="path20" d="M16.595-99.856l1.022-1.671-4.546-1.156.763,5.115,2.761-2.287h0" transform="translate(-10.138 107.184)" fill="#deddde"/>
      <path id="path22" d="M6.614-122.151a5.87,5.87,0,0,0,3.1.851,6.419,6.419,0,0,0,3.34-1.31l4.2,2.024L5.066-107.01.544-109.186l6.394-7.134-3.653-1.83,3.328-4h0" transform="translate(-0.441 122.61)" fill="#fff"/>
      <path id="path24" d="M6.614-122.151a5.87,5.87,0,0,0,3.1.851,6.419,6.419,0,0,0,3.34-1.31l4.2,2.024L5.066-107.01.544-109.186l6.394-7.134-3.653-1.83Z" transform="translate(-0.441 122.61)" fill="none" stroke="#231f20" stroke-width="0.667"/>
      <path id="path26" d="M14.838-114.94a5.691,5.691,0,0,0,2.858.545,5.756,5.756,0,0,0,2.92-1.089l1.791.85L12.14-103.28l-1.786-.824,6.442-7.312-1.61-.746-1.957-.907,1.546-1.8.063-.072h0" transform="translate(-8.035 117.094)" fill="#deddde"/>
      <g id="g28" transform="translate(2.318 1.609)">
        <g id="g30" clip-path="url(#clip-path)">
          <path id="path36" d="M55.7-115.479l1.762.863-1.367,1.44-.395-2.3h0" transform="translate(-45.458 115.481)" fill="#a7a5a6"/>
          <path id="path38" d="M24.641-113.086l-1.581,1.835,2.012.9-.431-2.735h0" transform="translate(-20.189 113.627)" fill="#a7a5a6"/>
          <path id="path40" d="M10.307-90.086l6.441-7.231.4,2.448L12.07-89.3l-1.763-.79h0" transform="translate(-10.318 101.421)" fill="#a7a5a6"/>
        </g>
      </g>
      <path id="path42" d="M14.838-114.94a5.691,5.691,0,0,0,2.858.545,5.756,5.756,0,0,0,2.92-1.089l1.791.85L12.14-103.28l-1.786-.824,6.442-7.312-1.61-.746-1.957-.907,1.546-1.8.063-.072Z" transform="translate(-8.035 117.094)" fill="none" stroke="#231f20" stroke-width="0.667"/>
      <path id="path44" d="M38.652-97.324l.139-.147.417,2.552-.147.154-.409-2.559h0" transform="translate(-29.941 103.149)" fill="#231f20"/>
      <path id="path46" d="M29.93-113.083l.042-.063.118.052.43,2.828-.188-.071-.426-2.747h.024" transform="translate(-23.171 115.284)" fill="#231f20" fill-rule="evenodd"/>
      <path id="path48" d="M55.4-115.533l.052-.032.112.046.352,2.324-.151.184-.379-2.491.014-.031h0" transform="translate(-42.895 117.156)" fill="#231f20"/>
      <path id="path50" d="M12.592-102.875l.174.08.763,4.783-.138.143-.8-5.006h0" transform="translate(-9.768 107.332)" fill="#231f20"/>
      <path id="path52" d="M.089-63.076l.182.106,1.638,9.948-.182-.094L.089-63.076h0" transform="translate(-0.089 76.523)" fill="#231f20"/>
      <path id="path54" d="M7.358-19.53l4.626,2.268-.02-.161L7.342-19.691l.016.161h0" transform="translate(-5.703 42.937)" fill="#231f20"/>
      <path id="path56" d="M7.358-19.53l4.626,2.268-.02-.161L7.342-19.691Z" transform="translate(-5.704 42.937)" fill="none" stroke="#231f20" stroke-width="0.461"/>
      <path id="path58" d="M20-53.456h.162L21.819-43.4l-.182-.089L20-53.456h0" transform="translate(-15.503 69.075)" fill="#231f20"/>
      <path id="path60" d="M68.49-60.481l-6.333,7.159-.379-2.355,5.038-5.595,1.673.79h0" transform="translate(-47.845 75.125)" fill="#d3d2d2"/>
      <path id="path62" d="M80.771-101.533,79.115-111.5l-4.374-2.173,1.569,10,4.46,2.142h0" transform="translate(-57.88 115.694)" fill="#deddde"/>
      <path id="path64" d="M69.994-40.669l-1.023,1.676,4.547,1.155-.764-5.114-2.76,2.283h0" transform="translate(-53.413 60.944)" fill="#deddde"/>
      <path id="path66" d="M38.29-54.31a5.889,5.889,0,0,0-3.1-.852,6.389,6.389,0,0,0-3.34,1.312l-4.2-2.025L39.837-69.452l4.523,2.177-6.394,7.134,3.652,1.829-3.328,4h0" transform="translate(-21.425 81.459)" fill="#fff"/>
      <path id="path68" d="M38.29-54.31a5.889,5.889,0,0,0-3.1-.852,6.389,6.389,0,0,0-3.34,1.312l-4.2-2.025L39.837-69.452l4.523,2.177-6.394,7.134,3.652,1.829Z" transform="translate(-21.425 81.459)" fill="none" stroke="#231f20" stroke-width="0.667"/>
      <path id="path70" d="M46.02-49.882a5.691,5.691,0,0,0-2.857-.545,5.806,5.806,0,0,0-2.921,1.085l-1.791-.845L48.719-61.542l1.785.825-6.442,7.311,1.61.746,1.958.906-1.546,1.8-.064.072h0" transform="translate(-29.786 75.335)" fill="#deddde"/>
      <g id="g72" transform="translate(8.665 13.793)">
        <g id="g74" clip-path="url(#clip-path-2)">
          <path id="path80" d="M69.542-22.619l2.157,1-1.61,1.872-.547-2.869h0" transform="translate(-62.519 31.41)" fill="#a7a5a6"/>
          <path id="path82" d="M61.426-55.709l.432,2.412,6.359-7.184-1.673-.79-5.118,5.562h0" transform="translate(-56.237 61.332)" fill="#a7a5a6"/>
          <path id="path84" d="M39.8-17.943l.438,2.353-1.791-.845L39.8-17.943h0" transform="translate(-38.451 27.79)" fill="#a7a5a6"/>
        </g>
      </g>
      <path id="path86" d="M46.02-49.882a5.691,5.691,0,0,0-2.857-.545,5.806,5.806,0,0,0-2.921,1.085l-1.791-.845L48.719-61.542l1.785.825-6.442,7.311,1.61.746,1.958.906-1.546,1.8-.064.072Z" transform="translate(-29.786 75.335)" fill="none" stroke="#231f20" stroke-width="0.667"/>
      <path id="path88" d="M61.454-34.709l-.1.19L60.9-37.112l.147-.155.409,2.558h0" transform="translate(-47.164 56.543)" fill="#231f20"/>
      <path id="path90" d="M70.133-19.8l-.042.067-.119-.052-.431-2.833.189.077.426,2.741h-.024" transform="translate(-53.855 45.203)" fill="#231f20" fill-rule="evenodd"/>
      <path id="path92" d="M44.96-16.214l-.052.033-.112-.047-.352-2.329.152-.179.378,2.487-.013.034h0" transform="translate(-34.425 42.197)" fill="#231f20"/>
      <path id="path94" d="M86.425-37.3l-.161-.036-.835-4.8.138-.138.857,4.978h0" transform="translate(-66.154 60.426)" fill="#231f20"/>
      <path id="path96" d="M95.844-94.375H95.7L94.025-104.43l.182.089,1.638,9.966h0" transform="translate(-72.808 108.536)" fill="#231f20"/>
      <path id="path98" d="M78.9-111.806l-4.627-2.267.02.165,4.623,2.263-.015-.161h0" transform="translate(-57.52 116.001)" fill="#231f20"/>
      <path id="path100" d="M78.9-111.806l-4.627-2.267.02.165,4.623,2.263Z" transform="translate(-57.52 116.001)" fill="none" stroke="#231f20" stroke-width="0.461"/>
      <path id="path102" d="M75.937-103.923l-.167-.1-1.658-10.055.182.093,1.642,10.057h0" transform="translate(-57.393 116.001)" fill="#231f20"/>
      <path id="path104" d="M125.721-84.76a5.325,5.325,0,0,0,1.911-.318,1.734,1.734,0,0,0,.858-1.686v-13.7a1.663,1.663,0,0,0-.848-1.656,5.179,5.179,0,0,0-1.921-.348v-.718h17.665v5.711h-.753a6.173,6.173,0,0,0-1.948-3.694q-1.373-1.061-5.056-1.062a3.27,3.27,0,0,0-1.748.3,1.238,1.238,0,0,0-.362,1.046v6.566c1.675.023,2.812-.314,3.4-.991a6.889,6.889,0,0,0,1.359-3.2h.794v9.563h-.794a6.2,6.2,0,0,0-1.29-3.362c-.646-.7-1.8-1.035-3.468-1.035v6.581c0,.884.273,1.459.833,1.694a6.99,6.99,0,0,0,2.582.309v.713H125.721v-.713" transform="translate(-97.345 107.57)" fill="#15356f"/>
      <path id="path106" d="M203.949-84.76a5.043,5.043,0,0,0,1.911-.285,1.711,1.711,0,0,0,.942-1.719v-13.7a1.683,1.683,0,0,0-.9-1.682,5.274,5.274,0,0,0-1.952-.322v-.718h10.892v.718a5.659,5.659,0,0,0-2,.311,1.679,1.679,0,0,0-.915,1.693v13.7a1.614,1.614,0,0,0,.739,1.593,4.678,4.678,0,0,0,2.179.41v.713H203.949v-.713" transform="translate(-157.903 107.57)" fill="#15356f"/>
      <path id="path108" d="M249.046-84.76a3.213,3.213,0,0,0,2.206-.553,2.525,2.525,0,0,0,.519-1.71V-100.46a1.673,1.673,0,0,0-.585-1.518,4.828,4.828,0,0,0-2.064-.485v-.718h7.5l5.843,13.109h.258l5.82-13.109h7.5v.718a4.035,4.035,0,0,0-2.066.544c-.364.272-.554.961-.554,2.055v12.525a2.82,2.82,0,0,0,.554,2.048,3.456,3.456,0,0,0,2.066.531v.713h-9.886v-.713a4.505,4.505,0,0,0,2-.421c.431-.254.656-.8.656-1.667v-13.847h-.22L261.3-84.047h-.8l-7.351-16.311h-.13v12.819a3.194,3.194,0,0,0,.54,2.064,3.457,3.457,0,0,0,2.452.715v.713h-6.966v-.713" transform="translate(-192.815 107.57)" fill="#15356f"/>
      <path id="path110" d="M374.864-85.551a1.416,1.416,0,0,0,1.322.588,3.171,3.171,0,0,0,2.8-1.1,5.026,5.026,0,0,0,.818-3.1c0-2.021-.592-3.335-1.777-4a6.831,6.831,0,0,0-3.385-.586v7.093A2.178,2.178,0,0,0,374.864-85.551Zm3.3-9.9a4.146,4.146,0,0,0,.9-3.042,5.766,5.766,0,0,0-.589-2.724,2.307,2.307,0,0,0-2.261-1.112,1.859,1.859,0,0,0-1.224.3,1.336,1.336,0,0,0-.345,1.064v6.377C376.393-94.581,377.565-94.892,378.161-95.449ZM367.624-84.764a4.418,4.418,0,0,0,1.643-.3,1.764,1.764,0,0,0,.854-1.706v-13.7a1.733,1.733,0,0,0-.791-1.667,4.189,4.189,0,0,0-1.706-.332v-.717h8.758a12.686,12.686,0,0,1,4.2.581c2.1.724,3.148,2.06,3.148,3.978a3.372,3.372,0,0,1-1.284,2.79,6.149,6.149,0,0,1-2.766,1.31v.259a8.2,8.2,0,0,1,2.742,1.013,4.417,4.417,0,0,1,2.276,3.928,4.465,4.465,0,0,1-2.176,3.834,10.315,10.315,0,0,1-5.782,1.441h-9.117v-.717" transform="translate(-284.61 107.57)" fill="#15356f" fill-rule="evenodd"/>
      <path id="path112" d="M440.726-86.125a2.049,2.049,0,0,0,1.645-.928,13.41,13.41,0,0,0,1.148-2.369l6.3-15.518h.779l6.323,14.887a20.217,20.217,0,0,0,1.595,3.235,1.666,1.666,0,0,0,1.493.693v.717h-9.177v-.717a5.615,5.615,0,0,0,1.819-.237c.3-.1.441-.426.441-.911a3.782,3.782,0,0,0-.223-1c-.1-.263-.218-.6-.369-.963l-.716-1.73h-6.375c-.407,1.131-.669,1.858-.791,2.213a5.294,5.294,0,0,0-.383,1.6c0,.38.283.7.816.858a4.682,4.682,0,0,0,1.458.175v.717h-5.784Zm10.627-5.969-2.72-6.544H448.4l-2.559,6.544h5.512" transform="translate(-341.2 108.931)" fill="#15356f" fill-rule="evenodd"/>
      <path id="path114" d="M519.24-84.764a2.925,2.925,0,0,0,2.142-.606,2.45,2.45,0,0,0,.476-1.655v-13.417a23.259,23.259,0,0,0-1.689-1.691,1.532,1.532,0,0,0-.863-.332v-.717H525.6l10.231,11.935h.14v-8.422a2.984,2.984,0,0,0-.554-2.053,3.3,3.3,0,0,0-2.2-.742v-.717h6.411v.717a4.537,4.537,0,0,0-1.884.592,2.2,2.2,0,0,0-.463,1.676v16.668h-.826L523.37-98.66h-.209v11.118a3.239,3.239,0,0,0,.39,1.84,2.933,2.933,0,0,0,2.438.938v.717H519.24v-.717" transform="translate(-401.98 107.57)" fill="#15356f"/>
      <path id="path116" d="M608.272-84.764a4.758,4.758,0,0,0,1.717-.3,1.76,1.76,0,0,0,.866-1.706v-13.7a1.721,1.721,0,0,0-.788-1.654,4.521,4.521,0,0,0-1.794-.345v-.717h10.051v.717a3.993,3.993,0,0,0-2.078.555c-.356.279-.526.961-.526,2.044v6.058l6.4-6.178a9.327,9.327,0,0,0,.865-.888,1.119,1.119,0,0,0,.195-.669.656.656,0,0,0-.516-.688,9.754,9.754,0,0,0-1.987-.235v-.717h8.6v.717a7.623,7.623,0,0,0-3.833,1.25,61.783,61.783,0,0,0-5.739,5.173l9.082,10.713a1.181,1.181,0,0,0,.569.417,3.28,3.28,0,0,0,.875.148v.717h-9.972v-.717a13.6,13.6,0,0,0,1.845-.1c.332-.086.489-.228.489-.511a.812.812,0,0,0-.154-.426,6.183,6.183,0,0,0-.568-.8l-5.406-6.437-.746.719v5.545a1.737,1.737,0,0,0,.852,1.693,4.7,4.7,0,0,0,1.714.309v.717H608.272v-.717" transform="translate(-470.903 107.57)" fill="#15356f"/>
    </g>
  </g>
</svg>
