<?xml version="1.0" encoding="utf-8"?>
<svg viewBox="-5 -5 720 135" id="svg2" version="1.1" xmlns="http://www.w3.org/2000/svg">
  <defs id="defs6">
    <clipPath id="clipPath34" clipPathUnits="userSpaceOnUse">
      <path id="path32" d="m 226.547,848.066 c 34.215,-14.277 59.019,-20.543 94.898,-18.097 45.75,3.019 66.582,18.648 96.969,36.164 l 59.461,-28.223 -340.91,-377.031 -59.3127,27.367 213.9097,242.793 -53.453,24.77 -64.996,30.109 51.336,59.75 2.098,2.398 z"/>
    </clipPath>
    <clipPath id="clipPath78" clipPathUnits="userSpaceOnUse">
      <path id="path76" d="M 539.727,74.3867 C 505.512,88.6602 480.746,94.9102 444.863,92.4727 399.07,89.4258 378.262,73.8086 347.859,56.4531 l -59.476,28.0664 340.965,377.0465 59.285,-27.39 -213.922,-242.75 53.457,-24.785 65.023,-30.086 -51.343,-59.7698 -2.121,-2.3985 z"/>
    </clipPath>
  </defs>
  <g transform="matrix(1.3333333,0,0,-1.3333333,0,122.98667)" id="g10">
    <g transform="scale(0.1)" id="g12">
      <path id="path14" style="fill:#d3d2d2;fill-opacity:1;fill-rule:nonzero;stroke:none" d="M 80.0742,489.285 290.359,727.012 302.969,648.637 135.68,462.934 80.0742,489.285 v 0"/>
      <path id="path16" style="fill:#a7a5a6;fill-opacity:1;fill-rule:nonzero;stroke:none" d="M 152.973,399.996 559.07,851.855 613.895,517.016 208.805,65.8672 152.973,399.996 v 0"/>
      <path id="path18" style="fill:#deddde;fill-opacity:1;fill-rule:nonzero;stroke:none" d="M 5.5,473.07 60.4961,142.031 205.723,69.8242 153.633,402.125 5.5,473.07 v 0"/>
      <path id="path20" style="fill:#deddde;fill-opacity:1;fill-rule:nonzero;stroke:none" d="m 215.055,676.25 33.929,55.5 -150.9567,38.379 25.3517,-169.832 91.676,75.953 v 0"/>
      <path id="path22" style="fill:#ffffff;fill-opacity:1;fill-rule:nonzero;stroke:none" d="m 205.625,904.352 c 39.187,-17.129 61.777,-31.18 102.836,-28.27 52.402,3.691 76.336,22.563 110.914,43.492 L 558.91,852.352 154.242,401.57 4.08203,473.844 216.395,710.719 95.1055,771.469 205.625,904.352 v 0"/>
      <path id="path24" style="fill:none;stroke:#231f20;stroke-width:5;stroke-linecap:butt;stroke-linejoin:miter;stroke-miterlimit:3.86370993;stroke-dasharray:none;stroke-opacity:1" d="m 205.625,904.352 c 39.187,-17.129 61.777,-31.18 102.836,-28.27 52.402,3.691 76.336,22.563 110.914,43.492 L 558.91,852.352 154.242,401.57 4.08203,473.844 216.395,710.719 95.1055,771.469 205.625,904.352 Z"/>
      <path id="path26" style="fill:#deddde;fill-opacity:1;fill-rule:nonzero;stroke:none" d="m 226.547,848.066 c 34.215,-14.277 59.019,-20.543 94.898,-18.097 45.75,3.019 66.582,18.648 96.969,36.164 l 59.461,-28.223 -340.91,-377.031 -59.3127,27.367 213.9097,242.793 -53.453,24.77 -64.996,30.109 51.336,59.75 2.098,2.398 v 0"/>
      <g id="g28">
        <g clip-path="url(#clipPath34)" id="g30">
          <path id="path36" style="fill:#a7a5a6;fill-opacity:1;fill-rule:nonzero;stroke:none" d="m 417.75,866.098 58.5,-28.653 -45.395,-47.828 -13.105,76.481 v 0"/>
          <path id="path38" style="fill:#a7a5a6;fill-opacity:1;fill-rule:nonzero;stroke:none" d="m 225.453,848.145 -52.508,-60.938 66.821,-29.863 -14.313,90.801 v 0"/>
          <path id="path40" style="fill:#a7a5a6;fill-opacity:1;fill-rule:nonzero;stroke:none" d="M 77.3047,489.77 291.191,729.883 304.32,648.586 135.84,463.535 77.3047,489.77 v 0"/>
        </g>
      </g>
      <path id="path42" style="fill:none;stroke:#231f20;stroke-width:5;stroke-linecap:butt;stroke-linejoin:miter;stroke-miterlimit:3.86370993;stroke-dasharray:none;stroke-opacity:1" d="m 226.547,848.066 c 34.215,-14.277 59.019,-20.543 94.898,-18.097 45.75,3.019 66.582,18.648 96.969,36.164 l 59.461,-28.223 -340.91,-377.031 -59.3127,27.367 213.9097,242.793 -53.453,24.77 -64.996,30.109 51.336,59.75 2.098,2.398 z"/>
      <path id="path44" style="fill:#231f20;fill-opacity:1;fill-rule:nonzero;stroke:none" d="m 289.887,726.152 4.617,4.887 13.855,-84.746 -4.886,-5.109 -13.586,84.968 v 0"/>
      <path id="path46" style="fill:#231f20;fill-opacity:1;fill-rule:evenodd;stroke:none" d="m 225.105,846.516 1.395,2.082 3.93,-1.719 14.273,-93.918 -6.258,2.348 -14.152,91.207 h 0.812 v 0"/>
      <path id="path48" style="fill:#231f20;fill-opacity:1;fill-rule:nonzero;stroke:none" d="m 415.836,865.688 1.738,1.05 3.703,-1.527 11.692,-77.176 -5.004,-6.101 -12.578,82.722 0.449,1.032 v 0"/>
      <path id="path50" style="fill:#231f20;fill-opacity:1;fill-rule:nonzero;stroke:none" d="m 94.4375,771.562 5.7615,-2.656 25.344,-158.828 -4.59,-4.75 -26.5155,166.234 v 0"/>
      <path id="path52" style="fill:#231f20;fill-opacity:1;fill-rule:nonzero;stroke:none" d="M 0.667969,473.07 6.70703,469.559 61.0938,139.227 55.0625,142.336 0.667969,473.07 v 0"/>
      <path id="path54" style="fill:#231f20;fill-opacity:1;fill-rule:nonzero;stroke:none" d="m 55.6016,142.336 153.6014,-75.3048 -0.668,5.3594 -153.4725,75.2934 0.5391,-5.348 v 0"/>
      <path id="path56" style="fill:none;stroke:#231f20;stroke-width:3.45732999;stroke-linecap:butt;stroke-linejoin:miter;stroke-miterlimit:3.86370993;stroke-dasharray:none;stroke-opacity:1" d="M 55.6016,142.336 209.203,67.0312 208.535,72.3906 55.0625,147.684 55.6016,142.336 Z"/>
      <path id="path58" style="fill:#231f20;fill-opacity:1;fill-rule:nonzero;stroke:none" d="m 150,400.918 h 5.371 L 210.395,67.0312 204.355,69.9727 150,400.918 v 0"/>
      <path id="path60" style="fill:#d3d2d2;fill-opacity:1;fill-rule:nonzero;stroke:none" d="M 686.195,433.305 475.922,195.574 463.34,273.762 630.629,459.531 686.195,433.305 v 0"/>
      <path id="path62" style="fill:#deddde;fill-opacity:1;fill-rule:nonzero;stroke:none" d="m 760.781,449.348 -54.98,331.09 -145.242,72.14 52.113,-332.113 148.109,-71.117 v 0"/>
      <path id="path64" style="fill:#deddde;fill-opacity:1;fill-rule:nonzero;stroke:none" d="M 551.246,246.34 517.285,190.703 668.262,152.336 642.887,322.141 551.246,246.34 v 0"/>
      <path id="path66" style="fill:#ffffff;fill-opacity:1;fill-rule:nonzero;stroke:none" d="M 560.664,18.0977 C 521.477,35.2148 498.84,49.2656 457.812,46.3945 405.41,42.6562 381.48,23.9336 346.91,2.84375 L 207.379,70.0781 612.043,520.895 762.223,448.598 549.91,211.699 671.16,150.969 560.664,18.0977 v 0"/>
      <path id="path68" style="fill:none;stroke:#231f20;stroke-width:5;stroke-linecap:butt;stroke-linejoin:miter;stroke-miterlimit:3.86370993;stroke-dasharray:none;stroke-opacity:1" d="M 560.664,18.0977 C 521.477,35.2148 498.84,49.2656 457.812,46.3945 405.41,42.6562 381.48,23.9336 346.91,2.84375 L 207.379,70.0781 612.043,520.895 762.223,448.598 549.91,211.699 671.16,150.969 560.664,18.0977 Z"/>
      <path id="path70" style="fill:#deddde;fill-opacity:1;fill-rule:nonzero;stroke:none" d="M 539.727,74.3867 C 505.512,88.6602 480.746,94.9102 444.863,92.4727 399.07,89.4258 378.262,73.8086 347.859,56.4531 l -59.476,28.0664 340.965,377.0465 59.285,-27.39 -213.922,-242.75 53.457,-24.785 65.023,-30.086 -51.343,-59.7698 -2.121,-2.3985 v 0"/>
      <g id="g72">
        <g clip-path="url(#clipPath78)" id="g74">
          <path id="path80" style="fill:#a7a5a6;fill-opacity:1;fill-rule:nonzero;stroke:none" d="m 521.566,169.641 71.625,-33.086 -53.464,-62.1683 -18.161,95.2543 v 0"/>
          <path id="path82" style="fill:#a7a5a6;fill-opacity:1;fill-rule:nonzero;stroke:none" d="m 460.699,274.844 14.34,-80.086 211.156,238.547 -55.566,26.226 -169.93,-184.687 v 0"/>
          <path id="path84" style="fill:#a7a5a6;fill-opacity:1;fill-rule:nonzero;stroke:none" d="m 333.324,134.57 14.535,-78.1169 -59.476,28.0664 44.941,50.0505 v 0"/>
        </g>
      </g>
      <path id="path86" style="fill:none;stroke:#231f20;stroke-width:5;stroke-linecap:butt;stroke-linejoin:miter;stroke-miterlimit:3.86370993;stroke-dasharray:none;stroke-opacity:1" d="M 539.727,74.3867 C 505.512,88.6602 480.746,94.9102 444.863,92.4727 399.07,89.4258 378.262,73.8086 347.859,56.4531 l -59.476,28.0664 340.965,377.0465 59.285,-27.39 -213.922,-242.75 53.457,-24.785 65.023,-30.086 -51.343,-59.7698 -2.121,-2.3985 z"/>
      <path id="path88" style="fill:#231f20;fill-opacity:1;fill-rule:nonzero;stroke:none" d="m 475.188,194.559 -3.235,-6.317 -15.211,86.121 4.879,5.141 13.567,-84.945 v 0"/>
      <path id="path90" style="fill:#231f20;fill-opacity:1;fill-rule:evenodd;stroke:none" d="m 541.199,76.0742 -1.398,-2.2344 -3.938,1.7188 -14.297,94.0824 6.262,-2.543 14.152,-91.0238 h -0.781 v 0"/>
      <path id="path92" style="fill:#231f20;fill-opacity:1;fill-rule:nonzero;stroke:none" d="m 350.473,56.7969 -1.739,-1.1055 -3.722,1.5547 -11.688,77.3239 5.031,5.946 12.563,-82.5941 -0.445,-1.125 v 0"/>
      <path id="path94" style="fill:#231f20;fill-opacity:1;fill-rule:nonzero;stroke:none" d="m 673.77,151.809 -5.332,1.207 -27.711,159.535 4.593,4.566 28.45,-165.308 v 0"/>
      <path id="path96" style="fill:#231f20;fill-opacity:1;fill-rule:nonzero;stroke:none" d="m 765.609,449.348 h -4.828 l -55.593,333.882 6.042,-2.957 54.379,-330.925 v 0"/>
      <path id="path98" style="fill:#231f20;fill-opacity:1;fill-rule:nonzero;stroke:none" d="m 710.719,780.273 -153.645,75.278 0.66,-5.489 153.496,-75.128 -0.511,5.339 v 0"/>
      <path id="path100" style="fill:none;stroke:#231f20;stroke-width:3.45732999;stroke-linecap:butt;stroke-linejoin:miter;stroke-miterlimit:3.86370993;stroke-dasharray:none;stroke-opacity:1" d="m 710.719,780.273 -153.645,75.278 0.66,-5.489 153.496,-75.128 -0.511,5.339 z"/>
      <path id="path102" style="fill:#231f20;fill-opacity:1;fill-rule:nonzero;stroke:none" d="m 616.441,518.5 -5.539,3.176 -55.058,333.875 6.058,-3.098 54.539,-333.953 v 0"/>
      <path id="path104" style="fill:#15356f;fill-opacity:1;fill-rule:nonzero;stroke:none" d="m 942.91,162.18 c 29.692,0.781 50.996,4.937 63.45,10.543 19.13,10.57 28.49,28.515 28.49,55.976 V 683.48 c 0,27.165 -9.23,45.719 -28.16,54.989 -11.44,6.101 -32.846,9.89 -63.78,11.543 v 23.851 h 586.58 V 584.238 h -25.02 c -13.06,58.532 -34.34,99.43 -64.67,122.676 -30.4,23.496 -86.46,35.231 -167.9,35.277 -30.35,0 -49.71,-3.3 -58.05,-9.828 -8,-5.918 -12.01,-17.504 -12.01,-34.722 V 479.613 c 55.62,-0.773 93.37,10.438 112.87,32.899 19.75,21.55 34.86,57.508 45.12,106.265 h 26.38 V 301.223 h -26.38 c -7.15,51.211 -21.55,88.433 -42.83,111.621 -21.45,23.191 -59.87,34.367 -115.16,34.367 V 228.699 c 0,-29.351 9.08,-48.457 27.67,-56.265 18.85,-7.7 47.24,-10.801 85.72,-10.254 V 138.496 H 942.91 v 23.684"/>
      <path id="path106" style="fill:#15356f;fill-opacity:1;fill-rule:nonzero;stroke:none" d="m 1529.62,162.18 c 29.59,0.535 50.35,3.281 63.46,9.453 20.67,9.453 31.27,28.797 31.27,57.066 V 683.48 c 0,27.645 -10.11,46.504 -29.91,55.844 -12.08,5.985 -33.82,9.637 -64.82,10.688 v 23.851 h 361.68 v -23.851 c -32.2,-1.051 -54.48,-4.578 -66.5,-10.321 -20.13,-9.281 -30.38,-28.082 -30.38,-56.211 V 228.699 c 0,-26.922 8.01,-44.246 24.54,-52.906 16.1,-8.723 40.14,-13.613 72.34,-13.613 v -23.684 h -361.68 v 23.684"/>
      <path id="path108" style="fill:#15356f;fill-opacity:1;fill-rule:nonzero;stroke:none" d="m 1867.85,162.18 c 37.67,0.293 62.17,6.715 73.24,18.355 11.22,12.942 17.14,31.274 17.24,56.777 V 683.48 c 0,25.508 -6.68,42.536 -19.41,50.411 -13.08,8.3 -35.46,13.437 -68.53,16.121 v 23.851 h 248.98 L 2313.38,338.57 h 8.57 l 193.24,435.293 h 248.9 v -23.851 c -33.59,-2.684 -56.43,-8.367 -68.61,-18.078 -12.09,-9.036 -18.4,-31.914 -18.4,-68.235 V 247.805 c 0,-34.067 6.31,-56.703 18.4,-67.993 12.18,-10.386 35.02,-16.597 68.61,-17.632 v -23.684 h -328.28 v 23.684 c 29.53,0.781 51.64,5.797 66.56,13.972 14.32,8.418 21.77,26.614 21.77,55.34 v 459.801 h -7.3 L 2274.79,138.496 h -26.58 l -244.08,541.625 h -4.31 V 254.465 c 0,-31.137 5.81,-54.035 17.94,-68.547 12.62,-14.402 39.55,-22.344 81.41,-23.738 v -23.684 h -231.32 v 23.684"/>
      <path id="path110" style="fill:#15356f;fill-opacity:1;fill-rule:evenodd;stroke:none" d="m 2997.57,188.43 c 7.69,-12.7 22.04,-19.535 43.89,-19.535 44.63,0 75.66,11.527 93.02,36.425 18.32,24.114 27.16,58.164 27.16,102.961 0,67.094 -19.66,110.727 -59.01,132.828 -23.82,13.789 -61.42,20.203 -112.4,19.465 V 225.051 c 0.19,-16.426 2.39,-28.949 7.34,-36.621 z m 109.5,328.675 c 19.88,19.399 29.93,52.715 29.93,101.008 0,36.004 -6.71,66.219 -19.57,90.449 -12.87,24.719 -38,36.926 -75.08,36.926 -19.59,0 -33.03,-3.343 -40.66,-10.121 -7.64,-6.301 -11.46,-18.215 -11.46,-35.347 V 488.277 c 58.12,0 97.03,10.321 116.84,28.828 z M 2757.19,162.297 c 25.56,0.801 43.5,4.707 54.56,9.82 18.75,10.449 28.35,28.637 28.35,56.653 v 454.898 c 0,27.406 -9.07,46.074 -26.25,55.359 -10.54,5.985 -29.44,9.696 -56.66,11.035 v 23.801 H 3048 c 55.83,0 102.72,-6.086 139.51,-19.281 69.64,-24.039 104.52,-68.398 104.52,-132.078 0,-38.82 -13.89,-69.707 -42.65,-92.656 -28.03,-22.77 -58.63,-37.231 -91.86,-43.508 v -8.606 c 35,-6.91 65.19,-17.722 91.05,-33.629 50.21,-31.199 75.51,-74.894 75.58,-130.445 0,-52.305 -24.37,-94.961 -72.24,-127.312 -48.34,-31.922 -111.96,-47.852 -191.99,-47.852 h -302.73 v 23.801"/>
      <path id="path112" style="fill:#15356f;fill-opacity:1;fill-rule:evenodd;stroke:none" d="m 3305.45,162.297 c 22.75,1.277 41.16,11.355 54.61,30.816 8.67,12.207 21.76,38.227 38.13,78.672 l 209.2,515.27 h 25.88 l 209.96,-494.313 c 23.56,-55.254 41.27,-91.387 52.95,-107.43 11.63,-15.949 28.04,-23.679 49.58,-23.015 v -23.801 h -304.73 v 23.801 c 30.63,1.031 51.02,3.301 60.41,7.871 9.87,3.484 14.66,14.156 14.66,30.262 0,7.336 -2.64,18.211 -7.4,33.211 -3.18,8.734 -7.24,19.972 -12.26,31.984 l -23.79,57.441 h -211.68 c -13.52,-37.55 -22.22,-61.711 -26.28,-73.488 -8.58,-24.043 -12.72,-41.316 -12.72,-52.984 0,-12.621 9.4,-23.125 27.11,-28.496 10.75,-3.965 26.8,-5.571 48.42,-5.801 v -23.801 h -192.05 z m 352.88,198.187 -90.31,217.282 h -7.75 l -84.96,-217.282 h 183.02 v 0"/>
      <path id="path114" style="fill:#15356f;fill-opacity:1;fill-rule:nonzero;stroke:none" d="m 3894.31,162.297 c 36.78,0.801 60.4,7.437 71.11,20.137 10.7,11.914 15.8,30.828 15.8,54.941 v 445.5 c -30.26,31.91 -48.96,50.836 -56.08,56.152 -6.69,5.985 -16.54,9.696 -28.66,11.035 v 23.801 h 209.02 l 339.72,-396.289 h 4.64 v 279.66 c 0,31.926 -5.78,54.621 -18.38,68.176 -12.21,13.617 -36.44,21.856 -73.21,24.652 v 23.801 h 212.87 v -23.801 c -30.81,-4.824 -51.82,-11.46 -62.57,-19.652 -9.94,-8.125 -15.38,-26.855 -15.38,-55.652 V 121.277 h -27.42 L 4031.43,623.73 h -6.94 V 254.543 c 0,-29.008 4.21,-48.734 12.95,-61.113 12.95,-18.75 39.9,-29.856 80.94,-31.133 v -23.801 h -224.07 v 23.801"/>
      <path id="path116" style="fill:#15356f;fill-opacity:1;fill-rule:nonzero;stroke:none" d="m 4562.05,162.297 c 26.72,0.801 45.71,4.707 57,9.82 18.98,10.449 28.74,28.637 28.74,56.653 v 454.898 c 0,27.094 -9.02,45.644 -26.17,54.934 -10.7,6.105 -30.34,9.816 -59.57,11.46 v 23.801 h 333.74 v -23.801 c -34.2,-2.796 -57.15,-8.656 -69.01,-18.437 -11.82,-9.262 -17.47,-31.902 -17.47,-67.863 V 462.59 l 212.4,205.144 c 14.9,13.797 24.16,23.805 28.73,29.473 4.45,6.176 6.42,13.555 6.47,22.211 0,11.734 -5.61,19.43 -17.13,22.84 -11.34,3.472 -33.45,6.16 -65.97,7.804 v 23.801 h 285.72 v -23.801 c -50.96,-3.968 -93.35,-17.882 -127.29,-41.5 -33.51,-23.367 -96.74,-80.617 -190.57,-171.761 l 301.56,-355.715 c 6.1,-7.617 12.58,-11.945 18.9,-13.859 6.02,-2.493 16.13,-3.899 29.05,-4.93 v -23.801 h -331.13 v 23.801 c 30.03,0.23 50.25,1.277 61.28,3.164 11.02,2.867 16.24,7.574 16.24,16.973 0,3.484 -1.51,8.914 -5.13,14.16 -3.55,6.66 -10,15.215 -18.86,26.441 l -179.51,213.738 -24.76,-23.867 V 228.77 c 0,-27.586 9.27,-45.911 28.29,-56.219 10.94,-5.188 29.92,-9.223 56.9,-10.254 v -23.801 h -332.45 v 23.801"/>
    </g>
  </g>
</svg>