<svg xmlns="http://www.w3.org/2000/svg" width="58.067" height="65.604" viewBox="0 0 58.067 65.604">
  <g id="Group_23" data-name="Group 23" transform="translate(-122.497 -22.973)">
    <path id="Path_1" data-name="Path 1" d="M242.682,132.244a13.854,13.854,0,1,0-4.057,9.78A13.836,13.836,0,0,0,242.682,132.244Zm-13.838,11.884a11.9,11.9,0,1,1,8.4-3.485,11.887,11.887,0,0,1-8.4,3.485Z" transform="translate(-80.703 -83.254)" fill="#039244"/>
    <path id="Path_2" data-name="Path 2" d="M162.271,88.437h12.958a5.317,5.317,0,0,0,5.335-5.268V74.058a5.3,5.3,0,0,0-4.188-5.171V65.546a7.535,7.535,0,0,0-2.242-5.36,7.613,7.613,0,0,0-1.892-1.369A46.493,46.493,0,0,0,173.724,47.1V31.246a.97.97,0,0,0-.692-.937l-24.618-7.3a.967.967,0,0,0-.553,0l-24.643,7.3a1,1,0,0,0-.721.937V47.1a46.66,46.66,0,0,0,25.182,41.367,1,1,0,0,0,.456.11.971.971,0,0,0,.449-.11,44.167,44.167,0,0,0,8.39-5.578v.279a5.284,5.284,0,0,0,5.3,5.269ZM178.61,74.059v9.111a3.36,3.36,0,0,1-3.38,3.314H162.271a3.328,3.328,0,0,1-3.343-3.314V74.059a3.318,3.318,0,0,1,2.9-3.306,1,1,0,0,0,.3.041c.134,0,.264-.083.38-.083h12.477c.117,0,.244.083.378.083h0a1.132,1.132,0,0,0,.322-.044,3.337,3.337,0,0,1,2.92,3.309Zm-4.187-8.513v3.21H163.116v-3.21a5.636,5.636,0,0,1,5.637-5.623c.089,0,.176,0,.265.007a5.583,5.583,0,0,1,1.722.355,5.641,5.641,0,0,1,3.681,5.261ZM148.138,86.5a44.684,44.684,0,0,1-23.685-39.4V31.975l23.659-7.006,23.659,7.006V47.1a44.567,44.567,0,0,1-1.38,11.047l-.081-.016c-.089-.019-.176-.036-.267-.052l-.134-.021c-.083-.013-.166-.024-.249-.034l-.138-.015c-.088-.009-.175-.015-.264-.021l-.121-.008c-.128-.007-.254-.01-.383-.01h0a7.592,7.592,0,0,0-7.591,7.577v3.341a.319.319,0,0,1-.064.014l-.1.023-.14.036-.1.027-.141.044-.091.029-.15.055-.076.028q-.105.042-.209.088l-.011,0c-.072.033-.144.067-.214.1l-.069.036c-.047.025-.095.05-.141.076l-.079.046c-.042.024-.084.049-.125.075s-.054.035-.082.052l-.117.078-.08.056c-.038.027-.076.055-.113.084l-.076.059c-.038.03-.075.061-.112.092l-.07.059c-.04.034-.079.07-.118.106l-.057.052q-.084.078-.163.161l0,0q-.081.084-.16.173l-.049.057c-.035.04-.07.081-.1.123l-.056.072-.088.115c-.019.026-.038.052-.056.078s-.054.077-.08.116l-.053.082c-.025.039-.05.08-.074.12l-.049.084c-.025.042-.048.084-.071.127l-.044.081c-.024.047-.048.1-.071.143l-.034.07c-.033.071-.064.142-.094.215l0,0c-.03.074-.059.148-.085.223-.009.024-.016.049-.025.074-.017.051-.035.1-.051.155-.009.03-.017.06-.026.09q-.021.071-.039.144c-.009.032-.016.065-.023.1s-.022.094-.032.142-.014.067-.019.1-.017.1-.025.144c-.005.033-.01.067-.015.1-.007.05-.013.1-.018.151,0,.032-.008.064-.01.1-.005.056-.009.112-.013.168,0,.028-.008.056-.009.083,0,.084-.01.168-.01.254V80.3h0a43.7,43.7,0,0,1-8.839,6.192Z" fill="#039244"/>
    <path id="Path_3" data-name="Path 3" d="M467.946,445.559a2.461,2.461,0,0,0-1.028,4.707v2.03a.977.977,0,1,0,1.954,0v-2.03a2.324,2.324,0,0,0,1.507-2.251,2.439,2.439,0,0,0-2.434-2.456Zm-.5,2.355a.506.506,0,0,1,.5-.4.534.534,0,0,1,0,1.065h-.005a.533.533,0,0,1-.492-.431.682.682,0,0,1,0-.233Z" transform="translate(-299.196 -368.656)" fill="#039244"/>
    <path id="Path_4" data-name="Path 4" d="M265.274,164.513a6.539,6.539,0,0,1,3.943,1.326.973.973,0,0,0,1.173-1.553A8.508,8.508,0,0,0,257.1,168.61h-.872a.977.977,0,1,0,0,1.954h.527c-.01.279-.015.391-.015.558s.006.279.015.558h-.527a.977.977,0,0,0,0,1.954h.872a8.524,8.524,0,0,0,13.288,4.335.982.982,0,0,0-1.173-1.575,6.55,6.55,0,0,1-3.943,1.34,6.631,6.631,0,0,1-6.1-4.1H266.3a.977.977,0,0,0,0-1.954h-7.59c-.012-.279-.021-.391-.021-.558s.008-.279.021-.558h9.117a.977.977,0,1,0,0-1.954H259.17a6.629,6.629,0,0,1,6.1-4.1Z" transform="translate(-115.812 -121.769)" fill="#039244"/>
  </g>
</svg>
