<svg xmlns="http://www.w3.org/2000/svg" width="85.265" height="65.604" viewBox="0 0 85.265 65.604">
  <g id="Group_26" data-name="Group 26" transform="translate(-101.359 -88.344)">
    <path id="Path_8" data-name="Path 8" d="M158.875,118.325a.961.961,0,0,0-.961.961,14.355,14.355,0,1,0,28.71,0,.96.96,0,0,0-.96-.961h-.1L173.853,96.817h9.89a.96.96,0,1,0,0-1.921H151.289a7.394,7.394,0,0,0-14.691,0H104.24a.96.96,0,0,0,0,1.921h9.89l-11.714,21.508h-.1a.961.961,0,0,0-.961.961,14.355,14.355,0,1,0,28.71,0,.96.96,0,0,0-.96-.961h-.1L117.3,96.817h19.4a7.392,7.392,0,0,0,6.337,6.337V140.7a12.29,12.29,0,0,0-11.33,12.29.961.961,0,0,0,.961.961h22.661a.961.961,0,0,0,.96-.961,12.29,12.29,0,0,0-11.33-12.29V103.154a7.392,7.392,0,0,0,6.337-6.337h19.4l-11.714,21.508Zm13.442,13.347a12.482,12.482,0,0,1-12.386-11.426H184.7a12.483,12.483,0,0,1-12.387,11.426Zm-56.555,0a12.483,12.483,0,0,1-12.483-11.426h24.773a12.482,12.482,0,0,1-12.386,11.426Zm-11.138-13.347,11.043-20.452L126.8,118.325Zm49.738,33.7h-20.74a10.37,10.37,0,0,1,20.644,0Zm-10.37-50.7a5.474,5.474,0,1,1,3.87-1.6,5.47,5.47,0,0,1-3.87,1.6Zm28.326-3.457,11.043,20.452h-22.18Z" fill="#039244"/>
  </g>
</svg>
