<?xml version="1.0" encoding="utf-8"?>
<!-- Generator: Adobe Illustrator 21.0.2, SVG Export Plug-In . SVG Version: 6.00 Build 0)  -->
<svg version="1.1" id="Ebene_1" xmlns="http://www.w3.org/2000/svg" xmlns:xlink="http://www.w3.org/1999/xlink" x="0px" y="0px"
	 viewBox="0 0 581.3 116.4" style="enable-background:new 0 0 581.3 116.4;" xml:space="preserve">
<style type="text/css">
	.st0{clip-path:url(#SVGID_2_);fill:#003063;}
	.st1{clip-path:url(#SVGID_4_);fill:#003063;}
	.st2{clip-path:url(#SVGID_6_);fill:#003063;}
	.st3{clip-path:url(#SVGID_8_);fill:#003063;}
	.st4{clip-path:url(#SVGID_10_);fill:#003063;}
	.st5{clip-path:url(#SVGID_12_);fill:#003063;}
	.st6{clip-path:url(#SVGID_14_);fill:#003063;}
	.st7{clip-path:url(#SVGID_16_);fill:#003063;}
	.st8{clip-path:url(#SVGID_18_);fill:#003063;}
	.st9{clip-path:url(#SVGID_20_);fill:#003063;}
	.st10{clip-path:url(#SVGID_22_);fill:#003063;}
	.st11{clip-path:url(#SVGID_24_);fill:#003063;}
	.st12{clip-path:url(#SVGID_26_);fill:#003063;}
	.st13{clip-path:url(#SVGID_28_);fill:#003063;}
	.st14{clip-path:url(#SVGID_30_);fill:#003063;}
	.st15{clip-path:url(#SVGID_32_);fill:#003063;}
	.st16{clip-path:url(#SVGID_34_);fill:#003063;}
	.st17{clip-path:url(#SVGID_36_);fill:#003063;}
	.st18{clip-path:url(#SVGID_38_);fill:#FFD100;}
	.st19{clip-path:url(#SVGID_40_);fill:#FFD100;}
	.st20{clip-path:url(#SVGID_42_);fill:#FFD100;}
	.st21{clip-path:url(#SVGID_44_);fill:#FFD100;}
	.st22{clip-path:url(#SVGID_46_);fill:#FFD100;}
	.st23{clip-path:url(#SVGID_48_);fill:#FFD100;}
	.st24{clip-path:url(#SVGID_50_);fill:#FFD100;}
	.st25{clip-path:url(#SVGID_52_);fill:#FFD100;}
	.st26{clip-path:url(#SVGID_54_);fill:#FFD100;}
	.st27{clip-path:url(#SVGID_56_);fill:#FFD100;}
	.st28{clip-path:url(#SVGID_58_);fill:#FFD100;}
	.st29{clip-path:url(#SVGID_60_);fill:#FFD100;}
	.st30{clip-path:url(#SVGID_62_);fill:#FFD100;}
	.st31{clip-path:url(#SVGID_64_);fill:#FFD100;}
	.st32{clip-path:url(#SVGID_66_);fill:#FFD100;}
	.st33{clip-path:url(#SVGID_68_);fill:#FFD100;}
	.st34{clip-path:url(#SVGID_70_);fill:#FFD100;}
	.st35{clip-path:url(#SVGID_72_);fill:#FFD100;}
	.st36{clip-path:url(#SVGID_74_);fill:#FFD100;}
	.st37{clip-path:url(#SVGID_76_);fill:#FFD100;}
	.st38{clip-path:url(#SVGID_78_);fill:#FFD100;}
	.st39{clip-path:url(#SVGID_80_);fill:#FFD100;}
	.st40{clip-path:url(#SVGID_82_);fill:#FFD100;}
	.st41{clip-path:url(#SVGID_84_);fill:#FFD100;}
	.st42{fill:#FFD100;}
	.st43{clip-path:url(#SVGID_86_);fill:#FFD100;}
	.st44{clip-path:url(#SVGID_88_);fill:#FFD100;}
	.st45{clip-path:url(#SVGID_90_);fill:#FFD100;}
	.st46{clip-path:url(#SVGID_92_);fill:#FFD100;}
	.st47{clip-path:url(#SVGID_94_);fill:#FFD100;}
	.st48{clip-path:url(#SVGID_96_);fill:#FFD100;}
	.st49{clip-path:url(#SVGID_98_);fill:#FFD100;}
	.st50{clip-path:url(#SVGID_100_);fill:#FFD100;}
	.st51{clip-path:url(#SVGID_102_);fill:#FFD100;}
	.st52{clip-path:url(#SVGID_104_);fill:#FFD100;}
	.st53{clip-path:url(#SVGID_106_);fill:#FFD100;}
	.st54{clip-path:url(#SVGID_108_);fill:#FFD100;}
	.st55{clip-path:url(#SVGID_110_);fill:#FFD100;}
	.st56{clip-path:url(#SVGID_112_);fill:#FFD100;}
	.st57{clip-path:url(#SVGID_114_);fill:#FFD100;}
	.st58{clip-path:url(#SVGID_116_);fill:#FFD100;}
	.st59{clip-path:url(#SVGID_118_);fill:#FFD100;}
	.st60{clip-path:url(#SVGID_120_);fill:#FFD100;}
	.st61{clip-path:url(#SVGID_122_);fill:#FFD100;}
	.st62{clip-path:url(#SVGID_124_);fill:#FFD100;}
	.st63{clip-path:url(#SVGID_126_);fill:#FFD100;}
	.st64{clip-path:url(#SVGID_128_);fill:#FFD100;}
	.st65{clip-path:url(#SVGID_130_);fill:#FFD100;}
	.st66{clip-path:url(#SVGID_132_);fill:#FFD100;}
	.st67{clip-path:url(#SVGID_134_);fill:#FFD100;}
	.st68{clip-path:url(#SVGID_136_);fill:#FFD100;}
	.st69{clip-path:url(#SVGID_138_);fill:#FFD100;}
	.st70{clip-path:url(#SVGID_140_);fill:#FFD100;}
	.st71{clip-path:url(#SVGID_142_);fill:#FFD100;}
	.st72{clip-path:url(#SVGID_144_);fill:#FFD100;}
	.st73{clip-path:url(#SVGID_146_);fill:#FFD100;}
	.st74{clip-path:url(#SVGID_148_);fill:#FFD100;}
	.st75{clip-path:url(#SVGID_150_);fill:#FFD100;}
	.st76{clip-path:url(#SVGID_152_);fill:#FFD100;}
	.st77{clip-path:url(#SVGID_154_);fill:#FFD100;}
	.st78{clip-path:url(#SVGID_156_);fill:#FFD100;}
	.st79{clip-path:url(#SVGID_158_);fill:#FFD100;}
	.st80{clip-path:url(#SVGID_160_);fill:#FFD100;}
	.st81{clip-path:url(#SVGID_162_);fill:#FFD100;}
	.st82{clip-path:url(#SVGID_164_);fill:#FFD100;}
	.st83{clip-path:url(#SVGID_166_);fill:#FFD100;}
	.st84{clip-path:url(#SVGID_168_);fill:#FFD100;}
	.st85{clip-path:url(#SVGID_170_);fill:#FFD100;}
	.st86{clip-path:url(#SVGID_172_);fill:#FFD100;}
	.st87{clip-path:url(#SVGID_174_);fill:#003063;}
	.st88{clip-path:url(#SVGID_176_);fill:#003063;}
	.st89{clip-path:url(#SVGID_178_);fill:#003063;}
	.st90{clip-path:url(#SVGID_180_);fill:#003063;}
</style>
<g>
	<g>
		<defs>
			<rect id="SVGID_1_" x="-8.7" y="-123" width="595.3" height="340.2"/>
		</defs>
		<clipPath id="SVGID_2_">
			<use xlink:href="#SVGID_1_"  style="overflow:visible;"/>
		</clipPath>
		<path class="st0" d="M562.1,28.2c0.8-0.9,1.7-1.8,2.7-2.8s1.9-2,2.8-3c0.9-1,1.8-2,2.6-2.9s1.5-1.7,2.1-2.4h7.9
			c-1.8,2.1-3.8,4.2-5.8,6.4s-4.1,4.3-6.1,6.4c1.1,0.9,2.3,2,3.5,3.3c1.2,1.3,2.4,2.7,3.5,4.2s2.2,2.9,3.2,4.4s1.8,2.8,2.5,4.1h-7.7
			c-0.7-1.1-1.4-2.3-2.3-3.6c-0.9-1.2-1.8-2.5-2.8-3.6c-1-1.2-2-2.3-3-3.3s-2-1.9-3-2.7v13.2h-6.7V4.3l6.7-1.1v25H562.1z"/>
	</g>
	<g>
		<defs>
			<rect id="SVGID_3_" x="-8.7" y="-123" width="595.3" height="340.2"/>
		</defs>
		<clipPath id="SVGID_4_">
			<use xlink:href="#SVGID_3_"  style="overflow:visible;"/>
		</clipPath>
		<path class="st1" d="M328.7,34.5c-1.3-3.5-2.6-6.7-3.8-9.8c-1.2-3.1-2.5-6-3.7-8.8s-2.5-5.6-3.8-8.3h-6.6
			c-1.3,2.7-2.5,5.5-3.7,8.3s-2.4,5.7-3.7,8.8c-1.2,3.1-2.5,6.4-3.8,9.8c-1.3,3.5-2.6,7.2-4.1,11.3h7.2c0.5-1.5,1-3,1.6-4.4
			c0.5-1.5,1.1-3,1.6-4.6h10.6h1l-1.2-5.6h-8.6c1.2-3.3,2.3-6.3,3.4-9.1s2.1-5.2,2.9-7.1c0.8,1.9,1.8,4.2,2.9,7.1
			c0.8,2.1,1.7,4.3,2.5,6.6l0,0c0.3,0.8,0.6,1.6,0.9,2.5l2.4,7.5c0.3,0.9,0.6,1.8,1,2.7c0.6,1.5,1.1,3,1.6,4.5h7.5
			C331.4,41.7,330,37.9,328.7,34.5"/>
	</g>
	<g>
		<defs>
			<rect id="SVGID_5_" x="-8.7" y="-123" width="595.3" height="340.2"/>
		</defs>
		<clipPath id="SVGID_6_">
			<use xlink:href="#SVGID_5_"  style="overflow:visible;"/>
		</clipPath>
		<path class="st2" d="M97.4,34.5c-1.3-3.5-2.6-6.7-3.8-9.8c-1.2-3.1-2.5-6-3.7-8.8s-2.5-5.6-3.8-8.3h-6.6c-1.3,2.7-2.5,5.5-3.7,8.3
			s-2.4,5.7-3.7,8.8c-1.2,3.1-2.5,6.4-3.8,9.8c-1.3,3.5-2.6,7.2-4.1,11.3h7.2c0.5-1.5,1-3,1.6-4.4c0.5-1.5,1.1-3,1.6-4.6h10.6h1
			L85,31.2h-8.6c1.2-3.3,2.3-6.3,3.4-9.1s2.1-5.2,2.9-7.1c0.8,1.9,1.8,4.2,2.9,7.1c0.8,2.1,1.7,4.3,2.5,6.6l0,0
			c0.3,0.8,0.6,1.6,0.9,2.5l2.4,7.5c0.3,0.9,0.6,1.8,1,2.7c0.6,1.5,1.1,3,1.6,4.5h7.5C100,41.7,98.7,37.9,97.4,34.5"/>
	</g>
	<g>
		<defs>
			<rect id="SVGID_7_" x="-8.7" y="-123" width="595.3" height="340.2"/>
		</defs>
		<clipPath id="SVGID_8_">
			<use xlink:href="#SVGID_7_"  style="overflow:visible;"/>
		</clipPath>
		<path class="st3" d="M337.2,17.9c1.3-0.4,3-0.7,5-1c2.1-0.3,4.3-0.5,6.8-0.5c2.3,0,4.3,0.3,5.9,1c1.6,0.6,2.8,1.5,3.8,2.7
			c0.9,1.2,1.6,2.5,2,4.2c0.4,1.6,0.6,3.4,0.6,5.4v16.2h-6.7V30.8c0-1.5-0.1-2.9-0.3-3.9c-0.2-1.1-0.5-2-1-2.6
			c-0.5-0.7-1.1-1.2-1.9-1.5s-1.8-0.5-2.9-0.5c-0.8,0-1.7,0.1-2.6,0.2c-0.9,0.1-1.6,0.2-2,0.3V46h-6.7L337.2,17.9L337.2,17.9z"/>
	</g>
	<g>
		<defs>
			<rect id="SVGID_9_" x="-8.7" y="-123" width="595.3" height="340.2"/>
		</defs>
		<clipPath id="SVGID_10_">
			<use xlink:href="#SVGID_9_"  style="overflow:visible;"/>
		</clipPath>
		<path class="st4" d="M379.5,41.1c2.1,0,3.6-0.1,4.7-0.3v-7.4c-0.4-0.1-0.9-0.2-1.6-0.3s-1.5-0.2-2.3-0.2c-0.7,0-1.5,0.1-2.2,0.2
			c-0.8,0.1-1.4,0.3-2,0.6s-1.1,0.7-1.5,1.2s-0.6,1.2-0.6,2c0,1.6,0.5,2.7,1.5,3.3C376.5,40.8,377.8,41.1,379.5,41.1 M379,16.3
			c2.2,0,4.1,0.3,5.6,0.8c1.5,0.6,2.7,1.3,3.6,2.3s1.5,2.2,1.9,3.6c0.4,1.4,0.6,3,0.6,4.7v17.5c-1,0.2-2.6,0.5-4.7,0.8
			s-4.4,0.5-7,0.5c-1.7,0-3.3-0.2-4.7-0.5c-1.4-0.3-2.7-0.9-3.7-1.6c-1-0.7-1.8-1.7-2.4-2.9s-0.9-2.6-0.9-4.3s0.3-3,1-4.2
			c0.6-1.1,1.5-2.1,2.6-2.8s2.4-1.2,3.8-1.5c1.5-0.3,3-0.5,4.5-0.5c0.7,0,1.5,0,2.3,0.1s1.7,0.3,2.6,0.5v-1.1c0-0.8-0.1-1.5-0.3-2.2
			c-0.2-0.7-0.5-1.3-1-1.8s-1.1-0.9-1.8-1.2c-0.8-0.3-1.7-0.4-2.8-0.4c-1.5,0-3,0.1-4.2,0.3c-1.3,0.2-2.3,0.5-3.1,0.8l-0.8-5.4
			c0.8-0.3,2.1-0.6,3.7-0.9C375.4,16.4,377.1,16.3,379,16.3"/>
	</g>
	<g>
		<defs>
			<rect id="SVGID_11_" x="-8.7" y="-123" width="595.3" height="340.2"/>
		</defs>
		<clipPath id="SVGID_12_">
			<use xlink:href="#SVGID_11_"  style="overflow:visible;"/>
		</clipPath>
		<path class="st5" d="M404,31.3c0,2.9,0.7,5.2,2.1,6.9s3.3,2.5,5.8,2.5c1.1,0,2,0,2.7-0.1c0.8-0.1,1.4-0.2,1.8-0.3V23.8
			c-0.6-0.4-1.4-0.8-2.3-1.1c-1-0.3-2-0.5-3.1-0.5c-2.4,0-4.2,0.8-5.3,2.5C404.6,26.3,404,28.5,404,31.3 M423.1,44.9
			c-1.3,0.4-3,0.8-5,1.1s-4.1,0.5-6.3,0.5c-2.3,0-4.3-0.4-6.1-1c-1.8-0.7-3.3-1.7-4.6-3c-1.3-1.3-2.2-2.9-2.9-4.7
			c-0.7-1.9-1-3.9-1-6.2s0.3-4.3,0.9-6.2s1.4-3.4,2.5-4.8c1.1-1.3,2.4-2.3,4-3.1c1.6-0.7,3.4-1.1,5.4-1.1c1.4,0,2.6,0.2,3.7,0.5
			s2,0.7,2.7,1.1V4.2l6.7-1.1L423.1,44.9L423.1,44.9z"/>
	</g>
	<g>
		<defs>
			<rect id="SVGID_13_" x="-8.7" y="-123" width="595.3" height="340.2"/>
		</defs>
		<clipPath id="SVGID_14_">
			<use xlink:href="#SVGID_13_"  style="overflow:visible;"/>
		</clipPath>
		<path class="st6" d="M438.3,45.8h-6.7V17h6.7V45.8z M439,8.6c0,1.2-0.4,2.2-1.2,3c-0.8,0.7-1.8,1.1-2.9,1.1s-2.1-0.4-2.9-1.1
			c-0.8-0.7-1.2-1.7-1.2-3s0.4-2.3,1.2-3c0.8-0.7,1.8-1.1,2.9-1.1s2.1,0.4,2.9,1.1S439,7.3,439,8.6"/>
	</g>
	<g>
		<defs>
			<rect id="SVGID_15_" x="-8.7" y="-123" width="595.3" height="340.2"/>
		</defs>
		<clipPath id="SVGID_16_">
			<use xlink:href="#SVGID_15_"  style="overflow:visible;"/>
		</clipPath>
		<path class="st7" d="M464.8,28.6v11.6c0.8,0.1,1.6,0.1,2.5,0.2c0.9,0,1.7,0.1,2.4,0.1c1.4,0,2.8-0.1,4-0.3s2.3-0.5,3.2-1
			c0.9-0.5,1.6-1.1,2.1-1.8c0.5-0.8,0.8-1.8,0.8-3c0-2.2-0.8-3.7-2.4-4.5s-3.8-1.3-6.6-1.3H464.8z M464.8,23.2h4.9
			c2.6,0,4.7-0.4,6.2-1.1c1.5-0.8,2.3-2.1,2.3-4.1c0-1.8-0.8-3.1-2.3-3.9c-1.6-0.8-3.6-1.2-6.1-1.2c-1.1,0-2,0-2.8,0.1
			c-0.8,0-1.5,0.1-2.1,0.2v10H464.8z M469.5,46.2c-2,0-4.1-0.1-6.1-0.2c-2.1-0.1-3.9-0.4-5.4-0.8V8.1c0.8-0.1,1.7-0.3,2.6-0.4
			c0.9-0.1,1.9-0.2,2.8-0.3c1-0.1,1.9-0.1,2.8-0.2c0.9,0,1.8-0.1,2.7-0.1c2.3,0,4.5,0.2,6.4,0.5c2,0.3,3.7,0.9,5.1,1.7
			c1.5,0.8,2.6,1.9,3.4,3.2s1.2,3,1.2,4.9c0,1.8-0.4,3.3-1.3,4.6s-2.1,2.3-3.6,3.1c2.3,0.8,4,1.9,5.1,3.4s1.6,3.4,1.6,5.7
			c0,3.9-1.4,6.9-4.3,8.8C479.8,45.3,475.4,46.2,469.5,46.2"/>
	</g>
	<g>
		<defs>
			<rect id="SVGID_17_" x="-8.7" y="-123" width="595.3" height="340.2"/>
		</defs>
		<clipPath id="SVGID_18_">
			<use xlink:href="#SVGID_17_"  style="overflow:visible;"/>
		</clipPath>
		<path class="st8" d="M503.9,41.1c2.1,0,3.6-0.1,4.7-0.3v-7.4c-0.4-0.1-0.9-0.2-1.6-0.3c-0.7-0.1-1.5-0.2-2.3-0.2
			c-0.7,0-1.5,0.1-2.2,0.2c-0.8,0.1-1.4,0.3-2,0.6s-1.1,0.7-1.5,1.2s-0.6,1.2-0.6,2c0,1.6,0.5,2.7,1.5,3.3
			C500.9,40.8,502.3,41.1,503.9,41.1 M503.4,16.3c2.2,0,4.1,0.3,5.6,0.8c1.5,0.6,2.7,1.3,3.6,2.3c0.9,1,1.5,2.2,1.9,3.6
			c0.4,1.4,0.6,3,0.6,4.7v17.5c-1,0.2-2.6,0.5-4.7,0.8c-2.1,0.3-4.4,0.5-7,0.5c-1.7,0-3.3-0.2-4.7-0.5c-1.4-0.3-2.7-0.9-3.7-1.6
			c-1-0.7-1.8-1.7-2.4-2.9s-0.9-2.6-0.9-4.3s0.3-3,1-4.2c0.6-1.1,1.5-2.1,2.6-2.8s2.4-1.2,3.8-1.5c1.5-0.3,3-0.5,4.5-0.5
			c0.7,0,1.5,0,2.3,0.1s1.7,0.3,2.6,0.5v-1.1c0-0.8-0.1-1.5-0.3-2.2s-0.5-1.3-1-1.8s-1.1-0.9-1.8-1.2c-0.8-0.3-1.7-0.4-2.8-0.4
			c-1.5,0-3,0.1-4.2,0.3c-1.3,0.2-2.3,0.5-3.1,0.8l-0.8-5.4c0.8-0.3,2.1-0.6,3.7-0.9C499.8,16.4,501.6,16.3,503.4,16.3"/>
	</g>
	<g>
		<defs>
			<rect id="SVGID_19_" x="-8.7" y="-123" width="595.3" height="340.2"/>
		</defs>
		<clipPath id="SVGID_20_">
			<use xlink:href="#SVGID_19_"  style="overflow:visible;"/>
		</clipPath>
		<path class="st9" d="M523.2,17.9c1.3-0.4,3-0.7,5-1c2.1-0.3,4.3-0.5,6.8-0.5c2.3,0,4.3,0.3,5.9,1c1.6,0.6,2.8,1.5,3.8,2.7
			c0.9,1.2,1.6,2.5,2,4.2c0.4,1.6,0.6,3.4,0.6,5.4v16.2h-6.7V30.8c0-1.5-0.1-2.9-0.3-3.9c-0.2-1.1-0.5-2-1-2.6
			c-0.5-0.7-1.1-1.2-1.9-1.5c-0.8-0.3-1.8-0.5-2.9-0.5c-0.8,0-1.7,0.1-2.6,0.2c-0.9,0.1-1.6,0.2-2,0.3V46h-6.7L523.2,17.9
			L523.2,17.9z"/>
	</g>
	<g>
		<defs>
			<rect id="SVGID_21_" x="-8.7" y="-123" width="595.3" height="340.2"/>
		</defs>
		<clipPath id="SVGID_22_">
			<use xlink:href="#SVGID_21_"  style="overflow:visible;"/>
		</clipPath>
		<path class="st10" d="M128.8,44.9c-1.3,0.3-3,0.7-5,1c-2.1,0.3-4.3,0.5-6.8,0.5c-2.3,0-4.2-0.3-5.8-1c-1.6-0.7-2.8-1.6-3.7-2.8
			c-0.9-1.2-1.6-2.6-2-4.2c-0.4-1.6-0.6-3.4-0.6-5.4V17h6.7v15.1c0,3.1,0.4,5.3,1.3,6.6s2.5,2,4.7,2c0.8,0,1.7,0,2.6-0.1
			c0.9-0.1,1.6-0.2,2-0.3V17h6.7L128.8,44.9L128.8,44.9z"/>
	</g>
	<g>
		<defs>
			<rect id="SVGID_23_" x="-8.7" y="-123" width="595.3" height="340.2"/>
		</defs>
		<clipPath id="SVGID_24_">
			<use xlink:href="#SVGID_23_"  style="overflow:visible;"/>
		</clipPath>
		<path class="st11" d="M144.5,41c1.8,0,3-0.2,3.9-0.6c0.8-0.4,1.2-1.1,1.2-2.2c0-1-0.4-1.7-1.3-2.4c-0.9-0.6-2.3-1.3-4.3-2
			c-1.2-0.4-2.3-0.9-3.3-1.4c-1-0.5-1.9-1.1-2.6-1.7c-0.7-0.7-1.3-1.5-1.7-2.4s-0.6-2.1-0.6-3.4c0-2.6,1-4.7,2.9-6.3
			c1.9-1.5,4.6-2.3,7.9-2.3c1.7,0,3.3,0.2,4.8,0.5s2.7,0.6,3.5,0.9l-1.2,5.4c-0.7-0.3-1.7-0.6-2.8-0.9c-1.1-0.3-2.5-0.4-4-0.4
			c-1.4,0-2.5,0.2-3.3,0.7s-1.3,1.2-1.3,2.1c0,0.5,0.1,0.9,0.2,1.3c0.2,0.4,0.4,0.7,0.9,1c0.4,0.3,0.9,0.6,1.6,0.9
			c0.7,0.3,1.5,0.6,2.4,1c1.6,0.6,2.9,1.2,4,1.7c1.1,0.6,2,1.2,2.7,1.9c0.7,0.7,1.2,1.5,1.6,2.5c0.3,0.9,0.5,2,0.5,3.3
			c0,2.8-1,4.8-3.1,6.2c-2,1.4-4.9,2.1-8.7,2.1c-2.5,0-4.6-0.2-6.1-0.6c-1.5-0.4-2.6-0.8-3.2-1l1.2-5.6c1,0.4,2.2,0.8,3.6,1.2
			C141.2,40.8,142.7,41,144.5,41"/>
	</g>
	<g>
		<defs>
			<rect id="SVGID_25_" x="-8.7" y="-123" width="595.3" height="340.2"/>
		</defs>
		<clipPath id="SVGID_26_">
			<use xlink:href="#SVGID_25_"  style="overflow:visible;"/>
		</clipPath>
		<path class="st12" d="M162.1,9.4l6.7-1.1V17H179v5.6h-10.2v11.7c0,2.3,0.4,4,1.1,5c0.7,1,2,1.5,3.7,1.5c1.2,0,2.3-0.1,3.2-0.4
			c0.9-0.3,1.7-0.5,2.2-0.7l1.1,5.3c-0.8,0.3-1.8,0.7-3,1s-2.7,0.5-4.4,0.5c-2.1,0-3.8-0.3-5.1-0.8c-1.4-0.6-2.5-1.3-3.3-2.4
			c-0.8-1-1.4-2.3-1.7-3.8s-0.5-3.2-0.5-5.1V9.4z"/>
	</g>
	<g>
		<defs>
			<rect id="SVGID_27_" x="-8.7" y="-123" width="595.3" height="340.2"/>
		</defs>
		<clipPath id="SVGID_28_">
			<use xlink:href="#SVGID_27_"  style="overflow:visible;"/>
		</clipPath>
		<path class="st13" d="M201.9,23c-0.6-0.2-1.3-0.4-2.3-0.6c-1-0.2-2.1-0.3-3.4-0.3c-0.7,0-1.5,0.1-2.3,0.2
			c-0.8,0.1-1.4,0.3-1.7,0.4v23.1h-6.7V18.4c1.3-0.5,2.9-0.9,4.8-1.3c1.9-0.4,4.1-0.6,6.4-0.6c0.4,0,1,0,1.5,0.1
			c0.6,0.1,1.2,0.1,1.8,0.2c0.6,0.1,1.2,0.2,1.7,0.3s1,0.2,1.3,0.4L201.9,23z"/>
	</g>
	<g>
		<defs>
			<rect id="SVGID_29_" x="-8.7" y="-123" width="595.3" height="340.2"/>
		</defs>
		<clipPath id="SVGID_30_">
			<use xlink:href="#SVGID_29_"  style="overflow:visible;"/>
		</clipPath>
		<path class="st14" d="M214.4,45.8h-6.7V17h6.7V45.8z M215.1,8.6c0,1.2-0.4,2.2-1.2,3c-0.8,0.7-1.8,1.1-2.9,1.1
			c-1.1,0-2.1-0.4-2.9-1.1c-0.8-0.7-1.2-1.7-1.2-3s0.4-2.3,1.2-3s1.8-1.1,2.9-1.1c1.1,0,2.1,0.4,2.9,1.1S215.1,7.3,215.1,8.6"/>
	</g>
	<g>
		<defs>
			<rect id="SVGID_31_" x="-8.7" y="-123" width="595.3" height="340.2"/>
		</defs>
		<clipPath id="SVGID_32_">
			<use xlink:href="#SVGID_31_"  style="overflow:visible;"/>
		</clipPath>
		<path class="st15" d="M233,41.1c2.1,0,3.6-0.1,4.7-0.3v-7.4c-0.4-0.1-0.9-0.2-1.6-0.3c-0.7-0.1-1.5-0.2-2.3-0.2
			c-0.7,0-1.5,0.1-2.2,0.2c-0.8,0.1-1.4,0.3-2,0.6s-1.1,0.7-1.5,1.2s-0.5,1.2-0.5,2c0,1.6,0.5,2.7,1.5,3.3
			C229.9,40.8,231.3,41.1,233,41.1 M232.4,16.3c2.2,0,4.1,0.3,5.6,0.8c1.5,0.6,2.7,1.3,3.6,2.3c0.9,1,1.5,2.2,1.9,3.6
			c0.4,1.4,0.6,3,0.6,4.7v17.5c-1,0.2-2.6,0.5-4.7,0.8c-2.1,0.3-4.4,0.5-7,0.5c-1.7,0-3.3-0.2-4.7-0.5s-2.7-0.9-3.7-1.6
			c-1-0.7-1.8-1.7-2.4-2.9c-0.6-1.2-0.9-2.6-0.9-4.3s0.3-3,1-4.2c0.6-1.1,1.5-2.1,2.6-2.8s2.4-1.2,3.8-1.5c1.4-0.3,3-0.5,4.5-0.5
			c0.7,0,1.5,0,2.3,0.1s1.7,0.2,2.6,0.5v-1.1c0-0.8-0.1-1.5-0.3-2.2s-0.5-1.3-1-1.8s-1.1-0.9-1.8-1.2c-0.8-0.3-1.7-0.4-2.8-0.4
			c-1.5,0-3,0.1-4.2,0.3c-1.3,0.2-2.3,0.5-3.1,0.8l-0.8-5.4c0.8-0.3,2.1-0.6,3.7-0.9C228.8,16.4,230.6,16.3,232.4,16.3"/>
	</g>
	<g>
		<defs>
			<rect id="SVGID_33_" x="-8.7" y="-123" width="595.3" height="340.2"/>
		</defs>
		<clipPath id="SVGID_34_">
			<use xlink:href="#SVGID_33_"  style="overflow:visible;"/>
		</clipPath>
		<path class="st16" d="M252.2,17.9c1.3-0.4,3-0.7,5-1c2.1-0.3,4.3-0.5,6.8-0.5c2.4,0,4.3,0.3,5.9,1c1.6,0.6,2.8,1.5,3.8,2.7
			c0.9,1.2,1.6,2.6,2,4.2c0.4,1.6,0.6,3.4,0.6,5.4v16.2h-6.7V30.8c0-1.5-0.1-2.9-0.3-3.9c-0.2-1.1-0.5-2-1-2.6
			c-0.5-0.7-1.1-1.2-1.9-1.5s-1.8-0.5-2.9-0.5c-0.8,0-1.7,0.1-2.6,0.2c-0.9,0.1-1.6,0.2-2,0.3V46h-6.7L252.2,17.9L252.2,17.9z"/>
	</g>
	<g>
		<defs>
			<rect id="SVGID_35_" x="-8.7" y="-123" width="595.3" height="340.2"/>
		</defs>
		<clipPath id="SVGID_36_">
			<use xlink:href="#SVGID_35_"  style="overflow:visible;"/>
		</clipPath>
		<path class="st17" d="M578.8,113c-0.9,0-1.8,0.7-1.9,1.6c-0.1,0.9,0.5,1.6,1.4,1.6s1.8-0.7,1.9-1.6
			C580.3,113.7,579.7,113,578.8,113 M568.9,109.2c0.3-1.8,1.2-5,3.6-5c2.5,0,2.4,3,2.1,4.9c-0.3,1.7-0.9,5.2-3.5,5.2
			C568.5,114.3,568.6,111,568.9,109.2 M577.4,91.7H575l-4.8,8.4c-1.7,3-3,5.9-3.5,9.1c-0.5,3.4,0,7.1,4.1,7.1c4,0,5.4-3.7,5.9-6.9
			c0.4-2.7,0.3-7.2-3.2-7.2c-1,0-1.8,0.3-2.6,0.9l-0.1-0.1L577.4,91.7z M563.3,93.5c2.6,0,2.5,3.3,2.2,5.1s-1.2,5-3.6,5
			c-2.5,0-2.4-3-2.1-4.9C560.1,96.8,560.7,93.5,563.3,93.5 M557,116h2.3l4.8-8.4c1.7-3,3-5.9,3.5-9.1c0.5-3.4,0-7.1-4.1-7.1
			c-2.7,0-5.1,1.9-5.9,6.9c-0.3,1.7-0.8,7.2,3.2,7.2c1,0,1.7-0.3,2.5-0.8l0.1,0.1L557,116z M550.8,101.5c-2.3,0-2.1-2.6-1.9-4.3
			c0.3-1.6,1-3.7,3.1-3.7c2.2,0,2.2,2.3,2,4C553.7,99.2,553,101.5,550.8,101.5 M552.9,102.6c2.3-1.2,3-3.1,3.4-5.4
			c0.5-2.9-0.4-5.8-3.7-5.8c-3.4,0-5.3,2.9-5.8,5.9c-0.3,2.2-0.1,4.1,1.7,5.2c-2.8,1-3.8,4.5-4.2,7c-0.5,3.2,0.2,6.8,4,6.8
			c4.1,0,5.8-3.8,6.3-7.2C554.9,106.7,555,103.8,552.9,102.6 M548.6,114.3c-2.5,0-2.4-3.3-2.1-5.2c0.3-1.9,1.2-5.5,3.8-5.5
			c2.5,0,2.3,3.4,2,5.3C552.1,110.9,551.3,114.3,548.6,114.3 M544.8,91.7h-4.9l-0.8,2.1h3.2l-3.5,22.1h2.2L544.8,91.7z M531.6,99.5
			h-2.7l0.7-4.5h-2.1l-0.7,4.5H525l-0.3,1.9h1.8l-2.3,14.6h2.1l2.3-14.6h2.7L531.6,99.5z M524.7,94.6c0.1-0.8-0.5-1.5-1.3-1.5
			c-0.9,0-1.7,0.7-1.8,1.5c-0.1,0.9,0.5,1.6,1.3,1.6C523.7,96.2,524.6,95.5,524.7,94.6 M523.4,99.5h-2.1l-2.6,16.5h2.1L523.4,99.5z
			 M517.7,108.2l0.2-1c0.5-2.9,0.6-8-3.2-8c-4,0-5.5,5.6-6,8.6c-0.5,3.3-0.8,8.5,3.6,8.5c3.1,0,4.6-3.3,5-5.9h-2.2
			c-0.2,1.3-0.9,3.9-2.7,3.9c-2.3,0-1.9-4-1.7-5.6l0.1-0.5H517.7z M511,106.4c0.2-1.5,1.3-5.2,3.3-5.2c2.2,0,1.7,3.3,1.5,4.9v0.3
			H511z M508.6,92.7c-1-0.8-2.2-1.3-3.6-1.3c-3.6,0-6.1,3.2-6.6,6.4c-0.6,3.5,1.3,5.1,3.1,6.5c1.8,1.4,3.7,2.7,3.2,5.5
			c-0.3,2.2-2,4.3-4.3,4.3c-1.5,0-2.8-0.9-3.6-2l-0.5,2.9c1,0.8,2.3,1.2,3.6,1.2c3.8,0,6.6-3.3,7.2-6.9c0.5-3.3-1.3-4.9-3.1-6.3
			c-1.9-1.4-3.7-2.7-3.3-5.6c0.3-2.1,1.9-3.9,4.1-3.9c1.5,0,2.5,0.9,3.3,2L508.6,92.7z M487.2,113c-0.9,0-1.8,0.7-1.9,1.6
			c-0.1,0.9,0.5,1.6,1.4,1.6s1.8-0.7,1.9-1.6S488.1,113,487.2,113 M487.5,99.5h-2.7l0.7-4.5h-2.2l-0.7,4.5h-1.8l-0.3,1.9h1.8
			L480,116h2.1l2.3-14.6h2.7L487.5,99.5z M480.6,99.5h-2.7l0.8-4.9c0.3-1.6,0.6-2.6,1.7-2.6c0.6,0,1,0.4,1.4,0.7l0.4-2.3
			c-0.5-0.3-1.2-0.4-1.8-0.4c-2.4,0-3.4,1.8-3.8,4.6l-0.8,4.9H474l-0.3,1.9h1.8l-2.3,14.6h2.1l2.3-14.6h2.7L480.6,99.5z M466.2,99.5
			h-2.1l-2.6,16.5h2.1l1.7-10.7c0.3-1.7,0.8-4.3,3.2-4.3c1.7,0,1.6,1.5,1.3,3.5l-1.8,11.6h2.1l1.9-11.8c0.4-2.3,0.5-5-2.4-5
			c-1.3,0-2.5,0.6-3.5,1.6L466.2,99.5z M452.8,99.5l-1.9,12.1c-0.4,2.8,0.6,4.6,3.6,4.6s4.6-1.9,5-4.6l1.9-12.1h-2.1l-1.6,10.4
			c-0.4,2.3-0.8,4.4-3,4.4c-2.1,0-1.8-2.2-1.5-4.4l1.6-10.4H452.8z M446.1,90.2H444l-4.1,25.8h2.1l1.3-7.9h0.1l3.8,7.9h2.6l-4.8-9.1
			l6.1-7.4h-2.4l-5.1,6.7h-0.1L446.1,90.2z M431.2,99.5l-1.9,12.1c-0.4,2.8,0.7,4.6,3.6,4.6c3,0,4.6-1.9,5-4.6l1.9-12.1h-2.1
			l-1.6,10.4c-0.4,2.3-0.8,4.4-3,4.4c-2.1,0-1.8-2.2-1.5-4.4l1.6-10.4H431.2z M431.9,91.7H423l-0.3,2.1h6.1L418.4,116h8.9l0.3-2.1
			h-6.1L431.9,91.7z M411.6,99.5h-2.1l-2.6,16.5h2.1l1.5-9.6c0.4-2.6,1-4.7,3.1-4.7h0.4l0.4-2.4c-1.4,0-2.5,1.3-3.1,2.4h0
			L411.6,99.5z M405.9,108.2l0.2-1c0.5-2.9,0.6-8-3.2-8c-4,0-5.5,5.6-6,8.6c-0.5,3.3-0.8,8.5,3.6,8.5c3.1,0,4.6-3.3,5-5.9h-2.2
			c-0.2,1.3-0.9,3.9-2.7,3.9c-2.3,0-1.9-4-1.7-5.6l0.1-0.5H405.9z M399.3,106.4c0.2-1.5,1.3-5.2,3.3-5.2c2.2,0,1.7,3.3,1.5,4.9v0.3
			H399.3z M391.2,116h2.1l4.1-25.8h-2.1l-1.6,10.4h-0.1c-0.5-0.9-1.2-1.4-2.3-1.4c-3.7,0-4.7,3.8-5.4,8.3c-0.7,4.5-0.9,8.7,2.6,8.7
			c1.2,0,2.2-0.6,3-1.5h0.1L391.2,116z M392.7,107.5c-0.7,4.3-1.3,7.1-3.5,7.1c-2.7,0-1.5-5.6-1.2-7.1c0.4-2.4,1.1-6.5,3.5-6.5
			C393.4,100.9,393.3,103.7,392.7,107.5 M373.8,90.2h-2.1l-4.1,25.8h2.1l1.3-7.9h0.1l3.8,7.9h2.6l-4.8-9.1l6.1-7.4h-2.4l-5.1,6.7
			h-0.1L373.8,90.2z M361,99.5h-2.1l-2.6,16.5h2.1l1.7-10.7c0.3-1.7,0.8-4.3,3.2-4.3c1.7,0,1.6,1.5,1.3,3.5l-1.8,11.6h2.1l1.9-11.8
			c0.4-2.3,0.5-5-2.4-5c-1.3,0-2.5,0.6-3.5,1.6L361,99.5z M356,99.5h-2.1l-0.2,1.1h-0.1c-0.5-0.9-1.2-1.4-2.3-1.4
			c-4,0-4.9,4.6-5.4,8.3c-1.1,7.2-0.1,8.7,2.6,8.7c1.2,0,2.2-0.6,3-1.5h0.1l-0.3,1.3h2.1L356,99.5z M352.9,107.5
			c-0.8,5.2-1.5,7.1-3.5,7.1c-1.2,0-2.3-0.3-1.2-7.1c0.4-2.8,1.2-6.5,3.5-6.5C353.6,100.9,353.4,103.9,352.9,107.5 M335.9,116
			c4.9,0,6.9-1.6,7.7-6.7c0.4-2.8,0.2-5.1-2.7-6v0.1c2.7-1.1,3.6-3.3,3.9-5.8c0.9-5.6-1.7-6-4.9-6h-3.2l-3.8,24.3L335.9,116
			L335.9,116z M337.1,104.4h0.7c2.9,0,4.2,1,3.5,5.1c-0.5,3.5-1.7,4.6-5.1,4.6h-0.6L337.1,104.4z M338.8,93.7h0.6
			c2.9,0,3.7,0.4,3.1,4.2c-0.8,4.9-2.7,4.5-4.5,4.5h-0.6L338.8,93.7z M324.9,108.2l0.2-1c0.5-2.9,0.6-8-3.2-8c-4,0-5.5,5.6-6,8.6
			c-0.5,3.3-0.8,8.5,3.6,8.5c3.1,0,4.6-3.3,5-5.9h-2.2c-0.2,1.3-0.9,3.9-2.7,3.9c-2.3,0-1.9-4-1.7-5.6l0.1-0.5H324.9z M318.3,106.4
			c0.2-1.5,1.3-5.2,3.3-5.2c2.2,0,1.7,3.3,1.5,4.9v0.3H318.3z M316.2,94.6c0.1-0.8-0.5-1.5-1.3-1.5c-0.9,0-1.7,0.7-1.8,1.5
			c-0.1,0.9,0.5,1.6,1.3,1.6C315.3,96.2,316.1,95.5,316.2,94.6 M314.9,99.5h-2.1l-2.6,16.5h2.1L314.9,99.5z M303.3,93.8h0.4
			c4.3,0,4.9,1.7,3.6,10.1c-1.1,7-2.1,10.1-6.5,10.1h-0.6L303.3,93.8z M297.5,116h2.6c6,0,7.9-2.6,9.4-12.1
			c1.8-11.6-1.1-12.1-5.7-12.1h-2.5L297.5,116z"/>
	</g>
	<g>
		<defs>
			<rect id="SVGID_37_" x="-8.7" y="-123" width="595.3" height="340.2"/>
		</defs>
		<clipPath id="SVGID_38_">
			<use xlink:href="#SVGID_37_"  style="overflow:visible;"/>
		</clipPath>
		<path class="st18" d="M520,72.1l-0.3-0.2C520.4,71.8,520.2,71.9,520,72.1 M345.8,71.7c-0.2,0.1-0.1,0.1-0.1,0.2
			c0.1-0.1,0.5-0.1,0.9-0.1C346.5,71.7,346.2,71.6,345.8,71.7 M347.4,71.9L347.4,71.9C348.2,72.1,347.9,72,347.4,71.9 M423.9,68.8
			c0.3-0.2,0.7-0.1,1.1,0.1C424.7,69,424.3,69,423.9,68.8 M451.4,67.1c0.3-0.1,1-0.5,1.3-0.2C452.3,67.6,452,67.3,451.4,67.1
			 M469.5,66.7l-1.2-0.4c1.5-0.7,2.5-0.5,1.4-1.1c-0.2,1.5-4.7,0.2-4.9,1.7l-0.8-0.3c0.2,0,0.3-0.1,0.5-0.1
			c-1.6-0.7-1.1,1.1-3.1,0.9c-0.7-0.1-1.2-0.3-0.7-0.5l-1.5,0.4c-0.5,0-0.3-0.3,0.1-0.3l-2.4,0.1l0,0c-0.3,0.2-1.1,0.6-1.5,0.8
			c-0.6-0.2,0.3-0.2,0.1-0.3l-1.3,0.4c-0.5-0.4,0.5-0.8,1.4-0.7c-1.3-1.5-1.1,0.4-3.7-0.4l1.2-0.2c-0.8-0.8-1.8-0.5-3.2-1
			c0.3,0.3,2.8,1.3,1.4,1.7c-0.4-0.1-0.9-0.1-1.7,0.2c0-0.5-0.8-0.4-1.7-0.3v-0.7c-1,0.2-0.9,0.6-1.5,0.9c-1.1-0.1-1.4-0.6-1.6-1.1
			c-1.8-0.1,1.3,0.9-0.9,1c-1.5-0.2-2.6,0.1-4.4,0.5c-1.1-0.2,0.2-0.4-0.2-0.6l-0.9,0.6c-0.2,0-0.2-0.2-0.1-0.3
			c-0.8,0.2,0,0.7-1.3,0.9c-0.3,0.8-2.6-1.1-4.1-0.2c-0.4-0.2,0.2-0.4,0-0.7c-2.1,0.6-1.8,0.5-3.5,1.3l-1.5-0.4
			c1.1,0.5-0.3,1.2-1.5,1.7c0.4,0.2,0.7,0.5,1,0.6l-1.9,0.4c-0.2-0.1-0.1-0.4,0.3-0.7c-0.1,0.1-0.3,0.1-0.4,0.2
			c-0.7-0.2-0.3-0.7,0.1-1.1c0.2,0.1,0.5,0.3,0.7,0.4c0.5-0.4,0.9-0.9,0.8-1.3c-0.1,0.1-0.4,0.2-0.6,0.2c0.1-0.1,0.2-0.2,0.1-0.3
			s-0.3,0.1-0.6,0.3l-0.5-0.8l-0.1,0.3l-2.5-0.5c-1.8,0.8-3.3,2-6.2,2.4c0.7-0.6,0.1-0.9,0.1-1.6c0.8,0.7,2.2-0.3,3.7-0.2
			c-0.8-0.1-0.6-0.4-0.4-0.5l-2.6,0.7c0-0.6-0.6-0.4-1.3-0.6c0.6,1.1-1.9,0.8-3,1.1c-0.1-0.4,0.2-0.8,1.5-0.7
			c-1.5-0.8-1.8,1.3-3.3,0.6c0.3,0,0.5,0,0.6-0.1c-0.7,0.3-2.6,0.1-2.1-0.2h0.3c-2.1-0.1-6.4,0-6.8,0.9c0-0.1,0.3-1.1,0.4-1.3
			l-3.8,3.1c0.3-0.8-0.9-2.7,0.9-3.2c-0.5-0.1-1.1-0.3-2.2,0c0.3,0.1,0.8,1.2,0.4,1.2c-1.3-0.9-0.9-0.5-2.5-1.3
			c0.5,0.2-0.1,1.4-0.9,1.4c0.1-0.2,0-1.3,0.3-1.4l-2.1,1.2c0.5-0.2,0.1-1.1-0.3-1.4c0.2,0.2-1.8,0-2.3,0.1l0.9,0.3
			c-2.3-0.2-2.3,1.7-4.6,1.6c0.3-0.3,0.7-1.6-0.4-1.8c-0.6,0.6-2.5,3-4.5,3.5l-0.3-0.7l-1.6,0.4c1-0.9,3.8-2.9,5.3-3.6
			c-0.8-0.3-0.2-0.4-1.5-0.4c-0.4-0.4,0.7-0.5,1.1-0.5l-3-0.3c0.1,0.7-2.3,0.7-2.2,1.3l3.3-0.7c0.1,0.7-2,2.1-4.1,1.9
			c-0.5-0.3,0.5-1.3,0.4-1.6c-0.3,0.3-2,0.4-2.2,0.3l0.9-0.4c-1.2-0.3-2,0.9-3.4,0.2c-0.5-0.1-1.4-1-1.5-0.5
			c0.8,0.9,0.8,3.5,0.3,4.1c-0.2-0.1-2.5-0.9-3.1-1.3c-0.8-0.7,1.3-1.6,0.6-2.1c0,0.2-0.5,0.4-0.7,0.5c-0.5-0.2,0.2-0.6-0.9-0.6
			c-0.2,0.7-2.3-0.1-0.5,0.6c-1.1,0.2-1.2-0.2-2.5-0.2c0.4,0.5-1.2,1.6-2.3,1.8c0.1-0.2-0.2-0.4-0.3-0.6c-2.2-0.1-3.4-0.5-5.5-0.5
			c-0.2-0.2-1.2-0.4-0.8-0.7c-0.3,0.1-0.6,0.4-1.2,0.4c-1.2-0.7,1.5-0.1,0.5-0.9c-0.1,0.4-1.7,0.6-2.6,0.9c0.3,0.7,2.1,0.1,3.1-0.1
			c0,0.9-1.6,1.9-3.8,2.3c-1.7,0.2-0.7-0.6-1-0.5c-3.3-0.2-2.8,1.6-5.5,1c-1.1-0.6-0.1-1.2-0.3-1.6c1.4-0.2,2.2,0.4,3.1,0.3
			l-1.2-0.3c0.5-0.2,1.4-0.3,1.9-0.2c-0.9-0.5-5.5-0.1-8.1-0.5c-0.4,0.2-1.2,0.4-0.8,0.7l0.8-0.1c0.7,0.5-1.5,0.7-0.5,0.9
			c-1.1,0.4-2.2,0.9-3.7,0.7l-0.3-0.7c0,0.2,1,0.4,1.4,0.2c-0.6,0.3-2.4-0.9-3,0L338,71c-1.1,0.4-2.3,1.1-3.7,1
			c0.6,0.6,0.3-0.1,1.3,0.7c-0.9-1,3.4-0.1,2-1.1c1,0.9,1.7,0.4,3,1.1c0-0.2-0.5-0.4,0.7-0.3c0-0.1,0.2-0.2,0.2-0.2s0,0,0.1,0h-0.1
			c0,0,0.1,0,0,0c-0.3-0.1-0.5-0.2-0.6-0.3c0.5-0.5,2.3-0.5,2.9-0.8c0.7,0.1-0.3,0.3,0.1,0.5l0.9-0.4c0.1,0.5,1.8,0.8,0.2,1.1h1.4
			c0.8,0.3,2,0.4,2.7,0.2c0.7,0.1,1.7-0.6,1.1-0.2l2.2-0.3v0.1c2.2,0.1,4.5-0.8,7,0.1c0.7-0.1,1.5-0.3,2.7-0.1l0.2,0.4
			c0.9-0.1,2.8,0.5,3.2,0c1,1.2,4.6,0.3,6.2,0.6l0.1-0.6c1.1,0.1,2.2-0.1,3.7-0.3l-0.1-0.5c1.2-0.4,3.1,0.4,5.1,0.4
			c-0.1,0.2-0.6,0.1-1,0c2.3,1.2,4.9-0.7,7,0.2c0.5-0.2,0.9-0.1,1.3,0c-0.1,0-0.1,0-0.1,0c0.1,0,0.1,0,0.2,0
			c0.2,0.1,0.5,0.2,0.7,0.3c-0.2-0.1-0.4-0.2-0.6-0.3c0.4,0,1-0.1,1.6-0.2l0.2,0.5h0.1c0.6,0.2,0.5-0.2,0.2-0.6
			c0.3-0.1,0.6-0.2,0.8-0.3c0.4,0.9,1.6-0.3,2.2,0.7c0.4-0.4,3-0.3,3.4-1.2c0,0.1,0.2,0.2-0.1,0.2c0.7,0.1,1.3,0.2,1.9,0l0.3,0.7
			l1.5-0.9c0.9,0.4,1.3,0.7,0.4,1.2c2.2-0.8,1.7-0.3,3.6-1.1l-0.1,0.4c0.6,0,1.7-0.6,2.1-0.2c1.4,0.9,7.2,0.1,10.9,0.8
			c-0.8-1.3,1.7,0.6,1.9-0.5c0.2,0.3,0.7,0.5,0.2,0.7c1.9-0.3,2.9,0.4,4.1-0.4c0.2,0.3-0.4,0.5-0.2,0.6c0.1-0.1,0.6-0.3,0.8-0.1
			c0.2,0.2-0.3,0.3-0.6,0.4c1.9-0.1,2.1-1,2.2-1.9c1,0.4,1.5,0.3,2.2-0.3c0.4,0.3,0.9,0.6-0.3,0.7c0.7,0,4.1,0.4,4.2-0.3
			c0.2,0.2,0.9,0,1.1,0c1.5,0,1.6,0.1,3.1,0l-0.4-0.1c0.6-0.9,1.2-0.2,2.4-0.3v0.1c2.8,0.6,1.2-0.3,3.9,0.3l-0.2-0.5
			c0.2-1.1,2.4,0.6,4,0.2l-0.6-0.3c0.9-0.4,2.4,1.5,3.3,1.6c0.2,0.1-0.3,0.2-0.6,0.2c2.3,0.6,0.3-0.7,2-0.9c0.3,0.4-0.4,1,0.8,1
			c0.6,0.3,3.3-1.3,4.8-0.6c-0.3-0.3-0.7-0.6,0.1-0.8c1.2-0.1,3.3,1,4.3,0.1c0.2,0.1,0.2,0.2,0.2,0.2c0.9-0.2,3-0.4,3.5-0.9
			c0.9,1.8,5.7-0.9,5.7,0.8l2.8-0.1l-0.1,0.2c1.8,0.1,2.4-0.3,3.1-0.7c0.4,0.1,0.1,0.3,0.1,0.4c2.6,0.3,2.9,0.3,5.1-0.6l0.2,0.5
			c0.6-0.3,3.8,0.9,6.4,0.2c0,0.1-0.1,0.2-0.3,0.2c2.9-0.6,6.9,1.5,8-0.5l1.9-0.5c-2.5-0.2,0.4-0.9-0.6-1.2c1-0.1,2.5,0.6,1.3,0.7
			l-0.2-0.1c-0.5,1,3.1,0.4,3,1.1c4.9,0.1,9.6,0.8,14.2,0.9l-0.5-0.8l1.6,0.1c0.4,0.2,0.5,0.6-0.6,0.6c0.6,0.5,1.9-0.3,2-0.5
			c2.2,0.4-0.9,0.9-0.2,1h0.9l-0.2-0.1c0.8-0.3,0.8-0.7,2.2-0.6c0.9,0.2,0.4,0.5,0.8,0.5c0,0.1,0.1,0.1,0.5,0l2,0.1l-0.8-0.7
			c0.9-0.3,1.9,0.1,1-0.7c1.3,1.1,7.5,0.6,8.3,0.9c1.3-0.4,2.5-0.4,4-0.3c-0.4-0.1-0.5-0.9,0.8-0.7c-0.6,1.5,2.4,0.7,3.3,1.8
			c-0.9-0.8,3.7,0,2.3-1.1c1.1,0.2,0,0.6,0.8,1c2.6-0.4,5.7,0.7,8.9,0.7c0.1-0.2-0.4-0.5,0.3-0.8l1.6,1.1c0.6-0.1,0.7-1.1,1.8-0.3
			c-0.1-0.2-0.4-0.4,0.1-0.5c6.2,1.3,13,0,19.1,2.2c-0.8-0.4-0.2-0.4,0.4-0.4c-0.4-0.1,0.1-0.5,0-0.7l2.6,0.9
			c0.6-0.7,2.9,0.1,3.3-0.6l-0.9,0.1c1.2-0.8-1.3-1.9-1-3c-1.4,0.9-3.2-1.6-5.4-0.4c-0.4-0.2,0.4-0.3,0.2-0.6
			c-0.6,0.4-1.2,0.5-2.4,0.2l0.2-0.1c-3.3-0.1-4.7-0.6-8.4-1.1l0.2,0.5c-0.8-0.1-0.9-0.3-1.3-0.4c-1,0.7,2.3,0.2,1.3,1
			c-0.9-1.1-5.7-0.4-6.2-1.6c-1.2-0.1,0.3,0.6-0.9,0.5l-0.3-0.3l-0.4,0.4c-0.8-0.1-1.2-0.6-1.2-0.8c0.2,0,0.6,0,0.8-0.1
			c-1-0.4-3,0-3.3-0.2l1.2,0.3c-3.4,0.1-7.5-0.6-10.8-0.1l0.2,0.3c-2.5,0.3-2-0.4-4.7-0.2l0.1-0.1c-0.6,0.2-1.3,0.3-2,0.3
			c0.7-0.3-1.3-0.6-0.3-0.9c-2.7,0.4-1.4,0.4-3.2,1.2l-0.4-0.4c-0.6,0.4-0.7,0.5-2.1,0.6c1.1-0.3-0.8-0.6,0.4-1.1
			c-2.8-1-4.3,0.8-5.5-0.5c-1.4,1.1,2.4,0.7,1.7,0.9c0.6,0.4-1.1,0.8-2,0.7c-0.9,0-1.5-1.5-3.8-1.5c0.2,0,0.3-0.1,0.5-0.1
			c-0.9-0.3-1.7,0.3-2.7-0.1c-0.6,0.7-1.4-0.1-1.6,0.8l2.1-0.1c-1.2,0.2-2.4,1.2-4.3,0.6c0.2-0.2,0.8-0.4,1.2-0.5
			c-0.6-0.3-1.1,0.1-1.7-0.1c0.2-0.9,2.6-0.1,3.9-0.8c-0.6-0.4-2.5,0.6-1.8-0.4c-1,1.2-2.3-0.2-3.9,0.7l0.1-0.5
			c-0.2,0.1-0.8,0.3-1.2,0.3l0.8-0.7c-1.3,0.5-2.4-0.6-3.6-0.3c2.5,0,0.6,0.6,1.6,1.1c-3.2,0.6-1.8-1.4-5.3-1.2
			c0.5-0.1,1.8,0.4,1,0.6c-0.7-0.1-1.5-0.3-1.9-0.6c-2.3,0.1,0.3,0.5-0.7,0.8c-0.8-0.7-1.1,0.2-2.2,0.4v-0.5
			c-2.6-0.4-0.7,1.1-3.1,0.7l1-0.7l-1.2,0.2l0.3-0.6c-1.4,0.5-1.8,0.3-3.1,0.2c0.3,0.4-0.2,1-1.4,1c-0.8-0.3,0.5-0.5-1.2-0.4
			c0.4-0.3,0.8-0.8,1.5-0.3c0.1-0.2,0.4-0.3,0.5-0.5c-0.9-0.4-2.2-0.1-2.8-0.1c0.2,0,0.5,0.1,0.7,0.1l-2.4,0.7
			c-0.4-0.2-0.1-0.4,0.2-0.5c-0.5,0.1-0.8,0.3-1.5,0.3c0.2-0.4,0.1-0.9,1.2-1.1l-2.3,0.5c-0.1-0.2-1.2-0.5-0.9-0.7
			c-1.3-0.3-3.1,0.8-4.8,0.5c-0.1,0.1-0.3,0.2-0.6,0.2c-1.6-0.1-3-0.6-4.9,0l-1.1-0.8c-1.5,0.2,1.5,1-1,1.3
			c-1.7,0.3-0.6-0.7-1.3-0.9c-0.9,0.4-2.4,1.2-4,0.6C468.6,66.6,469,66.7,469.5,66.7"/>
	</g>
	<g>
		<defs>
			<rect id="SVGID_39_" x="-8.7" y="-123" width="595.3" height="340.2"/>
		</defs>
		<clipPath id="SVGID_40_">
			<use xlink:href="#SVGID_39_"  style="overflow:visible;"/>
		</clipPath>
		<path class="st19" d="M571,74.6c-0.2,0-0.6,0-0.9,0C570.2,74.7,570.5,74.7,571,74.6"/>
	</g>
	<g>
		<defs>
			<rect id="SVGID_41_" x="-8.7" y="-123" width="595.3" height="340.2"/>
		</defs>
		<clipPath id="SVGID_42_">
			<use xlink:href="#SVGID_41_"  style="overflow:visible;"/>
		</clipPath>
		<path class="st20" d="M576.4,74.7l0.1,0.7l0.7-0.6C576.9,74.9,576.5,74.9,576.4,74.7"/>
	</g>
	<g>
		<defs>
			<rect id="SVGID_43_" x="-8.7" y="-123" width="595.3" height="340.2"/>
		</defs>
		<clipPath id="SVGID_44_">
			<use xlink:href="#SVGID_43_"  style="overflow:visible;"/>
		</clipPath>
		<path class="st21" d="M554.5,68.5c0,0,0.1,0,0.2,0.1C554.7,68.5,554.6,68.5,554.5,68.5"/>
	</g>
	<g>
		<defs>
			<rect id="SVGID_45_" x="-8.7" y="-123" width="595.3" height="340.2"/>
		</defs>
		<clipPath id="SVGID_46_">
			<use xlink:href="#SVGID_45_"  style="overflow:visible;"/>
		</clipPath>
		<path class="st22" d="M384.2,72.7c0.7,0.4,1.5,1.1,1.5,0.6l-0.2-0.5C384.9,72.9,384.5,72.8,384.2,72.7"/>
	</g>
	<g>
		<defs>
			<rect id="SVGID_47_" x="-8.7" y="-123" width="595.3" height="340.2"/>
		</defs>
		<clipPath id="SVGID_48_">
			<use xlink:href="#SVGID_47_"  style="overflow:visible;"/>
		</clipPath>
		<path class="st23" d="M351.9,72c0.6,0.2,1.1,0.3,1.6,0.3C352.7,72,352.1,71.6,351.9,72"/>
	</g>
	<g>
		<defs>
			<rect id="SVGID_49_" x="-8.7" y="-123" width="595.3" height="340.2"/>
		</defs>
		<clipPath id="SVGID_50_">
			<use xlink:href="#SVGID_49_"  style="overflow:visible;"/>
		</clipPath>
		<path class="st24" d="M455,71.9c0.3-0.1,0.4-0.2,0.4-0.3C455.1,71.7,454.9,71.8,455,71.9"/>
	</g>
	<g>
		<defs>
			<rect id="SVGID_51_" x="-8.7" y="-123" width="595.3" height="340.2"/>
		</defs>
		<clipPath id="SVGID_52_">
			<use xlink:href="#SVGID_51_"  style="overflow:visible;"/>
		</clipPath>
		<path class="st25" d="M355.3,72.3c-0.1-0.1-0.2-0.1-0.3-0.1c-0.5,0.1-0.9,0.1-1.5,0.1C354,72.5,354.6,72.6,355.3,72.3"/>
	</g>
	<g>
		<defs>
			<rect id="SVGID_53_" x="-8.7" y="-123" width="595.3" height="340.2"/>
		</defs>
		<clipPath id="SVGID_54_">
			<use xlink:href="#SVGID_53_"  style="overflow:visible;"/>
		</clipPath>
		<path class="st26" d="M337.9,72.4C337.4,72.5,337.8,72.5,337.9,72.4"/>
	</g>
	<g>
		<defs>
			<rect id="SVGID_55_" x="-8.7" y="-123" width="595.3" height="340.2"/>
		</defs>
		<clipPath id="SVGID_56_">
			<use xlink:href="#SVGID_55_"  style="overflow:visible;"/>
		</clipPath>
		<path class="st27" d="M335.5,70.6c0.1-0.1,0.2-0.1,0.2-0.2C335.7,70.5,335.6,70.5,335.5,70.6"/>
	</g>
	<g>
		<defs>
			<rect id="SVGID_57_" x="-8.7" y="-123" width="595.3" height="340.2"/>
		</defs>
		<clipPath id="SVGID_58_">
			<use xlink:href="#SVGID_57_"  style="overflow:visible;"/>
		</clipPath>
		<path class="st28" d="M337.2,72.2c0.2,0.1,0.4,0.1,0.6,0.1C337.7,72.3,337.5,72.3,337.2,72.2"/>
	</g>
	<g>
		<defs>
			<rect id="SVGID_59_" x="-8.7" y="-123" width="595.3" height="340.2"/>
		</defs>
		<clipPath id="SVGID_60_">
			<use xlink:href="#SVGID_59_"  style="overflow:visible;"/>
		</clipPath>
		<path class="st29" d="M337.3,72.4c-0.2,0-0.3,0-0.4,0C336.8,72.5,336.9,72.5,337.3,72.4"/>
	</g>
	<g>
		<defs>
			<rect id="SVGID_61_" x="-8.7" y="-123" width="595.3" height="340.2"/>
		</defs>
		<clipPath id="SVGID_62_">
			<use xlink:href="#SVGID_61_"  style="overflow:visible;"/>
		</clipPath>
		<path class="st30" d="M338.6,72.4c-0.3,0-0.5,0-0.8,0c0.1,0,0.1,0.1,0.1,0.1C338.1,72.4,338.2,72.4,338.6,72.4"/>
	</g>
	<g>
		<defs>
			<rect id="SVGID_63_" x="-8.7" y="-123" width="595.3" height="340.2"/>
		</defs>
		<clipPath id="SVGID_64_">
			<use xlink:href="#SVGID_63_"  style="overflow:visible;"/>
		</clipPath>
		<path class="st31" d="M333,72.8l1-0.2c-0.5,0-0.7-0.1-0.9-0.2C333.1,72.6,333.3,72.8,333,72.8"/>
	</g>
	<g>
		<defs>
			<rect id="SVGID_65_" x="-8.7" y="-123" width="595.3" height="340.2"/>
		</defs>
		<clipPath id="SVGID_66_">
			<use xlink:href="#SVGID_65_"  style="overflow:visible;"/>
		</clipPath>
		<path class="st32" d="M339.5,72c-0.3-0.1-0.2,0.6-0.4,0.4C338.7,73,341.3,71.7,339.5,72"/>
	</g>
	<g>
		<defs>
			<rect id="SVGID_67_" x="-8.7" y="-123" width="595.3" height="340.2"/>
		</defs>
		<clipPath id="SVGID_68_">
			<use xlink:href="#SVGID_67_"  style="overflow:visible;"/>
		</clipPath>
		<path class="st33" d="M456.9,66.8l-0.1,0.2C457,66.9,457.1,66.8,456.9,66.8"/>
	</g>
	<g>
		<defs>
			<rect id="SVGID_69_" x="-8.7" y="-123" width="595.3" height="340.2"/>
		</defs>
		<clipPath id="SVGID_70_">
			<use xlink:href="#SVGID_69_"  style="overflow:visible;"/>
		</clipPath>
		<path class="st34" d="M426.6,69.8l-0.2-0.1c-0.2,0.2-0.3,0.3-0.5,0.5C426.1,70,426.4,69.9,426.6,69.8"/>
	</g>
	<g>
		<defs>
			<rect id="SVGID_71_" x="-8.7" y="-123" width="595.3" height="340.2"/>
		</defs>
		<clipPath id="SVGID_72_">
			<use xlink:href="#SVGID_71_"  style="overflow:visible;"/>
		</clipPath>
		<path class="st35" d="M427.1,67.8l1,0.3C427.8,68,427.5,67.9,427.1,67.8"/>
	</g>
	<g>
		<defs>
			<rect id="SVGID_73_" x="-8.7" y="-123" width="595.3" height="340.2"/>
		</defs>
		<clipPath id="SVGID_74_">
			<use xlink:href="#SVGID_73_"  style="overflow:visible;"/>
		</clipPath>
		<path class="st36" d="M364.4,69.4L364.4,69.4C364.3,69.3,364.3,69.3,364.4,69.4"/>
	</g>
	<g>
		<defs>
			<rect id="SVGID_75_" x="-8.7" y="-123" width="595.3" height="340.2"/>
		</defs>
		<clipPath id="SVGID_76_">
			<use xlink:href="#SVGID_75_"  style="overflow:visible;"/>
		</clipPath>
		<path class="st37" d="M515,68.3L515,68.3C515.6,68.2,515.4,68.2,515,68.3"/>
	</g>
	<g>
		<defs>
			<rect id="SVGID_77_" x="-8.7" y="-123" width="595.3" height="340.2"/>
		</defs>
		<clipPath id="SVGID_78_">
			<use xlink:href="#SVGID_77_"  style="overflow:visible;"/>
		</clipPath>
		<path class="st38" d="M401.1,67.9C401.1,67.9,401,67.9,401.1,67.9L401.1,67.9L401.1,67.9z"/>
	</g>
	<g>
		<defs>
			<rect id="SVGID_79_" x="-8.7" y="-123" width="595.3" height="340.2"/>
		</defs>
		<clipPath id="SVGID_80_">
			<use xlink:href="#SVGID_79_"  style="overflow:visible;"/>
		</clipPath>
		<path class="st39" d="M402.8,67.6c-0.7,0.6-1.2,0.5-1.7,0.4l0.5,1.4L402.8,67.6z"/>
	</g>
	<g>
		<defs>
			<rect id="SVGID_81_" x="-8.7" y="-123" width="595.3" height="340.2"/>
		</defs>
		<clipPath id="SVGID_82_">
			<use xlink:href="#SVGID_81_"  style="overflow:visible;"/>
		</clipPath>
		<path class="st40" d="M427,68.1c0.1,0.1,0.1,0.2,0.2,0.3C427.3,68.3,427.3,68.1,427,68.1"/>
	</g>
	<g>
		<defs>
			<rect id="SVGID_83_" x="-8.7" y="-123" width="595.3" height="340.2"/>
		</defs>
		<clipPath id="SVGID_84_">
			<use xlink:href="#SVGID_83_"  style="overflow:visible;"/>
		</clipPath>
		<path class="st41" d="M371,67.4c0.3,0.1,0.5,0.2,0.6,0.3C371.6,67.6,371.5,67.4,371,67.4"/>
	</g>
</g>
<polygon class="st42" points="335.9,70.1 336.2,69.7 335.6,69.6 "/>
<g>
	<g>
		<defs>
			<rect id="SVGID_85_" x="-8.7" y="-123" width="595.3" height="340.2"/>
		</defs>
		<clipPath id="SVGID_86_">
			<use xlink:href="#SVGID_85_"  style="overflow:visible;"/>
		</clipPath>
		<path class="st43" d="M341.3,69.8l-1.2-0.1c0,0.1-0.1,0.1-0.3,0.2C340.6,69.9,341.4,70,341.3,69.8"/>
	</g>
	<g>
		<defs>
			<rect id="SVGID_87_" x="-8.7" y="-123" width="595.3" height="340.2"/>
		</defs>
		<clipPath id="SVGID_88_">
			<use xlink:href="#SVGID_87_"  style="overflow:visible;"/>
		</clipPath>
		<path class="st44" d="M339.9,69.9c-0.4,0-0.7,0-0.9,0.1C339.1,70,339.6,70,339.9,69.9"/>
	</g>
</g>
<polygon class="st42" points="337.5,69.5 338.3,69.5 337.1,69.4 "/>
<g>
	<g>
		<defs>
			<rect id="SVGID_89_" x="-8.7" y="-123" width="595.3" height="340.2"/>
		</defs>
		<clipPath id="SVGID_90_">
			<use xlink:href="#SVGID_89_"  style="overflow:visible;"/>
		</clipPath>
		<path class="st45" d="M353.8,69.8l1.3-0.1c0.1-0.2-0.2-0.3-0.7-0.2C354.1,69.6,353.6,69.7,353.8,69.8"/>
	</g>
	<g>
		<defs>
			<rect id="SVGID_91_" x="-8.7" y="-123" width="595.3" height="340.2"/>
		</defs>
		<clipPath id="SVGID_92_">
			<use xlink:href="#SVGID_91_"  style="overflow:visible;"/>
		</clipPath>
		<path class="st46" d="M350,68.3c0.3,0.1,0.4,0.2,0.6,0.4V68L350,68.3z"/>
	</g>
	<g>
		<defs>
			<rect id="SVGID_93_" x="-8.7" y="-123" width="595.3" height="340.2"/>
		</defs>
		<clipPath id="SVGID_94_">
			<use xlink:href="#SVGID_93_"  style="overflow:visible;"/>
		</clipPath>
		<path class="st47" d="M353.7,68.2c0.1-0.2,1.9-0.5,0.2-0.5C353.8,67.9,352.5,68,353.7,68.2"/>
	</g>
</g>
<polygon class="st42" points="372.5,69.3 372.5,70.4 372.8,69.3 "/>
<g>
	<g>
		<defs>
			<rect id="SVGID_95_" x="-8.7" y="-123" width="595.3" height="340.2"/>
		</defs>
		<clipPath id="SVGID_96_">
			<use xlink:href="#SVGID_95_"  style="overflow:visible;"/>
		</clipPath>
		<path class="st48" d="M389.8,67c-1.5-0.3-0.4,0.7-1.7,0.3c-0.4,0.3,1.1,0.3,0.7,0.5C389.7,67.6,390.2,67.7,389.8,67"/>
	</g>
	<g>
		<defs>
			<rect id="SVGID_97_" x="-8.7" y="-123" width="595.3" height="340.2"/>
		</defs>
		<clipPath id="SVGID_98_">
			<use xlink:href="#SVGID_97_"  style="overflow:visible;"/>
		</clipPath>
		<path class="st49" d="M388.8,67.8c-0.2,0-0.3,0.1-0.5,0.2C388.6,67.9,388.7,67.9,388.8,67.8"/>
	</g>
	<g>
		<defs>
			<rect id="SVGID_99_" x="-8.7" y="-123" width="595.3" height="340.2"/>
		</defs>
		<clipPath id="SVGID_100_">
			<use xlink:href="#SVGID_99_"  style="overflow:visible;"/>
		</clipPath>
		<polyline class="st50" points="293.9,74.9 293.8,75.1 294.7,74.5 293.9,74.9 		"/>
	</g>
	<g>
		<defs>
			<rect id="SVGID_101_" x="-8.7" y="-123" width="595.3" height="340.2"/>
		</defs>
		<clipPath id="SVGID_102_">
			<use xlink:href="#SVGID_101_"  style="overflow:visible;"/>
		</clipPath>
		<path class="st51" d="M300.3,73.9c-0.8-0.7-2.3,0.5-3.5,0.4l-0.2-0.1l-0.3,0.7C297.6,74.5,299.3,73.8,300.3,73.9"/>
	</g>
	<g>
		<defs>
			<rect id="SVGID_103_" x="-8.7" y="-123" width="595.3" height="340.2"/>
		</defs>
		<clipPath id="SVGID_104_">
			<use xlink:href="#SVGID_103_"  style="overflow:visible;"/>
		</clipPath>
		<path class="st52" d="M304.2,75.1c-0.3-0.3,0.7-0.4-0.8,0c0.1,0,0.1,0,0.2,0.1C303.6,75.1,303.8,75.1,304.2,75.1"/>
	</g>
	<g>
		<defs>
			<rect id="SVGID_105_" x="-8.7" y="-123" width="595.3" height="340.2"/>
		</defs>
		<clipPath id="SVGID_106_">
			<use xlink:href="#SVGID_105_"  style="overflow:visible;"/>
		</clipPath>
		<path class="st53" d="M303.5,75.1C302.8,75.2,304,75.3,303.5,75.1"/>
	</g>
	<g>
		<defs>
			<rect id="SVGID_107_" x="-8.7" y="-123" width="595.3" height="340.2"/>
		</defs>
		<clipPath id="SVGID_108_">
			<use xlink:href="#SVGID_107_"  style="overflow:visible;"/>
		</clipPath>
		<path class="st54" d="M306.6,74.6l-0.8,0.4c0.2,0.2,1,0.1,0.8,0.3C307.4,75,307.2,74.8,306.6,74.6"/>
	</g>
	<g>
		<defs>
			<rect id="SVGID_109_" x="-8.7" y="-123" width="595.3" height="340.2"/>
		</defs>
		<clipPath id="SVGID_110_">
			<use xlink:href="#SVGID_109_"  style="overflow:visible;"/>
		</clipPath>
		<path class="st55" d="M307.3,73.9l-0.4,0.2C307,74.2,307.1,74.2,307.3,73.9"/>
	</g>
	<g>
		<defs>
			<rect id="SVGID_111_" x="-8.7" y="-123" width="595.3" height="340.2"/>
		</defs>
		<clipPath id="SVGID_112_">
			<use xlink:href="#SVGID_111_"  style="overflow:visible;"/>
		</clipPath>
		<path class="st56" d="M305.9,74.4l0.9-0.4c-0.2-0.1-0.2-0.4-0.4,0.1C306.5,74,306.3,74.2,305.9,74.4"/>
	</g>
	<g>
		<defs>
			<rect id="SVGID_113_" x="-8.7" y="-123" width="595.3" height="340.2"/>
		</defs>
		<clipPath id="SVGID_114_">
			<use xlink:href="#SVGID_113_"  style="overflow:visible;"/>
		</clipPath>
		<path class="st57" d="M305.3,74.4c-0.5-0.1-1.2-0.1-0.4-0.5C303.3,74.2,303.7,74.7,305.3,74.4"/>
	</g>
	<g>
		<defs>
			<rect id="SVGID_115_" x="-8.7" y="-123" width="595.3" height="340.2"/>
		</defs>
		<clipPath id="SVGID_116_">
			<use xlink:href="#SVGID_115_"  style="overflow:visible;"/>
		</clipPath>
		<path class="st58" d="M300.4,73l-0.7-0.1l-0.5,0.4C299.4,73.1,300.5,73.3,300.4,73"/>
	</g>
	<g>
		<defs>
			<rect id="SVGID_117_" x="-8.7" y="-123" width="595.3" height="340.2"/>
		</defs>
		<clipPath id="SVGID_118_">
			<use xlink:href="#SVGID_117_"  style="overflow:visible;"/>
		</clipPath>
		<path class="st59" d="M312.2,74.4c0-0.2-0.4-0.4-0.5-0.6l-0.6,0.3C311.4,74.1,312.1,74.1,312.2,74.4"/>
	</g>
	<g>
		<defs>
			<rect id="SVGID_119_" x="-8.7" y="-123" width="595.3" height="340.2"/>
		</defs>
		<clipPath id="SVGID_120_">
			<use xlink:href="#SVGID_119_"  style="overflow:visible;"/>
		</clipPath>
		<path class="st60" d="M311.7,73.8l0.9-0.4C311.8,73.4,311.6,73.6,311.7,73.8"/>
	</g>
</g>
<polygon class="st42" points="307.3,73 305.8,73.8 307.6,73 "/>
<polygon class="st42" points="316,74.1 315.5,74.5 316.4,73.8 "/>
<g>
	<g>
		<defs>
			<rect id="SVGID_121_" x="-8.7" y="-123" width="595.3" height="340.2"/>
		</defs>
		<clipPath id="SVGID_122_">
			<use xlink:href="#SVGID_121_"  style="overflow:visible;"/>
		</clipPath>
		<path class="st61" d="M318.5,73.8c-0.4,0.3,0.6,0.5,0.2,0.7c0.7-0.1,1.2-0.4,1.7-0.7C319.9,74,319.3,74,318.5,73.8"/>
	</g>
	<g>
		<defs>
			<rect id="SVGID_123_" x="-8.7" y="-123" width="595.3" height="340.2"/>
		</defs>
		<clipPath id="SVGID_124_">
			<use xlink:href="#SVGID_123_"  style="overflow:visible;"/>
		</clipPath>
		<path class="st62" d="M321.3,73.4c-0.3,0.1-0.5,0.2-0.8,0.4C320.7,73.7,321,73.6,321.3,73.4"/>
	</g>
	<g>
		<defs>
			<rect id="SVGID_125_" x="-8.7" y="-123" width="595.3" height="340.2"/>
		</defs>
		<clipPath id="SVGID_126_">
			<use xlink:href="#SVGID_125_"  style="overflow:visible;"/>
		</clipPath>
		<path class="st63" d="M314.4,73.3c0.1,0.1,0.3,0.3,0.9,0.4l-0.5-0.4C314.6,73.3,314.5,73.3,314.4,73.3"/>
	</g>
	<g>
		<defs>
			<rect id="SVGID_127_" x="-8.7" y="-123" width="595.3" height="340.2"/>
		</defs>
		<clipPath id="SVGID_128_">
			<use xlink:href="#SVGID_127_"  style="overflow:visible;"/>
		</clipPath>
		<path class="st64" d="M314.7,73.3L314.7,73.3c0.4,0,0.7,0,0.9,0C315.5,73.2,315.2,73.2,314.7,73.3"/>
	</g>
	<g>
		<defs>
			<rect id="SVGID_129_" x="-8.7" y="-123" width="595.3" height="340.2"/>
		</defs>
		<clipPath id="SVGID_130_">
			<use xlink:href="#SVGID_129_"  style="overflow:visible;"/>
		</clipPath>
		<path class="st65" d="M314.3,73.3L314.3,73.3C314.3,73.3,314.3,73.2,314.3,73.3"/>
	</g>
	<g>
		<defs>
			<rect id="SVGID_131_" x="-8.7" y="-123" width="595.3" height="340.2"/>
		</defs>
		<clipPath id="SVGID_132_">
			<use xlink:href="#SVGID_131_"  style="overflow:visible;"/>
		</clipPath>
		<path class="st66" d="M310,73.1c0.5-0.3,1.7-0.7,0.4-1C310,72.5,310.8,72.7,310,73.1"/>
	</g>
	<g>
		<defs>
			<rect id="SVGID_133_" x="-8.7" y="-123" width="595.3" height="340.2"/>
		</defs>
		<clipPath id="SVGID_134_">
			<use xlink:href="#SVGID_133_"  style="overflow:visible;"/>
		</clipPath>
		<path class="st67" d="M313.7,72.8h-1.1c0,0.1,0.3,0.3,0,0.4L313.7,72.8z"/>
	</g>
</g>
<polygon class="st42" points="313.7,72.8 314.1,72.8 314.2,72.6 "/>
<g>
	<g>
		<defs>
			<rect id="SVGID_135_" x="-8.7" y="-123" width="595.3" height="340.2"/>
		</defs>
		<clipPath id="SVGID_136_">
			<use xlink:href="#SVGID_135_"  style="overflow:visible;"/>
		</clipPath>
		<path class="st68" d="M319.4,73.1c0.4-0.2,0.9-0.3,1.5-0.4c-0.6-0.1-1.3-0.1-1.9,0C319,72.9,318.7,73.1,319.4,73.1"/>
	</g>
	<g>
		<defs>
			<rect id="SVGID_137_" x="-8.7" y="-123" width="595.3" height="340.2"/>
		</defs>
		<clipPath id="SVGID_138_">
			<use xlink:href="#SVGID_137_"  style="overflow:visible;"/>
		</clipPath>
		<path class="st69" d="M317.1,73.1L317.1,73.1C317.2,73,317.1,73,317.1,73.1"/>
	</g>
</g>
<polygon class="st42" points="326.4,72.4 326.5,72.4 326.4,72.3 "/>
<g>
	<g>
		<defs>
			<rect id="SVGID_139_" x="-8.7" y="-123" width="595.3" height="340.2"/>
		</defs>
		<clipPath id="SVGID_140_">
			<use xlink:href="#SVGID_139_"  style="overflow:visible;"/>
		</clipPath>
		<path class="st70" d="M318.9,72.6c-0.5-0.1-0.7,0.1-1,0.2c0.3-0.1,0.7-0.1,1.1-0.1C319.1,72.6,319.1,72.6,318.9,72.6"/>
	</g>
	<g>
		<defs>
			<rect id="SVGID_141_" x="-8.7" y="-123" width="595.3" height="340.2"/>
		</defs>
		<clipPath id="SVGID_142_">
			<use xlink:href="#SVGID_141_"  style="overflow:visible;"/>
		</clipPath>
		<path class="st71" d="M322.8,73.1c-0.2-0.1-0.5-0.1-0.8-0.2C322.2,73,322.7,73.2,322.8,73.1"/>
	</g>
	<g>
		<defs>
			<rect id="SVGID_143_" x="-8.7" y="-123" width="595.3" height="340.2"/>
		</defs>
		<clipPath id="SVGID_144_">
			<use xlink:href="#SVGID_143_"  style="overflow:visible;"/>
		</clipPath>
		<path class="st72" d="M317.4,73.2L317.4,73.2C317.5,73.3,317.5,73.2,317.4,73.2"/>
	</g>
	<g>
		<defs>
			<rect id="SVGID_145_" x="-8.7" y="-123" width="595.3" height="340.2"/>
		</defs>
		<clipPath id="SVGID_146_">
			<use xlink:href="#SVGID_145_"  style="overflow:visible;"/>
		</clipPath>
		<path class="st73" d="M317.4,73.2c0.2-0.1,0.4-0.2,0.6-0.3c-0.3,0.1-0.5,0.1-0.7,0.2C317.3,73.1,317.3,73.1,317.4,73.2"/>
	</g>
	<g>
		<defs>
			<rect id="SVGID_147_" x="-8.7" y="-123" width="595.3" height="340.2"/>
		</defs>
		<clipPath id="SVGID_148_">
			<use xlink:href="#SVGID_147_"  style="overflow:visible;"/>
		</clipPath>
		<path class="st74" d="M324.4,72.4l-0.4,0.1c0.5,0,0.9,0.2,1.6,0.5c0.7-0.2,0.8-0.4,0.9-0.6h-1.1c-0.5,0-1.1,0-1.1,0H324.4z"/>
	</g>
	<g>
		<defs>
			<rect id="SVGID_149_" x="-8.7" y="-123" width="595.3" height="340.2"/>
		</defs>
		<clipPath id="SVGID_150_">
			<use xlink:href="#SVGID_149_"  style="overflow:visible;"/>
		</clipPath>
		<path class="st75" d="M322,72.6c0.3-0.5,1.3-0.8,0.6-1.2c-1.3,0.1-0.9,0.5-1.6,0.7C323.1,71.8,320.5,72.4,322,72.6
			c-0.4,0.1-0.8,0.1-1.1,0.1c0.4,0,0.7,0.1,1.1,0.2h-0.1l0,0l0,0c-0.1-0.1-0.1-0.1,0-0.1l0,0C321.9,72.7,322,72.6,322,72.6
			c0.6,0.1,0.1,0.1-0.1,0.2c0,0,0,0,0,0.1l0,0l2-0.4C323.5,72.4,323,72.5,322,72.6"/>
	</g>
	<g>
		<defs>
			<rect id="SVGID_151_" x="-8.7" y="-123" width="595.3" height="340.2"/>
		</defs>
		<clipPath id="SVGID_152_">
			<use xlink:href="#SVGID_151_"  style="overflow:visible;"/>
		</clipPath>
		<path class="st76" d="M311.3,71c0.1,0,0.1,0.1,0.1,0.1C311.5,71.1,311.6,71,311.3,71"/>
	</g>
	<g>
		<defs>
			<rect id="SVGID_153_" x="-8.7" y="-123" width="595.3" height="340.2"/>
		</defs>
		<clipPath id="SVGID_154_">
			<use xlink:href="#SVGID_153_"  style="overflow:visible;"/>
		</clipPath>
		<path class="st77" d="M312.2,71.2c-0.1,0.1-0.2,0.3-0.7,0.3c-0.5-0.1,0-0.2-0.1-0.4c-0.3,0.2-1,0.4,0,0.6l0.1-0.1
			c0.9,0.1,2,0.6,1.9,0.7C313.1,71.9,312.8,71.6,312.2,71.2"/>
	</g>
	<g>
		<defs>
			<rect id="SVGID_155_" x="-8.7" y="-123" width="595.3" height="340.2"/>
		</defs>
		<clipPath id="SVGID_156_">
			<use xlink:href="#SVGID_155_"  style="overflow:visible;"/>
		</clipPath>
		<path class="st78" d="M317.2,71.7l1.7-0.3l-0.9-0.3l0.1,0.2C317,71.2,317.3,71.5,317.2,71.7"/>
	</g>
</g>
<polygon class="st42" points="326.7,72.6 326.5,73.1 327.4,72.4 "/>
<polygon class="st42" points="328.9,72.9 329.4,72.6 328.9,72.5 "/>
<g>
	<g>
		<defs>
			<rect id="SVGID_157_" x="-8.7" y="-123" width="595.3" height="340.2"/>
		</defs>
		<clipPath id="SVGID_158_">
			<use xlink:href="#SVGID_157_"  style="overflow:visible;"/>
		</clipPath>
		<path class="st79" d="M332,71c-0.1-0.4-0.8-0.3-1.5-0.2h0.1C330.5,71.5,331.2,71.3,332,71"/>
	</g>
	<g>
		<defs>
			<rect id="SVGID_159_" x="-8.7" y="-123" width="595.3" height="340.2"/>
		</defs>
		<clipPath id="SVGID_160_">
			<use xlink:href="#SVGID_159_"  style="overflow:visible;"/>
		</clipPath>
		<path class="st80" d="M330.3,70.9c-0.2,0-0.4,0.1-0.7,0C329.6,71.2,329.9,71,330.3,70.9"/>
	</g>
	<g>
		<defs>
			<rect id="SVGID_161_" x="-8.7" y="-123" width="595.3" height="340.2"/>
		</defs>
		<clipPath id="SVGID_162_">
			<use xlink:href="#SVGID_161_"  style="overflow:visible;"/>
		</clipPath>
		<path class="st81" d="M332.2,69.3c0,0.4-1.2,0.9-2.3,0.5c-1,0.4-0.2,1.8,0.8,2.5c0-0.2,0-0.4,1-0.7c-0.4-0.2-2.4-0.5-1.5-0.9
			c1.4-0.3,1.2,0.1,1.9,0.3c-0.6-0.5,1.7-0.9,1.4-1.7l-1.2,0.3C332.1,69.6,332.6,69.4,332.2,69.3"/>
	</g>
	<g>
		<defs>
			<rect id="SVGID_163_" x="-8.7" y="-123" width="595.3" height="340.2"/>
		</defs>
		<clipPath id="SVGID_164_">
			<use xlink:href="#SVGID_163_"  style="overflow:visible;"/>
		</clipPath>
		<path class="st82" d="M328.1,69.9c-0.1,0.1-0.3,0-0.5,0.1l0.1,0.2C328.3,70.1,328.8,69.9,328.1,69.9"/>
	</g>
	<g>
		<defs>
			<rect id="SVGID_165_" x="-8.7" y="-123" width="595.3" height="340.2"/>
		</defs>
		<clipPath id="SVGID_166_">
			<use xlink:href="#SVGID_165_"  style="overflow:visible;"/>
		</clipPath>
		<path class="st83" d="M0.1,26.7l8.1,8.1c1.9,0,3.8-0.7,5.3-2.1c-0.1,0.1,6-6,6-6L13.8,21c-1.6-1.6-3.6-2.3-5.6-2.4L0.1,26.7z"/>
	</g>
	<g>
		<defs>
			<rect id="SVGID_167_" x="-8.7" y="-123" width="595.3" height="340.2"/>
		</defs>
		<clipPath id="SVGID_168_">
			<use xlink:href="#SVGID_167_"  style="overflow:visible;"/>
		</clipPath>
		<path class="st84" d="M20.8,13.7c-1.6-1.6-2.3-3.6-2.4-5.6l0,0L26.5,0l8.1,8.1c0,1.9-0.7,3.8-2.1,5.3c0.1-0.1-6,6-6,6
			S20.9,13.8,20.8,13.7"/>
	</g>
	<g>
		<defs>
			<rect id="SVGID_169_" x="-8.7" y="-123" width="595.3" height="340.2"/>
		</defs>
		<clipPath id="SVGID_170_">
			<use xlink:href="#SVGID_169_"  style="overflow:visible;"/>
		</clipPath>
		<path class="st85" d="M32.5,39.7c1.6,1.6,2.3,3.6,2.4,5.6l-8.1,8.1l-8.1-8.1c0-1.9,0.7-3.8,2.1-5.3c-0.1,0.1,6-6,6-6L32.5,39.7"/>
	</g>
	<g>
		<defs>
			<rect id="SVGID_171_" x="-8.7" y="-123" width="595.3" height="340.2"/>
		</defs>
		<clipPath id="SVGID_172_">
			<use xlink:href="#SVGID_171_"  style="overflow:visible;"/>
		</clipPath>
		<path class="st86" d="M39.5,32.5c1.6,1.6,3.6,2.3,5.6,2.4l0,0l8.1-8.1l-8.1-8.1c-1.9,0-3.8,0.7-5.3,2.1c0.1-0.1-6,6-6,6
			S39.5,32.4,39.5,32.5"/>
	</g>
	<g>
		<defs>
			<rect id="SVGID_173_" x="-8.7" y="-123" width="595.3" height="340.2"/>
		</defs>
		<clipPath id="SVGID_174_">
			<use xlink:href="#SVGID_173_"  style="overflow:visible;"/>
		</clipPath>
		<path class="st87" d="M21.4,13.3c0-2.2-0.9-4.2-2.3-5.7H7.7V19c1.4,1.3,3.2,2.2,5.2,2.3c-0.1,0,8.5,0,8.5,0S21.4,13.4,21.4,13.3"
			/>
	</g>
	<g>
		<defs>
			<rect id="SVGID_175_" x="-8.7" y="-123" width="595.3" height="340.2"/>
		</defs>
		<clipPath id="SVGID_176_">
			<use xlink:href="#SVGID_175_"  style="overflow:visible;"/>
		</clipPath>
		<path class="st88" d="M31.9,13.3c0-2.2,0.9-4.2,2.3-5.7l0,0h11.4V19c-1.4,1.3-3.2,2.2-5.2,2.3c0.1,0-8.5,0-8.5,0
			S31.9,13.4,31.9,13.3"/>
	</g>
	<g>
		<defs>
			<rect id="SVGID_177_" x="-8.7" y="-123" width="595.3" height="340.2"/>
		</defs>
		<clipPath id="SVGID_178_">
			<use xlink:href="#SVGID_177_"  style="overflow:visible;"/>
		</clipPath>
		<path class="st89" d="M21.5,40.2c0,2.2-0.9,4.2-2.3,5.7H7.8V34.5c1.4-1.3,3.2-2.2,5.2-2.3c-0.1,0,8.5,0,8.5,0S21.5,40.1,21.5,40.2
			"/>
	</g>
	<g>
		<defs>
			<rect id="SVGID_179_" x="-8.7" y="-123" width="595.3" height="340.2"/>
		</defs>
		<clipPath id="SVGID_180_">
			<use xlink:href="#SVGID_179_"  style="overflow:visible;"/>
		</clipPath>
		<path class="st90" d="M32,40.2c0,2.2,0.9,4.2,2.3,5.7l0,0h11.4V34.5c-1.4-1.3-3.2-2.2-5.2-2.3c0.1,0-8.5,0-8.5,0
			S31.9,40.1,32,40.2"/>
	</g>
</g>
</svg>
