<?xml version="1.0" encoding="utf-8"?>
<!-- Generator: Adobe Illustrator 25.2.3, SVG Export Plug-In . SVG Version: 6.00 Build 0)  -->
<svg version="1.1" id="Layer_1" xmlns="http://www.w3.org/2000/svg" xmlns:xlink="http://www.w3.org/1999/xlink" x="0px" y="0px"
	 viewBox="0 0 329.8 66.5" style="enable-background:new 0 0 329.8 66.5;" xml:space="preserve">
<style type="text/css">
	.st0{fill:#005FAA;}
</style>
<path class="st0" d="M33.2,0C14.9,0,0,14.9,0,33.2c0,18.4,14.9,33.2,33.2,33.2c18.4,0,33.2-14.9,33.2-33.2C66.5,14.9,51.6,0,33.2,0z
	 M50.5,21.6c-6,0-12.2,3.3-12.2,11.1c0,9.1,7,11.8,11,10.6c4.6-1.4,5.1-7.4,5.1-7.4s-2.2,4.7-6.8,3.3c-3.8-1.2-4.3-4.5-3.9-6.9
	c0.5-2.5,3.1-5.3,7.6-4.6C57,28.6,59.2,34.6,59,38c-0.5,7.6-3.7,13.4-8.7,18.3c-5.9,5.7-13,8.2-19.4,7.8c-0.1,0-0.2,0-0.3,0
	c8.2-0.4,14.4-7,14.4-13.6c0-6-3.3-12.2-11.1-12.2c-9.1,0-11.8,7-10.6,11c1.4,4.6,7.4,5.1,7.4,5.1s-4.7-2.2-3.3-6.8
	c1.2-3.8,4.5-4.3,6.9-3.9c2.5,0.5,5.3,3.1,4.6,7.6c-0.9,5.6-6.9,7.8-10.3,7.6c-7.6-0.5-13.4-3.7-18.3-8.7C4.5,44.4,2,37.3,2.3,31
	c0-0.1,0-0.3,0-0.4c0.4,8.2,7,14.3,13.6,14.3c6,0,12.2-3.3,12.2-11.1c0-9.1-7-11.8-11-10.6c-4.6,1.4-5.1,7.4-5.1,7.4
	s2.2-4.7,6.8-3.3c3.8,1.2,4.3,4.5,3.9,6.9c-0.5,2.5-3.1,5.3-7.6,4.6c-5.6-0.9-7.8-6.9-7.6-10.3c0.5-7.6,3.7-13.4,8.7-18.3
	c5.8-5.7,13-8.2,19.4-7.8c0.1,0,0.2,0,0.4,0c-8.2,0.4-14.4,7-14.4,13.6c0,6,3.3,12.2,11.1,12.2c9.1,0,11.8-7,10.6-11
	c-1.4-4.6-7.4-5.1-7.4-5.1s4.7,2.2,3.3,6.7c-1.2,3.8-4.5,4.3-6.9,3.9c-2.5-0.5-5.3-3.1-4.6-7.6c0.9-5.6,6.9-7.8,10.3-7.6
	c7.6,0.5,13.4,3.7,18.3,8.7c5.7,5.9,8.2,13.1,7.8,19.5c0,0.1,0,0.2,0,0.3C63.7,27.7,57.1,21.6,50.5,21.6z"/>
<g>
	<g>
		<path class="st0" d="M110.5,16.6c0,0,0,12.8,0,13c-0.3,0-15.3,0-15.6,0c0-0.3,0-13,0-13h-8.5v33.2h8.5c0,0,0-14,0-14.3
			c0.3,0,15.3,0,15.6,0c0,0.3,0,14.3,0,14.3h8.6V16.6H110.5z"/>
	</g>
	<g>
		<g>
			<g>
				<path class="st0" d="M145.6,16.6h-9l-13.8,33.2h8.5c0,0,3.1-7.6,3.2-7.7c0.2,0,13.1,0,13.3,0c0.1,0.2,3.2,7.7,3.2,7.7h8.5
					L145.6,16.6z M136.5,37c0.2-0.4,4.4-10.5,4.6-11c0.2,0.6,4.4,10.7,4.6,11C145.3,37,136.8,37,136.5,37z"/>
			</g>
		</g>
	</g>
	<g>
		<path class="st0" d="M163.7,16.6v33.2h8.5V16.6H163.7z"/>
	</g>
	<g>
		<path class="st0" d="M177.5,16.6v6c0,0,11.6,0,11.9,0c0,0.3,0,27.3,0,27.3h8.6c0,0,0-27,0-27.3c0.3,0,11.9,0,11.9,0v-6H177.5z"/>
	</g>
	<g>
		<g>
			<g>
				<path class="st0" d="M245.3,23.4c-1.7-2.5-4.2-4.5-7.3-5.9c-2.4-1-5.7-1.6-9.6-1.6c-2.4,0-4.7,0.3-6.8,1c-2.1,0.7-3.9,1.7-5.5,3
					c-1.6,1.3-2.7,2.7-3.5,4.2c-1.4,2.7-2.1,5.7-2.1,9.1c0,5.6,1.8,9.9,5.2,12.8c3.5,2.9,8,4.4,13.6,4.4c5.5,0,10.1-1.4,13.4-4.3
					c3.4-2.9,5.1-7.2,5.1-12.7C247.9,29.3,247,25.9,245.3,23.4z M236.3,41.9c-1.8,1.7-4.1,2.6-6.9,2.6c-2.9,0-5.3-0.9-7.2-2.6
					c-1.8-1.7-2.8-4.6-2.8-8.6c0-4,0.9-7,2.7-8.7c1.8-1.7,4.2-2.6,7-2.6c2.6,0,4.8,0.7,6.5,2.1c2.2,1.8,3.3,4.9,3.3,9.3
					C239,37.3,238.1,40.1,236.3,41.9z"/>
			</g>
		</g>
	</g>
	<g>
		<path class="st0" d="M279.3,16.6c0,0,0,21.1,0,21.9c-0.5-0.6-17.1-21.8-17.1-21.8l-9-0.1v33.2h8.6c0,0,0-22,0-22.7
			c0.5,0.6,17.6,22.7,17.6,22.7l8.4,0.1V16.6H279.3z"/>
	</g>
	<g>
		<path class="st0" d="M302.7,17.8c-3,1.2-5.4,3.2-7.2,5.7c-1.7,2.6-2.6,6.1-2.6,10.3c0,4.1,0.8,7.4,2.5,9.7
			c1.7,2.4,3.8,4.1,6.4,5.2c2.6,1.1,5.4,1.7,8.2,1.7c2.8,0,5.4-0.5,7.8-1.5c1.7-0.7,3.3-1.7,4.9-3c0,0.5,0,3.9,0,3.9h6.9V32.7h-18
			v5.2c0,0,10.6,0,11,0c-0.3,1-0.6,1.8-1,2.5c-0.4,0.6-1.1,1.3-1.9,2c-0.8,0.7-2,1.2-3.3,1.7c-1.4,0.4-2.8,0.7-4.2,0.7
			c-1.9,0-3.7-0.4-5.3-1.2c-1.6-0.8-2.9-2-3.7-3.6c-0.8-1.6-1.3-3.9-1.3-6.8c0-4.3,1-7.2,3-8.9c2-1.6,4.6-2.5,7.8-2.5
			c2.6,0,4.8,0.6,6.5,1.9c1.2,0.9,2.1,2.2,2.9,4l0,0.1l6.9-1.8l-0.1-0.1c-0.7-1.9-1.5-3.3-2.4-4.4c-1.5-1.6-3.4-3-5.8-3.9
			c-2.4-1-5.2-1.4-8.3-1.4C309,16,305.8,16.6,302.7,17.8z"/>
	</g>
</g>
</svg>
