<?xml version="1.0" encoding="UTF-8"?>
<!-- Generator: Adobe Illustrator 26.2.1, SVG Export Plug-In . SVG Version: 6.00 Build 0)  -->
<svg xmlns="http://www.w3.org/2000/svg" xmlns:xlink="http://www.w3.org/1999/xlink" version="1.1" id="Ebene_1" x="0px" y="0px" width="93px" height="102.6966248px" viewBox="0 0 93 102.6966248" xml:space="preserve">
<style type="text/css">
	.st0{fill:#FFFFFF;stroke:#F28800;stroke-width:3;stroke-linecap:round;stroke-linejoin:round;}
	.st1{fill:#FFFFFF;stroke:#005091;stroke-width:3;stroke-linecap:round;stroke-linejoin:round;}
</style>
<g>
	<g>
		<polygon class="st0" points="52.5690651,18.2783852 65.1829529,18.2783852 46.0202827,1.5 27.34128,18.2783852     39.9551735,18.2783852 39.9551735,64.0974655 52.5690651,64.0974655   "></polygon>
	</g>
	<g>
		<path class="st1" d="M52.5939598,80.1943207c-0.3076591-4.1669998-1.1498871-8.0937119-2.4142113-11.6986008    c-3.0664597-8.7432098-8.6158829-15.5932999-15.0436363-19.38694c-9.1478386-5.3990288-16.8577271-6.1550674-16.8577271-6.1550674    V30.3398209L1.5,49.5024948l16.7783852,18.6790009V55.5676041c0,0,6.6624622-0.0041656,12.9284096,5.7447739    c5.505455,5.0511932,8.0622177,10.9577942,9.0922356,17.3343735c0.4214287,2.608963,0.5872803,5.2966003,0.5949402,8.0365067    L52.5939598,80.1943207z"></path>
	</g>
	<path class="st1" d="M39.9551735,101.1966248c0,0-0.3841743-9.6922989,0.4508667-21.0023041   c1.0538521-14.2735443,8.3798866-25.7277565,17.4578476-31.0855408c9.1478386-5.3990288,16.8577232-6.1550674,16.8577232-6.1550674   V30.3398209L91.5,49.5024948L74.721611,68.1814957V55.5676041c0,0-6.6624603-0.0041656-12.9284058,5.7447739   c-7.7579956,7.1178741-9.6607819,15.9343338-9.6871758,25.3708801c-0.0220718,7.8906479,0.0846214,14.5133667,0.0846214,14.5133667   H39.9551735z"></path>
</g>
</svg>
