<?xml version="1.0" encoding="UTF-8"?>
<!-- Generator: Adobe Illustrator 26.2.1, SVG Export Plug-In . SVG Version: 6.00 Build 0)  -->
<svg xmlns="http://www.w3.org/2000/svg" xmlns:xlink="http://www.w3.org/1999/xlink" version="1.1" id="Ebene_1" x="0px" y="0px" width="90.5271835px" height="103.0386353px" viewBox="0 0 90.5271835 103.0386353" xml:space="preserve">
<style type="text/css">
	.st0{fill:none;stroke:#005091;stroke-width:3;stroke-linecap:round;stroke-linejoin:round;stroke-miterlimit:10;}
	.st1{fill:#FFFFFF;}
	.st2{fill:none;stroke:#F28800;stroke-width:3;stroke-linecap:round;stroke-linejoin:round;stroke-miterlimit:10;}
	.st3{fill:#FFFFFF;stroke:#F28800;stroke-width:3;stroke-linecap:round;stroke-linejoin:round;stroke-miterlimit:10;}
</style>
<g>
	<polygon class="st0" points="49.865818,27.5706768 49.865818,1.5 76.5289764,27.5706768  "></polygon>
	<path class="st0" d="M49.865818,1.5H3.9803009C2.6104572,1.5,1.5,2.5857871,1.5,3.9251676V99.113472   c0,1.3393784,1.1104572,2.4251633,2.4803009,2.4251633h70.0683746c1.3698425,0,2.4803009-1.0857849,2.4803009-2.4251633V27.5706768   L49.865818,1.5z"></path>
	<g>
		<line class="st0" x1="58.7041283" y1="80.8720474" x2="15.3361721" y2="80.8720474"></line>
		<line class="st0" x1="58.7041283" y1="71.9631042" x2="15.3361721" y2="71.9631042"></line>
		<line class="st0" x1="58.7041283" y1="63.0541534" x2="15.3361721" y2="63.0541534"></line>
		<line class="st0" x1="58.7041283" y1="54.1452713" x2="15.3361721" y2="54.1452713"></line>
		<line class="st0" x1="58.7041283" y1="45.2363243" x2="15.3361721" y2="45.2363243"></line>
		<line class="st0" x1="40.7287903" y1="36.3273773" x2="15.3361721" y2="36.3273773"></line>
		<line class="st0" x1="39.7202721" y1="27.4184952" x2="15.3361721" y2="27.4184952"></line>
	</g>
</g>
<g>
	<g>
		<path class="st1" d="M87.977623,92.0454941l-0.9125519,0.9125443c-1.3994217,1.3994217-3.6683273,1.3994217-5.067749,0    L61.5261383,72.4868546c-1.3994217-1.3994217-1.3994217-3.668335,0-5.067749l0.9125481-0.9125519    c1.3994179-1.3994217,3.6683311-1.3994217,5.0677528,0L87.977623,86.9777451    C89.3770447,88.3771591,89.3770447,90.6460724,87.977623,92.0454941z"></path>
		<path class="st2" d="M87.977623,92.0454941l-0.9125519,0.9125443c-1.3994217,1.3994217-3.6683273,1.3994217-5.067749,0    L61.5261383,72.4868546c-1.3994217-1.3994217-1.3994217-3.668335,0-5.067749l0.9125481-0.9125519    c1.3994179-1.3994217,3.6683311-1.3994217,5.0677528,0L87.977623,86.9777451    C89.3770447,88.3771591,89.3770447,90.6460724,87.977623,92.0454941z"></path>
	</g>
	<path class="st3" d="M65.0936203,38.3198395c8.7686615,8.7686653,8.7686615,22.9854774,0,31.7541428   s-22.9854736,8.7686615-31.7541351,0s-8.7686653-22.9854736-0.0000038-31.7541389S56.324955,29.551178,65.0936203,38.3198395z    M37.2559471,42.2363052c-6.6056614,6.6056633-6.6056595,17.3155518,0,23.9212112s17.3155518,6.6056595,23.9212112,0   s6.6056557-17.3155518-0.0000038-23.9212112S43.8616028,35.6306458,37.2559471,42.2363052z"></path>
	<line class="st3" x1="76.1675339" y1="87.1282578" x2="82.003212" y2="81.2925797"></line>
</g>
</svg>
