<?xml version="1.0" encoding="UTF-8"?>
<!-- Generator: Adobe Illustrator 26.2.1, SVG Export Plug-In . SVG Version: 6.00 Build 0)  -->
<svg xmlns="http://www.w3.org/2000/svg" xmlns:xlink="http://www.w3.org/1999/xlink" version="1.1" id="Ebene_1" x="0px" y="0px" width="87px" height="116.1253281px" viewBox="0 0 87 116.1253281" xml:space="preserve">
<style type="text/css">
	.st0{fill:none;stroke:#F28800;stroke-width:3;stroke-linecap:round;stroke-linejoin:round;stroke-miterlimit:10;}
	.st1{fill:none;stroke:#F28800;stroke-width:3;stroke-linecap:round;stroke-miterlimit:10;}
	.st2{fill:none;stroke:#005091;stroke-width:3;stroke-linecap:round;stroke-linejoin:round;stroke-miterlimit:10;}
</style>
<g>
	<g>
		<path class="st0" d="M48.6176605,57.4891853c-0.0063248,3.1899796-2.7378922,4.3629112-2.7378922,4.3629112l0.9675026,8.6278229    h-6.7057533l0.9675026-8.6278229c0,0-2.7410507-1.116024-2.7410507-4.7707558c0-3.550396,3.1710205-4.9699249,5.3018913-4.9699249    C45.6995659,52.1114159,48.6271439,53.6321106,48.6176605,57.4891853 M64.9944,46.3416176h-43v29.9081001h43V46.3416176z"></path>
		<path class="st1" d="M31.689867,45.5472221v-7.552681c0,0-0.5058479-10.2844582,12.0138149-10.1169052    c12.2667503,0.1644001,11.5933456,10.7903099,11.5933456,10.7903099v7.0797386"></path>
	</g>
	<path class="st2" d="M2.4522603,16.2229748c0,0,8.8881931,1.4734364,19.6968689-2.4495411   C34.3016167,9.3637266,43.4516907,1.5,43.4516907,1.5s10.9409447,8.1467695,20.252388,11.7840605   c9.3087921,3.6372824,19.9904938,2.7431688,19.9904938,2.7431688s4.3118286,49.0014496-0.39151,59.9767838   c-10.2240601,23.8552704-39.5974236,38.621315-39.5974236,38.621315S4.901804,94.4284897,2.3517389,72.0836792   C0.3783487,54.8151932,2.4522603,16.2229748,2.4522603,16.2229748z"></path>
</g>
</svg>
