<?xml version="1.0" encoding="UTF-8"?>
<!-- Generator: Adobe Illustrator 26.2.1, SVG Export Plug-In . SVG Version: 6.00 Build 0)  -->
<svg xmlns="http://www.w3.org/2000/svg" xmlns:xlink="http://www.w3.org/1999/xlink" version="1.1" id="Ebene_1" x="0px" y="0px" width="97px" height="95.533165px" viewBox="0 0 97 95.533165" xml:space="preserve">
<style type="text/css">
	.st0{fill:none;stroke:#004F90;stroke-width:3;stroke-linecap:round;stroke-linejoin:round;}
	.st1{fill:none;stroke:#F28800;stroke-width:3;stroke-linecap:round;stroke-linejoin:round;}
</style>
<g>
	<path class="st0" d="M35.0935783,41.6735039c0-0.2316742,11.5839958-20.9670277,12.0473595-23.6313496   c0.5791969-2.2009611-0.231678-11.0047951,0-13.4374323c0.2316742-2.432637,10.5414314-7.0662346,14.7116699,3.7068796   c2.0851212,5.444478,1.2742348,11.236475,0.4633598,15.9859104c-1.1583977,6.1395226-2.780159,10.7731209-2.780159,10.7731209   l26.6431847,0.3475227c0,0,8.340477-0.6950378,9.1513519,5.4444733c0.8108749,6.1395187-3.5910492,8.4563179-3.5910492,8.4563179   s4.2860794,2.4326401,3.7068787,7.0662384c-0.6950455,5.0969582-6.023674,6.6028709-6.023674,6.6028709   s3.0118408,2.4326363,2.2009506,6.7187233c-0.9267197,4.9811172-6.9503937,5.560318-6.9503937,5.560318   s3.8227158,3.3593597,2.4326401,7.5295944c-1.3900757,4.1702423-6.3711929,4.7494354-6.3711929,4.7494354H37.5262184l0,0"></path>
	<path class="st1" d="M6.8286357,94.033165h19.4611092c3.011837,0,5.3286362-2.4326477,5.3286362-5.3286362V47.1179771   c0-3.0118332-2.4326363-5.3286324-5.3286362-5.3286324H6.8286357C3.8167989,41.7893448,1.5,44.221981,1.5,47.1179771v41.586544   C1.4999956,91.6005173,3.9326372,94.033165,6.8286357,94.033165z"></path>
	<circle class="st1" cx="16.7908745" cy="78.3947678" r="5.6761594"></circle>
</g>
</svg>
