<?xml version="1.0" encoding="utf-8"?>
<!-- Generator: Adobe Illustrator 24.2.0, SVG Export Plug-In . SVG Version: 6.00 Build 0)  -->
<svg version="1.1" id="Layer_1" xmlns="http://www.w3.org/2000/svg" xmlns:xlink="http://www.w3.org/1999/xlink" x="0px" y="0px"
	 viewBox="0 0 513.6 281.3" style="enable-background:new 0 0 513.6 281.3;" xml:space="preserve">
<style type="text/css">
	.st0{fill-rule:evenodd;clip-rule:evenodd;}
	.st1{fill:#C8232A;}
</style>
<g>
	<g>
		<g>
			<rect y="236.6" width="8.5" height="39.5"/>
		</g>
		<g>
			<rect x="15.2" y="236.6" width="8.5" height="39.5"/>
		</g>
		<g>
			<path d="M57.1,261.6v8.3c-2.2,0.4-4.5,0.8-7.9,0.8c-7.5,0-11.1-5.5-11.1-14.4c0-8.9,3.6-14.4,11.1-14.4c4.6,0,7.9,1.7,7.9,6.7h9
				c-0.1-9.4-7.1-12.8-18.5-12.8c-7.8,0-18.5,4.9-18.5,20.6c0,15.7,10.7,20.5,18.5,20.5c5.2,0,7.2-0.2,9.1-0.4
				c3.1-0.3,5.9-0.8,8.8-1.7V255H49.3v6.6H57.1"/>
		</g>
		<g>
			<path class="st0" d="M103.3,276.1c6.1,0.4,15.9-2.4,15.9-10.2c0-5.8-3.7-9.2-8.7-10.3v-0.1c4-1.3,6.9-4.3,6.9-8.6
				c0-7.7-7.2-10.7-14.3-10.2H88.4v39.5H103.3 M96.9,252.5v-9.3h6.6c3.5,0,5.5,1.5,5.5,4.6c0,3.2-2,4.7-5.5,4.7H96.9z M96.9,269.5
				V259h6.6c4,0,6.7,0.7,6.7,5.3c0,4.5-2.7,5.3-6.7,5.3H96.9z"/>
		</g>
		<g>
			<path class="st0" d="M132.6,256.4c-0.1-1.3,0.8-3.9,3.7-3.9c2.9,0,3.8,2.2,3.8,3.4v2.6c-3.3-0.1-7.4,0-10.7,1.5
				c-5,2.1-5.9,6.8-5.9,8.7c0,5.4,3.8,8.3,9,8.3c3.7,0,6.6-1.3,8.4-4.5h0.1c0,1.1,0.1,2.4,0.3,3.7h7.4c-0.1-0.8-0.3-1.6-0.4-3v-15
				c0-8.2-6.2-10.3-11.7-10.3c-3,0-5.9,0.4-8.1,1.7c-2.2,1.3-3.7,3.4-3.7,6.9H132.6 M140,263.2c0,3.2-0.2,8.3-4.7,8.3
				c-2.3,0-4-1.6-4-3.9C131.3,263,137.1,263.1,140,263.2z"/>
		</g>
		<g>
			<path d="M163.3,248.6h-8.2V276h8.2v-16.5c0.1-4,2.4-6.3,4.9-6.3c4,0,4.9,3.3,4.9,6.3V276h8.2v-17.9c0-0.9-0.1-2.7-0.6-4.4
				c-1-4-6.3-6-9-6c-4.2,0-6.7,1.7-8.4,4.1l-0.1-0.2V248.6"/>
		</g>
		<g>
			<polyline points="196.8,236.6 188.7,236.6 188.7,276.1 196.8,276.1 196.8,261.2 196.9,261 205.2,276.1 214.8,276.1 204.7,260.3 
				214.2,248.3 205,248.3 196.9,259.8 196.8,259.7 196.8,236.6 			"/>
		</g>
		<g>
			<path d="M239.9,236.6c-2.8,7.7-5.1,14.5-5.1,22.9c0,7.6,2.3,14.8,5.1,21.8h5.5c-1.9-6.2-4.1-15-4.1-21.3c0-8.1,1.6-15.7,4.1-23.4
				H239.9"/>
		</g>
		<g>
			<polyline points="288.6,242.2 288.7,242.3 288.7,276 296.6,276 296.6,236.6 283.2,236.6 274.3,265.3 274.2,265.3 265.9,236.6 
				252,236.6 252,276 259.9,276 259.9,242.3 260.1,242.2 270.5,276 277.5,276 288.6,242.2 			"/>
		</g>
		<g>
			<path class="st0" d="M311.7,256.4c-0.1-1.3,0.8-3.9,3.7-3.9c2.9,0,3.8,2.2,3.8,3.4v2.6c-3.3-0.1-7.4,0-10.7,1.5
				c-5,2.1-5.9,6.8-5.9,8.7c0,5.4,3.8,8.3,9,8.3c3.7,0,6.6-1.3,8.4-4.5h0.1c0,1.1,0.1,2.4,0.3,3.7h7.4c-0.1-0.8-0.3-1.6-0.4-3v-15
				c0-8.2-6.2-10.3-11.7-10.3c-3,0-5.9,0.4-8.1,1.7c-2.2,1.3-3.7,3.4-3.7,6.9H311.7 M319.2,263.2c0,3.2-0.2,8.3-4.7,8.3
				c-2.3,0-4-1.6-4-3.9C310.5,263,316.3,263.1,319.2,263.2z"/>
		</g>
		<g>
			<rect x="334.3" y="236.6" width="8.2" height="39.5"/>
		</g>
		<g>
			<path d="M346,248.6v5.5h5.5v13.5c0,6,1.4,9.3,7.8,9.3c1.2,0,5.5-0.4,6.5-0.8v-4.8c-0.9,0.1-1.8,0.2-2.6,0.2c-2.8,0-3.4-1-3.4-4.6
				v-12.7h6.2v-5.5h-6.2v-8.4l-8.2,2.9v5.4H346"/>
		</g>
		<g>
			<path class="st0" d="M378.6,256.4c-0.1-1.3,0.8-3.9,3.7-3.9c2.9,0,3.8,2.2,3.8,3.4v2.6c-3.3-0.1-7.4,0-10.7,1.5
				c-5,2.1-5.8,6.8-5.8,8.7c0,5.4,3.8,8.3,8.9,8.3c3.7,0,6.6-1.3,8.4-4.5h0.1c0,1.1,0.1,2.4,0.3,3.7h7.4c-0.1-0.8-0.3-1.6-0.4-3v-15
				c0-8.2-6.2-10.3-11.7-10.3c-3,0-5.9,0.4-8.1,1.7c-2.2,1.3-3.7,3.4-3.7,6.9H378.6 M386,263.2c0,3.2-0.2,8.3-4.7,8.3
				c-2.3,0-4-1.6-4-3.9C377.3,263,383.1,263.1,386,263.2z"/>
		</g>
		<g>
			<path d="M406.4,281.3c2.9-7.7,5.1-14.5,5.1-22.9c0-7.5-2.3-14.8-5.1-21.8h-5.5c1.9,6.2,4.1,15,4.1,21.3c0,8.1-1.6,15.7-4.1,23.4
				H406.4"/>
		</g>
		<g>
			<polyline points="460.3,276.1 460.3,269.5 443.2,269.5 443.2,236.6 434.7,236.6 434.7,276.1 460.3,276.1 			"/>
		</g>
		<g>
			<path d="M461.4,248.6v5.5h5.5v13.5c0,6,1.4,9.3,7.7,9.3c1.2,0,5.5-0.4,6.5-0.8v-4.8c-0.9,0.1-1.8,0.2-2.6,0.2
				c-2.8,0-3.4-1-3.4-4.6v-12.7h6.2v-5.5h-6.2v-8.4l-8.2,2.9v5.4H461.4"/>
		</g>
		<g>
			<path class="st0" d="M505.1,251.8H505c-1.5-2.3-4.5-4-7.3-4c-8.5,0-12.9,7.2-12.9,14.6c0,7,3.7,14.5,11.8,14.5
				c3.6,0,6.6-1.4,8.4-4.7h0.1c0,1.3,0.1,2.6,0.2,3.9h8.2c-0.1-1.8-0.3-3.6-0.3-5.4v-34h-8.2V251.8 M493.3,262.4
				c0-4.2,0.7-9.1,5.9-9.1c4.4,0,5.9,5.3,5.9,9.1c0,3.7-1.5,9.1-5.9,9.1C493.9,271.4,493.3,266.6,493.3,262.4z"/>
		</g>
	</g>
	<g>
		<path class="st1" d="M386.6,94.4c0,0,0-13.5,0-18.3c0-21.8-12.5-29.1-30.1-29.1c-17.5,0-30.1,0-33.8,0c-1.2,0-2.4,0-3.5,0.1
			C299.1,18.6,266.1,0,228.7,0c-61.1,0-110.8,49.7-110.8,110.8c0,61.1,49.7,110.8,110.8,110.8c37.6,0,70.9-18.9,91-47.6
			c1,0,2,0.1,3.1,0.1c38.4,0,63.6,0,63.6,0v-73.2h-46.6v66.6h-6.3V52h6.3v42.3H386.6z M228.7,217.4c-58.8,0-106.7-47.8-106.7-106.7
			C122,52,169.9,4.1,228.7,4.1c35,0,66.1,17,85.6,43.1c-19.3,1.1-29.6,6.5-29.6,24.3v41.1c7.2,2.2,13.8,4.9,19.6,8.1
			c14.1,7.8,22.5,18.2,23.7,28.8c-0.4,1.1-0.8,2.2-1.3,3.3c0-0.3,0-0.5,0-0.8c0-0.1,0-0.2,0-0.3h-12.3c-0.2,6.1-1.8,10.9-3.8,14.6
			c0,0.5,0.1,1.2,0,1.9h7.7c-0.3,0.5-0.7,1-1,1.5h-7.1c-0.1,0.2-0.2,0.3-0.3,0.5c-0.7,0.9-2.1,1.8-3.2,2.6c2.3,0.4,5,0.7,7.9,0.9
			C295.3,200.2,264,217.4,228.7,217.4z"/>
		<rect x="178" y="47" class="st1" width="48.1" height="26.8"/>
		<rect x="231.3" y="47" class="st1" width="48.1" height="26.8"/>
		<path class="st1" d="M214.5,170.9c0.1-0.2,0.3-0.6,0.5-1.1h-2.5c0.2,0.8,0.5,1.5,0.7,2.2C213.9,171.6,214.4,171.2,214.5,170.9z"/>
		<path class="st1" d="M195.1,136.3c-0.5,0.2-0.8,0.5-0.9,1.1c-0.1,0.7-0.2,1.1,0.4,0.7c0.3-0.2,0.7-0.4,0.9-0.5
			c0.1-0.4,0.3-0.8,0.5-1.2C195.7,136.3,195.3,136.1,195.1,136.3z"/>
		<path class="st1" d="M216.4,166.3c0.1-0.7,1.2-2.3,1.6-2.2c0.4,0.1,1,0,1-1.3c0-1.2,0.8-3.7,1.3-4.6c0.5-0.9,1-2.1,0.1-2.7
			c-0.9-0.6-1.3-0.7-1.3-0.7c-0.7-0.2-1.4-0.5-1.9-1.3c-0.4-0.5-1.1-1.3-1.8-1.8h-5.9c0.3,6.6,1.6,12.4,2.7,16.6h3.6
			C216.1,167.4,216.3,166.6,216.4,166.3z"/>
		<path class="st1" d="M205,163.3c0.3,1,1.2,3.7,1.4,5h4.2c-1.2-4.2-2.4-10-2.7-16.6h-9.2c-0.5,0.5-0.8,1.2-0.6,2
			c0.5,1.5,1.5,2.4,1.6,2.9c0,0.5,0.6,2.1,1.2,3.2c0.6,1.1,1.3,2.1,1.8,2.1C203.3,161.9,204.7,162.2,205,163.3z"/>
		<path class="st1" d="M220.7,162.2c0,1.5-0.4,2.9-1.4,3.4c-1,0.5-1.5,0.9-1.6,1.9c0,0.3-0.1,0.5-0.2,0.8h7.1
			c-0.5-4.2-1-9.8-1.2-16.6h-5.6c0.3,0.3,0.8,0.7,1.4,1c1.1,0.5,4.5,2.1,3.6,3.7C221.9,157.9,220.7,160.7,220.7,162.2z"/>
		<path class="st1" d="M204.5,168.3c0.1-0.3,0.2-0.7,0-1.1c-0.3-0.6-0.5-2.2-0.7-2.7c-0.2-0.4-0.5-1.1-1-1.1c-0.5,0-1.3-0.1-2-1.1
			c-0.7-1-1.6-1.9-2-3c-0.4-1.1-0.8-2.1-1.1-2.7c-0.3-0.6-1-2.3-1.2-3.2c-0.1-0.7,0.1-1.2,0.4-1.6h-2.4c0.2,6.8,2,12.6,3.9,16.6
			H204.5z"/>
		<path class="st1" d="M206.1,169.8c-0.2,0.8-0.3,1.8,0.2,2.8c0.8,1.5,1.3,1.6,1.9,1.6h2.3c0.5,0,1-0.2,1.3-0.9
			c0-0.1,0.1-0.2,0.3-0.4c-0.3-0.9-0.7-1.9-1-3.2H206.1z"/>
		<path class="st1" d="M209.1,117.5c0.8-0.8,1.6-1.5,2.3-2.1c-0.2-0.1-0.4-0.3-0.8-0.3c-0.5-0.1-0.6-0.4-1.1-1.1
			c-0.2-0.3-0.5-0.5-0.8-0.6c-1.7,0.9-4.1,2.3-6.9,4.2C202.9,117.5,206,117.5,209.1,117.5z"/>
		<path class="st1" d="M199.3,119.2c-4.6,3.4-9.7,7.9-13.6,13.3h11.9c2.8-5.4,6.4-9.9,9.7-13.3H199.3z"/>
		<path class="st1" d="M224.8,146c0,1.5,0,2.8,0.1,4.2h1.2v-16.1h-0.2C225.2,137.8,224.8,141.9,224.8,146z"/>
		<path class="st1" d="M226.1,167.3v-15.6h-1.2C225.1,158.1,225.6,163.3,226.1,167.3z"/>
		<path class="st1" d="M196.4,141.6c-0.2-0.1-0.4-0.3-0.5-0.4c-0.2,0.8-0.4,1.5-0.6,2.3c0.4,0.1,0.7,0.3,1,0.4
			c0.9,0.3,1,0.1,1.2-0.5C197.6,142.8,196.9,142.1,196.4,141.6z"/>
		<path class="st1" d="M200.4,134.4c-0.7-0.1-1.5-0.1-1.2,0.6c0.4,0.6,0.6,1.3,1.2,0.7C200.8,135,201.1,134.5,200.4,134.4z"/>
		<path class="st1" d="M185.8,134.7c0.1,0.7,0.5,1.6,0.7,2.4c0.3,0.7,0.6,1.1,1.1,1.2c0.4,0.1,0.7,0.7,0.9,1.3
			c0.2,0.6,1.4,1.4,3.1,2.4c0.7,0.4,1.5,0.8,2.2,1.2c0.2-1,0.5-2,0.7-2.9c-0.5-0.4-1.2-0.1-1.7,0.5c-0.6,0.7-0.6-0.7-0.6-1.4
			c-0.1-0.7,0-1.3,0.2-1.9c0.2-0.6,0.4-1.6,1.1-2.2c0.4-0.3,1-0.8,1.4-1h-9.1C185.8,134.3,185.8,134.5,185.8,134.7z"/>
		<path class="st1" d="M212.4,149.5c-0.3-0.4-1.6-2-2.4-1.8c-0.2,0-0.4,0.1-0.6,0.1c0,0.1,0,0.2,0,0.4c0,0.7,0,1.4,0,2h3.6
			C212.7,150,212.5,149.7,212.4,149.5z"/>
		<path class="st1" d="M211.1,128.2c-0.8,0-1.7,0.6-2.2,1.1c-0.5,0.5-0.8,0.8-1.4,0.8c-0.6,0-0.6,0.8-0.9,1.3
			c-0.3,0.5-1.1,0.7-1.3,1.2h5.3c0.6-1.6,1.2-3.2,1.8-4.7C211.9,128.1,211.4,128.2,211.1,128.2z"/>
		<path class="st1" d="M198.5,149.1c-0.4-0.3-0.6-0.9-0.6-1.4c0-0.5-0.2-0.7-0.9-1.5c-0.6-0.6-1.5-1-1.9-1.1c-0.3,1.6-0.4,3.3-0.5,5
			h3.7C198.5,149.7,198.8,149.3,198.5,149.1z"/>
		<path class="st1" d="M198.3,137.1c0.4-0.5-0.1-0.9-0.6-0.9c-0.2,0.3-0.3,0.7-0.4,1C197.5,137.3,198,137.4,198.3,137.1z"/>
		<path class="st1" d="M219.2,115.7c0.6-0.6-0.3-1-1-1.5c-0.5-0.3-1.2-0.8-1.6-1.1c0,0,0,0.1-0.1,0.1c-0.1,0.1-2.3,1.6-5.3,4.4
			c2.4,0,4.4,0,4.7,0c1,0,1.8-0.1,1.9-0.3C218,116.9,218.7,116.2,219.2,115.7z"/>
		<path class="st1" d="M223.3,119.2c-0.9-0.4-1.7-0.2-2.3-0.2c-0.6,0-1.2-0.2-1.5,0.6c-0.3,0.8-1.1,1.9-1.2,2.2
			c-0.2,0.3-0.5,0.3,0.1,1.3c0.6,1.1,0.9,1.5-0.2,2.1c-1.2,0.6-1.7,0.4-2.4,0.6c-0.4,0.1-0.7,0.4-1,0.7c-0.9,1.8-1.8,3.8-2.6,6h12.5
			c0.4-2.3,0.9-4.4,1.4-6.4v-6.9c-0.1,0-0.2,0-0.3,0.1C225.1,119.6,224.2,119.6,223.3,119.2z"/>
		<path class="st1" d="M190.4,122.6c-0.2,0.5-0.5,0.7-0.7,0.9c-0.3,0.1-0.3,0.9-0.4,1.3c0,0.2,0.2,0.5,0.4,0.7
			c2.2-2.3,4.6-4.3,6.9-6.1c-0.6-0.1-1.6-0.3-2.4-0.3c-1.1,0-2-0.2-2,0.7c-0.1,0.9-0.3,1.2-0.8,1.5
			C190.9,121.6,190.6,122.1,190.4,122.6z"/>
		<path class="st1" d="M185.8,117.5c0.5,0.2,1.1,0.1,2.4-0.4c1.2-0.5,2.5-1,3-1.4c0.2-0.2,0.4-0.5,0.5-0.8c-2.5,0.8-4.8,1.6-6.7,2.4
			C185.3,117.3,185.7,117.4,185.8,117.5z"/>
		<path class="st1" d="M179.5,150.2H193c0.1-1.9,0.3-3.8,0.5-5.6c-0.5-0.3-1.1-0.6-1.5-0.8c-0.9-0.5-3.4-1.8-4.4-2.8
			c-0.9-0.9-3.3-3.8-3.7-5.7C181.3,139.7,179.6,144.7,179.5,150.2z"/>
		<path class="st1" d="M187.9,126.3c-0.7,0.3-1.4,0.9-1.9,1.2c-0.5,0.3-0.7,0.6-0.6,1.5c0,0.6,0,1.1,0.2,1.3c1-1.3,2.1-2.5,3.2-3.7
			C188.6,126.3,188.3,126.2,187.9,126.3z"/>
		<path class="st1" d="M208.3,111.8c1.3-0.7,2.1-1.1,2.1-1.1c0.4-0.2,0.8,0,1,0.4c0.2,0.4,0,0.8-0.4,1c0,0-0.2,0.1-0.5,0.2
			c0.1,0.3,0.3,0.5,0.6,0.7c0.7,0.2,1.3,0.2,1.3,0.2s0.6,0.3,0.9,0c0.3-0.3,1.9-1.6,3-1.6c1.1-0.1,1.8-0.7,2.2-0.9
			c0.3-0.2,1-0.4,1.3-0.4c0.4,0,0.9-0.4,1.1-0.7c0.1-0.1,0.3-0.3,0.6-0.6c-5.1,0.5-9.7,1.2-13.9,2
			C207.8,111.2,208,111.6,208.3,111.8z"/>
		<path class="st1" d="M202.7,113.3c-0.9-0.1-1.8-0.1-2.4,0.2c-0.6,0.3-1.5,0.9-2,0.8c-0.5-0.1-1.2,0.5-2.2,0.9
			c-0.9,0.4-3,1.3-3.5,1.5c-0.6,0.3-1.4,0.9-0.2,0.9c1.1,0,3.9-0.1,4.5,0c0.6,0.1,1.4,0,2-0.5c0.5-0.5,3.6-2.4,3.6-2.4
			C203.1,114.3,203.5,113.4,202.7,113.3z"/>
		<path class="st1" d="M222.7,112.4c-0.3-0.1-0.7-0.2-1.3-0.3c-1.1-0.1-3-0.1-2.1,0.7c0.7,0.6,1.3,1,1.9,1.2
			C222.1,113,222.7,112.4,222.7,112.4C222.7,112.4,222.7,112.4,222.7,112.4z"/>
		<path class="st1" d="M196.7,168.3c-1.8-4.1-3.6-9.8-3.7-16.6h-13.5c0.2,7.1,2.3,12.7,4.5,16.6H196.7z"/>
		<path class="st1" d="M178,151.7L178,151.7v16.6h4.2C180.1,164.3,178.1,158.7,178,151.7z"/>
		<path class="st1" d="M204.3,169.8h-5.1c1.4,2.8,2.7,4.5,2.9,4.8h3.4c-0.3-0.5-0.6-1.1-0.8-1.9
			C204.4,171.5,204.3,170.5,204.3,169.8z"/>
		<path class="st1" d="M202.1,141.2c-0.7-0.4-1-0.8-1.5-0.8c-0.5,0-0.8-0.7-0.8-0.7s-0.8-0.4-1.2-0.3c-0.4,0.2-0.9,0.9-0.4,1.2
			c0.5,0.2,0.8,0.5,1.1,1.2c0.3,0.6,0.9,1.6,0.9,1.6H199c0,0-0.2,1.5,0.6,1.5c0.8,0,1.4-0.8,2-0.6c0.6,0.2,0.9,0.6,1.9,0.2
			c0.9-0.3,1.8-0.5,2.8-0.2c0.7,0.2,1.3,0.3,1.7,0.3c0.3-3.7,1-7.2,2-10.5H205c-0.1,0.4-0.3,0.6-0.8,0.6c-1.1-0.1-1.7,0.2-2,1.1
			c-0.2,0.8-0.3,1.5,0.5,2.3c0.8,0.8,2.1,2.5,1.5,3.1C203.7,141.8,202.8,141.6,202.1,141.2z"/>
		<path class="st1" d="M182.9,134.1h-5v16.1l0,0C178.1,144.2,180,138.8,182.9,134.1z"/>
		<path class="st1" d="M178,169.8v4.8h8.5c-0.9-1-2.1-2.6-3.4-4.8H178z"/>
		<path class="st1" d="M178,118.7c6.9-3.4,22.8-9.8,48.1-11.6V77.3H178V118.7z"/>
		<path class="st1" d="M180.7,120.9c-0.3-0.5-0.6-1.1-0.9-1.5c-0.7,0.3-1.3,0.6-1.9,0.9v3.8c0.9-0.6,2.5-1.5,2.7-1.8
			C181.1,122,181.3,121.8,180.7,120.9z"/>
		<path class="st1" d="M183.8,130.3c-0.1-1.2-0.1-2.9,0.6-3.5c0.7-0.6,3-2,3.3-2.5c0.3-0.5,0.1-1.4,0.4-1.7c0.3-0.4,0.7-0.8,0.5-1
			c-0.2-0.2,0-0.5,0-0.5s0.6-0.4,1.2-0.6c0.6-0.2,0.7-1-0.4-0.6c-1,0.4-1.4,0.8-1.7,1c-0.2,0.2-0.6,0.2-1,0c-0.3-0.2-1.2,0-1.9,0.6
			c-0.8,0.5-5.5,3.8-6.2,4.5c-0.2,0.2-0.4,0.4-0.6,0.6v6.1h5.8C183.8,131.7,183.9,131,183.8,130.3z"/>
		<path class="st1" d="M184.8,169.8c1.9,3.1,3.6,4.7,3.7,4.7c0,0,0,0,0,0.1h11.7c-0.7-1-1.7-2.6-2.8-4.8H184.8z"/>
		<path class="st1" d="M207.9,150.2c0-0.7,0-1.4,0-2c0-0.1,0-0.2,0-0.3c-0.3,0-0.6-0.1-0.8-0.1c-0.6-0.1-4.2,0-5.6,0
			c-1.4,0-1.4,0.3-1.2,0.7c0.1,0.4,0.3,1.2,0.1,1.8H207.9z"/>
		<path class="st1" d="M209.5,145.2c0.2,0.3,0.4,0.6,0.9,0.9c1.1,0.6,2.5,1.6,3.7,2.4c0.8,0.6,1.8,1.2,2.5,1.7h6.8
			c0-1.4-0.1-2.7-0.1-4.2c0-4.2,0.4-8.2,1-12h-12.7C210.5,137.5,209.7,141.2,209.5,145.2z"/>
		<path class="st1" d="M216.9,169.8c-0.2,0.6-1.1,1.9-1.7,2.6c-0.4,0.5-1,1-1.2,1.6c0.1,0.2,0.2,0.4,0.2,0.6h11.3
			c-0.2-1.1-0.5-2.7-0.7-4.8H216.9z"/>
		<path class="st1" d="M206,145.8c-0.3-0.2-0.5-0.3-1.2-0.1c-0.7,0.2,0,0.4,0.7,0.4C205.9,146.2,206.3,146,206,145.8z"/>
		<path class="st1" d="M215.9,124.3c0.2,0,0.3,0,0.5,0c0.7-0.1,0.4-0.4,0.2-0.7c0-0.1-0.1-0.2-0.1-0.3
			C216.3,123.6,216.1,124,215.9,124.3z"/>
		<path class="st1" d="M209.5,119.2c-3.3,3.3-7.2,7.8-10.1,13.3h4.2c-0.1-0.5,0.3-1.1,0.7-1.4c0.5-0.4,0.6-0.8,0.7-1.3
			c0.1-0.5,0.8-0.9,1.2-1c0.4-0.1,1.1-0.2,1.4-0.6c0.3-0.4,0.7-0.7,1-0.9c0.3-0.2,0.6-0.3,0.8-1.2c0.1-0.9,1.3-0.5,1.7-0.2
			c0.4,0.4,0.5,0.6,1.3,0.3c0.7-0.4,0.8-1,0.4-1.4c-0.4-0.4-0.1-0.6,0.5-0.6c0.3,0,0.8-0.1,1.2-0.2c1-1.8,2-3.4,2.9-4.8H209.5z"/>
		<path class="st1" d="M183.9,119.2c-0.7,0.4-2,0.6-1.8,0.9c0.3,0.3,0.5,0.4,1.3,0.1C184.1,119.9,184.6,118.9,183.9,119.2z"/>
		<path class="st1" d="M223.9,110c-0.4,0.3-0.4,0.5,0,0.7c0.4,0.2,1.2,0.7,0.9,1.3c-0.2,0.3-0.6,0.7-0.8,0.9c0,0.2-0.1,0.4-0.2,0.5
			c0,0-0.1,0.2-0.4,0.4c0.1,0.3,0.2,0.6,0.2,1c0,0.7,0,2.1,0.7,2.4c0.7,0.2,1.1,0.2,1.5-0.3c0.1-0.1,0.2-0.3,0.3-0.5v-6
			c-0.1-0.1-0.3-0.2-0.5-0.3C225,110,224.3,109.7,223.9,110z"/>
		<path class="st1" d="M231.3,106.8c2.9-0.1,5.8-0.2,8.9-0.2c14,0,27.3,1.6,39.2,4.6V77.3h-48.1V106.8z"/>
		<path class="st1" d="M243.5,151.7c0.1,0.7,0.3,1.6,0.8,2.4c0.7,1.3,1.7,3.9,1.1,5.7c-0.7,1.8-1.1,2.5-0.4,3.9
			c0.7,1.4,1.2,2.4,1.2,3.4c0,0.3,0,0.7,0,1.1h6c0.4-3.7,0.8-9.1,0.9-16.6H243.5z"/>
		<path class="st1" d="M240.5,149.7c-0.1,0.1-0.4,0.3-0.8,0.5h1.8c0-0.1,0-0.2,0-0.3C241.5,149.5,241.1,149.1,240.5,149.7z"/>
		<path class="st1" d="M255.1,134.1c0,0.6,0.1,1.2,0.4,1.6c0.8,0.9,1.2,1.9,2.2,2.7c1,0.7,3,1.6,2.9,2.4c-0.1,0.8-0.4,1.9,1.5,2.1
			c1.9,0.2,2.6-0.4,3.1-0.8c0.5-0.4,1.8-0.8,2.3-1.7c-0.4-2.2-0.9-4.3-1.6-6.4H255.1z"/>
		<path class="st1" d="M279.4,174.5v-2.3c-0.6,1-1.2,1.8-1.6,2.3H279.4z"/>
		<path class="st1" d="M278.1,150.2c-0.1-0.3-0.2-0.6-0.2-0.8c0-0.5-0.3-1.7-0.9-1.7c-0.6,0-1.3,0.1-1.7-0.8
			c-0.4-0.9-2.3-6.5-3.5-7.1c-0.9-0.5-2.2-0.7-2.9-0.6c0.5,2.4,0.7,4.9,0.7,7.5c0,1.2,0,2.4-0.1,3.5H278.1z"/>
		<path class="st1" d="M268.4,137.1c0.7,0.1,1.9,0.5,2.9,0.8c1.6,0.5,2.3,1,2.7,2c0.4,1,1.6,3.6,2,4.4c0.4,0.8,0.5,1.8,1,0.9
			c0.4-0.9,1.2-3.3,1.7-3.6c0.2-0.1,0.5-0.3,0.8-0.5v-7.1h-11.9C267.8,135.1,268.1,136.1,268.4,137.1z"/>
		<path class="st1" d="M234,121c1.4-0.8,1.3-1.1,1.5-1.3c0.2-0.3,0.7-0.1,0.7-0.1l0.7-0.6c0,0-4.3,0-4.6,0c-0.3,0-0.6,0.1-0.6,1
			c0,0.7,0,9.8,0,12.5h1.5c0.1-0.1,0.2-0.2,0.3-0.3c0.3-0.3,0.4-0.5,0.2-1.1c-0.2-0.6-0.9-3.9,0.1-4.6c1.1-0.6,2.5-1.3,1.4-1.9
			C234.2,123.9,232.6,121.8,234,121z"/>
		<path class="st1" d="M231.8,153.2v15h6.1v-16.6h-6.1C231.8,152.5,231.8,153.2,231.8,153.2z"/>
		<path class="st1" d="M253,148.2c0-5-0.5-9.8-1.2-14.1h-12.3v14.2c0.8-0.5,1.8-0.8,2.4-0.3c0.8,0.6,1.2,1.5,1.4,2.3h9.7
			C253,149.5,253,148.9,253,148.2z"/>
		<path class="st1" d="M231.8,150c0,0.1,0,0.2,0,0.2h1.5c-0.2-0.2-0.4-0.4-0.6-0.5C232.3,149.4,231.8,149,231.8,150z"/>
		<path class="st1" d="M254.5,150.2h6.7c0.4-0.6,0.8-1.1,1.1-1.4c0.6-0.8,0.5-1.2,1-1.7c0.5-0.6,0.9-1-0.1-1.3
			c-1-0.3-3.8-1.3-4.8-2.6c-1.1-1.3-2.3-3.9-3.2-4.8c-0.9-0.9-1.2-1.6-1.3-2.3c0-0.2-0.2-0.5-0.4-0.9c0.6,4,1.1,8.5,1.1,13.1
			C254.5,148.9,254.5,149.6,254.5,150.2z"/>
		<path class="st1" d="M265.7,168.3c1-3.6,2-8.9,2.3-16.6h-5.5c-0.4,0.5-1,0.9-1.8,1.8c-1.2,1.3-2,2.3-2,3.4
			c0.1,1.1,0.7,2.4,0.7,2.9c0,0.6-0.1,0.9,0.7,1c0.8,0.1,1.2-0.2,1.3-0.5c0.2-0.3,0.5-0.9,1-0.9c0.5,0,1.4,0,1.4,1
			c0,1.1-0.1,2.1,0.2,2.7c0.3,0.6,0.3,0.8-0.3,0.9c-0.6,0.1-0.8,1.2-1.1,1.7c-0.3,0.5-0.6,1.9-0.3,2.5H265.7z"/>
		<path class="st1" d="M239.5,117.3c0.3-0.1,0.7-0.3,1-0.7c0.8-1,1.2-2.4,2-2.8c0.7-0.3,2.1-1,2.6-1.3c-0.3-0.5-0.4-0.8-0.4-0.8
			c-0.2-0.4-0.1-0.9,0.3-1c0.4-0.2,0.8-0.1,1,0.3c0,0,0.3,0.7,0.8,1.8c0.5,0.1,1,0.3,1.4,0.5c1.3,0.5,1.8,0.9,2.1,1.2
			c0.4,0.3,0.7,0.6,1.4,0.4c0.5-0.1,1.8-0.8,2.3-1.3c-1.1-1.2-1.7-1.9-1.8-1.9c-0.3-0.3-0.3-0.8,0-1.1c0.3-0.3,0.8-0.3,1,0
			c0,0,1,1,2.3,2.6c0.3,0.1,0.7,0.1,1,0c0.6-0.1,1.9-0.4,2.2-0.9c-0.7-0.5-1.1-0.8-1.2-0.8c-0.3-0.2-0.4-0.7-0.2-1.1
			c0.2-0.3,0.7-0.5,1-0.2c0.1,0.1,0.6,0.4,1.3,0.9c0.6-0.3,1.8-0.9,2.3-0.9c0.5-0.1,0.9-0.4,0.6-0.7c-7.3-1-14.9-1.5-22.7-1.5
			c-2.1,0-4.2,0.1-6.2,0.1c0,0.3,0.1,0.7,0.6,1c0.9,0.6,1.4,0.9,1.7,1.3c0.3,0.3,1,0.8,0.7,1.3c-0.4,0.6-1.2,0.3-1.5,0.4
			c-0.3,0.1-0.8,0.6-1.7,1.2c-0.9,0.6-1.5,1-1.8,1.4c-0.3,0.3-0.4,0.8-0.4,1.4c0,0.6,0,1.1,0,1.1h0.4c0,0-0.1-1.6,0.6-2
			c0.8-0.4,1.8-0.5,2.2-0.2c0.4,0.3,0.7,1.1,0.4,1.5c-0.3,0.4-0.3,0.8-0.3,0.8h3v-5.9c0-0.4,0.3-0.8,0.8-0.8c0.4,0,0.7,0.3,0.7,0.8
			V117.3z"/>
		<path class="st1" d="M260.1,152c0-0.1,0.1-0.2,0.2-0.3h-5.8c-0.1,7.5-0.5,12.8-0.9,16.6h0.5c0.1-0.6,0.2-1.5,0.5-2.3
			c0.5-1.1,1.7-2.7,2.4-3.3c0.6-0.6,1-2.6,0.7-3.7c-0.3-1.1-0.5-3.1-0.6-4.1c-0.1-1,0.6-1.2,1-1.1C258.6,154,259.8,152.8,260.1,152z
			"/>
		<path class="st1" d="M268.1,146.7c0-1.3-0.1-2.6-0.2-3.9c-0.4,0.1-0.9,0.3-1.3,0.5c-0.6,0.3-1.5,1.4-1.5,1.4s0.9,1.1-0.1,2.5
			c-0.7,1-1.4,2.2-1.8,3.1h4.8C268,149.1,268.1,147.9,268.1,146.7z"/>
		<path class="st1" d="M237.4,119.8c0.2,0.5,0.3,1,0.6,1.3v-1.3c-0.1-0.2-0.3-0.5-0.3-0.6C237.5,119,237,119.2,237.4,119.8z"/>
		<path class="st1" d="M267.2,168.3h12.2v-16.6h-9.9C269.2,159.2,268.2,164.6,267.2,168.3z"/>
		<path class="st1" d="M240.4,131.5c-0.3,0.4-0.5,0.8-0.6,1.1h4.5c0-0.6-0.2-1.3-0.9-1.6C242.1,130.3,241,130.7,240.4,131.5z"/>
		<path class="st1" d="M246.6,170.7c0.6,0.8,1.1,1.3,1.6,1.4c0.6,0.1,0.8-0.5,0.8-0.5s0.5,0,0.8,0c0.2,0,1.3-0.8,1.9-1.3
			c0-0.2,0-0.3,0.1-0.5h-5.7C246.4,170.1,246.5,170.4,246.6,170.7z"/>
		<path class="st1" d="M242.9,155.1c-0.6-1.2-1-2.4-1.2-3.4h-2.3v16.6h4.8c0.1-0.8,0.3-1.6-0.2-2.5c-0.7-1.3-1.5-2.2-0.9-4.7
			C243.8,158.6,244.1,157.6,242.9,155.1z"/>
		<path class="st1" d="M240.4,120.9c-0.2-0.1-0.6-0.1-0.9-0.2v0.9c0.2,0,0.3,0,0.5,0C240.4,121.5,240.9,121.1,240.4,120.9z"/>
		<path class="st1" d="M234.8,128.8c0,1.2,0.5,1.7,1.5,1.8c0.6,0.1,1.3-0.3,1.7-0.7v-4c-0.2,0.1-0.3,0.1-0.5,0.2
			C236.2,126.5,234.8,127.6,234.8,128.8z"/>
		<path class="st1" d="M232.4,136.2c-0.9,2.6-0.7,6.5-0.7,8c0,1.5,0,2.5,0,2.5s1.4,1.6,2.9,2c1.3,0.3,2.5,0.6,3.3,0.4v-15.1h-3.9
			C233.5,134.4,232.8,135.1,232.4,136.2z"/>
		<path class="st1" d="M232.7,112c0.4,0,1-0.3,1.3-0.6c0.3-0.4-0.1-0.8-0.5-1.2c-0.4-0.4-0.6-0.6-1-0.4c-0.4,0.1-1,0.4-0.7,0.4
			c0.2,0,0.2,0.4,0.3,0.6c0.1,0,0.2,0,0.3,0.1C232.7,111.1,232.9,111.6,232.7,112L232.7,112z"/>
		<rect x="231.8" y="169.8" class="st1" width="6.1" height="4.8"/>
		<path class="st1" d="M244.5,169.8h-5v4.8h9c-0.6-0.3-1.3-0.8-1.7-1.3C246,172.5,245,170.9,244.5,169.8z"/>
		<path class="st1" d="M251.1,174.5c0-0.2,0.1-0.3,0.1-0.5l-0.7,0.5H251.1z"/>
		<path class="st1" d="M254.9,169.8c-0.2,0.3-0.5,0.6-0.7,0.8c-0.3,0.3-0.6,0.7-1,1.1c-0.2,1.2-0.4,2.2-0.5,2.8h10.4
			c0.2-0.3,1.1-1.7,2.1-4.8H254.9z"/>
		<path class="st1" d="M266.8,169.8c-0.7,2.4-1.4,3.9-1.9,4.8h11c0,0,0,0,0,0c0-0.1,1.5-1.5,3.2-4.7H266.8z"/>
		<path class="st1" d="M267.9,110.5c0.2,0.1,0.8,0.4,1.9,1c0.2,0,0.5,0,0.8,0c0.8,0,1.1-0.3,0.9-0.5c-1.3-0.2-2.7-0.5-4.1-0.7
			c0,0,0,0.1,0,0.1c0,0-0.1,0.1-0.1,0.1C267.5,110.4,267.7,110.4,267.9,110.5z"/>
		<path class="st1" d="M276.7,113.5c-0.3-0.2-0.5-0.2-1,0.1c-0.3,0.2-0.9,0.5-1.3,0.8c1.5,1,3.2,2.1,5,3.5v-3.7
			c-0.4-0.1-0.9-0.2-1.2-0.2C277.5,114,277,113.8,276.7,113.5z"/>
		<path class="st1" d="M267.1,118.8H260c2.5,3.7,5.2,8.4,7.1,13.8h12C275.7,127.1,271.1,122.4,267.1,118.8z"/>
		<path class="st1" d="M265.5,117.4c-1.9-1.6-3.6-2.9-4.9-3.9c-0.2,0.1-0.4,0.2-0.6,0.3c-1,0.4-2,0.9-2.8,1.1
			c0.6,0.7,1.2,1.5,1.8,2.4H265.5z"/>
		<path class="st1" d="M251.3,117.4L251.3,117.4c0-0.1-1.1-1.1-2.1-1.9c-0.6-0.4-1.1-0.8-1.6-1c0.3,0.8,0.7,1.8,1.1,2.9H251.3z"/>
		<path class="st1" d="M254.9,132.1c0.1,0.2,0.1,0.3,0.2,0.5h10.4c-2-5.5-4.8-10.2-7.3-13.8h-8.8c1.2,3.3,2.4,7.5,3.5,12.4
			c0.2,0,0.3,0,0.5,0C253.8,131.1,254.4,131,254.9,132.1z"/>
		<path class="st1" d="M253.6,115.8c-0.9,0.5-1.6,0.6-1.5,1.4v0.1h5.1c-0.6-0.8-1.2-1.6-1.7-2.2
			C254.8,115.3,254.2,115.5,253.6,115.8z"/>
		<path class="st1" d="M269.4,118.8c3.4,3.2,7.1,7.1,10,11.6v-10.5c-0.5-0.4-1-0.8-1.5-1.1H269.4z"/>
		<path class="st1" d="M262.8,111.7c-0.3,0.2-0.7,0.5-1,0.8c1.6,1.2,3.7,2.8,6,4.9h8.2c-2.2-1.5-4.1-2.8-5.6-3.7
			c-0.3-0.1-0.6-0.2-0.8-0.3c-0.5-0.2-1.1,0-1.6,0c-0.5,0-1.5-0.6-2.1-1C265.3,112,263.7,111.2,262.8,111.7z"/>
		<path class="st1" d="M249.3,131.3c-0.4,0.4-0.9,0.7-1.6,0.3c-0.6-0.3-1.1-0.5-1.4-0.9c-0.3-0.3-0.8-0.2-0.6,0.5
			c0.2,0.7,0.4,1.1,1.2,1c0.8-0.1,2.4-0.2,2.8-0.1c0.4,0.2,1.3,0.1,0.9-0.6C250.1,130.8,249.8,130.9,249.3,131.3z"/>
		<path class="st1" d="M245.8,114.1c-0.4,0-0.9,0.2-1.4,0.5c-0.9,0.5-1.5,1-1.8,1.7c-0.2,0.4-0.3,0.7-0.3,0.9h4.9
			C246.7,116.1,246.2,115,245.8,114.1z"/>
		<path class="st1" d="M239.5,127.5c0.2,0.3,0.6,0.5,1,0.2c0.9-0.6,1.7-1.5,2.7-0.8c1,0.8,1.5,1.6,2.3,1.8c0.9,0.1,1.6,0.5,1.8,0.8
			c0.2,0.2,1.1,0.6,1.2,0.1c0.1-0.5,0.4-0.8,1-0.6c0.3,0.1,0.9,0.1,1.3-0.1c-0.9-3.9-2-7.2-3-9.9h-1.6c0.1,0.3,0.2,0.7,0.2,1
			c0.1,0.5,0,0.6-0.6,0.6c-0.6,0-1.4,0.3-2,0.9c-0.6,0.7-1,0.8-1.7,1c-0.8,0.2-1,0.3-1.2,0.8c-0.2,0.4-0.3,0.7-0.7,0.7
			c-0.2,0-0.5,0.3-0.8,0.6V127.5z"/>
		<path class="st1" d="M221.9,117.4c0.4,0,0.4-1-0.2-0.5C221.3,117.1,221.5,117.4,221.9,117.4z"/>
		<polygon class="st1" points="241.9,119.6 242.4,119.7 242.4,119.1 242,119.1 		"/>
		<path class="st1" d="M261.6,162.3c-0.4,0.1-0.5,0.5-0.7,0.9c-0.2,0.4-0.4,0.8-0.8,1.3c-0.4,0.5-0.9,1.1-0.5,1.9
			c0.4,0.8,0.8,1.4,0.9,0.6c0.1-0.8,0.6-2.3,0.9-2.8c0.4-0.8,0.8-1.6,0.8-1.8C262.3,162.3,261.9,162.3,261.6,162.3z"/>
		<path class="st1" d="M257.7,164.5c-0.6,0.5-1.2,0.9-1.4,1.7c-0.2,0.8-0.8,1.3,0.1,1.6c0.9,0.3,1.7,0.3,1.6-0.5
			c-0.2-0.8-0.1-2-0.1-2C258.1,164.9,258.3,164,257.7,164.5z"/>
		<path class="st1" d="M308.6,154.7c-0.8-0.6-1.7-0.8-2.1-0.8c-0.4,0,0.1,0,0.6,0.8c0.5,0.8,0.9,1.4,1.7,1.5c0.8,0.1,1.1,0,0.7-0.5
			C309.1,155.2,308.6,154.7,308.6,154.7z"/>
		<path class="st1" d="M284.7,124.4v8.2h7.3C289.9,129.6,287.3,126.8,284.7,124.4z"/>
		<path class="st1" d="M302.6,152.9c-0.6,0.6-1.4,0.5-1.4,0.3c-0.1-0.3-0.4-0.3-0.5,0.3c-0.1,0.5,0,0.7-0.6,1.6
			c-0.5,0.9-0.9,2.7-0.4,2.1c0.5-0.6,1.2-1.3,1.5-1c0.3,0.2,1.2,0.9,0.7,1.8c-0.5,0.9-1,1.6-1.6,1.6c-0.4,0-1.1-0.2-1.6-0.2
			c-0.2,1-0.4,2-0.6,3c0.5-0.4,1.4-1,2.2-1.4c1.2-0.6,4-2.7,4.7-2.2c0.6,0.5,1.3,1.4,1.6,2c0.3,0.5,0.5,0.5,0.7-0.1
			c0.1-0.6,0.7-1.7,1.2-1.9c0.5-0.2,0.8-0.6,0.1-0.8c-0.8-0.2-2-0.4-2.1-1c-0.1-0.6-0.4-1.1-0.9-1.2c-0.5-0.1-1.1-0.3-1.8,0
			c-0.7,0.3-1.3,0.2-1.6-0.5c-0.3-0.7,0-1.4,0.8-1.4c0.8,0.1,1.3,0.3,1.3,0.3s0.5-1.6,1.2-1.8c0.6-0.1,1.4-0.4,2.9,0.4
			c1.5,0.7,2.6,1.8,2.8,2.6c0.3,0.7,1,1.9,0.8,2.5c-0.2,0.6-0.5,0.8-0.9,1c-0.4,0.1-0.9,0.2-0.7,0.9c0.1,0.7,0.2,2.4,0.9,1.6
			c0,0,0,0,0,0c1-2.7,1.6-5.9,1.7-9.5h-9.4C303.3,152.1,303,152.5,302.6,152.9z"/>
		<path class="st1" d="M296.5,170.4c0.6-0.1,1.3,0.2,1.8,0.7c0.6,0.5,0.9,0.7,3,1.4c2,0.6,2.1-0.3,2.1-0.3c0.6-0.7,1.3-1.5,2-2.3
			H295C295.4,170.3,295.9,170.5,296.5,170.4z"/>
		<path class="st1" d="M300.6,130.5c-0.2,0.7,0.1,1.3-0.1,1.6c-0.1,0.1-0.1,0.3-0.1,0.5h4.4c-1-1.1-2.1-2.2-3.2-3.2
			C301.2,129.6,300.7,130.1,300.6,130.5z"/>
		<path class="st1" d="M287.4,150.2c0.2-0.3,0.2-0.6-0.2-0.7c-0.8-0.3-1.2-0.8-1.4-1.5c-0.1-0.4-0.3-0.9-0.6-1.3c0,0.3,0,0.5,0,0.8
			c0,0.9,0,1.8-0.1,2.7H287.4z"/>
		<path class="st1" d="M296.4,153.5c0.5-0.3,0.8-0.3,1.1-0.3c0.2,0,0.4,0,0.5-0.1c0-0.5,0.1-1,0.1-1.5h-3.7c-0.3,0.2-0.5,0.6,0,0.9
			C295.3,153.1,295.9,153.8,296.4,153.5z"/>
		<path class="st1" d="M297.6,149.3c-0.1-0.5-0.7-0.5-0.7,0.1c0,0.3,0,0.6,0,0.8h0.8C297.7,149.9,297.7,149.6,297.6,149.3z"/>
		<path class="st1" d="M286.9,146.1c0.4,0.7,0.6,1.5,0.6,1.5s0.9,0.3,1.2,0.7c0,0,0-0.5,0-1.2c0-0.7-0.1-1.5,0.7-1.2
			c0.8,0.3,2.4,0.8,2.4,0c0.1-0.8,0.1-2.1-0.6-3c-0.7-0.8-1.8-1.9-1.2-3c0.6-1.2,1.5-1,2-0.9c0.5,0.1,1.2,0.4,1.6-0.3
			c0.3-0.6,0.5-1.9,0.6-2.7c-0.4-0.6-0.8-1.3-1.2-1.9h-8.4v7.3c0.3,0.4,0.7,0.9,1,1.4C286.2,143.8,286.5,145.3,286.9,146.1z"/>
		<path class="st1" d="M296.6,129.1c-0.2-0.6-1.1-1.2-1.2-1.5l-0.8,1.4c0,0,0.6,0.9,1,1c0.4,0.1,1,0.8,1.1,1.4
			c0.1,0.6,0.6,1.2,0.9,0.7c0.4-0.6,0.1-1.2,0.2-1.6c0.1-0.4,0.3-0.8,0.7-0.7c0.4,0.1,0.1-0.5,0.6-0.7c0.3-0.1,0.8-0.4,1.3-0.7
			c-1.8-1.6-3.6-3.1-5.4-4.5c0.4,0.8,0.8,1.6,1,1.9c0.3,0.4,0.9,0.5,1.2,0.5c0.3,0,0.5,0.3,0.9,1.2c0.4,1,0.7,1.4,0.1,1.8
			C297.7,129.8,296.8,129.7,296.6,129.1z"/>
		<path class="st1" d="M297.1,120.5c0.8,0.4,1.6,0.8,1.6,1.9c0,0.7-0.7,1.1-1.3,1.3c3.2,2.6,6.5,5.6,9.3,8.8h11
			c-3.7-3.8-8.4-7.4-14.1-10.6c-2.3-1.2-4.7-2.4-7.2-3.6c-0.1,0.1-0.3,0.3-0.5,0.5C295.2,119.7,296.3,120.1,297.1,120.5z"/>
		<path class="st1" d="M292.6,148.1c-1.1-0.1-2.3-0.7-1.9,0.5c0.3,0.7,0.5,1.2,0.7,1.6h2.6c0.3-0.2,0.5-0.4,0.5-0.5
			c0-0.6,0.4-0.6,0.7-0.7c0.3-0.1,0.4-0.6,0.5-1c0.1-0.3,0.1-1.6,0.4-1.8c0.3-0.2,0.9-0.1,0.5-1.5c-0.3-1.4-1.1-2.3-1-3
			c0.1-0.7-0.3-3.1-0.8-2.3c-0.6,0.8-1,1.4-2,1.2c-1-0.1-1.7,0.1-1,0.7c0.6,0.6,1.6,1.6,1.6,3C293.5,145.9,293.7,148.2,292.6,148.1z
			"/>
		<path class="st1" d="M314.5,150.2h12.2c-0.5-5.5-3.1-11-7.6-16.1h-11.2C311.7,138.9,314.4,144.4,314.5,150.2z"/>
		<path class="st1" d="M309.3,164.8c0,0,0-2.1-0.1-2.6c-0.1-0.5-0.4-1-0.8-0.3c-0.5,0.7-1.6,1.9-2.3,0.9c-0.7-1.1-1.2-2.6-2.2-2
			c-1,0.6-5.3,3.1-6.2,3.6c0,0-0.1,0-0.1,0.1c-0.4,1.4-0.8,2.6-1.3,3.8h10.5c0.1-0.2,0.2-0.3,0.4-0.5
			C309.1,165.3,309.3,164.8,309.3,164.8z"/>
		<path class="st1" d="M299.4,134.1c-0.2,0.2-0.3,0.4-0.5,0.5c-0.3,0.3-0.7-0.1-1-0.5h-2.1c0,0.5,0,1,0,1.4c1.3,2.3,2.4,4.8,3,7.4
			c0.1,0.1,0.2,0.2,0.3,0.3c0.4,0.4,0.5,0.9,0.4,1.3c-0.1,0.3,0.2,0.1,0.5,0.3c0.3,0.1,0.7,0.5,0.8,1c0.2,0.6,0.5,1.1,0.8,1.5
			c0.2,0.4,0.4,0.9,0.5,1.5c0.1,0.6,0,0.7-0.5,0.6c-0.6-0.1-2.1-0.3-1.7,0.2c0.3,0.4,0.2,0.5,0.8,0.6c0.6,0.1,1-0.5,1.4-0.3
			c0.2,0.1,0.6,0.3,0.9,0.5h9.9c-0.1-5.8-3-11.2-7-16.1H299.4z"/>
		<path class="st1" d="M293,119.4c0.5,0.2,1-0.3,0.5-0.5c-0.5-0.2-1.5,0.1-1.5,0.1L293,119.4z"/>
		<path class="st1" d="M289.6,117.4c1.5,0,2.5-0.1,2.5-0.1l-1.1-0.7c-1-0.3-2.9-0.6-3.6-0.8c-0.7-0.1-1.8-0.3-0.4,0.5
			C288.4,117,288,117.4,289.6,117.4z"/>
		<path class="st1" d="M292,129.9c0.2,0,0.4-0.1,0.5-0.1c0.3,0,0.5-0.3,0.4-0.8c-0.1-0.5,0.4-1.4,0.6-1.8c0.2-0.4,0.1-1.3,0.5-1.4
			c0,0-0.6-1.8-1.9-2.5c-1.4-0.7-1.6-1-2.3-1.1c-0.7-0.1-1.5-0.8-1.1-1.7c0.2-0.4,0.3-0.6,0.5-0.8c-0.4-0.3-0.9-0.6-1.3-0.9h-3.1
			v3.5C287.2,124.5,289.7,127.1,292,129.9z"/>
		<path class="st1" d="M296.4,163.1c0.6-2.1,1-4.4,1.4-6.9l-0.8-0.9c0,0-1.1,0.2-1.7-0.2c-0.6-0.4-1.6-0.8-2.1-1.2
			c-0.5-0.3-1.4-0.8-1.1-1.4c0.1-0.3,0.1-0.6,0.2-0.8h-1.1c-0.1,0.4,0,0.8,0.2,1.2c0.5,0.7,1,1.4,0.6,2.2c-0.4,0.8-0.8,1.2-1.7,0.8
			c-0.9-0.4-1.9-1.7-2.5-2.9c-0.2-0.5-0.4-1-0.6-1.3h-1.9c0,0.6-0.1,1.1-0.1,1.7c0.6,4.7,2.1,9.2,6.1,12.8c0.2-0.3,0.5-0.5,0.8-0.7
			c1.4-0.5,2.5-1.3,3.2-1.6C295.6,163.9,296,163.5,296.4,163.1z M294.3,158.2c-0.6,0.2-1.1-0.2-2-0.6c-0.9-0.3-0.9-1.3-0.3-1.8
			c0.5-0.5,2-0.3,3.4,0c1.4,0.3,0.5,1.6-0.3,2C295.1,157.8,294.9,158,294.3,158.2z"/>
		<path class="st1" d="M293.7,166.5c-0.8,0.5-1.1,0.9-0.8,1.1c0.2,0.3,0.9,0.2,1.3-0.5C294.4,166.6,294.5,166,293.7,166.5z"/>
	</g>
</g>
</svg>
