<svg id="Layer_1" data-name="Layer 1" xmlns="http://www.w3.org/2000/svg" viewBox="0 0 501 193"><defs><style>.cls-1{fill:#2b0a57;}</style></defs><path class="cls-1" d="M270,96.93c0-18.76-14.62-34-32.65-34a31.6,31.6,0,0,0-12.74,2.68V78.29A20.93,20.93,0,0,1,236,75c11.89,0,21.55,9.9,21.55,22.12s-9.66,22.13-21.55,22.13-21.55-9.9-21.55-22.13V35.67H201.12V128.9h13.29v-7.79a31.9,31.9,0,0,0,22.92,9.79c18,0,32.65-15.21,32.65-34"/><path class="cls-1" d="M334.6,128.88h13.29V64.51H334.6V97.07c0,12.22-9.7,22.12-21.6,22.12s-21.55-9.9-21.55-22.12S301.09,74.94,313,74.94a21,21,0,0,1,11.42,3.38V65.67A31.35,31.35,0,0,0,311.62,63c-18,0-32.64,15.2-32.64,34s14.62,34,32.64,34a31.9,31.9,0,0,0,23-9.83v7.84Z"/><rect class="cls-1" x="359.66" y="64.46" width="13.33" height="64.44"/><path class="cls-1" d="M394.85,63a29.63,29.63,0,0,0-11.65,2.28V77.26a21.25,21.25,0,0,1,8.46-1.6,16.14,16.14,0,0,1,16.21,16.06v37.16h13.32V89.13A26.23,26.23,0,0,0,394.85,63Z"/><path class="cls-1" d="M96.89,4.44C45.82,4.44,4.44,45.57,4.44,96.29s41.39,91.86,92.45,91.86S189.35,147,189.35,96.29,148,4.44,96.89,4.44Zm-48.32,33A8.5,8.5,0,1,1,40,46,8.53,8.53,0,0,1,48.57,37.47Zm31.48,91.09a29.41,29.41,0,0,1-11.64,2.29,26.2,26.2,0,0,1-26.28-26.11V64.4h13.3v37.74a16.12,16.12,0,0,0,16.18,16.07,21.19,21.19,0,0,0,8.44-1.6v12Zm23.49.39H90.24V64.39h13.3Zm18.64-53.49a21.23,21.23,0,0,0-8.45,1.6v-12a29.41,29.41,0,0,1,11.64-2.29,26.2,26.2,0,0,1,26.28,26.11v40h-13.3V91.52A16.13,16.13,0,0,0,122.18,75.46Zm23,80.74a8.5,8.5,0,1,1,8.55-8.49A8.52,8.52,0,0,1,145.2,156.2Z"/><polygon class="cls-1" points="467.43 92.03 489.99 62.96 474.53 62.96 452.25 92.03 452.25 92.46 480.36 128.9 496.95 128.9 467.43 92.03"/><rect class="cls-1" x="432.96" y="35.67" width="13.33" height="93.23"/></svg>