<svg id="Layer_1" data-name="Layer 1" xmlns="http://www.w3.org/2000/svg" xmlns:xlink="http://www.w3.org/1999/xlink" viewBox="0 0 1117.49 302.85"><defs><style>.cls-1{fill:#001d30;}.cls-2{fill:url(#linear-gradient);}.cls-3{fill:url(#linear-gradient-2);}.cls-4{fill:#fff;}.cls-5{fill:none;}</style><linearGradient id="linear-gradient" x1="108.57" y1="237.83" x2="268.82" y2="77.58" gradientUnits="userSpaceOnUse"><stop offset="0" stop-color="#fff"/><stop offset="0.09" stop-color="#e9f2d8"/><stop offset="0.22" stop-color="#cae1a3"/><stop offset="0.35" stop-color="#b0d175"/><stop offset="0.49" stop-color="#9ac54f"/><stop offset="0.62" stop-color="#89bb32"/><stop offset="0.75" stop-color="#7eb41e"/><stop offset="0.88" stop-color="#76b011"/><stop offset="1" stop-color="#74af0d"/></linearGradient><linearGradient id="linear-gradient-2" x1="92.98" y1="222.3" x2="254.12" y2="61.16" gradientUnits="userSpaceOnUse"><stop offset="0" stop-color="#21c6be"/><stop offset="1" stop-color="#001d30"/></linearGradient></defs><title>IZ Bank logo - HOR - SPOT_a-01</title><path class="cls-1" d="M1017,199.14c0-.06,0-.11,0-.18l-16-33.94-6.3-13.31,19.31-22.48a2.41,2.41,0,0,0,.79-2.09c-.14-.63-.89-.94-2.23-.94H994.92a6.56,6.56,0,0,0-2.81.43,9.41,9.41,0,0,0-1.94,1.59l-20.6,24.49-.58-.29V99.11a3.49,3.49,0,0,0-.43-2.16,4.13,4.13,0,0,0-2.45-.43h-15a4,4,0,0,0-2.3.51c-.49.33-.72,1-.72,2.08v100c0,1.83,1,2.74,3,2.74H966c1.35,0,2.19-.2,2.52-.58a3.34,3.34,0,0,0,.51-2.16c0-1.25,0-2.74.07-4.47s.07-3.48.07-5.26v-8.71l11-12.39,9.55,21.51.64,1.43a19,19,0,0,0,17,10.63h7.52C1016.94,201.85,1017.65,200.93,1017,199.14Z"/><path class="cls-1" d="M765.1,146.66a22.92,22.92,0,0,1,7,4.25,24.48,24.48,0,0,1,4.83,5.91,25.24,25.24,0,0,1,2.73,7,32.46,32.46,0,0,1,.87,7.35,28.55,28.55,0,0,1-10,22.19,33.92,33.92,0,0,1-11,6.26,39.79,39.79,0,0,1-13.47,2.24H709.91c-3.45,0-5.76-.7-6.91-2.09s-1.73-3.63-1.73-6.7V109.78c0-3.08.58-5.33,1.73-6.78s3.46-2.16,6.91-2.16h35.31a49.93,49.93,0,0,1,12.17,1.44,28.18,28.18,0,0,1,9.87,4.54,21.61,21.61,0,0,1,6.56,7.93,26.09,26.09,0,0,1,2.37,11.6,22,22,0,0,1-3.09,11.31,21.29,21.29,0,0,1-8,8ZM723.17,139h19.6a17.49,17.49,0,0,0,3.67-.43,10.3,10.3,0,0,0,3.53-1.5,8.1,8.1,0,0,0,2.6-3,10.62,10.62,0,0,0,1-4.93,8.53,8.53,0,0,0-2.73-6.72,10.69,10.69,0,0,0-7.35-2.43H723.17Zm34.73,30.69a12.82,12.82,0,0,0-3.53-9.37q-3.54-3.6-10.45-3.6H723.17v25.79h20.75a16.48,16.48,0,0,0,6.77-1.23,11.79,11.79,0,0,0,4.32-3.09,11,11,0,0,0,2.24-4.18A16.13,16.13,0,0,0,757.9,169.72Z"/><path class="cls-1" d="M856.43,192.48a8.67,8.67,0,0,1-.51,3.17,5.37,5.37,0,0,1-2.51,2.45,40,40,0,0,1-7.12,2.59,69.27,69.27,0,0,1-7.76,1.59q-4,.57-8,.86t-7.62.29a58.64,58.64,0,0,1-16.18-1.87,28.35,28.35,0,0,1-10.28-5.12,17.57,17.57,0,0,1-5.46-7.63,29.15,29.15,0,0,1,.29-19.74,22.1,22.1,0,0,1,5.62-8.14,26.15,26.15,0,0,1,9.44-5.41,41.91,41.91,0,0,1,13.47-1.94h15.85v-2.31a17.77,17.77,0,0,0-.43-3.89,6.59,6.59,0,0,0-1.81-3.24,10,10,0,0,0-3.81-2.23,19.9,19.9,0,0,0-6.49-.87c-1.44,0-3.07.08-4.9.22s-3.65.34-5.47.58-3.6.53-5.33.86-3.27.7-4.61,1.08a3.81,3.81,0,0,1-2.6,0,2.71,2.71,0,0,1-1-1.87l-2.3-10.09a3.2,3.2,0,0,1-.07-2.23,2.75,2.75,0,0,1,1.51-1.08A69.88,69.88,0,0,1,812,125.19a101.47,101.47,0,0,1,14.19-1q15.66,0,23,6.69t7.3,19.82Zm-20.9-24.93H824.15a35.32,35.32,0,0,0-4.32.29,11.73,11.73,0,0,0-4.25,1.37,9,9,0,0,0-3.24,3.1,10,10,0,0,0-1.3,5.47q0,5.06,3.39,7.06t9.14,2c.58,0,1.35,0,2.31-.07s2-.15,3.1-.29,2.23-.33,3.39-.57a19.25,19.25,0,0,0,3.16-.94Z"/><path class="cls-1" d="M898.52,141.62c-1,0-2.34,0-4.11.07a36.38,36.38,0,0,0-5.69.65v56.91a3,3,0,0,1-.51,2.09,3.93,3.93,0,0,1-2.52.51H870.85a4,4,0,0,1-2.3-.51,2.42,2.42,0,0,1-.73-2.09V137.44a14.73,14.73,0,0,1,1.73-7.71q1.73-2.8,7.19-4a39.54,39.54,0,0,1,4.1-.51l5.68-.43q3-.21,6-.36c2-.09,3.67-.14,5.11-.14a65.91,65.91,0,0,1,17.4,2,29,29,0,0,1,12.14,6.41,26.58,26.58,0,0,1,7.19,11.53,55.43,55.43,0,0,1,2.38,17.36v37.6a3.08,3.08,0,0,1-.5,2.09,3.93,3.93,0,0,1-2.51.51H918.81a4,4,0,0,1-2.29-.51,2.42,2.42,0,0,1-.71-2.09v-38.9a37,37,0,0,0-.8-8.21,14.11,14.11,0,0,0-2.73-5.84,11.54,11.54,0,0,0-5.34-3.53A26.33,26.33,0,0,0,898.52,141.62Z"/><path class="cls-1" d="M541.93,163.67q0,19-9.08,29.39t-27.66,10.37q-18.74,0-27.38-10.37T469.17,164a51.59,51.59,0,0,1,2.52-16.64,34.23,34.23,0,0,1,7.2-12.46,31.57,31.57,0,0,1,11.39-7.78,39.74,39.74,0,0,1,15.19-2.74q18.16,0,27.31,10.44T541.93,163.67Zm-21.76.43a51.07,51.07,0,0,0-.72-8.94,20.14,20.14,0,0,0-2.45-6.91,12.2,12.2,0,0,0-11.24-6.2q-7.63,0-11.31,5.84t-3.67,15.78q0,10.8,3.39,16.42c2.25,3.74,6,5.62,11.16,5.62a12.54,12.54,0,0,0,11.46-6.27,21.21,21.21,0,0,0,2.59-6.84A42.58,42.58,0,0,0,520.17,164.1Z"/><path class="cls-1" d="M654.65,192.48a8.68,8.68,0,0,1-.5,3.17,5.37,5.37,0,0,1-2.51,2.45,40,40,0,0,1-7.12,2.59,69,69,0,0,1-7.77,1.59q-3.94.57-8,.86t-7.63.29A58.61,58.61,0,0,1,605,201.56a28.27,28.27,0,0,1-10.28-5.12,17.57,17.57,0,0,1-5.46-7.63,29.15,29.15,0,0,1,.29-19.74,22.1,22.1,0,0,1,5.62-8.14,26.15,26.15,0,0,1,9.44-5.41,41.91,41.91,0,0,1,13.47-1.94h15.85v-2.31a17.18,17.18,0,0,0-.44-3.89,6.57,6.57,0,0,0-1.8-3.24,10,10,0,0,0-3.81-2.23,19.9,19.9,0,0,0-6.49-.87c-1.44,0-3.07.08-4.9.22s-3.65.34-5.47.58-3.6.53-5.33.86-3.27.7-4.61,1.08a3.81,3.81,0,0,1-2.6,0,2.71,2.71,0,0,1-1-1.87l-2.3-10.09a3.2,3.2,0,0,1-.07-2.23,2.71,2.71,0,0,1,1.51-1.08,69.88,69.88,0,0,1,13.62-3.32,101.47,101.47,0,0,1,14.19-1q15.66,0,23,6.69t7.29,19.82Zm-20.89-24.93H622.38a35.2,35.2,0,0,0-4.32.29,11.73,11.73,0,0,0-4.25,1.37,9,9,0,0,0-3.24,3.1,10,10,0,0,0-1.3,5.47q0,5.06,3.39,7.06t9.14,2c.58,0,1.35,0,2.31-.07s2-.15,3.1-.29,2.23-.33,3.38-.57a19.08,19.08,0,0,0,3.17-.94Z"/><path class="cls-1" d="M575.29,97a2.93,2.93,0,0,1,.59,2.17v100a2.93,2.93,0,0,1-.59,2.17,4.65,4.65,0,0,1-2.7.52H557.36a4.32,4.32,0,0,1-2.39-.52,2.51,2.51,0,0,1-.75-2.17V99.21A2.51,2.51,0,0,1,555,97a4.32,4.32,0,0,1,2.39-.52h15.23A4.65,4.65,0,0,1,575.29,97Z"/><path class="cls-1" d="M450.5,184.84h0c-.28,0-.56-.05-.85-.05s-.57,0-.86.05H425.18l-.28-.73,34.59-38.91a11.36,11.36,0,0,0,2.23-4,14.27,14.27,0,0,0,.65-4.25v-5c0-2.4-.6-4-1.8-4.69a10.73,10.73,0,0,0-5.4-1.08H400.7l-.29,0h0a16.73,16.73,0,0,0,15.9,16.69c.28,0,.56,0,.84,0s.56,0,.84,0h17.14l.28.58L401,182.39a12.8,12.8,0,0,0-2.82,4.61,15,15,0,0,0-.64,4.33v4.32a6.16,6.16,0,0,0,1.65,4.54c1.11,1.1,2.86,1.66,5.27,1.66h61.93l.3,0h0a17,17,0,0,0-16.16-17Z"/><path class="cls-1" d="M388.11,142.59a22.69,22.69,0,0,0-21.6-21.53v78.1a2.51,2.51,0,0,0,.75,2.17,4.26,4.26,0,0,0,2.38.52h15.24a4.59,4.59,0,0,0,2.69-.52,2.88,2.88,0,0,0,.6-2.17V144.88h-.06c0-.38.06-.76.06-1.14S388.13,143,388.11,142.59Z"/><path class="cls-1" d="M384.88,96.52H369.64a4.26,4.26,0,0,0-2.38.52,2.51,2.51,0,0,0-.75,2.17v19H385a4.23,4.23,0,0,0,2.39-.52,2.52,2.52,0,0,0,.75-2.16V99.21a2.88,2.88,0,0,0-.6-2.17A4.59,4.59,0,0,0,384.88,96.52Z"/><path class="cls-2" d="M264.45,80.14l-131.61-24L101,230.27l131.61,24A27.91,27.91,0,0,0,265,232L286.81,112.5A27.89,27.89,0,0,0,264.45,80.14Z"/><path class="cls-3" d="M100.94,53.2H234.49a28.18,28.18,0,0,1,28.18,28.18v120.7a28.18,28.18,0,0,1-28.18,28.18H100.94a0,0,0,0,1,0,0V53.2A0,0,0,0,1,100.94,53.2Z"/><path class="cls-4" d="M221.74,134.24l4.12-3.63s7.32-5.61,7.32-22.11c0-14.86-11.32-27-25.89-27H160.43s-2.75,24.18,16.39,24.18h16.46c6.66,0,9.54,2,11.2,6.27s.3,9.08-9.38,17.1-45.88,36.34-49.82,39.52-16,13.62-16,27.39v5.91h72.67c14.87,0,33.75-16.26,33.75-37.09C235.66,142.71,221.74,134.24,221.74,134.24Zm-26.31,43.61H170.19l30.88-25.1c4.76,1.84,6.85,6.58,6.85,12.15A12.72,12.72,0,0,1,195.43,177.85Z"/><path class="cls-4" d="M153.41,129.74c0-19.13-24.17-16.38-24.17-16.38v62a.29.29,0,0,0,.29.26.31.31,0,0,0,.27-.16l0-.09c3.71-10.32,23.59-18.17,23.59-25.76Z"/><rect class="cls-4" x="129.24" y="81.54" width="24.18" height="24.18"/><path class="cls-5" d="M1063.05,138.88a22.92,22.92,0,0,1,4.25-7,24.2,24.2,0,0,1,5.91-4.82,25,25,0,0,1,7-2.74,32.46,32.46,0,0,1,7.35-.87,28.55,28.55,0,0,1,22.19,10,34.29,34.29,0,0,1,6.26,11,39.79,39.79,0,0,1,2.24,13.47v36.17c0,3.45-.7,5.76-2.09,6.91s-3.63,1.73-6.7,1.73h-83.29c-3.07,0-5.32-.57-6.77-1.73s-2.15-3.46-2.15-6.91V158.76a49.94,49.94,0,0,1,1.43-12.17,28.09,28.09,0,0,1,4.54-9.87,21.61,21.61,0,0,1,7.93-6.56,26,26,0,0,1,11.59-2.37,22,22,0,0,1,11.32,3.09,21.29,21.29,0,0,1,8,8Zm-7.63,41.93v-19.6a16.85,16.85,0,0,0-.43-3.67,10.3,10.3,0,0,0-1.5-3.53,8.1,8.1,0,0,0-3-2.6,10.65,10.65,0,0,0-4.93-1,8.53,8.53,0,0,0-6.72,2.73,10.69,10.69,0,0,0-2.43,7.35v20.32Zm30.69-34.72a12.81,12.81,0,0,0-9.37,3.52q-3.6,3.54-3.6,10.45v20.75h25.79V160.06a16.66,16.66,0,0,0-1.22-6.77,11.94,11.94,0,0,0-3.11-4.32,11.06,11.06,0,0,0-4.17-2.24A16.09,16.09,0,0,0,1086.11,146.09Z"/><path class="cls-5" d="M351.09,146.66a22.92,22.92,0,0,1,7,4.25,24.48,24.48,0,0,1,4.83,5.91,24.93,24.93,0,0,1,2.73,7,32.33,32.33,0,0,1,.87,7.35,28.55,28.55,0,0,1-10,22.19,34.29,34.29,0,0,1-10.95,6.26,39.74,39.74,0,0,1-13.47,2.24H295.9c-3.45,0-5.76-.7-6.91-2.09s-1.73-3.63-1.73-6.7V109.77c0-3.07.58-5.32,1.73-6.77s3.46-2.16,6.91-2.16h35.31a50.08,50.08,0,0,1,12.18,1.44,28,28,0,0,1,9.86,4.54,21.51,21.51,0,0,1,6.56,7.93,26,26,0,0,1,2.38,11.59,22,22,0,0,1-3.1,11.32,21.29,21.29,0,0,1-8,8ZM309.17,139h19.59a17.41,17.41,0,0,0,3.67-.43,10.3,10.3,0,0,0,3.53-1.5,8.1,8.1,0,0,0,2.6-3,10.65,10.65,0,0,0,1-4.93,8.53,8.53,0,0,0-2.73-6.72,10.69,10.69,0,0,0-7.35-2.43H309.17Zm34.72,30.69a12.82,12.82,0,0,0-3.53-9.37q-3.54-3.6-10.45-3.6H309.17v25.79h20.74a16.48,16.48,0,0,0,6.77-1.23,11.81,11.81,0,0,0,4.32-3.1,10.92,10.92,0,0,0,2.24-4.17A16.13,16.13,0,0,0,343.89,169.72Z"/><path class="cls-5" d="M45.82,131.23a22.53,22.53,0,0,1,4.25-7A24.29,24.29,0,0,1,56,119.41a25.32,25.32,0,0,1,7-2.74,33,33,0,0,1,7.35-.86,28.46,28.46,0,0,1,22.19,10,34.13,34.13,0,0,1,6.27,11A39.83,39.83,0,0,1,101,150.24v36.17c0,3.46-.69,5.76-2.09,6.91s-3.62,1.73-6.7,1.73H8.93c-3.07,0-5.33-.57-6.77-1.73S0,189.87,0,186.41v-35.3a49.59,49.59,0,0,1,1.44-12.18A27.83,27.83,0,0,1,6,129.06a21.47,21.47,0,0,1,7.92-6.55,26,26,0,0,1,11.6-2.38,21.86,21.86,0,0,1,11.31,3.1,21.32,21.32,0,0,1,8,8Zm-7.64,41.92V153.56a16.94,16.94,0,0,0-.43-3.68,9.92,9.92,0,0,0-1.5-3.53,8,8,0,0,0-3-2.59,10.66,10.66,0,0,0-4.94-1,8.55,8.55,0,0,0-6.72,2.74,10.69,10.69,0,0,0-2.43,7.35v20.31Zm30.69-34.72A12.81,12.81,0,0,0,59.51,142q-3.61,3.53-3.61,10.45v20.74H81.7V152.41a16.57,16.57,0,0,0-1.23-6.78,12,12,0,0,0-3.1-4.32,10.94,10.94,0,0,0-4.18-2.23A15.68,15.68,0,0,0,68.87,138.43Z"/><path class="cls-5" d="M725.47,247.66a22.8,22.8,0,0,1,7,4.25,24.48,24.48,0,0,1,4.83,5.91,25.26,25.26,0,0,1,2.74,7,32.44,32.44,0,0,1,.86,7.35,28.5,28.5,0,0,1-10,22.19,33.92,33.92,0,0,1-11,6.26,39.58,39.58,0,0,1-13.47,2.24H670.29q-5.19,0-6.91-2.09c-1.16-1.39-1.73-3.63-1.73-6.7V210.78c0-3.08.57-5.33,1.73-6.78s3.45-2.15,6.91-2.15h35.3a49.59,49.59,0,0,1,12.18,1.44,27.83,27.83,0,0,1,9.87,4.54,21.47,21.47,0,0,1,6.55,7.92,26,26,0,0,1,2.38,11.6,21.88,21.88,0,0,1-3.1,11.31,21.22,21.22,0,0,1-8,8ZM683.55,240h19.59a16.87,16.87,0,0,0,3.68-.43,10.3,10.3,0,0,0,3.53-1.5,8.08,8.08,0,0,0,2.59-3,10.62,10.62,0,0,0,1-4.93,8.51,8.51,0,0,0-2.74-6.72,10.67,10.67,0,0,0-7.35-2.43H683.55Zm34.72,30.69a12.82,12.82,0,0,0-3.53-9.37q-3.53-3.6-10.44-3.6H683.55v25.79H704.3a16.73,16.73,0,0,0,6.77-1.22,12.13,12.13,0,0,0,4.32-3.1,10.94,10.94,0,0,0,2.23-4.18A15.74,15.74,0,0,0,718.27,270.72Z"/><path class="cls-5" d="M725.47,45.82a22.42,22.42,0,0,1,7,4.25A24.29,24.29,0,0,1,737.29,56,25.32,25.32,0,0,1,740,63a32.44,32.44,0,0,1,.86,7.35,28.46,28.46,0,0,1-10,22.19,34.13,34.13,0,0,1-11,6.27A39.83,39.83,0,0,1,706.46,101H670.29c-3.46,0-5.76-.69-6.91-2.09s-1.73-3.62-1.73-6.7V8.93c0-3.07.57-5.33,1.73-6.77S666.83,0,670.29,0h35.3a49.59,49.59,0,0,1,12.18,1.44A27.83,27.83,0,0,1,727.64,6a21.47,21.47,0,0,1,6.55,7.92,26,26,0,0,1,2.38,11.6,21.86,21.86,0,0,1-3.1,11.31,21.32,21.32,0,0,1-8,8Zm-41.92-7.64h19.59a16.87,16.87,0,0,0,3.68-.43,9.92,9.92,0,0,0,3.53-1.5,8,8,0,0,0,2.59-3,10.66,10.66,0,0,0,1-4.94,8.52,8.52,0,0,0-2.74-6.72,10.67,10.67,0,0,0-7.35-2.43H683.55Zm34.72,30.69a12.81,12.81,0,0,0-3.53-9.36q-3.53-3.61-10.44-3.61H683.55V81.7H704.3a16.55,16.55,0,0,0,6.77-1.23,12,12,0,0,0,4.32-3.1,10.94,10.94,0,0,0,2.23-4.18A15.68,15.68,0,0,0,718.27,68.87Z"/></svg>