<?xml version="1.0" encoding="UTF-8"?>
<!-- Generator: Adobe Illustrator 26.0.1, SVG Export Plug-In . SVG Version: 6.00 Build 0)  -->
<svg xmlns="http://www.w3.org/2000/svg" xmlns:xlink="http://www.w3.org/1999/xlink" version="1.1" id="Layer_1" x="0px" y="0px" viewBox="0 0 725 110" style="enable-background:new 0 0 725 110;" xml:space="preserve">
<g id="Layer_2_00000096043700033818804230000000420362936506274185_">
	<g id="Layer_2-2">
		<path d="M408.6,54.3c26.4-0.3,39.6,8.1,39.6,25.2c0,9.8-3.3,16.7-9.9,20.7c-6.6,4-15.9,6-27.9,6h-57.3v-1.4c1.9-1.1,3.5-2.4,5-4    c0.9-0.9,1.5-1.9,1.9-3.1c0.2-1,0.2-2,0.2-3V14c0-1-0.1-2-0.2-3c-0.4-1.2-1.1-2.2-1.9-3.1c-1.5-1.6-3.2-2.9-5-4V2.5h61    c8.7,0,15.9,1.9,21.4,5.8c5.5,3.9,8.3,10.3,8.3,19.4c0,8.4-2.8,14.8-8.4,19.1c-5.6,4.3-14.5,6.6-26.9,6.8L408.6,54.3z     M401.7,104.6c5.1,0,8.8-2,11.2-5.9c2.4-3.9,3.6-10.4,3.6-19.3c0-9-1.5-15.4-4.6-19c-3.1-3.6-8.5-5.5-16.3-5.5h-0.7v-1.4h0.7    c6.2,0,10.6-1.7,13-5.2c2.4-3.5,3.6-10.1,3.6-20c0-16.3-3.9-24.5-11.8-24.5h-9.8v100.7H401.7z"></path>
		<path d="M525.1,94.6c0,1,0.1,2,0.2,3c0.4,1.2,1.1,2.2,2,3.1c1.5,1.6,3.1,2.9,5,4v1.4h-35.2L496.3,94H496l-8.5,10.1    c-3.4,2.3-8.1,3.5-14.2,3.5c-5.8,0-10.6-1.5-14.4-4.5c-3.8-3-5.8-7.3-5.8-12.7c-0.2-4.7,1.3-9.2,4-13c2.7-3.5,7.9-6.2,15.7-7.9    l23.5-5v-2.9c0-3.1-0.8-5.3-2.3-6.6s-4.6-2-9.2-2c-7.8,0-16.6,1.9-26.6,5.8l-0.7-0.7l3-19.4c9.6-3.8,19.9-5.7,30.2-5.8    c13.7,0,23,2.4,27.9,7.2s7.1,12.5,6.6,23V94.6z M489.9,68.8c-5.3,2.4-7.9,7.1-7.9,14.2c0,3.6,0.7,6.3,2.2,8.4c1.3,2,3.6,3.2,6,3.1    c2.2-0.1,4.3-0.8,6.2-2V65.8L489.9,68.8z"></path>
		<path d="M572.2,50l12.7-13.8c3.7-2.2,7.9-3.4,12.2-3.5c6.6,0,11.7,1.8,15.4,5.5s5.5,9,5.5,16.1v40.3c0,1,0.1,2,0.2,3    c0.4,1.2,1.1,2.2,1.9,3.1c1.5,1.6,3.1,2.9,5,4v1.4h-41.7v-1.4c1.6-1.1,2.9-2.4,4-4c0.7-0.9,1.2-2,1.5-3.1c0.2-1,0.2-2,0.2-3V56.5    c0-2.7-0.5-4.7-1.6-6s-2.9-2-5.6-2c-3.6,0-7.1,1-10.1,2.9v43.2c0,1,0.1,2,0.2,3c0.4,1.2,1,2.2,1.9,3.1c1.5,1.6,3.1,2.9,5,4v1.4    h-43.1v-1.4c1.9-1.1,3.5-2.4,5-4c0.9-0.9,1.6-1.9,1.9-3.1c0.2-1,0.2-2,0.2-3V50c0-1.5-0.1-2.7-0.2-3.6c-0.2-1.2-0.4-2.3-0.7-3.4    c-0.4-1.5-1.1-2.9-2.2-4c-1.2-1.3-2.6-2.5-4.2-3.4v-1.4h36V50H572.2z"></path>
		<path d="M664.7,94.6c0,1,0.1,2,0.2,3c0.4,1.2,1.1,2.2,1.9,3.1c1.5,1.6,3.2,2.9,5,4v1.4h-43.1v-1.4c1.9-1.1,3.5-2.4,5-4    c0.9-0.9,1.6-1.9,1.9-3.1c0.2-1,0.2-2,0.2-3V18.3c0-1.5,0-2.7-0.1-3.6c-0.2-1.2-0.4-2.3-0.7-3.5c-0.4-1.5-1.1-2.8-2.2-3.9    c-1.2-1.3-2.6-2.5-4.2-3.4V2.5h36L664.7,94.6z M710,90.3c0.3,0.4,0.8,1.3,1.7,2.7c0.8,1.4,1.4,2.3,1.7,2.7s0.8,1.1,1.5,2.2    c0.5,0.8,1.1,1.5,1.7,2.2c0.4,0.4,1,1,1.7,1.7c0.7,0.6,1.4,1.2,2.2,1.7c0.8,0.5,1.6,0.9,2.5,1.3v1.4h-37.4l-19.4-35.3l25-19.3    c1.7-1.2,3.2-2.6,4.5-4.2c0.9-1.2,1.4-2.6,1.4-4.1c0-2.9-2.9-5.4-8.6-7.6v-1.5h31.7v1.5c-2.2,0.4-9.5,5.8-18.8,12.5    c-3.1,2.2-12,9.4-12,9.4L710,90.3z"></path>
		<path d="M39.4,94.6c0,1,0,2,0.2,3c0.4,1.2,1.1,2.2,2,3.1c1.5,1.6,3.1,2.9,5,4v1.4H2v-1.4c1.9-1.1,3.5-2.4,5-4    c0.9-0.8,1.6-1.9,2-3.1c0.2-1,0.2-2,0.2-3V14c0-1-0.1-2-0.2-3C8.6,9.8,7.9,8.7,7,7.9C5.5,6.3,3.9,5,2,3.9V2.5h44.6v1.4    c-1.9,1.1-3.5,2.4-5,4c-0.9,0.9-1.6,1.9-2,3.1c-0.2,1-0.2,2-0.2,3L39.4,94.6z M98.6,94.1c3.3,5.7,6.8,9.2,10.4,10.5v1.4H58.9v-1.4    c6-1.2,7.3-4.6,3.9-10.1L41.6,60v-1.4l37.7-39.9c1-1.2,1.9-2.5,2.5-3.9c0.6-1.4,0.9-3,0.9-4.5c0-1.6-1-3-3-4.2s-4.9-1.9-8.8-2.2    V2.5h36.1v1.4c-4.4,0.3-16.5,9.5-22.4,15.5L66.4,38.8L98.6,94.1z"></path>
		<path d="M175.7,69.4l-42-0.3c0.7,6.4,2.8,11.7,6.6,15.8c3.7,4.1,8.9,6.1,15.5,6.1c5.9,0,11.9-1.9,18-5.8v1.4    c-1.6,6.1-5.3,11.3-10.5,14.9c-5.5,4-12.1,6-19.7,6c-12.7,0-22.4-3.3-29.3-10s-10.3-15.8-10.3-27.5c0-4.5,0.9-9,2.5-13.2    c1.7-4.4,4.2-8.4,7.3-12c3.6-4,8.1-7,13.1-8.9c5.9-2.3,12.3-3.5,18.6-3.4c3.5,0,7,0.4,10.4,1.3c3.5,0.9,6.8,2.4,9.9,4.2    c3.4,2.1,6.1,5,7.9,8.6c2.1,4.1,3.1,8.7,2.9,13.2C176.5,63.2,176.2,66.3,175.7,69.4z M150.2,66.5c1.3-5.5,1.9-11.2,1.9-16.8    c0-5.4-0.6-9.3-1.7-11.8c-1-2.4-3.5-3.9-6.2-3.8c-7.2,0-10.8,10.1-10.8,30.2c0,1.2,0,2.3,0.1,3.5L150.2,66.5z"></path>
		<path d="M215.5,50l12.7-13.8c3.7-2.2,7.9-3.4,12.2-3.5c6.6,0,11.8,1.8,15.4,5.5s5.5,9,5.5,16.1v40.3c0,1,0.1,2,0.2,3    c0.4,1.2,1,2.2,1.9,3.1c1.5,1.6,3.1,2.9,5,4v1.4h-41.7v-1.4c1.6-1.1,2.9-2.4,4-4c0.7-0.9,1.2-2,1.5-3.1c0.2-1,0.2-2,0.2-3V56.5    c0-2.7-0.5-4.7-1.6-6s-2.9-2-5.6-2c-3.6,0-7.1,1-10.1,2.9v43.2c0,1,0.1,2,0.2,3c0.4,1.2,1.1,2.2,1.9,3.1c1.5,1.6,3.1,2.9,5,4v1.4    h-43.1v-1.4c1.9-1.1,3.5-2.4,5-4c0.9-0.9,1.6-1.9,1.9-3.1c0.2-1,0.2-2,0.2-3V50c0-1.5-0.1-2.7-0.1-3.6c-0.2-1.2-0.4-2.3-0.7-3.4    c-0.4-1.5-1.1-2.9-2.2-4c-1.2-1.3-2.6-2.5-4.2-3.4v-1.4h36V50H215.5z"></path>
		<path d="M304,90.3c0,4.5,1,7.4,2.9,8.6c1.9,1.2,5.6,1.7,11,1.5v1.4c-7.6,3.8-16,5.8-24.5,5.8c-12.1,0-18.1-5.8-18.1-17.3V36.8    h-6.3v-2.6l6.3-1.4l27.4-13h1.4v13.4l13.8-1v4.6H304V90.3z"></path>
	</g>
</g>
</svg>
