<svg id="Logo_Banca_Progetto" xmlns="http://www.w3.org/2000/svg" xmlns:xlink="http://www.w3.org/1999/xlink" width="109.634" height="34.86" viewBox="0 0 109.634 34.86">
  <defs>
    <clipPath id="clip-path">
      <rect id="Rectangle_37" data-name="Rectangle 37" width="109.634" height="34.86"/>
    </clipPath>
  </defs>
  <g id="Group_57" data-name="Group 57">
    <g id="Group_56" data-name="Group 56">
      <g id="Group_55" data-name="Group 55">
        <g id="Group_54" data-name="Group 54" clip-path="url(#clip-path)">
          <g id="Group_8" data-name="Group 8">
            <g id="Group_7" data-name="Group 7">
              <g id="Group_6" data-name="Group 6" clip-path="url(#clip-path)">
                <path id="Path_20" data-name="Path 20" d="M248.617,22.4a3.115,3.115,0,0,0,1.662-2.844v-.051a2.984,2.984,0,0,0-.908-2.227,4.78,4.78,0,0,0-3.46-1.182h-4.642A1.254,1.254,0,0,0,240,17.368V27.988a1.254,1.254,0,0,0,1.268,1.268H246.1c3.066,0,4.9-1.37,4.9-3.666v-.034a3.14,3.14,0,0,0-2.381-3.152m-.839-2.484c0,1.422-1.456,1.627-2.313,1.627h-2.981V18.361h3.135c1.37,0,2.141.548,2.141,1.525l.017.034Zm.719,5.4v.034c0,1.439-1.473,1.645-2.364,1.645H242.5V23.706h3.477c1.148,0,2.518.274,2.518,1.61" transform="translate(-198.887 -13.342)" fill="#706f6f"/>
              </g>
            </g>
          </g>
          <g id="Group_11" data-name="Group 11">
            <g id="Group_10" data-name="Group 10">
              <g id="Group_9" data-name="Group 9" clip-path="url(#clip-path)">
                <path id="Path_21" data-name="Path 21" d="M319.683,16.094a1.537,1.537,0,0,0-1.456-.994h-.1a1.567,1.567,0,0,0-1.473.994l-4.8,10.689a1.34,1.34,0,0,0-.154.565,1.173,1.173,0,0,0,1.182,1.182,1.221,1.221,0,0,0,1.165-.788l1.062-2.415h6.1l1.028,2.33a1.288,1.288,0,0,0,1.216.874,1.2,1.2,0,0,0,1.2-1.216,1.166,1.166,0,0,0-.137-.531Zm.531,6.972h-4.163l2.073-4.779Z" transform="translate(-258.305 -12.513)" fill="#706f6f"/>
              </g>
            </g>
          </g>
          <g id="Group_14" data-name="Group 14">
            <g id="Group_13" data-name="Group 13">
              <g id="Group_12" data-name="Group 12" clip-path="url(#clip-path)">
                <path id="Path_22" data-name="Path 22" d="M409.244,15.6a1.228,1.228,0,0,0-1.233,1.233V24.4l-6.235-8.068a1.558,1.558,0,0,0-1.268-.7h-.24A1.265,1.265,0,0,0,399,16.9V27.728a1.243,1.243,0,0,0,1.251,1.233,1.228,1.228,0,0,0,1.233-1.233V19.883l6.407,8.308a1.545,1.545,0,0,0,1.285.719h.086a1.232,1.232,0,0,0,1.233-1.251V16.833a1.254,1.254,0,0,0-1.251-1.233" transform="translate(-330.65 -12.928)" fill="#706f6f"/>
              </g>
            </g>
          </g>
          <g id="Group_17" data-name="Group 17">
            <g id="Group_16" data-name="Group 16">
              <g id="Group_15" data-name="Group 15" clip-path="url(#clip-path)">
                <path id="Path_23" data-name="Path 23" d="M488.107,24.564a1.2,1.2,0,0,0-.771.291,4.472,4.472,0,0,1-3.152,1.2,4.2,4.2,0,0,1-4.128-4.454v-.034a4.207,4.207,0,0,1,4.128-4.437,4.553,4.553,0,0,1,3,1.131,1.314,1.314,0,0,0,.754.24,1.236,1.236,0,0,0,.754-2.227,6.922,6.922,0,0,0-4.505-1.473,6.654,6.654,0,0,0-6.784,6.8v.034a6.582,6.582,0,0,0,6.681,6.766,6.765,6.765,0,0,0,4.762-1.764,1.249,1.249,0,0,0,.411-.908,1.13,1.13,0,0,0-1.148-1.165" transform="translate(-395.62 -12.265)" fill="#706f6f"/>
              </g>
            </g>
          </g>
          <g id="Group_20" data-name="Group 20">
            <g id="Group_19" data-name="Group 19">
              <g id="Group_18" data-name="Group 18" clip-path="url(#clip-path)">
                <path id="Path_24" data-name="Path 24" d="M565.9,26.783l-4.8-10.689a1.537,1.537,0,0,0-1.456-.994h-.12a1.567,1.567,0,0,0-1.473.994l-4.8,10.689a1.339,1.339,0,0,0-.154.565,1.17,1.17,0,0,0,1.165,1.182,1.221,1.221,0,0,0,1.165-.788l1.062-2.415h6.1l1.028,2.33a1.288,1.288,0,0,0,1.216.874,1.2,1.2,0,0,0,1.2-1.216.827.827,0,0,0-.137-.531m-4.248-3.717h-4.163l2.073-4.779Z" transform="translate(-458.352 -12.513)" fill="#706f6f"/>
              </g>
            </g>
          </g>
          <g id="Group_23" data-name="Group 23">
            <g id="Group_22" data-name="Group 22">
              <g id="Group_21" data-name="Group 21" clip-path="url(#clip-path)">
                <path id="Path_25" data-name="Path 25" d="M553.675,105.5a6.958,6.958,0,0,0-7.075,6.972v.034a6.834,6.834,0,0,0,7.023,6.938,6.958,6.958,0,0,0,7.075-6.972v-.034a6.824,6.824,0,0,0-7.023-6.938m-4.385,6.938a4.373,4.373,0,1,1,8.736.034v.034a4.372,4.372,0,1,1-8.736-.034Z" transform="translate(-452.966 -87.428)" fill="#9e092f"/>
              </g>
            </g>
          </g>
          <g id="Group_26" data-name="Group 26">
            <g id="Group_25" data-name="Group 25">
              <g id="Group_24" data-name="Group 24" clip-path="url(#clip-path)">
                <path id="Path_26" data-name="Path 26" d="M28.162,106.5H24.1a1.291,1.291,0,0,0-1.3,1.3v11.015a1.293,1.293,0,0,0,2.587,0v-3.083h2.5c3.289,0,5.413-1.816,5.413-4.642v-.034c.017-2.758-2-4.557-5.139-4.557m2.535,4.642c0,1.336-1.1,2.244-2.741,2.244h-2.57v-4.522h2.587c1.73,0,2.741.822,2.741,2.244l-.017.034Z" transform="translate(-18.894 -88.256)" fill="#706f6f"/>
              </g>
            </g>
          </g>
          <g id="Group_29" data-name="Group 29">
            <g id="Group_28" data-name="Group 28">
              <g id="Group_27" data-name="Group 27" clip-path="url(#clip-path)">
                <path id="Path_27" data-name="Path 27" d="M100.43,106.5H95.7a1.291,1.291,0,0,0-1.3,1.3v11.015a1.293,1.293,0,0,0,2.587,0v-3.426h2.758l3.152,4.043a1.435,1.435,0,0,0,1.233.651,1.219,1.219,0,0,0,1.233-1.2,1.428,1.428,0,0,0-.411-.959l-2.432-3.066a4.024,4.024,0,0,0,2.929-4.026V110.8a4.158,4.158,0,0,0-1.131-2.946,5.439,5.439,0,0,0-3.889-1.353m2.432,4.437v.034c0,1.268-1.028,2.09-2.6,2.09H96.97v-4.2h3.272c1.679,0,2.621.737,2.621,2.073" transform="translate(-78.229 -88.256)" fill="#706f6f"/>
              </g>
            </g>
          </g>
          <g id="Group_32" data-name="Group 32">
            <g id="Group_31" data-name="Group 31">
              <g id="Group_30" data-name="Group 30" clip-path="url(#clip-path)">
                <path id="Path_28" data-name="Path 28" d="M175.575,105.2a6.958,6.958,0,0,0-7.075,6.972v.034a6.838,6.838,0,0,0,7.041,6.938,6.958,6.958,0,0,0,7.075-6.972v-.034a6.848,6.848,0,0,0-7.041-6.938m0,11.546a4.386,4.386,0,0,1-4.385-4.574v-.034a4.373,4.373,0,1,1,8.736.034v.034a4.37,4.37,0,0,1-4.351,4.54" transform="translate(-139.635 -87.179)" fill="#706f6f"/>
              </g>
            </g>
          </g>
          <g id="Group_35" data-name="Group 35">
            <g id="Group_34" data-name="Group 34">
              <g id="Group_33" data-name="Group 33" clip-path="url(#clip-path)">
                <path id="Path_29" data-name="Path 29" d="M271.44,111.281h-3.683a1.139,1.139,0,1,0,0,2.278h2.484v2.3a5.383,5.383,0,0,1-3.083.942,4.307,4.307,0,0,1-4.385-4.608v-.034a4.388,4.388,0,0,1,4.18-4.557,5,5,0,0,1,3.152,1.011,1.41,1.41,0,0,0,.788.291,1.294,1.294,0,0,0,1.285-1.285,1.28,1.28,0,0,0-.531-1.045,7.3,7.3,0,0,0-4.591-1.37,6.888,6.888,0,0,0-6.955,6.972v.034a6.669,6.669,0,0,0,6.989,6.938,8.579,8.579,0,0,0,4.779-1.456,1.729,1.729,0,0,0,.874-1.576v-3.546a1.276,1.276,0,0,0-1.3-1.285" transform="translate(-215.544 -87.179)" fill="#706f6f"/>
              </g>
            </g>
          </g>
          <g id="Group_38" data-name="Group 38">
            <g id="Group_37" data-name="Group 37">
              <g id="Group_36" data-name="Group 36" clip-path="url(#clip-path)">
                <path id="Path_30" data-name="Path 30" d="M354.813,117.669h-6.527v-3.306h5.567a1.152,1.152,0,0,0,1.165-1.148,1.17,1.17,0,0,0-1.165-1.182h-5.567v-3.2h6.424a1.155,1.155,0,0,0,1.165-1.165,1.177,1.177,0,0,0-1.165-1.165H347a1.291,1.291,0,0,0-1.3,1.3V118.7A1.291,1.291,0,0,0,347,120H354.8a1.165,1.165,0,0,0,.017-2.33" transform="translate(-286.481 -88.256)" fill="#706f6f"/>
              </g>
            </g>
          </g>
          <g id="Group_41" data-name="Group 41">
            <g id="Group_40" data-name="Group 40">
              <g id="Group_39" data-name="Group 39" clip-path="url(#clip-path)">
                <path id="Path_31" data-name="Path 31" d="M421.4,106.5h-8.8a1.2,1.2,0,1,0,0,2.4h3.1v9.9a1.3,1.3,0,0,0,2.6,0v-9.9h3.118a1.188,1.188,0,0,0,1.182-1.2,1.2,1.2,0,0,0-1.2-1.2" transform="translate(-340.926 -88.256)" fill="#706f6f"/>
              </g>
            </g>
          </g>
          <g id="Group_44" data-name="Group 44">
            <g id="Group_43" data-name="Group 43">
              <g id="Group_42" data-name="Group 42" clip-path="url(#clip-path)">
                <path id="Path_32" data-name="Path 32" d="M492.7,106.5h-8.8a1.2,1.2,0,0,0,0,2.4H487v9.9a1.3,1.3,0,0,0,2.6,0v-9.9h3.118a1.188,1.188,0,0,0,1.182-1.2,1.225,1.225,0,0,0-1.2-1.2" transform="translate(-400.012 -88.256)" fill="#706f6f"/>
              </g>
            </g>
          </g>
          <g id="Group_47" data-name="Group 47">
            <g id="Group_46" data-name="Group 46">
              <g id="Group_45" data-name="Group 45" clip-path="url(#clip-path)">
                <path id="Path_33" data-name="Path 33" d="M45.92,15.959V13.15l-8.1-.034a7.464,7.464,0,0,0-12.608-3.94A7.4,7.4,0,0,0,23,14.469a7.489,7.489,0,0,0,14.835,1.49H45.92L45.9,18.614a1.259,1.259,0,1,0,2.518.017l.017-2.672Zm-11.152-1.3A4.311,4.311,0,1,1,27.419,11.4a4.231,4.231,0,0,1,3.049-1.251,4.336,4.336,0,0,1,4.3,4.18c0,.051-.017.1-.017.154s.017.12.017.171" transform="translate(-19.06 -5.801)" fill="#9e092f"/>
              </g>
            </g>
          </g>
          <g id="Group_50" data-name="Group 50">
            <g id="Group_49" data-name="Group 49">
              <g id="Group_48" data-name="Group 48" clip-path="url(#clip-path)">
                <path id="Path_34" data-name="Path 34" d="M198.083,43.017,195,43v2.775h3.083a1.382,1.382,0,0,0,1.4-1.37,1.408,1.408,0,0,0-1.4-1.388" transform="translate(-161.596 -35.634)" fill="#9e092f"/>
              </g>
            </g>
          </g>
          <g id="Group_53" data-name="Group 53">
            <g id="Group_52" data-name="Group 52">
              <g id="Group_51" data-name="Group 51" clip-path="url(#clip-path)">
                <path id="Path_35" data-name="Path 35" d="M180.217,59.3l-.017,3.786a1.261,1.261,0,0,0,1.251,1.268,1.291,1.291,0,0,0,1.268-1.37l.017-3.683Z" transform="translate(-149.331 -49.142)" fill="#9e092f"/>
              </g>
            </g>
          </g>
        </g>
      </g>
    </g>
  </g>
</svg>
