<svg xmlns="http://www.w3.org/2000/svg" width="157" height="26.387" viewBox="0 0 157 26.387">
  <g id="logo_zinspilot_new" transform="translate(-40.2 -344.9)">
    <g id="Group_1" data-name="Group 1" transform="translate(40.2 349.063)">
      <path id="Path_4" data-name="Path 4" d="M56.765,358.657a1.577,1.577,0,0,1-.469,1.134L45.155,371.658H56.3v2.879H43.748a11.5,11.5,0,0,1-1.818-.145,2.463,2.463,0,0,1-1.231-.611,1.517,1.517,0,0,1-.5-1.076,1.781,1.781,0,0,1,.674-1.309l10.877-11.6H40.61v-2.879H54.1C55.856,356.854,56.765,357.436,56.765,358.657Z" transform="translate(-40.2 -356.708)" fill="#f5f8f9"/>
      <path id="Path_5" data-name="Path 5" d="M108.741,374.365H104.9V356.624h3.841Z" transform="translate(-85.931 -356.508)" fill="#f5f8f9"/>
      <path id="Path_6" data-name="Path 6" d="M147.091,372.208a2.522,2.522,0,0,1-.762,1.8,3.223,3.223,0,0,1-2.258.814,3.08,3.08,0,0,1-2.052-.611,7.378,7.378,0,0,1-1.085-1.483l-7.769-11.721v13.524H129.5V359.527c0-1.832,1.026-2.7,3.02-2.7a3.191,3.191,0,0,1,2.052.553,7.536,7.536,0,0,1,1.143,1.483l7.711,11.721V357h3.665v15.211Z" transform="translate(-103.319 -356.648)" fill="#f5f8f9"/>
      <path id="Path_7" data-name="Path 7" d="M201.64,371.031h8.883c1.319,0,2.17-.175,2.463-.727a6.347,6.347,0,0,0,.176-2.152c0-.96-.821-1.425-2.551-1.425h-3.665a7.917,7.917,0,0,1-3.929-.9,3.308,3.308,0,0,1-1.818-2.879v-2.7a3.58,3.58,0,0,1,1.906-3.2,6.854,6.854,0,0,1,3.723-.814h10.027v3.228h-8.8c-1.319,0-2.14.175-2.463.611a4.68,4.68,0,0,0-.264,2.036,1.3,1.3,0,0,0,.616,1.134,5.305,5.305,0,0,0,2.052.349h3.665a7.161,7.161,0,0,1,3.987,1.018,3.222,3.222,0,0,1,1.525,2.879v2.734a3.277,3.277,0,0,1-1.583,3,7.7,7.7,0,0,1-4.193,1.018h-9.91l.147-3.2Z" transform="translate(-153.997 -356.227)" fill="#f5f8f9"/>
      <path id="Path_8" data-name="Path 8" d="M319.732,363.825a3.21,3.21,0,0,1-1.437,2.821,6.314,6.314,0,0,1-3.9,1.018H306.07v6.6H302.2V356.525h11.962a8.149,8.149,0,0,1,3.841.843,3.081,3.081,0,0,1,1.642,2.734C319.732,361.295,319.732,362.574,319.732,363.825Zm-3.811-.814v-2.036c0-1.076-.85-1.571-2.609-1.571H306.1v5.439h7.183C315.012,364.843,315.921,364.232,315.921,363.011Z" transform="translate(-225.386 -356.438)" fill="#f5f8f9"/>
      <path id="Path_9" data-name="Path 9" d="M376.941,374.365H373.1V356.624h3.841Z" transform="translate(-275.499 -356.508)" fill="#f5f8f9"/>
      <path id="Path_10" data-name="Path 10" d="M413.861,374.435h-9.441a9.562,9.562,0,0,1-4.75-.96A3.516,3.516,0,0,1,398,370.1V356.723h3.841v12.768a1.731,1.731,0,0,0,.762,1.658,5.612,5.612,0,0,0,2.668.407h8.561l.029,2.879Z" transform="translate(-293.099 -356.578)" fill="#f5f8f9"/>
      <path id="Path_11" data-name="Path 11" d="M475.063,370.165c0,2.734-1.935,4.1-5.893,4.1h-5.248a8.071,8.071,0,0,1-4.193-.9,3.52,3.52,0,0,1-1.73-3.2v-9.481a3.674,3.674,0,0,1,1.73-3.2,7.608,7.608,0,0,1,4.193-.96h5.307c3.9,0,5.834,1.4,5.834,4.159v9.481Zm-3.782-.669V361.44a1.653,1.653,0,0,0-.674-1.57,3.965,3.965,0,0,0-2.258-.407h-3.665a4.536,4.536,0,0,0-2.258.407,1.858,1.858,0,0,0-.674,1.57v8a1.589,1.589,0,0,0,.733,1.512,4.46,4.46,0,0,0,2.258.407h3.665a4.776,4.776,0,0,0,2.258-.407A1.539,1.539,0,0,0,471.281,369.5Z" transform="translate(-335.508 -356.438)" fill="#f5f8f9"/>
      <path id="Path_12" data-name="Path 12" d="M537.885,359.4h-5.922v14.862h-3.841V359.4H522.2v-2.879h15.627l.059,2.879Z" transform="translate(-380.885 -356.438)" fill="#f5f8f9"/>
    </g>
    <rect id="Rectangle_1" data-name="Rectangle 1" width="3.841" height="26.387" transform="translate(108.219 344.9)" fill="#f5f8f9"/>
  </g>
</svg>
