<?xml version="1.0" encoding="utf-8"?>
<!-- Generator: Adobe Illustrator 25.0.0, SVG Export Plug-In . SVG Version: 6.00 Build 0)  -->
<svg version="1.1" id="Layer_1" xmlns="http://www.w3.org/2000/svg" xmlns:xlink="http://www.w3.org/1999/xlink" x="0px" y="0px"
	 viewBox="0 0 320 56" style="enable-background:new 0 0 320 56;" xml:space="preserve">
<style type="text/css">
	.st0{fill:#18181B;}
</style>
<path class="st0" d="M28,0v14L42,0h14v14L42,28h14v14L42,56V42H28L14,56V42H0l14-14V14H0L14,0H28z M256.9,17.4c6,0,9,2.9,9.1,8.6
	v0.3V42h-5.3v-3.8h-0.1c-1.7,2.9-4.1,4.3-7.3,4.3c-2.4,0-4.2-0.6-5.6-1.9c-1.3-1.3-2-3-2-5.1c0-4.4,2.5-7.1,7.5-7.9h0.3l7.2-1
	c0-3.4-1.6-5.1-4.9-5.1c-2.7,0-5.2,0.9-7.5,2.7l-0.3,0.3v-4.8C250.7,18.2,253.6,17.4,256.9,17.4z M193.3,17.4c3.8,0,6.7,1.1,8.8,3.3
	s3.2,5.3,3.2,9.2c0,3.8-1.1,6.9-3.4,9.2c-2.3,2.3-5.3,3.5-9.1,3.5c-3.7,0-6.7-1.1-8.9-3.4c-2.2-2.2-3.3-5.2-3.3-8.9
	c0-4,1.2-7.2,3.5-9.5C186.3,18.5,189.4,17.4,193.3,17.4z M126.5,17.4c3.3,0,5.8,1.1,7.6,3.2c1.7,2,2.6,4.8,2.7,8.4v0.4v2.1h-16.4
	c0.1,2.2,0.7,3.9,2.1,5.1s3.1,1.8,5.4,1.8c2.4,0,4.7-0.7,6.7-2.1l0.3-0.2v4.4c-2.2,1.4-5.1,2.1-8.7,2.1c-3.5,0-6.3-1.1-8.3-3.3
	c-2-2.2-3-5.3-3-9.2c0-3.7,1.1-6.8,3.3-9.1C120.5,18.6,123.2,17.4,126.5,17.4z M82.7,8.3l8.9,22.4l0.3,0.7c0.4,1.2,0.8,2.1,1,2.8
	l0.1,0.4h0.1l0.4-1.1c0.3-1,0.6-1.8,0.9-2.5l9.2-22.7h7.6V42h-5.6V20.2c0-1.5,0.1-3.3,0.2-5.4l0.1-1.2h-0.1l-0.2,0.6
	c-0.3,1-0.5,1.8-0.7,2.4L94.8,42h-3.9L80.8,17c-0.3-0.7-0.5-1.7-0.8-3l-0.1-0.3h-0.1v0.4c0.1,1.3,0.1,3.2,0.2,5.7V42h-5.2V8.3H82.7z
	 M230.2,8.3c3.3,0,5.8,0.7,7.8,2.1c1.9,1.4,2.9,3.3,2.9,5.6c0,1.9-0.5,3.6-1.6,5c-1,1.3-2.4,2.3-4.1,2.9l-0.4,0.1v0.1
	c2.3,0.3,4.2,1.1,5.6,2.6s2.1,3.3,2.1,5.6c0,2.9-1.1,5.2-3.4,7c-2.2,1.7-4.9,2.6-8.2,2.7h-0.4h-10.8V8.3H230.2z M284.8,17.4
	c2.6,0,4.6,0.8,6,2.5c1.3,1.6,2,3.9,2.1,6.9v0.4V42h-5.5V28.5c0-4.5-1.6-6.7-4.8-6.7c-1.7,0-3,0.6-4.1,1.9c-1,1.2-1.6,2.6-1.6,4.4
	v0.3V42h-5.5V18h5.5v4h0.1C278.8,18.9,281.4,17.4,284.8,17.4z M303.6,6.4V29h0.1l8.8-11h6.6l-10,11.6L320,42h-6.9l-9.4-11.5h-0.1V42
	h-5.5V6.4H303.6z M168.8,17.4c5.2,0,7.9,3.1,8,9.4v0.3V42h-5.5V28.9c0-2.5-0.4-4.3-1.1-5.5s-1.9-1.7-3.6-1.7c-1.4,0-2.6,0.7-3.6,2.1
	c-0.9,1.3-1.4,2.9-1.5,4.7v0.4v13H156V28.5c0-4.5-1.6-6.7-4.8-6.7c-1.5,0-2.7,0.7-3.6,2c-0.9,1.3-1.4,2.9-1.4,4.8V29v13h-5.5V18h5.5
	v3.8h0.1c1.7-2.9,4.3-4.4,7.6-4.4c1.7,0,3.1,0.5,4.4,1.4c1.2,0.9,2.1,2.1,2.6,3.6C162.6,19.1,165.3,17.4,168.8,17.4z M42,14H28
	L14,28h14v14l14-14V14z M260.8,32.3v-2.1l-5.1,0.7c-1.6,0.2-2.7,0.6-3.5,1.1s-1.2,1.6-1.2,3c0,1,0.4,1.9,1.1,2.5s1.7,1,2.9,1
	c1.7,0,3-0.6,4.1-1.7c1-1.1,1.6-2.5,1.6-4.1L260.8,32.3z M193,21.7c-2.1,0-3.8,0.7-5.1,2.2S186,27.4,186,30c0,2.5,0.6,4.5,1.9,5.9
	s2.9,2.2,5,2.2s3.8-0.7,5-2.1s1.7-3.5,1.7-6.1s-0.6-4.7-1.7-6.1C196.8,22.5,195.2,21.7,193,21.7z M229.1,26.9h-4v10.7h4.8
	c2.1,0,3.7-0.5,4.8-1.4c1.1-1,1.7-2.3,1.7-4c0-3.4-2.3-5.2-7-5.2L229.1,26.9z M126.5,21.4c-1.6,0-2.9,0.6-4,1.7
	c-1,1.1-1.7,2.4-2,4.1l-0.1,0.4h11.2c0-2-0.5-3.5-1.4-4.6C129.3,22,128.1,21.4,126.5,21.4z M229.1,12.8H225v9.6h3.6
	c1.9,0,3.5-0.5,4.6-1.4s1.7-2.2,1.7-3.9c0-2.8-1.8-4.2-5.5-4.3H229.1z"/>
</svg>
