<?xml version="1.0" encoding="UTF-8" standalone="no"?>
<!-- Created with Inkscape (http://www.inkscape.org/) -->

<svg
   xmlns:dc="http://purl.org/dc/elements/1.1/"
   xmlns:cc="http://creativecommons.org/ns#"
   xmlns:rdf="http://www.w3.org/1999/02/22-rdf-syntax-ns#"
   xmlns:svg="http://www.w3.org/2000/svg"
   xmlns="http://www.w3.org/2000/svg"
   xmlns:sodipodi="http://sodipodi.sourceforge.net/DTD/sodipodi-0.dtd"
   xmlns:inkscape="http://www.inkscape.org/namespaces/inkscape"
   width="605.67108mm"
   height="94.62043mm"
   viewBox="0 0 605.67108 94.620429"
   version="1.1"
   id="svg8"
   inkscape:version="0.92.1 r15371"
   sodipodi:docname="finantia.svg">
  <defs
     id="defs2" />
  <sodipodi:namedview
     id="base"
     pagecolor="#ffffff"
     bordercolor="#666666"
     borderopacity="1.0"
     inkscape:pageopacity="0.0"
     inkscape:pageshadow="2"
     inkscape:zoom="0.35"
     inkscape:cx="305.95535"
     inkscape:cy="450.83467"
     inkscape:document-units="mm"
     inkscape:current-layer="layer1"
     showgrid="false"
     inkscape:window-width="1920"
     inkscape:window-height="1008"
     inkscape:window-x="0"
     inkscape:window-y="35"
     inkscape:window-maximized="1"
     fit-margin-top="-0.1"
     fit-margin-left="0"
     fit-margin-right="-0.5"
     fit-margin-bottom="0" />
  <metadata
     id="metadata5">
    <rdf:RDF>
      <cc:Work
         rdf:about="">
        <dc:format>image/svg+xml</dc:format>
        <dc:type
           rdf:resource="http://purl.org/dc/dcmitype/StillImage" />
        <dc:title></dc:title>
      </cc:Work>
    </rdf:RDF>
  </metadata>
  <g
     inkscape:label="Layer 1"
     inkscape:groupmode="layer"
     id="layer1"
     transform="translate(-58.066819,-341.54544)">
    <path
       style="fill:#000000;stroke-width:0.35277778"
       d=""
       id="path4579"
       inkscape:connector-curvature="0" />
    <path
       style="fill:#000000;stroke-width:0.35277778"
       d=""
       id="path3730"
       inkscape:connector-curvature="0" />
    <g
       id="g4637">
      <path
         style="fill:#2a416d;fill-opacity:1;stroke-width:0.29886135"
         d="m 231.86059,417.3638 c -3.61509,-0.92475 -7.02767,-3.7571 -8.49604,-7.05147 -1.33669,-2.99895 -1.54808,-7.20826 -0.49541,-9.86518 1.61459,-4.07528 4.78282,-5.7833 15.00588,-8.08981 5.22084,-1.17792 7.24459,-2.1563 7.8142,-3.77782 1.00831,-2.87037 -1.54877,-5.48001 -5.73946,-5.85741 -2.61242,-0.23526 -6.5371,0.83987 -10.80359,2.95958 -1.19715,0.59476 -2.226,1.02933 -2.28636,0.96569 -0.0604,-0.0637 1.31203,-2.36833 3.04971,-5.12154 l 3.15943,-5.00585 2.32818,-0.37514 c 4.17547,-0.67278 10.21102,0.12579 13.23108,1.75063 1.48037,0.79646 3.29887,2.50098 4.06751,3.81257 1.33849,2.28397 1.5395,4.04185 1.72926,15.12315 0.17053,9.95785 0.21007,10.53301 0.77966,11.33676 1.01412,1.43104 1.95504,1.96522 4.06555,2.30807 1.11538,0.1812 2.07193,0.37275 2.12569,0.42567 0.0538,0.0529 -0.82391,1.53184 -1.95039,3.28651 l -2.04813,3.19028 -2.01108,-0.22661 c -3.9704,-0.44741 -6.10299,-1.37616 -7.7121,-3.35869 -0.56487,-0.69594 -1.13833,-1.76166 -1.27436,-2.36825 l -0.24732,-1.10291 -2.65111,3.53923 c -2.38902,3.18934 -2.76243,3.55862 -3.77707,3.73539 -1.80658,0.31473 -6.23583,0.18359 -7.86373,-0.23285 z m 12.2672,-7.14307 1.74614,-0.57912 0.0785,-6.69808 c 0.0739,-6.30219 0.048,-6.68543 -0.43652,-6.48385 -0.28329,0.11783 -2.15206,0.69278 -4.15284,1.27765 -2.00078,0.58487 -4.3834,1.2834 -5.29472,1.55227 -2.93351,0.86552 -4.60005,2.90146 -4.60005,5.61969 0,2.57827 1.48017,4.57597 4.13137,5.57582 1.92602,0.72637 5.91359,0.60275 8.52811,-0.26438 z m 77.89625,7.25332 c -6.77937,-1.26977 -12.64763,-5.57713 -15.14831,-11.11896 -0.6254,-1.38599 -1.30218,-3.27869 -1.50392,-4.20597 -0.5005,-2.30041 -0.43207,-7.15606 0.13449,-9.54395 1.75533,-7.39811 7.54705,-13.5297 14.74036,-15.60535 2.53713,-0.73211 7.01987,-1.25134 9.29627,-1.07679 3.01329,0.23106 5.09338,0.48731 6.47525,0.7977 l 1.38236,0.3105 v 5.38751 5.38752 l -1.41647,-1.39728 c -2.62073,-2.58523 -5.27908,-3.62255 -9.28065,-3.6214 -6.83784,0.002 -11.40699,4.05664 -12.31304,10.9266 -1.52617,11.57187 9.01618,20.07816 20.52496,16.56097 2.84285,-0.86881 4.09728,-1.4853 6.90914,-3.39549 l 1.95027,-1.32487 -1.44504,2.58005 c -0.79476,1.41902 -2.20134,3.86335 -3.12572,5.43183 l -1.68071,2.8518 -2.02578,0.56811 c -2.35543,0.66057 -10.89892,0.96967 -13.47346,0.48747 z m 36.14325,-0.14973 c -6.99764,-1.61922 -12.67597,-6.93487 -14.73737,-13.79613 -0.88242,-2.93705 -0.93915,-10.13937 -0.10034,-12.73682 1.97393,-6.11243 6.06403,-10.63831 11.83588,-13.09695 4.10346,-1.74796 10.42279,-2.26547 14.68409,-1.20251 6.25287,1.55973 11.74391,6.62465 13.96026,12.87691 3.69263,10.41683 -1.11526,21.97768 -11.05005,26.57045 -3.83154,1.77129 -10.27871,2.38322 -14.59247,1.38505 z m 11.01485,-7.43723 c 4.58968,-2.38286 7.04391,-7.57925 6.51068,-13.7851 -0.38513,-4.48179 -1.67051,-7.48348 -4.34833,-10.15432 -1.87458,-1.86971 -3.58792,-2.73125 -6.21056,-3.12295 -3.63641,-0.54309 -6.90646,0.47357 -9.38395,2.91748 -2.72479,2.68791 -3.88228,5.85022 -3.8681,10.56802 0.0149,4.98813 1.51818,8.68947 4.82231,11.87415 2.22045,2.14016 4.39916,2.90289 7.93655,2.77847 2.28953,-0.0805 2.90553,-0.22645 4.5414,-1.07575 z m 140.57669,7.43825 c -5.83063,-1.65577 -9.46431,-6.53376 -9.44109,-12.67404 0.0122,-3.26172 0.80009,-5.38249 2.6927,-7.24946 2.25835,-2.22777 4.90093,-3.24001 13.64161,-5.22539 4.4257,-1.00528 5.62972,-1.49478 6.56746,-2.67006 1.41826,-1.77753 0.66404,-4.55497 -1.56213,-5.75268 -1.56062,-0.83963 -3.97322,-1.19428 -6.19506,-0.91067 -2.0691,0.26412 -6.2109,1.72167 -8.78888,3.09291 -0.93654,0.49818 -1.75046,0.85552 -1.80871,0.79411 -0.0582,-0.0615 1.32932,-2.3838 3.08343,-5.16086 3.70843,-5.87118 3.17246,-5.54558 9.15879,-5.56391 8.69866,-0.0267 13.64261,3.02309 14.83191,9.14921 0.28701,1.47833 0.43644,5.03903 0.5007,11.92856 0.0863,9.26149 0.12566,9.88236 0.68984,10.89517 0.802,1.43976 2.43606,2.34866 4.67763,2.60183 l 1.84989,0.20892 -2.10941,3.2751 -2.10942,3.27512 -1.16244,-0.0905 c -1.78318,-0.13878 -4.23743,-0.66331 -5.52779,-1.1814 -1.91144,-0.76746 -3.07282,-1.90702 -3.89849,-3.82519 l -0.76728,-1.78255 -2.56064,3.47962 c -2.26902,3.08332 -2.68277,3.50091 -3.63308,3.66661 -1.88533,0.32874 -6.55109,0.16778 -8.12954,-0.28047 z m 12.55713,-7.09347 1.71672,-0.57177 -0.0633,-6.59097 c -0.0349,-3.62504 -0.0984,-6.62788 -0.14108,-6.67297 -0.0428,-0.0451 -0.85225,0.20019 -1.79887,0.54505 -0.94663,0.34488 -3.29266,1.04492 -5.21341,1.55568 -5.61763,1.49381 -7.19852,2.89399 -7.19852,6.37574 0,2.87665 1.19342,4.58828 3.91451,5.61428 1.92855,0.72716 6.20806,0.6029 8.78404,-0.25504 z m 73.43038,7.23268 c -3.39271,-0.84251 -6.49491,-3.94915 -7.60157,-7.61245 -0.66481,-2.20068 -0.72528,-3.43729 -0.74109,-15.14761 l -0.0147,-10.97208 h -2.77138 -2.77134 l 0.12607,-2.07166 c 0.0693,-1.1394 0.13782,-2.10617 0.15216,-2.14837 0.0143,-0.0422 0.28308,-0.0767 0.59723,-0.0767 1.1628,0 3.77493,-1.28582 5.08761,-2.50439 2.26504,-2.1026 3.32243,-4.90978 3.62308,-9.61861 l 0.1764,-2.7622 h 2.10881 2.10877 v 6.21496 6.21495 l 4.14708,-0.002 c 2.28088,-9.2e-4 4.65627,-0.15081 5.27865,-0.33305 0.84452,-0.24729 1.18516,-0.23998 1.34267,0.0288 0.15185,0.25912 1.56139,0.33104 5.02345,0.25634 l 4.81235,-0.10382 1.17622,-0.99747 c 0.64695,-0.5486 1.23581,-0.99745 1.30858,-0.99745 0.0729,0 0.14638,8.43246 0.16356,18.73881 0.0265,15.96617 0.0955,18.86982 0.46537,19.62427 0.23882,0.48702 1.16709,1.51508 2.06286,2.28461 l 1.62867,1.39915 h -8.38711 -8.38713 l 1.15766,-0.99743 c 1.91272,-1.64802 2.68189,-2.68522 2.86706,-3.86614 0.23899,-1.52417 0.22439,-28.73975 -0.0162,-30.27777 -0.14907,-0.9526 -0.54832,-1.58864 -1.78203,-2.83893 -0.87446,-0.88621 -1.70329,-1.61129 -1.84187,-1.61129 -0.13856,0 -0.25194,1.95039 -0.25194,4.33419 v 4.3342 l -0.65481,-0.49633 c -1.90258,-1.44214 -2.32733,-1.55539 -6.27371,-1.67279 l -3.87282,-0.11518 0.0896,11.15607 c 0.0875,10.90449 0.10451,11.18818 0.75452,12.57964 1.54539,3.30807 5.33858,4.38673 9.448,2.68673 0.76028,-0.31452 1.38235,-0.50861 1.38235,-0.43132 0,0.5193 -5.40364,7.71543 -5.91442,7.87633 -0.92089,0.29009 -4.52718,0.244 -5.8087,-0.0742 z m 38.57417,-0.13812 c -3.64477,-1.03517 -6.64906,-3.62238 -8.2912,-7.14017 -0.79279,-1.6983 -0.94636,-2.40377 -1.04178,-4.78537 -0.0933,-2.32848 -0.005,-3.09385 0.53286,-4.59832 1.53587,-4.29906 4.77777,-6.18629 14.10284,-8.20976 5.04527,-1.09479 7.07219,-1.81968 8.09028,-2.89335 2.00575,-2.11526 0.4926,-5.64259 -2.80583,-6.54086 -3.67187,-0.99996 -7.22307,-0.31262 -13.10979,2.53738 -1.26504,0.61247 -2.32685,1.07725 -2.35953,1.03283 -0.0327,-0.0444 1.36924,-2.35956 3.11533,-5.14478 3.70374,-5.90799 3.17869,-5.59088 9.25642,-5.59048 7.67417,6.1e-4 12.5381,2.49522 14.24495,7.3062 0.84748,2.38878 1.11357,5.96306 1.13466,15.24271 0.0209,9.17752 0.13125,9.79407 1.9674,10.99081 0.54328,0.35409 1.9087,0.78796 3.03427,0.96414 l 2.04649,0.32033 -0.49651,0.80544 c -3.24883,5.27022 -3.68882,5.85734 -4.29223,5.72726 -0.33782,-0.0729 -1.37806,-0.2201 -2.31162,-0.32726 -2.11001,-0.24222 -4.52599,-1.10152 -5.73449,-2.03963 -1.06683,-0.82812 -2.31736,-2.9253 -2.31736,-3.88627 0,-0.36498 -0.0983,-0.65596 -0.21826,-0.64662 -0.12005,0.009 -1.36103,1.57899 -2.7577,3.48812 -2.27521,3.10997 -2.65375,3.49107 -3.63778,3.66259 -1.90632,0.33226 -6.56698,0.17506 -8.15142,-0.27494 z m 12.57079,-7.10025 1.73441,-0.57744 -0.0711,-6.58976 c -0.0536,-4.96926 -0.15807,-6.57381 -0.4248,-6.52494 -0.37169,0.0681 -7.96147,2.30787 -9.95349,2.93731 -1.33407,0.42154 -2.89885,1.76431 -3.51114,3.01297 -0.5635,1.14922 -0.53472,3.76892 0.0558,5.08138 0.57607,1.28029 1.83221,2.32636 3.59683,2.99532 1.70566,0.64661 6.14651,0.47317 8.57346,-0.33484 z m -471.00829,6.54044 c 0,-0.10138 0.64669,-0.52994 1.43706,-0.95234 1.54658,-0.82649 2.65079,-2.15092 3.17801,-3.81177 0.48354,-1.52323 0.49299,-45.19797 0.0104,-46.68478 -0.5627,-1.73258 -1.38144,-2.73166 -3.05474,-3.72756 -0.86375,-0.51409 -1.57046,-0.98038 -1.57046,-1.03621 0,-0.0558 5.59855,-0.0701 12.4412,-0.0316 13.68273,0.0769 14.94123,0.21389 18.62793,2.02791 2.18728,1.07623 4.82924,3.62336 5.75359,5.54708 0.83109,1.72962 1.23394,3.96223 1.10795,6.14018 -0.20823,3.59956 -1.79217,6.43951 -4.75542,8.52633 -1.45819,1.02689 -1.7009,1.30773 -1.26527,1.46401 2.09462,0.7514 5.522,2.7934 6.87118,4.09381 6.91258,6.66263 5.08553,18.94748 -3.6743,24.70532 -2.80255,1.84211 -4.53001,2.4618 -9.49687,3.40679 -1.34408,0.25571 -25.60999,0.57109 -25.60999,0.33283 z m 24.87082,-7.59632 c 5.05207,-0.95367 8.0477,-4.39635 8.06056,-9.26353 0.013,-4.89427 -2.47034,-8.28395 -7.27846,-9.93506 -1.49597,-0.51372 -8.94221,-0.92258 -10.64973,-0.58476 l -1.04223,0.2062 0.0768,9.72972 0.0768,9.72973 2.47369,0.30994 c 2.81613,0.35287 5.75632,0.28462 8.28252,-0.19224 z m -4.17007,-26.80065 c 5.20438,-1.16335 8.25396,-4.73124 7.51139,-8.78808 -0.13673,-0.74709 -0.25433,-1.46783 -0.26129,-1.60166 -0.007,-0.13384 -0.61603,-0.92359 -1.35347,-1.75499 -2.18664,-2.46534 -5.53565,-3.40736 -10.40344,-2.9263 l -2.22486,0.21986 v 7.6466 7.64659 l 2.40095,-0.006 c 1.32051,-0.003 3.26933,-0.19944 4.33072,-0.43669 z m 65.78321,33.19629 c 2.72321,-2.34109 2.54638,-1.07397 2.5809,-18.49461 0.0187,-9.45287 -0.08,-15.63937 -0.25751,-16.13048 -0.15836,-0.43815 -1.04528,-1.5085 -1.97092,-2.37856 l -1.68301,-1.58193 h 4.06158 c 4.67894,0 5.69076,-0.22906 7.02183,-1.58963 l 0.9647,-0.98607 v 3.46467 3.46467 l 1.52788,-1.45609 c 1.93807,-1.84702 5.05924,-3.42464 7.4542,-3.7678 5.11671,-0.73313 10.7229,1.21719 13.77397,4.79177 2.59099,3.03557 2.85039,4.73134 2.86661,18.74018 0.007,6.0198 0.12522,11.56658 0.26276,12.32619 0.20834,1.1505 0.55299,1.67574 2.06422,3.14584 l 1.81414,1.76474 h -8.36057 -8.36054 l 1.62867,-1.39915 c 2.71113,-2.32904 2.63091,-1.94257 2.70375,-13.02569 0.0611,-9.30282 -0.11639,-12.292 -0.84752,-14.27137 -0.63482,-1.71853 -1.73901,-2.90501 -3.60528,-3.87393 -3.45386,-1.79317 -7.95429,-1.2563 -10.6801,1.27406 -0.94917,0.88111 -1.38403,1.57062 -1.62376,2.57463 -0.39904,1.67128 -0.44171,22.13962 -0.0499,23.96433 0.20042,0.93345 0.69644,1.65053 2.06996,2.99238 l 1.80638,1.76474 h -8.34479 -8.34478 z m 144.64239,0.38224 c 1.75138,-0.95356 2.85298,-2.23337 3.39667,-3.94613 0.23367,-0.73603 0.33524,-7.58581 0.34725,-23.4142 l 0.0168,-22.3738 -0.72505,-1.67015 c -0.54488,-1.25523 -1.0475,-1.88125 -2.02301,-2.51982 -0.71391,-0.4673 -1.54076,-1.01019 -1.83746,-1.20641 -0.41417,-0.27392 3.01814,-0.36197 14.78202,-0.37921 9.34862,-0.0137 15.61678,-0.14085 16.079,-0.3262 l 0.75754,-0.30374 v 5.82372 c 0,3.20305 -0.0824,5.82372 -0.183,5.82372 -0.10068,0 -0.70669,-0.49894 -1.34673,-1.10877 -2.01173,-1.91669 -3.36868,-2.36799 -7.56481,-2.51593 -2.04086,-0.0719 -4.82377,-0.0331 -6.18424,0.0865 l -2.47361,0.2173 -2.3e-4,7.26159 -2.3e-4,7.26159 5.84321,-0.0787 c 3.2138,-0.0433 6.08643,-0.21589 6.38361,-0.38364 0.29723,-0.16774 0.6597,-0.30499 0.80552,-0.30499 0.14893,0 0.27916,2.51779 0.29714,5.74415 l 0.032,5.74414 -1.00355,-1.15525 c -1.60496,-1.84758 -2.57693,-2.13383 -7.77384,-2.28944 l -4.5836,-0.13724 v 10.26249 c 0,11.42378 0.15058,12.63386 1.78691,14.35952 0.49535,0.52241 1.50733,1.28307 2.24882,1.69038 l 1.3482,0.74055 -10.04029,-6.1e-4 -10.04027,-6.2e-4 1.65507,-0.90112 z m 32.98307,-0.0668 c 2.17342,-1.87266 2.71681,-2.68551 2.90659,-4.34801 0.098,-0.85803 0.1374,-8.05123 0.0877,-15.98489 -0.10254,-16.3516 0.0956,-15.04914 -2.6382,-17.34467 l -1.4571,-1.22346 h 4.22149 c 5.16154,0 5.71649,-0.10915 7.15447,-1.40718 l 1.1399,-1.029 0.0538,18.76415 c 0.0425,14.81899 0.13521,18.96957 0.44099,19.74131 0.21292,0.53745 1.13411,1.61888 2.04708,2.40319 l 1.65994,1.42599 h -8.38713 -8.38712 z m 18.58164,-0.92076 c 1.76233,-1.79352 1.89707,-2.02791 2.07276,-3.60621 0.10335,-0.9284 0.14601,-8.11013 0.0948,-15.95938 -0.10579,-16.22327 0.0892,-14.986 -2.70963,-17.18704 l -1.36596,-1.07419 4.61046,-0.15345 c 4.91382,-0.16356 5.95257,-0.44991 6.92098,-1.908 0.42367,-0.63789 0.45419,-0.46262 0.45419,2.60698 0,1.80997 0.0748,3.29086 0.16608,3.29086 0.0913,0 0.77885,-0.53454 1.52786,-1.18787 3.01063,-2.62613 6.06665,-3.82906 9.68855,-3.81367 7.10234,0.0302 12.67004,4.08014 13.98057,10.16948 0.17525,0.81438 0.36085,6.65282 0.43077,13.55365 0.0746,7.35331 0.24466,12.52012 0.43235,13.13235 0.19272,0.62854 0.96401,1.58379 2.04441,2.53201 l 1.73495,1.52267 h -8.35883 -8.35884 l 1.78647,-1.70493 c 1.23067,-1.1745 1.87939,-2.05775 2.08512,-2.83893 0.17522,-0.66527 0.29935,-5.1684 0.30027,-10.89457 0.003,-12.01394 -0.19441,-13.34028 -2.30505,-15.56616 -3.1254,-3.29604 -8.91168,-3.50655 -12.69675,-0.46193 -1.88953,1.51988 -1.90172,1.61672 -1.88263,14.94745 0.0195,13.69537 -0.11649,12.89175 2.5757,15.20619 l 1.52718,1.31288 h -8.32032 -8.32028 z m 82.46683,-0.0472 1.96705,-1.96534 v -15.91223 c 0,-18.05595 0.20806,-16.51804 -2.54774,-18.83207 l -1.4571,-1.22347 h 4.26721 c 4.52834,0 5.74141,-0.27452 7.082,-1.60271 l 0.65876,-0.65267 v 3.31179 3.31177 l 1.15346,-1.09897 c 2.9487,-2.80943 6.28455,-4.24419 9.91885,-4.26614 3.06845,-0.0186 5.02763,0.44086 7.81919,1.8335 3.52125,1.7567 5.66294,4.48924 6.45286,8.23313 0.18404,0.87221 0.4017,6.87552 0.51131,14.1021 0.21606,14.24453 0.0377,13.23535 2.73861,15.5032 l 1.45708,1.22347 h -8.38177 -8.38173 l 1.78958,-1.70791 c 1.31801,-1.25785 1.87317,-2.03521 2.10674,-2.94998 0.47623,-1.86513 0.22993,-22.15679 -0.28616,-23.57794 -1.56654,-4.31357 -6.26595,-6.3596 -11.31424,-4.92602 -1.71739,0.48769 -3.85898,2.14484 -4.5122,3.49153 -0.53835,1.10987 -0.56786,1.82925 -0.53788,13.11872 0.0361,13.6051 -0.0838,12.89216 2.54732,15.15245 l 1.62868,1.39915 h -8.32348 -8.32347 z m -94.36141,-41.83086 c -2.29561,-0.28122 -3.55154,-1.17819 -4.55542,-3.25337 -1.27931,-2.64455 -0.0653,-6.38652 2.46474,-7.59797 2.3902,-1.14444 4.87289,-0.63096 6.52107,1.34871 2.27026,2.72684 1.80841,6.69917 -0.99952,8.59652 -1.22468,0.82756 -2.12697,1.06585 -3.43087,0.90611 z m 167.16731,-0.0727 c -2.54946,-0.36274 -4.35756,-2.37497 -4.57082,-5.08681 -0.25488,-3.24148 1.83093,-5.90925 4.86021,-6.21622 1.91417,-0.19397 3.28114,0.34311 4.50276,1.76913 2.3738,2.77094 1.96054,6.76787 -0.89961,8.70051 -1.34269,0.90729 -2.15335,1.08085 -3.89254,0.83339 z"
         id="path4587"
         inkscape:connector-curvature="0" />
      <g
         id="g4593"
         transform="translate(-12.095238,2.9137014)">
        <path
           style="fill:#d0d0d0;fill-opacity:1;stroke-width:0.35277778"
           d="M 93.796524,409.61548 70.162057,385.97904 93.885703,362.25539 117.60935,338.53174 v 9.17032 9.17032 l -14.54797,14.55114 -14.547971,14.55114 3.519318,3.53258 3.519318,3.53257 10.942525,-10.93839 c 6.01839,-6.01611 11.02097,-10.93851 11.11685,-10.93866 0.0959,-1.5e-4 0.13041,3.92891 0.0767,8.73125 l -0.0976,8.73152 -6.60172,6.61458 -6.60171,6.61459 6.60199,6.61458 6.602,6.61458 0.0973,9.08429 c 0.0535,4.99635 0.0175,9.08416 -0.0801,9.08402 -0.0975,-1.3e-4 -10.81288,-10.63665 -23.811836,-23.63669 z m 27.340606,14.73036 v -8.90609 l 14.64281,-14.64592 14.64281,-14.64593 -3.53257,-3.51932 -3.53258,-3.51932 -11.11024,11.10604 -11.11023,11.10603 v -8.82082 -8.82083 l 6.70286,-6.6959 6.70287,-6.6959 -6.70287,-6.70948 -6.70286,-6.70949 v -9.08072 c 0,-4.99439 0.0879,-9.08071 0.19536,-9.08071 0.10744,0 10.84432,10.65424 23.85972,23.67609 l 23.66436,23.6761 -23.59415,23.59613 c -12.97678,12.97786 -23.71366,23.59612 -23.85972,23.59612 -0.14606,0 -0.26557,-4.00774 -0.26557,-8.90608 z"
           id="path4589"
           inkscape:connector-curvature="0" />
        <path
           style="fill:#b9b9b9;fill-opacity:1;stroke-width:0.35277778"
           d="m 93.871285,409.66091 -23.561676,-23.57558 23.561676,-23.54892 23.561675,-23.54893 0.0944,8.93622 0.0944,8.93622 -14.53006,14.53323 -14.530064,14.53324 1.046282,1.17318 c 0.575455,0.64525 2.143845,2.24114 3.485314,3.54643 l 2.439031,2.37325 0.849913,-0.78575 c 0.467451,-0.43216 5.434784,-5.37276 11.038524,-10.97911 l 10.18861,-10.19336 v 8.78583 8.78582 l -6.52639,6.51924 c -3.58951,3.58558 -6.52639,6.62494 -6.52639,6.75414 0,0.1292 2.93688,3.16576 6.52639,6.74792 l 6.52639,6.51302 v 9.04246 c 0,4.97335 -0.0397,9.03899 -0.0882,9.03474 -0.0485,-0.004 -10.69095,-10.61672 -23.649875,-23.58329 z m 27.618625,14.39096 v -8.96486 l 14.54797,-14.55114 14.54797,-14.55114 -3.51932,-3.53257 -3.51932,-3.53258 -11.02865,11.02449 -11.02865,11.02448 -0.0406,-8.11179 c -0.0223,-4.46148 -0.0108,-8.42928 0.0256,-8.81734 0.0366,-0.38978 3.01362,-3.66594 6.65173,-7.32014 l 6.58545,-6.61458 -6.6111,-6.61798 -6.6111,-6.61798 v -8.99144 -8.99145 l 23.45972,23.45774 c 12.90284,12.90175 23.45972,23.54881 23.45972,23.66012 0,0.14936 -45.73451,45.9998 -46.74754,46.86603 -0.0945,0.0808 -0.1719,-3.88719 -0.1719,-8.81787 z"
           id="path4591"
           inkscape:connector-curvature="0" />
      </g>
    </g>
  </g>
</svg>
