<?xml version="1.0" encoding="UTF-8"?>
<!-- Generator: Adobe Illustrator 25.3.1, SVG Export Plug-In . SVG Version: 6.00 Build 0)  -->
<svg xmlns="http://www.w3.org/2000/svg" xmlns:xlink="http://www.w3.org/1999/xlink" version="1.1" id="Layer_1" x="0px" y="0px" viewBox="0 0 640 203.5" style="enable-background:new 0 0 640 203.5;" xml:space="preserve">
<style type="text/css">
	.st0{clip-path:url(#SVGID_2_);}
	.st1{clip-path:url(#SVGID_4_);fill:#706F6F;}
	.st2{clip-path:url(#SVGID_6_);fill:#706F6F;}
	.st3{clip-path:url(#SVGID_8_);fill:#706F6F;}
	.st4{clip-path:url(#SVGID_10_);fill:#706F6F;}
	.st5{clip-path:url(#SVGID_12_);fill:#706F6F;}
	.st6{clip-path:url(#SVGID_14_);fill:#9E092F;}
	.st7{clip-path:url(#SVGID_16_);fill:#706F6F;}
	.st8{clip-path:url(#SVGID_18_);fill:#706F6F;}
	.st9{clip-path:url(#SVGID_20_);fill:#706F6F;}
	.st10{clip-path:url(#SVGID_22_);fill:#706F6F;}
	.st11{clip-path:url(#SVGID_24_);fill:#706F6F;}
	.st12{clip-path:url(#SVGID_26_);fill:#706F6F;}
	.st13{clip-path:url(#SVGID_28_);fill:#706F6F;}
	.st14{clip-path:url(#SVGID_30_);fill:#9E092F;}
	.st15{clip-path:url(#SVGID_32_);fill:#9E092F;}
	.st16{clip-path:url(#SVGID_34_);fill:#9E092F;}
</style>
<g>
	<g>
		<g>
			<g>
				<defs>
					<rect id="SVGID_1_" width="640" height="203.5"></rect>
				</defs>
				<clipPath id="SVGID_2_">
					<use xlink:href="#SVGID_1_" style="overflow:visible;"></use>
				</clipPath>
				<g class="st0">
					<g>
						<g>
							<defs>
								<rect id="SVGID_3_" width="640" height="203.5"></rect>
							</defs>
							<clipPath id="SVGID_4_">
								<use xlink:href="#SVGID_3_" style="overflow:visible;"></use>
							</clipPath>
							<path class="st1" d="M290.3,52.9c6.5-3.9,9.7-9.3,9.7-16.6V36c0-5.2-1.7-9.4-5.3-13c-4.5-4.5-11.5-6.9-20.2-6.9h-27.1         c-4.1,0-7.4,3.2-7.4,7.4v62c0,4.1,3.2,7.4,7.4,7.4h28.2c17.9,0,28.6-8,28.6-21.4v-0.2C304.3,62.4,299.8,56.5,290.3,52.9          M285.4,38.4c0,8.3-8.5,9.5-13.5,9.5h-17.4V29.3h18.3c8,0,12.5,3.2,12.5,8.9L285.4,38.4L285.4,38.4z M289.6,69.9v0.2         c0,8.4-8.6,9.6-13.8,9.6h-21.2V60.5h20.3C281.6,60.5,289.6,62.1,289.6,69.9"></path>
						</g>
					</g>
					<g>
						<g>
							<defs>
								<rect id="SVGID_5_" width="640" height="203.5"></rect>
							</defs>
							<clipPath id="SVGID_6_">
								<use xlink:href="#SVGID_5_" style="overflow:visible;"></use>
							</clipPath>
							<path class="st2" d="M358.3,20.9c-1.7-3.8-4.7-5.8-8.5-5.8h-0.6c-3.9,0-6.9,2.1-8.6,5.8l-28,62.4c-0.6,1.3-0.9,2.3-0.9,3.3         c0,3.8,3,6.9,6.9,6.9c3.1,0,5.6-1.7,6.8-4.6l6.2-14.1h35.6l6,13.6c1.4,3.3,3.9,5.1,7.1,5.1c3.9,0,7-3.1,7-7.1         c0-1.1-0.3-2.1-0.8-3.1L358.3,20.9z M361.4,61.6h-24.3l12.1-27.9L361.4,61.6z"></path>
						</g>
					</g>
					<g>
						<g>
							<defs>
								<rect id="SVGID_7_" width="640" height="203.5"></rect>
							</defs>
							<clipPath id="SVGID_8_">
								<use xlink:href="#SVGID_7_" style="overflow:visible;"></use>
							</clipPath>
							<path class="st3" d="M458.8,15.6c-4,0-7.2,3.2-7.2,7.2V67l-36.4-47.1c-1.6-2-3.7-4.1-7.4-4.1h-1.4c-4.1,0-7.4,3.3-7.4,7.4         v63.2c0,4,3.3,7.2,7.3,7.2s7.2-3.2,7.2-7.2V40.6l37.4,48.5c1.7,2.2,3.8,4.2,7.5,4.2h0.5c4,0,7.2-3.2,7.2-7.3V22.8         C466,18.8,462.8,15.6,458.8,15.6"></path>
						</g>
					</g>
					<g>
						<g>
							<defs>
								<rect id="SVGID_9_" width="640" height="203.5"></rect>
							</defs>
							<clipPath id="SVGID_10_">
								<use xlink:href="#SVGID_9_" style="overflow:visible;"></use>
							</clipPath>
							<path class="st4" d="M539.9,71.8c-1.6,0-3.2,0.6-4.5,1.7c-5.9,5-11.2,7-18.4,7c-13.8,0-24.1-11.2-24.1-26v-0.2         c0-14.7,10.4-25.9,24.1-25.9c6.4,0,12,2.1,17.5,6.6c1.3,0.9,2.8,1.4,4.4,1.4c4.1,0,7.3-3.1,7.3-7.2c0-2.3-1-4.4-2.9-5.8         c-7.8-6-15.9-8.6-26.3-8.6c-22.5,0-39.6,17.1-39.6,39.7v0.2c0,22.5,16.8,39.5,39,39.5c11.1,0,19.7-3.2,27.8-10.3         c1.5-1.4,2.4-3.3,2.4-5.3C546.8,74.9,543.7,71.8,539.9,71.8"></path>
						</g>
					</g>
					<g>
						<g>
							<defs>
								<rect id="SVGID_11_" width="640" height="203.5"></rect>
							</defs>
							<clipPath id="SVGID_12_">
								<use xlink:href="#SVGID_11_" style="overflow:visible;"></use>
							</clipPath>
							<path class="st5" d="M627.8,83.3l-28-62.4c-1.7-3.8-4.7-5.8-8.5-5.8h-0.7c-3.9,0-6.9,2.1-8.6,5.8l-28,62.4         c-0.6,1.3-0.9,2.3-0.9,3.3c0,3.8,3,6.9,6.8,6.9c3.1,0,5.6-1.7,6.8-4.6l6.2-14.1h35.6l6,13.6c1.4,3.3,3.9,5.1,7.1,5.1         c3.9,0,7-3.1,7-7.1C628.7,85.3,628.4,84.2,627.8,83.3 M603,61.6h-24.3l12.1-27.9L603,61.6z"></path>
						</g>
					</g>
					<g>
						<g>
							<defs>
								<rect id="SVGID_13_" width="640" height="203.5"></rect>
							</defs>
							<clipPath id="SVGID_14_">
								<use xlink:href="#SVGID_13_" style="overflow:visible;"></use>
							</clipPath>
							<path class="st6" d="M587.9,105.5c-23.1,0-41.3,17.9-41.3,40.7v0.2c0,23.1,17.7,40.5,41,40.5c23.1,0,41.3-17.9,41.3-40.7V146         C628.9,122.9,611.3,105.5,587.9,105.5 M562.3,146c0-15.1,10.9-26.6,25.4-26.6c14.6,0,25.6,11.5,25.6,26.8v0.2         c0,15.1-10.9,26.5-25.4,26.5c-14.6,0-25.6-11.5-25.6-26.7V146z"></path>
						</g>
					</g>
					<g>
						<g>
							<defs>
								<rect id="SVGID_15_" width="640" height="203.5"></rect>
							</defs>
							<clipPath id="SVGID_16_">
								<use xlink:href="#SVGID_15_" style="overflow:visible;"></use>
							</clipPath>
							<path class="st7" d="M54.1,106.5H30.4c-4.2,0-7.6,3.3-7.6,7.6v64.3c0,4.2,3.3,7.5,7.6,7.5c4.2,0,7.5-3.3,7.5-7.5v-18h14.6         c19.2,0,31.6-10.6,31.6-27.1v-0.2C84.2,117,72.4,106.5,54.1,106.5 M68.9,133.6c0,7.8-6.4,13.1-16,13.1h-15v-26.4H53         c10.1,0,16,4.8,16,13.1L68.9,133.6L68.9,133.6z"></path>
						</g>
					</g>
					<g>
						<g>
							<defs>
								<rect id="SVGID_17_" width="640" height="203.5"></rect>
							</defs>
							<clipPath id="SVGID_18_">
								<use xlink:href="#SVGID_17_" style="overflow:visible;"></use>
							</clipPath>
							<path class="st8" d="M129.6,106.5H102c-4.2,0-7.6,3.3-7.6,7.6v64.3c0,4.2,3.3,7.5,7.6,7.5c4.2,0,7.5-3.3,7.5-7.5v-20h16.1         L144,182c1.9,2.6,4.2,3.8,7.2,3.8c3.5,0,7.2-2.7,7.2-7c0-2.2-0.9-3.8-2.4-5.6l-14.2-17.9c11-3.8,17.1-12,17.1-23.5v-0.2         c0-6.8-2.3-12.7-6.6-17.2C147.1,109.3,139.2,106.5,129.6,106.5 M143.8,132.4v0.2c0,7.4-6,12.2-15.2,12.2h-19.2v-24.5h19.1         C138.3,120.3,143.8,124.6,143.8,132.4"></path>
						</g>
					</g>
					<g>
						<g>
							<defs>
								<rect id="SVGID_19_" width="640" height="203.5"></rect>
							</defs>
							<clipPath id="SVGID_20_">
								<use xlink:href="#SVGID_19_" style="overflow:visible;"></use>
							</clipPath>
							<path class="st9" d="M209.8,105.2c-23.1,0-41.3,17.9-41.3,40.7v0.2c0,23.1,17.7,40.5,41.1,40.5c23.1,0,41.3-17.9,41.3-40.7         v-0.2C250.8,122.6,233.2,105.2,209.8,105.2 M209.8,172.6c-14.6,0-25.6-11.5-25.6-26.7v-0.2c0-15.1,10.9-26.6,25.4-26.6         c14.6,0,25.6,11.5,25.6,26.8v0.2C235.1,161.2,224.2,172.6,209.8,172.6"></path>
						</g>
					</g>
					<g>
						<g>
							<defs>
								<rect id="SVGID_21_" width="640" height="203.5"></rect>
							</defs>
							<clipPath id="SVGID_22_">
								<use xlink:href="#SVGID_21_" style="overflow:visible;"></use>
							</clipPath>
							<path class="st10" d="M326.3,140.7h-21.5c-3.8,0-6.8,3-6.8,6.7c0,3.6,3,6.6,6.8,6.6h14.5v13.4c-4.9,3.5-11.4,5.5-18,5.5         c-15.1,0-25.6-11.1-25.6-26.9v-0.2c0-14.6,10.9-26.6,24.4-26.6c9,0,14.4,3,18.4,5.9c1.2,0.8,2.7,1.7,4.6,1.7         c4.1,0,7.5-3.4,7.5-7.5c0-3.4-2.1-5.4-3.1-6.1c-7.8-5.6-15.8-8-26.8-8c-22.8,0-40.6,17.9-40.6,40.7v0.2         c0,23.8,16.8,40.5,40.8,40.5c12.5,0,22.1-4.6,27.9-8.5c3.4-2.1,5.1-5.1,5.1-9.2v-20.7C333.9,144,330.6,140.7,326.3,140.7"></path>
						</g>
					</g>
					<g>
						<g>
							<defs>
								<rect id="SVGID_23_" width="640" height="203.5"></rect>
							</defs>
							<clipPath id="SVGID_24_">
								<use xlink:href="#SVGID_23_" style="overflow:visible;"></use>
							</clipPath>
							<path class="st11" d="M398.9,171.7h-38.1v-19.3h32.5c3.8,0,6.8-3,6.8-6.7c0-3.8-3-6.9-6.8-6.9h-32.5v-18.7h37.5         c3.8,0,6.8-3,6.8-6.8c0-3.7-3.1-6.8-6.8-6.8h-45c-4.2,0-7.6,3.3-7.6,7.6v63.6c0,4.2,3.3,7.6,7.6,7.6h45.5         c3.8,0,6.8-3,6.8-6.8C405.7,174.8,402.6,171.7,398.9,171.7"></path>
						</g>
					</g>
					<g>
						<g>
							<defs>
								<rect id="SVGID_25_" width="640" height="203.5"></rect>
							</defs>
							<clipPath id="SVGID_26_">
								<use xlink:href="#SVGID_25_" style="overflow:visible;"></use>
							</clipPath>
							<path class="st12" d="M469.8,106.5h-51.4c-3.9,0-7,3.1-7,7s3.1,7,7,7h18.1v57.8c0,4.1,3.4,7.5,7.6,7.5s7.6-3.4,7.6-7.5v-57.8         h18.2c3.8,0,6.9-3.1,6.9-7C476.8,109.7,473.7,106.5,469.8,106.5"></path>
						</g>
					</g>
					<g>
						<g>
							<defs>
								<rect id="SVGID_27_" width="640" height="203.5"></rect>
							</defs>
							<clipPath id="SVGID_28_">
								<use xlink:href="#SVGID_27_" style="overflow:visible;"></use>
							</clipPath>
							<path class="st13" d="M541.1,106.5h-51.4c-3.9,0-7,3.1-7,7s3.2,7,7,7h18.1v57.8c0,4.1,3.4,7.5,7.6,7.5c4.2,0,7.6-3.4,7.6-7.5         v-57.8h18.2c3.8,0,6.9-3.1,6.9-7C548,109.7,544.9,106.5,541.1,106.5"></path>
						</g>
					</g>
					<g>
						<g>
							<defs>
								<rect id="SVGID_29_" width="640" height="203.5"></rect>
							</defs>
							<clipPath id="SVGID_30_">
								<use xlink:href="#SVGID_29_" style="overflow:visible;"></use>
							</clipPath>
							<path class="st14" d="M156.8,59.3V42.9l-47.3-0.2C105.8,22.5,88.1,7.1,66.8,7c-11.7,0-22.7,4.5-30.9,12.7         C27.6,27.9,23,38.9,23,50.6c-0.1,24.1,19.4,43.8,43.6,43.9c21.3,0.1,39.1-15,43-35.2H156.8l-0.1,15.5c0,4.1,3.3,7.4,7.3,7.4         c4.1,0,7.4-3.3,7.4-7.3l0.1-15.6L156.8,59.3L156.8,59.3z M91.7,51.7C91.2,65.1,80,75.9,66.5,75.8         c-13.9,0-25.1-11.4-25.1-25.3c0-6.7,2.7-13,7.4-17.8s11.1-7.3,17.8-7.3c13.6,0.1,24.6,10.9,25.1,24.4c0,0.3-0.1,0.6-0.1,0.9         S91.7,51.4,91.7,51.7"></path>
						</g>
					</g>
					<g>
						<g>
							<defs>
								<rect id="SVGID_31_" width="640" height="203.5"></rect>
							</defs>
							<clipPath id="SVGID_32_">
								<use xlink:href="#SVGID_31_" style="overflow:visible;"></use>
							</clipPath>
							<path class="st15" d="M213,43.1L195,43v16.2h18c4.5,0,8.2-3.5,8.2-8C221.2,46.8,217.5,43.1,213,43.1"></path>
						</g>
					</g>
					<g>
						<g>
							<defs>
								<rect id="SVGID_33_" width="640" height="203.5"></rect>
							</defs>
							<clipPath id="SVGID_34_">
								<use xlink:href="#SVGID_33_" style="overflow:visible;"></use>
							</clipPath>
							<path class="st16" d="M180.3,59.3l-0.1,22.1c0,4.1,3.3,7.4,7.3,7.4c4.1,0,7.4-3.3,7.4-8l0.1-21.5L180.3,59.3L180.3,59.3z"></path>
						</g>
					</g>
				</g>
			</g>
		</g>
	</g>
</g>
</svg>
