<svg xmlns="http://www.w3.org/2000/svg" viewBox="0 0 494 113.83"><defs><style>.cls-1{fill:#bad1e0;}.cls-2{fill:#1780c2;}.cls-3{fill:#7aaedf;}.cls-4{fill:#54595e;}.cls-5{fill:#9da6ab;}</style></defs><g id="Layer_2" data-name="Layer 2"><g id="Layer_1-2" data-name="Layer 1"><path class="cls-1" d="M1.22,92.53S-12.59,31.67,52.64,0l7.94,30.58s-49,12.7-59.36,62"/><path class="cls-2" d="M112.78,91.25l-30.58-8S95,34.27,57,1.28c0,0,59.86,17.57,55.76,90Z"/><path class="cls-3" d="M56.14,113.83c-15.46,0-33.51-4.49-53-17.82l22.6-22.08s24,24.59,59.24,24.59a77.53,77.53,0,0,0,24-3.84s-20.87,19.15-52.8,19.15"/><path class="cls-2" d="M152.53,29.5q2.75-.7,7.23-1.45a61,61,0,0,1,10.38-.78,19.23,19.23,0,0,1,7.17,1.16,12.51,12.51,0,0,1,4.88,3.37c.4-.28,1-.68,1.88-1.19a20.49,20.49,0,0,1,3.16-1.5,35.6,35.6,0,0,1,4.17-1.29,21.87,21.87,0,0,1,5-.55,20,20,0,0,1,8.37,1.5A12,12,0,0,1,209.83,33a16.52,16.52,0,0,1,2.48,6.5,48.73,48.73,0,0,1,.63,8.21V72.64H205V49.41a52,52,0,0,0-.38-6.75,12.7,12.7,0,0,0-1.46-4.7,6.7,6.7,0,0,0-2.9-2.78,10.8,10.8,0,0,0-4.74-.9,17.7,17.7,0,0,0-6.63,1.06,13.69,13.69,0,0,0-3.55,1.93,27.25,27.25,0,0,1,1,4.88,42.78,42.78,0,0,1,.36,5.55V72.64h-8V49.41a45.1,45.1,0,0,0-.43-6.75,14.14,14.14,0,0,0-1.48-4.7A6.88,6.88,0,0,0,174,35.18a10.63,10.63,0,0,0-4.66-.9c-.8,0-1.66,0-2.57.08s-1.78.14-2.61.22-1.58.19-2.27.3l-1.36.25V72.64h-7.95V29.5Z"/><path class="cls-2" d="M224,50.52a28.32,28.32,0,0,1,1.7-10.3,21.63,21.63,0,0,1,4.54-7.31,18.31,18.31,0,0,1,6.49-4.36,20.61,20.61,0,0,1,7.51-1.44q9,0,13.77,5.58c3.19,3.74,4.78,9.44,4.78,17.06v1.32a11.25,11.25,0,0,1-.09,1.49H232.23c.34,4.62,1.69,8.12,4,10.52s6,3.59,10.94,3.59a28.86,28.86,0,0,0,7.05-.73,23.91,23.91,0,0,0,4.31-1.42l1.12,6.67a23.34,23.34,0,0,1-5.1,1.62,36,36,0,0,1-8.24.86,26.32,26.32,0,0,1-10-1.75,18.85,18.85,0,0,1-7-4.83,19.61,19.61,0,0,1-4.06-7.3A31,31,0,0,1,224,50.52Zm30.5-4.36a13.38,13.38,0,0,0-2.69-8.85,9.28,9.28,0,0,0-7.65-3.46,10.44,10.44,0,0,0-4.82,1.07,11.38,11.38,0,0,0-3.56,2.77,13.11,13.11,0,0,0-2.26,3.94,19,19,0,0,0-1.07,4.53Z"/><path class="cls-4" d="M303.87,7.71l8-1.37v65q-2.74.76-7,1.53a55.32,55.32,0,0,1-9.83.77,24.73,24.73,0,0,1-9.23-1.62,19.43,19.43,0,0,1-7-4.63,19.78,19.78,0,0,1-4.49-7.28,28,28,0,0,1-1.59-9.71A31.4,31.4,0,0,1,274,41a21.16,21.16,0,0,1,3.89-7.35,17.66,17.66,0,0,1,6.28-4.78,20.1,20.1,0,0,1,8.5-1.71,20.68,20.68,0,0,1,6.79,1,21.24,21.24,0,0,1,4.4,2V7.71Zm0,29.9a16.72,16.72,0,0,0-4.18-2.31,15.77,15.77,0,0,0-6-1.1,12.73,12.73,0,0,0-5.85,1.24,10.94,10.94,0,0,0-4,3.41A14.7,14.7,0,0,0,281.66,44a28.51,28.51,0,0,0-.68,6.41c0,5.18,1.27,9.18,3.84,12a13.2,13.2,0,0,0,10.25,4.24,42.6,42.6,0,0,0,5.43-.3,29.36,29.36,0,0,0,3.37-.64V37.61Z"/><path class="cls-4" d="M329.76,20.18a5.13,5.13,0,0,1-3.63-1.4,5,5,0,0,1-1.5-3.8,5.13,5.13,0,1,1,10.26,0,5,5,0,0,1-1.5,3.8,5.13,5.13,0,0,1-3.63,1.4Zm4,52.46h-7.95V28.21h7.95V72.64Z"/><path class="cls-4" d="M364.2,27.27c.68,0,1.46.05,2.35.14s1.75.2,2.6.32,1.64.3,2.36.45a14.51,14.51,0,0,1,1.57.37l-1.36,6.93a27.57,27.57,0,0,0-3.12-.82,28.42,28.42,0,0,0-5.6-.46,21.6,21.6,0,0,0-4.39.46l-2.87.64V72.64h-7.95V30.1a51.94,51.94,0,0,1,7-1.92,44.74,44.74,0,0,1,9.4-.91Z"/><path class="cls-4" d="M377.35,50.52a28.31,28.31,0,0,1,1.72-10.3,21.59,21.59,0,0,1,4.52-7.31,18.53,18.53,0,0,1,6.5-4.36,20.59,20.59,0,0,1,7.52-1.44q9,0,13.76,5.58c3.19,3.74,4.79,9.44,4.79,17.06v1.32a13.12,13.12,0,0,1-.1,1.49H385.65q.5,6.93,4,10.52t10.93,3.59a29,29,0,0,0,7.06-.73A23.91,23.91,0,0,0,412,64.52l1.11,6.67A23.27,23.27,0,0,1,408,72.81a36.17,36.17,0,0,1-8.25.86,26.27,26.27,0,0,1-10-1.75,18.8,18.8,0,0,1-7-4.83,19.89,19.89,0,0,1-4.06-7.3,31,31,0,0,1-1.33-9.27Zm30.51-4.36a13.32,13.32,0,0,0-2.68-8.85,9.28,9.28,0,0,0-7.65-3.46,10.55,10.55,0,0,0-4.84,1.07,11.53,11.53,0,0,0-3.54,2.77,12.72,12.72,0,0,0-2.27,3.94,19,19,0,0,0-1.06,4.53Z"/><path class="cls-4" d="M447.25,73.67A24.17,24.17,0,0,1,437.81,72,19.16,19.16,0,0,1,431,67.19a20,20,0,0,1-4.14-7.31,30.41,30.41,0,0,1-1.36-9.36A28.37,28.37,0,0,1,427,41.1a22.39,22.39,0,0,1,4.23-7.37,19.06,19.06,0,0,1,6.71-4.88,21.83,21.83,0,0,1,8.84-1.74,35.4,35.4,0,0,1,6,.5,27.51,27.51,0,0,1,5.73,1.63L456.66,36a18.71,18.71,0,0,0-4.15-1.37,23.47,23.47,0,0,0-5-.51q-6.66,0-10.21,4.19t-3.55,12.22a25.17,25.17,0,0,0,.82,6.58,13.75,13.75,0,0,0,2.56,5.13,11.29,11.29,0,0,0,4.48,3.27,17,17,0,0,0,6.67,1.17,25.11,25.11,0,0,0,5.72-.6,21.77,21.77,0,0,0,4-1.28l1.11,6.66a8.31,8.31,0,0,1-2,.81,26.4,26.4,0,0,1-2.89.68c-1.09.2-2.24.37-3.48.52a28.81,28.81,0,0,1-3.54.21Z"/><path class="cls-4" d="M475.45,28.21h16.84v6.67H475.45V55.39A24.1,24.1,0,0,0,476,60.9a8.29,8.29,0,0,0,1.53,3.42,5.61,5.61,0,0,0,2.56,1.75,11.42,11.42,0,0,0,3.59.52,16.63,16.63,0,0,0,5.77-.83c1.46-.53,2.47-.92,3-1.14L494,71.19a29.5,29.5,0,0,1-4.19,1.5,23.74,23.74,0,0,1-6.83.9,20.43,20.43,0,0,1-7.48-1.16A10.81,10.81,0,0,1,470.76,69a13.9,13.9,0,0,1-2.53-5.68,37.82,37.82,0,0,1-.73-7.82V15.82l7.95-1.36V28.21Z"/><path class="cls-4" d="M338.06,105.64c-.41,0-.85,0-1.34,0s-1,0-1.45-.09-1-.08-1.44-.15a7.24,7.24,0,0,1-1.32-.23V85.19a11.25,11.25,0,0,1,1.32-.23c.47-.06.95-.12,1.44-.15s1-.07,1.43-.09.92,0,1.34,0a18.68,18.68,0,0,1,3.34.27,8,8,0,0,1,2.7.89,4.93,4.93,0,0,1,1.79,1.69,4.7,4.7,0,0,1,.66,2.54,4.5,4.5,0,0,1-.81,2.78,4.9,4.9,0,0,1-2.13,1.62,6,6,0,0,1,2.87,1.69,4.66,4.66,0,0,1,1.07,3.26,5.24,5.24,0,0,1-2.27,4.64c-1.52,1-3.91,1.57-7.2,1.57Zm-2.69-12.08h3a12.92,12.92,0,0,0,2-.15,5.16,5.16,0,0,0,1.65-.53,3,3,0,0,0,1.09-1,2.85,2.85,0,0,0,.4-1.58,2.54,2.54,0,0,0-.41-1.49,3,3,0,0,0-1.14-1,6.13,6.13,0,0,0-1.71-.55,11.38,11.38,0,0,0-2.07-.19c-.73,0-1.31,0-1.72,0s-.8,0-1.13.09v6.35Zm0,2.32v7.22a7.06,7.06,0,0,0,.77.08l.9,0h1.21a15.58,15.58,0,0,0,2.42-.17,6.43,6.43,0,0,0,2-.57,3.6,3.6,0,0,0,1.37-1.15,3.21,3.21,0,0,0,.53-1.88,3.5,3.5,0,0,0-.39-1.7,3,3,0,0,0-1.11-1.12,5.65,5.65,0,0,0-1.74-.59,13,13,0,0,0-2.25-.17Z"/><path class="cls-4" d="M356.52,89.64a8.18,8.18,0,0,1,2.81.43,4.64,4.64,0,0,1,1.83,1.22,4.72,4.72,0,0,1,1,1.86,9.05,9.05,0,0,1,.29,2.39v9.64c-.24.06-.56.1-1,.17s-.91.14-1.43.2l-1.74.16c-.62.05-1.24.07-1.86.07a10.49,10.49,0,0,1-2.4-.27,5.39,5.39,0,0,1-1.9-.84,3.76,3.76,0,0,1-1.24-1.52,5.35,5.35,0,0,1-.45-2.29,4.43,4.43,0,0,1,.51-2.19,4.07,4.07,0,0,1,1.42-1.49,6,6,0,0,1,2.07-.83,11.33,11.33,0,0,1,2.5-.27c.27,0,.56,0,.86,0s.57.08.84.13l.71.12.4.09v-.77a6,6,0,0,0-.14-1.34,3.12,3.12,0,0,0-.54-1.2,2.94,2.94,0,0,0-1.05-.83,4.3,4.3,0,0,0-1.73-.3,12.12,12.12,0,0,0-2.39.19,8.29,8.29,0,0,0-1.53.4L352,90.32a8,8,0,0,1,1.77-.46,15.41,15.41,0,0,1,2.71-.22Zm.23,13.83c.67,0,1.24,0,1.74,0a6.51,6.51,0,0,0,1.26-.17V98.67a2.59,2.59,0,0,0-1-.25,10.29,10.29,0,0,0-1.61-.12,12,12,0,0,0-1.32.09,4.24,4.24,0,0,0-1.28.37,2.68,2.68,0,0,0-1,.77,2,2,0,0,0-.39,1.3,2.23,2.23,0,0,0,.95,2.07,5.07,5.07,0,0,0,2.57.57Z"/><path class="cls-4" d="M367.14,90.48c.63-.16,1.48-.34,2.53-.51a21.52,21.52,0,0,1,3.61-.27,7.74,7.74,0,0,1,3.06.53,4.64,4.64,0,0,1,2,1.45,5.59,5.59,0,0,1,1,2.23,13,13,0,0,1,.29,2.88v8.68h-2.76V97.38a13.16,13.16,0,0,0-.19-2.43,4.06,4.06,0,0,0-.64-1.63,2.62,2.62,0,0,0-1.18-.91,5.19,5.19,0,0,0-1.83-.27c-.3,0-.61,0-.93,0l-.9.08c-.29,0-.55.05-.78.09s-.39.08-.49.1v13h-2.76v-15Z"/><path class="cls-4" d="M389.87,97a19.52,19.52,0,0,1,1.89,1.7c.66.67,1.31,1.4,1.95,2.18s1.25,1.56,1.82,2.37a20.16,20.16,0,0,1,1.46,2.25h-3.24a21,21,0,0,0-1.44-2.13,26.52,26.52,0,0,0-1.7-2.08,24.12,24.12,0,0,0-1.81-1.83,17.55,17.55,0,0,0-1.75-1.4v7.44h-2.76V82.91l2.76-.48V96.5l1.58-1.57c.57-.58,1.13-1.17,1.69-1.76s1.06-1.16,1.57-1.7.92-1,1.27-1.44h3.24c-.46.49-.95,1-1.49,1.62s-1.08,1.2-1.66,1.81l-1.74,1.81L389.87,97Z"/><polygon class="cls-5" points="168 84.9 168 87.39 161.53 87.39 161.53 105.47 158.65 105.47 158.65 87.39 152.18 87.39 152.18 84.9 168 84.9 168 84.9"/><path class="cls-5" d="M171,105.47V82.91l2.77-.48v7.89a10.09,10.09,0,0,1,1.64-.46,8.54,8.54,0,0,1,1.74-.16,7.69,7.69,0,0,1,3,.53,4.49,4.49,0,0,1,1.94,1.45,5.47,5.47,0,0,1,1,2.23,13,13,0,0,1,.3,2.88v8.68h-2.76V97.38a13.08,13.08,0,0,0-.2-2.43,3.92,3.92,0,0,0-.64-1.63,2.67,2.67,0,0,0-1.18-.91,5.18,5.18,0,0,0-1.84-.27c-.29,0-.6,0-.91,0l-.91.14c-.29.06-.55.11-.77.17a4.56,4.56,0,0,0-.49.15v12.83Z"/><path class="cls-5" d="M189.39,87.23a1.73,1.73,0,0,1-1.25-.48,1.68,1.68,0,0,1-.53-1.33,1.7,1.7,0,0,1,.53-1.32,1.73,1.73,0,0,1,1.25-.48,1.8,1.8,0,0,1,1.26.48,1.76,1.76,0,0,1,.51,1.32,1.73,1.73,0,0,1-.51,1.33,1.8,1.8,0,0,1-1.26.48Zm1.4,18.24H188V90h2.77v15.44Z"/><path class="cls-5" d="M195.65,90.48c.63-.16,1.47-.34,2.53-.51a21.39,21.39,0,0,1,3.62-.27,7.76,7.76,0,0,1,3,.53,4.49,4.49,0,0,1,1.94,1.45,5.45,5.45,0,0,1,1,2.23,13,13,0,0,1,.3,2.88v8.68h-2.75V97.38a13.08,13.08,0,0,0-.2-2.43,4.21,4.21,0,0,0-.63-1.63,2.68,2.68,0,0,0-1.2-.91,5.08,5.08,0,0,0-1.83-.27c-.3,0-.61,0-.92,0l-.91.08c-.29,0-.53.05-.77.09s-.39.08-.49.1v13h-2.76v-15Z"/><path class="cls-5" d="M218.37,97a18.43,18.43,0,0,1,1.9,1.7c.66.67,1.31,1.4,1.95,2.18s1.25,1.56,1.82,2.37a23.47,23.47,0,0,1,1.46,2.25h-3.23a23,23,0,0,0-1.45-2.13c-.54-.73-1.11-1.42-1.7-2.08a24.12,24.12,0,0,0-1.81-1.83,16.52,16.52,0,0,0-1.76-1.4v7.44H212.8V82.91l2.75-.48V96.5l1.58-1.57c.57-.58,1.13-1.17,1.69-1.76l1.57-1.7c.5-.55.93-1,1.28-1.44h3.24c-.46.49-.95,1-1.49,1.62s-1.09,1.2-1.66,1.81-1.16,1.2-1.73,1.81-1.13,1.17-1.66,1.7Z"/><path class="cls-5" d="M240.36,89.64a8.22,8.22,0,0,1,2.81.43A4.75,4.75,0,0,1,245,91.29a4.7,4.7,0,0,1,1,1.86,9.05,9.05,0,0,1,.29,2.39v9.64c-.23.06-.56.1-1,.17s-.91.14-1.45.2l-1.74.16c-.62.05-1.23.07-1.84.07a10.8,10.8,0,0,1-2.42-.27,5.27,5.27,0,0,1-1.89-.84,3.85,3.85,0,0,1-1.24-1.52,5.35,5.35,0,0,1-.45-2.29,4.43,4.43,0,0,1,.51-2.19,4.07,4.07,0,0,1,1.42-1.49,6,6,0,0,1,2.08-.83,11.18,11.18,0,0,1,2.49-.27c.28,0,.57,0,.86,0s.58.08.84.13l.7.12.41.09v-.77a5.45,5.45,0,0,0-.15-1.34,3,3,0,0,0-.53-1.2,2.85,2.85,0,0,0-1-.83,4.3,4.3,0,0,0-1.73-.3,12.16,12.16,0,0,0-2.4.19,8.37,8.37,0,0,0-1.52.4l-.33-2.29a8,8,0,0,1,1.78-.46,15.38,15.38,0,0,1,2.7-.22Zm.24,13.83c.65,0,1.23,0,1.73,0a6.4,6.4,0,0,0,1.26-.17V98.67a2.65,2.65,0,0,0-1-.25A10.19,10.19,0,0,0,241,98.3a12.37,12.37,0,0,0-1.32.09,4.24,4.24,0,0,0-1.28.37,2.9,2.9,0,0,0-1,.77,2.09,2.09,0,0,0-.38,1.3,2.25,2.25,0,0,0,.94,2.07,5.13,5.13,0,0,0,2.59.57Z"/><path class="cls-5" d="M251,105.47V82.91l2.75-.48v7.89a10.51,10.51,0,0,1,1.65-.46,8.6,8.6,0,0,1,1.74-.16,7.72,7.72,0,0,1,3.05.53,4.49,4.49,0,0,1,1.94,1.45,5.61,5.61,0,0,1,1,2.23,14.33,14.33,0,0,1,.29,2.88v8.68h-2.76V97.38A14.1,14.1,0,0,0,260.5,95a4.06,4.06,0,0,0-.65-1.63,2.67,2.67,0,0,0-1.18-.91,5.24,5.24,0,0,0-1.85-.27c-.28,0-.59,0-.9,0s-.63.1-.91.14l-.77.17-.5.15v12.83Z"/><path class="cls-5" d="M267.19,97.77a9.75,9.75,0,0,1,.59-3.57,8,8,0,0,1,1.56-2.55,6.81,6.81,0,0,1,4.88-2,5.91,5.91,0,0,1,4.77,2q1.67,1.93,1.66,5.92V98a2.91,2.91,0,0,1,0,.53H270.06a5.66,5.66,0,0,0,1.4,3.64,5.09,5.09,0,0,0,3.79,1.24,10.13,10.13,0,0,0,2.46-.25,9,9,0,0,0,1.49-.48l.39,2.31a7.85,7.85,0,0,1-1.77.56,11.82,11.82,0,0,1-2.87.3,9,9,0,0,1-3.48-.61,6.34,6.34,0,0,1-2.42-1.68,6.6,6.6,0,0,1-1.4-2.52,10.78,10.78,0,0,1-.46-3.23Zm10.58-1.52a4.6,4.6,0,0,0-.93-3.06,3.22,3.22,0,0,0-2.65-1.2,3.5,3.5,0,0,0-1.68.38,3.87,3.87,0,0,0-1.23.95,4.31,4.31,0,0,0-.79,1.37,7.22,7.22,0,0,0-.37,1.56Z"/><path class="cls-5" d="M289.74,89.64a8.06,8.06,0,0,1,2.79.43,4.38,4.38,0,0,1,2.84,3.08,9,9,0,0,1,.3,2.39v9.64c-.24.06-.56.1-1,.17s-.9.14-1.43.2l-1.74.16c-.62.05-1.24.07-1.85.07a10.64,10.64,0,0,1-2.41-.27,5.19,5.19,0,0,1-1.89-.84,4,4,0,0,1-1.25-1.52,5.35,5.35,0,0,1-.45-2.29,4.23,4.23,0,0,1,.53-2.19,4,4,0,0,1,1.39-1.49,6.27,6.27,0,0,1,2.09-.83,11.11,11.11,0,0,1,2.49-.27c.27,0,.57,0,.86,0s.58.08.84.13l.71.12.4.09v-.77a7.42,7.42,0,0,0-.13-1.34,3.47,3.47,0,0,0-.55-1.2,2.77,2.77,0,0,0-1-.83,4.23,4.23,0,0,0-1.73-.3,12.12,12.12,0,0,0-2.39.19,8.68,8.68,0,0,0-1.54.4l-.31-2.29a7.82,7.82,0,0,1,1.78-.46,15.22,15.22,0,0,1,2.7-.22Zm.23,13.83c.65,0,1.24,0,1.74,0a6.4,6.4,0,0,0,1.25-.17V98.67a2.54,2.54,0,0,0-1-.25,10.29,10.29,0,0,0-1.61-.12,12.92,12.92,0,0,0-1.33.09,4.35,4.35,0,0,0-1.27.37,2.6,2.6,0,0,0-1,.77,2,2,0,0,0-.39,1.3,2.25,2.25,0,0,0,.95,2.07,5.09,5.09,0,0,0,2.58.57Z"/><path class="cls-5" d="M310.32,82.91l2.76-.48V105c-.63.16-1.44.34-2.44.53a20.06,20.06,0,0,1-3.39.26,8.32,8.32,0,0,1-3.21-.57,7,7,0,0,1-2.44-1.59,7.17,7.17,0,0,1-1.55-2.54,9.65,9.65,0,0,1-.55-3.37,11.17,11.17,0,0,1,.45-3.26,7.54,7.54,0,0,1,1.35-2.56,6.07,6.07,0,0,1,2.19-1.65,6.88,6.88,0,0,1,2.95-.6,7,7,0,0,1,2.35.36,7.4,7.4,0,0,1,1.53.68v-7.8Zm0,10.38a5.67,5.67,0,0,0-1.44-.8,5.75,5.75,0,0,0-2.09-.38,4.38,4.38,0,0,0-2,.43,3.66,3.66,0,0,0-1.38,1.18,4.9,4.9,0,0,0-.76,1.8,9.33,9.33,0,0,0-.24,2.22,6,6,0,0,0,1.33,4.17,4.54,4.54,0,0,0,3.56,1.46,12.5,12.5,0,0,0,1.88-.1,8.83,8.83,0,0,0,1.17-.21V93.29Z"/><path class="cls-5" d="M321.22,103.84a2,2,0,0,1-.54,1.4,2.06,2.06,0,0,1-2.91,0,2,2,0,0,1-.54-1.4,2.09,2.09,0,0,1,.54-1.39,2.09,2.09,0,0,1,2.91,0,2.09,2.09,0,0,1,.54,1.39Z"/><path class="cls-5" d="M411.85,89.64a8.22,8.22,0,0,1,2.81.43,4.5,4.5,0,0,1,1.83,1.22,4.6,4.6,0,0,1,1,1.86,9.05,9.05,0,0,1,.29,2.39v9.64c-.22.06-.57.1-1,.17s-.9.14-1.43.2l-1.74.16c-.62.05-1.24.07-1.85.07a10.42,10.42,0,0,1-2.4-.27,5.37,5.37,0,0,1-1.91-.84,4,4,0,0,1-1.24-1.52,5.35,5.35,0,0,1-.44-2.29,4.33,4.33,0,0,1,.51-2.19,4,4,0,0,1,1.41-1.49,6,6,0,0,1,2.08-.83,11.15,11.15,0,0,1,2.48-.27c.28,0,.57,0,.87,0s.58.08.84.13l.71.12.41.09v-.77a6,6,0,0,0-.15-1.34,3,3,0,0,0-.54-1.2,2.9,2.9,0,0,0-1-.83,4.31,4.31,0,0,0-1.74-.3,12.12,12.12,0,0,0-2.39.19,8.52,8.52,0,0,0-1.53.4l-.33-2.29a7.82,7.82,0,0,1,1.78-.46,15.38,15.38,0,0,1,2.7-.22Zm.24,13.83c.65,0,1.24,0,1.74,0a6.4,6.4,0,0,0,1.26-.17V98.67a2.66,2.66,0,0,0-1-.25,10.33,10.33,0,0,0-1.62-.12,12.73,12.73,0,0,0-1.32.09,4.35,4.35,0,0,0-1.27.37,2.81,2.81,0,0,0-1,.77,2.09,2.09,0,0,0-.37,1.3,2.23,2.23,0,0,0,.95,2.07,5,5,0,0,0,2.57.57Z"/><path class="cls-5" d="M422.48,105.47V82.91l2.76-.48v7.89a9.94,9.94,0,0,1,1.65-.46,8.48,8.48,0,0,1,1.72-.16,7.79,7.79,0,0,1,3.07.53,4.67,4.67,0,0,1,1.94,1.45,5.45,5.45,0,0,1,1,2.23,13,13,0,0,1,.3,2.88v8.68h-2.77V97.38A12.35,12.35,0,0,0,432,95a4.06,4.06,0,0,0-.63-1.63,2.62,2.62,0,0,0-1.18-.91,5.25,5.25,0,0,0-1.84-.27c-.31,0-.61,0-.93,0s-.62.1-.91.14-.54.11-.76.17-.4.11-.49.15v12.83Z"/><path class="cls-5" d="M438.68,97.77a9.75,9.75,0,0,1,.59-3.57,7.5,7.5,0,0,1,1.58-2.55,6.7,6.7,0,0,1,2.25-1.51,6.93,6.93,0,0,1,2.62-.5,6,6,0,0,1,4.77,2c1.1,1.29,1.66,3.26,1.66,5.92V98a2.86,2.86,0,0,1,0,.53H441.56a5.6,5.6,0,0,0,1.39,3.64,5.12,5.12,0,0,0,3.81,1.24,10,10,0,0,0,2.44-.25,9.21,9.21,0,0,0,1.5-.48l.39,2.31a8.17,8.17,0,0,1-1.78.56,11.85,11.85,0,0,1-2.86.3,9,9,0,0,1-3.48-.61,6.34,6.34,0,0,1-2.42-1.68,6.62,6.62,0,0,1-1.41-2.52,10.78,10.78,0,0,1-.46-3.23Zm10.59-1.52a4.65,4.65,0,0,0-.92-3.06,3.28,3.28,0,0,0-2.67-1.2,3.55,3.55,0,0,0-1.68.38,3.87,3.87,0,0,0-1.23.95,4.29,4.29,0,0,0-.78,1.37,6.7,6.7,0,0,0-.38,1.56Z"/><path class="cls-5" d="M461.22,89.64a8,8,0,0,1,2.8.43,4.61,4.61,0,0,1,1.86,1.22,4.56,4.56,0,0,1,1,1.86,9.48,9.48,0,0,1,.3,2.39v9.64c-.23.06-.57.1-1,.17s-.91.14-1.44.2l-1.74.16c-.62.05-1.24.07-1.85.07a10.64,10.64,0,0,1-2.41-.27,5.39,5.39,0,0,1-1.9-.84,4.14,4.14,0,0,1-1.25-1.52,5.67,5.67,0,0,1-.43-2.29,4.43,4.43,0,0,1,.51-2.19,4.07,4.07,0,0,1,1.42-1.49,5.92,5.92,0,0,1,2.07-.83,11.27,11.27,0,0,1,2.5-.27c.27,0,.56,0,.85,0s.58.08.84.13l.71.12.41.09v-.77a6,6,0,0,0-.15-1.34,3.11,3.11,0,0,0-.53-1.2,2.81,2.81,0,0,0-1.06-.83A4.2,4.2,0,0,0,461,92a12.12,12.12,0,0,0-2.39.19,7.93,7.93,0,0,0-1.52.4l-.33-2.29a7.82,7.82,0,0,1,1.78-.46,15.1,15.1,0,0,1,2.69-.22Zm.25,13.83c.65,0,1.23,0,1.72,0a6.52,6.52,0,0,0,1.27-.17V98.67a2.72,2.72,0,0,0-1-.25,10.53,10.53,0,0,0-1.62-.12,12.55,12.55,0,0,0-1.32.09,4.42,4.42,0,0,0-1.28.37,2.68,2.68,0,0,0-1,.77,2,2,0,0,0-.39,1.3,2.24,2.24,0,0,0,1,2.07,5.06,5.06,0,0,0,2.58.57Z"/><path class="cls-5" d="M481.82,82.91l2.75-.48V105c-.63.16-1.44.34-2.43.53a20.14,20.14,0,0,1-3.41.26,8.37,8.37,0,0,1-3.2-.57,7,7,0,0,1-2.44-1.59,7.32,7.32,0,0,1-1.55-2.54,9.42,9.42,0,0,1-.54-3.37,10.84,10.84,0,0,1,.45-3.26,7.7,7.7,0,0,1,1.34-2.56A6.25,6.25,0,0,1,475,90.27a6.94,6.94,0,0,1,2.95-.6,7.09,7.09,0,0,1,2.36.36,7.4,7.4,0,0,1,1.53.68v-7.8Zm0,10.38a5.67,5.67,0,0,0-1.46-.8,5.56,5.56,0,0,0-2.07-.38,4.41,4.41,0,0,0-2,.43,3.62,3.62,0,0,0-1.39,1.18,5.07,5.07,0,0,0-.76,1.8,9.32,9.32,0,0,0-.25,2.22,6.05,6.05,0,0,0,1.34,4.17,4.55,4.55,0,0,0,3.56,1.46,12.72,12.72,0,0,0,1.89-.1,9.5,9.5,0,0,0,1.17-.21V93.29Z"/><path class="cls-5" d="M492.7,103.84a2,2,0,0,1-.53,1.4,1.85,1.85,0,0,1-1.45.6,1.87,1.87,0,0,1-1.46-.6,2,2,0,0,1-.52-1.4,2.07,2.07,0,0,1,.52-1.39,1.9,1.9,0,0,1,1.46-.59,1.88,1.88,0,0,1,1.45.59,2,2,0,0,1,.53,1.39Z"/></g></g></svg>