<svg xmlns="http://www.w3.org/2000/svg" width="65.254" height="65.604" viewBox="0 0 65.254 65.604">
  <g id="Group_31" data-name="Group 31" transform="translate(-527.435 -520.657)">
    <g id="Group_27" data-name="Group 27" transform="translate(560.887 554.004)">
      <path id="Path_9" data-name="Path 9" d="M773.129,797.792v-31.4a.814.814,0,0,1,.813-.814h25.549a3.266,3.266,0,0,1,2.4,1.058,3.182,3.182,0,0,1,.827,2.42l-.17,1.931-.05-.075a31.592,31.592,0,0,1-28.636,26.82Zm1.362-30.853v29.367a30.1,30.1,0,0,0,26.874-27.369l0-.033a1.793,1.793,0,0,0-.477-1.348,1.9,1.9,0,0,0-1.4-.617Z" transform="translate(-773.129 -765.577)" fill="#039244"/>
    </g>
    <g id="Group_28" data-name="Group 28" transform="translate(527.435 523.211)">
      <path id="Path_10" data-name="Path 10" d="M531.241,585.821l-.328-.638A30.941,30.941,0,0,1,527.5,572.9a31.588,31.588,0,0,1,28.723-33.475,3.141,3.141,0,0,1,2.406.813,3.261,3.261,0,0,1,1.069,2.371v26.665ZM556.5,540.774q-.08,0-.16.007a30.067,30.067,0,0,0-27.483,32.034,29.5,29.5,0,0,0,2.948,11.1l26.531-15.427V542.622a1.9,1.9,0,0,0-.621-1.375A1.8,1.8,0,0,0,556.5,540.774Z" transform="translate(-527.435 -539.413)" fill="#039244"/>
    </g>
    <g id="Group_29" data-name="Group 29" transform="translate(531.828 555.171)">
      <path id="Path_11" data-name="Path 11" d="M587.566,805.238h-.681c-.76,0-1.4-.018-2.011-.056l-.09-.006a31.672,31.672,0,0,1-24.716-14.949l-.371-.6,26.4-15.353a.975.975,0,0,1,1.465.843Zm-2.537-1.41c.371.022.755.036,1.176.043V775.794L561.6,790.1a30.287,30.287,0,0,0,23.356,13.724Z" transform="translate(-559.698 -774.147)" fill="#039244"/>
    </g>
    <g id="Group_30" data-name="Group 30" transform="translate(563.089 520.657)">
      <path id="Path_12" data-name="Path 12" d="M816.939,550.256H791.263a1.958,1.958,0,0,1-1.957-1.955V522.617a1.978,1.978,0,0,1,.641-1.455,1.933,1.933,0,0,1,1.45-.5,30.232,30.232,0,0,1,27.5,27.493,1.894,1.894,0,0,1-.5,1.456A1.99,1.99,0,0,1,816.939,550.256Zm-26.272-27.639V548.3a.6.6,0,0,0,.6.593h25.676a.624.624,0,0,0,.457-.2.539.539,0,0,0,.146-.417,28.869,28.869,0,0,0-26.255-26.255l-.049,0a.544.544,0,0,0-.372.149.613.613,0,0,0-.2.45Z" transform="translate(-789.305 -520.657)" fill="#039244"/>
    </g>
  </g>
</svg>
