<?xml version="1.0" encoding="utf-8"?>
<!-- Generator: Adobe Illustrator 24.1.3, SVG Export Plug-In . SVG Version: 6.00 Build 0)  -->
<svg version="1.1" id="Layer_1" xmlns="http://www.w3.org/2000/svg" xmlns:xlink="http://www.w3.org/1999/xlink" x="0px" y="0px"
	 viewBox="0 0 425.6 287.1" style="fill:#fff;enable-background:new 0 0 425.6 287.1;" xml:space="preserve">
<path d="M22.4,0C10,0,0,10,0,22.4s10,22.4,22.4,22.4h380.8c12.4,0,22.4-10,22.4-22.4S415.6,0,403.2,0H22.4z"/>
<path d="M22.4,121.2C10,121.2,0,131.2,0,143.6S10,166,22.4,166h380.8c12.4,0,22.4-10,22.4-22.4s-10-22.4-22.4-22.4L22.4,121.2
	L22.4,121.2z"/>
<path d="M22.4,242.3C10,242.3,0,252.3,0,264.7s10,22.4,22.4,22.4h380.8c12.4,0,22.4-10,22.4-22.4s-10-22.4-22.4-22.4H22.4z"/>
</svg>
