<?xml version="1.0" encoding="UTF-8"?>
<svg xmlns="http://www.w3.org/2000/svg" id="Layer_1_Bild" data-name="Layer 1 Bild" width="122.13204mm" height="90.19043mm" viewBox="0 0 346.20107 255.6579">
  <defs>
    <style>.cls-1{fill:#202549;}.cls-2{fill:#8a6f4c;}.cls-3{fill:#595c77;}.cls-4{fill:#9c9fae;}.cls-5{fill:#424765;}.cls-6{fill:#c4b5a4;}.cls-7{fill:#a48f74;}.cls-8{fill:#272b4e;}.cls-9{fill:#bdad99;}.cls-10{fill:#c5b7a5;}.cls-11{fill:#f3f2f1;}.cls-12{fill:#fff;}.cls-13{fill:#896e4c;}.cls-14{fill:#886d4c;}.cls-15{fill:#bfb19e;}</style>
  </defs>
  <path class="cls-1" d="M0,255.51613V217.45487c2.80441,0,5.51035-.03615,8.21256.04769.32245.01.74439.62353.91851,1.04135q5.2844,12.6804,10.51609,25.38272c.22765.55049.46108,1.09858.82589,1.96692.298-.69746.48414-1.08908.63552-1.49372,3.176-8.49,6.37506-16.97162,9.48952-25.48417a1.90625,1.90625,0,0,1,2.21574-1.5045c2.32624.10229,4.66017.02965,7.08921.02965v38.07532H32.87786V231.32379c-.10346-.01887-6.28562,16.36037-9.27324,24.19234H17.14145c-.026-.13573-9.87087-23.86883-10.11627-24.18848v24.18848Z"></path>
  <path class="cls-1" d="M230.145,255.51613V217.62848a2.75555,2.75555,0,0,1,.622-.16678c4.86214.04275,9.72931-.023,14.58454.18625a9.77116,9.77116,0,0,1,8.13134,4.54541,9.46706,9.46706,0,0,1-2.3257,12.65227c-.25756.189-.515.37811-.83692.61447a2.543,2.543,0,0,0,.46338.38878,9.45586,9.45586,0,0,1,5.37511,9.90514c-.55809,4.72774-3.17831,8.01659-7.5924,9.31174a28.1375,28.1375,0,0,1-5.815.45037Zm5.84215-5.31218a91.50275,91.50275,0,0,0,9.41021-.07266c2.86858-.29983,4.48456-2.507,4.69918-5.46216a5.60118,5.60118,0,0,0-3.86684-5.99866c-3.35909-1.14541-6.816-.38644-10.24255-.62Zm-.0013-16.89621c2.94551,0,5.80073.21343,8.60794-.0622a5.03737,5.03737,0,0,0,4.4347-5.02034c.10656-2.749-1.30589-4.99694-4.08687-5.35841a70.43624,70.43624,0,0,0-8.95577-.08468Z"></path>
  <path class="cls-1" d="M137.38492,255.07848c-5.30642-1.38417-8.99907-5.7492-9.6934-11.80271-.56035-4.8853.18839-9.49567,3.4512-13.472,4.51157-5.49826,14.06711-5.87446,18.09445-.26481.07142.09948.21329.14839.49756.33749V226.9677h7.21258c0,.52432.09054,27.99355.1358,28.54843h-7.30619V250.9286c-1.89392,2.55169-4.05831,4.15024-6.74417,4.58753A13.10021,13.10021,0,0,1,137.38492,255.07848Zm-2.64162-14.40905c.02494.33656.04463.99265.12637,1.64092a7.48989,7.48989,0,0,0,6.6297,6.75273,7.34406,7.34406,0,0,0,8.00786-5.3986,10.35482,10.35482,0,0,0-.24668-7.003,7.227,7.227,0,0,0-8.21718-4.579C137.2114,232.77214,134.84608,235.87994,134.7433,240.66943Z"></path>
  <path class="cls-1" d="M99.1956,255.51613V217.66739H106.165v20.30988a12.72472,12.72472,0,0,0,.97037-.87631c2.69411-3.11084,5.35582-6.25035,8.09317-9.3225a2.71047,2.71047,0,0,1,1.73537-.82273c2.46685-.09114,4.939-.03822,7.64988-.03822-.374.47853-.59744.80218-.85826,1.09222-2.59521,2.88567-5.17346,5.78728-7.81335,8.63163a1.35457,1.35457,0,0,0-.19277,1.92223c2.98163,5.13249,5.91057,10.29565,8.848,15.45371.27459.48215.48935.99841.73188,1.49883h-7.8682c-2.362-4.16138-4.72406-8.32278-7.15044-12.59752a32.74,32.74,0,0,1-2.38689,2.577c-1.3706,1.19679-1.79765,2.1693-1.75935,4.422.03163,1.86048.04892,3.73138.05638,5.59855Z"></path>
  <path class="cls-1" d="M55.05129,255.08189a13.83063,13.83063,0,0,1-10.56468-12.5477c-.45074-5.29568.73961-10.13562,4.97583-13.68324,4.49021-3.76029,9.67877-4.31306,15.03933-2.25729,5.14161,1.97182,7.59956,6.11542,8.28155,11.41381.18394,1.42907.1973,2.88012.29975,4.49052H51.439c-.49808,3.23057,2.27373,6.594,5.77713,7.10884,3.42761.50376,6.55147-.05074,8.6257-3.27143a1.12039,1.12039,0,0,1,.75985-.48579c1.95637-.04064,3.914-.02212,6.06214-.02212a11.48418,11.48418,0,0,1-3.92752,6.44912,13.59889,13.59889,0,0,1-6.44873,2.91731A15.05567,15.05567,0,0,1,55.05129,255.08189ZM51.4821,237.49651H66.00385c.06122-3.29851-2.74366-5.96781-6.50573-6.2526A7.19578,7.19578,0,0,0,51.4821,237.49651Z"></path>
  <path class="cls-1" d="M270.43164,255.31817c-7.34828-2.02511-10.85231-6.16591-11.24158-13.5779-.2697-5.13517,1.10736-9.70393,5.17121-13.19566,4.47405-3.84418,12.98389-4.27834,17.30928,1.4808a6.39107,6.39107,0,0,0,.657.6054V226.983h5.705v28.53316H282.4124v-4.53886l-.282-.19635a10.17071,10.17071,0,0,1-7.30519,4.73521A10.69144,10.69144,0,0,1,270.43164,255.31817Zm12.04-14.77925c.00647-7.39445-5.66019-10.88484-11.45587-9.18465-3.90431,1.14536-6.18137,5.03466-5.99186,9.88058.25145,6.43046,5.41235,10.38747,11.345,8.69856C280.07059,248.87964,282.49153,245.15284,282.47165,240.53892Z"></path>
  <path class="cls-1" d="M161.29822,255.51613V227.03349h6.741v3.26917c.29873-.13544.45357-.1552.5177-.242,2.89082-3.91149,6.8753-4.40621,11.19856-3.39369,3.75138.87855,6.39309,4.20976,6.86129,8.5.22245,2.03843.16988,4.11.18719,6.167.03975,4.72723.046,9.45474.06589,14.18213H179.5637c.01448-5.88556.07808-11.77164.01928-17.65646a5.10829,5.10829,0,0,0-3.98461-4.8289,5.52141,5.52141,0,0,0-6.31967,2.75159,9.85774,9.85774,0,0,0-.88324,3.89656c-.10663,5.2774-.06126,10.55787-.07205,15.83721Z"></path>
  <path class="cls-1" d="M321.75343,255.51613V217.65654h5.64018v21.26977l.32261.15144c.4235-.45617.85585-.9045,1.26913-1.36973,2.95315-3.32437,5.87721-6.67529,8.88117-9.953a3.0025,3.0025,0,0,1,1.87824-.83581c1.89532-.10967,3.801-.039,6.03473-.039-1.8741,2.05031-3.52663,3.86392-5.18564,5.67156-1.36072,1.48264-2.69145,2.99572-4.11076,4.42035a1.29348,1.29348,0,0,0-.17,1.91072c3.11863,5.11123,6.18432,10.25479,9.26007,15.3921.23758.39681.41993.82669.62795,1.24119H339.7379l-7.96343-13.38481c-1.43917,1.57459-2.75866,2.95385-3.9869,4.41a2.41,2.41,0,0,0-.36563,1.4208c-.0448,2.51749-.03753,5.0359-.04837,7.554Z"></path>
  <path class="cls-1" d="M292.52866,255.51613V226.97377h5.53055v3.76638c.28416-.10164.45612-.10839.49958-.18657,1.9876-3.5761,7.25519-5.14579,11.9694-3.60484,3.946,1.28978,6.635,5.2703,6.66161,9.91833.03235,5.65662.04765,18.08952.06751,18.64906h-5.90116c.01342-5.98.11049-11.96147.00728-17.93949a5.959,5.959,0,0,0-6.03388-5.7958c-4.04754-.08562-6.98724,2.827-7.02388,7.073-.04517,5.23357.07928,16.34214.12414,16.66232Z"></path>
  <path class="cls-1" d="M201.888,255.48866c-4.45192-.711-7.25434-4.18352-7.2895-9.36429-.02669-3.93175-.00557-7.8638-.00573-11.79572,0-.504,0-1.008,0-1.697h-4.77521v-5.63933c.88933,0,1.71915.01664,2.54809-.00325,2.07972-.04987,2.66429-.64021,2.67355-2.70534.00981-2.18872.00218-4.37751.00218-6.64681h6.66v9.26345h7.76992v5.67553h-7.66859c-.03985.54682-.09427.95134-.095,1.35593-.00654,3.8383-.015,7.67665-.00028,11.5149.01094,2.85668,1.27188,4.11351,4.1068,4.13532,1.11714.00859,2.23439.00139,3.53614.00139v5.93272C206.91508,255.51613,202.00614,255.50755,201.888,255.48866Z"></path>
  <path class="cls-1" d="M77.277,255.51613c.04525-.55481.13576-18.42313.13578-26.80249v-1.7208h6.72791v4.35676l.27026.24279c2.219-4.16414,5.79458-5.21674,10.1648-4.657v6.64317c-.75037,0-1.48407-.00034-2.21777.00005-4.7317.00263-7.62553,2.60983-7.76377,7.33832-.14217,4.86233-.01841,9.73245-.011,14.59916Z"></path>
  <path class="cls-1" d="M215.53264,255.51613V227.0315h7.02519v28.48463Z"></path>
  <path class="cls-1" d="M223.37828,219.05621c.00156,2.531-1.63521,4.112-4.27032,4.12465-2.67182.01285-4.41568-1.64668-4.39508-4.18257a4.02865,4.02865,0,0,1,4.37916-4.0758A3.95734,3.95734,0,0,1,223.37828,219.05621Z"></path>
  <path class="cls-2" d="M137.31629,127.11079a.6712.6712,0,0,0,.61783-.3782c.95243-1.671,1.92536-3.33038,2.90251-4.98713a.58511.58511,0,0,0-.1036-.85687,41.5563,41.5563,0,0,0-18.93271-10.74092,33.07625,33.07625,0,0,0-13.79631-.39482c-.18664.03364-.37753.0437-.56644.06475-.15177.04131-.32283.1203-.31073-.15875q3.5607-3.40214,7.122-6.8036,6.85059-6.52546,13.70733-13.04444,9.3666-8.904,18.738-17.803,4.555-4.32793,9.10835-8.65758c.08486-.08066.17181-.15912.4076-.37713C148.85288,80.17159,143.732,97.71,143.34913,116.39257c.31868.02721.3146-.18576.37813-.30971q8.17952-15.96,16.34959-31.92483a32.05815,32.05815,0,0,0,1.512-3.06628,6.53949,6.53949,0,0,1,.78525-1.90031,2.60619,2.60619,0,0,0,.26676-1.452q-.00014-9.63175-.00015-19.26352.00024-13.1634.011-26.3268c.00067-.40018-.21138-.91334.34815-1.16744.005,1.97491.01415,3.94983.01434,5.92474q.0019,20.23933.00068,40.47865l0,.74409.14188.0357q18.08913-35.31671,36.17827-70.63339c.12843-.03755.19439-.01145.14.13725-1.76129,6.4141-3.48385,12.83834-5.08053,19.29577C191.445,38.893,188.85145,50.897,186.7728,63.0088c-1.21453,7.07689-2.23263,14.18345-2.999,21.323-.57617,5.36753-1.01189,10.74745-1.23968,16.14323-.17263,4.08889-.28143,8.17851-.194,12.27028.04516,2.11306.164,4.22453.25832,6.55172.33256-.62009.5784-1.06068.80814-1.50949q6.7415-13.1699,13.48-26.34136,7.66771-14.97866,15.33812-29.95593c.23794-.46487.45582-.94.68305-1.41033a9.31494,9.31494,0,0,1,1.43924-2.86139c.95821-1.584,1.7348-3.26378,2.57768-4.908q11.66034-22.74615,23.305-45.50032,1.641-3.20442,3.28681-6.4064c.12444-.04628.18328-.02313.128.12079-1.81169,6.595-3.5841,13.20031-5.2157,19.84267-2.84525,11.58334-5.37463,23.23256-7.39759,34.99015-1.09618,6.37111-2.05151,12.76216-2.80385,19.18173-.7112,6.06852-1.23406,12.15433-1.52525,18.25983-.21883,4.58794-.3115,9.178-.18815,13.76729a111.15281,111.15281,0,0,0,2.68216,23.04307c.155.64648.34928,1.28407.48815,1.9337a.6312.6312,0,0,0,.49547.51655c-.19875.5686.331,1.06149.16927,1.62624a42.63363,42.63363,0,0,0,2.912,7.24724c-.53453-.5401-1.07457-1.07487-1.60256-1.62129q-2.67368-2.767-5.4934-5.38487a1.8563,1.8563,0,0,0-.96529-.52449,8.46822,8.46822,0,0,0-1.847-1.66564,37.8112,37.8112,0,0,0-3.655-3.0489,64.85667,64.85667,0,0,0-5.41532-3.79837,13.14585,13.14585,0,0,0-1.58942-.98156,54.29118,54.29118,0,0,0-8.28387-4.00592,32.64737,32.64737,0,0,0-8.97163-1.93693,21.826,21.826,0,0,0-9.71987,1.45911A15.81645,15.81645,0,0,0,183.546,120.506a.97519.97519,0,0,0-.57838.97978c.21834,2.27165.41708,4.545.7363,6.80626a1.87592,1.87592,0,0,0,.63838,1.28524c-.59616.47893-.30964,1.06472-.19372,1.6298a58.00477,58.00477,0,0,0,4.18073,14.63516c.22845.49866.52.96205.77437,1.44578.10458.19887.28554.46862.02514.63382-.20059.12726-.39061-.1051-.53779-.24979-1.42507-1.40092-2.82521-2.82692-4.24712-4.231a90.38708,90.38708,0,0,0-13.55527-11.10172c-.9715-.644-1.971-1.24461-2.97371-1.839a24.32326,24.32326,0,0,0-3.66734-1.85271c-.33492-.35576-.69616-.58771-1.17808-.24495a2.41608,2.41608,0,0,0-1.55624-1.01458,30.52988,30.52988,0,0,0-9.104-2.31517c-3.68107-.29-7.34771-.22825-10.683,1.72284-.15986.09352-.61509.09-.31066.50436-.018.07253-.05732.15609-.1241.15744-1.16472.02354-1.92782.81994-2.78275,1.4377-.81572.6511-1.62158,1.3141-2.37535,2.03784a1.7479,1.7479,0,0,1-.21224.1896c-.15381.10559-.32164.2655-.50332.09538-.14705-.13769-.03815-.31694.0402-.45669a9.96314,9.96314,0,0,1,.965-1.57536c.23553-.28062-.08965-.34141-.07085-.51078A1.98989,1.98989,0,0,0,137.31629,127.11079Z"></path>
  <path class="cls-1" d="M289.94139,179.49781c-9.22331,6.83533-18.8564,12.92157-29.8952,16.47378a92.12237,92.12237,0,0,1-18.46866,3.84644,126.02277,126.02277,0,0,1-15.8992.652c-5.44943-.10579-10.88246-.50112-16.30592-1.06686-11.228-1.17124-22.29681-3.277-33.346-5.522-6.41045-1.30248-12.86537-2.355-19.3465-3.24908q-8.27629-1.14163-16.60379-1.79394c-3.53467-.27223-7.0757-.44141-10.62-.54692-4.92813-.14665-9.8539-.09589-14.77284.22229-8.49636.54958-16.90209,1.62406-24.96155,4.56636-.85875.31353-1.696.68579-2.56872.97511a44.16667,44.16667,0,0,1,5.89743-3.56439,106.17842,106.17842,0,0,1,26.93605-9.26415,148.55422,148.55422,0,0,1,24.1925-2.993,189.00129,189.00129,0,0,1,24.9661.58684c7.66073.66966,15.255,1.81985,22.8226,3.17281,5.54945.99213,11.12817,1.80339,16.71884,2.53385q8.49537,1.10991,17.03432,1.79367,6.29709.499,12.61379.6869c4.00005.12379,8.00158.15888,12.00009.03673,10.55972-.32256,21.03246-1.30168,31.20739-4.3793a50.66135,50.66135,0,0,0,8.25271-3.30554C289.9462,179.29717,289.97248,179.36717,289.94139,179.49781Z"></path>
  <path class="cls-1" d="M138.29451,128.78073c.29431-.22817.60334-.43993.8799-.68788a2.65394,2.65394,0,0,1,2.0964-.75712,3.70412,3.70412,0,0,1,2.16781-.15124c1.25566.13946,2.51753.156,3.772.21278,3.205.145,6.406.36665,9.6123.48977,1.04228.04,2.09144.06408,3.13141.17653,1.14483.12378,1.1436.13513,1.61154-.82594.56476.24936,1.30979.26845,1.41426,1.10575a1.60241,1.60241,0,0,1,1.19481.18782,15.34208,15.34208,0,0,1,3.68276,1.81159,1.99179,1.99179,0,0,1-1.64411.18408c-.78555-.09715-1.5698-.05657-2.35318-.09991-.4714-.02608-.64574.17635-.63469.62569.01169.47567.00151.95205.00148,1.42811q-.00023,6.24843.00075,12.49684c.00054,1.0358.00229,1.04435.98155,1.35006,5.29655,1.65355,10.58929,3.3203,15.90718,4.90336a3.00109,3.00109,0,0,1,2.20821,1.96582,32.14593,32.14593,0,0,0,1.86536,4.16825,9.21428,9.21428,0,0,0,.76938,1.20207,4.12531,4.12531,0,0,0,3.754,1.89869c1.92186-.11995,3.857-.026,5.78632-.02839,1.05964-.00129,1.0246-.01937,1.27114-1.011a33.57932,33.57932,0,0,0,.59544-4.95164c.10691-1.1117.1366-1.13025,1.28716-1.30989,4.49448-.70178,8.98313-1.43989,13.47563-2.154,1.655-.26305,1.5576-.07169,1.55781-1.79082q.00091-7.5695-.00052-15.139c-.00033-1.00766-.0035-1.01389-1.00555-1.14806-1.063-.14233-2.139-.12289-3.20572-.17137q-3.315-.15066-6.62791-.344c-3.11016-.183-6.22262-.325-9.33281-.50677-2.20739-.129-4.41624-.26911-6.62789-.331a3.66543,3.66543,0,0,1-1.86853-.349c-.21632-.27021-.13987-.618-.24293-.92182-.15274-.4503.03-.70251.524-.69145a4.10532,4.10532,0,0,1,2.31341-.14826c1.23339.133,2.47193.14492,3.704.2072q4.73809.23949,9.4762.49192c3.0391.16022,6.082.27239,9.11724.515.97109.07761,1.94841.05228,2.9219.15064.71664.0724.83284-.06534.83855-.793.01364-1.737-.001-3.47417.0086-5.21121a1.38033,1.38033,0,0,1,.20878-1.02044,7.00457,7.00457,0,0,1,1.45058.97492,1.5081,1.5081,0,0,1,.2138,1.02267c.005,1.35316.00009,2.70634.00256,4.05951.002,1.11677.00743,1.06735,1.0894,1.14471,2.343.16755,4.6945.18419,7.03374.41126a1.673,1.673,0,0,1,.80927.23832,14.21232,14.21232,0,0,1,1.80677,1.46732c.20349.15189.03568.21621-.0947.27411-3.42123-.17484-6.84313-.34475-10.26412-.53118-.41793-.02277-.62044.00883-.61847.53227.02131,5.66606.01347,11.33222.01467,16.99837,0,.06993.01419.13987.03213.3057,1.17021-.18247,2.32916-.35916,3.48674-.54435q10.52992-1.68454,21.05939-3.37195,6.37743-1.02006,12.757-2.02676c.43371-.06795.6286-.24594.5425-.68428-.13008-.66217.17821-.82636.80285-.84668,2.02093-.06577,4.04058-.18061,6.05911-.3031.49994-.03034.71757.03438.75884.63514q.4348,6.33291.96852,12.65886a23.019,23.019,0,0,0,.47051,2.81022c.09333.44354.075.54868-.44342.52094a57.05138,57.05138,0,0,0-8.27439.06,35.66486,35.66486,0,0,0-10.14039,2.4883,113.34159,113.34159,0,0,1-24.71718,6.939,132.55588,132.55588,0,0,1-23.61774,1.613,127.57418,127.57418,0,0,1-27.612-3.57165,128.11422,128.11422,0,0,1-57.66912-31.083,1.31773,1.31773,0,0,1-.46506-1.11294c.062-2.30552.074-4.61277.16713-6.91683.02665-.65937-.20659-.7537-.7871-.7834q-12.43771-.63613-24.87314-1.31679c-.76042-.04057-1.52224-.05753-2.282-.10658-.71458-.04614-1.09186-.37641-1.02959-.91063.0788-.67622.5438-.80252,1.13863-.7695q8.83581.49059,17.67255.96459c3.15993.16924,6.32128.31288,9.48051.49385.52243.02993.69269-.08955.67672-.64169-.042-1.451-.00228-2.90423-.021-4.35624-.006-.46859.01116-.67765.60924-.501,2.71073.80068,5.435,1.55681,8.16452,2.29158a.60881.60881,0,0,1,.53692.73868c-.02693.80855.02086,1.62-.01871,2.42755-.0233.47547.13943.574.595.59667,4.82323.23946,9.6451.50635,14.4673.76646q2.24445.12106,4.48919.24575c.06858.06046.19075.11647.19609.182a1.88021,1.88021,0,0,1-1.2086,1.3876,3.98879,3.98879,0,0,1-2.24235.13459c-1.23333-.141-2.47281-.14775-3.70443-.20693-2.30414-.11071-4.607-.26281-6.91327-.3483-1.495-.05541-2.99123-.17692-4.48746-.24952-.84761-.04113-.90185.04561-.90538.87277-.006,1.40453.01326,2.80935-.009,4.21354a1.22624,1.22624,0,0,0,.6934,1.20877q8.79,4.994,17.55812,10.02638a1.18467,1.18467,0,0,0,1.32565-.03661c1.99968-1.15644,4.0209-2.27624,6.00789-3.454a2.38671,2.38671,0,0,1,2.09981-.245c4.92317,1.57186,9.87177,3.06279,14.8037,4.607.77975.24416.84767.19956.84835-.64449q.00537-6.67759.00024-13.35519c-.00057-.83292-.03258-.86833-.859-.99185a29.72682,29.72682,0,0,0-3.13391-.16672c-2.23421-.09582-4.46609-.24333-6.699-.35373q-3.31173-.16371-6.6248-.358c-1.399-.08269-2.7999-.21039-4.20609-.19732A2.22727,2.22727,0,0,1,138.29451,128.78073Z"></path>
  <path class="cls-1" d="M243.17039,182.436c-7.1641-.05932-14.31195-.43846-21.45123-1.03688-8.63338-.72368-17.2244-1.7927-25.79261-3.05609-4.752-.70067-9.48039-1.55478-14.24316-2.18788q-7.36042-.9784-14.76588-1.50632-6.76709-.4801-13.55057-.48485c-4.78334-.008-9.56417.1483-14.33423.5331a156.58079,156.58079,0,0,0-17.59708,2.37671q-4.96851.97548-9.85232,2.30979c-1.06609.28948-1.14.24376-1.35609-.83445a93.75,93.75,0,0,1-1.56641-14.66245c-.016-.39353.11317-.49072.46954-.50169a90.66585,90.66585,0,0,1,21.03069,1.33461c4.28441.87331,8.62823,1.45133,12.93349,2.22775,4.37375.78875,8.81491,1.20692,13.1326,2.28988,3.06049.76763,6.06669,1.74168,9.14263,2.46282a132.8663,132.8663,0,0,0,25.05672,3.41047,133.95861,133.95861,0,0,0,36.73457-3.65874,40.38643,40.38643,0,0,1,6.59885-.65074c5.22875-.36531,10.46567-.40195,15.70171-.259,4.138.113,8.27134.35041,12.39177.77549.35214.0363.55594.1079.60187.50277a29.65094,29.65094,0,0,1-.0829,9.30575.68488.68488,0,0,1-.73342.66212q-7.51084.61014-15.04518.66144C245.45221,182.45718,244.31162,182.47157,243.17039,182.436Z"></path>
  <path class="cls-1" d="M148.42285,163.9416c-2.77515-.53427-5.54988-1.0678-8.34278-1.50723-5.05073-.79463-10.11872-1.45921-15.19456-2.06575-2.8334-.3386-5.66575-.68713-8.51351-.89823a67.54467,67.54467,0,0,0-7.26585.19019c-.53939.01795-.7162-.11278-.7321-.67661q-.21325-7.55822-.22626-15.119c-.00163-1.27693-.00024-2.55387-.00024-4.0154.98845.84939,1.82005,1.57318,2.6614,2.28549a119.34462,119.34462,0,0,0,22.36534,14.80305,165.49786,165.49786,0,0,0,15.39589,6.89063C148.57707,163.93942,148.57071,164.03278,148.42285,163.9416Z"></path>
  <path class="cls-1" d="M251.99951,140.75961c-1.48273.2668-3.02717.543-4.571.82277q-10.66764,1.93333-21.33466,3.87008c-.5015.09112-.87958-.061-.96848-.576-.10887-.6307.35336-.80968.85557-.90087q3.61392-.65618,7.22889-1.30639,9.23145-1.66191,18.46491-3.31261c.45034-.08.56237-.27159.54424-.69812-.03337-.78423.005-1.57126-.01623-2.35633-.00911-.33729.08583-.463.43839-.442,2.04116.1214,4.08272.24033,6.12559.32514.40316.01675.52626.1449.54592.52654.05376,1.04474.16169,2.08691.2055,3.13187.02288.54531.16754.82882.785.91916,1.74017.25462,3.46789.59413,5.20024.90169.1639.02909.32511.07311.48892.10282a.672.672,0,0,1,.62909.85863.72252.72252,0,0,1-.93118.55914c-1.12473-.19346-2.24636-.40495-3.36957-.6072q-4.914-.88488-9.82857-1.76684C252.35194,140.786,252.20816,140.78083,251.99951,140.75961Z"></path>
  <path class="cls-1" d="M238.49791,167.38774c3.2107-1.178,6.36213-2.50089,9.49139-3.87784a14.99314,14.99314,0,0,1,4.93579-.99638,71.00129,71.00129,0,0,1,8.27054.15739c.34139.01224.52435.13141.56813.48567.18659,1.50969.378,3.01891.58578,4.52579.05837.42322-.05388.49121-.48253.44987a157.1468,157.1468,0,0,0-17.6624-.87639c-1.80553.02941-3.60918.17367-5.41369.26534C238.64962,167.57241,238.49544,167.65184,238.49791,167.38774Z"></path>
  <path class="cls-1" d="M214.347,57.21853a19.77432,19.77432,0,0,1-1.43924,2.8614c-.01038-.30857-.02982-.61712-.02985-.92568q-.00222-23.6281.00345-47.25621a1.16043,1.16043,0,0,0-.45073-1.09008,1.71873,1.71873,0,0,1-.09812-2.48509,1.75372,1.75372,0,0,1,2.4964.00126,1.681,1.681,0,0,1-.06375,2.4758,1.05394,1.05394,0,0,0-.44552.87623q.01839,22.55733.011,45.11469C214.33064,56.93341,214.34129,57.076,214.347,57.21853Z"></path>
  <path class="cls-1" d="M162.99977,30.98167c-.2091.25163-.10387.54976-.104.82352-.00593,15.04184-.02888,30.08377.02916,45.12538a7.34227,7.34227,0,0,1-1.33615,4.16107c-.00952-.3085-.02735-.61712-.02738-.92573q-.002-24.23047-.00215-48.46093c0-.36671.04409-.69282-.35314-.98771a1.70188,1.70188,0,0,1-.19616-2.56936,1.77331,1.77331,0,0,1,2.50026-.01022,1.73227,1.73227,0,0,1-.17172,2.58428C163.23043,30.81419,163.11292,30.89538,162.99977,30.98167Z"></path>
  <path class="cls-1" d="M230.349,133.68584c-.124-.35806-.24912-.71576-.37173-1.0743-.08126-.23757-.14638-.47168.20286-.55189q5.2647.26275,10.53011.52765c.53641.02738.94283.25074.91359.85736-.03061.6347-.441.824-1.03129.79128Q235.47123,133.952,230.349,133.68584Z"></path>
  <path class="cls-3" d="M238.49791,167.38774l.293.13345a1.23378,1.23378,0,0,1-.76483.10275A.55327.55327,0,0,1,238.49791,167.38774Z"></path>
  <path class="cls-4" d="M149.9771,164.31089c-.329.102-.49045.04175-.62817-.15285C149.58215,164.05256,149.72845,164.22984,149.9771,164.31089Z"></path>
  <path class="cls-5" d="M289.94139,179.49781l-.14652-.13842.57869-.37651A.59427.59427,0,0,1,289.94139,179.49781Z"></path>
  <path class="cls-6" d="M233.74747,141.47064c-.18447-.079-.28911-.16-.31874-.30443-.00359-.0176.05861-.07237.08318-.06817C233.672,141.12537,233.70586,141.255,233.74747,141.47064Z"></path>
  <path class="cls-7" d="M107.12684,109.65885c.06457.12909.198.12358.31069.15871-.1587.12853-.36064.204-.51293.07189C106.84981,109.82457,107.019,109.70866,107.12684,109.65885Z"></path>
  <path class="cls-8" d="M148.42285,163.9416l.14733-.11282a.522.522,0,0,1,.40416.20369A.50559.50559,0,0,1,148.42285,163.9416Z"></path>
  <path class="cls-9" d="M199.475,7.66871l-.14-.13726.17887-.4A.37271.37271,0,0,1,199.475,7.66871Z"></path>
  <path class="cls-10" d="M243.64445.52461l-.128-.1208L243.67922,0A.34691.34691,0,0,1,243.64445.52461Z"></path>
  <path class="cls-11" d="M164.17489,128.5312c-.3951-.08225-.83253.10564-1.19475-.18739.04155-.23988.02-.5958.42153-.32637C163.65846,128.18976,164.07228,128.13123,164.17489,128.5312Z"></path>
  <path class="cls-12" d="M117.854,135.95487c1.22661.69883,2.42043,1.37794,3.61329,2.05872q7.46036,4.2576,14.91406,8.52676a.9305.9305,0,0,0,1.09009.00141c2.25682-1.31833,4.541-2.58994,6.79936-3.90562a1.42967,1.42967,0,0,1,1.26609-.13481q17.07488,5.3097,34.16111,10.5829a1.19064,1.19064,0,0,1,.8345.76141q.71569,1.745,1.49938,3.46191a10.66559,10.66559,0,0,0,2.99229,4.02564,4.27114,4.27114,0,0,0,2.76955.96648c2.90631-.00944,5.81284-.02,8.71882.012.53046.00583.68739-.18251.76358-.65518a41.42524,41.42524,0,0,0,.89239-6.27233c.00256-.34491.13636-.4155.45072-.46547q11.52024-1.83157,23.03641-3.68842,10.59928-1.70055,21.19895-3.399c2.95912-.47411,5.91973-.93889,8.87686-1.425.37735-.062.48918.00534.48661.40546-.01671,2.61864-.02446,5.23762.00451,7.85605.00593.53555-.27816.4809-.61789.48355a34.25991,34.25991,0,0,0-10.4712,1.5745c-3.49879,1.14772-6.98063,2.34273-10.54035,3.2918a129.58537,129.58537,0,0,1-21.175,3.80827,129.23363,129.23363,0,0,1-90.87425-26.03147A1.52569,1.52569,0,0,1,117.854,135.95487Z"></path>
  <path class="cls-13" d="M114.27131,149.49936a5.80187,5.80187,0,0,1,5.50885,3.52412,4.292,4.292,0,0,0,2.5615,2.20621c.25788.08578.62458.13223.60979.49666-.01609.39688-.38095.55256-.69957.61153a1.81084,1.81084,0,0,1-1.8931-.50426c-.67063-.79963-1.33557-1.60624-2.04626-2.36958a6.0185,6.0185,0,0,0-2.919-1.82339,3.5413,3.5413,0,0,0-2.41669.28856c-.53637.23987-1.06878.33774-1.42715-.287a.9645.9645,0,0,1,.31022-1.32438A3.2571,3.2571,0,0,1,114.27131,149.49936Z"></path>
  <path class="cls-13" d="M116.57978,154.25474a1.23874,1.23874,0,1,1-1.25087-1.31667A1.17646,1.17646,0,0,1,116.57978,154.25474Z"></path>
  <path class="cls-14" d="M115.73227,157.5334a3.63632,3.63632,0,0,1-3.3544-1.42728,1.19774,1.19774,0,0,1-.25894-.65065.42.42,0,0,1,.246-.46643.37578.37578,0,0,1,.48593.19385c.90656,1.74958,2.40861,1.73964,4.0334,1.37912a1.77575,1.77575,0,0,1,.20742-.0474c.27333-.02671.54212-.02608.60214.32734.05208.30671-.165.42343-.40263.49357A4.62982,4.62982,0,0,1,115.73227,157.5334Z"></path>
  <path class="cls-15" d="M189.63171,148.49858c-.2622-.12211-.35832-.21408-.388-.35841a.16467.16467,0,0,1,.10959-.046C189.50565,148.13782,189.524,148.27369,189.63171,148.49858Z"></path>
  <path class="cls-1" d="M224.83373,156.22257c0-.85578.01047-1.71176-.005-2.56726-.00644-.356.056-.53324.482-.59748q4.57871-.69026,9.14581-1.45615c.416-.06937.54476-.01477.53862.42192-.0204,1.44979-.01689,2.90015-.001,4.35005.0038.34767-.11965.48793-.45352.59-3.04245.93088-6.12158,1.71792-9.22264,2.42606-.40011.09138-.49953.00754-.49077-.386C224.84776,158.07708,224.83375,157.14967,224.83373,156.22257Z"></path>
  <path class="cls-1" d="M177.38186,157.20791c0,.6658-.00965,1.33181.00414,1.99733.0067.324-.04368.45662-.43681.39426-3.12106-.49512-6.21735-1.11209-9.29844-1.8109a.45728.45728,0,0,1-.428-.52761c.01194-1.73578.00854-3.47167.00281-5.20749-.001-.29579.02283-.42331.39457-.30653q4.68489,1.47151,9.38566,2.89222c.33516.10143.38328.28372.37915.57137C177.37532,155.87622,177.38185,156.54211,177.38186,157.20791Z"></path>
  <path class="cls-1" d="M153.55614,153.51016a1.28264,1.28264,0,0,1-.84826-.17938c-2.409-.87146-4.78574-1.82419-7.13925-2.83654a.80287.80287,0,0,1-.605-.87847c.044-1.44862.02744-2.89956.00829-4.34927-.00574-.43423.08963-.51705.52355-.37946,2.5311.80262,5.07213,1.57388,7.61,2.35513.25266.07779.464.138.46018.50383C153.54531,149.66936,153.55614,151.59308,153.55614,153.51016Z"></path>
  <path class="cls-1" d="M203.53617,161.08c-.66549,0-1.33191-.0211-1.99609.00826-.37293.01648-.55149-.03655-.53815-.47812.03233-1.06991.02963-2.142.00013-3.21209-.01039-.37721.14179-.48662.47107-.53863q4.61514-.7289,9.22714-1.47752c.33091-.05369.47272.01271.46825.38523-.01687,1.40386-.02572,2.80842.00276,4.21191.011.53936-.35281.47664-.66332.50632C208.18769,160.707,205.86621,160.91516,203.53617,161.08Z"></path>
  <path class="cls-1" d="M157.70109,151.90561c0-.928.01753-1.85645-.00827-2.78372-.01094-.39306.12408-.42979.45094-.32605,1.51559.48093,3.03148.96175,4.55623,1.41233.31339.09258.33993.26511.33946.51985-.00336,1.80838-.01273,3.61689.00705,5.42506.00423.38652-.12209.44555-.45139.34713q-2.25074-.67259-4.50622-1.32916a.47289.47289,0,0,1-.39633-.5531C157.71694,153.71441,157.70109,152.8098,157.70109,151.90561Z"></path>
  <path class="cls-1" d="M220.69318,156.41034c.00007.71282-.01008,1.42584.00464,2.13838.00667.32325-.042.50976-.43444.56536-1.5038.213-3.00379.456-4.49993.7179-.36059.0631-.4441-.01578-.44-.37018q.02533-2.20949-.00023-4.41933c-.00341-.30676.10617-.396.39142-.44051q2.32112-.36244,4.63621-.76315c.33165-.05673.34577.12122.34411.36179C220.6899,154.93714,220.69311,155.67376,220.69318,156.41034Z"></path>
  <path class="cls-1" d="M239.17779,152.46837c0-1.589-.00129-1.59623,1.55767-1.86565,1.09976-.19006,2.20637-.34147,3.30391-.5428.39431-.07233.49942.03639.48189.41948-.03148.68709.20071,1.50057-.09423,2.02868-.2875.51477-1.20249.36007-1.82572.56173-.99167.32092-1.99785.59818-2.9842.93406-.3766.12825-.45921.03334-.4434-.32324C239.1916,153.27727,239.17783,152.87252,239.17779,152.46837Z"></path>
</svg>
