<svg id="MMBA" xmlns="http://www.w3.org/2000/svg" width="172" height="43.539" viewBox="0 0 172 43.539">
  <path id="Path_13" data-name="Path 13" d="M17.678,139.8a6.827,6.827,0,0,0-5.1,2.508A3.326,3.326,0,0,0,9.035,139.8a7.021,7.021,0,0,0-4.891,2.205c-.124-1.565-.783-1.974-1.867-1.974A6.972,6.972,0,0,0,0,140.494v2.045a3.1,3.1,0,0,1,.783-.053c.356.053.534.249.534.711v9.924H4.18v-9.053a5.619,5.619,0,0,1,3.664-1.636c2.17,0,2.17,2.045,2.17,3.539v7.167h2.863V144.1a5.692,5.692,0,0,1,3.646-1.672c2.17,0,2.17,1.956,2.17,3.539v7.167h2.863v-8.43c0-3.557-1.512-4.909-3.877-4.909m17.589.409H32.316l-3.272,9.284-3.4-9.284H22.658l5.1,12.912c-.676,1.956-.96,2.614-1.69,2.917a2.606,2.606,0,0,1-2.276-.285l-.765,2.045a4.448,4.448,0,0,0,3.415.551c2.579-.3,3.059-2.454,4.019-5.033Z" transform="translate(0 -114.936)" fill="#15284b"/>
  <path id="Path_14" data-name="Path 14" d="M224.278,139.8a6.827,6.827,0,0,0-5.1,2.508,3.326,3.326,0,0,0-3.539-2.508,7.021,7.021,0,0,0-4.891,2.205c-.124-1.565-.783-1.974-1.867-1.974a6.972,6.972,0,0,0-2.277.462v2.045a3.1,3.1,0,0,1,.783-.053c.356.053.534.249.534.711v9.924h2.846v-9.053a5.619,5.619,0,0,1,3.664-1.636c2.17,0,2.17,2.045,2.17,3.539v7.167h2.881V144.1a5.691,5.691,0,0,1,3.646-1.672c2.17,0,2.17,1.956,2.17,3.539v7.167h2.863v-8.43c0-3.557-1.53-4.909-3.877-4.909m12.45,0c-3.7,0-6.332,2.81-6.332,6.83,0,4.055,2.632,6.883,6.332,6.883s6.349-2.828,6.349-6.883c0-4.019-2.65-6.83-6.349-6.83m0,2.561c2.223,0,3.646,1.69,3.646,4.268,0,2.614-1.423,4.322-3.646,4.322s-3.61-1.69-3.61-4.322c-.018-2.579,1.387-4.268,3.61-4.268M253.25,139.8a6.945,6.945,0,0,0-4.855,2.17c-.16-1.547-.765-1.956-1.867-1.956a6.96,6.96,0,0,0-2.259.462v2.045a3.011,3.011,0,0,1,.765-.053c.356.053.534.249.534.711V153.1h2.863V144a5.845,5.845,0,0,1,3.646-1.6c2.17,0,2.17,1.956,2.17,3.539V153.1h2.863v-8.43c-.018-3.521-1.53-4.873-3.859-4.873m12.361,11.294a3.264,3.264,0,0,1-3.432-2.757l9.586-1.9c-.053-4.073-2.632-6.634-6.1-6.634-3.539,0-6.332,2.614-6.332,6.83,0,4.019,2.472,6.883,6.278,6.883a6.168,6.168,0,0,0,5.922-3.948l-2.33-.96a3.781,3.781,0,0,1-3.593,2.49m-3.682-4.766c.053-2.508,1.458-4.073,3.593-4.126a3.326,3.326,0,0,1,3.45,2.774Zm23.085-6.118h-2.952l-3.272,9.284-3.4-9.284H272.4l5.1,12.912c-.676,1.956-.96,2.614-1.69,2.917a2.606,2.606,0,0,1-2.276-.285l-.765,2.045a4.448,4.448,0,0,0,3.415.551c2.579-.3,3.059-2.454,4.019-5.033Z" transform="translate(-169.856 -114.936)" fill="#00a8e1"/>
  <path id="Path_15" data-name="Path 15" d="M662.334,113.573a5.3,5.3,0,0,0-3.771,1.565V107.9H655.7v18.977h1.565c.729,0,.96-.427,1.032-1.547a5.173,5.173,0,0,0,4.055,1.956c3.593,0,6.029-3.041,6.029-6.865,0-3.806-2.437-6.847-6.047-6.847m-.285,11.133c-1.778,0-3.486-1.263-3.486-2.881V118a4.222,4.222,0,0,1,3.522-1.867c2.205,0,3.593,1.672,3.593,4.268-.018,2.614-1.405,4.3-3.628,4.3m19.564,0a.618.618,0,0,1-.587-.711v-6.225c0-2.757-1.8-4.2-5.033-4.2-3.7,0-4.855,1.867-5.336,3.166l2.276.943a2.981,2.981,0,0,1,2.952-1.867c1.387,0,2.33.48,2.348,2.045.018,1.263-2.223,1.423-3.77,1.547-1.672.16-4.855.551-4.855,4.019,0,2.988,2.4,3.877,4.144,3.877a7.455,7.455,0,0,0,4.66-1.8c.124,1.209.64,1.6,1.725,1.6a7.044,7.044,0,0,0,2.223-.462v-2.01a2.418,2.418,0,0,1-.747.071m-9.017-1.441c0-1.69,1.334-2.17,3.059-2.33a6.418,6.418,0,0,0,2.579-.587l-.018,3.539a5.736,5.736,0,0,1-3.237,1.3c-1.12.071-2.383-.285-2.383-1.921m19.635-9.693a6.945,6.945,0,0,0-4.855,2.17c-.16-1.547-.765-1.956-1.867-1.956a7.061,7.061,0,0,0-2.259.462v2.045a3.011,3.011,0,0,1,.765-.053c.356.053.534.249.534.711v9.924h2.863v-9.106a5.845,5.845,0,0,1,3.646-1.6c2.17,0,2.17,1.956,2.17,3.539v7.167h2.863v-8.43c0-3.521-1.53-4.873-3.859-4.873m9.5,9.675,2.223-2.294,4,5.94h3.13l-5.211-7.95,4.8-4.962h-3.415l-5.549,5.691V107.9h-2.863v18.977h2.863v-3.628Z" transform="translate(-539.083 -88.71)" fill="#15284b"/>
  <path id="Path_16" data-name="Path 16" d="M887.641,10.636a3.184,3.184,0,1,1,3.219-3.184,3.2,3.2,0,0,1-3.219,3.184m0-10.636A7.5,7.5,0,0,0,880.1,7.452a7.541,7.541,0,0,0,15.082,0A7.5,7.5,0,0,0,887.641,0" transform="translate(-723.573)" fill="#00a8e1"/>
  <path id="Path_17" data-name="Path 17" d="M726.6,8.356A7.483,7.483,0,0,0,720.8,1.1V5.671a3.161,3.161,0,0,1,0,5.371v4.571a7.5,7.5,0,0,0,5.8-7.256" transform="translate(-592.605 -0.904)" fill="#00a8e1"/>
  <path id="Path_18" data-name="Path 18" d="M659.773,11.216A7.442,7.442,0,0,0,655.7,4.6V17.832a7.442,7.442,0,0,0,4.073-6.616" transform="translate(-539.083 -3.782)" fill="#00a8e1"/>
  <path id="Path_19" data-name="Path 19" d="M794.854,0A8.412,8.412,0,0,0,793.2.178V4.713a3.24,3.24,0,0,1,1.654-.445,3.184,3.184,0,1,1,0,6.367,3.088,3.088,0,0,1-1.654-.462v4.535a7.253,7.253,0,0,0,1.654.178,7.5,7.5,0,0,0,7.541-7.452A7.5,7.5,0,0,0,794.854,0" transform="translate(-652.128)" fill="#00a8e1"/>
</svg>
