<svg xmlns="http://www.w3.org/2000/svg" width="38.889" height="27.205" viewBox="0 0 38.889 27.205">
  <g id="Group_61" data-name="Group 61" transform="translate(0.75 0.75)">
    <g id="Group_52" data-name="Group 52" transform="translate(24.785 4.739)">
      <g id="Group_51" data-name="Group 51">
        <path id="Path_755" data-name="Path 755" d="M339.4,73.2,352,81.17V64.9Z" transform="translate(-339.4 -64.9)" fill="none" stroke="#039244" stroke-width="1.5"/>
      </g>
    </g>
    <g id="Group_54" data-name="Group 54" transform="translate(0 4.739)">
      <g id="Group_53" data-name="Group 53">
        <path id="Path_756" data-name="Path 756" d="M0,64.9V81.17L12.6,73.2Z" transform="translate(0 -64.9)" fill="none" stroke="#039244" stroke-width="1.5"/>
      </g>
    </g>
    <g id="Group_56" data-name="Group 56" transform="translate(0.073)">
      <g id="Group_55" data-name="Group 55">
        <path id="Path_757" data-name="Path 757" d="M35.979,0H3.264A2.3,2.3,0,0,0,1,1.986L19.622,14.255,38.243,1.986A2.3,2.3,0,0,0,35.979,0Z" transform="translate(-1)" fill="none" stroke="#039244" stroke-width="1.5"/>
      </g>
    </g>
    <g id="Group_58" data-name="Group 58" transform="translate(0.073 14.452)">
      <g id="Group_57" data-name="Group 57">
        <path id="Path_758" data-name="Path 758" d="M23.572,197.907l-3.308,2.176a1.139,1.139,0,0,1-.643.19,1.2,1.2,0,0,1-.643-.19L15.671,197.9,1,207.182a2.308,2.308,0,0,0,2.264,1.972H35.979a2.308,2.308,0,0,0,2.264-1.972Z" transform="translate(-1 -197.9)" fill="none" stroke="#039244" stroke-width="1.5"/>
      </g>
    </g>
  </g>
</svg>
