<svg id="Ebene_1" data-name="Ebene 1" xmlns="http://www.w3.org/2000/svg" viewBox="0 0 1000 596.84"><defs><style>.cls-1{fill:#00c1de;}.cls-2{fill:#006580;}</style></defs><title>Novum_Logo</title><g id="NOVUM"><path class="cls-1" d="M20.29,198.79a9,9,0,0,1-9.15,8.89,8.89,8.89,0,1,1,0-17.77,9,9,0,0,1,9.15,8.88"/><path class="cls-1" d="M139.25,113.48a5.83,5.83,0,1,1-5.83-5.65,5.76,5.76,0,0,1,5.83,5.65"/><path class="cls-1" d="M70,318.57A11.94,11.94,0,1,1,58,306.91,11.78,11.78,0,0,1,70,318.57"/><path class="cls-1" d="M145.22,124.62a5.83,5.83,0,1,1-5.83-5.66,5.74,5.74,0,0,1,5.83,5.66"/><path class="cls-1" d="M146.59,136.88a5.14,5.14,0,1,1-5.13-5,5.06,5.06,0,0,1,5.13,5"/><path class="cls-1" d="M145.9,149.13a5.14,5.14,0,1,1-5.13-5,5,5,0,0,1,5.13,5"/><path class="cls-1" d="M142.43,160.23a5.13,5.13,0,1,1-5.13-5,5.05,5.05,0,0,1,5.13,5"/><path class="cls-1" d="M137.63,170.53a5.13,5.13,0,1,1-5.13-5,5,5,0,0,1,5.13,5"/><path class="cls-1" d="M130.51,180.33a5.82,5.82,0,1,1-5.81-5.64,5.73,5.73,0,0,1,5.81,5.64"/><path class="cls-1" d="M122.09,190.08a6.05,6.05,0,1,1-6-5.86,6,6,0,0,1,6,5.86"/><path class="cls-1" d="M112.62,200.11a6.52,6.52,0,1,1-6.52-6.32,6.41,6.41,0,0,1,6.52,6.32"/><path class="cls-1" d="M101.12,210.19a7.21,7.21,0,1,1-7.21-7,7.09,7.09,0,0,1,7.21,7"/><path class="cls-1" d="M88.49,221.34a7.9,7.9,0,1,1-7.89-7.65,7.78,7.78,0,0,1,7.89,7.65"/><path class="cls-1" d="M76.32,234.64a8.58,8.58,0,1,1-8.59-8.33,8.47,8.47,0,0,1,8.59,8.33"/><path class="cls-1" d="M64.83,249.86a9.5,9.5,0,1,1-9.5-9.21,9.36,9.36,0,0,1,9.5,9.21"/><path class="cls-1" d="M52.66,266.8a9.27,9.27,0,1,1-9.28-9,9.15,9.15,0,0,1,9.28,9"/><path class="cls-1" d="M45.77,285.74a10,10,0,1,1-10-9.66,9.81,9.81,0,0,1,10,9.66"/><path class="cls-1" d="M42.85,307.09A10.42,10.42,0,1,1,32.43,297a10.27,10.27,0,0,1,10.42,10.11"/><path class="cls-1" d="M46.49,330.32a11.35,11.35,0,1,1-11.34-11,11.18,11.18,0,0,1,11.34,11"/><path class="cls-1" d="M55.5,352.31a11.34,11.34,0,1,1-11.34-11,11.17,11.17,0,0,1,11.34,11"/><path class="cls-1" d="M70.61,371.73a11.34,11.34,0,1,1-11.34-11,11.19,11.19,0,0,1,11.34,11"/><path class="cls-1" d="M90.36,389.11a11.8,11.8,0,1,1-11.8-11.44,11.63,11.63,0,0,1,11.8,11.44"/><path class="cls-1" d="M113.43,404.08a12.26,12.26,0,1,1-12.26-11.89,12.08,12.08,0,0,1,12.26,11.89"/><path class="cls-1" d="M135.29,416.29a10.89,10.89,0,1,1-10.89-10.54,10.74,10.74,0,0,1,10.89,10.54"/><path class="cls-1" d="M155.09,424.58a9.73,9.73,0,1,1-9.73-9.43,9.59,9.59,0,0,1,9.73,9.43"/><path class="cls-1" d="M171.63,433.94a8.35,8.35,0,1,1-8.35-8.1,8.22,8.22,0,0,1,8.35,8.1"/><path class="cls-1" d="M187.24,444a8.12,8.12,0,1,1-8.12-7.89,8,8,0,0,1,8.12,7.89"/><path class="cls-1" d="M201.64,454.47a8.13,8.13,0,1,1-8.13-7.87,8,8,0,0,1,8.13,7.87"/><path class="cls-1" d="M213.71,467.47a7.89,7.89,0,1,1-7.89-7.65,7.76,7.76,0,0,1,7.89,7.65"/><path class="cls-1" d="M222.56,482a7.44,7.44,0,1,1-7.44-7.2,7.33,7.33,0,0,1,7.44,7.2"/><path class="cls-1" d="M238.41,478.66a7.43,7.43,0,1,1-7.42-7.21,7.32,7.32,0,0,1,7.42,7.21"/><path class="cls-1" d="M225.46,498.28a6.64,6.64,0,0,1-7.38,5.74,6.55,6.55,0,0,1-5.91-7.16,6.64,6.64,0,0,1,7.38-5.74,6.53,6.53,0,0,1,5.91,7.16"/><path class="cls-1" d="M240,496.79a6.64,6.64,0,0,1-7.38,5.73,6.53,6.53,0,0,1-5.9-7.15,6.64,6.64,0,0,1,7.37-5.74,6.52,6.52,0,0,1,5.91,7.16"/><path class="cls-1" d="M225.24,513.05a6.49,6.49,0,0,1-7.87,4.53,6.26,6.26,0,0,1-4.66-7.64,6.47,6.47,0,0,1,7.87-4.52,6.26,6.26,0,0,1,4.66,7.63"/><path class="cls-1" d="M239.36,513.53a6.47,6.47,0,0,1-7.86,4.52,6.27,6.27,0,0,1-4.67-7.63,6.48,6.48,0,0,1,7.86-4.53,6.27,6.27,0,0,1,4.67,7.64"/><path class="cls-1" d="M221.93,529.38a7.92,7.92,0,0,1-10.27,4,7.5,7.5,0,0,1-3.48-10.21,7.93,7.93,0,0,1,10.26-4,7.53,7.53,0,0,1,3.49,10.21"/><path class="cls-1" d="M234.81,526.85a6,6,0,0,1-7.9,2.81A5.7,5.7,0,0,1,224,522a6,6,0,0,1,7.89-2.81,5.7,5.7,0,0,1,2.89,7.66"/><path class="cls-1" d="M215,542.25a6.28,6.28,0,1,1-6.29-6.33,6.29,6.29,0,0,1,6.29,6.33"/><path class="cls-1" d="M229.27,540.46a6.29,6.29,0,1,1-6.28-6.31,6.3,6.3,0,0,1,6.28,6.31"/><path class="cls-1" d="M221.47,554.72a6.29,6.29,0,1,1-6.29-6.32,6.31,6.31,0,0,1,6.29,6.32"/><path class="cls-1" d="M207.43,554.58a6.73,6.73,0,1,1-6.73-6.77,6.75,6.75,0,0,1,6.73,6.77"/><path class="cls-1" d="M194.89,561.92a4.43,4.43,0,1,1-4.44-4.46,4.44,4.44,0,0,1,4.44,4.46"/><path class="cls-1" d="M207.35,570.76a6.87,6.87,0,1,1-6.88-6.9,6.89,6.89,0,0,1,6.88,6.9"/><path class="cls-1" d="M214.09,565a3.51,3.51,0,1,1-3.5-3.52,3.51,3.51,0,0,1,3.5,3.52"/><path class="cls-1" d="M192.19,577.76a9.84,9.84,0,1,1-9.84-9.87,9.87,9.87,0,0,1,9.84,9.87"/><path class="cls-1" d="M171.76,585.47a9.39,9.39,0,1,1-9.39-9.44,9.43,9.43,0,0,1,9.39,9.44"/><path class="cls-1" d="M150.58,588.72a8.06,8.06,0,1,1-8.06-8.11,8.09,8.09,0,0,1,8.06,8.11"/><path class="cls-1" d="M131.83,586.05a7.61,7.61,0,1,1-7.61-7.64,7.62,7.62,0,0,1,7.61,7.64"/><path class="cls-1" d="M115.76,581a7.61,7.61,0,1,1-7.61-7.65,7.64,7.64,0,0,1,7.61,7.65"/><path class="cls-1" d="M101.52,571.66A7.61,7.61,0,1,1,93.91,564a7.64,7.64,0,0,1,7.61,7.65"/><path class="cls-1" d="M88.91,559.63a6.94,6.94,0,1,1-6.94-7,7,7,0,0,1,6.94,7"/><path class="cls-1" d="M82.45,544.19a6.94,6.94,0,1,1-6.94-7,7,7,0,0,1,6.94,7"/><path class="cls-1" d="M80.19,528a6.94,6.94,0,1,1-7-7,7,7,0,0,1,7,7"/><path class="cls-1" d="M86.62,511.93a6.95,6.95,0,1,1-7-7,7,7,0,0,1,7,7"/><path class="cls-1" d="M100.4,503.47a6.94,6.94,0,1,1-7-7,7,7,0,0,1,7,7"/><path class="cls-1" d="M116.44,504.06a6.94,6.94,0,1,1-7-7,7,7,0,0,1,7,7"/><path class="cls-1" d="M130.21,512.1a6.94,6.94,0,1,1-6.94-7,7,7,0,0,1,6.94,7"/><path class="cls-1" d="M134.39,527.09a6.95,6.95,0,1,1-6.95-7,7,7,0,0,1,6.95,7"/><path class="cls-1" d="M113.17,236.56A14.14,14.14,0,1,1,99,222.67a14,14,0,0,1,14.13,13.89"/><path class="cls-1" d="M77.14,139.87a16.93,16.93,0,1,1-16.93-16.42,16.69,16.69,0,0,1,16.93,16.42"/><path class="cls-1" d="M52.05,163.86a11.26,11.26,0,1,1-11.27-10.93,11.11,11.11,0,0,1,11.27,10.93"/><path class="cls-1" d="M35.64,182.34A9.54,9.54,0,0,1,26,191.75,9.4,9.4,0,1,1,26,173a9.54,9.54,0,0,1,9.68,9.38"/><path class="cls-1" d="M139.46,17c0,9-7.68,16.31-17.16,16.31S105.15,26,105.15,17,112.83.66,122.3.66,139.46,8,139.46,17"/><path class="cls-1" d="M175.46,28.26c0,9-7.68,16.31-17.16,16.31s-17.16-7.3-17.16-16.31S148.82,12,158.3,12s17.16,7.31,17.16,16.3"/><path class="cls-1" d="M205.78,46c0,9-7.68,16.31-17.15,16.31S171.46,55,171.46,46s7.69-16.31,17.17-16.31S205.78,37,205.78,46"/><path class="cls-1" d="M228.21,74c0,9-7.69,16.31-17.16,16.31S193.88,83,193.88,74s7.69-16.3,17.17-16.3S228.21,65,228.21,74"/><path class="cls-1" d="M243.77,107.69a17.52,17.52,0,1,1-17.51-17.13,17.33,17.33,0,0,1,17.51,17.13"/><path class="cls-1" d="M249.27,146.71c0,9.57-8.17,17.33-18.24,17.33s-18.25-7.76-18.25-17.33,8.16-17.33,18.25-17.33,18.24,7.76,18.24,17.33"/><path class="cls-1" d="M242.16,184.2c0,9.57-8.17,17.31-18.23,17.31s-18.21-7.74-18.21-17.31,8.15-17.3,18.21-17.3,18.23,7.73,18.23,17.3"/><path class="cls-1" d="M223.09,218.31c0,9.57-8.15,17.31-18.21,17.31s-18.22-7.74-18.22-17.31S194.82,201,204.88,201s18.21,7.75,18.21,17.32"/><path class="cls-1" d="M205.31,252.82c0,9.57-8.15,17.32-18.22,17.32s-18.22-7.75-18.22-17.32,8.16-17.3,18.22-17.3,18.22,7.75,18.22,17.3"/><path class="cls-1" d="M189.43,286c0,8.17-7,14.79-15.57,14.79s-15.57-6.62-15.57-14.79,7-14.8,15.57-14.8,15.57,6.61,15.57,14.8"/><path class="cls-1" d="M182.65,318.2c0,8.17-7,14.81-15.57,14.81s-15.57-6.64-15.57-14.81,7-14.8,15.57-14.8,15.57,6.64,15.57,14.8"/><path class="cls-1" d="M185.62,351.08c0,8.17-7,14.81-15.57,14.81s-15.58-6.64-15.58-14.81,7-14.79,15.58-14.79,15.57,6.63,15.57,14.79"/><path class="cls-1" d="M192,382.93c0,8.17-7,14.79-15.57,14.79s-15.58-6.62-15.58-14.79,7-14.8,15.58-14.8S192,374.76,192,382.93"/><path class="cls-1" d="M208.91,411.69a14.76,14.76,0,1,1-14.76-14.79,14.78,14.78,0,0,1,14.76,14.79"/><path class="cls-1" d="M224.5,437.09a12.87,12.87,0,1,1-12.86-12.95,12.9,12.9,0,0,1,12.86,12.95"/><path class="cls-1" d="M236.82,459.59c0,5.55-5.06,10.05-11.29,10.05s-11.31-4.5-11.31-10.05,5.06-10,11.31-10,11.29,4.5,11.29,10"/><path class="cls-1" d="M77,342.38a11,11,0,1,1-11-10.63,10.81,10.81,0,0,1,11,10.63"/><path class="cls-1" d="M126.67,343.8a10.79,10.79,0,0,1-12,9.32,10.63,10.63,0,0,1-9.6-11.63,10.81,10.81,0,0,1,12-9.33,10.64,10.64,0,0,1,9.6,11.64"/><path class="cls-1" d="M159.06,296.16a6.48,6.48,0,1,1-6.49-6.51,6.51,6.51,0,0,1,6.49,6.51"/><path class="cls-1" d="M137.67,190.07a5.73,5.73,0,1,1-5.73-5.79,5.76,5.76,0,0,1,5.73,5.79"/><path class="cls-1" d="M170.78,265a6.17,6.17,0,1,1-6.18-5.83,6,6,0,0,1,6.18,5.83"/><path class="cls-1" d="M103.26,11.68c0,6.45-5.53,11.68-12.35,11.68S78.55,18.13,78.55,11.68,84.08,0,90.91,0s12.35,5.23,12.35,11.68"/><path class="cls-1" d="M193.8,86.83a4.14,4.14,0,1,1-4.13-4,4.07,4.07,0,0,1,4.13,4"/><path class="cls-1" d="M105.37,282.49c0,14.35-11.88,26-26.51,26s-26.51-11.62-26.51-26,11.87-26,26.51-26,26.51,11.64,26.51,26"/><path class="cls-1" d="M188.76,104.29c0,12.77-10.9,23.12-24.33,23.12s-24.33-10.35-24.33-23.12S151,81.17,164.43,81.17s24.33,10.35,24.33,23.12"/><path class="cls-1" d="M181.36,147.77c0,9-7.67,16.3-17.16,16.3s-17.15-7.29-17.15-16.3,7.67-16.3,17.15-16.3,17.16,7.29,17.16,16.3"/><path class="cls-1" d="M151.72,217.06A20.49,20.49,0,1,1,131.23,197a20.29,20.29,0,0,1,20.49,20.06"/><path class="cls-1" d="M160,378.15a26.34,26.34,0,1,1-26.34-26.39A26.38,26.38,0,0,1,160,378.15"/><path class="cls-1" d="M169.79,406.48a10.2,10.2,0,1,1-10.2-10.19,10.2,10.2,0,0,1,10.2,10.19"/><path class="cls-1" d="M178.72,420.59a6.87,6.87,0,1,1-6.07-7.57,6.88,6.88,0,0,1,6.07,7.57"/><path class="cls-1" d="M188.36,430.17a5.52,5.52,0,1,1-5.52-5.61,5.57,5.57,0,0,1,5.52,5.61"/><path class="cls-1" d="M196,437.79a4.1,4.1,0,1,1-4.11-4.12,4.11,4.11,0,0,1,4.11,4.12"/><path class="cls-1" d="M107.6,360.84a17.16,17.16,0,1,1-17.17-16.79,17,17,0,0,1,17.17,16.79"/><path class="cls-1" d="M108.54,325.11a17.17,17.17,0,1,1-17.17-16.78,17,17,0,0,1,17.17,16.78"/><path class="cls-1" d="M149.2,312.53a19.6,19.6,0,1,1-19.59-19.39,19.5,19.5,0,0,1,19.59,19.39"/><path class="cls-1" d="M154,340.84a10.36,10.36,0,1,1-10.36-10,10.21,10.21,0,0,1,10.36,10"/><path class="cls-1" d="M157.75,266.14c0,14.15-11.85,25.61-26.47,25.61s-26.46-11.46-26.46-25.61,11.84-25.6,26.46-25.6,26.47,11.47,26.47,25.6"/><path class="cls-1" d="M171.18,238.28A11.72,11.72,0,1,1,159.46,227a11.5,11.5,0,0,1,11.72,11.27"/><path class="cls-1" d="M214.22,131.22c0,8.56-7.31,15.49-16.3,15.49s-16.31-6.93-16.31-15.49,7.3-15.49,16.31-15.49,16.3,6.93,16.3,15.49"/><path class="cls-1" d="M210.33,164.33c0,8-6.82,14.47-15.23,14.47s-15.23-6.48-15.23-14.47,6.84-14.46,15.23-14.46,15.23,6.48,15.23,14.46"/><path class="cls-1" d="M175.84,182.9c0,9.7-8.3,17.56-18.54,17.56s-18.54-7.86-18.54-17.56,8.31-17.55,18.54-17.55,18.54,7.86,18.54,17.55"/><path class="cls-1" d="M201.85,192.23c0,6.39-5.45,11.58-12.19,11.58s-12.19-5.19-12.19-11.58,5.46-11.59,12.19-11.59,12.19,5.19,12.19,11.59"/><path class="cls-1" d="M184.25,213.66a14.2,14.2,0,0,1-14.47,13.93c-8,0-14.49-6.23-14.49-13.93s6.49-13.93,14.49-13.93a14.2,14.2,0,0,1,14.47,13.93"/><path class="cls-1" d="M112.89,39.24a14.13,14.13,0,0,1-28.24,0,14.13,14.13,0,0,1,28.24,0"/><path class="cls-1" d="M149.25,77.09a15,15,0,1,1-15-14.58,14.82,14.82,0,0,1,15,14.58"/><path class="cls-1" d="M171.63,58.74a12.26,12.26,0,1,1-12.25-11.89,12.08,12.08,0,0,1,12.25,11.89"/><path class="cls-1" d="M91.92,57.59A9.89,9.89,0,1,1,82,48a9.75,9.75,0,0,1,9.89,9.58"/><path class="cls-1" d="M189.85,73.38a9.55,9.55,0,1,1-9.55-9.26,9.42,9.42,0,0,1,9.55,9.26"/><path class="cls-1" d="M146.6,47.4a14.12,14.12,0,1,1-14.12-13.68A13.91,13.91,0,0,1,146.6,47.4"/><path class="cls-1" d="M208,99.46a8.65,8.65,0,1,1-8.65-8.4,8.52,8.52,0,0,1,8.65,8.4"/><path class="cls-1" d="M120.57,61a9.95,9.95,0,1,1-9.95-9.64A9.81,9.81,0,0,1,120.57,61"/><path class="cls-1" d="M55.28,301.52a4.89,4.89,0,1,1-4.87-5.23,5.08,5.08,0,0,1,4.87,5.23"/><path class="cls-1" d="M86.16,247.83a7,7,0,1,1-7-7.08,7.08,7.08,0,0,1,7,7.08"/><path class="cls-1" d="M106.22,384a6.56,6.56,0,1,1-6.56-6.84,6.7,6.7,0,0,1,6.56,6.84"/><path class="cls-1" d="M116.6,293.09a5.51,5.51,0,1,1-5.52-5.61,5.55,5.55,0,0,1,5.52,5.61"/><path class="cls-1" d="M91.18,116.37c-9,0-16.31-6.93-16.31-15.48S82.18,85.4,91.18,85.4s16.29,6.93,16.29,15.49-7.29,15.48-16.29,15.48M92.24,69c-18,0-32.5,14.14-32.5,31.6s14.54,31.6,32.5,31.6,32.49-14.15,32.49-31.6S110.19,69,92.24,69"/><path class="cls-2" d="M336.3,287c0-19.25-.25-29.24-22.73-29.24-25,0-27.79,12.36-27.79,41.85V359H250.66V233.69H284v16.17c9.61-12.13,20-19.26,44.48-19.26,34.1,0,42.94,13.8,42.94,51.84V359H336.3Z"/><path class="cls-2" d="M450.85,362.1c-34.37,0-68-12.61-68-65.87,0-45.18,24.27-65.87,68.23-65.87s68.47,20.69,68.47,65.87c0,45.9-25.27,65.87-68.72,65.87m.25-104.63c-23.5,0-32.08,10-32.08,38.76,0,29,8.58,38.76,32.33,38.76,23.24,0,32.08-9.52,32.08-39,0-28.07-8.07-38.53-32.33-38.53"/><path class="cls-2" d="M518.19,233.69h38.39a461.68,461.68,0,0,0,29.31,90.11A523.9,523.9,0,0,0,616,233.69h36.9A809.62,809.62,0,0,1,603.07,359H568a806.56,806.56,0,0,1-49.77-125.31"/><path class="cls-2" d="M751,345.68c-9.09,13.79-25.51,16.42-41.2,16.42-32.08,0-46-11.19-46-47.09V233.69H699v79.19c0,16.88,5.55,22.11,23.24,22.11,18.44,0,26.79-5.71,26.79-29V233.69h35.1V359H751Z"/><path class="cls-2" d="M838.57,233.69V247c8.6-11.64,20.47-16.41,39.93-16.41,20.72,0,29.55,5.48,36.64,17.6,6.05-8.32,14.65-17.6,39.92-17.6,34.61,0,43,17.36,43,44V359H962.88V284.57c0-20.21-3.78-26.86-20-26.86-22.24,0-23.76,12.6-23.76,41.38V359H884.06V286c0-20.69,0-28.3-20.22-28.3-21.72,0-23.49,9-23.49,40.42V359H805.23V233.69Z"/></g></svg>