<?xml version="1.0" encoding="utf-8"?>
<!-- Generator: Adobe Illustrator 23.0.2, SVG Export Plug-In . SVG Version: 6.00 Build 0)  -->
<svg version="1.1" id="Ebene_1" xmlns="http://www.w3.org/2000/svg" xmlns:xlink="http://www.w3.org/1999/xlink" x="0px" y="0px"
	 viewBox="0 0 69.5 52" style="enable-background:new 0 0 69.5 52;" xml:space="preserve">
<style type="text/css">
	.st0{fill:#B1B3B4;}
	.st1{fill:#FFFFFF;}
</style>
<g>
	<rect x="0.3" y="0" class="st0" width="69" height="52"/>
	<g>
		<path class="st1" d="M23.4,29.3c-0.2,0.4-0.4,0.5-0.5,0.4c-0.5-0.3-0.9-0.5-1.5-0.5c-1.2,0-2,1-2,2.9c0,1.8,0.6,2.8,1.9,2.8
			c0.5,0,1.1-0.1,1.6-0.4c0.2-0.1,0.3,0,0.5,0.4l0.1,0.3c0.2,0.4,0.2,0.5,0,0.7c-0.7,0.4-1.5,0.7-2.5,0.7c-2.4,0-3.8-1.7-3.8-4.4
			s1.5-4.6,3.9-4.6c1,0,1.8,0.3,2.5,0.7c0.2,0.1,0.1,0.2-0.1,0.7L23.4,29.3z"/>
		<path class="st1" d="M29.6,31.7c0.9,0.3,1.5,0.9,1.5,2c0,0.6-0.2,1.2-0.6,1.7c-0.5,0.6-1.5,0.9-3,0.9h-1.8c-0.6,0-0.7,0-0.7-0.2
			v-8.2c0-0.2,0.1-0.3,0.7-0.3h1.5c1.2,0,2,0.1,2.6,0.5c0.5,0.3,0.9,0.9,0.9,1.7C30.8,30.7,30.4,31.3,29.6,31.7 M27.1,31.1h0.3
			c0.4,0,0.7,0,0.9-0.2c0.2-0.1,0.3-0.4,0.3-0.8c0-0.3-0.1-0.6-0.3-0.7c-0.2-0.1-0.5-0.2-0.9-0.2h-0.3V31.1z M27.1,34.8h0.5
			c0.5,0,0.9,0,1.1-0.2c0.2-0.1,0.3-0.4,0.3-0.9c0-0.4-0.1-0.6-0.3-0.8c-0.2-0.1-0.5-0.2-1.1-0.2h-0.5V34.8z"/>
		<path class="st1" d="M33.6,27.6c0.7,0,1,0,1,0.3v6.9h2.9c0.2,0,0.3,0,0.3,0.7v0.1c0,0.7,0,0.7-0.3,0.7h-4.3c-0.6,0-0.7,0-0.7-0.2
			V28c0-0.2,0.1-0.3,0.9-0.3L33.6,27.6L33.6,27.6z"/>
		<path class="st1" d="M18,22.7c-0.4,0-0.4-0.1-0.4-1.2v-0.2c0-1,0-1.2,0.4-1.2h9.4c0.4,0,0.4,0.1,0.4,1.2v0.2c0,1,0,1.2-0.4,1.2H18
			z"/>
		<path class="st1" d="M18,18.1c-0.4,0-0.4-0.1-0.4-1.2v-0.2c0-1,0-1.2,0.4-1.2h9.4c0.4,0,0.4,0.1,0.4,1.2v0.2c0,1,0,1.2-0.4,1.2H18
			z"/>
	</g>
	<g>
		<path class="st1" d="M42.2,34.4c0.4,0.1,0.6,0.4,0.6,0.8c0,0.3-0.1,0.5-0.2,0.7c-0.2,0.2-0.6,0.4-1.3,0.4h-0.8
			c-0.2,0-0.3,0-0.3-0.1v-3.5c0-0.1,0-0.1,0.3-0.1h0.6c0.5,0,0.8,0,1.1,0.2c0.2,0.1,0.4,0.4,0.4,0.7C42.6,33.9,42.4,34.2,42.2,34.4z
			 M41.1,34.1L41.1,34.1c0.3,0,0.4,0,0.5-0.1c0.1,0,0.1-0.2,0.1-0.3s0-0.2-0.1-0.3c-0.1,0-0.2-0.1-0.4-0.1h-0.1V34.1L41.1,34.1z
			 M41.1,35.7h0.2c0.2,0,0.4,0,0.5-0.1c0.1,0,0.1-0.2,0.1-0.4s0-0.3-0.1-0.3s-0.2-0.1-0.5-0.1h-0.2V35.7z"/>
		<path class="st1" d="M45.1,33.7c0,0,0-0.1,0.3-0.1l0,0c0.3,0,0.3,0,0.3,0.1c0,0.2,0,0.6,0,1.1v0.3c0,0.3,0,0.8,0,1.1
			c0,0.1,0,0.1-0.3,0.1l0,0c-0.3,0-0.3,0-0.3-0.1v-0.1c-0.1,0.2-0.3,0.3-0.6,0.3c-0.7,0-1.1-0.5-1.1-1.3c0-0.9,0.5-1.4,1.2-1.4
			c0.2,0,0.5,0.1,0.6,0.2L45.1,33.7z M45,34.4c-0.1-0.1-0.2-0.2-0.3-0.2c-0.3,0-0.4,0.3-0.4,0.7s0.1,0.7,0.4,0.7
			c0.1,0,0.2,0,0.3-0.1c0,0,0.1-0.1,0.1-0.3L45,34.4L45,34.4z"/>
		<path class="st1" d="M47.4,35.1v1.1c0,0.1,0,0.1-0.4,0.1l0,0c-0.4,0-0.4,0-0.4-0.1v-1.4c0-0.4,0-0.8,0-1.1c0-0.1,0-0.1,0.4-0.1
			l0,0c0.3,0,0.3,0,0.3,0.1v0.1c0.1-0.1,0.4-0.3,0.7-0.3c0.3,0,0.6,0.1,0.7,0.3c0.2,0.2,0.2,0.4,0.2,0.8v1.5c0,0.1,0,0.1-0.4,0.1
			l0,0c-0.4,0-0.4,0-0.4-0.1v-1.3c0-0.3,0-0.4-0.1-0.5c0,0-0.1-0.1-0.3-0.1c-0.1,0-0.2,0-0.3,0c0,0-0.1,0.1-0.1,0.2
			C47.4,34.7,47.4,34.9,47.4,35.1z"/>
		<path class="st1" d="M50.2,32.4c0.3,0,0.4,0,0.4,0.1v2c0.2-0.2,0.5-0.5,0.6-0.8c0,0,0.1-0.1,0.4-0.1h0.1c0.3,0,0.4,0,0.3,0.1
			c-0.1,0.2-0.5,0.7-0.8,1.1l1,1.3c0,0.1,0,0.1-0.3,0.1h-0.1c-0.3,0-0.4,0-0.4-0.1l-0.7-1v1c0,0.1,0,0.1-0.4,0.1l0,0
			c-0.4,0-0.4,0-0.4-0.1v-3.7C49.7,32.4,49.7,32.4,50.2,32.4L50.2,32.4z"/>
	</g>
</g>
</svg>
