<svg xmlns="http://www.w3.org/2000/svg" width="76.538" height="65.604" viewBox="0 0 76.538 65.604">
  <g id="Group_24" data-name="Group 24" transform="translate(765.765 -99.575)">
    <path id="Path_5" data-name="Path 5" d="M-739.341,99.575a2.748,2.748,0,0,0-2.734,2.734v6.378h-14.579a9.112,9.112,0,0,0-9.112,9.112v38.269a9.112,9.112,0,0,0,9.112,9.112h58.315a9.112,9.112,0,0,0,9.112-9.112V117.8a9.112,9.112,0,0,0-9.112-9.112h-14.579v-6.378a2.748,2.748,0,0,0-2.734-2.734h-23.689Zm0,1.822h23.69a.89.89,0,0,1,.911.911v6.378h-25.513v-6.378a.89.89,0,0,1,.911-.911Zm-17.312,9.112h58.315a7.253,7.253,0,0,1,7.289,7.289v9.482c-7.828,4.558-18.376,7.713-30.182,8.542a6.381,6.381,0,0,0-6.264-5.268,6.411,6.411,0,0,0-6.293,5.268c-11.8-.829-22.327-3.984-30.153-8.542V117.8a7.253,7.253,0,0,1,7.289-7.289Zm-7.289,18.85c8.029,4.463,18.466,7.48,30.1,8.286a6.4,6.4,0,0,0,6.349,5.666,6.4,6.4,0,0,0,6.349-5.666c11.632-.806,22.068-3.823,30.1-8.286v26.709a7.253,7.253,0,0,1-7.289,7.289h-58.315a7.253,7.253,0,0,1-7.29-7.289Zm36.447,3.018a4.542,4.542,0,0,1,4.556,4.556,4.542,4.542,0,0,1-4.556,4.556,4.542,4.542,0,0,1-4.556-4.556A4.542,4.542,0,0,1-727.5,132.377Z" transform="translate(0 0)" fill="#039244"/>
  </g>
</svg>
