<?xml version="1.0" encoding="utf-8"?>
<!-- Generator: Adobe Illustrator 23.0.1, SVG Export Plug-In . SVG Version: 6.00 Build 0)  -->
<svg version="1.1" id="Layer_1" xmlns="http://www.w3.org/2000/svg" xmlns:xlink="http://www.w3.org/1999/xlink" x="0px" y="0px"
	 viewBox="0 0 474.26 64.96" style="enable-background:new 0 0 474.26 64.96;" xml:space="preserve">
<style type="text/css">
	.st0{fill:#0047BA;}
	.st1{fill:#D02C2F;}
</style>
<g>
	<g>
		<path class="st0" d="M456.93,63.76l-15.81-24.8h-8.84v24.8h-15.97V0.81h15.97v23.44h8.84L455.64,0.9l16.83-0.09l-18.88,30.41
			l20.67,32.54H456.93z"/>
		<path class="st1" d="M162.69,26.09l-5.14-1.23c-1.73-0.42-3.06-0.88-4-1.36c-0.94-0.48-1.6-1.03-1.97-1.66
			c-0.37-0.62-0.56-1.42-0.56-2.38c0-1.81,0.92-3.22,2.75-4.23c1.83-1.01,4.94-1.51,9.32-1.51c2.6,0,5.21,0.18,7.83,0.55
			c0.55,0.08,1.08,0.17,1.61,0.26l2.39-12.95c-3.82-0.83-7.99-1.26-12.54-1.26c-8.97,0-15.74,1.72-20.29,5.17
			c-4.55,3.45-6.83,8.36-6.83,14.74c0,4.96,1.39,8.95,4.18,11.97c2.79,3.02,7.13,5.22,13.02,6.61l5.14,1.23
			c2.04,0.48,3.62,0.98,4.74,1.49c1.12,0.51,1.89,1.11,2.33,1.79c0.44,0.68,0.66,1.53,0.66,2.55c0,1.87-0.76,3.29-2.29,4.25
			c-1.53,0.96-4.12,1.45-7.79,1.45c-2.87,0-6.01-0.27-9.42-0.81c-0.23-0.04-0.44-0.08-0.66-0.12l-7.33,11.78
			c5.45,1.69,11.25,2.54,17.41,2.54c5.34,0,9.94-0.81,13.82-2.42c3.88-1.62,6.84-3.93,8.9-6.95c2.06-3.02,3.09-6.6,3.09-10.74
			c0-4.96-1.45-8.95-4.36-11.97C173.78,29.85,169.12,27.59,162.69,26.09z"/>
		<path class="st1" d="M43.66,14.34H15.97V26.8h21.75v13.4H15.97v23.65H0V0.9h43.66V14.34z"/>
		<path class="st1" d="M51.46,63.85V14.61h15.97v49.23H51.46z"/>
		<path class="st1" d="M98.01,29.9l6.53-0.21c3.74,0,6.51-0.69,8.3-2.06c1.79-1.37,2.69-3.59,2.69-6.66s-0.9-5.3-2.71-6.7
			c-1.81-1.4-4.57-1.47-8.28-1.47c-2.18,0-4.22,0.01-6.53,0.01v16.46v12.46v22.12H82.36V0.9c3.38,0,17.23,0,20.55,0
			c9.16,0,16.03,0.89,20.61,4.27c4.58,3.39,6.87,8.64,6.87,15.76c0,4.37-0.98,8.08-2.93,11.14c-1.95,3.06-4.76,5.43-8.42,7.1
			l16.61,24.67h-17.4L98.01,33.17V29.9z"/>
		<path class="st1" d="M195.65,63.07V14.6h-16.07V0.9h46.25V14.6h-14.21v22.5L195.65,63.07z"/>
		<polygon class="st0" points="51.46,26.39 67.43,0.9 51.46,0.9 		"/>
		<path class="st0" d="M279.88,36.09c1.94,2.42,2.91,5.65,2.91,9.68c0,4.08-1.01,7.51-3.03,10.27c-2.02,2.77-5.34,4.88-9.96,6.34
			c-4.62,1.46-10.74,2.19-18.36,2.19c-2.63,0-5.66-0.13-9.08-0.38c-3.43-0.26-6.48-0.58-9.16-0.98V2.55
			c3.05-0.77,6.48-1.38,10.28-1.85c3.8-0.47,7.38-0.7,10.75-0.7c9.35,0,16.18,1.49,20.49,4.47c4.31,2.98,6.47,7.46,6.47,13.44
			c0,3.26-0.83,6.09-2.49,8.49c-1.66,2.4-3.9,4.03-6.71,4.91C275.31,32.07,277.94,33.66,279.88,36.09z M248.77,12.72v12.76h8.09
			c3.37,0,5.79-0.55,7.25-1.64c1.46-1.09,2.19-2.79,2.19-5.08c0-1.59-0.33-2.88-0.98-3.87c-0.65-0.99-1.71-1.73-3.17-2.21
			c-1.46-0.48-3.44-0.72-5.93-0.72C253.7,11.95,251.22,12.21,248.77,12.72z M263.29,51.76c1.82-0.54,3.1-1.35,3.84-2.42
			c0.74-1.08,1.12-2.48,1.12-4.21c0-1.76-0.33-3.18-1-4.25c-0.66-1.08-1.73-1.87-3.21-2.38c-1.47-0.51-3.43-0.77-5.87-0.77h-9.4
			v14.5c1.99,0.23,4.34,0.34,7.05,0.34C258.98,52.57,261.47,52.3,263.29,51.76z"/>
		<path class="st0" d="M330.1,63.76l-4.58-15.4h-22.46l-4.54,15.4h-15.49l19.75-62.95H326l19.75,62.95H330.1z M306.96,35.26h14.7
			l-7.37-24.8L306.96,35.26z"/>
		<path class="st0" d="M391.02,0.81h15.02v62.95h-15.97L364.9,25.26v38.49h-15.02V0.81h15.97l25.17,38.49V0.81z"/>
	</g>
</g>
</svg>
