<svg id="Lager_1" data-name="Lager 1" xmlns="http://www.w3.org/2000/svg" viewBox="0 0 308.44 75.39"><defs><style>.cls-1{fill:#78d5bb;}</style></defs><title>Qliro (1)</title><path class="cls-1" d="M76.28,55A31.18,31.18,0,1,0,51.89,66.67a31.21,31.21,0,0,0,15.18-3.92l6.78,7.93,9.22-7.78ZM70.74,35.7a19.22,19.22,0,0,1-2.64,9.67l-5.78-6.76-9.23,7.78L59,53.27A19,19,0,1,1,70.74,35.7Z"/><polygon class="cls-1" points="105.01 55.59 105.01 7.96 92.88 7.96 92.88 67.43 134.92 67.43 134.92 55.59 105.01 55.59"/><rect class="cls-1" x="146.71" y="7.96" width="12.13" height="59.47"/><path class="cls-1" d="M206,48.24A21.06,21.06,0,0,0,197.4,8H173.06V67.43h12.12V50.05h7.56l11.53,17.39H218.7ZM206.31,29a9.08,9.08,0,0,1-8.91,9.22H185.18V19.8H197.4A9.06,9.06,0,0,1,206.31,29Z"/><path class="cls-1" d="M256.54,6.71a31,31,0,1,0,31.15,31A31.11,31.11,0,0,0,256.54,6.71Zm18.85,31a18.85,18.85,0,1,1-18.85-19A18.93,18.93,0,0,1,275.39,37.7Z"/></svg>