<svg xmlns="http://www.w3.org/2000/svg" width="168.416" height="267" viewBox="0 0 168.416 267">
  <g id="Group_14411" data-name="Group 14411" transform="translate(-959 -689)">
    <path id="Path_1399" data-name="Path 1399" d="M138.2,115.822a85.905,85.905,0,0,1,11.528-7.638C208.135,75.916,270.172,138,205.579,183.4c-30.042,21.132,9.45,29.188-39.666,27.565-1.926-18.676-3.706-24.22.661-30.608,7.934-11.6,21.525-13.745,29.4-26.442,8.872-14.307-2.176-31.023-24.369-24.946C148.06,135.428,155.745,144.844,138.2,115.822Z" transform="translate(828.209 668.268)" fill="#f59a23"/>
    <path id="Path_1400" data-name="Path 1400" d="M155.944,227.649c.766-23.149,36.569-21.776,35.811,1.184C190.993,251.861,155.177,250.868,155.944,227.649Z" transform="translate(830.456 682.411)" fill="#f59a23"/>
    <path id="Path_1401" data-name="Path 1401" d="M176.486,211.8c-2.973,0-6.449-.071-10.509-.205l-.491-.016-.051-.489c-.349-3.386-.694-6.34-1-8.945-1.372-11.767-1.94-16.637,1.753-22.038,3.866-5.655,9.126-9.145,14.213-12.522,5.476-3.635,11.138-7.393,15.173-13.9,3.94-6.355,3.973-13.534.087-18.738-4.617-6.182-13.526-8.191-23.828-5.369a74.876,74.876,0,0,0-12.9,4.862c-7.953,3.718-8.138,3.41-17.84-12.771-.991-1.655-2.086-3.479-3.3-5.488l-.258-.427.393-.309c21.233-16.628,46.7-21.145,68.13-12.084,15.622,6.606,25.872,19.21,27.419,33.714,1.762,16.513-8,33.152-27.5,46.853-13.069,9.193-12.724,15.82-12.5,20.2.1,2.031.2,3.785-1.091,5.1C190.633,211.028,186.3,211.8,176.486,211.8Zm-9.981-1.315c16.3.526,23.119-.035,25.089-2.044.941-.958.869-2.338.77-4.248-.24-4.633-.6-11.634,12.974-21.186,19.142-13.454,28.74-29.724,27.024-45.811-1.5-14.092-11.5-26.352-26.738-32.8-20.914-8.843-45.779-4.494-66.6,11.627,1.113,1.842,2.123,3.527,3.044,5.062,9.363,15.619,9.362,15.618,16.4,12.332a75.594,75.594,0,0,1,13.079-4.928c10.764-2.95,20.124-.788,25.028,5.781,4.17,5.583,4.158,13.249-.033,20.006-4.163,6.714-9.93,10.542-15.507,14.245-5.228,3.469-10.164,6.746-13.907,12.219-3.456,5.053-2.941,9.469-1.564,21.271C165.847,204.5,166.173,207.3,166.505,210.484Z" transform="translate(828.125 668.201)" fill="#f59a23"/>
    <path id="Path_1402" data-name="Path 1402" d="M173.972,246.219c-.237,0-.471,0-.706-.01-8.868-.294-18.226-6.213-17.82-18.515.222-6.715,3.38-12.035,8.894-14.98a20.739,20.739,0,0,1,20.116.688c5.331,3.319,8.146,8.828,7.925,15.513C191.985,240.893,182.7,246.219,173.972,246.219Zm-17.4-18.488c-.381,11.529,8.406,17.075,16.731,17.351,8.385.3,17.572-4.676,17.953-16.2.207-6.267-2.419-11.422-7.394-14.519a19.573,19.573,0,0,0-18.99-.652c-5.143,2.747-8.091,7.728-8.3,14.024Z" transform="translate(830.392 682.348)" fill="#f59a23"/>
    <g id="Group_4945" data-name="Group 4945" transform="translate(986.449 845.28)">
      <path id="Path_1403" data-name="Path 1403" d="M174.09,208.063c-3.042,0-6.548-.072-10.617-.207l-4.913-.162-.5-4.89c-.347-3.361-.69-6.295-.99-8.882-1.438-12.328-2.159-18.516,2.6-25.483l.113-.164.925.644-.108.156c-4.526,6.619-3.821,12.667-2.416,24.716.3,2.594.644,5.531.993,8.9l.4,3.913,3.931.13c19.682.652,26-.11,29.365-3.543a7.489,7.489,0,0,0,1.967-3.518l1.093.273a8.587,8.587,0,0,1-2.256,4.035C190.777,206.933,186.058,208.063,174.09,208.063Z" transform="translate(-155.986 -168.274)" fill="#f59a23"/>
    </g>
    <g id="Group_4946" data-name="Group 4946" transform="translate(1007.043 800.461)">
      <path id="Path_1404" data-name="Path 1404" d="M189.849,141.822l-1.115-.158a11.386,11.386,0,0,0,.115-1.6A9.762,9.762,0,0,0,187.7,135.4c-1.871-3.5-5.895-5.6-11.042-5.768a22.364,22.364,0,0,0-2.32.045l-.077-1.124c.833-.057,1.645-.071,2.434-.047,5.559.183,9.932,2.5,12,6.361a10.878,10.878,0,0,1,1.28,5.2A12.436,12.436,0,0,1,189.849,141.822Z" transform="translate(-174.265 -128.494)" fill="#f59a23"/>
    </g>
    <g id="Group_4947" data-name="Group 4947" transform="translate(959 764.024)">
      <path id="Path_1405" data-name="Path 1405" d="M154.035,141.771c-.112,0-.222,0-.334-.006-6.038-.2-8.6-4.472-16.2-17.153-.99-1.653-2.081-3.474-3.293-5.477l-2.584-4.272,3.931-3.079A83.118,83.118,0,0,1,166.8,96.155l.27,1.094a82,82,0,0,0-30.818,15.422l-3.143,2.463,2.066,3.418c1.213,2.006,2.305,3.827,3.294,5.48,7.367,12.289,9.848,16.427,15.272,16.606a10.6,10.6,0,0,0,4.187-.793l.394,1.056A11.973,11.973,0,0,1,154.035,141.771Z" transform="translate(-131.624 -96.155)" fill="#f59a23"/>
    </g>
    <g id="Group_4948" data-name="Group 4948" transform="translate(1051.208 801.799)">
      <path id="Path_1406" data-name="Path 1406" d="M214.294,171.144l-.83-.76c9.536-10.421,14.576-21.952,14.576-33.348a39.48,39.48,0,0,0-.656-7.15l1.108-.2a40.6,40.6,0,0,1,.675,7.354C229.167,148.717,224.024,160.513,214.294,171.144Z" transform="translate(-213.464 -129.682)" fill="#f59a23"/>
    </g>
    <g id="Group_4950" data-name="Group 4950" transform="translate(980.755 897.755)">
      <path id="Path_1407" data-name="Path 1407" d="M173.777,250.721l-.107,0c-11.3-.374-22.737-8.332-22.737-22.819,0-.309,0-.62.016-.931a24.74,24.74,0,0,1,1.477-7.8l1.056.391a23.652,23.652,0,0,0-1.407,7.451c-.01.3-.015.6-.015.893,0,13.77,10.888,21.336,21.646,21.692Zm21.441-11.493-.987-.543a22.508,22.508,0,0,0,2.662-10.2q.014-.446.014-.886a21.251,21.251,0,0,0-3.519-12.124l.934-.629a22.344,22.344,0,0,1,3.711,12.753c0,.306,0,.613-.015.923A23.615,23.615,0,0,1,195.218,239.227Z" transform="translate(-150.933 -214.848)" fill="#f59a23"/>
    </g>
    <path id="Path_1408" data-name="Path 1408" d="M197.469,144.266c47.721-37.371,105.928,14.959,52.417,52.569-23.37,16.44,7.352,22.706-30.857,21.442-1.5-14.528-2.882-18.841.515-23.809,6.172-9.026,16.745-10.691,22.87-20.569,6.9-11.129-1.692-24.134-18.957-19.406C205.143,159.518,211.12,166.844,197.469,144.266Z" transform="translate(835.718 672.336)" fill="#5bcd3e"/>
    <path id="Path_1409" data-name="Path 1409" d="M211.276,231.279c.48-14.532,18.711-16.642,25.515-7.4a13.107,13.107,0,0,1,2.342,8.318C238.54,250.113,210.679,249.341,211.276,231.279Z" transform="translate(837.466 683.318)" fill="#5bcd3e"/>
    <path id="Path_1410" data-name="Path 1410" d="M227.234,219.066c-2.307,0-5-.054-8.139-.158l-.491-.017-.051-.488c-.272-2.633-.54-4.93-.775-6.956-1.071-9.187-1.514-12.99,1.385-17.23,3.022-4.418,7.123-7.141,11.09-9.774,4.249-2.82,8.643-5.737,11.766-10.775,3.038-4.9,3.066-10.429.073-14.435-3.559-4.767-10.439-6.313-18.4-4.13a57.991,57.991,0,0,0-10.014,3.776c-6.29,2.937-6.582,2.453-14.037-9.985-.772-1.286-1.622-2.706-2.568-4.269l-.259-.427.394-.308c16.553-12.965,36.411-16.485,53.124-9.417,12.2,5.158,20.2,15,21.4,26.329,1.377,12.892-6.238,25.877-21.441,36.562-10.109,7.111-9.844,12.225-9.668,15.609.083,1.609.155,3-.883,4.058C238.342,218.456,234.933,219.066,227.234,219.066Zm-7.611-1.269c12.563.4,17.813-.027,19.314-1.555.693-.706.638-1.758.563-3.211-.189-3.632-.473-9.121,10.145-16.591,14.852-10.438,22.3-23.054,20.969-35.521-1.164-10.914-8.911-20.413-20.723-25.409-16.2-6.851-35.45-3.5-51.6,8.959.844,1.4,1.61,2.675,2.311,3.845,7.227,12.053,7.229,12.052,12.6,9.541a59.111,59.111,0,0,1,10.193-3.841c8.428-2.306,15.755-.61,19.6,4.544,3.275,4.386,3.269,10.4-.019,15.7-3.254,5.246-7.75,8.23-12.1,11.118-4.055,2.693-7.886,5.235-10.782,9.471-2.662,3.894-2.264,7.316-1.2,16.464C219.118,213.22,219.368,215.362,219.623,217.8Z" transform="translate(835.635 672.27)" fill="#5bcd3e"/>
    <path id="Path_1411" data-name="Path 1411" d="M225.315,245.84a15.855,15.855,0,0,1-8.332-2.3c-4.178-2.6-6.382-6.946-6.207-12.239h0c.319-9.629,7.945-13.756,14.912-13.536,7.222.24,14.375,5.294,14.07,14.495a13.251,13.251,0,0,1-7.032,11.782A15.791,15.791,0,0,1,225.315,245.84ZM211.9,231.34a12.171,12.171,0,0,0,5.676,11.244,15.063,15.063,0,0,0,14.618.464,12.168,12.168,0,0,0,6.437-10.825c.293-8.856-6.525-13.118-12.982-13.331-6.418-.219-13.456,3.592-13.749,12.448Z" transform="translate(837.402 683.276)" fill="#5bcd3e"/>
    <g id="Group_4954" data-name="Group 4954" transform="translate(1047.519 858.187)">
      <path id="Path_1412" data-name="Path 1412" d="M225.6,217.95c-2.4,0-5.164-.056-8.365-.162l-4.914-.163-.5-4.888c-.26-2.526-.517-4.738-.746-6.7l-.023-.2c-1.155-9.9-1.734-14.869,2.236-20.676a30.352,30.352,0,0,1,4.8-5.437l.755.836a29.293,29.293,0,0,0-4.622,5.237c-3.733,5.46-3.169,10.289-2.047,19.911l.024.2c.228,1.963.486,4.18.747,6.711l.4,3.911,3.931.13c15.846.525,20.7-.1,23.591-3.056,2.253-2.3,2.111-5.03,2.007-7.024a13.78,13.78,0,0,1,.019-2.314l1.119.127a12.685,12.685,0,0,0-.012,2.127c.108,2.081.272,5.223-2.328,7.873C239.119,216.99,235.376,217.95,225.6,217.95Z" transform="translate(-210.19 -179.73)" fill="#5bcd3e"/>
    </g>
    <g id="Group_4955" data-name="Group 4955" transform="translate(1067.371 830.396)">
      <path id="Path_1413" data-name="Path 1413" d="M236.275,164.771l-1.1-.223a7.848,7.848,0,0,0,.159-1.54,6.378,6.378,0,0,0-.742-3.041c-1.138-2.126-3.609-3.5-6.778-3.781l.1-1.122c3.556.31,6.353,1.9,7.674,4.372a7.492,7.492,0,0,1,.875,3.573A8.915,8.915,0,0,1,236.275,164.771Z" transform="translate(-227.809 -155.063)" fill="#5bcd3e"/>
    </g>
    <g id="Group_4956" data-name="Group 4956" transform="translate(1025.782 798.474)">
      <path id="Path_1414" data-name="Path 1414" d="M209.972,165.986c-.1,0-.2,0-.3,0-5.377-.177-7.625-3.928-13.634-13.952-.768-1.282-1.617-2.7-2.559-4.256L190.9,143.5l3.931-3.078c9.821-7.692,20.891-12.426,32.01-13.694l.127,1.12c-10.912,1.243-21.786,5.9-31.444,13.461l-3.143,2.463,2.066,3.417c.942,1.559,1.791,2.974,2.561,4.259,5.779,9.641,7.941,13.248,12.706,13.4,2.2.1,4.139-.829,6.378-1.876.871-.408,1.818-.85,2.909-1.311l.438,1.039c-1.075.454-2.01.89-2.864,1.291C214.293,165.062,212.315,165.986,209.972,165.986Z" transform="translate(-190.897 -126.731)" fill="#5bcd3e"/>
    </g>
    <g id="Group_4957" data-name="Group 4957" transform="translate(1102.464 830)">
      <path id="Path_1415" data-name="Path 1415" d="M259.838,185.121l-.882-.7c6-7.556,9.036-15.492,9.036-23.591a31.843,31.843,0,0,0-.558-5.91l1.106-.21a32.831,32.831,0,0,1,.578,6.119C269.119,169.19,266,177.362,259.838,185.121Z" transform="translate(-258.956 -154.712)" fill="#5bcd3e"/>
    </g>
    <g id="Group_4959" data-name="Group 4959" transform="translate(1043.099 895.962)">
      <path id="Path_1416" data-name="Path 1416" d="M225.162,251.472c-9.39-.31-18.9-6.935-18.9-18.993,0-.255,0-.514.012-.775.43-13.005,10.853-18.755,20.146-18.435,7.09.234,13.467,3.893,16.641,9.546l-.982.552c-2.982-5.312-9-8.751-15.7-8.972-8.748-.281-18.578,5.106-18.984,17.345-.007.249-.011.495-.011.738,0,11.344,8.957,17.573,17.806,17.866Z" transform="translate(-206.266 -213.257)" fill="#5bcd3e"/>
    </g>
    <path id="Path_1417" data-name="Path 1417" d="M240.118,95.059a7.665,7.665,0,1,1-7.665-7.665A7.665,7.665,0,0,1,240.118,95.059Z" transform="translate(839.179 666.759)" fill="#f59a23"/>
    <circle id="Ellipse_6" data-name="Ellipse 6" cx="3.407" cy="3.407" r="3.407" transform="translate(1073.335 719.234)" fill="#f59a23"/>
    <circle id="Ellipse_7" data-name="Ellipse 7" cx="3.407" cy="3.407" r="3.407" transform="translate(1098.885 689)" fill="#f59a23"/>
    <circle id="Ellipse_8" data-name="Ellipse 8" cx="3.62" cy="3.62" r="3.62" transform="translate(1120.177 744.359)" fill="#5bcd3e"/>
    <path id="Path_1418" data-name="Path 1418" d="M145.944,214.46a2.342,2.342,0,1,1-2.341-2.342A2.342,2.342,0,0,1,145.944,214.46Z" transform="translate(828.597 682.561)" fill="#f59a23"/>
    <circle id="Ellipse_9" data-name="Ellipse 9" cx="4.471" cy="4.471" r="4.471" transform="translate(1022.021 942.798)" fill="#f59a23"/>
    <path id="Path_1419" data-name="Path 1419" d="M156.723,84.354a4.9,4.9,0,1,1-4.9-4.9A4.9,4.9,0,0,1,156.723,84.354Z" transform="translate(829.315 665.754)" fill="#f59a23"/>
    <path id="Path_1420" data-name="Path 1420" d="M175.425,57.61a2.342,2.342,0,1,1-2.342-2.342A2.342,2.342,0,0,1,175.425,57.61Z" transform="translate(832.332 662.689)" fill="#f59a23"/>
    <circle id="Ellipse_10" data-name="Ellipse 10" cx="3.407" cy="3.407" r="3.407" transform="translate(1093.349 776.297)" fill="#5bcd3e"/>
    <path id="Path_1421" data-name="Path 1421" d="M209.21,37.275a4.684,4.684,0,1,1-4.684-4.684A4.683,4.683,0,0,1,209.21,37.275Z" transform="translate(836.019 659.816)" fill="#5bcd3e"/>
    <path id="Path_1422" data-name="Path 1422" d="M213.028,77.546a1.491,1.491,0,1,1-1.491-1.491A1.49,1.49,0,0,1,213.028,77.546Z" transform="translate(837.312 665.323)" fill="#5bcd3e"/>
    <circle id="Ellipse_11" data-name="Ellipse 11" cx="4.471" cy="4.471" r="4.471" transform="translate(1090.794 881.478)" fill="#5bcd3e"/>
    <path id="Path_1423" data-name="Path 1423" d="M252.287,232.672a1.278,1.278,0,1,1-1.278-1.278A1.277,1.277,0,0,1,252.287,232.672Z" transform="translate(842.339 685.003)" fill="#5bcd3e"/>
    <path id="Path_1424" data-name="Path 1424" d="M267.027,252.325a1.278,1.278,0,1,1-1.278-1.278A1.277,1.277,0,0,1,267.027,252.325Z" transform="translate(844.207 687.493)" fill="#5bcd3e"/>
    <circle id="Ellipse_12" data-name="Ellipse 12" cx="3.62" cy="3.62" r="3.62" transform="translate(1072.057 948.76)" fill="#5bcd3e"/>
  </g>
</svg>
