<?xml version="1.0" encoding="UTF-8"?>
<!-- Generator: Adobe Illustrator 26.0.3, SVG Export Plug-In . SVG Version: 6.00 Build 0)  -->
<svg xmlns="http://www.w3.org/2000/svg" xmlns:xlink="http://www.w3.org/1999/xlink" version="1.1" id="Ebene_1" x="0px" y="0px" width="96px" height="22px" viewBox="0 0 96 22" xml:space="preserve">
<g>
	<g>
		<path fill="#073654" d="M40.9,14c0,2.2,1.6,4,3.9,4s3.9-1.8,3.9-4s-1.6-4-3.9-4C42.6,10.1,40.9,11.8,40.9,14 M48.4,7h4v14.1h-4    v-1.8c-1.4,2-3.3,2.3-4.3,2.3c-4.3,0-7.2-3.4-7.2-7.5c0-4.2,2.8-7.5,7-7.5c1.1,0,3.2,0.2,4.5,2.3V7z"></path>
		<path fill="#073654" d="M57.6,0.5c1.3,0,2.4,1.1,2.4,2.4s-1.1,2.4-2.4,2.4c-1.3,0-2.4-1.1-2.4-2.4C55.2,1.6,56.3,0.5,57.6,0.5"></path>
	</g>
	<rect x="55.6" y="7" fill="#073654" width="4" height="14"></rect>
	<g>
		<path fill="#073654" d="M70.2,10.4c-0.9-0.9-1.9-0.9-2.3-0.9c-0.9,0-1.5,0.5-1.5,1.1c0,0.4,0.2,0.9,1.3,1.3l0.9,0.3    c1.1,0.4,2.8,0.9,3.6,2c0.4,0.6,0.7,1.4,0.7,2.3c0,1.3-0.4,2.5-1.6,3.6s-2.5,1.5-4.2,1.5c-2.9,0-4.6-1.4-5.5-2.3l2.1-2.4    c0.8,0.9,2,1.6,3.1,1.6s2-0.6,2-1.5s-0.7-1.2-1.2-1.4l-0.9-0.3c-1-0.4-2.2-0.8-3-1.7c-0.7-0.7-1.1-1.6-1.1-2.7    c0-1.4,0.7-2.5,1.5-3.2c1.1-0.9,2.6-1,3.7-1c1,0,2.7,0.1,4.5,1.5L70.2,10.4z"></path>
		<path fill="#073654" d="M77,0.5c1.3,0,2.4,1.1,2.4,2.4S78.3,5.3,77,5.3s-2.4-1.1-2.4-2.4S75.7,0.5,77,0.5"></path>
	</g>
	<rect x="75" y="7" fill="#073654" width="4" height="14"></rect>
	<g>
		<path fill="#073654" d="M82.2,7h4v1.8c0.8-1,2.1-2.3,4.4-2.3c1.2,0,3.1,0.4,4.2,1.7c1,1.2,1.1,2.6,1.1,4V21h-4v-7.7    c0-0.8,0-2-0.8-2.8c-0.6-0.6-1.5-0.7-1.9-0.7c-1,0-1.9,0.4-2.5,1.2c-0.6,0.9-0.6,1.9-0.6,2.7v7.2h-4L82.2,7L82.2,7z"></path>
	</g>
	<polygon fill="#073654" points="27.2,7 31.2,7 31.2,14.3 31.2,21.1 27.2,21.1  "></polygon>
	<g>
		<path fill="#073654" d="M33.9,6.6c1.3,0,2.4,1.1,2.4,2.4s-1.1,2.4-2.4,2.4c-1.3,0-2.4-1.1-2.4-2.4C31.5,7.6,32.6,6.6,33.9,6.6"></path>
	</g>
	
		<linearGradient id="SVGID_1_" gradientUnits="userSpaceOnUse" x1="3.4" y1="93.8" x2="18.125" y2="79.075" gradientTransform="matrix(1 0 0 1 0 -75.5)">
		<stop offset="0" style="stop-color:#156CC4"></stop>
		<stop offset="0.1554" style="stop-color:#1368BB"></stop>
		<stop offset="0.409" style="stop-color:#0F5CA3"></stop>
		<stop offset="0.727" style="stop-color:#07487B"></stop>
		<stop offset="1" style="stop-color:#003554"></stop>
	</linearGradient>
	<path fill="url(#SVGID_1_)" d="M10.7,0.5C4.9,0.5,0.2,5.2,0.2,11c0,2.2,0.7,4.2,1.8,5.9L7.9,11H3V7h7.7l0,0h4l0,0v4v2.1v5.6h-4   v-4.9l-2.5,2.5l-3.4,3.4c1.7,1.1,3.7,1.8,5.9,1.8c5.8,0,10.5-4.7,10.5-10.5S16.5,0.5,10.7,0.5z"></path>
</g>
</svg>
