<?xml version="1.0" encoding="UTF-8"?>
<!-- Generator: Adobe Illustrator 26.0.2, SVG Export Plug-In . SVG Version: 6.00 Build 0)  -->
<svg xmlns="http://www.w3.org/2000/svg" xmlns:xlink="http://www.w3.org/1999/xlink" version="1.1" id="Ebene_1" x="0px" y="0px" width="189.6px" height="28.5px" viewBox="0 0 189.6 28.5" style="enable-background:new 0 0 189.6 28.5;" xml:space="preserve">
<style type="text/css">
	.st0{fill:#ffbf00;stroke:#ffbf00;}
</style>
<g>
	<g>
		<polygon class="st0" points="14.9,1.2 19,9.8 28.5,11.1 21.6,17.7 23.3,27.2 14.9,22.8 6.3,27.2 8,17.7 1.2,11.1 10.6,9.8   "></polygon>
		<polygon class="st0" points="54.8,1.2 59.1,9.8 68.5,11.1 61.7,17.7 63.4,27.2 54.8,22.8 46.5,27.2 48.1,17.7 41.2,11.1 50.7,9.8       "></polygon>
		<polygon class="st0" points="94.8,1.2 99.1,9.8 108.4,11.1 101.5,17.7 103.2,27.2 94.8,22.8 86.2,27.2 87.9,17.7 81.1,11.1     90.5,9.8   "></polygon>
	</g>
	<g>
		<polygon class="st0" points="134.7,1.2 139,9.8 148.4,11.1 141.6,17.7 143.3,27.2 134.7,22.8 126.4,27.2 128,17.7 121.1,11.1     130.6,9.8   "></polygon>
		<polygon class="st0" points="174.7,1.2 179,9.8 188.3,11.1 181.4,17.7 183.1,27.2 174.7,22.8 166.1,27.2 167.8,17.7 161,11.1     170.4,9.8   "></polygon>
	</g>
</g>
</svg>
