<?xml version="1.0" encoding="utf-8"?>
<!-- Generator: Adobe Illustrator 23.0.1, SVG Export Plug-In . SVG Version: 6.00 Build 0)  -->
<svg version="1.1" id="Layer_1" xmlns="http://www.w3.org/2000/svg" xmlns:xlink="http://www.w3.org/1999/xlink" x="0px" y="0px"
	 viewBox="0 0 453.3 93.4" style="enable-background:new 0 0 453.3 93.4;" xml:space="preserve">
<style type="text/css">
	.st0{fill:#662483;}
</style>
<g>
	<g>
		<path class="st0" d="M46.7,5.2c22.9,0,41.5,18.6,41.5,41.5S69.6,88.2,46.7,88.2S5.2,69.6,5.2,46.7C5.2,23.8,23.8,5.2,46.7,5.2
			 M46.7,0C20.9,0,0,20.9,0,46.7s20.9,46.7,46.7,46.7s46.7-20.9,46.7-46.7S72.5,0,46.7,0"/>
		<path class="st0" d="M38.7,42.4c0-4.6-3.4-7.7-8.6-7.7h-8.7v23.9h4.5V50h3.5l5.2,8.6h5.3l-5.7-9.4C37.1,48,38.7,45.5,38.7,42.4
			 M29.8,46H26v-7.3h3.8c2.7,0,4.3,1.4,4.3,3.7C34.1,44.7,32.5,46,29.8,46 M44.8,58.7h4.6v-24h-4.6V58.7z M69.9,45.9
			c0.9-0.6,2.2-2.1,2.2-4.6c0-4.1-2.9-6.5-7.6-6.5h-8.9v23.9h10.5c4.8,0,8-2.8,8-7C74,48.8,72.6,46.9,69.9,45.9 M60.1,38.9H64
			c2.3,0,3.6,1,3.6,2.8c0,1.7-1.3,2.8-3.3,2.8h-4.1L60.1,38.9L60.1,38.9z M65.5,54.5H60v-6h5.2c1.9,0,4.1,0.5,4.1,3
			C69.4,53.4,68,54.5,65.5,54.5"/>
		<path class="st0" d="M66,58.9H55.3V34.5h9.1c4.9,0,7.8,2.5,7.8,6.7c0,2.4-1.1,3.8-2,4.6c2.6,1.1,3.9,3.1,3.9,5.9
			C74.2,56,70.9,58.9,66,58.9 M55.8,58.5h10.3c4.6,0,7.8-2.7,7.8-6.8c0-2.8-1.3-4.7-4-5.6L69.5,46l0.3-0.2c0.8-0.6,2.1-2,2.1-4.5
			c0-4-2.8-6.3-7.4-6.3h-8.7L55.8,58.5L55.8,58.5z M49.6,58.9h-5V34.5h5V58.9z M45,58.5h4.1V34.9H45V58.5z M40.4,58.9h-5.8l-5.2-8.6
			h-3.2v8.6h-4.9V34.5h8.9c5.2,0,8.8,3.2,8.8,7.9c0,3.1-1.6,5.6-4.3,6.9L40.4,58.9z M34.8,58.5h4.8L34,49.2l0.2-0.1
			c2.7-1.2,4.3-3.6,4.3-6.7c0-4.5-3.4-7.5-8.3-7.5h-8.5v23.5h4.1v-8.6h3.9L34.8,58.5z M65.5,54.7h-5.7v-6.5h5.4
			c2.8,0,4.3,1.1,4.3,3.2C69.6,53.5,68.1,54.7,65.5,54.7 M60.3,54.3h5.3c2.4,0,3.7-1,3.7-2.8c0-1.9-1.3-2.8-3.9-2.8h-5v5.6H60.3z
			 M29.8,46.2h-4v-7.7h4c2.8,0,4.5,1.4,4.5,3.9S32.6,46.2,29.8,46.2 M26.2,45.8h3.6c2.6,0,4.1-1.2,4.1-3.4c0-2.2-1.5-3.4-4.1-3.4
			h-3.6V45.8z M64.2,44.7h-4.3v-6H64c2.4,0,3.8,1.1,3.8,3C67.7,43.5,66.3,44.7,64.2,44.7 M60.3,44.3h3.9c1.9,0,3.1-1,3.1-2.6
			c0-2.1-1.8-2.6-3.4-2.6h-3.6V44.3z"/>
		<path class="st0" d="M255.8,71c1.5-2.1,3.8-3.6,7.1-3.6c4.7,0,7.4,3.6,7.4,9v12.1h-5V76.7c0-2.7-1.4-4.6-3.8-4.6
			c-2.1,0-3.6,1.4-4.6,2.9c0,0.3,0,0.7,0,0.9v12.5h-5V76.6c0-2.7-1.4-4.6-3.8-4.6c-2.1,0-3.5,1.4-4.6,2.9v13.5h-4.9V67.8h4.4
			l0.2,2.4c1.1-1.5,3.2-2.8,6.2-2.8C252.5,67.4,254.6,68.8,255.8,71"/>
		<path class="st0" d="M293.8,77.9v1.7h-14.6c0.1,3.3,2.1,5.1,5.5,5.1c2.4,0,4.2-1.1,5.1-2.4l3.4,2.8c-2,2.5-4.7,3.7-8.6,3.7
			c-6.4,0-10.5-4.5-10.5-10.7s4.2-10.8,10.1-10.8C290.7,67.4,293.8,72.1,293.8,77.9 M279.2,76.1h9.7c-0.1-2.8-1.8-4.8-4.7-4.8
			C281.3,71.3,279.4,73.2,279.2,76.1"/>
		<path class="st0" d="M316.5,76.4v12.1h-5V76.7c0-2.7-1.6-4.6-4.1-4.6c-2.2,0-3.6,1.4-4.7,2.9v13.5h-4.9V67.9h4.4l0.2,2.4
			c1.1-1.5,3.2-2.8,6.2-2.8C313.7,67.4,316.5,71,316.5,76.4"/>
		<path class="st0" d="M143.4,14.1c0,4.3-2.4,7.2-5.8,8.6l7.2,11.8h-6l-6.7-11H127v11h-5.1V4.7h10.8C138.7,4.7,143.4,8.1,143.4,14.1
			 M127.1,9.1v10h5.3c3.6,0,5.9-1.7,5.9-5c0-3.2-2.4-5-5.9-5H127.1z"/>
		<path class="st0" d="M166.4,24.1v1.7h-14.5c0.1,3.2,2.1,5,5.5,5c2.4,0,4.2-1.1,5.1-2.3l3.4,2.8c-2,2.4-4.7,3.7-8.5,3.7
			C151,35,147,30.5,147,24.4c0-6.2,4.2-10.7,10.1-10.7C163.3,13.7,166.4,18.4,166.4,24.1 M151.8,22.3h9.7c-0.1-2.8-1.8-4.7-4.7-4.7
			C154,17.6,152,19.5,151.8,22.3"/>
		<path class="st0" d="M202.1,7.5c0,1.7-1.3,3-3.1,3c-1.7,0-3-1.3-3-3c0-1.8,1.3-3,3-3C200.8,4.5,202.1,5.8,202.1,7.5 M201.5,34.5
			h-4.9V14.1h4.9V34.5z"/>
		<path class="st0" d="M227.4,24.3c0,6.1-4.5,10.6-10.7,10.6S206,30.4,206,24.3c0-6.2,4.5-10.7,10.7-10.7
			C222.8,13.7,227.4,18.2,227.4,24.3 M211,24.3c0,3.6,2.4,6.3,5.7,6.3c3.3,0,5.7-2.6,5.7-6.3c0-3.7-2.4-6.4-5.7-6.4
			C213.4,18,211,20.6,211,24.3"/>
		<path class="st0" d="M250.5,22.5v12h-4.9V22.8c0-2.7-1.6-4.6-4.1-4.6c-2.2,0-3.6,1.3-4.6,2.9v13.4H232V14.1h4.4l0.2,2.3
			c1.1-1.5,3.2-2.8,6.2-2.8C247.8,13.7,250.5,17.2,250.5,22.5"/>
		<rect x="281.3" y="4.7" class="st0" width="4.9" height="29.8"/>
		<path class="st0" d="M271,16.4l0.3-2.4h4.4v20.5h-4.4l-0.3-2.4c-1.1,1.5-3.2,2.8-6.3,2.8c-5.6,0-9.4-4.5-9.4-10.6
			c0-6.2,3.8-10.6,9.4-10.6C267.8,13.7,269.8,14.9,271,16.4 M260.3,24.3c0,3.8,2.3,6.3,5.5,6.3c2.4,0,3.9-1.3,5-3V21
			c-1.1-1.7-2.6-3-5-3C262.5,18,260.3,20.4,260.3,24.3"/>
		<path class="st0" d="M185.8,14.1l-0.3,2.4c-1.1-1.5-3.2-2.8-6.3-2.8c-5.5,0-9.3,4.4-9.3,10.5s3.8,10.6,9.3,10.6c3,0,5-1.2,6.1-2.5
			V34c0,3.6-2.3,6-6,6c-1.6,0-2.9-0.4-4-1.1l-2.1,4c1.7,0.9,3.7,1.5,6.2,1.5c6.5,0,10.8-3.9,10.8-10.4V14.1H185.8z M185.3,27.4
			c-1.1,1.7-2.6,3.1-5,3.1c-3.2,0-5.5-2.5-5.5-6.3s2.3-6.2,5.5-6.2c2.4,0,4,1.3,5,3.1V27.4z"/>
		<path class="st0" d="M376.4,66.1c0,3.1-1.7,5.2-3.3,6.1c3.2,1,5.8,3.1,5.8,7.4c0,5.5-4.3,8.6-9.9,8.6h-13.2v-30h11.1
			C373,58.1,376.4,61.2,376.4,66.1 M360.9,62.8v7.9h5.7c2.9,0,4.7-1.6,4.7-4c0-2.5-1.7-4-5-4L360.9,62.8L360.9,62.8z M360.9,75v8.5
			h7.4c3.3,0,5.4-1.5,5.4-4.3c0-2.7-2-4.2-5.7-4.2H360.9z"/>
		<path class="st0" d="M397.9,70l0.3-2.4h4.4v20.6h-4.4l-0.3-2.4c-1.1,1.6-3.2,2.8-6.4,2.8c-5.6,0-9.4-4.5-9.4-10.7
			s3.8-10.7,9.4-10.7C394.7,67.2,396.8,68.4,397.9,70 M387.2,77.9c0,3.9,2.3,6.4,5.5,6.4c2.5,0,3.9-1.3,5.1-3.1v-6.6
			c-1.1-1.8-2.6-3.1-5.1-3.1C389.4,71.5,387.2,74,387.2,77.9"/>
		<path class="st0" d="M427.8,76.1v12.1h-5V76.4c0-2.7-1.6-4.6-4.1-4.6c-2.2,0-3.7,1.3-4.7,2.9v13.5h-4.9V67.6h4.4l0.2,2.4
			c1.1-1.5,3.2-2.8,6.2-2.8C425,67.2,427.8,70.7,427.8,76.1"/>
		<polygon class="st0" points="438.6,79.6 446.6,67.6 452.5,67.6 446.2,76.4 453.3,88.2 447.6,88.2 443,80.5 437.5,88.2 433.6,88.2 
			433.6,58.1 438.6,58.1 		"/>
		<rect x="122.1" y="58.4" class="st0" width="5.1" height="30"/>
		<path class="st0" d="M152.6,76.4v12.1h-5V76.7c0-2.7-1.6-4.6-4.1-4.6c-2.2,0-3.7,1.4-4.7,2.9v13.5h-4.9V67.9h4.5l0.2,2.4
			c1.1-1.5,3.2-2.8,6.2-2.8C149.8,67.5,152.6,71,152.6,76.4"/>
		<polygon class="st0" points="165.7,88.9 165.5,88.9 154.5,67.9 160,67.9 165.6,79.3 171.1,67.9 176.6,67.9 		"/>
		<path class="st0" d="M197.1,78v1.7h-14.6c0.1,3.3,2.1,5.1,5.5,5.1c2.4,0,4.2-1.1,5.1-2.4l3.4,2.8c-2.1,2.5-4.8,3.7-8.6,3.7
			c-6.4,0-10.5-4.5-10.5-10.7s4.2-10.7,10.1-10.7C194,67.5,197.1,72.2,197.1,78 M182.5,76.2h9.8c-0.1-2.8-1.8-4.8-4.7-4.8
			C184.6,71.4,182.7,73.3,182.5,76.2"/>
		<path class="st0" d="M216.1,69.7l-2,3.6c-1.2-1-2.9-1.8-5.1-1.8c-2,0-3.3,0.6-3.3,2s1,1.8,4.1,2.5c4.6,1.1,6.8,3.1,6.8,6.2
			c0,4-3.3,6.6-8.7,6.6c-3.1,0-6.1-0.9-7.9-2.5l2.1-3.7c1.5,1.2,3.5,2.1,5.9,2.1c2.2,0,3.6-0.7,3.6-2.2c0-1.4-1-2-4-2.7
			c-4.7-1.1-6.8-2.7-6.8-6c0-4,3.1-6.5,8.2-6.5C211.9,67.5,214.5,68.4,216.1,69.7"/>
		<path class="st0" d="M227.6,67.9h6.2v4.2h-6.2v9.1c0,2.1,1.3,3.3,3.2,3.3c1.3,0,2.2-0.3,2.8-0.6l1.3,3.8c-1,0.7-2.6,1.2-4.6,1.2
			c-4.7,0-7.7-2.7-7.7-7.7V72h-3.9v-4.2h3.9v-8.3h4.9v8.4H227.6z"/>
		<path class="st0" d="M327.7,67.9h6.2v4.2h-6.2v9.1c0,2.1,1.3,3.3,3.2,3.3c1.3,0,2.2-0.3,2.8-0.6l1.3,3.8c-1,0.7-2.6,1.2-4.6,1.2
			c-4.7,0-7.7-2.7-7.7-7.7V72h-3.9v-4.2h3.9v-8.3h4.9v8.4H327.7z"/>
	</g>
</g>
</svg>
