<?xml version="1.0" encoding="utf-8"?>
<!-- Generator: Adobe Illustrator 24.1.2, SVG Export Plug-In . SVG Version: 6.00 Build 0)  -->
<svg version="1.1" id="Ebene_1" xmlns="http://www.w3.org/2000/svg" xmlns:xlink="http://www.w3.org/1999/xlink" x="0px" y="0px"
	 viewBox="0 0 224 72.1" style="enable-background:new 0 0 224 72.1;" xml:space="preserve">
<style type="text/css">
	.st0{fill:#B30838;}
	.st1{fill:#455560;}
</style>
<path class="st0" d="M60.3,5.4c-6.4-7.2-18.2-7.2-26.2,0L0,36l17.5,19.8l49-43.3L60.3,5.4z"/>
<path class="st0" d="M20.7,59.4l6.4,7.3c6.4,7.2,18.2,7.2,26.2,0L87.5,36L69.8,16L20.7,59.4z"/>
<path class="st1" d="M128.9,61.5l-16.6-24.1h-0.2v24.1h-10.7V10.5c5.1-2.1,10.5-3.1,16.1-3c14.6,0,21.7,6.2,21.7,16.1
	c0,8-6.4,13.5-15.7,14.1v0.2L141,61.5L128.9,61.5z M117.5,13.2c-1.8,0-3.7,0.3-5.4,0.9V35c1.3,0.3,2.7,0.4,4,0.4
	c8.4,0,12.5-4.1,12.5-11.2C128.6,16.7,125.5,13.2,117.5,13.2z"/>
<path class="st1" d="M159.4,62.2c-7,0-11.4-1.2-14.5-3l2.6-6.9c3,1.7,6.4,2.5,9.8,2.5c5.8,0,9.4-3.2,9.4-8.2c0-4-2.6-6.5-9.1-9
	c-9.5-3.6-12.1-9.3-12.1-14.5c0-8.4,6.7-15.6,17.6-15.6c5.9,0,10.2,1.3,12.9,3l-2.4,6c-2.8-1.5-5.9-2.4-9.1-2.4
	c-5.4,0-8.5,3-8.5,7.7s3.8,6.8,8.9,8.7c11.5,4.5,13.2,10.3,13.2,15.4C178.2,55.5,170.3,62.2,159.4,62.2z"/>
<path class="st1" d="M201.6,62.2c-7.4,0-13.4-1.1-17.4-3V10.5c3.6-1.8,9.6-3,16.7-3c14.2,0,21.2,5.9,21.2,13.8
	c0,7.3-6,11.1-10.9,12.1v0.2c5.4,1.1,12.9,5.7,12.9,13.4C224,57.5,215,62.2,201.6,62.2z M200.9,13.1c-2.2,0-4.4,0.3-6.5,0.9v17.2
	l3.3,0.1c10.4,0.2,13.9-3,13.9-9.4C211.6,16,208,13.1,200.9,13.1z M197.7,36.1l-3.3,0.1v19c2.2,0.8,4.5,1.1,6.8,1c7,0,12-2.6,12-9.4
	C213.2,39.5,208.8,35.8,197.7,36.1L197.7,36.1z"/>
</svg>
