<?xml version="1.0" encoding="utf-8"?>
<!-- Generator: Adobe Illustrator 23.0.3, SVG Export Plug-In . SVG Version: 6.00 Build 0)  -->
<svg version="1.1" id="Layer_1" xmlns="http://www.w3.org/2000/svg" xmlns:xlink="http://www.w3.org/1999/xlink" x="0px" y="0px"
	 viewBox="0 0 80 80" style="enable-background:new 0 0 80 80;" xml:space="preserve">
<style type="text/css">
	.st0{fill:none;}
	.st1{fill:#0082CA;}
	.st2{fill:#FFFFFF;}
</style>
<rect x="1.45" y="1.68" class="st0" width="76.96" height="75.86"/>
<rect y="0.08" class="st1" width="80" height="79.92"/>
<path class="st2" d="M66.85,44.79c0,0-1.43,0.38-3.87,0.38h-0.21c-2.93-0.03-5.96-0.57-9.01-1.61l-1.06-0.37
	c-6.88-2.36-10.33-3.54-13.93-4.04l-0.01-0.01c-0.12-0.03-0.22-0.14-0.22-0.28c0-0.13,0.08-0.24,0.22-0.27l0.01,0
	c3.32-0.53,9.15-1.99,10.86-5.9c0.45-1.03,0.44-1.88-0.02-2.52c-0.65-0.9-2.2-1.38-4.46-1.38l-0.22,0
	c-4.26,0.06-10.11,1.78-13.31,3.92c-5.28,3.54-7.64,7.72-7.64,10.32c0,2.68,2.89,3.63,3.01,3.66l0.02,0
	c0.01-0.07,1.03-7.15,5.06-11.64c2.57-2.86,6.37-4.73,9.67-4.77h0.1c1.16,0,2.17,0.23,3.03,0.68c0.88,0.46,1.26,1.18,1.09,2.02
	c-0.46,2.2-4.69,5-11.65,5.84l-0.06,0.01c-0.13,0.02-0.19,0.08-0.21,0.18c-0.02,0.15,0.21,0.22,0.21,0.22
	c2.84,0.81,5.87,2.18,9.09,3.64c5,2.26,10.16,4.6,15.04,4.99c-4.13,4.27-11.35,6.97-19.35,6.71c-11.8-0.38-20.94-7.1-20.94-15.03
	c0-7.93,9.14-14.65,20.94-15.03C51.44,24.11,62,30.83,62,39.54c0,0.87-0.11,1.71-0.31,2.54c0.7-0.06,2.03-0.37,2.38-1.87
	c0.01-0.22,0.03-0.45,0.03-0.66c0-10.71-11.56-18.94-25.09-18.41c-12.79,0.5-22.67,8.73-22.67,18.41c0,9.68,9.87,17.91,22.67,18.41
	c9.75,0.38,18.48-3.79,22.58-10.16c4.24-0.54,5.26-2.86,5.31-2.97l0.02-0.04L66.85,44.79z"/>
</svg>
