<svg id="Ebene_1" data-name="Ebene 1" xmlns="http://www.w3.org/2000/svg" xmlns:xlink="http://www.w3.org/1999/xlink" viewBox="0 0 713 508"><defs><style>.cls-1{fill:none;}.cls-2{clip-path:url(#clip-path);}.cls-3{fill:#b4733a;}</style><clipPath id="clip-path" transform="translate(-90.88 -47)"><rect class="cls-1" x="91" y="47" width="712.88" height="508"/></clipPath></defs><title>Signet_Bank_Logo</title><g class="cls-2"><path class="cls-3" d="M688.62,265.5v13.25h50.56v97h14v-97h50.72V265.5ZM582.21,326.43h75.92V312.88H582.21v-34h88.52V265.5H568.23V375.75h104V362.2h-90Zm-182.45,20,.27-.61V317H335v13.41h51v11.9c-7.07,14.61-24.05,23-46.7,23-32.88,0-51.73-16.29-51.73-44.69s18.69-44.7,51.29-44.7c19.44,0,33.91,6.13,43,18.21l1.8,2.4,11.87-8.19-2-2.62c-11.83-15.28-30.73-23.35-54.68-23.35-40.35,0-65.41,22.32-65.41,58.25s25.17,58.24,65.71,58.24c28.54,0,51.73-12.44,60.55-32.47M154.85,312.45c-26.87-2.46-44.77-6.38-44.77-17.53,0-12.33,20.68-19,40.14-19h.61c18.85.15,33.06,5.21,42.22,15.05l2,2.16,11-9.13-2.4-2.42c-12.2-12.39-31.06-19.21-53.09-19.21-37.62,0-54.75,16.95-54.75,32.7,0,22.74,29.82,28.46,55.78,30.9,33.14,3.13,44.33,7.71,44.33,18.12,0,12.89-16.24,21.22-41.36,21.22-22.41,0-39.69-6.55-51.36-19.47L101,343.44l-10.14,9.89,2.05,2.24c13.79,15,35.57,23.3,61.33,23.3,33.89,0,55.78-13.82,55.78-35.22,0-23.23-26.54-28.73-55.19-31.2m79.46,63.3h14V265.5h-14ZM425.59,265.5V375.75h13.82V286.09l88.24,89.66h11.26V265.5H525.09v88l-86.47-88Z" transform="translate(-90.88 -47)"/></g><path class="cls-3" d="M349.62,485.12H336v-10h13.64c4.1,0,6.77,1.39,6.77,5s-2.67,5-6.77,5M350,471H331.2v27.9H336v-9.64h14c6.76,0,11.26-3.27,11.26-9.13S356.78,471,350,471" transform="translate(-90.88 -47)"/><rect class="cls-3" x="321.06" y="423.97" width="4.77" height="27.91"/><polygon class="cls-3" points="405.83 428.16 418.44 428.16 418.44 451.87 423.21 451.87 423.21 428.16 435.91 428.16 435.91 423.97 405.83 423.97 405.83 428.16"/><polygon class="cls-3" points="449.67 447.69 449.67 439.8 468.69 439.8 468.69 435.61 449.67 435.61 449.67 428.16 472.27 428.16 472.27 423.97 444.94 423.97 444.94 451.88 472.68 451.88 472.68 447.69 449.67 447.69"/><path class="cls-3" d="M390.34,551H376v-8.3h14.38c4.17,0,6.68,1,6.68,4.14s-2.51,4.16-6.68,4.16M376,531.09h13.38c3.74,0,6.24.79,6.24,3.86s-2.5,3.9-6.24,3.9H376Zm18.31,9.44a6.06,6.06,0,0,0,6.05-6.34c0-4.58-4.1-7.09-10.22-7.09H371.27V555h20c6.57,0,10.66-2.63,10.66-7.65,0-4.55-3.3-6.54-7.64-6.82" transform="translate(-90.88 -47)"/><polygon class="cls-3" points="433.83 480.1 427.38 480.1 408.45 495.4 408.45 480.1 403.67 480.1 403.67 508 408.45 508 408.45 500.63 416.76 493.89 428.82 508 434.67 508 420.39 491.1 433.83 480.1"/><path class="cls-3" d="M375.73,484.64v-9.48h13.88c4,0,6.7,1.27,6.7,4.74s-2.71,4.74-6.7,4.74Zm25.46-4.78c0-5.78-4.77-8.89-11.26-8.89H371v27.91h4.78V488.75H387.5l8.65,10.13H402l-9-10.37c4.86-.88,8.19-3.83,8.19-8.65" transform="translate(-90.88 -47)"/><path class="cls-3" d="M471.52,488.07l6.81-12.91,6.8,12.91ZM481,471h-5.25l-15.08,27.91h5.17l3.54-6.74h17.87l3.58,6.74H496Z" transform="translate(-90.88 -47)"/><path class="cls-3" d="M418.43,544.2l6.81-12.91L432,544.2Zm4.21-17.1L407.56,555h5.17l3.55-6.74h17.87l3.57,6.74h5.22l-15-27.9Z" transform="translate(-90.88 -47)"/><polygon class="cls-3" points="363.14 423.97 351.4 446.97 339.65 423.97 334.37 423.97 348.81 451.88 353.9 451.88 368.36 423.97 363.14 423.97"/><polygon class="cls-3" points="386.6 501.26 365.75 480.1 360.65 480.1 360.65 508 365.27 508 365.27 486 387.03 508 391.26 508 391.26 480.1 386.6 480.1 386.6 501.26"/><polygon class="cls-3" points="334.7 218.5 334.7 328.75 348.53 328.75 348.53 239.09 436.77 328.75 448.03 328.75 448.03 218.5 434.21 218.5 434.21 306.51 347.75 218.5 334.7 218.5"/><polygon class="cls-3" points="334.7 218.5 334.7 328.75 348.53 328.75 348.53 239.09 436.77 328.75 448.03 328.75 448.03 218.5 434.21 218.5 434.21 306.51 347.75 218.5 334.7 218.5"/><g class="cls-2"><rect class="cls-3" x="405.76" width="13.6" height="121.96"/><path class="cls-3" d="M412.55,169h13.6V135.9h0a21.19,21.19,0,1,1,42.37,0h0v32.93h13.6V74H468.6v34.22a34.82,34.82,0,0,0-14.42-6.58V47h-13.6v54.68a34.86,34.86,0,0,0-14.43,6.58V74.16h-13.6v56.41h0Z" transform="translate(-90.88 -47)"/></g><rect class="cls-3" x="293.64" width="13.61" height="121.96"/></svg>