<?xml version="1.0" encoding="utf-8"?>
<!-- Generator: Adobe Illustrator 24.0.2, SVG Export Plug-In . SVG Version: 6.00 Build 0)  -->
<svg version="1.1" id="Layer_1" xmlns="http://www.w3.org/2000/svg" xmlns:xlink="http://www.w3.org/1999/xlink" x="0px" y="0px"
	 viewBox="0 0 574.8 82.9" style="enable-background:new 0 0 574.8 82.9;" xml:space="preserve">
<style type="text/css">
	.st0{fill-rule:evenodd;clip-rule:evenodd;fill:#7154D6;}
	.st1{fill:url(#SVGID_1_);}
</style>
<path class="st0" d="M534,14L534,14h40.9V0h-57.4v14H534L534,14z M525.1,62.3c5.3,0,9.5,4.3,9.5,9.5c0,5.3-4.3,9.5-9.5,9.5
	c-5.3,0-9.5-4.3-9.5-9.5C515.5,66.5,519.8,62.3,525.1,62.3L525.1,62.3L525.1,62.3z M531.7,45.9L531.7,45.9h20.8v-14h-20.8h-14.2v14
	H531.7L531.7,45.9z"/>
<linearGradient id="SVGID_1_" gradientUnits="userSpaceOnUse" x1="0" y1="42.0574" x2="504.8331" y2="42.0574">
	<stop  offset="0.1938" style="stop-color:#00AFEF"/>
	<stop  offset="0.6556" style="stop-color:#7154D6"/>
</linearGradient>
<path class="st1" d="M27.1,82.9c16.2,0,27.1-7.7,27.1-19.3c0-10.3-6.7-15.2-25.7-19.1c-8.2-1.9-11-3.4-11-5.8c0-3.4,3.9-5.7,9.6-5.7
	c5.1,0,9.8,2.7,11.6,6.7l12.8-3.2c-3.4-9.1-13.2-15.2-24.4-15.2C13,21.3,3.5,28.5,3.5,39.4c0,9.2,5.7,13.7,22.3,17.4
	c10.6,2.1,14.4,3.9,14.4,6.9c0,4.6-5.3,7.6-13.1,7.6c-7.8,0-13.4-4-13.9-9.8H0C0.5,74.3,11.3,82.9,27.1,82.9L27.1,82.9z M63.6,81.3
	h14V41.9c0-4.9,4.3-8.3,10.6-8.3s10.6,3.4,10.6,8.3v39.3h14V41.9c0-4.9,4.3-8.3,10.6-8.3c6.3,0,10.6,3.4,10.6,8.3v39.3h14V40.5
	c0-11.6-9.3-19.3-23.2-19.3c-6.4,0-13.4,2.8-17.5,7c-4-4.2-10.2-7-15.5-7c-5.3,0-11,2.8-14.2,6.9v-5.3h-14V81.3L63.6,81.3z
	 M188.7,82.9c14.2,0,26.4-8.6,30.2-21.5h-14.2c-2.7,5.8-9.1,9.8-16,9.8c-9.1,0-16.1-6.2-17.4-15.3h47.9l1.2-1.2v-2.7
	c0-18.4-12.7-30.8-31.6-30.8c-18.9,0-31.6,12.4-31.6,30.8C157.1,70.5,169.8,82.9,188.7,82.9L188.7,82.9z M172.2,44.3
	c2.6-6.8,9.1-11.3,16.5-11.3c7.4,0,13.9,4.6,16.5,11.3H172.2L172.2,44.3z M230.8,81.3h42.5c16.3,0,26.8-9,26.8-22.5
	c0-8.6-4.9-16.7-13.3-20.3c4.7-3.9,7-10.2,7-15.6c0-13-10-21.6-25.7-21.6h-37.2V81.3L230.8,81.3z M245.9,33.6V14.8h22.2
	c6.3,0,10.6,4,10.6,9.4c0,5.4-4.3,9.4-10.6,9.4H245.9L245.9,33.6z M245.9,67.8V47h27.5c6.9,0,11.6,4.3,11.6,10.3
	c0,6-4.7,10.5-11.7,10.5H245.9L245.9,67.8z M336.8,82.9c6.9,0,14.5-3.2,18.9-7.9v6.3h14V22.9h-14v6.3c-4.4-4.8-12-7.9-18.9-7.9
	c-18.2,0-30.3,12.4-30.3,30.8C306.5,70.5,318.6,82.9,336.8,82.9L336.8,82.9z M338.2,70.5c-10.6,0-17.7-7.4-17.7-18.4
	c0-11.1,7.1-18.4,17.7-18.4c10.5,0,17.5,7.4,17.5,18.4C355.7,63.2,348.7,70.5,338.2,70.5L338.2,70.5z M381,81.3h14V46.6
	c0-7.7,5.7-13,14.2-13c8.5,0,14.2,5.3,14.2,13v34.7h14V45c0-14.2-10.7-23.7-26.6-23.7c-5.7,0-12.1,2.3-15.9,6v-4.3h-14V81.3
	L381,81.3z M448.7,81.3h14V61.5l4.6-4.6l19.6,24.3h18l-27.5-34.1L502,22.9h-19.6l-19.7,19.8V1.2h-14V81.3L448.7,81.3z"/>
</svg>
