<svg xmlns="http://www.w3.org/2000/svg" width="32.564" height="29.85" viewBox="0 0 32.564 29.85">
  <g id="Group_63" data-name="Group 63" transform="translate(-120.906 -69.998)">
    <path id="Path_759" data-name="Path 759" d="M238.25,74.369a14.923,14.923,0,0,0-21.106,0,.9.9,0,0,0,1.279,1.279,13.116,13.116,0,1,1,0,18.549.9.9,0,0,0-1.279,1.279A14.925,14.925,0,1,0,238.251,74.37Z" transform="translate(-89.152)" fill="#039244"/>
    <path id="Path_760" data-name="Path 760" d="M357.268,128.02a.9.9,0,0,0-.9.9v9.9a.9.9,0,0,0,.265.64l4.949,4.949h0a.9.9,0,0,0,1.279-1.279l-4.684-4.683v-9.522a.9.9,0,0,0-.9-.9Z" transform="translate(-218.723 -53.899)" fill="#039244"/>
    <path id="Path_761" data-name="Path 761" d="M132.665,268.178a.9.9,0,0,0-.9-.9h-9.95a.9.9,0,1,0,0,1.809h9.95a.9.9,0,0,0,.9-.9Z" transform="translate(0 -183.255)" fill="#039244"/>
    <path id="Path_762" data-name="Path 762" d="M172.725,192.715h6.332a.9.9,0,0,0,0-1.809h-6.332a.9.9,0,1,0,0,1.809Z" transform="translate(-47.296 -112.315)" fill="#039244"/>
    <path id="Path_763" data-name="Path 763" d="M179.954,344.538a.9.9,0,0,0-.9-.9h-6.332a.9.9,0,1,0,0,1.809h6.332a.9.9,0,0,0,.9-.9Z" transform="translate(-47.289 -254.188)" fill="#039244"/>
  </g>
</svg>
