<svg xmlns="http://www.w3.org/2000/svg" width="65.997" height="66.109" viewBox="0 0 65.997 66.109">
  <g id="Group_32" data-name="Group 32" transform="translate(-89.352 -18.494)">
    <path id="Path_13" data-name="Path 13" d="M90.658,476.758h63.384A1.056,1.056,0,0,0,155.1,475.7v-7.043a1.056,1.056,0,0,0-1.056-1.056H90.658a1.056,1.056,0,0,0-1.056,1.056V475.7A1.056,1.056,0,0,0,90.658,476.758Zm1.056-7.043h61.271v4.93H91.714Z" transform="translate(0 -392.406)" fill="#039244" stroke="#fff" stroke-width="0.5"/>
    <path id="Path_14" data-name="Path 14" d="M103.094,63.655a1.071,1.071,0,0,0,.986.873h.07v8.2a1.056,1.056,0,0,0,1.056,1.056h14.085a1.056,1.056,0,0,0,1.056-1.056V63.577c1.486-.253,3.007-.556,4.55-.937l.38-.106v10.2a1.056,1.056,0,0,0,1.056,1.056H140.42a1.056,1.056,0,0,0,1.056-1.056V54.576a25.211,25.211,0,0,0,4.93-5.888V72.732a1.056,1.056,0,0,0,1.056,1.056h14.085a1.056,1.056,0,0,0,1.056-1.056V34a1.056,1.056,0,0,0-1.056-1.056h-7.515l-5.986-13.557a1.069,1.069,0,0,0-.7-.606,1.049,1.049,0,0,0-.915.211l-18.051,14.7a1.057,1.057,0,0,0,.394,1.838l6.486,1.725c-5.592,18.579-31.763,20.114-32.037,20.128a1.034,1.034,0,0,0-.767.394,1.065,1.065,0,0,0-.219.873Zm15.142,8.022H106.263V64.634h1.591a77.24,77.24,0,0,0,10.381-.7Zm21.128,0H127.391V61.985a38.915,38.915,0,0,0,11.973-5.726Zm21.128-36.622V71.676H148.519V44.21h0a25.62,25.62,0,0,0,.965-3.317l6.972,1.746a1.042,1.042,0,0,0,1.064-.345,1.057,1.057,0,0,0,.162-1.106l-2.719-6.134ZM137.6,36.765a1.056,1.056,0,0,0-.754-1.282L131.321,34,146.674,21.5l8.2,18.579-5.958-1.493a1.064,1.064,0,0,0-1.3.845c-4.113,23.572-36.939,23.241-42.559,23.03l-.557-3.078c5.514-.577,28.39-4.071,33.1-22.621Z" transform="translate(-11.027)" fill="#039244" stroke="#fff" stroke-width="0.5"/>
    <path id="Path_15" data-name="Path 15" d="M353.109,188.258a1.019,1.019,0,0,0,.634-.211c8.789-6.648,10.283-14.367,10.346-14.7a1.056,1.056,0,0,0-2.078-.38c0,.078-1.444,7.275-9.543,13.381h0a1.057,1.057,0,0,0-.2,1.479,1.041,1.041,0,0,0,.845.429Z" transform="translate(-229.442 -134.091)" fill="#039244" stroke="#fff" stroke-width="0.5"/>
  </g>
</svg>
