<?xml version="1.0" encoding="UTF-8"?>
<svg xmlns="http://www.w3.org/2000/svg" xmlns:xlink="http://www.w3.org/1999/xlink" id="Ebene_1" data-name="Ebene 1" viewBox="0 0 700 244">
  <defs>
    <style>.cls-1,.cls-4,.cls-5,.cls-8{fill:none;}.cls-2{fill:#fff;}.cls-3{fill:#333;}.cls-4{stroke:#bababa;stroke-width:0.75px;}.cls-4,.cls-5,.cls-8{stroke-miterlimit:10;}.cls-5{stroke:#f18700;}.cls-5,.cls-8{stroke-width:0.63px;}.cls-6{fill:#f18700;}.cls-7{fill:#005090;}.cls-8{stroke:#005090;}.cls-9{fill:url(#Unbenannter_Verlauf);}.cls-10{clip-path:url(#clip-path);}.cls-11{fill:url(#Unbenannter_Verlauf_3);}.cls-12{clip-path:url(#clip-path-2);}.cls-13{fill:url(#Unbenannter_Verlauf_5);}.cls-14{clip-path:url(#clip-path-3);}.cls-15{fill:url(#Unbenannter_Verlauf_6);}.cls-16{fill:url(#Unbenannter_Verlauf_7);}.cls-17{clip-path:url(#clip-path-4);}.cls-18{fill:url(#Unbenannter_Verlauf_9);}.cls-19{clip-path:url(#clip-path-5);}.cls-20{clip-path:url(#clip-path-6);}.cls-21{fill:url(#Unbenannter_Verlauf_11);}.cls-22{clip-path:url(#clip-path-7);}.cls-23{fill:url(#Unbenannter_Verlauf_12);}.cls-24{clip-path:url(#clip-path-8);}.cls-25{fill:url(#Unbenannter_Verlauf_13);}.cls-26{clip-path:url(#clip-path-9);}.cls-27{fill:url(#Unbenannter_Verlauf_14);}.cls-28{clip-path:url(#clip-path-10);}.cls-29{fill:url(#Unbenannter_Verlauf_15);}</style>
    <linearGradient id="Unbenannter_Verlauf" x1="72.64" y1="108.08" x2="183.91" y2="108.08" gradientTransform="matrix(1, 0, 0, -1, 0, 222)" gradientUnits="userSpaceOnUse">
      <stop offset="0" stop-color="#f6be00"></stop>
      <stop offset="1" stop-color="#f18700"></stop>
    </linearGradient>
    <clipPath id="clip-path">
      <polygon class="cls-1" points="179.29 106.53 72.64 106.53 72.64 121.31 179.29 121.31 183.91 113.92 179.29 106.53"></polygon>
    </clipPath>
    <linearGradient id="Unbenannter_Verlauf_3" x1="72.64" y1="78.37" x2="242.22" y2="78.37" xlink:href="#Unbenannter_Verlauf"></linearGradient>
    <clipPath id="clip-path-2">
      <polygon class="cls-1" points="237.6 136.24 72.64 136.24 72.64 151.02 237.6 151.02 242.22 143.37 237.6 136.24"></polygon>
    </clipPath>
    <linearGradient id="Unbenannter_Verlauf_5" x1="72.64" y1="137.78" x2="128.43" y2="137.78" xlink:href="#Unbenannter_Verlauf"></linearGradient>
    <clipPath id="clip-path-3">
      <polygon class="cls-1" points="123.82 76.83 72.64 76.83 72.64 91.61 123.82 91.61 128.43 84.11 123.82 76.83"></polygon>
    </clipPath>
    <linearGradient id="Unbenannter_Verlauf_6" x1="72.64" y1="137.79" x2="128.43" y2="137.79" xlink:href="#Unbenannter_Verlauf"></linearGradient>
    <linearGradient id="Unbenannter_Verlauf_7" x1="72.64" y1="18.6" x2="353.32" y2="18.6" xlink:href="#Unbenannter_Verlauf"></linearGradient>
    <clipPath id="clip-path-4">
      <polygon class="cls-1" points="348.71 196.01 72.64 196.01 72.64 210.79 348.71 210.79 353.32 203.4 348.71 196.01"></polygon>
    </clipPath>
    <linearGradient id="Unbenannter_Verlauf_9" x1="72.64" y1="48.31" x2="296.24" y2="48.31" xlink:href="#Unbenannter_Verlauf"></linearGradient>
    <clipPath id="clip-path-5">
      <polygon class="cls-1" points="291.62 166.3 72.64 166.3 72.64 181.08 291.62 181.08 296.24 173.69 291.62 166.3"></polygon>
    </clipPath>
    <clipPath id="clip-path-6">
      <polygon class="cls-1" points="301.96 181.08 581.82 181.08 586.44 173.69 581.82 166.3 301.96 166.3 301.96 181.08"></polygon>
    </clipPath>
    <linearGradient id="Unbenannter_Verlauf_11" x1="-1622.61" y1="451.03" x2="-1621.42" y2="451.03" gradientTransform="translate(-389334.65 108556.87) rotate(180) scale(240.3)" gradientUnits="userSpaceOnUse">
      <stop offset="0" stop-color="#006bad"></stop>
      <stop offset="0.97" stop-color="#005090"></stop>
      <stop offset="1" stop-color="#005090"></stop>
    </linearGradient>
    <clipPath id="clip-path-7">
      <polygon class="cls-1" points="246.31 151.37 526.72 151.37 531.34 143.37 526.72 136.59 246.31 136.59 246.31 151.37"></polygon>
    </clipPath>
    <linearGradient id="Unbenannter_Verlauf_12" x1="-1620.12" y1="451.56" x2="-1619.52" y2="451.56" gradientTransform="translate(-763943.98 213217.57) rotate(180) scale(471.86)" xlink:href="#Unbenannter_Verlauf_11"></linearGradient>
    <clipPath id="clip-path-8">
      <polygon class="cls-1" points="357.26 210.79 638.18 210.79 642.8 203.4 638.18 196.01 357.26 196.01 357.26 210.79"></polygon>
    </clipPath>
    <linearGradient id="Unbenannter_Verlauf_13" x1="-1627.63" y1="449.46" x2="-1625.25" y2="449.46" gradientTransform="translate(-195531.71 54358.42) rotate(180) scale(120.49)" xlink:href="#Unbenannter_Verlauf_11"></linearGradient>
    <clipPath id="clip-path-9">
      <polygon class="cls-1" points="132.52 91.61 413.1 91.61 417.71 84.11 413.1 76.83 132.52 76.83 132.52 91.61"></polygon>
    </clipPath>
    <linearGradient id="Unbenannter_Verlauf_14" x1="-1621.91" y1="451.41" x2="-1620.72" y2="451.41" xlink:href="#Unbenannter_Verlauf_11"></linearGradient>
    <clipPath id="clip-path-10">
      <polygon class="cls-1" points="188.17 121.31 468.74 121.31 473.36 114.31 468.74 106.53 188.17 106.53 188.17 121.31"></polygon>
    </clipPath>
    <linearGradient id="Unbenannter_Verlauf_15" x1="-1626.23" y1="450.2" x2="-1623.84" y2="450.2" gradientTransform="translate(-195531.71 54358.42) rotate(180) scale(120.49)" xlink:href="#Unbenannter_Verlauf_11"></linearGradient>
  </defs>
  <path class="cls-2" d="M595.3,63.31l5.2-6.83h-6.82V55h9.92v1.1l-5.23,7.21Z"></path>
  <path class="cls-2" d="M610,58a6.43,6.43,0,0,1,3.19.68,2,2,0,0,1,1.19,1.86A2.34,2.34,0,0,1,613,62.67a9,9,0,0,1-4.09.76,12.67,12.67,0,0,1-3.73-.45V61.46a10.53,10.53,0,0,0,1.75.39,11.82,11.82,0,0,0,1.88.15c1.78,0,2.68-.44,2.68-1.32s-.93-1.26-2.78-1.26a7.2,7.2,0,0,0-1.1.06c-.4.06-.74.08-1,.13l-1.16-.38L606,55h7.5v1.49h-4.94l-.25,1.63h.33A10.26,10.26,0,0,1,610,58Z"></path>
  <path class="cls-2" d="M625.59,56.34a4,4,0,0,0-1.9.4,1.89,1.89,0,0,0-1,1.16h3.82v1h-4v.65h3.36v1h-3.2c.32.93,1.34,1.39,3,1.39a10.35,10.35,0,0,0,2.6-.33v1.46a9.61,9.61,0,0,1-2.77.34,8.34,8.34,0,0,1-3.81-.76,3.45,3.45,0,0,1-1.89-2.1h-1.29v-1h1.11a2,2,0,0,1,0-.35v-.3h-1.09v-1h1.25a3.41,3.41,0,0,1,1.89-2.17,8.17,8.17,0,0,1,3.83-.8,11.35,11.35,0,0,1,3.33.46L628,56.71c-.43-.11-.84-.21-1.22-.27A6.75,6.75,0,0,0,625.59,56.34Z"></path>
  <line class="cls-1" x1="282.89" y1="179.62" x2="283.46" y2="179.65"></line>
  <path class="cls-3" d="M133.39,26.94h-.57V20.7a15.14,15.14,0,0,1,.07-1.76l-.19.17c-.06,0-.66.53-1.81,1.42l-.33-.42,2.33-1.74h.5Z"></path>
  <path class="cls-3" d="M193.24,26.94h-5.36v-.52l2.28-2.37a15,15,0,0,0,1.34-1.53,3.81,3.81,0,0,0,.57-1,2.85,2.85,0,0,0,.18-1,1.64,1.64,0,0,0-.5-1.25,1.82,1.82,0,0,0-1.31-.48,3.22,3.22,0,0,0-2.05.78l-.31-.41a3.57,3.57,0,0,1,2.37-.9,2.48,2.48,0,0,1,1.77.6,2.15,2.15,0,0,1,.64,1.65,3.49,3.49,0,0,1-.43,1.64,10.16,10.16,0,0,1-1.58,2l-2.19,2.25h4.58Z"></path>
  <path class="cls-3" d="M249.36,20.39a1.84,1.84,0,0,1-.5,1.34,2.33,2.33,0,0,1-1.34.7h0a2.7,2.7,0,0,1,1.57.66,1.88,1.88,0,0,1,.54,1.42,2.22,2.22,0,0,1-.82,1.86,3.63,3.63,0,0,1-2.35.66,5,5,0,0,1-2.28-.49V26a4.86,4.86,0,0,0,1.1.41,5.66,5.66,0,0,0,1.16.14,3,3,0,0,0,1.94-.52,1.79,1.79,0,0,0,.65-1.48,1.51,1.51,0,0,0-.66-1.31,3.5,3.5,0,0,0-2-.46h-.92v-.56h.93a2.63,2.63,0,0,0,1.69-.5,1.68,1.68,0,0,0,.63-1.38,1.39,1.39,0,0,0-.51-1.14,2,2,0,0,0-1.33-.44,3.8,3.8,0,0,0-1.16.18,5.85,5.85,0,0,0-1.19.62l-.28-.4a4,4,0,0,1,1.2-.66,4.32,4.32,0,0,1,1.42-.24,2.73,2.73,0,0,1,1.83.56A2,2,0,0,1,249.36,20.39Z"></path>
  <path class="cls-3" d="M308.13,24.75h-1.47v2.19h-.55V24.75H301.7v-.39l4.25-6h.71v5.92h1.47Zm-2-.5V21.8c0-1.18,0-2.17.08-3h0c-.08.15-.32.51-.72,1.1l-3,4.32Z"></path>
  <path class="cls-3" d="M359.3,21.79a3.28,3.28,0,0,1,2.16.66,2.25,2.25,0,0,1,.79,1.82,2.66,2.66,0,0,1-.82,2.06,3.38,3.38,0,0,1-2.27.73,5.47,5.47,0,0,1-1.21-.13,3,3,0,0,1-1-.36V26a7.28,7.28,0,0,0,1.12.45,4.63,4.63,0,0,0,1.05.12A2.7,2.7,0,0,0,361,26a2.09,2.09,0,0,0,.68-1.61,1.84,1.84,0,0,0-.66-1.5,2.77,2.77,0,0,0-1.8-.55,6.19,6.19,0,0,0-1.6.23l-.35-.23.34-3.92h4.13V19h-3.58l-.26,3A9.44,9.44,0,0,1,359.3,21.79Z"></path>
  <path class="cls-3" d="M416.45,23.29a7.67,7.67,0,0,1,.45-2.81,3.28,3.28,0,0,1,3.31-2.24,3.39,3.39,0,0,1,1,.13v.52a2.83,2.83,0,0,0-1-.16,2.68,2.68,0,0,0-2.25,1,5.43,5.43,0,0,0-.91,3h.08a3.21,3.21,0,0,1,1-.87,2.7,2.7,0,0,1,1.21-.29,2.5,2.5,0,0,1,1.88.69,2.57,2.57,0,0,1,.68,1.89,2.94,2.94,0,0,1-.71,2.07,2.55,2.55,0,0,1-1.92.76,2.45,2.45,0,0,1-2.06-1A4.51,4.51,0,0,1,416.45,23.29Zm2.81,3.25a1.9,1.9,0,0,0,1.49-.6,2.54,2.54,0,0,0,.53-1.72,2.11,2.11,0,0,0-.52-1.54,1.88,1.88,0,0,0-1.44-.55,2.48,2.48,0,0,0-1.11.26,2.51,2.51,0,0,0-.82.7,1.54,1.54,0,0,0-.3.9,2.86,2.86,0,0,0,.29,1.25,2.33,2.33,0,0,0,.78,1A1.89,1.89,0,0,0,419.26,26.54Z"></path>
  <path class="cls-3" d="M474.05,26.94l3.53-8h-4.84v-.57h5.54v.43l-3.54,8.14Z"></path>
  <path class="cls-3" d="M531.92,18.23a2.66,2.66,0,0,1,1.76.55,1.9,1.9,0,0,1,.66,1.51,1.83,1.83,0,0,1-.41,1.16,3.56,3.56,0,0,1-1.34.93,4,4,0,0,1,1.58,1,2,2,0,0,1,.46,1.33,2.1,2.1,0,0,1-.74,1.69,3.56,3.56,0,0,1-4,.05,2.17,2.17,0,0,1-.69-1.73,2,2,0,0,1,.49-1.34,3.64,3.64,0,0,1,1.5-1,3.69,3.69,0,0,1-1.33-.95,1.85,1.85,0,0,1-.38-1.18,1.89,1.89,0,0,1,.31-1.08,2,2,0,0,1,.87-.72A2.87,2.87,0,0,1,531.92,18.23Zm-2.1,6.6a1.53,1.53,0,0,0,.55,1.26,2.8,2.8,0,0,0,3.07,0,1.55,1.55,0,0,0,.59-1.28,1.57,1.57,0,0,0-.46-1.18,5.44,5.44,0,0,0-1.77-1,3.81,3.81,0,0,0-1.53.92A1.81,1.81,0,0,0,529.82,24.83Zm2.09-6.08a2,2,0,0,0-1.33.41,1.38,1.38,0,0,0-.5,1.12,1.32,1.32,0,0,0,.19.72,2.06,2.06,0,0,0,.53.57,6.46,6.46,0,0,0,1.17.6,3.69,3.69,0,0,0,1.37-.82,1.48,1.48,0,0,0,.42-1.07,1.36,1.36,0,0,0-.5-1.11,2,2,0,0,0-1.35-.42Z"></path>
  <path class="cls-3" d="M592.4,22a8.2,8.2,0,0,1-.44,2.82,3.41,3.41,0,0,1-1.29,1.68,3.7,3.7,0,0,1-2,.55,4.2,4.2,0,0,1-1.12-.15v-.5a3.22,3.22,0,0,0,.6.13h.55a2.7,2.7,0,0,0,2.26-1,5.26,5.26,0,0,0,.92-3.05h-.07a3.06,3.06,0,0,1-1,.86,2.67,2.67,0,0,1-1.24.3,2.51,2.51,0,0,1-1.85-.65,2.48,2.48,0,0,1-.67-1.87,3,3,0,0,1,.73-2.08,2.44,2.44,0,0,1,1.9-.8,2.49,2.49,0,0,1,1.47.44,2.8,2.8,0,0,1,1,1.3A5.53,5.53,0,0,1,592.4,22Zm-2.79-3.26a1.89,1.89,0,0,0-1.48.63,2.46,2.46,0,0,0-.55,1.71,2.12,2.12,0,0,0,.51,1.54,1.89,1.89,0,0,0,1.46.53,2.47,2.47,0,0,0,1.1-.26,2.14,2.14,0,0,0,.82-.7,1.59,1.59,0,0,0,.3-.89,2.92,2.92,0,0,0-.27-1.3,2.28,2.28,0,0,0-.77-.94,2,2,0,0,0-1.12-.31Z"></path>
  <path class="cls-3" d="M643.62,26.94h-.57V20.7a15.14,15.14,0,0,1,.07-1.76l-.18.17-1.81,1.42-.34-.42,2.33-1.74h.5Z"></path>
  <path class="cls-3" d="M652.66,22.63A6.34,6.34,0,0,1,652,26a2.28,2.28,0,0,1-2.08,1.09,2.25,2.25,0,0,1-2-1.12,6.33,6.33,0,0,1-.7-3.31,6.34,6.34,0,0,1,.68-3.31,2.48,2.48,0,0,1,3.44-.68,2.45,2.45,0,0,1,.68.68A6.2,6.2,0,0,1,652.66,22.63Zm-4.88,0a6.37,6.37,0,0,0,.53,2.95,1.8,1.8,0,0,0,3.19,0,6.49,6.49,0,0,0,.51-2.92,6.46,6.46,0,0,0-.51-2.88,1.81,1.81,0,0,0-2.44-.78,1.78,1.78,0,0,0-.78.78,6.61,6.61,0,0,0-.5,2.85Z"></path>
  <line class="cls-4" x1="72.07" y1="37.75" x2="72.07" y2="219.98"></line>
  <line class="cls-4" x1="132.52" y1="37.71" x2="132.52" y2="219.94"></line>
  <line class="cls-4" x1="188.17" y1="37.71" x2="188.17" y2="219.94"></line>
  <line class="cls-4" x1="246.31" y1="38.01" x2="246.31" y2="220.24"></line>
  <line class="cls-4" x1="301.96" y1="38.01" x2="301.96" y2="220.24"></line>
  <line class="cls-4" x1="357.27" y1="37.75" x2="357.27" y2="219.98"></line>
  <line class="cls-4" x1="417.71" y1="38.71" x2="417.71" y2="219.94"></line>
  <line class="cls-4" x1="473.36" y1="37.71" x2="473.36" y2="219.94"></line>
  <line class="cls-4" x1="531.5" y1="38.01" x2="531.5" y2="220.24"></line>
  <line class="cls-4" x1="587.15" y1="38.01" x2="587.15" y2="220.24"></line>
  <line class="cls-4" x1="642.8" y1="38.17" x2="642.8" y2="220.41"></line>
  <path class="cls-3" d="M61.46,89.53h-.6V83.29a13.18,13.18,0,0,1,.08-1.76l-.2.17-1.9,1.42-.35-.42L60.94,81h.52Z"></path>
  <path class="cls-3" d="M63.59,118.53H58V118l2.4-2.38a16.91,16.91,0,0,0,1.41-1.52,4.42,4.42,0,0,0,.6-1,2.65,2.65,0,0,0,.19-1,1.61,1.61,0,0,0-.53-1.25,2,2,0,0,0-1.37-.48,3.53,3.53,0,0,0-2.16.78l-.33-.41a3.93,3.93,0,0,1,2.5-.9,2.7,2.7,0,0,1,1.85.6,2.08,2.08,0,0,1,.67,1.64,3.3,3.3,0,0,1-.45,1.65,9.61,9.61,0,0,1-1.65,2L58.82,118h4.81Z"></path>
  <path class="cls-3" d="M63.29,141a1.86,1.86,0,0,1-.52,1.34,2.55,2.55,0,0,1-1.42.7h0a2.86,2.86,0,0,1,1.65.66,1.82,1.82,0,0,1,.57,1.42,2.24,2.24,0,0,1-.86,1.86,4,4,0,0,1-2.47.66,5.48,5.48,0,0,1-2.39-.49v-.58A4.69,4.69,0,0,0,59,147a4.87,4.87,0,0,0,1.2.15,3.38,3.38,0,0,0,2-.52,1.77,1.77,0,0,0,.68-1.48,1.48,1.48,0,0,0-.7-1.31,3.86,3.86,0,0,0-2-.46h-1v-.56h1a2.9,2.9,0,0,0,1.78-.51,1.62,1.62,0,0,0,.65-1.37,1.39,1.39,0,0,0-.53-1.15,2.17,2.17,0,0,0-1.39-.43,4.26,4.26,0,0,0-1.23.18,6.21,6.21,0,0,0-1.24.61l-.3-.39a4.34,4.34,0,0,1,1.26-.66,4.7,4.7,0,0,1,1.49-.24,3,3,0,0,1,1.92.56A1.91,1.91,0,0,1,63.29,141Z"></path>
  <path class="cls-3" d="M64.29,174.34H62.74v2.19h-.58v-2.19H57.53V174L62,168h.75v5.92h1.55Zm-2.13-.5v-2.45c0-1.18,0-2.17.08-3h0c-.09.14-.34.51-.76,1.1l-3.18,4.32Z"></path>
  <path class="cls-3" d="M60.57,200.38a3.54,3.54,0,0,1,2.27.66,2.22,2.22,0,0,1,.83,1.82,2.54,2.54,0,0,1-.86,2,3.58,3.58,0,0,1-2.38.74,6,6,0,0,1-1.27-.13,3,3,0,0,1-1-.36v-.6a5.59,5.59,0,0,0,1.18.44,4.53,4.53,0,0,0,1.1.13,2.92,2.92,0,0,0,1.89-.59,2,2,0,0,0,.72-1.61,1.76,1.76,0,0,0-.7-1.5,2.92,2.92,0,0,0-1.89-.55,6.72,6.72,0,0,0-1.67.23l-.37-.23.36-3.92H63.1v.57H59.35l-.28,3A9.45,9.45,0,0,1,60.57,200.38Z"></path>
  <line class="cls-5" x1="132.52" y1="74.11" x2="132.52" y2="94.11"></line>
  <line class="cls-5" x1="188.17" y1="104.31" x2="188.17" y2="124.31"></line>
  <line class="cls-5" x1="246.31" y1="133.37" x2="246.31" y2="153.37"></line>
  <line class="cls-5" x1="301.96" y1="163.69" x2="301.96" y2="183.69"></line>
  <line class="cls-5" x1="357.27" y1="193.02" x2="357.27" y2="213.02"></line>
  <path class="cls-3" d="M140.8,99.83h-.43l-3.55-5.07h0c0,.6.05,1.06.05,1.37v3.7h-.4V94.12h.41l3.55,5.06h0V94.12h.41Z"></path>
  <path class="cls-3" d="M144.19,99.91a2,2,0,0,1-1.51-.57,2.18,2.18,0,0,1-.55-1.6,2.41,2.41,0,0,1,.53-1.63,1.76,1.76,0,0,1,1.41-.61,1.61,1.61,0,0,1,1.25.52,2.11,2.11,0,0,1,.45,1.43v.31h-3.21a1.89,1.89,0,0,0,.43,1.33,1.53,1.53,0,0,0,1.2.46,3,3,0,0,0,.67,0,4.79,4.79,0,0,0,.74-.21v.35a4.33,4.33,0,0,1-.7.21A4.17,4.17,0,0,1,144.19,99.91Zm-.12-4.07a1.34,1.34,0,0,0-1,.41,1.89,1.89,0,0,0-.46,1.16h2.76a1.7,1.7,0,0,0-.34-1.15A1.11,1.11,0,0,0,144.07,95.84Z"></path>
  <path class="cls-3" d="M147.35,95.58v2.75a1.25,1.25,0,0,0,.29.93,1.14,1.14,0,0,0,.88.29,1.55,1.55,0,0,0,1.17-.38,1.73,1.73,0,0,0,.37-1.24V95.58h.4v4.25h-.34l-.07-.59h0a1.7,1.7,0,0,1-1.55.67A1.35,1.35,0,0,1,147,98.74a1.21,1.21,0,0,1,0-.38V95.58Z"></path>
  <path class="cls-3" d="M153.76,99.91a2,2,0,0,1-1.52-.57,2.28,2.28,0,0,1-.54-1.6,2.4,2.4,0,0,1,.52-1.63,1.8,1.8,0,0,1,1.42-.61,1.57,1.57,0,0,1,1.24.52,2.05,2.05,0,0,1,.46,1.43v.31h-3.21a1.93,1.93,0,0,0,.42,1.33,1.57,1.57,0,0,0,1.21.46,3,3,0,0,0,.67,0,4.68,4.68,0,0,0,.73-.21v.35a4.33,4.33,0,0,1-.7.21A4.14,4.14,0,0,1,153.76,99.91Zm-.12-4.07a1.37,1.37,0,0,0-1,.41,1.82,1.82,0,0,0-.45,1.16H155a1.81,1.81,0,0,0-.34-1.15A1.13,1.13,0,0,0,153.64,95.84Z"></path>
  <path class="cls-3" d="M158.85,99.83V94.12h.42v5.33h2.86v.38Z"></path>
  <path class="cls-3" d="M165.77,99.83l-.11-.67h0a2.14,2.14,0,0,1-.69.58,2,2,0,0,1-.84.17,1.5,1.5,0,0,1-1-.32,1.23,1.23,0,0,1,.18-1.89,3,3,0,0,1,1.57-.36h.85v-.28a1.44,1.44,0,0,0-.26-.92,1,1,0,0,0-.83-.31,2.86,2.86,0,0,0-1.28.33l-.16-.33a3.54,3.54,0,0,1,1.46-.33,1.49,1.49,0,0,1,1.09.36,1.55,1.55,0,0,1,.37,1.13v2.83Zm-1.64-.28a1.58,1.58,0,0,0,1.12-.38,1.37,1.37,0,0,0,.41-1.08v-.42h-.78a3.06,3.06,0,0,0-1.33.28.79.79,0,0,0-.4.73.77.77,0,0,0,.25.62A1.06,1.06,0,0,0,164.13,99.55Z"></path>
  <path class="cls-3" d="M167.86,95.58v2.75a1.25,1.25,0,0,0,.29.93,1.12,1.12,0,0,0,.87.29,1.55,1.55,0,0,0,1.17-.38,1.74,1.74,0,0,0,.38-1.24V95.58h.4v4.25h-.34l-.08-.59h0a1.73,1.73,0,0,1-1.55.67,1.35,1.35,0,0,1-1.52-1.17,1.21,1.21,0,0,1,0-.38V95.58Z"></path>
  <path class="cls-3" d="M174.12,95.92h-1.05v3.91h-.4V95.92h-.83v-.23l.83-.14v-.33a1.8,1.8,0,0,1,.3-1.15,1.21,1.21,0,0,1,1-.36,2.64,2.64,0,0,1,.74.1l-.09.34a2.05,2.05,0,0,0-.65-.1.77.77,0,0,0-.68.27,1.55,1.55,0,0,0-.2.87v.39h1Z"></path>
  <path class="cls-3" d="M177.76,99.83h-3.19v-.25l2.65-3.65h-2.45v-.35h3v.25l-2.66,3.65h2.67Z"></path>
  <path class="cls-3" d="M180.66,99.91a2,2,0,0,1-1.52-.57,2.28,2.28,0,0,1-.54-1.6,2.4,2.4,0,0,1,.52-1.63,1.75,1.75,0,0,1,1.42-.61,1.57,1.57,0,0,1,1.24.52,2.11,2.11,0,0,1,.45,1.43v.31H179a2,2,0,0,0,.43,1.33,1.57,1.57,0,0,0,1.21.46,3,3,0,0,0,.67,0,4.68,4.68,0,0,0,.73-.21v.35a4.33,4.33,0,0,1-.7.21A3.82,3.82,0,0,1,180.66,99.91Zm-.12-4.07a1.39,1.39,0,0,0-1,.41,1.82,1.82,0,0,0-.45,1.16h2.75a1.81,1.81,0,0,0-.33-1.15,1.13,1.13,0,0,0-1-.42Z"></path>
  <path class="cls-3" d="M183.41,94.4c0-.25.08-.37.26-.37a.22.22,0,0,1,.2.1.52.52,0,0,1,.07.27.55.55,0,0,1-.07.28.22.22,0,0,1-.2.1C183.49,94.78,183.41,94.66,183.41,94.4Zm.46,5.43h-.4V95.58h.4Z"></path>
  <path class="cls-3" d="M186.54,99.56a3.82,3.82,0,0,0,.68-.06v.31a2,2,0,0,1-.69.1,1.12,1.12,0,0,1-.87-.3,1.39,1.39,0,0,1-.28-1V95.87h-.66v-.23l.66-.17.21-1h.21v1h1.3v.34h-1.3V98.5a1.14,1.14,0,0,0,.18.72A.69.69,0,0,0,186.54,99.56Z"></path>
  <path class="cls-3" d="M195.36,130.19h-.42l-3.55-5.07h0c0,.61.05,1.06.05,1.37v3.7H191v-5.71h.42l3.55,5.06h0v-5.06h.4Z"></path>
  <path class="cls-3" d="M198.76,130.27a2,2,0,0,1-1.52-.57,2.23,2.23,0,0,1-.54-1.6,2.37,2.37,0,0,1,.52-1.62,1.8,1.8,0,0,1,1.42-.61,1.57,1.57,0,0,1,1.24.52,2,2,0,0,1,.46,1.42v.31h-3.21a2,2,0,0,0,.42,1.34,1.57,1.57,0,0,0,1.21.46,3.75,3.75,0,0,0,.67,0,4.71,4.71,0,0,0,.73-.22v.3a2.83,2.83,0,0,1-.7.21A4.14,4.14,0,0,1,198.76,130.27Zm-.12-4.06a1.4,1.4,0,0,0-1,.4,1.87,1.87,0,0,0-.45,1.17H200a1.81,1.81,0,0,0-.34-1.15A1.13,1.13,0,0,0,198.64,126.21Z"></path>
  <path class="cls-3" d="M201.92,126v2.75a1.3,1.3,0,0,0,.28.93,1.18,1.18,0,0,0,.88.29,1.6,1.6,0,0,0,1.17-.38,1.76,1.76,0,0,0,.38-1.25V126h.4v4.24h-.35l-.07-.58h0a1.7,1.7,0,0,1-1.55.66,1.35,1.35,0,0,1-1.52-1.17,1.21,1.21,0,0,1,0-.38V126Z"></path>
  <path class="cls-3" d="M208.32,130.27a2,2,0,0,1-1.51-.57,2.18,2.18,0,0,1-.55-1.6,2.38,2.38,0,0,1,.53-1.62,1.76,1.76,0,0,1,1.41-.61,1.61,1.61,0,0,1,1.25.52,2.08,2.08,0,0,1,.45,1.42v.31h-3.21a2,2,0,0,0,.43,1.34,1.53,1.53,0,0,0,1.2.46,3.75,3.75,0,0,0,.67,0,3.92,3.92,0,0,0,.74-.22v.3a2.83,2.83,0,0,1-.7.21A4.17,4.17,0,0,1,208.32,130.27Zm-.12-4.06a1.34,1.34,0,0,0-1,.4,1.87,1.87,0,0,0-.45,1.17h2.75a1.75,1.75,0,0,0-.33-1.15,1.14,1.14,0,0,0-1-.42Z"></path>
  <path class="cls-3" d="M213.42,130.19v-5.71h.42v5.34h2.85v.37Z"></path>
  <path class="cls-3" d="M220.33,130.19l-.1-.67h0a2.14,2.14,0,0,1-.69.58,2,2,0,0,1-.84.17,1.45,1.45,0,0,1-1-.32,1.1,1.1,0,0,1-.37-.89,1.07,1.07,0,0,1,.54-1,3.09,3.09,0,0,1,1.58-.36h.85v-.28a1.41,1.41,0,0,0-.26-.91,1,1,0,0,0-.84-.31,2.86,2.86,0,0,0-1.28.33l-.15-.34a3.62,3.62,0,0,1,1.45-.33,1.48,1.48,0,0,1,1.1.37,1.54,1.54,0,0,1,.36,1.13v2.82Zm-1.64-.27a1.61,1.61,0,0,0,1.13-.39,1.45,1.45,0,0,0,.41-1.08V128h-.78a3.25,3.25,0,0,0-1.34.28.8.8,0,0,0-.4.74.77.77,0,0,0,.26.62A1.07,1.07,0,0,0,218.69,129.92Z"></path>
  <path class="cls-3" d="M222.43,126v2.75a1.3,1.3,0,0,0,.28.93,1.18,1.18,0,0,0,.88.29,1.6,1.6,0,0,0,1.17-.38,1.76,1.76,0,0,0,.38-1.25V126h.4v4.24h-.35l-.07-.58h0a1.68,1.68,0,0,1-1.54.66,1.35,1.35,0,0,1-1.52-1.17,1.21,1.21,0,0,1,0-.38V126Z"></path>
  <path class="cls-3" d="M228.69,126.28h-1.05v3.91h-.41v-3.91h-.83v-.22l.83-.15v-.33a1.77,1.77,0,0,1,.3-1.14,1.21,1.21,0,0,1,1-.37,2.65,2.65,0,0,1,.74.11l-.1.33a2.37,2.37,0,0,0-.65-.09.78.78,0,0,0-.67.26,1.4,1.4,0,0,0-.2.87v.4h1Z"></path>
  <path class="cls-3" d="M232.32,130.19h-3.18V130l2.64-3.66h-2.45V126h3v.24l-2.66,3.66h2.67Z"></path>
  <path class="cls-3" d="M235.22,130.27a2,2,0,0,1-1.51-.57,2.18,2.18,0,0,1-.55-1.6,2.38,2.38,0,0,1,.53-1.62,1.76,1.76,0,0,1,1.41-.61,1.61,1.61,0,0,1,1.25.52,2.08,2.08,0,0,1,.45,1.42v.31h-3.21a1.93,1.93,0,0,0,.43,1.34,1.53,1.53,0,0,0,1.2.46,3.75,3.75,0,0,0,.67,0,3.83,3.83,0,0,0,.73-.22v.3a2.75,2.75,0,0,1-.69.21A4.17,4.17,0,0,1,235.22,130.27Zm-.12-4.06a1.34,1.34,0,0,0-1,.4,1.94,1.94,0,0,0-.46,1.17h2.76a1.7,1.7,0,0,0-.34-1.15A1.11,1.11,0,0,0,235.1,126.21Z"></path>
  <path class="cls-3" d="M238,124.77c0-.25.09-.38.26-.38a.2.2,0,0,1,.2.1.45.45,0,0,1,.07.28.42.42,0,0,1-.07.27.23.23,0,0,1-.2.11C238.06,125.15,238,125,238,124.77Zm.47,5.42H238V126h.41Z"></path>
  <path class="cls-3" d="M241.11,129.93a3.79,3.79,0,0,0,.67-.06v.31a2.59,2.59,0,0,1-.68.09,1.12,1.12,0,0,1-.87-.3,1.34,1.34,0,0,1-.23-1v-2.75h-.66V126l.66-.18.2-1h.21v1h1.31v.33h-1.31V129a1.14,1.14,0,0,0,.18.72A.67.67,0,0,0,241.11,129.93Z"></path>
  <path class="cls-3" d="M254.14,159.17h-.42l-3.56-5.08h0c0,.61.05,1.06.05,1.37v3.71h-.4v-5.72h.42l3.54,5.07h0v-5.07h.41Z"></path>
  <path class="cls-3" d="M257.53,159.24a2,2,0,0,1-1.51-.57,2.21,2.21,0,0,1-.54-1.59,2.4,2.4,0,0,1,.52-1.63,1.76,1.76,0,0,1,1.41-.61,1.61,1.61,0,0,1,1.25.52,2.08,2.08,0,0,1,.45,1.42v.31H255.9a2,2,0,0,0,.43,1.34,1.53,1.53,0,0,0,1.2.46,3.75,3.75,0,0,0,.67,0,3.92,3.92,0,0,0,.74-.22V159a3.35,3.35,0,0,1-.7.22A5.61,5.61,0,0,1,257.53,159.24Zm-.12-4.06a1.37,1.37,0,0,0-1,.41,1.82,1.82,0,0,0-.45,1.16h2.75a1.75,1.75,0,0,0-.33-1.15,1.14,1.14,0,0,0-1-.42Z"></path>
  <path class="cls-3" d="M260.7,154.92v2.75a1.3,1.3,0,0,0,.28.93,1.18,1.18,0,0,0,.88.29,1.6,1.6,0,0,0,1.17-.38,1.75,1.75,0,0,0,.37-1.25v-2.34h.41v4.25h-.35l-.07-.59h0a1.68,1.68,0,0,1-1.54.66,1.36,1.36,0,0,1-1.53-1.16,1.27,1.27,0,0,1,0-.39v-2.77Z"></path>
  <path class="cls-3" d="M267.1,159.24a2,2,0,0,1-1.52-.57,2.21,2.21,0,0,1-.54-1.59,2.45,2.45,0,0,1,.52-1.63,1.8,1.8,0,0,1,1.42-.61,1.54,1.54,0,0,1,1.24.52,2,2,0,0,1,.46,1.42v.31h-3.21a1.85,1.85,0,0,0,.43,1.34,1.53,1.53,0,0,0,1.2.46,3.75,3.75,0,0,0,.67,0,3.83,3.83,0,0,0,.73-.22V159a3.26,3.26,0,0,1-.69.22A5.61,5.61,0,0,1,267.1,159.24Zm-.12-4.06a1.34,1.34,0,0,0-1,.41,1.84,1.84,0,0,0-.46,1.16h2.76a1.7,1.7,0,0,0-.34-1.15,1.11,1.11,0,0,0-.94-.42Z"></path>
  <path class="cls-3" d="M272.19,159.17v-5.72h.42v5.34h2.86v.38Z"></path>
  <path class="cls-3" d="M279.11,159.17l-.1-.68h0a1.93,1.93,0,0,1-.69.58,1.86,1.86,0,0,1-.84.17,1.5,1.5,0,0,1-1-.32,1.13,1.13,0,0,1-.36-.88,1.1,1.1,0,0,1,.54-1,3,3,0,0,1,1.57-.36h.85v-.28a1.35,1.35,0,0,0-.26-.91,1,1,0,0,0-.83-.31,2.86,2.86,0,0,0-1.28.33l-.15-.34a3.46,3.46,0,0,1,1.45-.33,1.46,1.46,0,0,1,1.09.37,1.51,1.51,0,0,1,.37,1.13v2.83Zm-1.64-.28a1.59,1.59,0,0,0,1.12-.39,1.41,1.41,0,0,0,.42-1.08V157h-.78a2.84,2.84,0,0,0-1.34.28.89.89,0,0,0-.26,1.22l.11.13a1.07,1.07,0,0,0,.73.26Z"></path>
  <path class="cls-3" d="M281.2,154.92v2.75a1.25,1.25,0,0,0,.29.93,1.2,1.2,0,0,0,.87.29,1.59,1.59,0,0,0,1.18-.38,1.75,1.75,0,0,0,.37-1.25v-2.34h.4v4.25H284l-.07-.59h0a1.7,1.7,0,0,1-1.55.66,1.35,1.35,0,0,1-1.52-1.17,1.21,1.21,0,0,1,0-.38v-2.77Z"></path>
  <path class="cls-3" d="M287.46,155.25h-1v3.92H286v-3.92h-.83V155l.83-.15v-.32a1.8,1.8,0,0,1,.3-1.15,1.21,1.21,0,0,1,1-.37,2.58,2.58,0,0,1,.73.11l-.09.34a2.05,2.05,0,0,0-.65-.1.77.77,0,0,0-.68.27,1.52,1.52,0,0,0-.2.86v.4h1Z"></path>
  <path class="cls-3" d="M291.1,159.17h-3.19v-.25l2.65-3.66h-2.45v-.34h3v.25l-2.66,3.65h2.67Z"></path>
  <path class="cls-3" d="M294,159.24a2,2,0,0,1-1.52-.57,2.21,2.21,0,0,1-.54-1.59,2.4,2.4,0,0,1,.52-1.63,1.8,1.8,0,0,1,1.42-.61,1.57,1.57,0,0,1,1.24.52,2,2,0,0,1,.46,1.42v.31h-3.21a2,2,0,0,0,.42,1.34,1.57,1.57,0,0,0,1.21.46,3.75,3.75,0,0,0,.67,0,4.71,4.71,0,0,0,.73-.22V159a3.35,3.35,0,0,1-.7.22A5.46,5.46,0,0,1,294,159.24Zm-.12-4.06a1.34,1.34,0,0,0-1,.41,1.78,1.78,0,0,0-.46,1.16h2.76a1.81,1.81,0,0,0-.34-1.15,1.11,1.11,0,0,0-1-.42Z"></path>
  <path class="cls-3" d="M296.75,153.74c0-.25.09-.38.26-.38a.26.26,0,0,1,.2.1.61.61,0,0,1,0,.56.26.26,0,0,1-.2.1C296.84,154.12,296.75,154,296.75,153.74Zm.46,5.43h-.4v-4.25h.4Z"></path>
  <path class="cls-3" d="M299.88,158.9a3.82,3.82,0,0,0,.68-.06v.31a2.59,2.59,0,0,1-.68.09,1.15,1.15,0,0,1-.88-.3,1.33,1.33,0,0,1-.28-.94v-2.75h-.66V155l.66-.18.21-1h.21v1h1.31v.33h-1.31v2.69a1.17,1.17,0,0,0,.18.73A.68.68,0,0,0,299.88,158.9Z"></path>
  <path class="cls-3" d="M309.19,188.87h-.43l-3.55-5.07h0c0,.61.05,1.06.05,1.37v3.7h-.4v-5.71h.41l3.55,5.06h0v-5.06h.41Z"></path>
  <path class="cls-3" d="M312.58,189a2,2,0,0,1-1.51-.57,2.18,2.18,0,0,1-.55-1.6,2.38,2.38,0,0,1,.53-1.62,1.77,1.77,0,0,1,1.41-.62,1.57,1.57,0,0,1,1.25.53,2.08,2.08,0,0,1,.45,1.42v.31H311a1.93,1.93,0,0,0,.43,1.34,1.53,1.53,0,0,0,1.2.46,3.75,3.75,0,0,0,.67,0,4.71,4.71,0,0,0,.73-.22v.35a2.75,2.75,0,0,1-.69.21A3.86,3.86,0,0,1,312.58,189Zm-.12-4.06a1.34,1.34,0,0,0-1,.4,1.94,1.94,0,0,0-.46,1.17h2.76a1.74,1.74,0,0,0-.34-1.16,1.15,1.15,0,0,0-1-.46Z"></path>
  <path class="cls-3" d="M315.74,184.63v2.75a1.3,1.3,0,0,0,.29.93,1.2,1.2,0,0,0,.87.29,1.59,1.59,0,0,0,1.18-.38,1.75,1.75,0,0,0,.37-1.25v-2.34h.4v4.24h-.34l-.07-.58h0a1.7,1.7,0,0,1-1.55.66,1.35,1.35,0,0,1-1.52-1.17,1.21,1.21,0,0,1,0-.38v-2.77Z"></path>
  <path class="cls-3" d="M322.15,189a2,2,0,0,1-1.52-.57,2.23,2.23,0,0,1-.54-1.6,2.37,2.37,0,0,1,.52-1.62,1.79,1.79,0,0,1,1.42-.62,1.55,1.55,0,0,1,1.24.53,2.15,2.15,0,0,1,.46,1.42v.31h-3.21a2,2,0,0,0,.42,1.34,1.57,1.57,0,0,0,1.21.46,3.75,3.75,0,0,0,.67,0,6.14,6.14,0,0,0,.73-.22v.35a2.83,2.83,0,0,1-.7.21A4.09,4.09,0,0,1,322.15,189Zm-.12-4.06a1.4,1.4,0,0,0-1,.4,1.87,1.87,0,0,0-.45,1.17h2.76a1.86,1.86,0,0,0-.34-1.16,1.17,1.17,0,0,0-1-.46Z"></path>
  <path class="cls-3" d="M327.24,188.87v-5.71h.42v5.34h2.86v.37Z"></path>
  <path class="cls-3" d="M334.16,188.87l-.11-.67h0a1.79,1.79,0,0,1-1.53.75,1.5,1.5,0,0,1-1-.32,1.12,1.12,0,0,1-.37-.89,1.08,1.08,0,0,1,.55-1,3,3,0,0,1,1.57-.36h.85v-.28a1.41,1.41,0,0,0-.26-.91,1,1,0,0,0-.83-.31,2.91,2.91,0,0,0-1.29.33l-.15-.34a3.54,3.54,0,0,1,1.46-.33,1.46,1.46,0,0,1,1.09.37,1.55,1.55,0,0,1,.37,1.13v2.82Zm-1.64-.27a1.59,1.59,0,0,0,1.12-.39,1.37,1.37,0,0,0,.41-1.08v-.42h-.78a3.21,3.21,0,0,0-1.33.28.89.89,0,0,0-.15,1.36,1.06,1.06,0,0,0,.73.25Z"></path>
  <path class="cls-3" d="M336.25,184.63v2.75a1.41,1.41,0,0,0,.28.93,1.22,1.22,0,0,0,.88.29,1.6,1.6,0,0,0,1.17-.38A1.75,1.75,0,0,0,339,187v-2.34h.4v4.24H339l-.08-.58h0a1.7,1.7,0,0,1-1.55.66,1.35,1.35,0,0,1-1.52-1.17,1.21,1.21,0,0,1,0-.38v-2.77Z"></path>
  <path class="cls-3" d="M342.51,185h-1.05v3.91h-.4V185h-.83v-.22l.83-.15v-.33a1.77,1.77,0,0,1,.3-1.14,1.18,1.18,0,0,1,1-.37,2.65,2.65,0,0,1,.74.11l-.09.33a2.38,2.38,0,0,0-.65-.1.77.77,0,0,0-.68.27,1.55,1.55,0,0,0-.2.87v.4h1Z"></path>
  <path class="cls-3" d="M346.15,188.87H343v-.24l2.65-3.66H343.2v-.34h3v.24l-2.66,3.66h2.67Z"></path>
  <path class="cls-3" d="M349.05,189a2,2,0,0,1-1.52-.57,2.23,2.23,0,0,1-.54-1.6,2.37,2.37,0,0,1,.52-1.62,1.79,1.79,0,0,1,1.42-.62,1.55,1.55,0,0,1,1.24.53,2.08,2.08,0,0,1,.45,1.42v.31h-3.21a2,2,0,0,0,.43,1.34,1.57,1.57,0,0,0,1.21.46,3.75,3.75,0,0,0,.67,0,6.14,6.14,0,0,0,.73-.22v.35a2.83,2.83,0,0,1-.7.21A4.09,4.09,0,0,1,349.05,189Zm-.12-4.06a1.4,1.4,0,0,0-1,.4,1.87,1.87,0,0,0-.45,1.17h2.75a1.85,1.85,0,0,0-.33-1.16,1.18,1.18,0,0,0-1-.46Z"></path>
  <path class="cls-3" d="M351.8,183.45c0-.25.08-.38.26-.38a.22.22,0,0,1,.2.1.55.55,0,0,1,.07.28.52.52,0,0,1-.07.27.23.23,0,0,1-.2.11C351.88,183.83,351.8,183.7,351.8,183.45Zm.46,5.42h-.41v-4.24h.41Z"></path>
  <path class="cls-3" d="M354.93,188.61a2.5,2.5,0,0,0,.67-.07v.32a2.59,2.59,0,0,1-.68.09,1.12,1.12,0,0,1-.87-.3,1.37,1.37,0,0,1-.28-1V185h-.66v-.22l.66-.18.21-1h.21v1h1.3v.4h-1.3v2.69a1.14,1.14,0,0,0,.18.72A.65.65,0,0,0,354.93,188.61Z"></path>
  <path class="cls-3" d="M365.4,218.73H365l-3.55-5.07h0c0,.61.05,1.06.05,1.37v3.7H361V213h.42l3.55,5.07h0V213h.4Z"></path>
  <path class="cls-3" d="M368.8,218.81a2,2,0,0,1-1.52-.57,2.23,2.23,0,0,1-.54-1.6,2.38,2.38,0,0,1,.53-1.62,1.76,1.76,0,0,1,1.41-.61,1.54,1.54,0,0,1,1.24.52,2,2,0,0,1,.46,1.42v.31h-3.21a1.85,1.85,0,0,0,.43,1.34,1.53,1.53,0,0,0,1.2.46,5,5,0,0,0,.67-.05,3.83,3.83,0,0,0,.73-.22v.35a3.26,3.26,0,0,1-.69.22A5.65,5.65,0,0,1,368.8,218.81Zm-.12-4.06a1.34,1.34,0,0,0-1,.4,1.94,1.94,0,0,0-.46,1.17H370a1.7,1.7,0,0,0-.34-1.15A1.09,1.09,0,0,0,368.68,214.75Z"></path>
  <path class="cls-3" d="M372,214.49v2.75a1.3,1.3,0,0,0,.28.93,1.22,1.22,0,0,0,.88.29,1.6,1.6,0,0,0,1.17-.38,1.76,1.76,0,0,0,.38-1.25v-2.34h.4v4.24h-.34l-.08-.58h0a1.7,1.7,0,0,1-1.55.66,1.35,1.35,0,0,1-1.52-1.17,1.21,1.21,0,0,1,0-.38v-2.77Z"></path>
  <path class="cls-3" d="M378.36,218.81a2,2,0,0,1-1.51-.57,2.23,2.23,0,0,1-.54-1.6,2.37,2.37,0,0,1,.52-1.62,1.75,1.75,0,0,1,1.42-.61,1.57,1.57,0,0,1,1.24.52,2.08,2.08,0,0,1,.45,1.42v.31h-3.21a2,2,0,0,0,.43,1.34,1.53,1.53,0,0,0,1.2.46,5.19,5.19,0,0,0,.68-.05,4.71,4.71,0,0,0,.73-.22v.35a3.35,3.35,0,0,1-.7.22A5.65,5.65,0,0,1,378.36,218.81Zm-.11-4.06a1.4,1.4,0,0,0-1,.4,1.87,1.87,0,0,0-.45,1.17h2.75a1.75,1.75,0,0,0-.33-1.15A1.13,1.13,0,0,0,378.25,214.75Z"></path>
  <path class="cls-3" d="M383.46,218.73V213h.42v5.34h2.86v.37Z"></path>
  <path class="cls-3" d="M390.37,218.73l-.1-.67h0a2.14,2.14,0,0,1-.69.58,1.86,1.86,0,0,1-.84.17,1.45,1.45,0,0,1-1-.32,1.1,1.1,0,0,1-.37-.88,1.08,1.08,0,0,1,.55-1,3,3,0,0,1,1.57-.36h.85V216a1.41,1.41,0,0,0-.26-.91,1,1,0,0,0-.83-.31,2.91,2.91,0,0,0-1.29.33l-.15-.34a3.62,3.62,0,0,1,1.45-.33,1.48,1.48,0,0,1,1.1.37,1.54,1.54,0,0,1,.36,1.13v2.82Zm-1.64-.27a1.61,1.61,0,0,0,1.13-.39,1.45,1.45,0,0,0,.41-1.08v-.42h-.78a3.09,3.09,0,0,0-1.34.27.82.82,0,0,0-.4.74.77.77,0,0,0,.26.62,1.07,1.07,0,0,0,.72.26Z"></path>
  <path class="cls-3" d="M392.47,214.49v2.75a1.3,1.3,0,0,0,.28.93,1.18,1.18,0,0,0,.88.29,1.6,1.6,0,0,0,1.17-.38,1.76,1.76,0,0,0,.38-1.25v-2.34h.4v4.24h-.35l-.07-.58h0a1.7,1.7,0,0,1-1.55.66,1.36,1.36,0,0,1-1.52-1.55v-2.77Z"></path>
  <path class="cls-3" d="M398.73,214.82h-1.05v3.91h-.41v-3.91h-.83v-.22l.83-.15v-.32a1.8,1.8,0,0,1,.3-1.15,1.25,1.25,0,0,1,1-.37,2.65,2.65,0,0,1,.74.11l-.1.33a2.37,2.37,0,0,0-.65-.09.81.81,0,0,0-.67.26,1.55,1.55,0,0,0-.2.87v.4h1.05Z"></path>
  <path class="cls-3" d="M402.36,218.73h-3.18v-.24l2.65-3.66h-2.46v-.34h3v.24l-2.66,3.66h2.67Z"></path>
  <path class="cls-3" d="M405.26,218.81a2,2,0,0,1-1.51-.57,2.24,2.24,0,0,1-.55-1.6,2.38,2.38,0,0,1,.53-1.62,1.76,1.76,0,0,1,1.41-.61,1.61,1.61,0,0,1,1.25.52,2.08,2.08,0,0,1,.45,1.42v.31h-3.21a2,2,0,0,0,.43,1.34,1.53,1.53,0,0,0,1.2.46,5,5,0,0,0,.67-.05,3.92,3.92,0,0,0,.74-.22v.35a3.35,3.35,0,0,1-.7.22A5.65,5.65,0,0,1,405.26,218.81Zm-.12-4.06a1.38,1.38,0,0,0-1,.4,1.87,1.87,0,0,0-.45,1.17h2.75a1.75,1.75,0,0,0-.33-1.15A1.14,1.14,0,0,0,405.14,214.75Z"></path>
  <path class="cls-3" d="M408,213.31c0-.25.08-.38.25-.38a.22.22,0,0,1,.2.1.61.61,0,0,1,0,.56.22.22,0,0,1-.2.1C408.1,213.69,408,213.56,408,213.31Zm.46,5.42h-.41v-4.24h.41Z"></path>
  <path class="cls-3" d="M411.15,218.47a3.79,3.79,0,0,0,.67-.06v.31a2.59,2.59,0,0,1-.68.09,1.12,1.12,0,0,1-.87-.3,1.33,1.33,0,0,1-.28-.94v-2.75h-.66v-.22l.66-.18.2-1h.21v1h1.31v.33H410.4v2.69a1.14,1.14,0,0,0,.18.72A.68.68,0,0,0,411.15,218.47Z"></path>
  <path class="cls-6" d="M10.82,146H9.6v-7.14h4.23v1h-3v2.23h2.82v1H10.82Z"></path>
  <path class="cls-6" d="M17.54,146.08a2.81,2.81,0,0,1-2.07-.73,2.75,2.75,0,0,1-.75-2,3,3,0,0,1,.7-2.08,2.43,2.43,0,0,1,1.9-.76,2.25,2.25,0,0,1,2.42,2.06,2.41,2.41,0,0,1,0,.38v.62H16a1.73,1.73,0,0,0,.45,1.21,1.58,1.58,0,0,0,1.19.42,4.88,4.88,0,0,0,.93-.09,5,5,0,0,0,.93-.3v.93a3.86,3.86,0,0,1-.89.29A6.34,6.34,0,0,1,17.54,146.08Zm-.22-4.73a1.27,1.27,0,0,0-.92.35,1.63,1.63,0,0,0-.42,1h2.58a1.42,1.42,0,0,0-.34-1A1.17,1.17,0,0,0,17.32,141.35Z"></path>
  <path class="cls-6" d="M24.92,144.44a1.41,1.41,0,0,1-.6,1.22,3,3,0,0,1-1.74.42,4.39,4.39,0,0,1-1.82-.33v-1a4.78,4.78,0,0,0,1.86.44c.75,0,1.12-.21,1.12-.64a.43.43,0,0,0-.13-.34,1.26,1.26,0,0,0-.4-.28,7.83,7.83,0,0,0-.79-.34,3.7,3.7,0,0,1-1.32-.72,1.3,1.3,0,0,1-.35-.94,1.2,1.2,0,0,1,.59-1.07,2.88,2.88,0,0,1,1.6-.39,4.74,4.74,0,0,1,1.89.39l-.39.86a4.56,4.56,0,0,0-1.54-.36c-.64,0-1,.18-1,.52a.53.53,0,0,0,.25.43,5.31,5.31,0,0,0,1.09.48,6.13,6.13,0,0,1,1,.48,1.57,1.57,0,0,1,.47.49A1.36,1.36,0,0,1,24.92,144.44Z"></path>
  <path class="cls-6" d="M28.34,145.15a2.93,2.93,0,0,0,.88-.13v.86a1.91,1.91,0,0,1-.52.14,3.49,3.49,0,0,1-.65.06,1.5,1.5,0,0,1-1.71-1.28,1.62,1.62,0,0,1,0-.44v-2.91h-.78v-.51l.83-.42.41-1.14h.75v1.2h1.61v.87H27.55v2.89a.83.83,0,0,0,.21.62A.86.86,0,0,0,28.34,145.15Z"></path>
  <path class="cls-6" d="M35.14,140.58v.63l-1,.17a1.66,1.66,0,0,1-.3,2.26,3.15,3.15,0,0,1-2.16.44.65.65,0,0,0-.39.54.32.32,0,0,0,.19.28,1.52,1.52,0,0,0,.67.09h1a2.31,2.31,0,0,1,1.42.38,1.34,1.34,0,0,1,.49,1.1,1.6,1.6,0,0,1-.8,1.42,4.34,4.34,0,0,1-2.29.49A3.31,3.31,0,0,1,30.2,148a1.24,1.24,0,0,1-.61-1.11,1.15,1.15,0,0,1,.33-.84,1.93,1.93,0,0,1,.92-.47.85.85,0,0,1-.39-.31.78.78,0,0,1,0-1,2,2,0,0,1,.53-.42,1.55,1.55,0,0,1-.71-.58,1.84,1.84,0,0,1,.3-2.32,2.6,2.6,0,0,1,1.66-.49h.51l.4.06Zm-4.46,6.24a.63.63,0,0,0,.36.57,1.82,1.82,0,0,0,1,.2,3.23,3.23,0,0,0,1.47-.26.81.81,0,0,0,.48-.72.55.55,0,0,0-.26-.5,2.14,2.14,0,0,0-1-.15h-.92a1.28,1.28,0,0,0-.82.24A.72.72,0,0,0,30.68,146.82Zm.52-4.49a1,1,0,0,0,.28.78,1.05,1.05,0,0,0,.78.27.93.93,0,0,0,1.05-.79,1.22,1.22,0,0,0,0-.27,1.19,1.19,0,0,0-.26-.81,1,1,0,0,0-.79-.29,1,1,0,0,0-.79.28A1.19,1.19,0,0,0,31.2,142.33Z"></path>
  <path class="cls-6" d="M38.67,146.08a2.81,2.81,0,0,1-2.07-.73,2.75,2.75,0,0,1-.75-2,3,3,0,0,1,.69-2.08,2.49,2.49,0,0,1,1.91-.76,2.42,2.42,0,0,1,1.77.65,2.45,2.45,0,0,1,.65,1.79v.62H37.09a1.73,1.73,0,0,0,.45,1.21,1.57,1.57,0,0,0,1.18.42,4.91,4.91,0,0,0,.94-.09,5,5,0,0,0,.93-.3v.93a3.86,3.86,0,0,1-.89.29A7.11,7.11,0,0,1,38.67,146.08Zm-.22-4.73a1.23,1.23,0,0,0-.92.35,1.63,1.63,0,0,0-.42,1h2.58a1.42,1.42,0,0,0-.34-1A1.17,1.17,0,0,0,38.45,141.35Z"></path>
  <path class="cls-6" d="M43.45,146H42.24v-7.6h1.21Z"></path>
  <path class="cls-6" d="M47.08,146.08a2,2,0,0,1-1.66-.73,3.89,3.89,0,0,1,0-4.13,2,2,0,0,1,1.67-.74,2,2,0,0,1,1.7.79h.06c0-.3-.07-.61-.08-.92v-2H50V146H49l-.21-.71h0A2,2,0,0,1,47.08,146.08Zm.32-.93a1.33,1.33,0,0,0,1.09-.4,2,2,0,0,0,.34-1.29v-.16a2.3,2.3,0,0,0-.34-1.45,1.38,1.38,0,0,0-1.1-.43,1.16,1.16,0,0,0-1,.49,2.45,2.45,0,0,0-.34,1.4,2.35,2.35,0,0,0,.33,1.37,1.15,1.15,0,0,0,1,.47Z"></path>
  <path class="cls-7" d="M649.13,143.37v-7.14h1.23v6.14h3.17v1Z"></path>
  <path class="cls-7" d="M658.24,143.37l-.24-.75h0a2.42,2.42,0,0,1-.82.67,2.77,2.77,0,0,1-1.07.18,1.84,1.84,0,0,1-1.31-.43,1.57,1.57,0,0,1-.46-1.21,1.39,1.39,0,0,1,.65-1.26,3.77,3.77,0,0,1,2-.47h1v-.29a.91.91,0,0,0-1-1,2.63,2.63,0,0,0-.84.13,7.08,7.08,0,0,0-.77.28l-.38-.82a4,4,0,0,1,1-.35,5.57,5.57,0,0,1,1-.11,2.49,2.49,0,0,1,1.63.44,1.7,1.7,0,0,1,.55,1.42v3.63Zm-1.79-.78a1.46,1.46,0,0,0,1-.35,1.21,1.21,0,0,0,.4-1v-.47h-.73a2.43,2.43,0,0,0-1.24.28.82.82,0,0,0-.38.74.7.7,0,0,0,.22.55A1,1,0,0,0,656.45,142.59Z"></path>
  <path class="cls-7" d="M664.79,143.37l-.17-.7h-.06a1.73,1.73,0,0,1-.72.59,2.42,2.42,0,0,1-1.06.21,2.1,2.1,0,0,1-1.54-.49,2,2,0,0,1-.51-1.48V138H662v3.33a1.36,1.36,0,0,0,.27.93,1,1,0,0,0,.83.31,1.36,1.36,0,0,0,1.12-.43,2.38,2.38,0,0,0,.35-1.45V138h1.21v5.4Z"></path>
  <path class="cls-7" d="M670.3,138.84h-1.39v4.53H667.7v-4.53h-.93v-.54l.93-.35v-.35a1.93,1.93,0,0,1,.47-1.42,2,2,0,0,1,1.44-.46,4.15,4.15,0,0,1,1.26.2l-.32.87a3.09,3.09,0,0,0-.85-.14.68.68,0,0,0-.6.25,1.15,1.15,0,0,0-.19.72V138h1.39Z"></path>
  <path class="cls-7" d="M675.05,143.37h-4.3v-.7l2.86-3.82h-2.69V138H675v.8l-2.81,3.72h2.89Z"></path>
  <path class="cls-7" d="M678.76,143.47a2.81,2.81,0,0,1-2.07-.73,2.75,2.75,0,0,1-.75-2,3,3,0,0,1,.69-2.08,2.49,2.49,0,0,1,1.91-.75,2.37,2.37,0,0,1,1.77.64,2.45,2.45,0,0,1,.65,1.79V141h-3.78a1.73,1.73,0,0,0,.45,1.21,1.57,1.57,0,0,0,1.18.42,4.91,4.91,0,0,0,.94-.09,5,5,0,0,0,.93-.3v.93a3.86,3.86,0,0,1-.89.29A7.11,7.11,0,0,1,678.76,143.47Zm-.22-4.73a1.23,1.23,0,0,0-.92.35,1.63,1.63,0,0,0-.42,1h2.58a1.47,1.47,0,0,0-.34-1,1.17,1.17,0,0,0-.9-.35Z"></path>
  <path class="cls-7" d="M682.26,136.54a.64.64,0,0,1,.17-.47.72.72,0,0,1,.51-.17.67.67,0,0,1,.49.17.62.62,0,0,1,.18.47.61.61,0,0,1-.18.46.63.63,0,0,1-.49.17.72.72,0,0,1-.51-.17A.6.6,0,0,1,682.26,136.54Zm1.27,6.83h-1.2V138h1.2Z"></path>
  <path class="cls-7" d="M687.37,142.54a2.93,2.93,0,0,0,.88-.13v.87a2.25,2.25,0,0,1-.51.13,3.68,3.68,0,0,1-.66.06,1.5,1.5,0,0,1-1.71-1.28,1.62,1.62,0,0,1,0-.44v-2.91h-.77v-.51l.83-.42.41-1.14h.74V138h1.61v.87h-1.61v2.89a.73.73,0,0,0,.62.81.49.49,0,0,0,.17,0Z"></path>
  <path class="cls-7" d="M648.56,152.63a7.4,7.4,0,0,1,.4-2.42,6.07,6.07,0,0,1,1.15-2h.58a6.49,6.49,0,0,0-1.17,2,6.95,6.95,0,0,0,1.16,6.71h-.57A5.68,5.68,0,0,1,649,155,7.11,7.11,0,0,1,648.56,152.63Z"></path>
  <path class="cls-7" d="M650.83,157.17a1.84,1.84,0,0,1-.77-.13v-.43a2.78,2.78,0,0,0,.76.1c.83,0,1.24-.43,1.24-1.29v-7.19h.52v7.14a1.56,1.56,0,0,1-1.31,1.79A1.29,1.29,0,0,1,650.83,157.17Z"></path>
  <path class="cls-7" d="M657.91,155.37l-.13-.84h0a2.64,2.64,0,0,1-.86.73,2.46,2.46,0,0,1-1,.21,1.85,1.85,0,0,1-1.28-.4,1.41,1.41,0,0,1-.45-1.11,1.32,1.32,0,0,1,.67-1.2,3.85,3.85,0,0,1,2-.46h1.06V152a1.77,1.77,0,0,0-.32-1.14,1.3,1.3,0,0,0-1-.39,3.63,3.63,0,0,0-1.61.41l-.19-.42a4.56,4.56,0,0,1,1.82-.41,1.85,1.85,0,0,1,1.37.46,2,2,0,0,1,.45,1.41v3.53Zm-2-.34a2,2,0,0,0,1.41-.49,1.75,1.75,0,0,0,.51-1.34v-.53h-1a3.9,3.9,0,0,0-1.68.35,1.1,1.1,0,0,0-.32,1.52.86.86,0,0,0,.14.18,1.43,1.43,0,0,0,.89.28Z"></path>
  <path class="cls-7" d="M664,155.37v-3.44a1.57,1.57,0,0,0-.36-1.16,1.44,1.44,0,0,0-1.1-.37,2,2,0,0,0-1.46.48,2.19,2.19,0,0,0-.46,1.56v2.93h-.51v-7.59h.51v3.09h0a1.71,1.71,0,0,1,.79-.69,2.67,2.67,0,0,1,1.18-.22,1.7,1.7,0,0,1,1.9,1.47,1.48,1.48,0,0,1,0,.47v3.47Z"></path>
  <path class="cls-7" d="M668.48,150a4.76,4.76,0,0,1,.75.07l-.09.47a3,3,0,0,0-.73-.09,1.4,1.4,0,0,0-1.16.58,2.23,2.23,0,0,0-.46,1.45v2.93h-.51v-5.3h.43v1h0a2.21,2.21,0,0,1,.73-.82A1.82,1.82,0,0,1,668.48,150Z"></path>
  <path class="cls-7" d="M672.62,155.47a2.5,2.5,0,0,1-1.89-.71,2.76,2.76,0,0,1-.68-2,3,3,0,0,1,.65-2,2.21,2.21,0,0,1,1.77-.77,1.92,1.92,0,0,1,1.55.66,2.63,2.63,0,0,1,.57,1.77v.4h-4a2.41,2.41,0,0,0,.53,1.67,2,2,0,0,0,1.51.57,4.05,4.05,0,0,0,1.75-.34v.44a4.39,4.39,0,0,1-.87.27A5.26,5.26,0,0,1,672.62,155.47Zm-.15-5.08a1.7,1.7,0,0,0-1.29.51,2.24,2.24,0,0,0-.57,1.46h3.44a2.27,2.27,0,0,0-.42-1.45A1.4,1.4,0,0,0,672.47,150.39Z"></path>
  <path class="cls-7" d="M677.63,152.63a7,7,0,0,1-.39,2.4,5.66,5.66,0,0,1-1.15,1.93h-.57a6.81,6.81,0,0,0,1.56-4.34,7.13,7.13,0,0,0-.41-2.38,6.27,6.27,0,0,0-1.16-2h.58a6.07,6.07,0,0,1,1.15,2A7.48,7.48,0,0,1,677.63,152.63Z"></path>
  <line class="cls-8" x1="418.08" y1="74.35" x2="418.08" y2="94.35"></line>
  <line class="cls-8" x1="473.73" y1="104.55" x2="473.73" y2="124.55"></line>
  <line class="cls-8" x1="531.87" y1="133.61" x2="531.87" y2="153.61"></line>
  <line class="cls-8" x1="587.52" y1="163.93" x2="587.52" y2="183.93"></line>
  <line class="cls-8" x1="642.83" y1="193.26" x2="642.83" y2="213.26"></line>
  <polygon class="cls-9" points="179.29 106.53 72.64 106.53 72.64 121.31 179.29 121.31 183.91 113.92 179.29 106.53"></polygon>
  <g class="cls-10">
    <polygon class="cls-9" points="72.64 106.53 180.21 106.53 183.91 113.92 179.29 121.31 72.64 121.31 72.64 106.53"></polygon>
  </g>
  <polygon class="cls-11" points="237.6 136.24 72.64 136.24 72.64 151.02 237.6 151.02 242.22 143.37 237.6 136.24"></polygon>
  <g class="cls-12">
    <polygon class="cls-11" points="72.64 136.24 237.6 136.24 242.22 143.37 237.6 151.02 72.64 151.02 72.64 136.24"></polygon>
  </g>
  <polygon class="cls-13" points="123.82 76.83 72.64 76.83 72.64 91.61 123.82 91.61 128.43 84.11 123.82 76.83"></polygon>
  <g class="cls-14">
    <rect class="cls-15" x="72.64" y="76.82" width="55.79" height="14.78"></rect>
  </g>
  <polygon class="cls-16" points="348.71 196.01 72.64 196.01 72.64 210.79 348.71 210.79 353.32 203.4 348.71 196.01"></polygon>
  <g class="cls-17">
    <polygon class="cls-16" points="72.64 196.01 348.71 196.01 353.32 203.4 348.71 210.79 72.64 210.79 72.64 196.01"></polygon>
  </g>
  <polygon class="cls-18" points="291.62 166.3 72.64 166.3 72.64 181.08 291.62 181.08 296.24 173.69 291.62 166.3"></polygon>
  <g class="cls-19">
    <polygon class="cls-18" points="72.64 166.3 291.62 166.3 296.24 173.69 291.62 181.08 72.64 181.08 72.64 166.3"></polygon>
  </g>
  <g class="cls-20">
    <rect class="cls-21" x="301.96" y="166.3" width="284.48" height="14.78"></rect>
  </g>
  <g class="cls-22">
    <rect class="cls-23" x="246.31" y="136.59" width="285.02" height="14.78"></rect>
  </g>
  <g class="cls-24">
    <rect class="cls-25" x="357.27" y="196.01" width="285.53" height="14.78"></rect>
  </g>
  <g class="cls-26">
    <rect class="cls-27" x="132.52" y="76.82" width="285.19" height="14.78"></rect>
  </g>
  <g class="cls-28">
    <rect class="cls-29" x="188.17" y="106.53" width="285.19" height="14.78"></rect>
  </g>
</svg>
