<svg id="Layer_1" data-name="Layer 1" xmlns="http://www.w3.org/2000/svg" viewBox="0 0 287.13 393.99"><defs><style>.cls-1{fill:#b1b2b3;}.cls-2{fill:#f28b00;}</style></defs><title>UBAE_logo</title><path class="cls-1" d="M95.42,195.92c.08-2.61-6.07-7-11.89-11.17,2.61,3.38,5.15,6.39,6.6,7.48,1.21.9.81.8,1.24,1.64l.59.95c2.14,3.4,2.78,6.8.37,10.15.49,3.6-.63,1.65.14,3.82,1.13,3.16-.42,6.93-1.22,9.39s-1.42,1.38-1.42,1.38a22,22,0,0,1-5.23-5.14c.73,5.52,6,9,6,9S94.31,216,95,213.8s.12-3.5-.37-7.1c2.48-5.38,2.28-6.19,1.46-10Z"/><path class="cls-1" d="M130.1,82a88.22,88.22,0,0,1-27.4-3.55c-26-7.87,12.66,42.34,3.62,49.76,13-8.26-25.13-53.76-1.7-47.09a86.68,86.68,0,0,0,22.1,3C117.81,88.26,109,93.2,113.85,95c8.8,3.23,23.66,17.86,23.66,17.86l.35-.22c-2.41-2.7-14.44-15.89-21.19-18.36-4.91-1.8,7.45-7.65,16-12.39m26.39-1.24c.06,0,9-2.19,9-2.24s-9.44,1.72-21.92,2.7l-.06,0a42.52,42.52,0,0,0,19.67,8.74c-9.48,7.85-18.37,15.48-23.34,19.78a288.48,288.48,0,0,0,27.33-20.16,74.36,74.36,0,0,1-20.94-6.93c3.83-.58,7.32-1.26,10.21-1.93"/><path class="cls-1" d="M140.51,86V86s-16.82,7.49-12.68,9S139,103.33,139,103.33a145.18,145.18,0,0,0,15.17-11c-6.3-1.12-9.31-4.77-11.14-6,1.19,1.46,3,5.59,8.22,6.52l-12.11,10.39s-3.53-6.15-9.39-8.24c-3.11-1.14,8.77-8,10.78-9"/><path class="cls-1" d="M234.38,86.44s5.58,23.84-4.87,40.34,5.64-4.7,4.87-40.34"/><path class="cls-1" d="M11.71,181c.12,1.73.22,2.8.22,2.8S-1,152.27,13.67,121.65c13.92-29.06,41.06-31.77,43.8-32C47,92.25,27.93,100,16.73,123.44c-10.63,22.2-8,44.8-5,57.59"/><path class="cls-1" d="M.93,137.73c-.29,1.17-.46,1.91-.46,1.91s-4.11-23.59,12-40.46C27.67,83.35,47.9,87.28,50.36,87.83c-7.42-.71-21.45.09-33.76,13C4.89,113,1.73,128.58.93,137.73"/><path class="cls-1" d="M263.3,157.75c-1.37-3-7.17-4.15-12.42-5.9a26,26,0,0,0,2.09,1.64c5.53,3.86,6.38,2.87,6.38,4.87s1.7,24.52,3,29.18.91,8.82-3,11.86c-.67,4.33-1.3,1.69-1.14,4.46.23,4-2.86,7.87-4.63,10.43s-2.13,1.12-2.13,1.12a26.61,26.61,0,0,1-4.32-7.75c-1,6.64,3.92,12.51,3.92,12.51s6.83-7.34,8.32-9.67,1.33-4,2-8.33c5-5.66,5.33-7.66,4-12.33s-1.24-30.27-2.06-32.09m-8.22,11.65a29.13,29.13,0,0,1,1.38,3.8,28.45,28.45,0,0,0-2.16-11.44c-2.07-3.62-2.08-1.34-5.23-4-10.21-3.55-28.89-.73-34.79-3.68,5.05,4.52,29.5,5.46,35,7.44,3.67,3.22,3.07,4.35,5.78,7.89m-83.21,60.09c2.12-7.61,9.75-35.17,13.58-51.15,3.29-20.49,10.5-19.8,25.29-23.64-.12-.21-.08-.1-.12-.35-10,3.62-23-3.45-26.34,17.35-3.4,14.21-8.68,33.76-11.44,46a35.51,35.51,0,0,0-1,11.81M86.75,164.65c10-3.58,13.71-11.32,23.42-23.34,16.59,16.48,56.89,10.57,69.58,8.22.12-.47-.18-.14-.18-.14s-50.76,5-70.57-14.72c-9.71,12-11.72,22.24-21.74,25.82-7.69,11.08-10.73,15.4-10.73,15.4s.21.64.57,1.68c2.25-2.77,5.58-7,9.65-12.92M56.49,196c-3.16,5.89-10.35,19.22-10.84,20.73-1.81,5.67-.61,8-.61,8l.08.08c.76-1.87,6.88-16.73,10.88-24.2,3.69-5.63,12.29-11.31,16-17.22,3,.85,6.12,5.76,9.92,11.21,1.62,2.32,3.2,2.93,3.38,4.46l1.89,2.77s1.06-1.28,0-3.72c-1.23-2.82-4.79-5.06-7.16-8.1-4.07-5.25-6.2-8.57-9.19-9.42-3.69,5.91-10.64,9.73-14.33,15.36m10.92-58.71c-4.23-13.88-12.3-27.83-3.33-46.57.06-.15.13-.34.19-.51a21.56,21.56,0,0,0-3.85,6.21C51.5,115,64.2,129.84,68.5,143.66a26.56,26.56,0,0,0-1.09-6.42m-.35,39.26s.17-.15-.62-.18l.21.18Zm-1.19-.18h.57c-1.65-1.37-12.93-11-7.89-13.71a18.78,18.78,0,0,0,4.93-4c-2.68,1.62-5.64,2.75-7.48,4.3-6.28,5.3,7.49,12.27,9.87,13.42M37.56,230.57a18.08,18.08,0,0,1,2.77-11.92c3.49-3.47,6-10.06,7.77-17.09-3.63,7.34-8.54,15.16-10.28,18.92-3.36,4.9-1.4,8.59-.26,10.09"/><path class="cls-1" d="M174.77,39.77c-.93,1.17-1.49,1.91-1.49,1.91s10.9-28,36.81-38.37c24.58-9.83,41.43,5.21,43.1,6.78-7.4-4.85-22.61-11.68-42.41-3.76-18.78,7.52-30.33,23.48-36,33.44"/><path class="cls-1" d="M181.56,85.06c-.06,1.5-.08,2.43-.08,2.43s-7.21-28.23,7-53.35c13.53-23.83,34.95-23.91,37.11-23.86-8.44,1.34-24,6.46-34.89,25.66-10.32,18.21-10.34,37.87-9.18,49.12"/><path class="cls-1" d="M165.5,132a10.65,10.65,0,0,1,2-7.19c-3.57,2-4.34,7.65-4.34,7.65s-.12.12.72.35,1.61-.81,1.61-.81"/><path class="cls-1" d="M155.31,132.18a10.59,10.59,0,0,1,2-7.19c-3.58,2-4.35,7.65-4.35,7.65s-.12.13.72.35,1.62-.81,1.62-.81"/><path class="cls-1" d="M145.1,131.64a10.61,10.61,0,0,1,2-7.19c-3.57,2-4.34,7.65-4.34,7.65s-.12.12.72.35,1.62-.81,1.62-.81"/><path class="cls-1" d="M134.83,130.77a10.64,10.64,0,0,1,2-7.19c-3.57,2-4.34,7.65-4.34,7.65s-.12.12.72.35,1.61-.81,1.61-.81"/><path class="cls-1" d="M124.77,130.5a10.61,10.61,0,0,1,2-7.19c-3.57,2-4.34,7.65-4.34,7.65s-.12.12.72.35,1.62-.81,1.62-.81"/><path class="cls-1" d="M115.63,131.3a10.64,10.64,0,0,1,1.48-7.32c-3.42,2.29-3.77,7.94-3.77,7.94s-.11.14.74.3,1.55-.92,1.55-.92"/><path class="cls-1" d="M.89,231.57H11.05a7.9,7.9,0,0,1,5.72,1.94,5,5,0,0,1,1.5,3.72v.06A5.1,5.1,0,0,1,15.39,242c2.53,1,4.09,2.44,4.09,5.37v.07c0,4-3.25,6-8.18,6H.89ZM10,240.42c2.12,0,3.46-.69,3.46-2.32V238c0-1.44-1.12-2.25-3.15-2.25H5.58v4.63Zm1.28,8.81c2.12,0,3.4-.75,3.4-2.38v-.06c0-1.47-1.09-2.37-3.56-2.37H5.58v4.81Z"/><path class="cls-1" d="M73.61,231.42H78l9.38,22h-5l-2-4.91H71.14l-2,4.91H64.23Zm5.06,12.87-2.91-7.09-2.9,7.09Z"/><path class="cls-1" d="M133.44,231.57h4.44L148.13,245V231.57h4.75v21.88h-4.09l-10.6-13.91v13.91h-4.75Z"/><path class="cls-1" d="M198.9,242.57v-.06a11.12,11.12,0,0,1,11.41-11.31,11.28,11.28,0,0,1,8.62,3.37l-3.06,3.53a8.09,8.09,0,0,0-5.6-2.47c-3.68,0-6.34,3.07-6.34,6.82v.06c0,3.75,2.59,6.87,6.34,6.87,2.5,0,4-1,5.75-2.56l3.07,3.1a11.2,11.2,0,0,1-9,3.9A11,11,0,0,1,198.9,242.57Z"/><path class="cls-1" d="M273.09,231.42h4.43l9.38,22h-5l-2-4.91h-9.25l-2,4.91h-4.91Zm5.06,12.87-2.91-7.09-2.9,7.09Z"/><path class="cls-1" d="M.75,307.21V263.9H17.42v42.88c0,12.34,6.17,18.73,16.35,18.73s16.35-6.17,16.35-18.19V263.9H66.79v42.77c0,23-12.88,34.22-33.24,34.22S.75,329.52.75,307.21Z"/><path class="cls-1" d="M76.65,263.9h35.19c8.66,0,15.48,2.39,19.81,6.72a17.38,17.38,0,0,1,5.2,12.88v.22c0,8.55-4.55,13.32-10,16.35,8.77,3.35,14.18,8.44,14.18,18.62v.22c0,13.86-11.26,20.79-28.37,20.79h-36Zm31.61,30.65c7.37,0,12-2.39,12-8v-.21c0-5-3.9-7.8-10.94-7.8H92.89v16Zm4.44,30.53c7.36,0,11.8-2.6,11.8-8.23v-.22c0-5.09-3.79-8.23-12.34-8.23H92.89v16.68Z"/><path class="cls-1" d="M174.63,263.36H190l32.48,76.34H205.06l-6.93-17h-32l-6.93,17h-17ZM192.17,308,182.1,283.39,172,308Z"/><path class="cls-1" d="M229.42,263.9h57.17v14.84H246v15.37h35.73V309H246v15.91h41.15V339.7H229.42Z"/><path class="cls-1" d="M175.9,131.86a10.65,10.65,0,0,1,2-7.19c-3.58,2-4.34,7.65-4.34,7.65s-.12.12.72.35,1.61-.81,1.61-.81"/><path class="cls-1" d="M174.84,78.09s.15,9.79,6.87,34c.73,2.63,4.72,11.32-3.31,11.18-7.45.58-33.22-1.4-38.18-1.54s-20.41-1.43-24.35,4.12c-.36-2.53,7.26-7.19,29.61-5.29,22.05,1.31,37.1,3.94,35.06-5.11C179.08,107,174.11,90.65,174.84,78.09Z"/><path class="cls-1" d="M233.72,74s-2.57-15.19,2.15-17.86a11.2,11.2,0,0,1,5.13-.31s4.62,11.7,14.68,18.68c1.85,1.65,1.85,2.06,1.85,2.06s-14.47-6.06-19.2-16.53c-1.54.1-3,.61-3.79,3.28S233.72,74,233.72,74Z"/><path class="cls-1" d="M259.38,12.75l3.8-8.52s1,0,1.23,1.95c.31,2.25,1.64,10.47-1.13,12.11,1.64,1.95,7,11.19,6.67,17.25-2.46-2-2.15-3.29-3.9-8.11C264.31,22.19,260.3,14.8,259.38,12.75Z"/><path class="cls-1" d="M270.19,42.37c-.24-2.53.38-2.11.38-2.11s1.47,10.19,7.8,24.84c3.28,8,7,13.34,2.46,18.89-2.77,3-3.9,4.31-5.75,3.9a7.58,7.58,0,0,0-4.2.2c-1.54.11-9.86.83-10.58-8,.1-.62.72.1,1.23.92.93.92,2.67,2.77,7.91.72,2.26,2.16,2.57,3.8,4.62,3.59,1.84-.41,8.11-4.21,5.54-12.52s-6.47-15.5-7.8-20.94C271.42,49.53,270.39,44.56,270.19,42.37Z"/><path class="cls-1" d="M261.65,35.57h.72c1.75,3.61,3.8,6.92,3.84,12.24-1.91,3.59-6.4-2.18-2.4-2.88A65.82,65.82,0,0,0,261.65,35.57Z"/><path class="cls-1" d="M266.06,47.12a.13.13,0,0,1,0,.06,10.93,10.93,0,0,1-3.25-1.64c-.13,1.27.1,1.8,1.09,3a2.57,2.57,0,0,0,2.2-1.31A.78.78,0,0,0,266.06,47.12Z"/><path class="cls-1" d="M264.09,45.06a2.63,2.63,0,0,1,2,2.06c-.18-3.54-2-8.12-4.17-11.42Z"/><path class="cls-2" d="M9.74,369.23s-4.2,3.56-5.56,4.46c-1.42,1.17-4,2.91-2,7.76C3.73,384,4.25,385,10,385.2c6.07,0,26,.06,26,.06s3.36-.71.9-2.2c-2.32-2-8.72-6.26-5.88-9.3,1.1-1.23,4.14.13,8.34,4.78,4.33,4,6.33,6.27,9.24,5.82,2.72-.07,5-1.55.91-2.52s-9.44-6.79-13.19-10.09-5.43-6.26-9.17-2.45c-2.33,2.58-3.62,3,1.22,8.85.91,1.23,1.36,3.49-.64,3.62s-19-.19-19-.19c-2.2-.78-4.27-1.17-3.17-5.11C7,374.92,11.23,371.37,9.74,369.23Z"/><path class="cls-2" d="M20.05,391.14c0,1.14-1.21,2.07-2.71,2.07s-2.72-.93-2.72-2.07,1.22-2.07,2.72-2.07S20.05,390,20.05,391.14Z"/><path class="cls-2" d="M27.29,391.14c0,1.14-1.22,2.07-2.72,2.07s-2.71-.93-2.71-2.07,1.22-2.07,2.71-2.07S27.29,390,27.29,391.14Z"/><path class="cls-2" d="M97.72,391.14c0,1.14-1.22,2.07-2.72,2.07s-2.71-.93-2.71-2.07,1.21-2.07,2.71-2.07S97.72,390,97.72,391.14Z"/><path class="cls-2" d="M104.77,391.14c0,1.14-1.22,2.07-2.72,2.07s-2.71-.93-2.71-2.07,1.21-2.07,2.71-2.07S104.77,390,104.77,391.14Z"/><path class="cls-2" d="M192.4,355.33c0,1.14-1.22,2.07-2.72,2.07s-2.71-.93-2.71-2.07,1.21-2.07,2.71-2.07S192.4,354.19,192.4,355.33Z"/><path class="cls-2" d="M65.24,391.14c0,1.14-1.21,2.07-2.71,2.07s-2.71-.93-2.71-2.07,1.21-2.07,2.71-2.07S65.24,390,65.24,391.14Z"/><path class="cls-2" d="M60,349.59l-5.69,5.94s-.45.91.39,1,2.52-.33,2.46,1c.06,1.61-.46,26.62-.46,26.62s1.17.91,7.37.65c4.85.06,6.85,1.55,6.4-4.78.26-6.08.32-11.12.32-11.12s-4.52,1.62-5,3c-.06,1.35.39,1.55,1.88,2.52,0,.64-.13,5.3-.13,5.3-.52.64-.2,2.07-3.94,1.68-3.24-.07-3.43-1.23-3.56-4.14.13-2.71.26-27.21.26-27.21S60.6,349.46,60,349.59Z"/><path class="cls-2" d="M86.32,372.27l.23,0,.23,0s0,.61,0,1.71-.05,2.68-.11,4.62a3.56,3.56,0,0,0,2,3.11,3.47,3.47,0,0,0,1.65.25s4,0,8.49,0,9.44,0,11.35-.16a5.43,5.43,0,0,0,3.34-1,1.59,1.59,0,0,0,.54-1.06c0-.16.08-1.19.12-2.37s.07-2.51.07-3.25-.92-.86-1.81-.86-1.74.08-1.61-.24a31.16,31.16,0,0,1,3.75-3.41c1.79-1.5,3.55-2.92,3.55-2.92s-.05,2.71-.09,5.77-.07,6.47,0,7.86c1.36,1.26,2.21,1.23,2.73.88a1.94,1.94,0,0,0,.7-1s.16-3.83.33-8,.34-8.58.38-9.81a6,6,0,0,0-.21-2.51,1.29,1.29,0,0,0-1.28-.72,2.22,2.22,0,0,1-1.7-.55,1.52,1.52,0,0,1-.3-.94c0-.29,2-2.27,4-4.19s4-3.75,4-3.75-.1,6.88-.19,14.29-.16,15.37-.13,17.5-.58,3-1.21,3.31a1.73,1.73,0,0,1-1.25.12H112.51c-6.22,0-13.52,0-17.85.05-3.84-.19-6,.26-7.41,1.06a12.21,12.21,0,0,0-3.19,3.14,8.9,8.9,0,0,1-3.2,3.87,5.59,5.59,0,0,1-3,.92c-1.07,0-1.49-.12-1.36-.33a7.42,7.42,0,0,1,1.94-1.1c3-1.26,4.15-2.86,4.52-4.23a3.58,3.58,0,0,0-.38-2.88c-.49-.35-2.85-.5-5.09-.55s-4.35,0-4.35,0l6.69-6.27,6.69-6.27M83,379.07a3.21,3.21,0,0,0-1.92.61,1.74,1.74,0,0,0,0,2.92,3.33,3.33,0,0,0,3.84,0,1.73,1.73,0,0,0,0-2.92A3.21,3.21,0,0,0,83,379.07Z"/><path class="cls-2" d="M135.3,348.68l-6.63,5.86a.79.79,0,0,0,.63,1c.92.21,1.34-.14,1.2,1.91s-.21,31.86-.21,31.86-1.27,3.74.57,2.12,6.34-6.07,6.34-6.07,0-1.05-1.62-.84C135.51,383.09,135.3,348.68,135.3,348.68Z"/><path class="cls-2" d="M156.31,368.49a12.23,12.23,0,0,1-1.13,3.46,7.78,7.78,0,0,1-1.74,2.15,8.75,8.75,0,0,0-1.79,2.15,2.41,2.41,0,0,0,1.21,2.85,4.3,4.3,0,0,0,1.68.46l14.88.11,16.35.1c.95.11,1.47,1.45,1.76,2.94a37,37,0,0,1,.43,3.83,2,2,0,0,0,.51,1.42,3.23,3.23,0,0,0,1.89.41,2.4,2.4,0,0,0,1.73-.52,1,1,0,0,0,.31-.53s0-1,0-2.54,0-3.53,0-5.5c.21-1.48,0-2.17-.19-2.48a.55.55,0,0,0-.51-.27l-4,0c-2.16,0-4.61-.09-5.77-.16-.95-.25-.95-.86-.72-1.42a4.23,4.23,0,0,1,.72-1l7.22-6.06,7.23-6.06s0,5.37,0,11.19,0,12.07,0,13.83a5.21,5.21,0,0,1-1.32,3.93,6.3,6.3,0,0,1-4.18,1.43,6.14,6.14,0,0,1-4.42-1.19,5.27,5.27,0,0,1-1.71-3.88,4.14,4.14,0,0,0-1.29-3.14,2.65,2.65,0,0,0-1.18-.6s-6.31,0-13.06,0-13.94-.08-15.7-.18a8.18,8.18,0,0,1-4.41-2.27,14,14,0,0,1-2.5-3.16c-.5-.85.26-1.87,1.41-2.93s2.68-2.15,3.73-3.13a10.52,10.52,0,0,0,2-2.22,5.28,5.28,0,0,0,.58-1.73,1.54,1.54,0,0,1,.62-1.26.89.89,0,0,1,.51-.15C156.3,366.35,156.48,367.31,156.31,368.49Zm36.85,1.74a3.55,3.55,0,0,0-4.39,0,2.32,2.32,0,0,0,0,3.68,3.55,3.55,0,0,0,4.39,0,2.33,2.33,0,0,0,0-3.68Z"/><path class="cls-2" d="M202.85,376.18c-.89-.42.42-1,1.94-2.41,1.57-.95,1.36-.95,2.83.36a41.89,41.89,0,0,0,4.15,5.35,35,35,0,0,0,5.66.48c2.47.15,2.57-1.68,2.57-3.52.11-1.62,0-2.25-.79-3.25a1.45,1.45,0,0,1-.42-2.15,60.42,60.42,0,0,0,5.72-5.09c.42.16.32.95-.26,2.57-.58,2.47,1.78,2.05,1.78,2.05s32.42.15,36.2.05c3.88.47,6.45,5.87,7.29,8,1,2,2.73.79,4.25-.47s12.69-11,12.69-11-.16,17.57-.31,17.72c-.32-.63-2.42-1.67-2.42-1.67l-19.35.1-37.09-.21s-12,.05-13.48.42c-1.31.47-6.19,5-7.45,6-1.41.69-2.88.84-3.46.21-.36-.89,1.21-.89,3.36-1.89a5.46,5.46,0,0,0,3.3-5.19c-.15-3.46-5-6.35-5-6.35A2.24,2.24,0,0,1,202.85,376.18ZM226,374a2.52,2.52,0,0,0-2.16,2.41c-.1,2.16.2,2.73,2.21,3,2.2.06,34.91,0,34.91,0s1.95.47,2.1-3.08c-.05-1-1.18-2.2-3.08-2.31C257.53,374.06,226,374,226,374Zm55.58.44a2.18,2.18,0,1,0,2.56,2.14A2.38,2.38,0,0,0,281.59,374.39Z"/></svg>