<?xml version="1.0" encoding="utf-8"?>
<!-- Generator: Adobe Illustrator 23.1.1, SVG Export Plug-In . SVG Version: 6.00 Build 0)  -->
<svg version="1.1" id="Calque_1" xmlns="http://www.w3.org/2000/svg" xmlns:xlink="http://www.w3.org/1999/xlink" x="0px" y="0px"
	 viewBox="0 0 255.1 164.7" style="enable-background:new 0 0 255.1 164.7;" xml:space="preserve">
<style type="text/css">
	.st0{fill:#182765;}
	.st1{fill:#DC9E00;}
</style>
<g>
	<polygon class="st0" points="0,0 0,66.2 13.3,66.2 13.3,13.3 13.9,13.3 241.4,13.3 241.8,13.3 241.8,66.2 255.1,66.2 255.1,0 	"/>
	<polygon class="st1" points="0,164.7 0,98.5 13.3,98.5 13.3,151.4 13.9,151.4 241.4,151.4 241.8,151.4 241.8,98.5 255.1,98.5 
		255.1,164.7 	"/>
	<path class="st1" d="M100.9,32.6c2,0,3.7-1.7,3.7-3.7c0-2.1-1.7-3.7-3.7-3.7s-3.7,1.7-3.7,3.7C97.2,30.9,98.9,32.6,100.9,32.6z"/>
	<path class="st1" d="M131.2,53.5v-2c0,0-4.6-4.6,2.1-9.2s6-3.9,6-3.9V50v8.4v6.8H115V30.1c0,0-4.6-4.6,2.1-9.2c6.7-4.6,6-3.9,6-3.9
		v41.4h8.2v-4.9H131.2z"/>
	<path class="st1" d="M219.3,50l-2.4-5.2l10.3-7.8v28.1H165v6.1c0,15.7-12.9,10.1-12.9,10.1c6.8-3.7,5.6-10,5.6-10v-6.2h-10.6v-6.8
		c0-9.8,18.1-14.5,18.1-14.5v14.5h54.2V50H219.3z M153.6,58.3h4.2v-4.9C157.7,53.4,153.6,55.2,153.6,58.3z"/>
	<path class="st1" d="M101.9,54H91.5v-7.8c0-9.1,18.4-13.9,18.4-13.9v32.8H29.8v-6.8V38.7l9.9,9.2c0,0-1.9,0.4-1.9,10.4h64.1V54z
		 M98.7,46.7h3.1v-4C98.4,42.7,98.7,46.7,98.7,46.7z"/>
	<g>
		<path class="st1" d="M128,77.1c2.1,0,3.7-1.7,3.7-3.7s-1.7-3.7-3.7-3.7s-3.7,1.7-3.7,3.7S126,77.1,128,77.1z"/>
		<path class="st1" d="M194.8,77.1c2.1,0,3.7-1.7,3.7-3.7s-1.7-3.7-3.7-3.7s-3.7,1.7-3.7,3.7C191.1,75.4,192.7,77.1,194.8,77.1z"/>
		<path class="st1" d="M204.7,77.1c2,0,3.7-1.7,3.7-3.7s-1.7-3.7-3.7-3.7s-3.7,1.7-3.7,3.7S202.6,77.1,204.7,77.1z"/>
		<rect x="76.3" y="87.7" class="st1" width="3.1" height="15.4"/>
		<rect x="134.8" y="87.7" class="st1" width="3.1" height="15.4"/>
		<rect x="184.8" y="87.7" class="st1" width="3.1" height="15.4"/>
	</g>
	<path class="st0" d="M39.4,114.8c0,0-0.5,6.2,8.2,6.5h0.8c8.7-0.4,8.2-6.5,8.2-6.5l-0.1-2.8V89.8L55,87.7h8.7l-1.4,2.1v25.8
		c0,0,0.8,10.9-14.6,11.6h-1.4c-15.4-0.7-14.6-11.6-14.6-11.6V89.8l-1.4-2.1h10.4l-1.5,2.1v22.6L39.4,114.8z"/>
	<path class="st0" d="M94.8,89.8l-1.4-2.1h10.4h8.5c0,0,10.9,0,11.4,9.3v0.9c-0.6,9.2-11.4,9.3-11.4,9.3h2.6c0,0,10.6,0,11.2,9v0.9
		c-0.5,9-11.2,9-11.2,9h-11.1H93.4l1.4-2.1V89.8z M102.7,121.4h10.5c0,0,4.6,0,4.9-5.8V115c-0.4-5.9-4.9-5.9-4.9-5.9h-10.5V121.4z
		 M102.7,103.9h8.2c0,0,4,0,4.3-5.1v-0.5c-0.3-5.1-4.3-5.1-4.3-5.1h-8.2V103.9z"/>
	<path class="st0" d="M184.6,127.3l-1.9-2.1L167.8,88h-9.4l0.7,1.8l-13.7,35.4l-1.9,2.1h9.2l-1.5-2.1l4-10.4H171l4.2,10.4l-1.5,2.1
		L184.6,127.3L184.6,127.3z M157.1,110l5.9-15.3l6.1,15.3H157.1z"/>
	<polygon class="st0" points="212.4,109.9 223.8,109.9 225.8,111.2 225.8,102.8 223.8,104.4 212.5,104.4 211.8,104.4 211.8,93.5 
		225.7,93.5 227.4,94.9 227.4,87.7 202.6,87.7 203.9,89.8 203.9,101.4 203.9,113.5 203.9,125.1 202.6,127.2 213,127.2 211.5,125.1 
		211.5,109.9 	"/>
</g>
</svg>
