<?xml version="1.0" encoding="UTF-8"?>
<svg xmlns="http://www.w3.org/2000/svg" xmlns:xlink="http://www.w3.org/1999/xlink" id="Ebene_1" data-name="Ebene 1" viewBox="0 0 850 263">
  <defs>
    <style>.cls-1,.cls-10,.cls-13,.cls-14,.cls-15,.cls-16,.cls-18,.cls-5,.cls-6,.cls-7,.cls-8,.cls-9{fill:none;}.cls-2{fill:#005091;}.cls-3{fill:#fff;}.cls-4{clip-path:url(#clip-path);}.cls-13,.cls-14,.cls-18,.cls-5,.cls-8,.cls-9{stroke:#005091;}.cls-10,.cls-13,.cls-14,.cls-15,.cls-16,.cls-5,.cls-6,.cls-7,.cls-9{stroke-linecap:round;}.cls-10,.cls-15,.cls-5,.cls-6{stroke-linejoin:round;}.cls-10,.cls-13,.cls-14,.cls-15,.cls-16,.cls-18,.cls-5,.cls-6,.cls-7{stroke-width:1.9px;}.cls-6,.cls-7{stroke:#004f90;}.cls-8{stroke-width:1.93px;}.cls-9{stroke-width:2.04px;}.cls-10,.cls-16{stroke:#f28800;}.cls-11{clip-path:url(#clip-path-4);}.cls-12{clip-path:url(#clip-path-5);}.cls-14,.cls-18{stroke-miterlimit:10;}.cls-15{stroke:#f18606;}.cls-17{clip-path:url(#clip-path-8);}.cls-19{clip-path:url(#clip-path-9);}</style>
    <clipPath id="clip-path">
      <rect class="cls-1" x="5.04" y="121.47" width="97.69" height="55.18"></rect>
    </clipPath>
    <clipPath id="clip-path-4">
      <rect class="cls-1" x="373.87" y="104.59" width="80.99" height="73.45"></rect>
    </clipPath>
    <clipPath id="clip-path-5">
      <rect class="cls-1" x="179.6" y="35.03" width="97.55" height="97.34"></rect>
    </clipPath>
    <clipPath id="clip-path-8">
      <rect class="cls-1" x="186.64" y="163.49" width="83.46" height="82.29"></rect>
    </clipPath>
    <clipPath id="clip-path-9">
      <rect class="cls-1" x="720.81" y="109.2" width="122.31" height="80.55"></rect>
    </clipPath>
  </defs>
  <path class="cls-2" d="M14.33,207.06H6.65V193.5h7.68v1.87H8.87v3.7H14v1.85H8.87v4.26h5.46Z"></path>
  <path class="cls-2" d="M16.71,194.08a1.18,1.18,0,0,1,.32-.9,1.23,1.23,0,0,1,.91-.31,1.21,1.21,0,0,1,.89.31,1.18,1.18,0,0,1,.32.9,1.15,1.15,0,0,1-.32.88,1.21,1.21,0,0,1-.89.32A1.23,1.23,0,0,1,17,195,1.15,1.15,0,0,1,16.71,194.08Zm2.31,13H16.84V196.8H19Z"></path>
  <path class="cls-2" d="M31,207.06H28.8v-6.31a2.75,2.75,0,0,0-.48-1.77,1.84,1.84,0,0,0-1.52-.58,2.42,2.42,0,0,0-2,.81,4.58,4.58,0,0,0-.64,2.74v5.11H22V196.8h1.71l.31,1.35h.11A3,3,0,0,1,25.4,197a4.37,4.37,0,0,1,1.9-.4q3.69,0,3.69,3.75Z"></path>
  <path class="cls-2" d="M36,207.06H33.85V192.63H36Z"></path>
  <path class="cls-2" d="M45.4,207.06,45,205.63h-.07a4.28,4.28,0,0,1-1.5,1.28,4.8,4.8,0,0,1-1.93.34,3.26,3.26,0,0,1-2.36-.82,3.06,3.06,0,0,1-.85-2.31,2.72,2.72,0,0,1,1.18-2.39,6.79,6.79,0,0,1,3.59-.88l1.77-.06v-.55a2.07,2.07,0,0,0-.46-1.47,1.87,1.87,0,0,0-1.42-.48,4.77,4.77,0,0,0-1.51.23,10.58,10.58,0,0,0-1.39.55l-.71-1.56a8.12,8.12,0,0,1,1.83-.67,8.48,8.48,0,0,1,1.87-.22,4.45,4.45,0,0,1,3,.85,3.36,3.36,0,0,1,1,2.68v6.91Zm-3.25-1.48a2.72,2.72,0,0,0,1.91-.66,2.43,2.43,0,0,0,.72-1.87v-.89l-1.32.06a4.61,4.61,0,0,0-2.24.51,1.57,1.57,0,0,0-.7,1.41,1.34,1.34,0,0,0,.41,1.06A1.75,1.75,0,0,0,42.15,205.58Z"></path>
  <path class="cls-2" d="M58.47,196.8V198l-1.75.32a3.15,3.15,0,0,1,.4.8,3.32,3.32,0,0,1,.16,1,3.08,3.08,0,0,1-1.1,2.5,4.6,4.6,0,0,1-3,.91,4.74,4.74,0,0,1-.89-.08,1.23,1.23,0,0,0-.71,1,.56.56,0,0,0,.33.53,2.79,2.79,0,0,0,1.21.18H54.9a4,4,0,0,1,2.58.72,2.54,2.54,0,0,1,.88,2.09,3,3,0,0,1-1.44,2.69,7.54,7.54,0,0,1-4.15.95,5.67,5.67,0,0,1-3.2-.75,2.39,2.39,0,0,1-1.11-2.11,2.25,2.25,0,0,1,.6-1.59,3.24,3.24,0,0,1,1.68-.9,1.6,1.6,0,0,1-.72-.6,1.52,1.52,0,0,1,0-1.84,4,4,0,0,1,1-.79,2.82,2.82,0,0,1-1.29-1.11,3.31,3.31,0,0,1-.5-1.82,3.21,3.21,0,0,1,1.06-2.58,4.38,4.38,0,0,1,3-.92,7.31,7.31,0,0,1,.91.06,6.58,6.58,0,0,1,.72.12Zm-8.06,11.86a1.18,1.18,0,0,0,.64,1.08,3.41,3.41,0,0,0,1.78.38,5.42,5.42,0,0,0,2.66-.51,1.53,1.53,0,0,0,.87-1.35,1,1,0,0,0-.48-.95A3.84,3.84,0,0,0,54.1,207H52.45a2.3,2.3,0,0,0-1.49.44A1.46,1.46,0,0,0,50.41,208.66Zm.94-8.54a2,2,0,0,0,.5,1.49,1.89,1.89,0,0,0,1.42.52c1.26,0,1.89-.68,1.89-2a2.25,2.25,0,0,0-.47-1.54,1.77,1.77,0,0,0-1.42-.54,1.85,1.85,0,0,0-1.43.53A2.26,2.26,0,0,0,51.35,200.12Z"></path>
  <path class="cls-2" d="M64.67,207.25a5,5,0,0,1-3.75-1.4A5.29,5.29,0,0,1,59.57,202a5.81,5.81,0,0,1,1.26-4,4.34,4.34,0,0,1,3.44-1.43,4.25,4.25,0,0,1,3.21,1.23,4.73,4.73,0,0,1,1.18,3.4v1.17H61.82a3.35,3.35,0,0,0,.81,2.3,2.81,2.81,0,0,0,2.14.8,7.5,7.5,0,0,0,1.69-.17,8.41,8.41,0,0,0,1.69-.57v1.77a6.3,6.3,0,0,1-1.62.54A9.41,9.41,0,0,1,64.67,207.25Zm-.4-9a2.21,2.21,0,0,0-1.67.66,3.18,3.18,0,0,0-.74,1.92h4.65a2.82,2.82,0,0,0-.61-1.93A2.12,2.12,0,0,0,64.27,198.27Z"></path>
  <polygon class="cls-3" points="101.03 160.63 101.03 123.18 20.73 123.18 20.73 130.03 27.11 156.21 79.61 160.63 101.03 160.63"></polygon>
  <g class="cls-4">
    <polygon class="cls-5" points="101.03 160.63 101.03 123.18 20.73 123.18 20.73 130.03 27.11 156.21 79.61 160.63 101.03 160.63"></polygon>
  </g>
  <polygon class="cls-3" points="13.15 139.13 13.15 130.03 94.2 130.03 94.2 168.25 81.3 168.25 13.15 139.13"></polygon>
  <polygon class="cls-5" points="13.15 139.13 13.15 130.03 94.2 130.03 94.2 168.25 81.3 168.25 13.15 139.13"></polygon>
  <rect class="cls-3" x="6.75" y="136.88" width="80.6" height="38.06"></rect>
  <g class="cls-4">
    <rect class="cls-6" x="6.75" y="136.88" width="80.6" height="38.06"></rect>
  </g>
  <line class="cls-7" x1="52.57" y1="153.28" x2="35.42" y2="153.28"></line>
  <g class="cls-4">
    <path class="cls-7" d="M55.57,146.26c-.32-.19-.65-.36-1-.52a11.09,11.09,0,0,0-4.75-1.05,11.22,11.22,0,1,0,5.7,20.89c.22-.13.44-.27.65-.42"></path>
  </g>
  <line class="cls-7" x1="52.57" y1="158.58" x2="35.42" y2="158.58"></line>
  <line class="cls-8" x1="131.37" y1="148.51" x2="328.72" y2="148.51"></line>
  <polyline class="cls-9" points="323.17 141.27 330.33 148.53 323.17 155.54"></polyline>
  <rect class="cls-3" x="386.79" y="140.19" width="9.57" height="17.64"></rect>
  <rect class="cls-10" x="386.79" y="140.19" width="9.57" height="17.64"></rect>
  <rect class="cls-3" x="409.36" y="140.19" width="9.57" height="17.64"></rect>
  <rect class="cls-10" x="409.36" y="140.19" width="9.57" height="17.64"></rect>
  <rect class="cls-3" x="431.21" y="140.19" width="9.57" height="17.64"></rect>
  <rect class="cls-10" x="431.21" y="140.19" width="9.57" height="17.64"></rect>
  <rect class="cls-3" x="378.49" y="166.76" width="71.68" height="9.57"></rect>
  <g class="cls-11">
    <rect class="cls-5" x="378.49" y="166.76" width="71.68" height="9.57"></rect>
    <path class="cls-3" d="M376.43,128.65l37.18-22.07a1.47,1.47,0,0,1,1.54,0l37.14,22a1.5,1.5,0,0,1-.76,2.79H377.19a1.49,1.49,0,0,1-.76-2.78"></path>
    <path class="cls-5" d="M376.43,128.65l37.18-22.07a1.47,1.47,0,0,1,1.54,0l37.14,22a1.5,1.5,0,0,1-.76,2.79H377.19a1.49,1.49,0,0,1-.76-2.78Z"></path>
  </g>
  <rect class="cls-5" x="194.7" y="67.83" width="12.16" height="12.16"></rect>
  <rect class="cls-5" x="213.24" y="67.83" width="12.16" height="12.16"></rect>
  <rect class="cls-5" x="231.66" y="67.83" width="12.16" height="12.16"></rect>
  <rect class="cls-5" x="194.7" y="87.09" width="12.16" height="12.16"></rect>
  <rect class="cls-5" x="213.24" y="87.09" width="12.16" height="12.16"></rect>
  <polyline class="cls-5" points="231.66 96.97 231.66 87.09 241.54 87.09"></polyline>
  <g class="cls-12">
    <polyline class="cls-5" points="228.44 106.85 182.06 106.85 182.06 45.49 256.46 45.49 256.46 84.08"></polyline>
  </g>
  <line class="cls-13" x1="195.31" y1="50.94" x2="195.31" y2="39.58"></line>
  <line class="cls-13" x1="207.28" y1="50.94" x2="207.28" y2="39.58"></line>
  <line class="cls-13" x1="219.26" y1="50.94" x2="219.26" y2="39.58"></line>
  <line class="cls-13" x1="231.24" y1="50.94" x2="231.24" y2="39.58"></line>
  <line class="cls-13" x1="243.22" y1="50.94" x2="243.22" y2="39.58"></line>
  <g class="cls-12">
    <line class="cls-14" x1="182.06" y1="60.12" x2="256.46" y2="60.12"></line>
  </g>
  <polyline class="cls-15" points="242.57 109.06 251.18 115.78 264.97 100.38"></polyline>
  <g class="cls-12">
    <path class="cls-15" d="M275.44,109A21.64,21.64,0,1,1,253.8,87.39,21.64,21.64,0,0,1,275.44,109Z"></path>
  </g>
  <path class="cls-2" d="M163.14,23.13H161V9.56h7.65v1.88h-5.46v4.24h5.12v1.88h-5.12Z"></path>
  <path class="cls-2" d="M175.12,23.31a5,5,0,0,1-3.75-1.39A5.31,5.31,0,0,1,170,18.07a5.8,5.8,0,0,1,1.26-4,4.31,4.31,0,0,1,3.44-1.44,4.22,4.22,0,0,1,3.21,1.24,4.72,4.72,0,0,1,1.18,3.39v1.18h-6.84a3.34,3.34,0,0,0,.81,2.29,2.78,2.78,0,0,0,2.14.81,8.13,8.13,0,0,0,1.69-.17,9.61,9.61,0,0,0,1.69-.57v1.77a7.17,7.17,0,0,1-1.62.54A10.3,10.3,0,0,1,175.12,23.31Zm-.4-9a2.21,2.21,0,0,0-1.67.66,3.18,3.18,0,0,0-.74,1.92H177a2.78,2.78,0,0,0-.61-1.92A2.07,2.07,0,0,0,174.72,14.33Z"></path>
  <path class="cls-2" d="M188.29,20.21a2.67,2.67,0,0,1-1.1,2.3,5.19,5.19,0,0,1-3.13.8,7.36,7.36,0,0,1-3.3-.62V20.81a8.2,8.2,0,0,0,3.37.83c1.34,0,2-.4,2-1.21a1,1,0,0,0-.22-.65,2.8,2.8,0,0,0-.73-.54,11.52,11.52,0,0,0-1.42-.63,6.76,6.76,0,0,1-2.4-1.37,2.53,2.53,0,0,1-.63-1.78,2.35,2.35,0,0,1,1.07-2.05,5,5,0,0,1,2.89-.73,8.34,8.34,0,0,1,3.42.73l-.71,1.65a7.52,7.52,0,0,0-2.79-.69c-1.15,0-1.72.33-1.72,1a1,1,0,0,0,.45.82,10,10,0,0,0,2,.92,9,9,0,0,1,1.84.9,2.63,2.63,0,0,1,.86.94A2.81,2.81,0,0,1,188.29,20.21Z"></path>
  <path class="cls-2" d="M194.29,21.55a5.19,5.19,0,0,0,1.6-.25v1.64a4,4,0,0,1-.93.27,6.59,6.59,0,0,1-1.19.1q-3.09,0-3.09-3.26V14.52h-1.4v-1l1.5-.79.74-2.18h1.35v2.29h2.92v1.65h-2.92V20a1.53,1.53,0,0,0,.39,1.16A1.4,1.4,0,0,0,194.29,21.55Z"></path>
  <path class="cls-2" d="M202.23,23.31a5,5,0,0,1-3.74-1.39,5.31,5.31,0,0,1-1.35-3.85,5.85,5.85,0,0,1,1.25-4,4.33,4.33,0,0,1,3.44-1.44A4.19,4.19,0,0,1,205,13.92a4.68,4.68,0,0,1,1.18,3.39v1.18h-6.84a3.34,3.34,0,0,0,.81,2.29,2.8,2.8,0,0,0,2.14.81,8.3,8.3,0,0,0,1.7-.17,9.81,9.81,0,0,0,1.68-.57v1.77a7.1,7.1,0,0,1-1.61.54A10.49,10.49,0,0,1,202.23,23.31Zm-.4-9a2.17,2.17,0,0,0-1.66.66,3.13,3.13,0,0,0-.75,1.92h4.66a2.83,2.83,0,0,0-.62-1.92A2.07,2.07,0,0,0,201.83,14.33Z"></path>
  <path class="cls-2" d="M213.5,23.13V9.56h2.22V21.23h5.74v1.9Z"></path>
  <path class="cls-2" d="M229.82,23.13l-.44-1.43h-.07a4.15,4.15,0,0,1-1.5,1.27,4.62,4.62,0,0,1-1.92.34,3.31,3.31,0,0,1-2.37-.81,3.09,3.09,0,0,1-.84-2.31,2.73,2.73,0,0,1,1.17-2.4,6.81,6.81,0,0,1,3.59-.88l1.78-.05v-.55a2.09,2.09,0,0,0-.46-1.47,1.86,1.86,0,0,0-1.43-.49,5.07,5.07,0,0,0-1.51.23,12.18,12.18,0,0,0-1.39.55l-.71-1.56a7.65,7.65,0,0,1,1.83-.66,8.53,8.53,0,0,1,1.88-.23,4.47,4.47,0,0,1,2.95.85,3.38,3.38,0,0,1,1,2.69v6.91Zm-3.25-1.49a2.72,2.72,0,0,0,1.91-.66,2.4,2.4,0,0,0,.72-1.86v-.89l-1.32.05a4.49,4.49,0,0,0-2.24.52,1.56,1.56,0,0,0-.7,1.41,1.35,1.35,0,0,0,.41,1.06A1.75,1.75,0,0,0,226.57,21.64Z"></path>
  <path class="cls-2" d="M241.47,23.13l-.31-1.35h-.11a3,3,0,0,1-1.3,1.12,4.16,4.16,0,0,1-1.91.41,3.79,3.79,0,0,1-2.78-.92,3.83,3.83,0,0,1-.92-2.82v-6.7h2.2v6.32a2.75,2.75,0,0,0,.48,1.77,1.84,1.84,0,0,0,1.51.59,2.4,2.4,0,0,0,2-.82A4.52,4.52,0,0,0,241,18V12.87h2.19V23.13Z"></path>
  <path class="cls-2" d="M251.27,14.52h-2.51v8.61h-2.19V14.52h-1.68v-1l1.68-.67v-.67a3.71,3.71,0,0,1,.86-2.69A3.48,3.48,0,0,1,250,8.59,7.05,7.05,0,0,1,252.3,9l-.58,1.65a5.08,5.08,0,0,0-1.54-.26,1.28,1.28,0,0,0-1.08.46,2.38,2.38,0,0,0-.34,1.38v.67h2.51Z"></path>
  <path class="cls-2" d="M259.7,23.13h-7.79V21.78l5.19-7.24h-4.87V12.87h7.32v1.52l-5.08,7.07h5.23Z"></path>
  <path class="cls-2" d="M266.22,23.31a5,5,0,0,1-3.75-1.39,5.31,5.31,0,0,1-1.35-3.85,5.85,5.85,0,0,1,1.25-4,4.35,4.35,0,0,1,3.45-1.44A4.22,4.22,0,0,1,269,13.92a4.72,4.72,0,0,1,1.17,3.39v1.18h-6.83a3.38,3.38,0,0,0,.8,2.29,2.82,2.82,0,0,0,2.15.81,8.2,8.2,0,0,0,1.69-.17,9.81,9.81,0,0,0,1.68-.57v1.77a7.1,7.1,0,0,1-1.61.54A10.38,10.38,0,0,1,266.22,23.31Zm-.4-9a2.19,2.19,0,0,0-1.67.66,3.13,3.13,0,0,0-.75,1.92h4.66a2.83,2.83,0,0,0-.61-1.92A2.09,2.09,0,0,0,265.82,14.33Z"></path>
  <path class="cls-2" d="M272.36,10.15a1.22,1.22,0,0,1,.32-.9,1.27,1.27,0,0,1,.92-.32,1.11,1.11,0,0,1,1.21,1.22,1.12,1.12,0,0,1-1.21,1.2,1.23,1.23,0,0,1-.92-.33A1.18,1.18,0,0,1,272.36,10.15Zm2.31,13h-2.18V12.87h2.18Z"></path>
  <path class="cls-2" d="M281.44,21.55a5.28,5.28,0,0,0,1.6-.25v1.64a4.27,4.27,0,0,1-.94.27,6.48,6.48,0,0,1-1.18.1q-3.1,0-3.1-3.26V14.52h-1.4v-1l1.5-.79.75-2.18H280v2.29h2.92v1.65H280V20a1.5,1.5,0,0,0,.4,1.16A1.38,1.38,0,0,0,281.44,21.55Z"></path>
  <line class="cls-16" x1="208.88" y1="225.83" x2="247.42" y2="182.3"></line>
  <g class="cls-17">
    <ellipse class="cls-16" cx="215.36" cy="191.45" rx="9.01" ry="9.18"></ellipse>
    <path class="cls-16" d="M241.38,225.79a9.18,9.18,0,1,0-9-9.18A9.1,9.1,0,0,0,241.38,225.79Z"></path>
    <path class="cls-18" d="M267.64,204.05a39.27,39.27,0,1,1-39.27-39.26A39.27,39.27,0,0,1,267.64,204.05Z"></path>
  </g>
  <path class="cls-2" d="M371.77,217.06l-1.35-3.76h-5.19l-1.33,3.76h-2.33l5.07-13.62h2.41l5.08,13.62Zm-1.94-5.68-1.27-3.69c-.09-.24-.22-.63-.38-1.17s-.28-.92-.34-1.17a19.42,19.42,0,0,1-.74,2.5l-1.22,3.53Z"></path>
  <path class="cls-2" d="M384.52,217.06h-2.19v-6.31a2.81,2.81,0,0,0-.47-1.77,1.86,1.86,0,0,0-1.52-.58,2.41,2.41,0,0,0-2,.81,4.51,4.51,0,0,0-.64,2.74v5.11H375.5V206.8h1.7l.31,1.35h.11a3,3,0,0,1,1.32-1.13,4.36,4.36,0,0,1,1.89-.4q3.69,0,3.69,3.75Z"></path>
  <path class="cls-2" d="M389.57,217.06h-2.18V202.63h2.18Z"></path>
  <path class="cls-2" d="M398.93,217.06l-.43-1.43h-.08a4.17,4.17,0,0,1-1.49,1.28,4.84,4.84,0,0,1-1.93.34,3.23,3.23,0,0,1-2.36-.82,3,3,0,0,1-.85-2.31,2.7,2.7,0,0,1,1.18-2.39,6.76,6.76,0,0,1,3.59-.88l1.77-.06v-.55a2.07,2.07,0,0,0-.46-1.47,1.89,1.89,0,0,0-1.42-.48,4.83,4.83,0,0,0-1.52.23,11.16,11.16,0,0,0-1.39.55l-.7-1.56a7.86,7.86,0,0,1,1.82-.67,8.56,8.56,0,0,1,1.88-.22,4.42,4.42,0,0,1,2.95.85,3.32,3.32,0,0,1,1,2.68v6.91Zm-3.24-1.48a2.7,2.7,0,0,0,1.9-.66,2.43,2.43,0,0,0,.72-1.87v-.89l-1.32.06a4.64,4.64,0,0,0-2.24.51,1.59,1.59,0,0,0-.7,1.41,1.37,1.37,0,0,0,.41,1.06A1.76,1.76,0,0,0,395.69,215.58Z"></path>
  <path class="cls-2" d="M412,206.8V208l-1.75.32a2.84,2.84,0,0,1,.39.8,3,3,0,0,1,.16,1,3.08,3.08,0,0,1-1.09,2.5,4.63,4.63,0,0,1-3,.91,4.82,4.82,0,0,1-.89-.08,1.22,1.22,0,0,0-.7,1,.56.56,0,0,0,.33.53,2.79,2.79,0,0,0,1.21.18h1.79a4,4,0,0,1,2.58.72,2.57,2.57,0,0,1,.88,2.09,3,3,0,0,1-1.44,2.69,7.58,7.58,0,0,1-4.16.95,5.71,5.71,0,0,1-3.2-.75,2.4,2.4,0,0,1-1.1-2.11,2.25,2.25,0,0,1,.6-1.59,3.21,3.21,0,0,1,1.67-.9,1.6,1.6,0,0,1-.72-.6,1.47,1.47,0,0,1-.28-.86,1.54,1.54,0,0,1,.32-1,3.92,3.92,0,0,1,1-.79,2.82,2.82,0,0,1-1.29-1.11,3.64,3.64,0,0,1,.55-4.4,4.38,4.38,0,0,1,3-.92,7.47,7.47,0,0,1,.92.06,6.58,6.58,0,0,1,.72.12ZM404,218.66a1.19,1.19,0,0,0,.63,1.08,3.45,3.45,0,0,0,1.79.38,5.37,5.37,0,0,0,2.65-.51,1.53,1.53,0,0,0,.87-1.35,1,1,0,0,0-.47-.95,3.84,3.84,0,0,0-1.78-.28H406a2.28,2.28,0,0,0-1.49.44A1.43,1.43,0,0,0,404,218.66Zm.93-8.54a2.08,2.08,0,0,0,.5,1.49,1.91,1.91,0,0,0,1.43.52c1.26,0,1.89-.68,1.89-2a2.3,2.3,0,0,0-.47-1.54,1.78,1.78,0,0,0-1.42-.54,1.87,1.87,0,0,0-1.44.53A2.31,2.31,0,0,0,404.88,210.12Z"></path>
  <path class="cls-2" d="M418.2,217.25a5,5,0,0,1-3.74-1.4,5.29,5.29,0,0,1-1.35-3.84,5.86,5.86,0,0,1,1.25-4,4.35,4.35,0,0,1,3.44-1.43,4.22,4.22,0,0,1,3.21,1.23,4.69,4.69,0,0,1,1.18,3.4v1.17h-6.84a3.39,3.39,0,0,0,.81,2.3,2.83,2.83,0,0,0,2.14.8,7.66,7.66,0,0,0,1.7-.17,8.34,8.34,0,0,0,1.68-.57v1.77a6.23,6.23,0,0,1-1.61.54A9.59,9.59,0,0,1,418.2,217.25Zm-.4-9a2.18,2.18,0,0,0-1.66.66,3.13,3.13,0,0,0-.75,1.92h4.66a2.87,2.87,0,0,0-.61-1.93A2.12,2.12,0,0,0,417.8,208.27Z"></path>
  <path class="cls-2" d="M429.72,206.62a3.55,3.55,0,0,1,3,1.39,7.67,7.67,0,0,1,0,7.83,3.95,3.95,0,0,1-6,0h-.15l-.4,1.21h-1.63V202.63h2.18v3.43c0,.25,0,.63,0,1.13s0,.82-.05,1h.09A3.46,3.46,0,0,1,429.72,206.62Zm-.57,1.78a2.22,2.22,0,0,0-1.89.77,4.48,4.48,0,0,0-.6,2.6v.14a4.88,4.88,0,0,0,.59,2.72,2.21,2.21,0,0,0,1.94.84,2,2,0,0,0,1.76-.92,4.87,4.87,0,0,0,.6-2.66C431.55,209.56,430.75,208.4,429.15,208.4Z"></path>
  <path class="cls-2" d="M442.55,217.06l-.44-1.43H442a4.28,4.28,0,0,1-1.5,1.28,4.8,4.8,0,0,1-1.93.34,3.24,3.24,0,0,1-2.36-.82,3.06,3.06,0,0,1-.85-2.31,2.7,2.7,0,0,1,1.18-2.39,6.79,6.79,0,0,1,3.59-.88l1.77-.06v-.55a2.07,2.07,0,0,0-.46-1.47,1.87,1.87,0,0,0-1.42-.48,4.72,4.72,0,0,0-1.51.23,10.58,10.58,0,0,0-1.39.55l-.71-1.56a8.12,8.12,0,0,1,1.83-.67,8.41,8.41,0,0,1,1.87-.22,4.45,4.45,0,0,1,3,.85,3.35,3.35,0,0,1,1,2.68v6.91Zm-3.25-1.48a2.72,2.72,0,0,0,1.91-.66,2.46,2.46,0,0,0,.71-1.87v-.89l-1.31.06a4.58,4.58,0,0,0-2.24.51,1.57,1.57,0,0,0-.7,1.41,1.37,1.37,0,0,0,.4,1.06A1.78,1.78,0,0,0,439.3,215.58Z"></path>
  <path class="cls-2" d="M456,217.06H453.8v-6.31a2.75,2.75,0,0,0-.48-1.77,1.86,1.86,0,0,0-1.52-.58,2.42,2.42,0,0,0-2,.81,4.51,4.51,0,0,0-.64,2.74v5.11H447V206.8h1.71l.3,1.35h.11A3,3,0,0,1,450.4,207a4.36,4.36,0,0,1,1.89-.4c2.46,0,3.7,1.25,3.7,3.75Z"></path>
  <path class="cls-2" d="M461,211.64l1.24-1.54,3.1-3.3h2.51l-4.13,4.41,4.39,5.85H465.5l-3.29-4.5-1.2,1v3.51h-2.16V202.63H461v7l-.11,2Z"></path>
  <line class="cls-8" x1="492.59" y1="148.51" x2="689.93" y2="148.51"></line>
  <polyline class="cls-9" points="684.39 141.27 691.54 148.53 684.39 155.54"></polyline>
  <path class="cls-2" d="M503.57,131.37h-2.72l-6.67-10.81h-.07l0,.6c.09,1.15.13,2.2.13,3.16v7.05h-2V117.8H495l6.65,10.76h.06c0-.15,0-.66-.08-1.56s0-1.59,0-2.09V117.8h2Z"></path>
  <path class="cls-2" d="M513.15,131.37l-.44-1.43h-.07a4.15,4.15,0,0,1-1.5,1.27,4.64,4.64,0,0,1-1.93.34,3.3,3.3,0,0,1-2.36-.81,3.1,3.1,0,0,1-.85-2.32,2.73,2.73,0,0,1,1.18-2.39,6.81,6.81,0,0,1,3.59-.88l1.77-.06v-.54a2.09,2.09,0,0,0-.45-1.47,1.86,1.86,0,0,0-1.43-.49,5.07,5.07,0,0,0-1.51.23,12.18,12.18,0,0,0-1.39.55l-.71-1.56a7.65,7.65,0,0,1,1.83-.66,8.52,8.52,0,0,1,1.87-.23,4.45,4.45,0,0,1,3,.85,3.37,3.37,0,0,1,1,2.68v6.92Zm-3.25-1.49a2.72,2.72,0,0,0,1.91-.66,2.4,2.4,0,0,0,.72-1.86v-.89l-1.32,0A4.49,4.49,0,0,0,509,127a1.54,1.54,0,0,0-.7,1.4,1.36,1.36,0,0,0,.41,1.07A1.75,1.75,0,0,0,509.9,129.88Z"></path>
  <path class="cls-2" d="M521.7,131.55a4.49,4.49,0,0,1-3.54-1.36,5.64,5.64,0,0,1-1.21-3.9,5.74,5.74,0,0,1,1.26-4,4.71,4.71,0,0,1,3.67-1.39,6.9,6.9,0,0,1,2.92.6l-.66,1.76a6.57,6.57,0,0,0-2.28-.54q-2.67,0-2.67,3.53a4.21,4.21,0,0,0,.67,2.6,2.31,2.31,0,0,0,1.94.86,5.63,5.63,0,0,0,2.76-.72v1.9a4.34,4.34,0,0,1-1.25.49A7.41,7.41,0,0,1,521.7,131.55Z"></path>
  <path class="cls-2" d="M535.8,131.37h-2.18v-6.31a2.73,2.73,0,0,0-.48-1.77,1.86,1.86,0,0,0-1.52-.59,2.41,2.41,0,0,0-2,.82,4.54,4.54,0,0,0-.64,2.75v5.1h-2.18V116.93H529v3.66a18.31,18.31,0,0,1-.11,1.89H529a3,3,0,0,1,1.23-1.15,4,4,0,0,1,1.85-.41q3.73,0,3.73,3.76Z"></path>
  <path class="cls-2" d="M551.34,131.37h-7.68V117.8h7.68v1.88h-5.46v3.69H551v1.85h-5.11v4.26h5.46Z"></path>
  <path class="cls-2" d="M562.87,131.37h-2.19v-6.31a2.79,2.79,0,0,0-.47-1.77,1.86,1.86,0,0,0-1.52-.59,2.39,2.39,0,0,0-2,.82,4.45,4.45,0,0,0-.64,2.73v5.12h-2.18V121.11h1.7l.31,1.34H556a3,3,0,0,1,1.32-1.13,4.36,4.36,0,0,1,1.89-.4q3.69,0,3.69,3.76Z"></path>
  <path class="cls-2" d="M569.2,131.55a3.58,3.58,0,0,1-3-1.39,7.61,7.61,0,0,1,0-7.83,3.62,3.62,0,0,1,3-1.41,3.54,3.54,0,0,1,3.08,1.49h.11a13.54,13.54,0,0,1-.15-1.74v-3.74h2.19v14.44h-1.71l-.38-1.35h-.1A3.5,3.5,0,0,1,569.2,131.55Zm.58-1.76a2.36,2.36,0,0,0,2-.76,3.94,3.94,0,0,0,.63-2.45v-.31a4.58,4.58,0,0,0-.63-2.75,2.33,2.33,0,0,0-2-.82,2,2,0,0,0-1.77.93,4.82,4.82,0,0,0-.62,2.66,4.65,4.65,0,0,0,.6,2.6A2,2,0,0,0,569.78,129.79Z"></path>
  <path class="cls-2" d="M581.86,131.55a5,5,0,0,1-3.74-1.39,5.33,5.33,0,0,1-1.35-3.85,5.83,5.83,0,0,1,1.25-4,4.33,4.33,0,0,1,3.44-1.44,4.22,4.22,0,0,1,3.21,1.23,4.72,4.72,0,0,1,1.18,3.4v1.18H579a3.38,3.38,0,0,0,.8,2.29,2.8,2.8,0,0,0,2.15.81,7.55,7.55,0,0,0,1.69-.18,8.34,8.34,0,0,0,1.68-.57v1.78a6.6,6.6,0,0,1-1.61.53A9.59,9.59,0,0,1,581.86,131.55Zm-.4-9a2.18,2.18,0,0,0-1.66.66,3.13,3.13,0,0,0-.75,1.92h4.66a2.83,2.83,0,0,0-.61-1.92A2.1,2.1,0,0,0,581.46,122.57Z"></path>
  <path class="cls-2" d="M596.37,131.55a3.56,3.56,0,0,1-3-1.39,7.61,7.61,0,0,1,0-7.83,3.62,3.62,0,0,1,3-1.41,3.54,3.54,0,0,1,3.08,1.49h.11a13.54,13.54,0,0,1-.15-1.74v-3.74h2.19v14.44h-1.71l-.38-1.35h-.1A3.5,3.5,0,0,1,596.37,131.55Zm.58-1.76a2.36,2.36,0,0,0,2-.76,3.94,3.94,0,0,0,.63-2.45v-.31a4.58,4.58,0,0,0-.63-2.75,2.33,2.33,0,0,0-2-.82,2,2,0,0,0-1.77.93,4.82,4.82,0,0,0-.62,2.66,4.65,4.65,0,0,0,.6,2.6A2,2,0,0,0,597,129.79Z"></path>
  <path class="cls-2" d="M609,131.55a5,5,0,0,1-3.74-1.39,5.33,5.33,0,0,1-1.35-3.85,5.83,5.83,0,0,1,1.25-4,4.33,4.33,0,0,1,3.44-1.44,4.22,4.22,0,0,1,3.21,1.23,4.72,4.72,0,0,1,1.18,3.4v1.18h-6.83A3.38,3.38,0,0,0,607,129a2.8,2.8,0,0,0,2.15.81,7.55,7.55,0,0,0,1.69-.18,8.34,8.34,0,0,0,1.68-.57v1.78a6.6,6.6,0,0,1-1.61.53A9.59,9.59,0,0,1,609,131.55Zm-.4-9a2.18,2.18,0,0,0-1.66.66,3.13,3.13,0,0,0-.75,1.92h4.66a2.83,2.83,0,0,0-.61-1.92A2.1,2.1,0,0,0,608.63,122.57Z"></path>
  <path class="cls-2" d="M620.52,120.92a5.38,5.38,0,0,1,1.08.09l-.21,2a4.37,4.37,0,0,0-1-.11,2.79,2.79,0,0,0-2.12.86,3.07,3.07,0,0,0-.81,2.21v5.37h-2.18V121.11H617l.28,1.81h.12a4,4,0,0,1,1.33-1.46A3.13,3.13,0,0,1,620.52,120.92Z"></path>
  <path class="cls-2" d="M628.31,131.37V117.8h2.22v11.66h5.74v1.91Z"></path>
  <path class="cls-2" d="M644.62,131.37l-.43-1.43h-.08a4.13,4.13,0,0,1-1.49,1.27,4.67,4.67,0,0,1-1.93.34,3.27,3.27,0,0,1-2.36-.81,3.07,3.07,0,0,1-.85-2.32,2.71,2.71,0,0,1,1.18-2.39,6.76,6.76,0,0,1,3.59-.88l1.77-.06v-.54a2,2,0,0,0-.46-1.47,1.85,1.85,0,0,0-1.42-.49,5.13,5.13,0,0,0-1.52.23,13,13,0,0,0-1.39.55l-.7-1.56a7.34,7.34,0,0,1,1.83-.66,8.45,8.45,0,0,1,1.87-.23,4.42,4.42,0,0,1,2.95.85,3.34,3.34,0,0,1,1,2.68v6.92Zm-3.24-1.49a2.7,2.7,0,0,0,1.9-.66,2.4,2.4,0,0,0,.72-1.86v-.89l-1.32,0a4.52,4.52,0,0,0-2.24.52,1.56,1.56,0,0,0-.7,1.4,1.39,1.39,0,0,0,.41,1.07A1.76,1.76,0,0,0,641.38,129.88Z"></path>
  <path class="cls-2" d="M656.27,131.37,656,130h-.11a3,3,0,0,1-1.29,1.12,4.23,4.23,0,0,1-1.92.41,3.75,3.75,0,0,1-2.78-.93,3.83,3.83,0,0,1-.92-2.81v-6.7h2.2v6.32a2.75,2.75,0,0,0,.48,1.77,1.87,1.87,0,0,0,1.52.59,2.39,2.39,0,0,0,2-.82,4.54,4.54,0,0,0,.65-2.75v-5.11H658v10.26Z"></path>
  <path class="cls-2" d="M666.07,122.76h-2.5v8.61h-2.19v-8.61h-1.69v-1l1.69-.67v-.67a3.71,3.71,0,0,1,.85-2.69,3.48,3.48,0,0,1,2.61-.88,7,7,0,0,1,2.26.38l-.57,1.65a5.13,5.13,0,0,0-1.54-.26,1.23,1.23,0,0,0-1.08.46,2.3,2.3,0,0,0-.34,1.38v.67h2.5Z"></path>
  <path class="cls-2" d="M674.5,131.37h-7.78V130l5.18-7.24H667v-1.67h7.32v1.52l-5.07,7.07h5.22Z"></path>
  <path class="cls-2" d="M681,131.55a5,5,0,0,1-3.74-1.39,5.33,5.33,0,0,1-1.35-3.85,5.78,5.78,0,0,1,1.25-4,4.31,4.31,0,0,1,3.44-1.44,4.22,4.22,0,0,1,3.21,1.23,4.72,4.72,0,0,1,1.18,3.4v1.18h-6.84A3.34,3.34,0,0,0,679,129a2.8,2.8,0,0,0,2.14.81,7.64,7.64,0,0,0,1.7-.18,8.34,8.34,0,0,0,1.68-.57v1.78a6.54,6.54,0,0,1-1.62.53A9.41,9.41,0,0,1,681,131.55Zm-.4-9a2.17,2.17,0,0,0-1.66.66,3.13,3.13,0,0,0-.75,1.92h4.66a2.83,2.83,0,0,0-.62-1.92A2.07,2.07,0,0,0,680.62,122.57Z"></path>
  <path class="cls-2" d="M687.17,118.39a1.18,1.18,0,0,1,.32-.9,1.23,1.23,0,0,1,.91-.32,1.21,1.21,0,0,1,.89.32,1.19,1.19,0,0,1,.33.9,1.15,1.15,0,0,1-.33.87,1.17,1.17,0,0,1-.89.32,1.19,1.19,0,0,1-.91-.32A1.14,1.14,0,0,1,687.17,118.39Zm2.31,13H687.3V121.11h2.18Z"></path>
  <path class="cls-2" d="M696.25,129.79a5.17,5.17,0,0,0,1.59-.25v1.64a4.58,4.58,0,0,1-.93.27,6.56,6.56,0,0,1-1.18.1q-3.11,0-3.1-3.26v-5.53h-1.4v-1l1.5-.8.74-2.17h1.35v2.29h2.92v1.65h-2.92v5.49a1.55,1.55,0,0,0,.39,1.16A1.45,1.45,0,0,0,696.25,129.79Z"></path>
  <path class="cls-2" d="M677.21,217.06h-7.67V203.49h7.67v1.88h-5.45v3.69h5.11v1.86h-5.11v4.25h5.45Z"></path>
  <path class="cls-2" d="M679.59,204.08a1.22,1.22,0,0,1,.32-.9,1.27,1.27,0,0,1,.92-.32,1.21,1.21,0,0,1,.89.32,1.18,1.18,0,0,1,.32.9,1.14,1.14,0,0,1-.32.87,1.17,1.17,0,0,1-.89.32,1.23,1.23,0,0,1-.92-.32A1.18,1.18,0,0,1,679.59,204.08Zm2.31,13h-2.18V206.8h2.18Z"></path>
  <path class="cls-2" d="M693.88,217.06h-2.19v-6.31a2.75,2.75,0,0,0-.48-1.77,1.86,1.86,0,0,0-1.52-.59,2.4,2.4,0,0,0-2,.82A4.47,4.47,0,0,0,687,212v5.11h-2.18V206.8h1.71l.3,1.34H687a3.05,3.05,0,0,1,1.32-1.13,4.36,4.36,0,0,1,1.89-.4c2.46,0,3.7,1.25,3.7,3.76Z"></path>
  <path class="cls-2" d="M698.92,217.06h-2.18V202.62h2.18Z"></path>
  <path class="cls-2" d="M708.29,217.06l-.44-1.43h-.07a4.24,4.24,0,0,1-1.5,1.27,4.64,4.64,0,0,1-1.93.34,3.28,3.28,0,0,1-2.36-.81,3.06,3.06,0,0,1-.85-2.31,2.71,2.71,0,0,1,1.18-2.4,6.79,6.79,0,0,1,3.59-.88l1.77-.05v-.55a2,2,0,0,0-.46-1.47,1.84,1.84,0,0,0-1.42-.49,5,5,0,0,0-1.51.23,12.34,12.34,0,0,0-1.4.55l-.7-1.56a7.65,7.65,0,0,1,1.83-.66,8.45,8.45,0,0,1,1.87-.23,4.45,4.45,0,0,1,3,.85,3.37,3.37,0,0,1,1,2.68v6.92ZM705,215.57a2.7,2.7,0,0,0,1.9-.66,2.4,2.4,0,0,0,.72-1.86v-.89l-1.31.05a4.46,4.46,0,0,0-2.24.52,1.55,1.55,0,0,0-.7,1.4,1.39,1.39,0,0,0,.4,1.07A1.77,1.77,0,0,0,705,215.57Z"></path>
  <path class="cls-2" d="M721.36,206.8V208l-1.75.33a2.85,2.85,0,0,1,.4.8,3.22,3.22,0,0,1,.16,1,3.06,3.06,0,0,1-1.1,2.49,4.57,4.57,0,0,1-3,.91,4.94,4.94,0,0,1-.89-.07,1.22,1.22,0,0,0-.7,1,.58.58,0,0,0,.33.53,3,3,0,0,0,1.21.17h1.79a4,4,0,0,1,2.58.73,2.53,2.53,0,0,1,.88,2.08,3,3,0,0,1-1.44,2.69,7.48,7.48,0,0,1-4.15,1,5.76,5.76,0,0,1-3.2-.74,2.4,2.4,0,0,1-1.11-2.12,2.25,2.25,0,0,1,.6-1.59,3.17,3.17,0,0,1,1.67-.89,1.65,1.65,0,0,1-.71-.6,1.54,1.54,0,0,1-.29-.87,1.46,1.46,0,0,1,.33-1,3.64,3.64,0,0,1,1-.79,2.84,2.84,0,0,1-1.29-1.12,3.64,3.64,0,0,1,.55-4.4,4.47,4.47,0,0,1,3-.92,7.34,7.34,0,0,1,.92.06,4.55,4.55,0,0,1,.72.13Zm-8.06,11.85a1.21,1.21,0,0,0,.63,1.09,3.56,3.56,0,0,0,1.79.38,5.37,5.37,0,0,0,2.65-.51,1.52,1.52,0,0,0,.88-1.36,1,1,0,0,0-.48-.95A3.84,3.84,0,0,0,717,217h-1.65a2.36,2.36,0,0,0-1.49.44A1.43,1.43,0,0,0,713.3,218.65Zm.94-8.53a2.07,2.07,0,0,0,.49,1.48,1.87,1.87,0,0,0,1.43.52c1.26,0,1.89-.67,1.89-2a2.33,2.33,0,0,0-.47-1.55,1.78,1.78,0,0,0-1.42-.54,1.86,1.86,0,0,0-1.44.54A2.29,2.29,0,0,0,714.24,210.12Z"></path>
  <path class="cls-2" d="M727.55,217.24a5,5,0,0,1-3.74-1.39,5.31,5.31,0,0,1-1.35-3.85,5.83,5.83,0,0,1,1.25-3.95,4.35,4.35,0,0,1,3.45-1.44,4.25,4.25,0,0,1,3.21,1.23,4.76,4.76,0,0,1,1.17,3.4v1.18h-6.83a3.38,3.38,0,0,0,.8,2.29,2.8,2.8,0,0,0,2.15.81,7.55,7.55,0,0,0,1.69-.18,8.34,8.34,0,0,0,1.68-.57v1.78a6.6,6.6,0,0,1-1.61.53A9.52,9.52,0,0,1,727.55,217.24Zm-.39-9a2.19,2.19,0,0,0-1.67.66,3.13,3.13,0,0,0-.75,1.92h4.66a2.83,2.83,0,0,0-.61-1.92A2.09,2.09,0,0,0,727.16,208.26Z"></path>
  <path class="cls-2" d="M743.8,217.24a3.59,3.59,0,0,1-3-1.4h-.12c.08.87.12,1.39.12,1.58v4.2h-2.18V206.8h1.77c0,.19.15.65.3,1.37h.11a3.44,3.44,0,0,1,3.07-1.56,3.56,3.56,0,0,1,3,1.39,7.64,7.64,0,0,1,0,7.83A3.6,3.6,0,0,1,743.8,217.24Zm-.53-8.85a2.29,2.29,0,0,0-1.9.76,3.94,3.94,0,0,0-.6,2.43v.33a4.74,4.74,0,0,0,.6,2.71,2.2,2.2,0,0,0,1.94.84,2,2,0,0,0,1.74-.93,4.75,4.75,0,0,0,.61-2.64,4.66,4.66,0,0,0-.6-2.61A2,2,0,0,0,743.27,208.39Z"></path>
  <path class="cls-2" d="M752.42,217.06h-2.18V202.62h2.18Z"></path>
  <path class="cls-2" d="M762.61,217.06l-.31-1.35h-.11a3.1,3.1,0,0,1-1.3,1.12,4.19,4.19,0,0,1-1.91.41,3.73,3.73,0,0,1-2.78-.93,3.79,3.79,0,0,1-.92-2.81v-6.7h2.19v6.32a2.75,2.75,0,0,0,.49,1.77,1.84,1.84,0,0,0,1.51.59,2.41,2.41,0,0,0,2-.82,4.54,4.54,0,0,0,.64-2.75V206.8h2.19v10.26Z"></path>
  <path class="cls-2" d="M774.15,214.13a2.67,2.67,0,0,1-1.09,2.31,5.29,5.29,0,0,1-3.14.8,7.31,7.31,0,0,1-3.29-.62v-1.88a8.16,8.16,0,0,0,3.37.83c1.34,0,2-.4,2-1.21a1,1,0,0,0-.22-.65,2.67,2.67,0,0,0-.74-.54,10.87,10.87,0,0,0-1.42-.63,6.61,6.61,0,0,1-2.39-1.37,2.56,2.56,0,0,1-.63-1.79,2.33,2.33,0,0,1,1.06-2,5,5,0,0,1,2.89-.73,8.19,8.19,0,0,1,3.43.73l-.71,1.65a7.61,7.61,0,0,0-2.79-.69c-1.15,0-1.73.33-1.73,1a1,1,0,0,0,.45.82,10.27,10.27,0,0,0,2,.92,8.14,8.14,0,0,1,1.85.9,2.6,2.6,0,0,1,.85.94A2.65,2.65,0,0,1,774.15,214.13Z"></path>
  <path class="cls-2" d="M789.86,217.06h-9.7v-1.54L787,205.39h-6.65v-1.9h9.33v1.56l-6.86,10.1h7.05Z"></path>
  <path class="cls-2" d="M791.71,204.08a1.22,1.22,0,0,1,.32-.9,1.24,1.24,0,0,1,.91-.32,1.11,1.11,0,0,1,1.22,1.22,1.11,1.11,0,0,1-1.22,1.19A1.2,1.2,0,0,1,792,205,1.18,1.18,0,0,1,791.71,204.08Zm2.31,13h-2.18V206.8H794Z"></path>
  <path class="cls-2" d="M806,217.06H803.8v-6.31a2.81,2.81,0,0,0-.47-1.77,1.86,1.86,0,0,0-1.52-.59,2.39,2.39,0,0,0-2,.82,4.47,4.47,0,0,0-.64,2.74v5.11H797V206.8h1.7l.31,1.34h.11a3.05,3.05,0,0,1,1.32-1.13,4.36,4.36,0,0,1,1.89-.4q3.69,0,3.69,3.76Z"></path>
  <path class="cls-2" d="M815.75,214.13a2.7,2.7,0,0,1-1.09,2.31,5.32,5.32,0,0,1-3.14.8,7.28,7.28,0,0,1-3.29-.62v-1.88a8.12,8.12,0,0,0,3.36.83c1.35,0,2-.4,2-1.21a1,1,0,0,0-.23-.65,2.45,2.45,0,0,0-.73-.54,10.87,10.87,0,0,0-1.42-.63,6.76,6.76,0,0,1-2.4-1.37,2.6,2.6,0,0,1-.62-1.79,2.33,2.33,0,0,1,1.06-2,5,5,0,0,1,2.89-.73,8.11,8.11,0,0,1,3.42.73l-.7,1.65a7.6,7.6,0,0,0-2.8-.69c-1.15,0-1.72.33-1.72,1a1,1,0,0,0,.45.82,10,10,0,0,0,2,.92,8.36,8.36,0,0,1,1.85.9,2.6,2.6,0,0,1,.85.94A2.65,2.65,0,0,1,815.75,214.13Z"></path>
  <path class="cls-2" d="M822.42,217.24a5,5,0,0,1-3.75-1.39,5.31,5.31,0,0,1-1.35-3.85,5.78,5.78,0,0,1,1.26-3.95,4.31,4.31,0,0,1,3.44-1.44,4.25,4.25,0,0,1,3.21,1.23,4.76,4.76,0,0,1,1.18,3.4v1.18h-6.84a3.38,3.38,0,0,0,.8,2.29,2.82,2.82,0,0,0,2.15.81,7.55,7.55,0,0,0,1.69-.18,8.34,8.34,0,0,0,1.68-.57v1.78a6.6,6.6,0,0,1-1.61.53A9.48,9.48,0,0,1,822.42,217.24Zm-.4-9a2.19,2.19,0,0,0-1.67.66,3.13,3.13,0,0,0-.75,1.92h4.66a2.83,2.83,0,0,0-.61-1.92A2.09,2.09,0,0,0,822,208.26Z"></path>
  <path class="cls-2" d="M837.72,217.06h-2.19v-6.31a2.75,2.75,0,0,0-.48-1.77,1.84,1.84,0,0,0-1.51-.59,2.41,2.41,0,0,0-2,.82,4.54,4.54,0,0,0-.64,2.74v5.11h-2.18V206.8h1.71l.31,1.34h.11a3.09,3.09,0,0,1,1.31-1.13,4.37,4.37,0,0,1,1.9-.4q3.69,0,3.69,3.76Z"></path>
  <polygon class="cls-3" points="816.79 148.36 816.79 110.91 736.5 110.91 736.5 117.76 742.87 143.94 795.38 148.36 816.79 148.36"></polygon>
  <g class="cls-19">
    <polygon class="cls-5" points="816.79 148.36 816.79 110.91 736.5 110.91 736.5 117.76 742.87 143.94 795.38 148.36 816.79 148.36"></polygon>
  </g>
  <polygon class="cls-3" points="728.91 126.86 728.91 117.76 809.96 117.76 809.96 155.98 797.06 155.98 728.91 126.86"></polygon>
  <polygon class="cls-5" points="728.91 126.86 728.91 117.76 809.96 117.76 809.96 155.98 797.06 155.98 728.91 126.86"></polygon>
  <rect class="cls-3" x="722.51" y="124.61" width="80.6" height="38.06"></rect>
  <g class="cls-19">
    <rect class="cls-6" x="722.51" y="124.61" width="80.6" height="38.06"></rect>
  </g>
  <line class="cls-7" x1="768.33" y1="141.01" x2="751.18" y2="141.01"></line>
  <g class="cls-19">
    <path class="cls-7" d="M771.33,134c-.32-.18-.65-.36-1-.52a11.22,11.22,0,1,0,.94,19.84c.22-.13.44-.27.65-.42"></path>
  </g>
  <line class="cls-7" x1="768.33" y1="146.31" x2="751.18" y2="146.31"></line>
  <g class="cls-19">
    <path class="cls-3" d="M805,150.66a14.87,14.87,0,1,1-14.87-14.87A14.87,14.87,0,0,1,805,150.66"></path>
    <path class="cls-16" d="M805,150.66a14.87,14.87,0,1,1-14.87-14.87A14.87,14.87,0,0,1,805,150.66Z"></path>
    <line class="cls-16" x1="793.55" y1="148.75" x2="781.11" y2="148.75"></line>
    <path class="cls-16" d="M795.72,143.67a6.94,6.94,0,0,0-.71-.38,8,8,0,0,0-3.45-.77,8.14,8.14,0,1,0,4.13,15.16l.48-.3"></path>
    <line class="cls-16" x1="793.55" y1="152.6" x2="781.11" y2="152.6"></line>
    <path class="cls-3" d="M838.56,150.66a14.87,14.87,0,1,1-14.87-14.87,14.87,14.87,0,0,1,14.87,14.87"></path>
    <path class="cls-16" d="M838.56,150.66a14.87,14.87,0,1,1-14.87-14.87A14.87,14.87,0,0,1,838.56,150.66Z"></path>
    <line class="cls-16" x1="827.13" y1="148.75" x2="814.69" y2="148.75"></line>
    <path class="cls-16" d="M829.31,143.67a6.94,6.94,0,0,0-.71-.38,8.14,8.14,0,1,0-3.45,15.51,8.21,8.21,0,0,0,4.13-1.12l.47-.3"></path>
    <line class="cls-16" x1="827.13" y1="152.6" x2="814.69" y2="152.6"></line>
    <path class="cls-3" d="M822,170.33a14.87,14.87,0,1,1-14.87-14.88A14.87,14.87,0,0,1,822,170.33"></path>
    <path class="cls-16" d="M822,170.33a14.87,14.87,0,1,1-14.87-14.88A14.87,14.87,0,0,1,822,170.33Z"></path>
    <line class="cls-16" x1="810.53" y1="168.41" x2="798.09" y2="168.41"></line>
    <path class="cls-16" d="M812.7,163.33A6.94,6.94,0,0,0,812,163a8.15,8.15,0,1,0,.68,14.39l.48-.3"></path>
    <line class="cls-16" x1="810.53" y1="172.26" x2="798.09" y2="172.26"></line>
  </g>
</svg>
