<?xml version="1.0" encoding="UTF-8"?>
<svg xmlns="http://www.w3.org/2000/svg" xmlns:xlink="http://www.w3.org/1999/xlink" id="Ebene_1" data-name="Ebene 1" viewBox="0 0 850 244">
  <defs>
    <style>.cls-1,.cls-10,.cls-12,.cls-13,.cls-15,.cls-17,.cls-18,.cls-22,.cls-24,.cls-5,.cls-6,.cls-7,.cls-8,.cls-9{fill:none;}.cls-2{fill:#005091;}.cls-21,.cls-3{fill:#fff;}.cls-4{clip-path:url(#clip-path);}.cls-12,.cls-13,.cls-18,.cls-21,.cls-5,.cls-8,.cls-9{stroke:#005091;}.cls-10,.cls-12,.cls-13,.cls-15,.cls-17,.cls-22,.cls-24,.cls-5,.cls-6,.cls-7,.cls-9{stroke-linecap:round;}.cls-10,.cls-22,.cls-5,.cls-6{stroke-linejoin:round;}.cls-10,.cls-12,.cls-17,.cls-18,.cls-21,.cls-5,.cls-6{stroke-width:1.8px;}.cls-22,.cls-6,.cls-7{stroke:#004f90;}.cls-13,.cls-15,.cls-7{stroke-width:2.3px;}.cls-8,.cls-9{stroke-width:1.78px;}.cls-10,.cls-15,.cls-17,.cls-24{stroke:#f28800;}.cls-11{clip-path:url(#clip-path-4);}.cls-13,.cls-18{stroke-miterlimit:10;}.cls-14{clip-path:url(#clip-path-6);}.cls-16{clip-path:url(#clip-path-7);}.cls-19{clip-path:url(#clip-path-9);}.cls-20{clip-path:url(#clip-path-10);}.cls-22{stroke-width:1.8px;}.cls-23{clip-path:url(#clip-path-14);}.cls-24{stroke-width:1.84px;}</style>
    <clipPath id="clip-path">
      <rect class="cls-1" x="15.04" y="114.09" width="94.22" height="53.22"></rect>
    </clipPath>
    <clipPath id="clip-path-4">
      <rect class="cls-1" x="140.86" y="38.86" width="76.51" height="70.92"></rect>
    </clipPath>
    <clipPath id="clip-path-6">
      <rect class="cls-1" x="15" y="17.62" width="819.83" height="210.07"></rect>
    </clipPath>
    <clipPath id="clip-path-7">
      <rect class="cls-1" x="160.7" y="168.72" width="36.84" height="36.84"></rect>
    </clipPath>
    <clipPath id="clip-path-9">
      <rect class="cls-1" x="250.64" y="97.81" width="78.12" height="70.84"></rect>
    </clipPath>
    <clipPath id="clip-path-10">
      <rect class="cls-1" x="705.4" y="102.26" width="117.97" height="77.69"></rect>
    </clipPath>
    <clipPath id="clip-path-14">
      <rect class="cls-1" x="394.05" y="118.15" width="106.09" height="46.42"></rect>
    </clipPath>
  </defs>
  <path class="cls-2" d="M43.3,204.23H37V193.07H43.3v1.54H38.81v3H43v1.53H38.81v3.5H43.3Z"></path>
  <path class="cls-2" d="M45.26,193.55a1,1,0,0,1,.26-.74,1.05,1.05,0,0,1,.75-.26,1,1,0,0,1,.74.26,1,1,0,0,1,.26.74,1,1,0,0,1-.26.72,1,1,0,0,1-.74.27,1,1,0,0,1-.75-.27A.94.94,0,0,1,45.26,193.55Zm1.9,10.68h-1.8v-8.44h1.8Z"></path>
  <path class="cls-2" d="M57,204.23h-1.8V199a2.23,2.23,0,0,0-.4-1.46,1.5,1.5,0,0,0-1.24-.48,2,2,0,0,0-1.67.67,3.73,3.73,0,0,0-.52,2.25v4.21h-1.8v-8.44H51l.25,1.1h.09a2.53,2.53,0,0,1,1.08-.93,3.63,3.63,0,0,1,1.56-.33c2,0,3,1,3,3.1Z"></path>
  <path class="cls-2" d="M61.16,204.23h-1.8V192.35h1.8Z"></path>
  <path class="cls-2" d="M68.87,204.23l-.36-1.18h-.06a3.39,3.39,0,0,1-1.23,1,3.87,3.87,0,0,1-1.59.28,2.66,2.66,0,0,1-1.94-.67,2.5,2.5,0,0,1-.7-1.9,2.22,2.22,0,0,1,1-2,5.59,5.59,0,0,1,2.95-.72l1.46-.05v-.45a1.72,1.72,0,0,0-.38-1.21,1.52,1.52,0,0,0-1.17-.4,4,4,0,0,0-1.25.19,11.25,11.25,0,0,0-1.14.45l-.58-1.28a6.53,6.53,0,0,1,1.5-.55,7.28,7.28,0,0,1,1.55-.19,3.65,3.65,0,0,1,2.43.71,2.77,2.77,0,0,1,.82,2.2v5.69ZM66.19,203a2.2,2.2,0,0,0,1.57-.55,2,2,0,0,0,.59-1.53v-.73l-1.08.05a3.69,3.69,0,0,0-1.84.42,1.28,1.28,0,0,0-.58,1.16,1.12,1.12,0,0,0,.34.87A1.41,1.41,0,0,0,66.19,203Z"></path>
  <path class="cls-2" d="M79.62,195.79v1l-1.44.27a2.54,2.54,0,0,1,.33.66,2.47,2.47,0,0,1,.13.82,2.51,2.51,0,0,1-.9,2,3.77,3.77,0,0,1-2.48.75,4,4,0,0,1-.73-.06,1,1,0,0,0-.59.84.49.49,0,0,0,.28.44,2.45,2.45,0,0,0,1,.14h1.48a3.27,3.27,0,0,1,2.12.6,2.09,2.09,0,0,1,.72,1.71,2.5,2.5,0,0,1-1.18,2.22,6.23,6.23,0,0,1-3.42.78,4.75,4.75,0,0,1-2.63-.61,2,2,0,0,1-.91-1.75,1.83,1.83,0,0,1,.49-1.3,2.63,2.63,0,0,1,1.38-.74,1.34,1.34,0,0,1-.59-.49,1.24,1.24,0,0,1-.24-.72,1.23,1.23,0,0,1,.27-.8,3.22,3.22,0,0,1,.79-.65,2.35,2.35,0,0,1-1.06-.92,2.71,2.71,0,0,1-.41-1.49,2.66,2.66,0,0,1,.87-2.13,3.65,3.65,0,0,1,2.47-.76,6.59,6.59,0,0,1,.75.05,4.92,4.92,0,0,1,.59.11ZM73,205.54a1,1,0,0,0,.52.9,2.87,2.87,0,0,0,1.47.31,4.46,4.46,0,0,0,2.19-.42,1.27,1.27,0,0,0,.71-1.12.85.85,0,0,0-.39-.78A3.23,3.23,0,0,0,76,204.2H74.67a2,2,0,0,0-1.23.36A1.19,1.19,0,0,0,73,205.54Zm.77-7a1.7,1.7,0,0,0,.41,1.22,1.52,1.52,0,0,0,1.17.43c1,0,1.56-.56,1.56-1.67a1.89,1.89,0,0,0-.39-1.27,1.47,1.47,0,0,0-1.17-.44,1.53,1.53,0,0,0-1.18.44A1.91,1.91,0,0,0,73.76,198.52Z"></path>
  <path class="cls-2" d="M84.72,204.38a4.07,4.07,0,0,1-3.08-1.15,4.35,4.35,0,0,1-1.11-3.16,4.77,4.77,0,0,1,1-3.25,3.56,3.56,0,0,1,2.83-1.19,3.48,3.48,0,0,1,2.64,1,3.87,3.87,0,0,1,1,2.79v1H82.38A2.73,2.73,0,0,0,83,202.3a2.31,2.31,0,0,0,1.76.66,6.21,6.21,0,0,0,1.4-.14,6.83,6.83,0,0,0,1.38-.47v1.46a5.19,5.19,0,0,1-1.33.44A7.87,7.87,0,0,1,84.72,204.38ZM84.39,197a1.77,1.77,0,0,0-1.37.55,2.54,2.54,0,0,0-.61,1.58h3.83a2.33,2.33,0,0,0-.51-1.59A1.7,1.7,0,0,0,84.39,197Z"></path>
  <polygon class="cls-3" points="107.61 151.86 107.61 115.74 30.17 115.74 30.17 122.35 36.32 147.6 86.96 151.86 107.61 151.86"></polygon>
  <g class="cls-4">
    <polygon class="cls-5" points="107.61 151.86 107.61 115.74 30.17 115.74 30.17 122.35 36.32 147.6 86.96 151.86 107.61 151.86"></polygon>
  </g>
  <polygon class="cls-3" points="22.86 131.13 22.86 122.35 101.03 122.35 101.03 159.2 88.59 159.2 22.86 131.13"></polygon>
  <polygon class="cls-5" points="22.86 131.13 22.86 122.35 101.03 122.35 101.03 159.2 88.59 159.2 22.86 131.13"></polygon>
  <rect class="cls-3" x="16.69" y="128.95" width="77.74" height="36.71"></rect>
  <g class="cls-4">
    <rect class="cls-6" x="16.69" y="128.95" width="77.74" height="36.71"></rect>
  </g>
  <line class="cls-7" x1="60.88" y1="144.77" x2="44.34" y2="144.77"></line>
  <g class="cls-4">
    <path class="cls-7" d="M63.77,138a10.93,10.93,0,0,0-5.53-1.52,10.83,10.83,0,1,0,5.49,20.15c.22-.13.43-.26.63-.4"></path>
  </g>
  <line class="cls-7" x1="60.88" y1="149.88" x2="44.34" y2="149.88"></line>
  <line class="cls-8" x1="130.68" y1="140.17" x2="230.78" y2="140.17"></line>
  <polyline class="cls-9" points="225.26 133.01 232.56 140.19 225.26 147.13"></polyline>
  <rect class="cls-5" x="155.43" y="70.5" width="11.73" height="11.73"></rect>
  <rect class="cls-5" x="173.31" y="70.5" width="11.73" height="11.73"></rect>
  <rect class="cls-5" x="191.08" y="70.5" width="11.73" height="11.73"></rect>
  <rect class="cls-5" x="155.43" y="89.07" width="11.73" height="11.73"></rect>
  <rect class="cls-5" x="173.31" y="89.07" width="11.73" height="11.73"></rect>
  <rect class="cls-5" x="191.08" y="89.07" width="11.73" height="11.73"></rect>
  <line class="cls-10" x1="147.75" y1="68.66" x2="209.91" y2="102.57"></line>
  <line class="cls-10" x1="146.98" y1="103.35" x2="210.68" y2="67.88"></line>
  <g class="cls-11">
    <rect class="cls-5" x="143.24" y="48.95" width="71.75" height="59.18"></rect>
  </g>
  <line class="cls-12" x1="156.01" y1="54.2" x2="156.01" y2="43.25"></line>
  <line class="cls-12" x1="167.57" y1="54.2" x2="167.57" y2="43.25"></line>
  <line class="cls-12" x1="179.12" y1="54.2" x2="179.12" y2="43.25"></line>
  <line class="cls-12" x1="190.67" y1="54.2" x2="190.67" y2="43.25"></line>
  <line class="cls-12" x1="202.22" y1="54.2" x2="202.22" y2="43.25"></line>
  <g class="cls-11">
    <line class="cls-13" x1="143.24" y1="63.06" x2="215" y2="63.06"></line>
  </g>
  <g class="cls-14">
    <path class="cls-2" d="M116.61,29.58h-2.12l-3.5-5-1.08.88v4.17h-1.82V18.42h1.82v5.33c.5-.61,1-1.2,1.49-1.76l3-3.57h2.07c-1.95,2.29-3.34,3.93-4.19,4.9Z"></path>
    <path class="cls-2" d="M121.42,29.74a4.11,4.11,0,0,1-3.08-1.15,4.37,4.37,0,0,1-1.11-3.17,4.78,4.78,0,0,1,1-3.25A3.55,3.55,0,0,1,121.09,21a3.48,3.48,0,0,1,2.64,1,3.88,3.88,0,0,1,1,2.8v1h-5.62a2.73,2.73,0,0,0,.66,1.89,2.32,2.32,0,0,0,1.76.66,6.85,6.85,0,0,0,1.4-.14,7.52,7.52,0,0,0,1.38-.47v1.46a6.1,6.1,0,0,1-1.33.44A8.56,8.56,0,0,1,121.42,29.74Zm-.33-7.39a1.8,1.8,0,0,0-1.37.54,2.57,2.57,0,0,0-.61,1.58h3.83a2.3,2.3,0,0,0-.51-1.58A1.7,1.7,0,0,0,121.09,22.35Z"></path>
    <path class="cls-2" d="M126.48,18.91a1,1,0,0,1,.26-.74,1,1,0,0,1,.75-.26,1,1,0,0,1,.74.26,1,1,0,0,1,.26.74,1,1,0,0,1-.26.72,1,1,0,0,1-.74.26,1.05,1.05,0,0,1-.75-.26A1,1,0,0,1,126.48,18.91Zm1.9,10.67h-1.8V21.14h1.8Z"></path>
    <path class="cls-2" d="M138.23,29.58h-1.8V24.39a2.26,2.26,0,0,0-.39-1.45,1.54,1.54,0,0,0-1.25-.48,2,2,0,0,0-1.67.67,3.71,3.71,0,0,0-.52,2.25v4.2h-1.8V21.14h1.41l.25,1.11h.09a2.53,2.53,0,0,1,1.08-.93,3.63,3.63,0,0,1,1.56-.33q3,0,3,3.09Z"></path>
    <path class="cls-2" d="M144.27,29.74a4.11,4.11,0,0,1-3.08-1.15,4.37,4.37,0,0,1-1.11-3.17,4.78,4.78,0,0,1,1-3.25A3.55,3.55,0,0,1,143.94,21a3.48,3.48,0,0,1,2.64,1,3.88,3.88,0,0,1,1,2.8v1h-5.62a2.78,2.78,0,0,0,.66,1.89,2.33,2.33,0,0,0,1.77.66,6.82,6.82,0,0,0,1.39-.14,7.52,7.52,0,0,0,1.38-.47v1.46a6,6,0,0,1-1.32.44A8.77,8.77,0,0,1,144.27,29.74Zm-.33-7.39a1.82,1.82,0,0,0-1.37.54,2.63,2.63,0,0,0-.61,1.58h3.83a2.35,2.35,0,0,0-.5-1.58A1.74,1.74,0,0,0,143.94,22.35Z"></path>
    <path class="cls-2" d="M157.59,22.5h-2.06v7.08h-1.8V22.5h-1.39v-.84l1.39-.55v-.55a3.08,3.08,0,0,1,.7-2.22,2.89,2.89,0,0,1,2.15-.72,5.68,5.68,0,0,1,1.86.32L158,19.29a4.27,4.27,0,0,0-1.27-.21,1,1,0,0,0-.89.38,1.86,1.86,0,0,0-.28,1.13v.55h2.06Z"></path>
    <path class="cls-2" d="M162.58,29.74a4.1,4.1,0,0,1-3.08-1.15,4.34,4.34,0,0,1-1.12-3.17,4.79,4.79,0,0,1,1-3.25,4,4,0,0,1,5.47-.17,3.92,3.92,0,0,1,1,2.8v1h-5.63a2.78,2.78,0,0,0,.67,1.89,2.29,2.29,0,0,0,1.76.66,6.75,6.75,0,0,0,1.39-.14,7.86,7.86,0,0,0,1.39-.47v1.46a6.1,6.1,0,0,1-1.33.44A8.74,8.74,0,0,1,162.58,29.74Zm-.33-7.39a1.8,1.8,0,0,0-1.37.54,2.57,2.57,0,0,0-.62,1.58h3.83a2.3,2.3,0,0,0-.5-1.58A1.72,1.72,0,0,0,162.25,22.35Z"></path>
    <path class="cls-2" d="M173.41,27.18a2.22,2.22,0,0,1-.9,1.9,4.31,4.31,0,0,1-2.58.66,6.12,6.12,0,0,1-2.71-.51V27.68a6.77,6.77,0,0,0,2.77.68c1.11,0,1.66-.33,1.66-1a.75.75,0,0,0-.19-.53,2.11,2.11,0,0,0-.6-.44,8.7,8.7,0,0,0-1.17-.52,5.51,5.51,0,0,1-2-1.13,2.12,2.12,0,0,1-.51-1.47,1.93,1.93,0,0,1,.87-1.68,4.13,4.13,0,0,1,2.38-.6,6.72,6.72,0,0,1,2.81.6l-.58,1.35a6.34,6.34,0,0,0-2.29-.56c-1,0-1.42.27-1.42.81a.8.8,0,0,0,.37.67,8.54,8.54,0,0,0,1.61.76,7.15,7.15,0,0,1,1.52.74,2.12,2.12,0,0,1,.7.77A2.26,2.26,0,0,1,173.41,27.18Z"></path>
    <path class="cls-2" d="M178.35,28.29a4.33,4.33,0,0,0,1.32-.21v1.35a3.6,3.6,0,0,1-.77.22,5.15,5.15,0,0,1-1,.09c-1.7,0-2.55-.9-2.55-2.69V22.5h-1.16v-.79l1.24-.66.61-1.79h1.11v1.88h2.4V22.5h-2.4V27a1.31,1.31,0,0,0,.32,1A1.22,1.22,0,0,0,178.35,28.29Z"></path>
    <path class="cls-2" d="M184.89,29.74a4.1,4.1,0,0,1-3.08-1.15,4.34,4.34,0,0,1-1.12-3.17,4.79,4.79,0,0,1,1-3.25A4,4,0,0,1,187.2,22a3.92,3.92,0,0,1,1,2.8v1h-5.63a2.78,2.78,0,0,0,.67,1.89,2.29,2.29,0,0,0,1.76.66,6.75,6.75,0,0,0,1.39-.14,7.86,7.86,0,0,0,1.39-.47v1.46a6.1,6.1,0,0,1-1.33.44A8.74,8.74,0,0,1,184.89,29.74Zm-.33-7.39a1.8,1.8,0,0,0-1.37.54,2.57,2.57,0,0,0-.62,1.58h3.83a2.3,2.3,0,0,0-.5-1.58A1.7,1.7,0,0,0,184.56,22.35Z"></path>
    <path class="cls-2" d="M194.16,29.58V18.42H196V28h4.72v1.56Z"></path>
    <path class="cls-2" d="M207.59,29.58l-.36-1.17h-.06a3.6,3.6,0,0,1-1.23,1.05,4,4,0,0,1-1.59.28,2.7,2.7,0,0,1-1.94-.67,2.51,2.51,0,0,1-.7-1.9,2.21,2.21,0,0,1,1-2,5.49,5.49,0,0,1,2.95-.73l1.46,0V24a1.74,1.74,0,0,0-.38-1.21,1.56,1.56,0,0,0-1.17-.4,4.23,4.23,0,0,0-1.24.19,10.56,10.56,0,0,0-1.15.45l-.58-1.28a6,6,0,0,1,1.51-.54,6.55,6.55,0,0,1,1.54-.19,3.65,3.65,0,0,1,2.43.7,2.75,2.75,0,0,1,.82,2.21v5.68Zm-2.67-1.22a2.21,2.21,0,0,0,1.56-.54,2,2,0,0,0,.6-1.53v-.74L206,25.6a3.72,3.72,0,0,0-1.84.42,1.29,1.29,0,0,0-.58,1.16,1.09,1.09,0,0,0,.34.87A1.42,1.42,0,0,0,204.92,28.36Z"></path>
    <path class="cls-2" d="M217.17,29.58l-.25-1.1h-.09a2.55,2.55,0,0,1-1.07.92,3.45,3.45,0,0,1-1.57.34A3.07,3.07,0,0,1,211.9,29a3.12,3.12,0,0,1-.76-2.31V21.14H213v5.21a2.22,2.22,0,0,0,.4,1.45,1.49,1.49,0,0,0,1.24.49,2,2,0,0,0,1.66-.68,3.73,3.73,0,0,0,.53-2.26V21.14h1.8v8.44Z"></path>
    <path class="cls-2" d="M225.24,22.5h-2.07v7.08h-1.8V22.5H220v-.84l1.39-.55v-.55a3.08,3.08,0,0,1,.71-2.22,2.85,2.85,0,0,1,2.14-.72,5.68,5.68,0,0,1,1.86.32l-.47,1.35a4.17,4.17,0,0,0-1.27-.21,1.05,1.05,0,0,0-.89.38,1.94,1.94,0,0,0-.28,1.13v.55h2.07Z"></path>
    <path class="cls-2" d="M232.17,29.58h-6.4v-1.1l4.26-6h-4V21.14h6v1.25l-4.18,5.82h4.3Z"></path>
    <path class="cls-2" d="M237.54,29.74a4.1,4.1,0,0,1-3.08-1.15,4.34,4.34,0,0,1-1.12-3.17,4.79,4.79,0,0,1,1-3.25,4,4,0,0,1,5.47-.17,3.92,3.92,0,0,1,1,2.8v1h-5.63a2.78,2.78,0,0,0,.67,1.89,2.29,2.29,0,0,0,1.76.66,6.75,6.75,0,0,0,1.39-.14,7.86,7.86,0,0,0,1.39-.47v1.46a6.1,6.1,0,0,1-1.33.44A8.74,8.74,0,0,1,237.54,29.74Zm-.33-7.39a1.8,1.8,0,0,0-1.37.54,2.57,2.57,0,0,0-.62,1.58h3.83a2.3,2.3,0,0,0-.5-1.58A1.72,1.72,0,0,0,237.21,22.35Z"></path>
    <path class="cls-2" d="M242.59,18.91a1,1,0,0,1,.26-.74,1,1,0,0,1,.76-.26.92.92,0,0,1,1,1,1,1,0,0,1-.27.72,1,1,0,0,1-.73.26,1.06,1.06,0,0,1-.76-.26A1,1,0,0,1,242.59,18.91Zm1.9,10.67H242.7V21.14h1.79Z"></path>
    <path class="cls-2" d="M250.06,28.29a4.22,4.22,0,0,0,1.31-.21v1.35a3.33,3.33,0,0,1-.76.22,5.25,5.25,0,0,1-1,.09c-1.7,0-2.55-.9-2.55-2.69V22.5h-1.15v-.79l1.24-.66.61-1.79h1.11v1.88h2.4V22.5h-2.4V27a1.27,1.27,0,0,0,.32,1A1.22,1.22,0,0,0,250.06,28.29Z"></path>
  </g>
  <line class="cls-15" x1="171.16" y1="196.03" x2="186.9" y2="178.25"></line>
  <g class="cls-16">
    <path class="cls-17" d="M173.8,185.74a3.75,3.75,0,1,0-3.67-3.75A3.71,3.71,0,0,0,173.8,185.74Z"></path>
    <ellipse class="cls-17" cx="184.43" cy="192.26" rx="3.68" ry="3.75"></ellipse>
    <path class="cls-18" d="M195.16,187.13a16,16,0,1,1-16-16A16,16,0,0,1,195.16,187.13Z"></path>
  </g>
  <g class="cls-14">
    <path class="cls-2" d="M154.62,224.66a2.82,2.82,0,0,1-1.08,2.34,4.69,4.69,0,0,1-3,.84,7.15,7.15,0,0,1-3.1-.58v-1.73a8.48,8.48,0,0,0,1.63.57,7.21,7.21,0,0,0,1.6.2,2.48,2.48,0,0,0,1.59-.41,1.32,1.32,0,0,0,.52-1.11,1.41,1.41,0,0,0-.47-1.06,7.31,7.31,0,0,0-2-1,5.2,5.2,0,0,1-2.15-1.41,3,3,0,0,1-.63-1.91,2.67,2.67,0,0,1,1-2.2,4.13,4.13,0,0,1,2.66-.8,7.79,7.79,0,0,1,3.19.7l-.58,1.49a6.9,6.9,0,0,0-2.66-.62,2,2,0,0,0-1.34.38,1.29,1.29,0,0,0-.46,1,1.34,1.34,0,0,0,.19.74,1.78,1.78,0,0,0,.6.59,10.48,10.48,0,0,0,1.51.72,7.93,7.93,0,0,1,1.8,1,2.81,2.81,0,0,1,.84,1A3,3,0,0,1,154.62,224.66Z"></path>
    <path class="cls-2" d="M159.59,226.39a4.32,4.32,0,0,0,1.32-.2v1.35a4.29,4.29,0,0,1-.77.22,6.14,6.14,0,0,1-1,.08c-1.7,0-2.55-.89-2.55-2.68v-4.55h-1.16v-.8l1.24-.65.61-1.79h1.11v1.88h2.4v1.36h-2.4v4.52a1.27,1.27,0,0,0,.32,1A1.17,1.17,0,0,0,159.59,226.39Z"></path>
    <path class="cls-2" d="M167.72,227.69l-.36-1.17h-.06a3.6,3.6,0,0,1-1.23,1,4,4,0,0,1-1.59.27,2.68,2.68,0,0,1-1.94-.67,2.54,2.54,0,0,1-.7-1.9,2.26,2.26,0,0,1,1-2,5.63,5.63,0,0,1,3-.72l1.45-.05v-.45a1.72,1.72,0,0,0-.37-1.21,1.56,1.56,0,0,0-1.18-.4,4,4,0,0,0-1.24.19,9.66,9.66,0,0,0-1.14.45l-.58-1.28a6.2,6.2,0,0,1,1.5-.55,7.15,7.15,0,0,1,1.54-.18,3.65,3.65,0,0,1,2.43.7A2.73,2.73,0,0,1,169,222v5.69Zm-2.67-1.22a2.21,2.21,0,0,0,1.57-.55,2,2,0,0,0,.59-1.53v-.73l-1.09.05a3.75,3.75,0,0,0-1.84.42,1.29,1.29,0,0,0-.57,1.16,1.13,1.13,0,0,0,.33.87A1.42,1.42,0,0,0,165.05,226.47Z"></path>
    <path class="cls-2" d="M175.63,219.1a4.56,4.56,0,0,1,.9.07l-.18,1.67a3.42,3.42,0,0,0-.79-.09,2.31,2.31,0,0,0-1.75.71,2.53,2.53,0,0,0-.67,1.82v4.41h-1.79v-8.44h1.4l.24,1.49h.09a3.27,3.27,0,0,1,1.1-1.2A2.55,2.55,0,0,1,175.63,219.1Z"></path>
    <path class="cls-2" d="M181.08,226.39a4.25,4.25,0,0,0,1.31-.2v1.35a4.06,4.06,0,0,1-.77.22,6,6,0,0,1-1,.08c-1.7,0-2.55-.89-2.55-2.68v-4.55H177v-.8l1.24-.65.61-1.79h1.1v1.88h2.41v1.36H179.9v4.52a1.23,1.23,0,0,0,.33,1A1.16,1.16,0,0,0,181.08,226.39Z"></path>
    <path class="cls-2" d="M189.56,227.69h-6.4v-1.11l4.27-6h-4v-1.37h6v1.25l-4.17,5.82h4.29Z"></path>
    <path class="cls-2" d="M191.13,217a1,1,0,0,1,.27-.74,1,1,0,0,1,.75-.26,1,1,0,0,1,.73.26,1,1,0,0,1,.27.74.94.94,0,0,1-.27.72,1,1,0,0,1-.73.27,1,1,0,0,1-.75-.27A.94.94,0,0,1,191.13,217Zm1.9,10.68h-1.79v-8.44H193Z"></path>
    <path class="cls-2" d="M202.88,227.69h-1.8V222.5a2.29,2.29,0,0,0-.39-1.46,1.52,1.52,0,0,0-1.25-.48,2,2,0,0,0-1.66.67,3.73,3.73,0,0,0-.53,2.26v4.2h-1.79v-8.44h1.4l.25,1.11h.1a2.43,2.43,0,0,1,1.08-.94,3.78,3.78,0,0,1,1.56-.32q3,0,3,3.09Z"></path>
    <path class="cls-2" d="M210.91,225.29a2.2,2.2,0,0,1-.9,1.89,4.31,4.31,0,0,1-2.58.66,6.12,6.12,0,0,1-2.71-.51v-1.55a6.63,6.63,0,0,0,2.77.69c1.11,0,1.66-.33,1.66-1a.79.79,0,0,0-.18-.53,2.34,2.34,0,0,0-.61-.45,12.31,12.31,0,0,0-1.17-.52,5.23,5.23,0,0,1-2-1.13,2.08,2.08,0,0,1-.51-1.46,1.91,1.91,0,0,1,.87-1.68,4.15,4.15,0,0,1,2.38-.6,6.8,6.8,0,0,1,2.82.6l-.59,1.35a6.14,6.14,0,0,0-2.29-.56c-1,0-1.42.26-1.42.8a.82.82,0,0,0,.37.68,8.09,8.09,0,0,0,1.61.75,7.39,7.39,0,0,1,1.52.74,2.08,2.08,0,0,1,.93,1.83Z"></path>
  </g>
  <rect class="cls-3" x="263.11" y="132.15" width="9.23" height="17.01"></rect>
  <rect class="cls-10" x="263.11" y="132.15" width="9.23" height="17.01"></rect>
  <rect class="cls-3" x="284.88" y="132.15" width="9.23" height="17.01"></rect>
  <rect class="cls-10" x="284.88" y="132.15" width="9.23" height="17.01"></rect>
  <rect class="cls-3" x="305.95" y="132.15" width="9.23" height="17.01"></rect>
  <rect class="cls-10" x="305.95" y="132.15" width="9.23" height="17.01"></rect>
  <rect class="cls-3" x="255.1" y="157.77" width="69.14" height="9.23"></rect>
  <g class="cls-19">
    <rect class="cls-5" x="255.1" y="157.77" width="69.14" height="9.23"></rect>
    <path class="cls-3" d="M253.12,121,289,99.73a1.47,1.47,0,0,1,1.5,0L326.28,121a1.44,1.44,0,0,1-.73,2.68h-71.7a1.44,1.44,0,0,1-.73-2.68"></path>
    <path class="cls-5" d="M253.12,121,289,99.73a1.47,1.47,0,0,1,1.5,0L326.28,121a1.44,1.44,0,0,1-.73,2.68h-71.7a1.44,1.44,0,0,1-.73-2.68Z"></path>
  </g>
  <path class="cls-2" d="M254.27,204.23l-1.11-3.1h-4.27l-1.09,3.1h-1.93L250.05,193h2l4.18,11.21Zm-1.59-4.67-1.05-3c-.08-.2-.18-.52-.32-1s-.23-.76-.28-1a15.08,15.08,0,0,1-.6,2.05l-1,2.91Z"></path>
  <path class="cls-2" d="M264.76,204.23H263V199a2.29,2.29,0,0,0-.39-1.46,1.52,1.52,0,0,0-1.25-.48,2,2,0,0,0-1.66.67,3.72,3.72,0,0,0-.53,2.25v4.21h-1.79v-8.44h1.4l.25,1.1h.09a2.55,2.55,0,0,1,1.09-.93,3.63,3.63,0,0,1,1.56-.33c2,0,3,1,3,3.1Z"></path>
  <path class="cls-2" d="M268.91,204.23h-1.79V192.35h1.79Z"></path>
  <path class="cls-2" d="M276.62,204.23l-.36-1.18h-.06a3.39,3.39,0,0,1-1.23,1,3.81,3.81,0,0,1-1.59.28,2.68,2.68,0,0,1-1.94-.67,2.5,2.5,0,0,1-.7-1.9,2.22,2.22,0,0,1,1-2,5.63,5.63,0,0,1,3-.72l1.45-.05v-.45a1.72,1.72,0,0,0-.37-1.21,1.56,1.56,0,0,0-1.18-.4,4,4,0,0,0-1.24.19,10.56,10.56,0,0,0-1.15.45l-.58-1.28a6.44,6.44,0,0,1,1.51-.55,7.19,7.19,0,0,1,1.54-.19,3.65,3.65,0,0,1,2.43.71,2.73,2.73,0,0,1,.82,2.2v5.69ZM274,203a2.21,2.21,0,0,0,1.57-.55,2,2,0,0,0,.59-1.53v-.73l-1.09.05a3.72,3.72,0,0,0-1.84.42,1.3,1.3,0,0,0-.58,1.16,1.15,1.15,0,0,0,.34.87A1.42,1.42,0,0,0,274,203Z"></path>
  <path class="cls-2" d="M287.38,195.79v1l-1.44.27a2.25,2.25,0,0,1,.32.66,2.47,2.47,0,0,1,.13.82,2.51,2.51,0,0,1-.9,2,3.75,3.75,0,0,1-2.48.75,4.07,4.07,0,0,1-.73-.06,1,1,0,0,0-.58.84.48.48,0,0,0,.27.44,2.48,2.48,0,0,0,1,.14h1.47a3.25,3.25,0,0,1,2.12.6,2.07,2.07,0,0,1,.73,1.71,2.51,2.51,0,0,1-1.19,2.22,6.18,6.18,0,0,1-3.42.78,4.78,4.78,0,0,1-2.63-.61,2,2,0,0,1-.91-1.75,1.87,1.87,0,0,1,.49-1.3,2.63,2.63,0,0,1,1.38-.74,1.39,1.39,0,0,1-.59-.49,1.31,1.31,0,0,1-.23-.72,1.23,1.23,0,0,1,.27-.8,3,3,0,0,1,.79-.65,2.37,2.37,0,0,1-1.07-.92,2.7,2.7,0,0,1-.4-1.49,2.65,2.65,0,0,1,.86-2.13,3.67,3.67,0,0,1,2.47-.76,6.59,6.59,0,0,1,.75.05,5.16,5.16,0,0,1,.6.11Zm-6.63,9.75a1,1,0,0,0,.52.9,2.87,2.87,0,0,0,1.47.31,4.45,4.45,0,0,0,2.18-.42,1.26,1.26,0,0,0,.72-1.12.85.85,0,0,0-.39-.78,3.28,3.28,0,0,0-1.47-.23h-1.36a1.91,1.91,0,0,0-1.22.36A1.19,1.19,0,0,0,280.75,205.54Zm.77-7a1.69,1.69,0,0,0,.4,1.22,1.56,1.56,0,0,0,1.18.43c1,0,1.55-.56,1.55-1.67a1.89,1.89,0,0,0-.38-1.27,1.49,1.49,0,0,0-1.17-.44,1.52,1.52,0,0,0-1.18.44A1.86,1.86,0,0,0,281.52,198.52Z"></path>
  <path class="cls-2" d="M292.47,204.38a4.07,4.07,0,0,1-3.08-1.15,4.35,4.35,0,0,1-1.11-3.16,4.82,4.82,0,0,1,1-3.25,3.58,3.58,0,0,1,2.84-1.19,3.48,3.48,0,0,1,2.64,1,3.91,3.91,0,0,1,1,2.79v1h-5.63a2.83,2.83,0,0,0,.66,1.89,2.33,2.33,0,0,0,1.77.66,6.12,6.12,0,0,0,1.39-.14,7.12,7.12,0,0,0,1.39-.47v1.46a5.19,5.19,0,0,1-1.33.44A7.9,7.9,0,0,1,292.47,204.38Zm-.32-7.39a1.77,1.77,0,0,0-1.37.55,2.55,2.55,0,0,0-.62,1.58H294a2.33,2.33,0,0,0-.5-1.59A1.72,1.72,0,0,0,292.15,197Z"></path>
  <path class="cls-2" d="M302,195.63a2.93,2.93,0,0,1,2.46,1.15,6.32,6.32,0,0,1,0,6.45,3.26,3.26,0,0,1-5,0h-.12l-.33,1h-1.34V192.35h1.79v2.83q0,.31,0,.93c0,.41,0,.67,0,.78h.07A2.85,2.85,0,0,1,302,195.63Zm-.46,1.47a1.82,1.82,0,0,0-1.57.64,3.74,3.74,0,0,0-.49,2.13V200a3.93,3.93,0,0,0,.49,2.24,1.83,1.83,0,0,0,1.6.69,1.61,1.61,0,0,0,1.44-.76,4,4,0,0,0,.5-2.18C303.46,198.06,302.8,197.1,301.49,197.1Z"></path>
  <path class="cls-2" d="M312.5,204.23l-.35-1.18h-.07a3.29,3.29,0,0,1-1.22,1,3.87,3.87,0,0,1-1.59.28,2.66,2.66,0,0,1-1.94-.67,2.5,2.5,0,0,1-.7-1.9,2.22,2.22,0,0,1,1-2,5.59,5.59,0,0,1,2.95-.72l1.46-.05v-.45a1.72,1.72,0,0,0-.38-1.21,1.52,1.52,0,0,0-1.17-.4,4,4,0,0,0-1.25.19,11.25,11.25,0,0,0-1.14.45l-.58-1.28a6.53,6.53,0,0,1,1.5-.55,7.28,7.28,0,0,1,1.55-.19,3.65,3.65,0,0,1,2.43.71,2.77,2.77,0,0,1,.82,2.2v5.69ZM309.83,203a2.2,2.2,0,0,0,1.57-.55,2,2,0,0,0,.59-1.53v-.73l-1.08.05a3.69,3.69,0,0,0-1.84.42,1.28,1.28,0,0,0-.58,1.16,1.12,1.12,0,0,0,.34.87A1.39,1.39,0,0,0,309.83,203Z"></path>
  <path class="cls-2" d="M323.56,204.23h-1.8V199a2.29,2.29,0,0,0-.39-1.46,1.54,1.54,0,0,0-1.25-.48,2,2,0,0,0-1.66.67,3.65,3.65,0,0,0-.53,2.25v4.21h-1.8v-8.44h1.41l.25,1.1h.09A2.55,2.55,0,0,1,319,196a3.56,3.56,0,0,1,1.55-.33c2,0,3,1,3,3.1Z"></path>
  <path class="cls-2" d="M327.65,199.77l1-1.27,2.54-2.71h2.07l-3.39,3.62,3.61,4.82h-2.11l-2.71-3.7-1,.81v2.89h-1.78V192.35h1.78v5.8l-.1,1.62Z"></path>
  <line class="cls-8" x1="519.12" y1="140.17" x2="686.9" y2="140.17"></line>
  <polyline class="cls-9" points="681.38 133.01 688.68 140.19 681.38 147.13"></polyline>
  <path class="cls-2" d="M531.71,128.41H529.6l-3.5-5-1.08.87v4.18H523.2V117.25H525v5.33c.5-.61,1-1.2,1.49-1.77l3-3.56h2.08q-2.93,3.44-4.19,4.89Z"></path>
  <path class="cls-2" d="M538.79,128.41l-.25-1.11h-.09a2.61,2.61,0,0,1-1.06.93,3.63,3.63,0,0,1-1.58.33,3.09,3.09,0,0,1-2.29-.76,3.18,3.18,0,0,1-.76-2.31V120h1.81v5.2a2.31,2.31,0,0,0,.4,1.46,1.51,1.51,0,0,0,1.24.48,2,2,0,0,0,1.66-.67,3.69,3.69,0,0,0,.54-2.27V120h1.8v8.44Z"></path>
  <path class="cls-2" d="M546.91,119.81a4.37,4.37,0,0,1,.89.08l-.18,1.67a3.42,3.42,0,0,0-.79-.09,2.31,2.31,0,0,0-1.75.7,2.57,2.57,0,0,0-.66,1.83v4.41h-1.8V120H544l.23,1.49h.1a3.25,3.25,0,0,1,1.09-1.2A2.59,2.59,0,0,1,546.91,119.81Z"></path>
  <path class="cls-2" d="M554.85,128.41h-6.41V127.3l4.27-6h-4V120h6v1.25L550.55,127h4.3Z"></path>
  <path class="cls-2" d="M560.76,121.33H558.7v7.08h-1.8v-7.08h-1.39v-.84l1.39-.55v-.55a3.06,3.06,0,0,1,.7-2.22,2.88,2.88,0,0,1,2.15-.72,5.67,5.67,0,0,1,1.86.31l-.47,1.36a4.27,4.27,0,0,0-1.27-.21,1,1,0,0,0-.89.37,1.9,1.9,0,0,0-.28,1.14V120h2.06Z"></path>
  <path class="cls-2" d="M566.34,119.81a4.3,4.3,0,0,1,.89.08l-.17,1.67a3.5,3.5,0,0,0-.8-.09,2.27,2.27,0,0,0-1.74.7,2.53,2.53,0,0,0-.67,1.83v4.41h-1.79V120h1.4l.24,1.49h.09a3.25,3.25,0,0,1,1.09-1.2A2.59,2.59,0,0,1,566.34,119.81Z"></path>
  <path class="cls-2" d="M568.53,117.73a1,1,0,0,1,.26-.74,1.06,1.06,0,0,1,.76-.26,1,1,0,0,1,.73.26,1,1,0,0,1,.27.74.94.94,0,0,1-.27.72,1,1,0,0,1-.73.26,1,1,0,0,1-.76-.26A1,1,0,0,1,568.53,117.73Zm1.9,10.68h-1.79V120h1.79Z"></path>
  <path class="cls-2" d="M578.53,126a2.21,2.21,0,0,1-.9,1.9,4.31,4.31,0,0,1-2.58.66,6.09,6.09,0,0,1-2.71-.51V126.5a6.6,6.6,0,0,0,2.77.69c1.1,0,1.66-.34,1.66-1a.83.83,0,0,0-.19-.54,2.11,2.11,0,0,0-.6-.44,12.31,12.31,0,0,0-1.17-.52,5.37,5.37,0,0,1-2-1.13,2,2,0,0,1-.52-1.46,1.92,1.92,0,0,1,.88-1.69,4.12,4.12,0,0,1,2.37-.6,6.59,6.59,0,0,1,2.82.61l-.58,1.35a6.23,6.23,0,0,0-2.3-.57c-.94,0-1.42.27-1.42.81a.82.82,0,0,0,.37.67,7.83,7.83,0,0,0,1.62.76,7.67,7.67,0,0,1,1.52.74,2.15,2.15,0,0,1,.7.78A2.25,2.25,0,0,1,578.53,126Z"></path>
  <path class="cls-2" d="M583.47,127.11a4.53,4.53,0,0,0,1.31-.2v1.35a3.38,3.38,0,0,1-.76.21,5.25,5.25,0,0,1-1,.09c-1.7,0-2.55-.89-2.55-2.68v-4.55h-1.15v-.8l1.24-.66.61-1.78h1.11V120h2.4v1.36h-2.4v4.51a1.24,1.24,0,0,0,.32,1A1.17,1.17,0,0,0,583.47,127.11Z"></path>
  <path class="cls-2" d="M586.21,117.73a1,1,0,0,1,.26-.74,1.05,1.05,0,0,1,.75-.26,1,1,0,0,1,.74.26,1,1,0,0,1,.26.74.94.94,0,0,1-.26.72,1,1,0,0,1-.74.26,1,1,0,0,1-.75-.26A1,1,0,0,1,586.21,117.73Zm1.9,10.68h-1.79V120h1.79Z"></path>
  <path class="cls-2" d="M597.66,120v1l-1.44.27a2.64,2.64,0,0,1,.33.65,2.77,2.77,0,0,1-.77,2.88,3.77,3.77,0,0,1-2.48.75,4.18,4.18,0,0,1-.74-.06,1,1,0,0,0-.58.84.46.46,0,0,0,.27.43,2.33,2.33,0,0,0,1,.15h1.47a3.28,3.28,0,0,1,2.13.6,2.07,2.07,0,0,1,.72,1.71,2.5,2.5,0,0,1-1.18,2.22,6.23,6.23,0,0,1-3.42.78,4.72,4.72,0,0,1-2.64-.62,2,2,0,0,1-.9-1.74,1.85,1.85,0,0,1,.49-1.31,2.69,2.69,0,0,1,1.38-.73,1.34,1.34,0,0,1-.59-.49,1.24,1.24,0,0,1-.24-.72,1.23,1.23,0,0,1,.27-.8,3.22,3.22,0,0,1,.79-.65,2.35,2.35,0,0,1-1.06-.92,2.71,2.71,0,0,1-.41-1.49,2.66,2.66,0,0,1,.87-2.13,3.65,3.65,0,0,1,2.47-.76,6.74,6.74,0,0,1,.75,0,4.92,4.92,0,0,1,.59.11ZM591,129.72a1,1,0,0,0,.52.9,3,3,0,0,0,1.47.31,4.46,4.46,0,0,0,2.19-.42,1.27,1.27,0,0,0,.71-1.12.85.85,0,0,0-.39-.78,3.23,3.23,0,0,0-1.46-.23h-1.36a2,2,0,0,0-1.23.36A1.19,1.19,0,0,0,591,129.72Zm.77-7a1.7,1.7,0,0,0,.41,1.22,1.52,1.52,0,0,0,1.17.43c1,0,1.56-.56,1.56-1.67a1.87,1.87,0,0,0-.39-1.27,1.47,1.47,0,0,0-1.17-.44,1.5,1.5,0,0,0-1.18.44A1.83,1.83,0,0,0,591.8,122.7Z"></path>
  <path class="cls-2" d="M604.92,128.41,601.71,120h1.89l1.72,4.91a10,10,0,0,1,.54,2h.06a12.31,12.31,0,0,1,.53-2l1.72-4.91h1.91l-3.22,8.44Z"></path>
  <path class="cls-2" d="M614.89,128.56a4.07,4.07,0,0,1-3.08-1.15,4.35,4.35,0,0,1-1.11-3.16,4.77,4.77,0,0,1,1-3.25,3.56,3.56,0,0,1,2.83-1.19,3.45,3.45,0,0,1,2.64,1,3.87,3.87,0,0,1,1,2.79v1h-5.62a2.73,2.73,0,0,0,.66,1.89,2.31,2.31,0,0,0,1.76.66,6.21,6.21,0,0,0,1.4-.14,6.83,6.83,0,0,0,1.38-.47V128a5.19,5.19,0,0,1-1.33.44A7.8,7.8,0,0,1,614.89,128.56Zm-.33-7.39a1.8,1.8,0,0,0-1.37.54,2.59,2.59,0,0,0-.61,1.58h3.83a2.32,2.32,0,0,0-.51-1.58A1.7,1.7,0,0,0,614.56,121.17Z"></path>
  <path class="cls-2" d="M624.34,119.81a4.3,4.3,0,0,1,.89.08l-.18,1.67a3.35,3.35,0,0,0-.79-.09,2.27,2.27,0,0,0-1.74.7,2.53,2.53,0,0,0-.67,1.83v4.41h-1.8V120h1.41l.24,1.49h.09a3.25,3.25,0,0,1,1.09-1.2A2.59,2.59,0,0,1,624.34,119.81Z"></path>
  <path class="cls-2" d="M630.88,121.33h-2.07v7.08H627v-7.08h-1.39v-.84l1.39-.55v-.55a3.11,3.11,0,0,1,.7-2.22,2.89,2.89,0,0,1,2.15-.72,5.67,5.67,0,0,1,1.86.31l-.47,1.36a4.22,4.22,0,0,0-1.27-.21,1,1,0,0,0-.89.37,2,2,0,0,0-.28,1.14V120h2.07Z"></path>
  <path class="cls-2" d="M638.12,128.41l-.25-1.11h-.09a2.57,2.57,0,0,1-1.07.93,3.58,3.58,0,0,1-1.57.33,3.09,3.09,0,0,1-2.29-.76,3.14,3.14,0,0,1-.76-2.31V120h1.81v5.2a2.25,2.25,0,0,0,.4,1.46,1.51,1.51,0,0,0,1.24.48,2,2,0,0,0,1.66-.67,3.7,3.7,0,0,0,.53-2.27V120h1.81v8.44Zm-4.7-10.68a.83.83,0,0,1,.26-.68.93.93,0,0,1,.62-.21.81.81,0,0,1,.88.89.91.91,0,0,1-1.5.67A.84.84,0,0,1,633.42,117.73Zm3,0a.83.83,0,0,1,.26-.68.93.93,0,0,1,.62-.21.92.92,0,0,1,.65.23.89.89,0,0,1,.24.66.85.85,0,0,1-.25.65,1,1,0,0,1-1.26,0A.84.84,0,0,1,636.42,117.73Z"></path>
  <path class="cls-2" d="M649.08,120v1l-1.44.27a2.64,2.64,0,0,1,.33.65,2.83,2.83,0,0,1,.13.83,2.52,2.52,0,0,1-.9,2,3.77,3.77,0,0,1-2.48.75,4.18,4.18,0,0,1-.74-.06,1,1,0,0,0-.58.84.46.46,0,0,0,.27.43,2.3,2.3,0,0,0,1,.15h1.47a3.3,3.3,0,0,1,2.13.6,2.07,2.07,0,0,1,.72,1.71,2.5,2.5,0,0,1-1.18,2.22,6.23,6.23,0,0,1-3.42.78,4.72,4.72,0,0,1-2.64-.62,2,2,0,0,1-.9-1.74,1.85,1.85,0,0,1,.49-1.31,2.65,2.65,0,0,1,1.38-.73,1.42,1.42,0,0,1-.6-.49,1.31,1.31,0,0,1-.23-.72,1.23,1.23,0,0,1,.27-.8,3.22,3.22,0,0,1,.79-.65,2.3,2.3,0,0,1-1.06-.92,2.71,2.71,0,0,1-.41-1.49,2.66,2.66,0,0,1,.87-2.13,3.65,3.65,0,0,1,2.47-.76,6.9,6.9,0,0,1,.75,0,4.92,4.92,0,0,1,.59.11Zm-6.63,9.75a1,1,0,0,0,.52.9,3,3,0,0,0,1.47.31,4.39,4.39,0,0,0,2.18-.42,1.26,1.26,0,0,0,.72-1.12.85.85,0,0,0-.39-.78,3.23,3.23,0,0,0-1.46-.23h-1.36a1.94,1.94,0,0,0-1.23.36A1.19,1.19,0,0,0,642.45,129.72Zm.77-7a1.7,1.7,0,0,0,.41,1.22,1.52,1.52,0,0,0,1.17.43c1,0,1.56-.56,1.56-1.67a1.87,1.87,0,0,0-.39-1.27,1.79,1.79,0,0,0-2.35,0A1.83,1.83,0,0,0,643.22,122.7Z"></path>
  <path class="cls-2" d="M654.8,119.81a2.92,2.92,0,0,1,2.46,1.15,6.26,6.26,0,0,1,0,6.45,3.26,3.26,0,0,1-5,0h-.12l-.33,1h-1.34V116.53h1.79v2.83q0,.3,0,.93c0,.41,0,.67,0,.78h.07A2.85,2.85,0,0,1,654.8,119.81Zm-.46,1.47a1.79,1.79,0,0,0-1.56.64,3.65,3.65,0,0,0-.5,2.13v.12a4,4,0,0,0,.49,2.24,1.83,1.83,0,0,0,1.6.69,1.62,1.62,0,0,0,1.44-.76,4,4,0,0,0,.5-2.18C656.31,122.24,655.65,121.28,654.34,121.28Z"></path>
  <path class="cls-2" d="M665.36,128.41l-.36-1.18h-.06a3.39,3.39,0,0,1-1.23,1,3.84,3.84,0,0,1-1.59.28,2.66,2.66,0,0,1-1.94-.67,2.5,2.5,0,0,1-.7-1.9,2.22,2.22,0,0,1,1-2,5.68,5.68,0,0,1,2.95-.73l1.46,0v-.45a1.72,1.72,0,0,0-.38-1.21,1.52,1.52,0,0,0-1.17-.4,3.92,3.92,0,0,0-1.24.19,10.56,10.56,0,0,0-1.15.45l-.58-1.28a6.53,6.53,0,0,1,1.5-.55,7.28,7.28,0,0,1,1.55-.19,3.65,3.65,0,0,1,2.43.71,2.72,2.72,0,0,1,.82,2.2v5.69Zm-2.68-1.22a2.18,2.18,0,0,0,1.57-.55,2,2,0,0,0,.59-1.53v-.73l-1.08,0a3.81,3.81,0,0,0-1.84.43,1.27,1.27,0,0,0-.58,1.15,1.12,1.12,0,0,0,.34.88A1.46,1.46,0,0,0,662.68,127.19Z"></path>
  <path class="cls-2" d="M673.27,119.81a4.3,4.3,0,0,1,.89.08l-.17,1.67a3.5,3.5,0,0,0-.8-.09,2.27,2.27,0,0,0-1.74.7,2.53,2.53,0,0,0-.67,1.83v4.41H669V120h1.4l.24,1.49h.09a3.25,3.25,0,0,1,1.09-1.2A2.59,2.59,0,0,1,673.27,119.81Z"></path>
  <path class="cls-2" d="M701.72,204.23H695.4V193.07h6.32v1.55h-4.49v3h4.2v1.53h-4.2v3.5h4.49Z"></path>
  <path class="cls-2" d="M703.67,193.55a1,1,0,0,1,.27-.74,1,1,0,1,1,0,1.47A1,1,0,0,1,703.67,193.55Zm1.91,10.68h-1.8v-8.44h1.8Z"></path>
  <path class="cls-2" d="M715.43,204.23h-1.81V199a2.31,2.31,0,0,0-.39-1.46,1.52,1.52,0,0,0-1.25-.48,2,2,0,0,0-1.66.68,3.68,3.68,0,0,0-.53,2.25v4.2H708v-8.44h1.4l.26,1.11h.09a2.47,2.47,0,0,1,1.08-.93,3.63,3.63,0,0,1,1.56-.33c2,0,3,1,3,3.09Z"></path>
  <path class="cls-2" d="M719.58,204.23h-1.8V192.36h1.8Z"></path>
  <path class="cls-2" d="M727.28,204.23l-.36-1.17h-.06a3.42,3.42,0,0,1-1.23,1.05,4,4,0,0,1-1.58.28,2.71,2.71,0,0,1-1.95-.68,2.52,2.52,0,0,1-.69-1.9,2.25,2.25,0,0,1,1-2,5.63,5.63,0,0,1,3-.72l1.46-.05v-.45a1.72,1.72,0,0,0-.38-1.21,1.56,1.56,0,0,0-1.17-.4,4.3,4.3,0,0,0-1.25.19,10.39,10.39,0,0,0-1.14.45l-.58-1.28a6.08,6.08,0,0,1,1.5-.54,6.67,6.67,0,0,1,1.54-.19,3.61,3.61,0,0,1,2.43.7,2.74,2.74,0,0,1,.83,2.21v5.68ZM724.61,203a2.23,2.23,0,0,0,1.57-.54,2,2,0,0,0,.59-1.53v-.74l-1.08.05a3.76,3.76,0,0,0-1.85.42,1.29,1.29,0,0,0-.57,1.16,1.12,1.12,0,0,0,.33.87A1.44,1.44,0,0,0,724.61,203Z"></path>
  <path class="cls-2" d="M738,195.79v1l-1.44.26a2.54,2.54,0,0,1,.33.66,2.76,2.76,0,0,1,.13.82,2.54,2.54,0,0,1-.9,2.06,3.77,3.77,0,0,1-2.48.75,3.38,3.38,0,0,1-.74-.07,1,1,0,0,0-.58.84.47.47,0,0,0,.27.44,2.34,2.34,0,0,0,1,.14h1.47a3.3,3.3,0,0,1,2.13.6A2.11,2.11,0,0,1,738,205a2.49,2.49,0,0,1-1.18,2.21,6.23,6.23,0,0,1-3.42.78,4.73,4.73,0,0,1-2.64-.61,2,2,0,0,1-.9-1.74,1.84,1.84,0,0,1,.49-1.31,2.66,2.66,0,0,1,1.38-.74,1.35,1.35,0,0,1-.6-.49,1.27,1.27,0,0,1-.23-.71,1.19,1.19,0,0,1,.27-.8,3,3,0,0,1,.79-.65,2.36,2.36,0,0,1-1.06-.92,2.76,2.76,0,0,1-.41-1.5,2.69,2.69,0,0,1,.87-2.13,3.65,3.65,0,0,1,2.47-.75,6.9,6.9,0,0,1,.75.05,5.36,5.36,0,0,1,.59.1Zm-6.63,9.76a1,1,0,0,0,.52.89,2.87,2.87,0,0,0,1.47.31,4.39,4.39,0,0,0,2.18-.42,1.26,1.26,0,0,0,.72-1.11.82.82,0,0,0-.39-.78,3.07,3.07,0,0,0-1.46-.24h-1.36a1.88,1.88,0,0,0-1.23.37A1.18,1.18,0,0,0,731.41,205.55Zm.77-7a1.74,1.74,0,0,0,.41,1.23,1.55,1.55,0,0,0,1.17.42c1,0,1.56-.55,1.56-1.66a1.87,1.87,0,0,0-.39-1.27,1.46,1.46,0,0,0-1.17-.45,1.53,1.53,0,0,0-1.18.44A1.86,1.86,0,0,0,732.18,198.52Z"></path>
  <path class="cls-2" d="M743.14,204.39a4.1,4.1,0,0,1-3.08-1.15,4.37,4.37,0,0,1-1.11-3.17,4.78,4.78,0,0,1,1-3.25,4,4,0,0,1,5.47-.17,3.88,3.88,0,0,1,1,2.8v1h-5.63a2.78,2.78,0,0,0,.67,1.89,2.29,2.29,0,0,0,1.76.66,6.75,6.75,0,0,0,1.39-.14,7.6,7.6,0,0,0,1.39-.47v1.45a5.64,5.64,0,0,1-1.33.45A8.74,8.74,0,0,1,743.14,204.39Zm-.33-7.39a1.8,1.8,0,0,0-1.37.54,2.57,2.57,0,0,0-.62,1.58h3.84a2.28,2.28,0,0,0-.51-1.58A1.7,1.7,0,0,0,742.81,197Z"></path>
  <path class="cls-2" d="M756.5,204.39a3,3,0,0,1-2.48-1.16h-.11c.07.72.11,1.15.11,1.3V208h-1.8v-12.2h1.45c0,.16.13.54.25,1.13h.1a2.82,2.82,0,0,1,2.52-1.28,2.94,2.94,0,0,1,2.46,1.14,5.24,5.24,0,0,1,.88,3.22,5.17,5.17,0,0,1-.9,3.23A3,3,0,0,1,756.5,204.39Zm-.43-7.29a1.86,1.86,0,0,0-1.56.63,3.23,3.23,0,0,0-.49,2V200a4,4,0,0,0,.48,2.23,1.83,1.83,0,0,0,1.6.69,1.63,1.63,0,0,0,1.44-.76A4,4,0,0,0,758,200a3.86,3.86,0,0,0-.5-2.15A1.67,1.67,0,0,0,756.07,197.1Z"></path>
  <path class="cls-2" d="M763.6,204.23h-1.79V192.36h1.79Z"></path>
  <path class="cls-2" d="M772,204.23l-.25-1.1h-.1a2.52,2.52,0,0,1-1.06.92,3.5,3.5,0,0,1-1.58.34,3.11,3.11,0,0,1-2.29-.77,3.16,3.16,0,0,1-.75-2.31v-5.52h1.81V201a2.28,2.28,0,0,0,.39,1.45,1.51,1.51,0,0,0,1.25.49,2,2,0,0,0,1.66-.68,3.73,3.73,0,0,0,.53-2.26v-4.21h1.8v8.44Z"></path>
  <path class="cls-2" d="M781.48,201.83a2.22,2.22,0,0,1-.9,1.9,4.31,4.31,0,0,1-2.58.66,6.09,6.09,0,0,1-2.71-.51v-1.55a6.73,6.73,0,0,0,2.77.68c1.1,0,1.66-.33,1.66-1a.8.8,0,0,0-.19-.53,2.11,2.11,0,0,0-.6-.44,8.7,8.7,0,0,0-1.17-.52,5.51,5.51,0,0,1-2-1.13,2.08,2.08,0,0,1-.52-1.47,1.91,1.91,0,0,1,.88-1.68,4.12,4.12,0,0,1,2.37-.6,6.73,6.73,0,0,1,2.82.6l-.58,1.35a6.39,6.39,0,0,0-2.3-.56c-.94,0-1.42.27-1.42.81a.83.83,0,0,0,.37.67,8.58,8.58,0,0,0,1.62.75,7.67,7.67,0,0,1,1.52.74,2.33,2.33,0,0,1,.7.78A2.26,2.26,0,0,1,781.48,201.83Z"></path>
  <path class="cls-2" d="M794.4,204.23h-8V203l5.62-8.33h-5.47v-1.57h7.68v1.29l-5.65,8.31h5.8Z"></path>
  <path class="cls-2" d="M795.93,193.55a1,1,0,0,1,.26-.74,1.05,1.05,0,0,1,.75-.26,1,1,0,1,1,0,2,1.05,1.05,0,0,1-.75-.26A1,1,0,0,1,795.93,193.55Zm1.9,10.68H796v-8.44h1.8Z"></path>
  <path class="cls-2" d="M807.68,204.23h-1.8V199a2.25,2.25,0,0,0-.4-1.46,1.5,1.5,0,0,0-1.24-.48,2,2,0,0,0-1.67.68A3.68,3.68,0,0,0,802,200v4.2h-1.79v-8.44h1.41l.25,1.11H802a2.53,2.53,0,0,1,1.08-.93,3.63,3.63,0,0,1,1.56-.33q3,0,3,3.09Z"></path>
  <path class="cls-2" d="M815.71,201.83a2.22,2.22,0,0,1-.9,1.9,4.33,4.33,0,0,1-2.58.66,6.09,6.09,0,0,1-2.71-.51v-1.55a6.73,6.73,0,0,0,2.77.68c1.1,0,1.65-.33,1.65-1a.79.79,0,0,0-.18-.53,2.11,2.11,0,0,0-.6-.44,8.7,8.7,0,0,0-1.17-.52,5.51,5.51,0,0,1-2-1.13,2.08,2.08,0,0,1-.52-1.47,1.93,1.93,0,0,1,.87-1.68,4.17,4.17,0,0,1,2.38-.6,6.8,6.8,0,0,1,2.82.6l-.58,1.35a6.39,6.39,0,0,0-2.3-.56c-1,0-1.42.27-1.42.81a.8.8,0,0,0,.37.67,8.58,8.58,0,0,0,1.62.75,8,8,0,0,1,1.52.74,2.44,2.44,0,0,1,.7.78A2.26,2.26,0,0,1,815.71,201.83Z"></path>
  <path class="cls-2" d="M821.19,204.39a4.11,4.11,0,0,1-3.08-1.15,4.37,4.37,0,0,1-1.11-3.17,4.78,4.78,0,0,1,1-3.25,3.55,3.55,0,0,1,2.83-1.18,3.48,3.48,0,0,1,2.64,1,3.88,3.88,0,0,1,1,2.8v1h-5.62a2.73,2.73,0,0,0,.66,1.89,2.33,2.33,0,0,0,1.77.66,6.82,6.82,0,0,0,1.39-.14,7.52,7.52,0,0,0,1.38-.47v1.45a5.57,5.57,0,0,1-1.32.45A8.77,8.77,0,0,1,821.19,204.39Zm-.33-7.39a1.82,1.82,0,0,0-1.37.54,2.57,2.57,0,0,0-.61,1.58h3.83a2.33,2.33,0,0,0-.5-1.58A1.74,1.74,0,0,0,820.86,197Z"></path>
  <path class="cls-2" d="M833.78,204.23H832V199a2.31,2.31,0,0,0-.39-1.46,1.52,1.52,0,0,0-1.25-.48,2,2,0,0,0-1.66.68,3.68,3.68,0,0,0-.53,2.25v4.2h-1.79v-8.44h1.4l.25,1.11h.09a2.55,2.55,0,0,1,1.09-.93,3.6,3.6,0,0,1,1.56-.33q3,0,3,3.09Z"></path>
  <polygon class="cls-3" points="797.98 140.03 797.98 103.9 720.53 103.9 720.53 110.51 726.68 135.77 777.32 140.03 797.98 140.03"></polygon>
  <g class="cls-20">
    <polygon class="cls-5" points="797.98 140.03 797.98 103.9 720.53 103.9 720.53 110.51 726.68 135.77 777.32 140.03 797.98 140.03"></polygon>
  </g>
  <polygon class="cls-3" points="713.22 119.29 713.22 110.52 791.39 110.52 791.39 147.37 778.95 147.37 713.22 119.29"></polygon>
  <polygon class="cls-5" points="713.22 119.29 713.22 110.52 791.39 110.52 791.39 147.37 778.95 147.37 713.22 119.29"></polygon>
  <rect class="cls-21" x="707.05" y="117.12" width="77.74" height="36.71"></rect>
  <g class="cls-20">
    <rect class="cls-22" x="707.05" y="117.12" width="77.74" height="36.71"></rect>
  </g>
  <line class="cls-7" x1="751.24" y1="132.93" x2="734.7" y2="132.93"></line>
  <g class="cls-20">
    <path class="cls-7" d="M754.13,126.17a10.93,10.93,0,0,0-5.53-1.52,10.83,10.83,0,1,0,5.49,20.15c.22-.13.43-.26.63-.4"></path>
  </g>
  <line class="cls-7" x1="751.24" y1="138.05" x2="734.7" y2="138.05"></line>
  <g class="cls-20">
    <path class="cls-3" d="M786.58,142.25a14.34,14.34,0,1,1-14.34-14.35,14.34,14.34,0,0,1,14.34,14.35"></path>
    <path class="cls-17" d="M786.58,142.25a14.34,14.34,0,1,1-14.34-14.35A14.34,14.34,0,0,1,786.58,142.25Z"></path>
    <line class="cls-17" x1="775.56" y1="140.4" x2="763.56" y2="140.4"></line>
    <path class="cls-17" d="M777.66,135.5a6.56,6.56,0,0,0-.69-.37,7.75,7.75,0,0,0-3.33-.74,7.86,7.86,0,1,0,4,14.62c.16-.09.31-.19.46-.29"></path>
    <line class="cls-17" x1="775.56" y1="144.11" x2="763.56" y2="144.11"></line>
    <path class="cls-3" d="M819,142.25a14.35,14.35,0,1,1-14.35-14.35A14.35,14.35,0,0,1,819,142.25"></path>
    <path class="cls-17" d="M819,142.25a14.35,14.35,0,1,1-14.35-14.35A14.35,14.35,0,0,1,819,142.25Z"></path>
    <line class="cls-17" x1="807.96" y1="140.4" x2="795.96" y2="140.4"></line>
    <path class="cls-17" d="M810.05,135.5a6.42,6.42,0,0,0-.68-.37,7.85,7.85,0,1,0-3.33,15,7.9,7.9,0,0,0,4-1.09l.45-.29"></path>
    <line class="cls-17" x1="807.96" y1="144.11" x2="795.96" y2="144.11"></line>
    <path class="cls-3" d="M803,161.21a14.35,14.35,0,1,1-14.35-14.34A14.34,14.34,0,0,1,803,161.21"></path>
    <path class="cls-17" d="M803,161.21a14.35,14.35,0,1,1-14.35-14.34A14.34,14.34,0,0,1,803,161.21Z"></path>
    <line class="cls-17" x1="791.94" y1="159.37" x2="779.94" y2="159.37"></line>
    <path class="cls-17" d="M794,154.46c-.22-.13-.45-.25-.68-.36A7.85,7.85,0,1,0,794,168c.15-.1.31-.19.45-.3"></path>
    <line class="cls-17" x1="791.94" y1="163.08" x2="779.94" y2="163.08"></line>
  </g>
  <line class="cls-17" x1="401.5" y1="147.14" x2="411.72" y2="135.59"></line>
  <g class="cls-23">
    <path class="cls-24" d="M403.22,140.45a2.44,2.44,0,1,0-2.39-2.43A2.4,2.4,0,0,0,403.22,140.45Z"></path>
    <path class="cls-24" d="M410.12,147.13a2.44,2.44,0,1,0-2.39-2.44A2.41,2.41,0,0,0,410.12,147.13Z"></path>
    <circle class="cls-18" cx="406.67" cy="141.36" r="10.41"></circle>
  </g>
  <line class="cls-17" x1="432.57" y1="152.91" x2="453.01" y2="129.82"></line>
  <g class="cls-23">
    <ellipse class="cls-17" cx="436.01" cy="134.68" rx="4.78" ry="4.87"></ellipse>
    <path class="cls-17" d="M449.81,152.89A4.87,4.87,0,1,0,445,148,4.83,4.83,0,0,0,449.81,152.89Z"></path>
    <path class="cls-18" d="M463.74,141.36a20.83,20.83,0,1,1-20.83-20.83A20.84,20.84,0,0,1,463.74,141.36Z"></path>
  </g>
  <line class="cls-17" x1="475.94" y1="149.45" x2="490.25" y2="133.29"></line>
  <g class="cls-23">
    <path class="cls-17" d="M478.35,140.09a3.41,3.41,0,1,0-3.34-3.41A3.37,3.37,0,0,0,478.35,140.09Z"></path>
    <path class="cls-17" d="M488,149.43a3.41,3.41,0,1,0-3.34-3.41A3.38,3.38,0,0,0,488,149.43Z"></path>
    <path class="cls-18" d="M497.76,141.36a14.58,14.58,0,1,1-14.58-14.58A14.58,14.58,0,0,1,497.76,141.36Z"></path>
  </g>
  <path class="cls-2" d="M390.56,193.07h1.89l-3.91,11.16h-1.92l-3.89-11.16h1.87l2.33,6.94c.12.33.25.76.39,1.28s.23.91.27,1.16c.07-.38.17-.83.3-1.34s.25-.89.34-1.13Z"></path>
  <path class="cls-2" d="M398.71,204.23l-.36-1.18h-.06a3.39,3.39,0,0,1-1.23,1,3.87,3.87,0,0,1-1.59.28,2.66,2.66,0,0,1-1.94-.67,2.5,2.5,0,0,1-.7-1.9,2.22,2.22,0,0,1,1-2,5.59,5.59,0,0,1,2.95-.72l1.46-.05v-.45a1.72,1.72,0,0,0-.38-1.21,1.52,1.52,0,0,0-1.17-.4,4,4,0,0,0-1.25.19,11.25,11.25,0,0,0-1.14.45l-.58-1.28a6.53,6.53,0,0,1,1.5-.55,7.28,7.28,0,0,1,1.55-.19,3.65,3.65,0,0,1,2.43.71,2.77,2.77,0,0,1,.82,2.2v5.69ZM396,203a2.2,2.2,0,0,0,1.57-.55,2,2,0,0,0,.59-1.53v-.73l-1.08.05a3.69,3.69,0,0,0-1.84.42,1.28,1.28,0,0,0-.58,1.16,1.12,1.12,0,0,0,.34.87A1.39,1.39,0,0,0,396,203Z"></path>
  <path class="cls-2" d="M406.46,195.63a4.3,4.3,0,0,1,.89.08l-.17,1.67a3.5,3.5,0,0,0-.8-.09,2.32,2.32,0,0,0-1.74.7,2.53,2.53,0,0,0-.67,1.83v4.41h-1.79v-8.44h1.4l.24,1.49h.09a3.27,3.27,0,0,1,1.1-1.2A2.56,2.56,0,0,1,406.46,195.63Z"></path>
  <path class="cls-2" d="M408.5,193.55a1,1,0,0,1,.26-.74,1.05,1.05,0,0,1,.75-.26,1,1,0,0,1,.74.26,1,1,0,0,1,.26.74.94.94,0,0,1-.26.72,1,1,0,0,1-.74.27,1,1,0,0,1-.75-.27A1,1,0,0,1,408.5,193.55Zm1.9,10.68h-1.8v-8.44h1.8Z"></path>
  <path class="cls-2" d="M418,204.23l-.36-1.18h-.06a3.39,3.39,0,0,1-1.23,1,3.81,3.81,0,0,1-1.59.28,2.68,2.68,0,0,1-1.94-.67,2.5,2.5,0,0,1-.7-1.9,2.22,2.22,0,0,1,1-2,5.62,5.62,0,0,1,2.95-.72l1.46-.05v-.45a1.72,1.72,0,0,0-.37-1.21,1.56,1.56,0,0,0-1.18-.4,4,4,0,0,0-1.24.19,10.56,10.56,0,0,0-1.15.45l-.58-1.28a6.44,6.44,0,0,1,1.51-.55,7.19,7.19,0,0,1,1.54-.19,3.65,3.65,0,0,1,2.43.71,2.73,2.73,0,0,1,.82,2.2v5.69ZM415.28,203a2.21,2.21,0,0,0,1.57-.55,2,2,0,0,0,.59-1.53v-.73l-1.09.05a3.72,3.72,0,0,0-1.84.42,1.28,1.28,0,0,0-.58,1.16,1.12,1.12,0,0,0,.34.87A1.42,1.42,0,0,0,415.28,203Z"></path>
  <path class="cls-2" d="M425.74,195.63a3,3,0,0,1,2.46,1.15,5.13,5.13,0,0,1,.88,3.21,5.22,5.22,0,0,1-.89,3.24,3.26,3.26,0,0,1-5,0h-.13l-.32,1h-1.35V192.35h1.8v2.83q0,.31,0,.93c0,.41,0,.67-.05.78h.08A2.85,2.85,0,0,1,425.74,195.63Zm-.47,1.47a1.81,1.81,0,0,0-1.56.64,3.66,3.66,0,0,0-.49,2.13V200a4,4,0,0,0,.48,2.24,1.83,1.83,0,0,0,1.6.69,1.61,1.61,0,0,0,1.45-.76,4,4,0,0,0,.49-2.18C427.24,198.06,426.58,197.1,425.27,197.1Z"></path>
  <path class="cls-2" d="M432.64,204.23h-1.79V192.35h1.79Z"></path>
  <path class="cls-2" d="M438.6,204.38a4.07,4.07,0,0,1-3.08-1.15,4.35,4.35,0,0,1-1.11-3.16,4.77,4.77,0,0,1,1-3.25,3.55,3.55,0,0,1,2.83-1.19,3.48,3.48,0,0,1,2.64,1,3.87,3.87,0,0,1,1,2.79v1h-5.63a2.78,2.78,0,0,0,.67,1.89,2.31,2.31,0,0,0,1.76.66,6.21,6.21,0,0,0,1.4-.14,6.83,6.83,0,0,0,1.38-.47v1.46a5.19,5.19,0,0,1-1.33.44A7.87,7.87,0,0,1,438.6,204.38Zm-.33-7.39a1.77,1.77,0,0,0-1.37.55,2.54,2.54,0,0,0-.61,1.58h3.83a2.33,2.33,0,0,0-.51-1.59A1.7,1.7,0,0,0,438.27,197Z"></path>
  <path class="cls-2" d="M447.89,195.63a4.3,4.3,0,0,1,.89.08l-.17,1.67a3.5,3.5,0,0,0-.8-.09,2.32,2.32,0,0,0-1.74.7,2.53,2.53,0,0,0-.67,1.83v4.41h-1.79v-8.44H445l.24,1.49h.09a3.25,3.25,0,0,1,1.09-1.2A2.61,2.61,0,0,1,447.89,195.63Z"></path>
  <path class="cls-2" d="M461,204.23h-8V203l5.63-8.33h-5.48v-1.56h7.68v1.28l-5.65,8.32H461Z"></path>
  <path class="cls-2" d="M462.37,193.55a1,1,0,0,1,.26-.74,1.06,1.06,0,0,1,.76-.26,1,1,0,0,1,.73.26,1,1,0,0,1,.27.74.94.94,0,0,1-.27.72,1,1,0,0,1-.73.27,1,1,0,0,1-.76-.27A1,1,0,0,1,462.37,193.55Zm1.9,10.68h-1.79v-8.44h1.79Z"></path>
  <path class="cls-2" d="M474,204.23h-1.8V199a2.29,2.29,0,0,0-.4-1.46,1.52,1.52,0,0,0-1.25-.48,2,2,0,0,0-1.66.67,3.72,3.72,0,0,0-.53,2.25v4.21h-1.79v-8.44h1.4l.26,1.1h.09a2.47,2.47,0,0,1,1.08-.93,3.63,3.63,0,0,1,1.56-.33c2,0,3,1,3,3.1Z"></path>
  <path class="cls-2" d="M481.84,201.83a2.2,2.2,0,0,1-.9,1.89,4.31,4.31,0,0,1-2.58.66,6.09,6.09,0,0,1-2.71-.51v-1.55a6.6,6.6,0,0,0,2.77.69c1.1,0,1.66-.33,1.66-1a.83.83,0,0,0-.19-.54,2.11,2.11,0,0,0-.6-.44,12.31,12.31,0,0,0-1.17-.52,5.23,5.23,0,0,1-2-1.13,2,2,0,0,1-.52-1.46,1.92,1.92,0,0,1,.88-1.69,4.12,4.12,0,0,1,2.37-.6,6.74,6.74,0,0,1,2.82.61l-.58,1.35a6.23,6.23,0,0,0-2.3-.57c-.94,0-1.42.27-1.42.81a.82.82,0,0,0,.37.67,7.83,7.83,0,0,0,1.62.76,8,8,0,0,1,1.52.74,2.24,2.24,0,0,1,.7.78A2.26,2.26,0,0,1,481.84,201.83Z"></path>
  <path class="cls-2" d="M489.15,201.83a2.2,2.2,0,0,1-.9,1.89,4.31,4.31,0,0,1-2.58.66,6.12,6.12,0,0,1-2.71-.51v-1.55a6.63,6.63,0,0,0,2.77.69c1.11,0,1.66-.33,1.66-1a.82.82,0,0,0-.18-.54,2.34,2.34,0,0,0-.61-.44,12.31,12.31,0,0,0-1.17-.52,5.23,5.23,0,0,1-2-1.13,2.08,2.08,0,0,1-.51-1.46,1.93,1.93,0,0,1,.87-1.69,4.13,4.13,0,0,1,2.38-.6,6.73,6.73,0,0,1,2.81.61l-.58,1.35a6.18,6.18,0,0,0-2.29-.57c-.95,0-1.42.27-1.42.81a.79.79,0,0,0,.37.67,7.41,7.41,0,0,0,1.61.76,7.67,7.67,0,0,1,1.52.74,2.08,2.08,0,0,1,.93,1.83Z"></path>
  <path class="cls-2" d="M496.08,204.23l-.36-1.18h-.06a3.39,3.39,0,0,1-1.23,1,3.87,3.87,0,0,1-1.59.28,2.66,2.66,0,0,1-1.94-.67,2.5,2.5,0,0,1-.7-1.9,2.22,2.22,0,0,1,1-2,5.59,5.59,0,0,1,2.95-.72l1.46-.05v-.45a1.72,1.72,0,0,0-.38-1.21A1.52,1.52,0,0,0,494,197a4,4,0,0,0-1.25.19,11.25,11.25,0,0,0-1.14.45l-.58-1.28a6.53,6.53,0,0,1,1.5-.55,7.28,7.28,0,0,1,1.55-.19,3.65,3.65,0,0,1,2.43.71,2.77,2.77,0,0,1,.82,2.2v5.69ZM493.4,203a2.2,2.2,0,0,0,1.57-.55,2,2,0,0,0,.59-1.53v-.73l-1.08.05a3.69,3.69,0,0,0-1.84.42,1.28,1.28,0,0,0-.58,1.16,1.12,1.12,0,0,0,.34.87A1.41,1.41,0,0,0,493.4,203Z"></path>
  <path class="cls-2" d="M502.69,202.93a4.65,4.65,0,0,0,1.32-.2v1.35a3.65,3.65,0,0,1-.77.21,5.15,5.15,0,0,1-1,.09c-1.7,0-2.55-.89-2.55-2.68v-4.55h-1.16v-.8l1.24-.65.61-1.79h1.11v1.88h2.4v1.36h-2.4v4.52a1.27,1.27,0,0,0,.32,1A1.17,1.17,0,0,0,502.69,202.93Z"></path>
  <path class="cls-2" d="M511,204.23h-6.4v-1.11l4.26-6h-4v-1.37h6V197l-4.18,5.82H511Z"></path>
  <line class="cls-8" x1="347.07" y1="140.17" x2="373.86" y2="140.17"></line>
  <polyline class="cls-9" points="368.34 133.01 375.64 140.19 368.34 147.13"></polyline>
</svg>
