<svg id="Ebene_1" data-name="Ebene 1" xmlns="http://www.w3.org/2000/svg" viewBox="0 0 145.68 74.22"><defs><style>.cls-1{fill:#1a171b;}</style></defs><rect class="cls-1" x="8.51" y="7.73" width="10.25" height="10.26"/><polygon class="cls-1" points="0 0 0 17.99 6.55 17.99 6.55 5.76 20.73 5.76 20.73 17.99 27.28 17.99 27.28 0 0 0"/><path class="cls-1" d="M51,79.15c0-3.09-2.16-4.93-5.77-4.93H40.6v18h1.89V84.3h2.2l5.66,7.89,0,0h2.25l-5.87-8.13C49.45,83.45,51,81.66,51,79.15Zm-1.91.09c0,2.18-1.55,3.43-4.26,3.43H42.49V75.9h2.65C47.68,75.9,49.08,77.09,49.08,79.24Z" transform="translate(-26.97 -17.99)"/><path class="cls-1" d="M31.53,74.22H27.05v18h1.88V84.66h2.18c4,0,6.33-2,6.33-5.36C37.44,76.12,35.23,74.22,31.53,74.22Zm4,5.13c0,2.38-1.5,3.64-4.33,3.64H28.93V75.9H31.4C34.09,75.9,35.52,77.09,35.52,79.35Z" transform="translate(-26.97 -17.99)"/><rect class="cls-1" x="28.99" y="56.23" width="1.88" height="17.99"/><polygon class="cls-1" points="49.89 56.23 47.92 56.23 42.02 71.83 36.09 56.26 36.08 56.23 34.06 56.23 41.1 74.19 41.11 74.22 42.86 74.22 49.86 56.3 49.89 56.23"/><path class="cls-1" d="M85.42,74.22h-2l-7,17.92,0,.07H78.3l2.21-5.78h7.76l2.21,5.74,0,0h2l-7.07-18ZM87.6,84.74H81.17l3.22-8.36Z" transform="translate(-26.97 -17.99)"/><path class="cls-1" d="M130.22,74.22h-2l-7,17.92,0,.07h1.92l2.2-5.78h7.76l2.23,5.75v0h2l-7.07-18Zm2.18,10.52H126l3.22-8.36Z" transform="translate(-26.97 -17.99)"/><polygon class="cls-1" points="64.88 57.94 70.64 57.94 70.64 74.22 72.53 74.22 72.53 57.94 78.15 57.94 78.15 56.23 64.88 56.23 64.88 57.94"/><path class="cls-1" d="M115.44,82.63a4.08,4.08,0,0,0,2.63-3.9c0-2.87-2-4.51-5.57-4.51h-4.2v18h4.17c4.07,0,6.41-1.89,6.41-5.2A4.31,4.31,0,0,0,115.44,82.63ZM110.16,82V75.88h2.28c2.47,0,3.77,1,3.77,2.93S114.75,82,112.4,82ZM117,87.1c0,2.16-1.64,3.45-4.39,3.45h-2.46v-7h2.37C116.23,83.57,117,85.49,117,87.1Z" transform="translate(-26.97 -17.99)"/><polygon class="cls-1" points="125.33 70.71 115.29 56.25 115.28 56.23 113.52 56.23 113.52 74.22 115.3 74.22 115.3 59.27 125.66 74.2 125.67 74.22 127.12 74.22 127.12 56.23 125.33 56.23 125.33 70.71"/><polygon class="cls-1" points="136.31 64.63 144.88 56.31 144.97 56.23 142.54 56.23 134.29 64.3 134.29 56.23 132.4 56.23 132.4 74.22 134.29 74.22 134.29 65.06 143.14 74.2 143.16 74.22 145.68 74.22 136.31 64.63"/><polygon class="cls-1" points="17.37 48.13 19.02 48.13 24.41 30.2 24.43 30.14 22.54 30.14 18.16 45.16 13.23 30.14 11.31 30.14 6.42 45.16 2.07 30.17 2.06 30.14 0.07 30.14 5.51 48.09 5.52 48.13 7.12 48.13 12.23 32.81 17.36 48.09 17.37 48.13"/><rect class="cls-1" x="28.05" y="30.14" width="1.89" height="17.99"/><polygon class="cls-1" points="44.53 46.42 36.73 46.42 36.73 39.58 42.95 39.58 42.95 37.87 36.73 37.87 36.73 31.85 44.27 31.85 44.27 30.14 34.84 30.14 34.84 48.13 44.53 48.13 44.53 46.42"/><polygon class="cls-1" points="49.69 33.18 60.05 48.11 60.06 48.13 61.51 48.13 61.51 30.14 59.73 30.14 59.73 44.63 49.68 30.16 49.67 30.14 47.9 30.14 47.9 48.13 49.69 48.13 49.69 33.18"/><polygon class="cls-1" points="75.87 46.42 68.07 46.42 68.07 39.58 74.29 39.58 74.29 37.87 68.07 37.87 68.07 31.85 75.61 31.85 75.61 30.14 66.18 30.14 66.18 48.13 75.87 48.13 75.87 46.42"/><path class="cls-1" d="M116,66.1v0h2.25L112.37,58c2.7-.63,4.25-2.42,4.25-4.93,0-3.09-2.17-4.93-5.79-4.93h-4.61v18h1.89V58.21h2.21Zm-5.54-9.52h-2.33V49.81h2.65c2.54,0,3.94,1.19,3.94,3.35S113.15,56.58,110.44,56.58Z" transform="translate(-26.97 -17.99)"/></svg>