<svg xmlns="http://www.w3.org/2000/svg" width="37.041" height="40.5" viewBox="0 0 37.041 40.5">
  <g id="Group_34" data-name="Group 34" transform="translate(-132.331 -41.998)">
    <path id="Path_744" data-name="Path 744" d="M166.851,54.643c.11-.233.214-.462.31-.686a11.193,11.193,0,0,0,1.167-4.155,7.806,7.806,0,0,0-14.446-4.1,18.861,18.861,0,0,0-3.03-.248,18.468,18.468,0,0,0-13.093,5.427,18.587,18.587,0,0,0-3.969,5.884,18.5,18.5,0,0,0,3.969,20.3,18.587,18.587,0,0,0,5.884,3.969,18.5,18.5,0,0,0,20.3-3.969,18.588,18.588,0,0,0,3.969-5.884,18.55,18.55,0,0,0,0-14.418,17.994,17.994,0,0,0-1.063-2.125Zm-20.517-7.109a13.3,13.3,0,0,0-2.482,3.54,22.326,22.326,0,0,0-1.387,3.5h-5.832a17.084,17.084,0,0,1,9.7-7.042Zm-10.573,8.505h6.3a33.336,33.336,0,0,0-.91,7.209h-7.337A16.946,16.946,0,0,1,135.761,56.039Zm-1.949,8.672h7.337a33.393,33.393,0,0,0,.91,7.209h-6.3A16.989,16.989,0,0,1,133.813,64.711Zm2.821,8.672h5.827a22.519,22.519,0,0,0,1.387,3.5,13.57,13.57,0,0,0,2.482,3.54,17.11,17.11,0,0,1-9.7-7.042Zm13.484,7.581c-1.839-.348-3.578-2-4.96-4.736A20.217,20.217,0,0,1,144,73.388h6.118Zm0-9.044h-6.546a31.593,31.593,0,0,1-.953-7.209h7.5Zm0-8.677h-7.5a31.609,31.609,0,0,1,.953-7.209h6.547Zm0-8.672H144a20.778,20.778,0,0,1,1.158-2.84c1.382-2.74,3.121-4.388,4.96-4.736Zm4.2-6.027a6.244,6.244,0,0,1,1.124-2.516A6.336,6.336,0,0,1,166.865,49.8a9.36,9.36,0,0,1-.962,3.378c-.024.062-.052.124-.081.186q-.529,1.208-1.31,2.673c-.329.614-.691,1.263-1.081,1.939-1.11,1.92-2.23,3.659-2.9,4.669,0,0,0,.01-.01.014-.415-.624-1-1.534-1.654-2.592-.4-.653-.824-1.358-1.253-2.092q-.586-1.015-1.082-1.939c-.272-.51-.524-1-.748-1.467-.2-.419-.391-.824-.557-1.205a9.7,9.7,0,0,1-1.044-3.564,6.814,6.814,0,0,1,.129-1.258ZM151.585,47a4.681,4.681,0,0,1,1.463.562,7.842,7.842,0,0,0-.324,2.244,11.172,11.172,0,0,0,1.167,4.155c.086.2.181.405.276.615h-2.582Zm0,9.044h3.3c.429.834.92,1.734,1.472,2.682,1.015,1.753,2.039,3.364,2.725,4.412a.859.859,0,0,0,0,.11h-7.5Zm0,8.672h7.5a31.614,31.614,0,0,1-.953,7.209h-6.547Zm0,16.253V73.387H157.7a20.776,20.776,0,0,1-1.158,2.84C155.163,78.962,153.424,80.615,151.585,80.963Zm3.783-.538a13.3,13.3,0,0,0,2.482-3.54,22.326,22.326,0,0,0,1.387-3.5h5.827a17.081,17.081,0,0,1-9.7,7.042Zm10.573-8.505h-6.3a33.337,33.337,0,0,0,.91-7.209h7.337A16.984,16.984,0,0,1,165.941,71.92ZM161.9,63.243c.686-1.048,1.749-2.706,2.8-4.522.5-.867.958-1.691,1.358-2.463a16.938,16.938,0,0,1,1.834,6.99H161.9Z" fill="#039244"/>
    <path id="Path_745" data-name="Path 745" d="M419.328,94.647a3.969,3.969,0,1,0-.967-6.556,3.956,3.956,0,0,0-1.253,2.187,4.165,4.165,0,0,0-.076.772,3.976,3.976,0,0,0,2.3,3.6Zm-.543-4.755a2.509,2.509,0,0,1,1.115-1.087,2.465,2.465,0,0,1,1.105-.257,2.509,2.509,0,0,1,2.506,2.506c0,.071,0,.143-.01.214a2.52,2.52,0,0,1-.61,1.434A2.505,2.505,0,0,1,418.5,91.05a2.419,2.419,0,0,1,.281-1.158Z" transform="translate(-260.478 -41.247)" fill="#039244"/>
  </g>
</svg>
